# https://github.com/mikedh/trimesh

o FR3_Version2_Link0_6-mesh
v -0.14094051 -0.00129338 0.00950000
v -0.13894981 -0.00011250 0.00950000
v -0.14132250 -0.00051532 0.00950000
v -0.13895321 0.00031953 0.00950000
v -0.14096241 0.00146867 0.00950000
v -0.14133201 0.00068464 0.00950000
v -0.13883530 0.00003997 0.00950000
v -0.13882731 0.00010450 0.00950000
v -0.13883631 0.00016891 0.00950000
v -0.15082171 0.00042401 0.00950000
v -0.15082970 0.00035924 0.00950000
v -0.15058170 0.00061121 0.00950000
v -0.13885961 -0.00002034 0.00950000
v -0.14101591 0.00149147 0.00950000
v -0.14133021 0.00130748 0.00950000
v -0.14133651 0.00124967 0.00950000
v -0.15057221 -0.00058875 0.00950000
v -0.13889861 -0.00007233 0.00950000
v -0.13890140 0.00028018 0.00950000
v -0.13886161 0.00022882 0.00950000
v -0.15064640 0.00060218 0.00950000
v -0.15070641 0.00057673 0.00950000
v -0.15075791 0.00053659 0.00950000
v -0.15082421 -0.00034074 0.00950000
v -0.15081510 -0.00040538 0.00950000
v -0.15078971 -0.00046547 0.00950000
v -0.15074950 -0.00051693 0.00950000
v -0.15069741 -0.00055625 0.00950000
v -0.15063700 -0.00058074 0.00950000
v -0.14131800 -0.00108035 0.00950000
v -0.14131081 -0.00113805 0.00950000
v -0.14129041 -0.00119253 0.00950000
v -0.14107320 0.00150130 0.00950000
v -0.14113120 0.00149762 0.00950000
v -0.14118691 0.00148063 0.00950000
v -0.14123701 0.00145125 0.00950000
v -0.14127911 0.00141107 0.00950000
v -0.14131071 0.00136227 0.00950000
v -0.15079720 0.00048450 0.00950000
v -0.14125800 -0.00124082 0.00950000
v -0.14121531 -0.00128033 0.00950000
v -0.14116471 -0.00130891 0.00950000
v -0.14110880 -0.00132501 0.00950000
v -0.14105071 -0.00132777 0.00950000
v -0.14099361 -0.00131703 0.00950000
v -0.14775640 0.00688384 0.00950000
v -0.14775060 0.00614530 0.00950000
v -0.14732381 0.00705653 0.00950000
v -0.14596720 0.00414051 0.00950000
v -0.14681800 0.00505079 0.00950000
v -0.14760210 0.00464337 0.00950000
v -0.14589661 0.00552950 0.00950000
v -0.14504591 0.00461922 0.00950000
v -0.14461440 0.00619571 0.00950000
v -0.14437760 0.00496642 0.00950000
v -0.14764771 0.00461289 0.00950000
v -0.14768560 0.00457318 0.00950000
v -0.14771390 0.00452618 0.00950000
v -0.14422480 0.00291175 0.00950000
v -0.14423061 0.00365028 0.00950000
v -0.14465740 0.00273906 0.00950000
v -0.14423881 0.00371156 0.00950000
v -0.14773130 0.00447413 0.00950000
v -0.14773690 0.00441954 0.00950000
v -0.14736541 0.00341408 0.00950000
v -0.14773061 0.00363394 0.00950000
v -0.14772201 0.00357088 0.00950000
v -0.14769781 0.00351204 0.00950000
v -0.14768320 0.00597658 0.00950000
v -0.14429801 0.00381900 0.00950000
v -0.14426171 0.00376897 0.00950000
v -0.14428541 0.00274653 0.00950000
v -0.14425211 0.00279617 0.00950000
v -0.14423151 0.00285232 0.00950000
v -0.14774241 0.00608402 0.00950000
v -0.14771950 0.00602661 0.00950000
v -0.14425771 0.00603891 0.00950000
v -0.14428191 0.00609775 0.00950000
v -0.14424911 0.00597586 0.00950000
v -0.14432030 0.00614857 0.00950000
v -0.14437020 0.00618806 0.00950000
v -0.14442841 0.00621368 0.00950000
v -0.14449131 0.00622375 0.00950000
v -0.14429410 0.00503661 0.00950000
v -0.14426580 0.00508362 0.00950000
v -0.14433201 0.00499691 0.00950000
v -0.14424851 0.00513567 0.00950000
v -0.14424291 0.00519025 0.00950000
v -0.14455460 0.00621763 0.00950000
v -0.14769581 0.00704905 0.00950000
v -0.14772910 0.00699941 0.00950000
v -0.14774981 0.00694327 0.00950000
v -0.14742510 0.00339217 0.00950000
v -0.14748850 0.00338605 0.00950000
v -0.14755131 0.00339612 0.00950000
v -0.14765951 0.00346123 0.00950000
v -0.14760961 0.00342174 0.00950000
v -0.14449970 0.00266101 0.00950000
v -0.14443990 0.00266221 0.00950000
v -0.14455811 0.00267404 0.00950000
v -0.14438210 0.00267758 0.00950000
v -0.14461170 0.00270056 0.00950000
v -0.14432961 0.00270623 0.00950000
v -0.14759911 0.00711801 0.00950000
v -0.14742321 0.00712154 0.00950000
v -0.14754131 0.00713338 0.00950000
v -0.14748151 0.00713458 0.00950000
v -0.14736961 0.00709502 0.00950000
v -0.14765160 0.00708936 0.00950000
f 1 2 3
f 4 5 6
f 7 8 9
f 10 11 12
f 7 9 13
f 14 15 5
f 15 16 5
f 5 16 6
f 11 17 12
f 17 3 12
f 12 3 6
f 3 2 6
f 6 2 4
f 2 18 4
f 4 18 19
f 13 9 18
f 9 20 18
f 18 20 19
f 21 22 23
f 11 24 17
f 24 25 17
f 17 25 26
f 26 27 17
f 27 28 17
f 17 28 29
f 3 30 1
f 30 31 1
f 1 31 32
f 14 33 15
f 33 34 15
f 15 34 35
f 35 36 15
f 36 37 15
f 15 37 38
f 21 23 12
f 23 39 12
f 12 39 10
f 32 40 1
f 40 41 1
f 1 41 42
f 42 43 1
f 43 44 1
f 1 44 45
f 46 47 48
f 49 50 51
f 52 53 54
f 53 55 54
f 51 56 49
f 56 57 49
f 49 57 58
f 59 60 61
f 60 62 61
f 58 63 49
f 63 64 49
f 49 64 65
f 64 66 65
f 66 67 65
f 65 67 68
f 48 69 52
f 69 50 52
f 52 50 53
f 50 49 53
f 53 49 70
f 49 61 70
f 70 61 71
f 61 62 71
f 72 73 61
f 73 74 61
f 61 74 59
f 47 75 48
f 75 76 48
f 48 76 69
f 77 78 79
f 78 80 79
f 80 81 79
f 81 82 79
f 79 82 83
f 84 85 86
f 85 87 86
f 86 87 55
f 87 88 55
f 55 88 54
f 88 79 54
f 54 79 89
f 79 83 89
f 90 91 48
f 91 92 48
f 48 92 46
f 93 65 94
f 65 95 94
f 68 96 65
f 96 97 65
f 65 97 95
f 98 99 100
f 99 101 100
f 100 101 102
f 102 101 61
f 101 103 61
f 61 103 72
f 104 105 106
f 105 107 106
f 48 108 90
f 108 105 90
f 90 105 109
f 105 104 109

