# https://github.com/mikedh/trimesh

o FR3_Version2_Link0_4-mesh
v -0.00516824 0.06500000 0.03009906
v -0.00552437 0.06500000 0.03072444
v 0.00539635 0.06500000 0.03230000
v -0.00307092 0.06500000 0.02703341
v -0.00328853 0.06500000 0.02712066
v -0.00329967 0.06500000 0.02712513
v -0.00552453 0.06500000 0.03229958
v -0.00516360 0.06500000 0.03229979
v -0.00581113 0.06500000 0.03223177
v 0.00275761 0.06500000 0.02700000
v -0.00281532 0.06500000 0.02700000
v -0.00305489 0.06500000 0.02703131
v -0.00339168 0.06500000 0.02719202
v -0.00349704 0.06500000 0.02726863
v -0.00356842 0.06500000 0.02735391
v -0.00481194 0.06500000 0.02947339
v -0.00606802 0.06500000 0.03179365
v -0.00606237 0.06500000 0.03184708
v -0.00601254 0.06500000 0.03202923
v -0.00598687 0.06500000 0.03206727
v -0.00594855 0.06500000 0.03212407
v -0.00590886 0.06500000 0.03216026
v -0.00585873 0.06500000 0.03220598
v -0.00481194 0.06500000 0.03230000
v 0.00598880 0.06500000 0.03160623
v 0.00594426 0.06500000 0.03145599
v 0.00549036 0.06500000 0.03229259
v -0.00605557 0.06500000 0.03191137
v -0.00603627 0.06500000 0.03196424
v -0.00574831 0.06500000 0.03226581
v -0.00569623 0.06500000 0.03227923
v 0.00335967 0.06500000 0.02717948
v 0.00310103 0.06500000 0.02705501
v 0.00281898 0.06500000 0.02700172
v -0.00557894 0.06500000 0.03229682
v -0.00563990 0.06500000 0.03229373
v -0.00365625 0.06500000 0.02745885
v -0.00368301 0.06500000 0.02750289
v -0.00576033 0.06500000 0.03113301
v -0.00600200 0.06500000 0.03155147
v -0.00605042 0.06500000 0.03166838
v 0.00591678 0.06500000 0.03140184
v 0.00371173 0.06500000 0.02755303
v 0.00357731 0.06500000 0.02736668
v -0.00605090 0.06500000 0.03166953
v -0.00606833 0.06500000 0.03179076
v 0.00599294 0.06500000 0.03176281
v 0.00564053 0.06500000 0.03224808
v 0.00595642 0.06500000 0.03191507
v 0.00577402 0.06500000 0.03216624
v 0.00588175 0.06500000 0.03205266
f 1 2 3
f 4 5 3
f 5 6 3
f 7 8 9
f 10 11 3
f 11 12 3
f 3 12 4
f 6 13 3
f 13 14 3
f 3 14 15
f 1 3 16
f 17 18 3
f 19 20 3
f 20 21 3
f 3 21 22
f 22 23 3
f 23 9 3
f 3 9 24
f 9 8 24
f 25 26 27
f 18 28 3
f 28 29 3
f 3 29 19
f 9 30 31
f 32 33 34
f 7 9 35
f 9 31 35
f 35 31 36
f 15 37 3
f 37 38 3
f 3 38 16
f 2 39 3
f 39 40 3
f 3 40 41
f 27 26 3
f 26 42 3
f 3 42 10
f 42 43 10
f 10 43 34
f 43 44 34
f 34 44 32
f 41 45 3
f 45 46 3
f 3 46 17
f 25 27 47
f 27 48 47
f 47 48 49
f 48 50 49
f 49 50 51

