# https://github.com/mikedh/trimesh

o FR3_Version2_Link6-mesh
v -0.02012401 0.04326065 -0.00343714
v -0.01940010 0.04358935 -0.00351100
v -0.02007867 0.04328166 -0.00393553
v -0.01939051 0.04359361 -0.00361030
v -0.01938478 0.04359615 -0.00363379
v -0.01937928 0.04359859 -0.00365631
v -0.02007473 0.04328348 -0.00395264
v -0.01934088 0.04361560 -0.00374799
v -0.02005695 0.04329170 -0.00402994
v -0.01995373 0.04333923 -0.00430419
v -0.01933650 0.04361754 -0.00375847
v -0.01992249 0.04335361 -0.00438719
v -0.01931196 0.04362838 -0.00379782
v -0.01983116 0.04339537 -0.00454052
v -0.01927068 0.04364657 -0.00384462
v -0.01978129 0.04341796 -0.00459774
v -0.01924059 0.04365984 -0.00387874
v -0.01965746 0.04347405 -0.00473984
v -0.01920551 0.04367525 -0.00390698
v -0.01961549 0.04349306 -0.00478800
v -0.01918169 0.04368567 -0.00392007
v -0.01951640 0.04353752 -0.00486940
v -0.01911352 0.04371549 -0.00395753
v -0.01938914 0.04359389 -0.00494184
v -0.01907766 0.04373112 -0.00396954
v -0.01907183 0.04373366 -0.00397150
v -0.01920272 0.04367647 -0.00504797
v -0.01896956 0.04377802 -0.00398597
v -0.01896495 0.04378001 -0.00398578
v -0.01892592 0.04379686 -0.00398410
v -0.01885251 0.04382841 -0.00396722
v -0.01882489 0.04384028 -0.00396087
v -0.01878421 0.04385769 -0.00394336
v -0.01874821 0.04387303 -0.00391961
v -0.01807097 0.04415570 -0.00413266
v -0.01869583 0.04389535 -0.00388505
v -0.01866273 0.04390940 -0.00385388
v -0.01865691 0.04391187 -0.00384619
v -0.01857527 0.04394639 -0.00372575
v -0.01805222 0.04416333 -0.00410517
v -0.01858709 0.04394141 -0.00374821
v -0.01859702 0.04393721 -0.00376707
v -0.01853040 0.04396529 -0.00346104
v -0.01780090 0.04426503 -0.00329769
v -0.01853101 0.04396504 -0.00351096
v -0.01782206 0.04425653 -0.00355997
v -0.01853177 0.04396472 -0.00357341
v -0.01784521 0.04424721 -0.00364708
v -0.01853970 0.04396138 -0.00362021
v -0.01789429 0.04422744 -0.00383173
v -0.01854416 0.04395950 -0.00363344
v -0.01792800 0.04421380 -0.00390466
v -0.01795442 0.04420311 -0.00396182
v -0.01853720 0.04396243 -0.00341403
v -0.01854500 0.04395915 -0.00338883
v -0.01781966 0.04425749 -0.00312337
v -0.01857018 0.04394854 -0.00330750
v -0.01784138 0.04424876 -0.00292156
v -0.01786315 0.04424000 -0.00283869
v -0.01858692 0.04394148 -0.00327368
v -0.01787968 0.04423331 -0.00279927
v -0.01859093 0.04393979 -0.00326558
v -0.01798252 0.04419171 -0.00255404
v -0.01865451 0.04391289 -0.00317691
v -0.01799907 0.04418498 -0.00252727
v -0.01803592 0.04416999 -0.00246767
v -0.01865622 0.04391217 -0.00317521
v -0.01817465 0.04411315 -0.00230662
v -0.01868685 0.04389916 -0.00314479
v -0.01821290 0.04409748 -0.00226222
v -0.01874806 0.04387310 -0.00310198
v -0.01832003 0.04405317 -0.00217649
v -0.01877379 0.04386214 -0.00308398
v -0.01838151 0.04402748 -0.00214397
v -0.01881406 0.04384492 -0.00306530
v -0.01854496 0.04395917 -0.00205753
v -0.01863550 0.04392093 -0.00202840
v -0.01885268 0.04382833 -0.00305526
v -0.01864541 0.04391675 -0.00202522
v -0.01891450 0.04380178 -0.00303919
v -0.01891889 0.04379989 -0.00198866
v -0.01895813 0.04378295 -0.00303606
v -0.01907385 0.04373270 -0.00199958
v -0.01896486 0.04378004 -0.00303682
v -0.01911074 0.04371670 -0.00200217
v -0.01906071 0.04373849 -0.00304761
v -0.01921701 0.04367020 -0.00202412
v -0.01934727 0.04361256 -0.00207654
v -0.01907760 0.04373114 -0.00305274
v -0.01946709 0.04355954 -0.00212475
v -0.01910275 0.04372019 -0.00306037
v -0.01959829 0.04350080 -0.00221225
v -0.01918208 0.04368550 -0.00310117
v -0.01960127 0.04349946 -0.00221423
v -0.01919592 0.04367945 -0.00310828
v -0.01979300 0.04341274 -0.00240563
v -0.01923164 0.04366377 -0.00313548
v -0.01979607 0.04341135 -0.00240869
v -0.01927070 0.04364657 -0.00317749
v -0.01986850 0.04337833 -0.00250978
v -0.01994375 0.04334378 -0.00266126
v -0.01930495 0.04363148 -0.00321434
v -0.02001214 0.04331239 -0.00279893
v -0.01933039 0.04362024 -0.00325291
v -0.01934006 0.04361596 -0.00327449
v -0.02006873 0.04328625 -0.00299293
v -0.01937563 0.04360021 -0.00335381
v -0.02007912 0.04328145 -0.00302855
v -0.01938492 0.04359609 -0.00338819
v -0.01938796 0.04359474 -0.00339944
v -0.01902514 0.04375372 -0.00510640
v -0.01753219 0.04437135 -0.00503788
v -0.01771029 0.04430128 -0.00511409
v -0.01779197 0.04426861 -0.00513591
v -0.01798734 0.04418873 -0.00515720
v -0.01838930 0.04402437 -0.00520100
v -0.01893364 0.04379353 -0.00513650
v -0.01784045 0.04424914 -0.00406283
v -0.01783248 0.04425233 -0.00405880
v -0.01729049 0.04446644 -0.00493445
v -0.01776301 0.04428021 -0.00402361
v -0.01716219 0.04451600 -0.00484990
v -0.01766733 0.04431833 -0.00395283
v -0.01715307 0.04451951 -0.00484389
v -0.01761817 0.04433792 -0.00391646
v -0.01686930 0.04462757 -0.00457789
v -0.01686684 0.04462851 -0.00457558
v -0.01756796 0.04435779 -0.00386406
v -0.01676757 0.04466582 -0.00444428
v -0.01754636 0.04436630 -0.00383214
v -0.01666337 0.04470460 -0.00424570
v -0.01746879 0.04439685 -0.00371754
v -0.01657959 0.04473579 -0.00408603
v -0.01744938 0.04440446 -0.00367496
v -0.01743437 0.04441035 -0.00364205
v -0.01650493 0.04476331 -0.00383885
v -0.01739057 0.04442747 -0.00347444
v -0.01648567 0.04477041 -0.00377510
v -0.01737694 0.04443281 -0.00342226
v -0.01642849 0.04479138 -0.00325100
v -0.01740915 0.04442022 -0.00285501
v -0.01741684 0.04441720 -0.00282869
v -0.01752197 0.04437594 -0.00245698
v -0.01751071 0.04438037 -0.00250756
v -0.01752110 0.04437628 -0.00246591
v -0.01752303 0.04437552 -0.00244598
v -0.01752056 0.04437649 -0.00240503
v -0.01752018 0.04437664 -0.00239877
v -0.01751586 0.04437834 -0.00237927
v -0.01750647 0.04438204 -0.00235556
v -0.01749863 0.04438513 -0.00233574
v -0.01748854 0.04438909 -0.00231887
v -0.01748196 0.04439168 -0.00231112
v -0.01745886 0.04440075 -0.00228392
v -0.01744763 0.04440515 -0.00227452
v -0.01744415 0.04440652 -0.00227160
v -0.01740534 0.04442171 -0.00224917
v -0.01684169 0.04463799 -0.00201144
v -0.01680953 0.04465008 -0.00200243
v -0.01680811 0.04465061 -0.00200229
v -0.01679549 0.04465535 -0.00200111
v -0.01677352 0.04466359 -0.00200301
v -0.01676234 0.04466778 -0.00200398
v -0.01674869 0.04467289 -0.00200769
v -0.01674011 0.04467609 -0.00201176
v -0.01671828 0.04468425 -0.00202212
v -0.01670926 0.04468762 -0.00202852
v -0.01670654 0.04468864 -0.00203046
v -0.01668365 0.04469717 -0.00205347
v -0.01668233 0.04469766 -0.00205480
v -0.01667383 0.04470083 -0.00206682
v -0.01666433 0.04470436 -0.00208415
v -0.01736772 0.04443640 -0.00333656
v -0.01737317 0.04443428 -0.00323770
v -0.01644262 0.04478620 -0.00283832
v -0.01738825 0.04442839 -0.00296397
v -0.01648190 0.04477179 -0.00260513
v -0.01649322 0.04476763 -0.00253794
v -0.02057693 0.04304753 -0.00495100
v -0.02057953 0.04304629 -0.00498024
v -0.02062967 0.04302234 -0.00502395
v -0.02058064 0.04304576 -0.00498428
v -0.02058726 0.04304260 -0.00500844
v -0.02059082 0.04304090 -0.00501581
v -0.02059975 0.04303664 -0.00503429
v -0.02060700 0.04303318 -0.00504407
v -0.02061664 0.04302857 -0.00505707
v -0.02062837 0.04302296 -0.00506773
v -0.02063710 0.04301879 -0.00507567
v -0.02065390 0.04301074 -0.00508563
v -0.02066052 0.04300757 -0.00508955
v -0.02068238 0.04299708 -0.00509691
v -0.02068591 0.04299539 -0.00509810
v -0.02071242 0.04298266 -0.00510100
v -0.02089278 0.04289547 -0.00510100
v -0.02091909 0.04288268 -0.00509813
v -0.02092759 0.04287854 -0.00509527
v -0.02094445 0.04287032 -0.00508960
v -0.02096007 0.04286270 -0.00508035
v -0.02096771 0.04285898 -0.00507582
v -0.02102522 0.04283086 -0.00222158
v -0.02102417 0.04283137 -0.00221772
v -0.02057693 0.04304753 -0.00225100
v -0.02098823 0.04284896 -0.00505715
v -0.02098830 0.04284892 -0.00505706
v -0.02100499 0.04284076 -0.00503451
v -0.02100925 0.04283868 -0.00502569
v -0.02101751 0.04283464 -0.00500857
v -0.02102270 0.04283209 -0.00498964
v -0.02102522 0.04283086 -0.00498042
v -0.02102784 0.04282957 -0.00495100
v -0.02102784 0.04282957 -0.00225100
v -0.02101751 0.04283464 -0.00219343
v -0.02101402 0.04283634 -0.00218619
v -0.02100499 0.04284076 -0.00216749
v -0.02099791 0.04284422 -0.00215792
v -0.02098823 0.04284896 -0.00214485
v -0.02097661 0.04285463 -0.00213428
v -0.02096771 0.04285898 -0.00212618
v -0.02095116 0.04286705 -0.00211637
v -0.02094445 0.04287032 -0.00211240
v -0.02092276 0.04288089 -0.00210510
v -0.02091909 0.04288268 -0.00210387
v -0.02062967 0.04302234 -0.00217805
v -0.02089278 0.04289547 -0.00210100
v -0.02071242 0.04298266 -0.00210100
v -0.02068605 0.04299532 -0.00210387
v -0.02068238 0.04299708 -0.00210510
v -0.02066063 0.04300752 -0.00211240
v -0.02065390 0.04301074 -0.00211637
v -0.02063729 0.04301869 -0.00212619
v -0.02062837 0.04302296 -0.00213428
v -0.02061670 0.04302854 -0.00214486
v -0.02060700 0.04303318 -0.00215792
v -0.02059988 0.04303658 -0.00216750
v -0.02059082 0.04304090 -0.00218619
v -0.02058731 0.04304258 -0.00219344
v -0.02058063 0.04304577 -0.00221772
v -0.02057956 0.04304627 -0.00222159
f 1 2 3
f 2 4 3
f 4 5 3
f 5 6 3
f 3 6 7
f 6 8 7
f 7 8 9
f 9 8 10
f 8 11 10
f 10 11 12
f 11 13 12
f 12 13 14
f 13 15 14
f 14 15 16
f 15 17 16
f 16 17 18
f 17 19 18
f 18 19 20
f 19 21 20
f 20 21 22
f 21 23 22
f 22 23 24
f 23 25 24
f 25 26 24
f 24 26 27
f 26 28 27
f 27 28 29
f 29 30 27
f 30 31 27
f 27 31 32
f 33 34 35
f 34 36 35
f 36 37 35
f 35 37 38
f 39 40 41
f 40 35 41
f 41 35 42
f 35 38 42
f 43 44 45
f 44 46 45
f 45 46 47
f 46 48 47
f 47 48 49
f 48 50 49
f 49 50 51
f 50 52 51
f 51 52 39
f 52 53 39
f 39 53 40
f 43 54 44
f 54 55 44
f 44 55 56
f 55 57 56
f 56 57 58
f 58 57 59
f 57 60 59
f 59 60 61
f 60 62 61
f 61 62 63
f 62 64 63
f 63 64 65
f 65 64 66
f 64 67 66
f 66 67 68
f 67 69 68
f 68 69 70
f 69 71 70
f 70 71 72
f 71 73 72
f 72 73 74
f 73 75 74
f 74 75 76
f 76 75 77
f 75 78 77
f 77 78 79
f 78 80 79
f 79 80 81
f 80 82 81
f 81 82 83
f 82 84 83
f 83 84 85
f 84 86 85
f 85 86 87
f 87 86 88
f 86 89 88
f 88 89 90
f 89 91 90
f 90 91 92
f 91 93 92
f 92 93 94
f 93 95 94
f 94 95 96
f 95 97 96
f 96 97 98
f 97 99 98
f 98 99 100
f 100 99 101
f 99 102 101
f 101 102 103
f 102 104 103
f 104 105 103
f 103 105 106
f 105 107 106
f 106 107 108
f 107 109 108
f 108 109 1
f 109 110 1
f 1 110 2
f 32 33 27
f 33 35 27
f 27 35 111
f 112 113 35
f 113 114 35
f 35 114 115
f 115 116 35
f 116 117 35
f 35 117 111
f 35 118 112
f 118 119 112
f 112 119 120
f 119 121 120
f 120 121 122
f 121 123 122
f 122 123 124
f 123 125 124
f 124 125 126
f 126 125 127
f 125 128 127
f 127 128 129
f 128 130 129
f 129 130 131
f 130 132 131
f 131 132 133
f 132 134 133
f 134 135 133
f 133 135 136
f 135 137 136
f 136 137 138
f 137 139 138
f 138 139 140
f 141 142 143
f 142 144 143
f 143 144 145
f 143 146 141
f 146 147 141
f 141 147 148
f 148 149 141
f 149 150 141
f 141 150 151
f 151 152 141
f 152 153 141
f 141 153 154
f 154 155 141
f 155 156 141
f 141 156 157
f 157 158 141
f 158 159 141
f 141 159 160
f 160 161 141
f 161 162 141
f 141 162 163
f 163 164 141
f 164 165 141
f 141 165 166
f 166 167 141
f 167 168 141
f 141 168 169
f 169 170 141
f 170 171 141
f 141 171 172
f 139 173 140
f 173 174 140
f 140 174 175
f 174 176 175
f 175 176 177
f 176 141 177
f 177 141 178
f 141 172 178
f 179 180 181
f 180 182 181
f 181 182 183
f 183 184 181
f 184 185 181
f 181 185 186
f 186 187 181
f 187 188 181
f 181 188 189
f 189 190 181
f 190 191 181
f 181 191 192
f 192 193 181
f 193 194 181
f 181 194 195
f 195 196 181
f 196 197 181
f 181 197 179
f 197 198 179
f 198 199 179
f 179 199 200
f 201 202 203
f 200 204 179
f 204 205 179
f 179 205 206
f 206 207 179
f 207 208 179
f 179 208 209
f 209 210 179
f 210 211 179
f 179 211 203
f 211 212 203
f 203 212 201
f 202 213 203
f 213 214 203
f 203 214 215
f 215 216 203
f 216 217 203
f 203 217 218
f 218 219 203
f 219 220 203
f 203 220 221
f 222 223 224
f 223 225 224
f 224 225 226
f 226 227 224
f 227 228 224
f 224 228 229
f 229 230 224
f 230 231 224
f 224 231 232
f 232 233 224
f 233 234 224
f 224 234 235
f 235 236 224
f 236 237 224
f 224 237 238
f 221 222 203
f 222 224 203
f 203 224 239
f 224 238 239

