# https://github.com/mikedh/trimesh

o FR3_Version2_Link3_0-mesh
v 0.05450000 -0.00139702 -0.11721151
v 0.05450000 -0.00139917 -0.11727031
v 0.05450000 -0.00138751 -0.11732801
v 0.05450000 -0.00138117 -0.11715481
v 0.05450000 -0.00017078 -0.12093261
v 0.05450000 -0.00012015 -0.12096921
v 0.05450000 0.00023751 -0.12082801
v 0.05450000 -0.00120846 -0.11700690
v 0.05450000 -0.00126368 -0.11702730
v 0.05450000 -0.00115000 -0.11700001
v 0.05450000 0.00115000 -0.11700001
v 0.05450000 0.00138751 -0.11732801
v 0.05450000 0.00139917 -0.11727031
v 0.05450000 0.00139702 -0.11721151
v 0.05450000 0.00138117 -0.11715481
v 0.05450000 0.00135250 -0.11710341
v 0.05450000 0.00131260 -0.11706010
v 0.05450000 0.00126368 -0.11702730
v 0.05450000 0.00120846 -0.11700690
v 0.05450000 -0.00006201 -0.12099221
v 0.05450000 0.00000000 -0.12100001
v 0.05450000 0.00006201 -0.12099221
v 0.05450000 0.00012015 -0.12096921
v 0.05450000 0.00017078 -0.12093261
v 0.05450000 0.00021073 -0.12088450
v 0.05450000 -0.00131260 -0.11706010
v 0.05450000 -0.00135250 -0.11710341
v 0.05450000 -0.00023751 -0.12082801
v 0.05450000 -0.00021073 -0.12088450
v 0.12199930 0.00617196 -0.03758243
v 0.12120611 0.00267196 -0.03841563
v 0.12113491 0.00256175 -0.03848758
v 0.12118860 0.00261835 -0.03843343
v 0.12118721 0.00261557 -0.03843480
v 0.12117860 0.00259774 -0.03844356
v 0.12115851 0.00256847 -0.03846388
v 0.12114950 0.00255542 -0.03847293
v 0.12113521 0.00254069 -0.03848731
v 0.12112311 0.00253215 -0.03849954
v 0.12109791 0.00251443 -0.03852489
v 0.12108250 0.00250792 -0.03854029
v 0.12108101 0.00250724 -0.03854189
v 0.12103950 0.00250000 -0.03858343
v 0.12103881 0.00250005 -0.03858415
v 0.12102180 0.00250116 -0.03860112
v 0.12099511 0.00250937 -0.03862772
v 0.12098091 0.00251376 -0.03864192
v 0.12096441 0.00252313 -0.03865831
v 0.12095421 0.00253199 -0.03866844
v 0.12092871 0.00255415 -0.03869380
v 0.12091781 0.00256756 -0.03870455
v 0.12183420 0.00650000 -0.03775321
v 0.12187461 0.00649304 -0.03771100
v 0.12087021 0.00267196 -0.03875151
v 0.12187481 0.00649300 -0.03771080
v 0.12189151 0.00648590 -0.03769345
v 0.12191231 0.00647111 -0.03767169
v 0.12192821 0.00645985 -0.03765512
v 0.12194230 0.00644520 -0.03764046
v 0.12194630 0.00643931 -0.03763628
v 0.12197111 0.00640304 -0.03761055
v 0.12197420 0.00639646 -0.03760725
v 0.12198101 0.00638248 -0.03760023
v 0.12199341 0.00634458 -0.03758742
v 0.12199850 0.00632898 -0.03758215
v 0.12200331 0.00630484 -0.03757736
v 0.12200451 0.00628835 -0.03757618
v 0.12200760 0.00624602 -0.03757316
v 0.12200690 0.00622969 -0.03757400
v 0.12091530 0.00257067 -0.03870704
v 0.12088940 0.00261558 -0.03873264
v 0.12088881 0.00261662 -0.03873323
v 0.12200661 0.00622103 -0.03757444
v 0.12088010 0.00263844 -0.03874185
v 0.12006920 0.00640997 -0.03951260
v 0.12009121 0.00643885 -0.03949145
v 0.12009711 0.00636128 -0.03948630
v 0.12010010 0.00645063 -0.03948283
v 0.12011510 0.00646453 -0.03946842
v 0.12012620 0.00647136 -0.03945785
v 0.12015410 0.00648869 -0.03943103
v 0.12016571 0.00649280 -0.03941997
v 0.12002771 0.00625495 -0.03955297
v 0.12003100 0.00628826 -0.03954967
v 0.12003351 0.00631352 -0.03954716
v 0.12003891 0.00633739 -0.03954187
v 0.12004161 0.00634481 -0.03953921
v 0.12005830 0.00638996 -0.03952304
v 0.12006180 0.00639645 -0.03951965
v 0.12003701 0.00617196 -0.03954467
v 0.12002840 0.00622967 -0.03955250
v 0.12002840 0.00622993 -0.03955253
v 0.12017161 0.00649492 -0.03941425
v 0.12020781 0.00650000 -0.03937956
f 1 2 3
f 1 3 4
f 5 6 7
f 3 8 9
f 10 7 11
f 7 12 11
f 11 12 13
f 13 14 11
f 14 15 11
f 11 15 16
f 16 17 11
f 17 18 11
f 11 18 19
f 6 20 7
f 20 21 7
f 7 21 22
f 22 23 7
f 23 24 7
f 7 24 25
f 9 26 3
f 26 27 3
f 3 27 4
f 8 3 10
f 3 28 10
f 10 28 7
f 28 29 7
f 7 29 5
f 30 31 32
f 31 33 32
f 33 34 32
f 34 35 32
f 32 35 36
f 36 37 32
f 37 38 32
f 32 38 39
f 39 40 32
f 40 41 32
f 32 41 30
f 41 42 30
f 42 43 30
f 43 44 30
f 30 44 45
f 45 46 30
f 46 47 30
f 30 47 48
f 48 49 30
f 49 50 30
f 30 50 51
f 52 53 54
f 53 55 54
f 55 56 54
f 54 56 57
f 57 58 54
f 58 59 54
f 54 59 60
f 60 61 54
f 61 62 54
f 54 62 63
f 63 64 54
f 64 65 54
f 54 65 66
f 66 67 54
f 67 68 54
f 54 68 69
f 51 70 30
f 70 71 30
f 30 71 72
f 69 73 54
f 73 30 54
f 54 30 74
f 30 72 74
f 75 76 77
f 76 78 77
f 77 78 79
f 79 80 77
f 80 81 77
f 77 81 82
f 83 84 77
f 84 85 77
f 85 86 77
f 77 86 87
f 87 88 77
f 88 89 77
f 77 89 75
f 54 90 52
f 90 91 52
f 52 91 77
f 91 92 77
f 77 92 83
f 82 93 77
f 93 94 77
f 77 94 52

