# https://github.com/mikedh/trimesh

o FR3_Version2_Link7_1-mesh
v -0.01571525 -0.04109782 0.05597307
v -0.01576986 -0.04107690 0.05598000
v -0.01565889 -0.04111933 0.05581598
v -0.01558057 -0.04114907 0.05587661
v -0.01561789 -0.04113491 0.05591990
v -0.01566364 -0.04111752 0.05595265
v -0.01553689 -0.04116558 0.05570967
v -0.01553891 -0.04116482 0.05576850
v -0.01555374 -0.04115922 0.05582519
v -0.01678076 -0.04067439 0.05198781
v -0.01672701 -0.04069653 0.05201076
v -0.01683807 -0.04065070 0.05215196
v -0.01668017 -0.04071575 0.05204742
v -0.01664319 -0.04073087 0.05209549
v -0.01661840 -0.04074100 0.05215196
v -0.01705726 -0.04055921 0.05215196
v -0.01703257 -0.04056959 0.05209549
v -0.01699572 -0.04058504 0.05204742
v -0.01694901 -0.04060457 0.05201076
v -0.01689535 -0.04062693 0.05198781
v -0.01683807 -0.04065070 0.05198000
v -0.01810581 -0.04010211 0.05582519
v -0.01812026 -0.04009559 0.05576850
v -0.01800325 -0.04014826 0.05581598
v -0.01812222 -0.04009470 0.05570967
v -0.01789478 -0.04019673 0.05598000
v -0.01794819 -0.04017290 0.05597307
v -0.01799862 -0.04015034 0.05595265
v -0.01804326 -0.04013030 0.05591990
v -0.01807966 -0.04011391 0.05587661
v -0.01811159 -0.04009951 0.05565196
v -0.01554781 -0.04116146 0.05565196
f 1 2 3
f 4 5 3
f 5 6 3
f 3 6 1
f 7 8 3
f 8 9 3
f 3 9 4
f 10 11 12
f 11 13 12
f 13 14 12
f 12 14 15
f 16 17 12
f 17 18 12
f 12 18 19
f 19 20 12
f 20 21 12
f 12 21 10
f 22 23 24
f 23 25 24
f 26 27 24
f 27 28 24
f 28 29 24
f 29 30 24
f 24 30 22
f 25 31 24
f 31 16 24
f 24 16 26
f 16 12 26
f 26 12 2
f 12 15 2
f 2 15 3
f 15 32 3
f 3 32 7

