# https://github.com/mikedh/trimesh

o FR3_Version2_Link5_1-mesh
v 0.05324991 -0.01160592 -0.25550341
v 0.05326586 -0.01153247 -0.25562921
v 0.05326208 -0.01154994 -0.25552301
v 0.05327294 -0.01149972 -0.25555452
v 0.05329295 -0.01140664 -0.25570271
v 0.05328875 -0.01142623 -0.25564671
v 0.05328198 -0.01145778 -0.25559651
v 0.05231779 -0.01526757 -0.25553221
v 0.05230175 -0.01532242 -0.25557431
v 0.05231777 -0.01526762 -0.25562921
v 0.05229507 -0.01534521 -0.25560031
v 0.05228940 -0.01536452 -0.25562921
v 0.05228492 -0.01537976 -0.25566011
v 0.05228162 -0.01539097 -0.25569311
v 0.05227964 -0.01539772 -0.25572691
v 0.05227896 -0.01540000 -0.25576161
v 0.05329437 -0.01140000 -0.25576161
v 0.05323703 -0.01166486 -0.25549681
v 0.05235625 -0.01513514 -0.25549681
v 0.05233639 -0.01520369 -0.25550581
v 0.05230823 -0.01530028 -0.25663902
v 0.05232290 -0.01525006 -0.25667051
v 0.05231777 -0.01526762 -0.25656431
v 0.05233918 -0.01519408 -0.25669011
v 0.05235625 -0.01513514 -0.25669682
v 0.05228092 -0.01539336 -0.25649083
v 0.05228668 -0.01537377 -0.25654683
v 0.05229595 -0.01534222 -0.25659712
v 0.05326586 -0.01153247 -0.25656431
v 0.05328198 -0.01145778 -0.25659712
v 0.05328875 -0.01142623 -0.25654683
v 0.05329295 -0.01140664 -0.25649083
v 0.05329437 -0.01140000 -0.25643190
v 0.05324991 -0.01160592 -0.25669011
v 0.05326208 -0.01154994 -0.25667051
v 0.05327294 -0.01149972 -0.25663902
v 0.05323703 -0.01166486 -0.25669682
v 0.05227896 -0.01540000 -0.25643190
v 0.05229509 0.01534516 -0.25659330
v 0.05228940 0.01536452 -0.25656431
v 0.05231777 0.01526762 -0.25656431
v 0.05228489 0.01537985 -0.25653322
v 0.05228162 0.01539097 -0.25650050
v 0.05227963 0.01539773 -0.25646650
v 0.05227896 0.01540000 -0.25643190
v 0.05233639 0.01520369 -0.25668782
v 0.05231779 0.01526757 -0.25666130
v 0.05230175 0.01532242 -0.25661921
v 0.05231779 0.01526757 -0.25553221
v 0.05233639 0.01520369 -0.25550581
v 0.05231777 0.01526762 -0.25562921
v 0.05235625 0.01513514 -0.25549681
v 0.05267115 0.01400000 -0.25549681
v 0.05228940 0.01536452 -0.25562921
v 0.05229509 0.01534516 -0.25560022
v 0.05230175 0.01532242 -0.25557431
v 0.05227963 0.01539773 -0.25572702
v 0.05228162 0.01539097 -0.25569311
v 0.05228489 0.01537985 -0.25566031
v 0.05227896 0.01540000 -0.25576161
v 0.05267115 0.01400000 -0.25669682
v 0.05235625 0.01513514 -0.25669682
v 0.05269171 0.01392242 -0.25417431
v 0.05270617 0.01386757 -0.25413221
v 0.05270616 0.01386761 -0.25422921
v 0.05272294 0.01380369 -0.25410582
v 0.05274084 0.01373514 -0.25409671
v 0.05267650 0.01397985 -0.25426031
v 0.05268057 0.01396451 -0.25422921
v 0.05268569 0.01394516 -0.25420031
v 0.05267115 0.01400000 -0.25436161
v 0.05267175 0.01399773 -0.25432701
v 0.05267355 0.01399098 -0.25429312
v 0.05296157 0.01285778 -0.25419651
v 0.05296921 0.01282623 -0.25424672
v 0.05294338 0.01293247 -0.25422921
v 0.05297396 0.01280664 -0.25430272
v 0.05297556 0.01280000 -0.25436161
v 0.05291086 0.01306486 -0.25409671
v 0.05292538 0.01300592 -0.25410341
v 0.05293910 0.01294994 -0.25412301
v 0.05295137 0.01289972 -0.25415451
v 0.05326208 0.01154994 -0.25552301
v 0.05327294 0.01149972 -0.25555452
v 0.05326586 0.01153247 -0.25562921
v 0.05328198 0.01145778 -0.25559651
v 0.05328875 0.01142623 -0.25564671
v 0.05329295 0.01140664 -0.25570271
v 0.05326208 0.01154994 -0.25667051
v 0.05324991 0.01160592 -0.25669011
v 0.05326586 0.01153247 -0.25656431
v 0.05323703 0.01166486 -0.25669682
v 0.05328875 0.01142623 -0.25654683
v 0.05328198 0.01145778 -0.25659712
v 0.05327294 0.01149972 -0.25663902
v 0.05329437 0.01140000 -0.25576161
v 0.05329437 0.01140000 -0.25643190
v 0.05329295 0.01140664 -0.25649083
v 0.05297556 0.01280000 -0.25669682
v 0.05297556 0.01280000 -0.25549681
v 0.05323703 0.01166486 -0.25549681
v 0.05324991 0.01160592 -0.25550341
v 0.05295137 0.01289972 -0.25803901
v 0.05293910 0.01294994 -0.25807051
v 0.05294338 0.01293247 -0.25796431
v 0.05292538 0.01300592 -0.25809010
v 0.05291086 0.01306486 -0.25809681
v 0.05297396 0.01280664 -0.25789082
v 0.05296921 0.01282623 -0.25794682
v 0.05296157 0.01285778 -0.25799711
v 0.05270616 0.01386761 -0.25796431
v 0.05268647 0.01394222 -0.25799711
v 0.05267811 0.01397377 -0.25794682
v 0.05267292 0.01399336 -0.25789082
v 0.05267115 0.01400000 -0.25783192
v 0.05272545 0.01379408 -0.25809010
v 0.05271077 0.01385006 -0.25807051
v 0.05269755 0.01390028 -0.25803901
v 0.05274084 0.01373514 -0.25809681
v 0.05297556 0.01280000 -0.25783192
v 0.05297396 0.01280664 -0.25789082
f 1 2 3
f 2 4 3
f 5 6 2
f 6 7 2
f 2 7 4
f 8 9 10
f 9 11 10
f 11 12 10
f 12 13 10
f 10 13 14
f 14 15 10
f 15 16 10
f 10 16 2
f 16 17 2
f 2 17 5
f 1 18 2
f 18 19 2
f 2 19 10
f 19 20 10
f 10 20 8
f 21 22 23
f 22 24 23
f 23 24 25
f 26 27 23
f 27 28 23
f 23 28 21
f 29 30 31
f 31 32 29
f 32 33 29
f 29 33 17
f 34 35 29
f 35 36 29
f 29 36 30
f 34 29 37
f 29 17 37
f 37 17 25
f 17 16 25
f 25 16 23
f 16 38 23
f 23 38 26
f 39 40 41
f 40 42 41
f 42 43 41
f 43 44 41
f 41 44 45
f 46 47 41
f 47 48 41
f 41 48 39
f 49 50 51
f 50 52 51
f 51 52 53
f 54 55 51
f 55 56 51
f 51 56 49
f 57 58 51
f 58 59 51
f 51 59 54
f 57 51 60
f 51 53 60
f 60 53 45
f 53 61 45
f 45 61 41
f 61 62 41
f 41 62 46
f 63 64 65
f 64 66 65
f 65 66 67
f 68 69 65
f 69 70 65
f 65 70 63
f 71 72 65
f 72 73 65
f 65 73 68
f 74 75 76
f 75 77 76
f 76 77 78
f 76 79 80
f 80 81 76
f 81 82 76
f 76 82 74
f 83 84 85
f 84 86 85
f 86 87 85
f 85 87 88
f 89 90 91
f 90 92 91
f 91 92 85
f 93 94 91
f 94 95 91
f 91 95 89
f 88 96 85
f 96 97 85
f 85 97 91
f 97 98 91
f 91 98 93
f 99 100 92
f 100 101 92
f 92 101 85
f 101 102 85
f 85 102 83
f 67 79 65
f 79 76 65
f 65 76 71
f 76 78 71
f 71 78 53
f 78 100 53
f 53 100 61
f 100 99 61
f 103 104 105
f 104 106 105
f 105 106 107
f 108 109 105
f 109 110 105
f 105 110 103
f 111 112 113
f 113 114 111
f 114 115 111
f 111 115 61
f 116 117 111
f 117 118 111
f 111 118 112
f 116 111 119
f 111 61 119
f 119 61 107
f 61 99 107
f 107 99 105
f 99 120 105
f 105 120 121

