# https://github.com/mikedh/trimesh

o FR3_Version2_Link6_6-mesh
v 0.07890754 0.07941801 0.00007553
v 0.07892398 0.07941317 0.00007085
v 0.07891994 0.07941433 0.00000530
v 0.07893785 0.07940909 0.00006294
v 0.07894262 0.07940770 0.00005894
v 0.07894464 0.07940709 -0.00002916
v 0.07894249 0.07940773 -0.00003081
v 0.07893164 0.07941092 -0.00003908
v 0.07891520 0.07941575 -0.00004593
v 0.07889730 0.07942102 -0.00004833
v 0.07779602 0.07975326 -0.00004840
v 0.07894419 0.07940722 0.00005761
v 0.07895347 0.07940449 0.00004635
v 0.07895962 0.07940268 0.00003394
v 0.07896276 0.07940178 0.00002009
v 0.07896276 0.07940178 0.00001395
v 0.07896273 0.07940178 0.00000782
v 0.07895988 0.07940261 -0.00000514
v 0.07895389 0.07940438 -0.00001765
v 0.07669937 0.08010044 -0.00004848
v 0.07667617 0.08010795 -0.00003985
v 0.07669474 0.08010193 -0.00004833
v 0.07667698 0.08010769 -0.00004502
v 0.07666153 0.08011271 -0.00003799
v 0.07665297 0.08011548 -0.00003123
v 0.07664833 0.08011699 -0.00002756
v 0.07663952 0.08011985 -0.00001638
v 0.07663380 0.08012169 -0.00000433
v 0.07663099 0.08012260 0.00000847
v 0.07663100 0.08012260 0.00001409
v 0.07663102 0.08012259 0.00001970
v 0.07663372 0.08012172 0.00003211
v 0.07663952 0.08011985 0.00004438
v 0.07664872 0.08011686 0.00005598
v 0.07665303 0.08011547 0.00005930
v 0.07666246 0.08011240 0.00006655
v 0.07668035 0.08010660 0.00007399
v 0.07669937 0.08010044 0.00007648
v 0.07779599 0.07975328 0.00007640
v 0.07889730 0.07942102 0.00007633
v 0.09746598 0.07614688 -0.00004833
v 0.09743194 0.07614901 -0.00001713
v 0.09861445 0.07608240 0.00007640
v 0.09741880 0.07614984 -0.00003105
v 0.09740963 0.07615042 -0.00002124
v 0.09740242 0.07615087 -0.00000903
v 0.09744789 0.07614801 -0.00004609
v 0.09743190 0.07614901 -0.00003999
v 0.09740072 0.07615097 0.00003268
v 0.09740686 0.07615059 0.00004526
v 0.09739837 0.07615113 0.00000439
v 0.09739792 0.07615116 0.00001408
v 0.09739772 0.07615116 0.00001825
v 0.09741629 0.07615001 0.00005676
v 0.09741906 0.07614981 0.00005882
v 0.09746598 0.07614688 0.00007633
v 0.09742988 0.07614914 0.00006689
v 0.09744694 0.07614807 0.00007385
v 0.09976371 0.07603357 0.00007648
v 0.09978810 0.07603270 0.00006785
v 0.09976848 0.07603341 0.00007634
v 0.09978718 0.07603273 0.00007303
v 0.09980343 0.07603216 0.00006600
v 0.09981247 0.07603183 0.00005922
v 0.09981730 0.07603167 0.00005560
v 0.09982654 0.07603133 0.00004444
v 0.09983258 0.07603112 0.00003240
v 0.09983554 0.07603102 0.00001961
v 0.09983552 0.07603102 0.00001394
v 0.09983551 0.07603102 0.00000827
v 0.09983265 0.07603112 -0.00000414
v 0.09982654 0.07603133 -0.00001642
v 0.09981685 0.07603167 -0.00002802
v 0.09981240 0.07603184 -0.00003129
v 0.09980243 0.07603218 -0.00003858
v 0.09978366 0.07603286 -0.00004600
v 0.09976371 0.07603357 -0.00004848
v 0.09861445 0.07608240 -0.00004840
v 0.08812775 0.07778959 -0.00937973
v 0.08813633 0.07778659 -0.00936661
v 0.08818967 0.07777983 -0.00939009
v 0.08812211 0.07779238 -0.00939552
v 0.08819860 0.07777356 -0.00934853
v 0.08821115 0.07777204 -0.00935461
v 0.08813636 0.07778659 -0.00936659
v 0.08814670 0.07778364 -0.00935679
v 0.08815876 0.07778073 -0.00934985
v 0.08817199 0.07777797 -0.00934607
v 0.08818571 0.07777550 -0.00934570
v 0.08822268 0.07777106 -0.00936399
v 0.08822483 0.07777102 -0.00936682
v 0.08823291 0.07777079 -0.00937745
v 0.08824015 0.07777144 -0.00939441
v 0.08824302 0.07777312 -0.00941356
v 0.08826670 0.07790699 -0.01055578
v 0.08822372 0.07807180 -0.01172030
v 0.08829306 0.07805616 -0.01169608
v 0.08829300 0.07805698 -0.01170182
v 0.08828991 0.07806016 -0.01172037
v 0.08828325 0.07806359 -0.01173625
v 0.08827743 0.07806578 -0.01174450
v 0.08814380 0.07792868 -0.01055578
v 0.08812025 0.07779477 -0.00941356
v 0.08821579 0.07807950 -0.01176452
v 0.08820353 0.07808081 -0.01175856
v 0.08827550 0.07806652 -0.01174725
v 0.08826481 0.07806981 -0.01175706
v 0.08825332 0.07807273 -0.01176350
v 0.08824093 0.07807541 -0.01176695
v 0.08822806 0.07807772 -0.01176725
v 0.08819178 0.07808155 -0.01174904
v 0.08818819 0.07808150 -0.01174435
v 0.08818100 0.07808143 -0.01173493
v 0.08817312 0.07808020 -0.01171644
v 0.08817002 0.07807785 -0.01169608
v 0.08823716 0.07777102 0.00941396
v 0.08822905 0.07777080 0.00939955
v 0.08823401 0.07777204 0.00941812
v 0.08822502 0.07777096 0.00939467
v 0.08814380 0.07792868 0.01058378
v 0.08822367 0.07777102 0.00939305
v 0.08821228 0.07777192 0.00938338
v 0.08819992 0.07777337 0.00937702
v 0.08818628 0.07777542 0.00937379
v 0.08818032 0.07777646 0.00937379
v 0.08817435 0.07777752 0.00937379
v 0.08816166 0.07778009 0.00937671
v 0.08814940 0.07778296 0.00938291
v 0.08813829 0.07778598 0.00939240
v 0.08813659 0.07778656 0.00939479
v 0.08812025 0.07779477 0.00944156
v 0.08812867 0.07778923 0.00940599
v 0.08812223 0.07779230 0.00942300
v 0.08817038 0.07807862 0.01172994
v 0.08817437 0.07808055 0.01174846
v 0.08822362 0.07807180 0.01174821
v 0.08818183 0.07808149 0.01176431
v 0.08818798 0.07808156 0.01177250
v 0.08825058 0.07807338 0.01179254
v 0.08826255 0.07807042 0.01178659
v 0.08819002 0.07808159 0.01177523
v 0.08820121 0.07808100 0.01178505
v 0.08821306 0.07807985 0.01179150
v 0.08822560 0.07807811 0.01179495
v 0.08823846 0.07807589 0.01179525
v 0.08817002 0.07807785 0.01172408
v 0.08826670 0.07790700 0.01058380
v 0.08824302 0.07777312 0.00944156
v 0.08824199 0.07777205 0.00943065
v 0.08827385 0.07806707 0.01177706
v 0.08827726 0.07806579 0.01177233
v 0.08828395 0.07806328 0.01176296
v 0.08829094 0.07805942 0.01174447
v 0.08829306 0.07805616 0.01172408
v 0.09046183 0.07631863 -0.00431613
v 0.08927424 0.07652803 -0.00481563
v 0.08797429 0.07660807 0.00001400
v 0.09148163 0.07613881 -0.00352153
v 0.09226414 0.07600084 -0.00248600
v 0.08799981 0.07675275 -0.00498600
v 0.08672538 0.07697747 -0.00481563
v 0.08754471 0.07668737 -0.00044350
v 0.08745219 0.07670494 -0.00064725
v 0.08771476 0.07665510 -0.00006907
v 0.08763630 0.07666999 -0.00024185
v 0.08777047 0.07664453 0.00005360
v 0.08779145 0.07664054 0.00009983
v 0.08779995 0.07663910 0.00011849
v 0.08783319 0.07663346 0.00019141
v 0.08792570 0.07661773 0.00039445
v 0.08787664 0.07662606 0.00028680
v 0.08797454 0.07660943 0.00050162
v 0.08817759 0.07657325 0.00037221
v 0.08808612 0.07658948 0.00043765
v 0.08820791 0.07656787 0.00035053
v 0.08827350 0.07655664 0.00030365
v 0.08855561 0.07650833 0.00010204
v 0.08840253 0.07653454 0.00021144
v 0.08871660 0.07648075 -0.00001301
v 0.08876033 0.07647327 -0.00004426
v 0.08917596 0.07640631 -0.00034077
v 0.08740824 0.07671328 -0.00074404
v 0.08739486 0.07673758 -0.00204323
v 0.08695543 0.07681372 -0.00178575
v 0.08710232 0.07680617 -0.00256285
v 0.08702682 0.07679599 -0.00158782
v 0.08688286 0.07682631 -0.00174323
v 0.08690367 0.07681285 -0.00112420
v 0.08808413 0.07658985 0.00043908
v 0.08799163 0.07660665 0.00053908
v 0.08810992 0.07658619 0.00049543
v 0.08832689 0.07658483 0.00254518
v 0.08799981 0.07675275 0.00501400
v 0.08869220 0.07652679 0.00264429
v 0.08927424 0.07652803 0.00484363
v 0.08909016 0.07646355 0.00275224
v 0.09148163 0.07613881 0.00354953
v 0.08878794 0.07648433 0.00155828
v 0.09046183 0.07631863 0.00434413
v 0.08871830 0.07649978 0.00182421
v 0.08931369 0.07638411 -0.00043903
v 0.09024276 0.07623961 -0.00008362
v 0.09292385 0.07588451 0.00001400
v 0.09039528 0.07622042 -0.00065657
v 0.09275606 0.07591410 -0.00128010
v 0.09044844 0.07621373 -0.00085636
v 0.08993139 0.07629024 -0.00055470
v 0.08929345 0.07638749 -0.00036246
v 0.08947883 0.07635720 -0.00029067
v 0.08920261 0.07640264 -0.00001877
v 0.08373546 0.07750467 0.00251400
v 0.08517620 0.07715393 0.00077304
v 0.08324354 0.07759141 0.00130810
v 0.08513138 0.07716211 0.00069412
v 0.08307576 0.07762099 0.00001400
v 0.08710219 0.07676963 0.00029680
v 0.08676896 0.07683121 0.00020600
v 0.08560972 0.07706404 0.00063955
v 0.08656657 0.07686860 0.00015085
v 0.08660016 0.07686261 0.00002356
v 0.08585910 0.07700904 0.00002500
v 0.08564537 0.07705233 0.00015085
v 0.08529219 0.07712551 0.00007941
v 0.08555939 0.07707078 -0.00000135
v 0.08588134 0.07701147 0.00111864
v 0.08583866 0.07702292 0.00128292
v 0.08741600 0.07671164 0.00038230
v 0.08572163 0.07705433 0.00173336
v 0.08593689 0.07700185 -0.00117466
v 0.08600573 0.07698814 -0.00121517
v 0.08451799 0.07736670 -0.00352153
v 0.08691971 0.07682293 -0.00188084
v 0.08553778 0.07718687 -0.00431613
v 0.08679589 0.07682761 -0.00071850
v 0.08604932 0.07697879 -0.00113799
v 0.08678737 0.07682914 -0.00068623
v 0.08645922 0.07689085 -0.00041237
v 0.08669465 0.07684571 -0.00033473
v 0.08649493 0.07688319 -0.00034915
v 0.08606987 0.07696632 -0.00009913
v 0.08373546 0.07750467 -0.00248600
v 0.08324354 0.07759141 -0.00128010
v 0.08519513 0.07714955 -0.00073810
v 0.08515618 0.07715729 -0.00071517
v 0.08911225 0.07641771 0.00032314
v 0.09275606 0.07591410 0.00130810
v 0.08902874 0.07643164 0.00063907
v 0.09226414 0.07600084 0.00251400
v 0.08901458 0.07643400 0.00069262
v 0.08892125 0.07645472 0.00104914
v 0.08852761 0.07653080 0.00177244
v 0.08847506 0.07654493 0.00197471
v 0.08797458 0.07660962 0.00053444
v 0.08784642 0.07663211 0.00049958
v 0.08672538 0.07697747 0.00484363
v 0.08767321 0.07666413 0.00045239
v 0.08553778 0.07718687 0.00434413
v 0.08451799 0.07736670 0.00354953
v 0.08555388 0.07708496 0.00143801
v 0.07659668 0.07978344 0.00081185
v 0.07659542 0.07977952 0.00081554
v 0.07769789 0.07943568 0.00082120
v 0.07889367 0.07940866 0.00017800
v 0.07779444 0.07974818 0.00017901
v 0.07889193 0.07940274 0.00022659
v 0.07778353 0.07971286 0.00036359
v 0.07888842 0.07939083 0.00032456
v 0.07888301 0.07937246 0.00037346
v 0.07776342 0.07964776 0.00053353
v 0.07886544 0.07931272 0.00053258
v 0.07773571 0.07955812 0.00068272
v 0.07884558 0.07924517 0.00064363
v 0.07886301 0.07930446 0.00055453
v 0.07877708 0.07901236 0.00089547
v 0.07880207 0.07909733 0.00081577
v 0.07881914 0.07915535 0.00076136
v 0.07882812 0.07918586 0.00073273
v 0.07669535 0.08008800 0.00017807
v 0.07669342 0.08008207 0.00022664
v 0.07666462 0.07999311 0.00053258
v 0.07668389 0.08005262 0.00037363
v 0.07668940 0.08006962 0.00032823
v 0.07666195 0.07998487 0.00055465
v 0.07664293 0.07992617 0.00064361
v 0.07662391 0.07986748 0.00073258
v 0.07661407 0.07983709 0.00076124
v 0.07657928 0.07972976 0.00086249
v 0.07765413 0.07929412 0.00093133
v 0.07876081 0.07895708 0.00092589
v 0.07656726 0.07969262 0.00089751
v 0.07655047 0.07964083 0.00092615
v 0.07654032 0.07960946 0.00094350
v 0.07871370 0.07879697 0.00101400
v 0.07875151 0.07892546 0.00094329
v 0.07869661 0.07880227 0.00101400
v 0.07863511 0.07882129 0.00101400
v 0.07760633 0.07913949 0.00101400
v 0.07649900 0.07948198 0.00101400
v 0.07903482 0.07936847 0.00017340
v 0.07893061 0.07900830 0.00085386
v 0.07910498 0.07934782 0.00001399
v 0.07933467 0.07910640 -0.00037047
v 0.07925167 0.07913080 -0.00046208
v 0.07919089 0.07922847 -0.00036329
v 0.07944548 0.07907378 -0.00012785
v 0.07940165 0.07908668 -0.00025796
v 0.07930993 0.07919345 -0.00020132
v 0.07927697 0.07907582 -0.00050784
v 0.07963494 0.07866922 -0.00019638
v 0.07965744 0.07866260 0.00001421
v 0.07967398 0.07851430 -0.00009542
v 0.07964894 0.07852169 -0.00020922
v 0.07962347 0.07852919 -0.00032485
v 0.07956997 0.07868834 -0.00038921
v 0.07957947 0.07854213 -0.00041318
v 0.07950940 0.07856276 -0.00055388
v 0.07947084 0.07871751 -0.00055572
v 0.07947692 0.07857232 -0.00059148
v 0.07934822 0.07875360 -0.00069106
v 0.07934938 0.07860984 -0.00073915
v 0.07921033 0.07879419 -0.00079399
v 0.07917218 0.07866201 -0.00086672
v 0.07906237 0.07883774 -0.00086601
v 0.07904155 0.07870047 -0.00091846
v 0.07894136 0.07872995 -0.00095815
v 0.07890844 0.07888305 -0.00090834
v 0.07887942 0.07874820 -0.00096573
v 0.07882455 0.07876435 -0.00097244
v 0.07894532 0.07912117 -0.00072540
v 0.07881914 0.07915535 -0.00073336
v 0.07882811 0.07918583 -0.00070476
v 0.07880207 0.07909732 -0.00078776
v 0.07893032 0.07900837 -0.00082569
v 0.07877707 0.07901231 -0.00086751
v 0.07876081 0.07895708 -0.00089790
v 0.07875151 0.07892546 -0.00091529
v 0.07871370 0.07879697 -0.00098600
v 0.07920362 0.07928305 -0.00014029
v 0.07903461 0.07936853 -0.00014525
v 0.07911795 0.07930825 -0.00025684
v 0.07903461 0.07936853 -0.00014525
v 0.07900621 0.07934111 -0.00032517
v 0.07903650 0.07927389 -0.00045777
v 0.07905765 0.07918790 -0.00058083
v 0.07906459 0.07913832 -0.00063781
v 0.07903695 0.07927375 0.00048605
v 0.07905825 0.07918773 0.00060920
v 0.07915902 0.07915808 0.00056048
v 0.07919146 0.07922829 0.00039174
v 0.07946067 0.07906932 0.00001410
v 0.07941077 0.07912649 0.00001408
v 0.07944612 0.07907360 0.00015609
v 0.07935842 0.07914190 0.00025856
v 0.07925239 0.07913060 0.00049068
v 0.07933525 0.07910621 0.00039893
v 0.07940239 0.07908648 0.00028629
v 0.07931048 0.07919327 0.00022956
v 0.07935666 0.07917968 0.00001407
v 0.07900653 0.07934103 0.00035334
v 0.07911834 0.07930812 0.00028514
v 0.07934463 0.07918322 -0.00009827
v 0.07923714 0.07927317 0.00001403
v 0.07920402 0.07928292 0.00016845
v 0.07886544 0.07931272 0.00053258
v 0.07877337 0.07877941 0.00101219
v 0.07890874 0.07888298 0.00093654
v 0.07885521 0.07875531 0.00099718
v 0.07887925 0.07874824 0.00099277
v 0.07906327 0.07883747 0.00089461
v 0.07899672 0.07871366 0.00097123
v 0.07921164 0.07879380 0.00082292
v 0.07920340 0.07865284 0.00087755
v 0.07920820 0.07865142 0.00087537
v 0.07934932 0.07875328 0.00072001
v 0.07938653 0.07859893 0.00073369
v 0.07947171 0.07871727 0.00058448
v 0.07894556 0.07912111 0.00075355
v 0.07906980 0.07908455 0.00071982
v 0.07947560 0.07857271 0.00061865
v 0.07953901 0.07855404 0.00053673
v 0.07957106 0.07868801 0.00041779
v 0.07958224 0.07854132 0.00044280
v 0.07963588 0.07866894 0.00022484
v 0.07962815 0.07852784 0.00034308
v 0.07965062 0.07852121 0.00023786
v 0.07967411 0.07851429 0.00012796
v 0.07967405 0.07851429 0.00001420
v 0.07920549 0.07892739 -0.00072149
v 0.07918798 0.07904976 -0.00063349
v 0.07933111 0.07889042 -0.00062772
v 0.07929870 0.07901718 -0.00055084
v 0.07944278 0.07885756 -0.00050448
v 0.07939705 0.07898823 -0.00044228
v 0.07953302 0.07883100 -0.00035290
v 0.07947651 0.07896486 -0.00030883
v 0.07959214 0.07881359 -0.00017742
v 0.07952853 0.07894954 -0.00015441
v 0.07961261 0.07880758 0.00001419
v 0.07954654 0.07894426 0.00001415
v 0.07959299 0.07881334 0.00020583
v 0.07952929 0.07894934 0.00018274
v 0.07953402 0.07883071 0.00038143
v 0.07947737 0.07896460 0.00033727
v 0.07944356 0.07885731 0.00053317
v 0.07939775 0.07898803 0.00047086
v 0.07933210 0.07889013 0.00065658
v 0.07929956 0.07901693 0.00057957
v 0.07920666 0.07892704 0.00075033
v 0.07918901 0.07904947 0.00066220
v 0.07907146 0.07896683 0.00081564
v 0.07889367 0.07940866 -0.00015000
v 0.07889193 0.07940274 -0.00019859
v 0.07888842 0.07939083 -0.00029654
v 0.07888301 0.07937246 -0.00034546
v 0.07886303 0.07930449 -0.00052650
v 0.07884558 0.07924515 -0.00061563
v 0.07883339 0.07920373 -0.00067787
v 0.07906907 0.07908475 -0.00069136
v 0.07907064 0.07896708 -0.00078711
v 0.07863511 0.07882129 -0.00098600
v 0.07760636 0.07913948 -0.00098600
v 0.07765414 0.07929410 -0.00090333
v 0.07669535 0.08008800 -0.00015007
v 0.07779445 0.07974817 -0.00015101
v 0.07669342 0.08008207 -0.00019864
v 0.07778353 0.07971284 -0.00033559
v 0.07668940 0.08006962 -0.00030024
v 0.07668389 0.08005262 -0.00034563
v 0.07776343 0.07964775 -0.00050553
v 0.07666195 0.07998485 -0.00052665
v 0.07664293 0.07992617 -0.00061562
v 0.07773574 0.07955810 -0.00065472
v 0.07662391 0.07986750 -0.00070458
v 0.07661407 0.07983709 -0.00073324
v 0.07769789 0.07943567 -0.00079320
v 0.07659542 0.07977952 -0.00078754
v 0.07656726 0.07969263 -0.00086950
v 0.07655047 0.07964083 -0.00089815
v 0.07654032 0.07960946 -0.00091550
v 0.07649900 0.07948198 -0.00098600
v 0.07869661 0.07880227 -0.00098600
v 0.07644716 0.07977614 -0.00082709
v 0.07610814 0.07975331 -0.00080690
v 0.07625045 0.07970714 -0.00087209
v 0.07622490 0.07957090 -0.00094459
v 0.07639541 0.07966014 -0.00090991
v 0.07637062 0.08015880 0.00017783
v 0.07646025 0.08012974 0.00029256
v 0.07655896 0.08013378 0.00017748
v 0.07620705 0.08002481 0.00055146
v 0.07625727 0.08005642 0.00050425
v 0.07617237 0.08008395 0.00041622
v 0.07638095 0.07991574 0.00072406
v 0.07570192 0.07974055 0.00057189
v 0.07576390 0.07972045 0.00064703
v 0.07569184 0.07981739 0.00046000
v 0.07558770 0.07985118 0.00001521
v 0.07554570 0.07979126 0.00001515
v 0.07561589 0.07984204 0.00025108
v 0.07554632 0.07979106 0.00014094
v 0.07557383 0.07978212 0.00025653
v 0.07560015 0.07977359 0.00036725
v 0.07565142 0.07975695 0.00047032
v 0.07634410 0.07953222 0.00099477
v 0.07639551 0.07966011 0.00093779
v 0.07627381 0.07955503 0.00098605
v 0.07625084 0.07970701 0.00089998
v 0.07644725 0.07977611 0.00085498
v 0.07634807 0.07986937 0.00077427
v 0.07635892 0.08010382 0.00040235
v 0.07623456 0.08014415 0.00024304
v 0.07610067 0.08010721 0.00030360
v 0.07605130 0.08012323 0.00016779
v 0.07605098 0.08012333 -0.00013835
v 0.07603302 0.08012915 0.00001477
v 0.07618101 0.08016153 0.00001460
v 0.07619548 0.08015683 0.00013555
v 0.07633227 0.08017125 0.00001444
v 0.07648333 0.08015831 0.00001428
v 0.07641372 0.07995778 0.00067013
v 0.07644622 0.07999514 0.00061275
v 0.07650959 0.08005497 0.00048886
v 0.07656968 0.08009426 0.00035538
v 0.07650936 0.08005503 -0.00046094
v 0.07644596 0.07999524 -0.00058484
v 0.07634903 0.08002665 -0.00054043
v 0.07635836 0.08010402 -0.00037379
v 0.07610057 0.08010724 -0.00027536
v 0.07623445 0.08014418 -0.00021486
v 0.07617196 0.08008409 -0.00038792
v 0.07625657 0.08005664 -0.00047555
v 0.07656952 0.08009430 -0.00032742
v 0.07645984 0.08012986 -0.00026416
v 0.07655873 0.08013385 -0.00014923
v 0.07637053 0.08015883 -0.00014966
v 0.07619522 0.08015693 -0.00010642
v 0.07634446 0.07953212 -0.00096589
v 0.07645028 0.07949779 -0.00098474
v 0.07603752 0.07963166 -0.00086130
v 0.07602256 0.07963652 -0.00085465
v 0.07597207 0.07979744 -0.00071145
v 0.07583644 0.07969690 -0.00071025
v 0.07584723 0.07983796 -0.00058218
v 0.07649736 0.07987799 -0.00072662
v 0.07638063 0.07991584 -0.00069615
v 0.07583644 0.07969690 -0.00071025
v 0.07576297 0.07972075 -0.00061898
v 0.07569809 0.07974179 -0.00053840
v 0.07574158 0.07987223 -0.00041561
v 0.07565111 0.07975705 -0.00044216
v 0.07559867 0.07977407 -0.00033469
v 0.07561541 0.07984220 -0.00022079
v 0.07557360 0.07978219 -0.00022628
v 0.07554510 0.07979145 -0.00010300
v 0.07566803 0.07989611 -0.00021233
v 0.07564132 0.07990477 0.00001520
v 0.07566849 0.07989595 0.00024261
v 0.07569184 0.07981739 0.00046000
v 0.07574173 0.07987217 0.00044406
v 0.07584784 0.07983774 0.00061068
v 0.07585045 0.07969236 0.00075194
v 0.07597313 0.07979710 0.00074056
v 0.07589585 0.07967763 0.00078561
v 0.07610894 0.07975306 0.00083542
v 0.07604111 0.07963050 0.00089335
v 0.07619165 0.07958168 0.00095331
v 0.07631495 0.07981901 -0.00079259
v 0.07626612 0.07995298 -0.00064369
v 0.07618518 0.07986110 -0.00073316
v 0.07615676 0.07998845 -0.00056696
v 0.07606118 0.07990133 -0.00064617
v 0.07605656 0.08002095 -0.00046320
v 0.07594748 0.07993821 -0.00052842
v 0.07597188 0.08004843 -0.00032970
v 0.07585128 0.07996943 -0.00037679
v 0.07591301 0.08006752 -0.00016701
v 0.07578437 0.07999115 -0.00019184
v 0.07589167 0.08007447 0.00001495
v 0.07576007 0.07999903 0.00001511
v 0.07591339 0.08006742 0.00019680
v 0.07578479 0.07999099 0.00022194
v 0.07597203 0.08004840 0.00035804
v 0.07585144 0.07996937 0.00040523
v 0.07605706 0.08002079 0.00049159
v 0.07594802 0.07993805 0.00055690
v 0.07615760 0.07998819 0.00059584
v 0.07606215 0.07990101 0.00067519
v 0.07626677 0.07995277 0.00067209
v 0.07618592 0.07986087 0.00076164
v 0.07631530 0.07981890 0.00082050
v 0.09750721 0.07549363 0.00101400
v 0.09858275 0.07544078 0.00101400
v 0.09859072 0.07560241 0.00093133
v 0.09746393 0.07611454 0.00032813
v 0.09746309 0.07610115 0.00036219
v 0.09861233 0.07604016 0.00036359
v 0.09861417 0.07607709 0.00017901
v 0.09976191 0.07598336 0.00037363
v 0.09976256 0.07600120 0.00032824
v 0.09976303 0.07601426 0.00022664
v 0.09976326 0.07602050 0.00017807
v 0.09975936 0.07591217 0.00055465
v 0.09860898 0.07597213 0.00053353
v 0.09975715 0.07585051 0.00064361
v 0.09860434 0.07587841 0.00068272
v 0.09975494 0.07578886 0.00073258
v 0.09975380 0.07575693 0.00076124
v 0.09859801 0.07575042 0.00082120
v 0.09975165 0.07569646 0.00081554
v 0.09974837 0.07560517 0.00089750
v 0.09974643 0.07555075 0.00092615
v 0.09974527 0.07551781 0.00094350
v 0.09974048 0.07538389 0.00101400
v 0.09746479 0.07612839 0.00022022
v 0.09746515 0.07613382 0.00017796
v 0.09746293 0.07609867 0.00036851
v 0.09745832 0.07602562 0.00055453
v 0.09745456 0.07596599 0.00064064
v 0.09745285 0.07593883 0.00067987
v 0.09745183 0.07592263 0.00070326
v 0.09745054 0.07590223 0.00073273
v 0.09744865 0.07587246 0.00075948
v 0.09744471 0.07580999 0.00081559
v 0.09742505 0.07549766 0.00101400
v 0.09744294 0.07549678 0.00101400
v 0.09743354 0.07563227 0.00094311
v 0.09743554 0.07566439 0.00092619
v 0.09743898 0.07571872 0.00089759
v 0.09988981 0.07564257 0.00085508
v 0.10020060 0.07550515 0.00083478
v 0.10005111 0.07551046 0.00090004
v 0.10002900 0.07537365 0.00097242
v 0.09989878 0.07551587 0.00093790
v 0.10009250 0.07597599 -0.00014969
v 0.09999836 0.07597932 -0.00026448
v 0.09990703 0.07601687 -0.00014943
v 0.10020031 0.07579412 -0.00052330
v 0.10016391 0.07584101 -0.00047610
v 0.10025310 0.07583784 -0.00038803
v 0.09975180 0.07570070 -0.00078402
v 0.09975380 0.07575698 -0.00073331
v 0.09999968 0.07575113 -0.00069596
v 0.10072271 0.07541915 0.00001321
v 0.10074170 0.07534846 0.00001329
v 0.10069310 0.07542019 -0.00022267
v 0.10074090 0.07534849 -0.00011337
v 0.10071210 0.07534951 -0.00022811
v 0.10068410 0.07535051 -0.00033979
v 0.10063060 0.07535238 -0.00044194
v 0.09990320 0.07537812 -0.00096676
v 0.09989862 0.07551587 -0.00090975
v 0.09997642 0.07537552 -0.00095810
v 0.10005050 0.07551049 -0.00087186
v 0.10047381 0.07549549 -0.00058240
v 0.10042070 0.07535981 -0.00072456
v 0.10034221 0.07550014 -0.00071234
v 0.10037401 0.07536145 -0.00075744
v 0.10019960 0.07550519 -0.00080724
v 0.10022020 0.07536689 -0.00086578
v 0.10006331 0.07537246 -0.00092521
v 0.09974849 0.07560817 -0.00086740
v 0.09974978 0.07564439 -0.00083476
v 0.09988967 0.07564257 -0.00082694
v 0.09975165 0.07569661 -0.00078772
v 0.10001471 0.07569629 -0.00074617
v 0.09974643 0.07555059 -0.00089785
v 0.09974525 0.07551767 -0.00091526
v 0.09974048 0.07538389 -0.00098600
v 0.10008471 0.07592031 -0.00037423
v 0.10021531 0.07591568 -0.00021485
v 0.10032840 0.07583517 -0.00027536
v 0.10038031 0.07583335 -0.00013953
v 0.10038060 0.07583333 0.00016663
v 0.10039950 0.07583266 0.00001350
v 0.10027150 0.07591369 0.00001361
v 0.10025631 0.07591423 -0.00010734
v 0.10013280 0.07597455 0.00001371
v 0.09998645 0.07601406 0.00001381
v 0.09998327 0.07580181 -0.00064204
v 0.09996553 0.07584804 -0.00058467
v 0.09992646 0.07592595 -0.00046080
v 0.09988344 0.07598340 -0.00032734
v 0.09992676 0.07592592 0.00048892
v 0.09996590 0.07584803 0.00061282
v 0.10006771 0.07584442 0.00056835
v 0.10008541 0.07592028 0.00040172
v 0.10032850 0.07583517 0.00030352
v 0.10021541 0.07591568 0.00024298
v 0.10025361 0.07583783 0.00041594
v 0.10016481 0.07584098 0.00050345
v 0.09988366 0.07598339 0.00035541
v 0.09999887 0.07597931 0.00029210
v 0.09990732 0.07601686 0.00017720
v 0.10009260 0.07597599 0.00017775
v 0.10025660 0.07591423 0.00013464
v 0.09990287 0.07537813 0.00099389
v 0.09979232 0.07538205 0.00101271
v 0.10022541 0.07536670 0.00088911
v 0.10024180 0.07536612 0.00088213
v 0.10034350 0.07550010 0.00073930
v 0.10043741 0.07535920 0.00073728
v 0.10047451 0.07549547 0.00061019
v 0.09987748 0.07575545 0.00075461
v 0.10000010 0.07575109 0.00072412
v 0.10051361 0.07535653 0.00064702
v 0.10058210 0.07535411 0.00056579
v 0.10058541 0.07549155 0.00044384
v 0.10063090 0.07535237 0.00047040
v 0.10068651 0.07535041 0.00036169
v 0.10069361 0.07542018 0.00024922
v 0.10071241 0.07534951 0.00025473
v 0.10074241 0.07534845 0.00013023
v 0.10066260 0.07548883 0.00024075
v 0.10069070 0.07548783 0.00001320
v 0.10066211 0.07548884 -0.00021422
v 0.10058520 0.07549157 -0.00041570
v 0.10057680 0.07535428 -0.00054470
v 0.10051250 0.07535656 -0.00061874
v 0.10002871 0.07563765 0.00082056
v 0.10012050 0.07574682 0.00067159
v 0.10016510 0.07563282 0.00076105
v 0.10023530 0.07574276 0.00059484
v 0.10029531 0.07562819 0.00067403
v 0.10034041 0.07573904 0.00049121
v 0.10041460 0.07562397 0.00055643
v 0.10042930 0.07573590 0.00035789
v 0.10051551 0.07562040 0.00040500
v 0.10049110 0.07573371 0.00019534
v 0.10058580 0.07561792 0.00022022
v 0.10051350 0.07573291 0.00001337
v 0.10061140 0.07561702 0.00001326
v 0.10049070 0.07573371 -0.00016849
v 0.10058541 0.07561795 -0.00019358
v 0.10042910 0.07573590 -0.00032976
v 0.10051541 0.07562041 -0.00037690
v 0.10033980 0.07573906 -0.00046336
v 0.10041401 0.07562400 -0.00052864
v 0.10023420 0.07574279 -0.00056766
v 0.10029410 0.07562823 -0.00064699
v 0.10011960 0.07574686 -0.00064395
v 0.10016411 0.07563285 -0.00073348
v 0.10002820 0.07563766 -0.00079240
v 0.09975494 0.07578886 -0.00070458
v 0.09975715 0.07585051 -0.00061562
v 0.09975936 0.07591217 -0.00052665
v 0.09976189 0.07598302 -0.00034551
v 0.09976259 0.07600212 -0.00029669
v 0.09976304 0.07601455 -0.00019869
v 0.09976326 0.07602069 -0.00015011
v 0.10042910 0.07573590 -0.00032976
v 0.09746515 0.07613401 -0.00015000
v 0.09861417 0.07607709 -0.00015101
v 0.09746482 0.07612865 -0.00019227
v 0.09861233 0.07604016 -0.00033559
v 0.09746399 0.07611545 -0.00029656
v 0.09746290 0.07609833 -0.00034038
v 0.09860898 0.07597213 -0.00050553
v 0.09745939 0.07604284 -0.00048245
v 0.09745456 0.07596599 -0.00061264
v 0.09745832 0.07602562 -0.00052653
v 0.09745885 0.07603418 -0.00050458
v 0.09743917 0.07572172 -0.00086747
v 0.09744472 0.07581013 -0.00078777
v 0.09859801 0.07575042 -0.00079320
v 0.09745054 0.07590223 -0.00070473
v 0.09860434 0.07587841 -0.00065472
v 0.09859072 0.07560241 -0.00090333
v 0.09743554 0.07566423 -0.00089789
v 0.09742505 0.07549766 -0.00098600
v 0.09743352 0.07563214 -0.00091487
v 0.09744294 0.07549678 -0.00098600
v 0.09750721 0.07549363 -0.00098600
v 0.09858275 0.07544078 -0.00098600
v 0.09729478 0.07577179 -0.00082467
v 0.09728743 0.07605804 0.00048192
v 0.09733892 0.07611048 0.00034828
v 0.09722430 0.07611770 0.00028103
v 0.09712807 0.07606807 0.00038837
v 0.09703714 0.07599721 0.00048804
v 0.09723806 0.07598456 0.00060600
v 0.09721454 0.07594030 0.00066347
v 0.09732335 0.07614518 -0.00014051
v 0.09725245 0.07614965 0.00001407
v 0.09732357 0.07614518 0.00016858
v 0.09652466 0.07555426 0.00044169
v 0.09657119 0.07555133 0.00053941
v 0.09658522 0.07568911 0.00041675
v 0.09668857 0.07568261 0.00058355
v 0.09647432 0.07555742 0.00033603
v 0.09651761 0.07569336 0.00022402
v 0.09645244 0.07555880 0.00023714
v 0.09663486 0.07554732 0.00061825
v 0.09672545 0.07554162 0.00073044
v 0.09681630 0.07567456 0.00071907
v 0.09676909 0.07553888 0.00076317
v 0.09695998 0.07566553 0.00082183
v 0.09692800 0.07552890 0.00088242
v 0.09711359 0.07565587 0.00089357
v 0.09708606 0.07551896 0.00094716
v 0.09716674 0.07551388 0.00098021
v 0.09725380 0.07550841 0.00099160
v 0.09727240 0.07564589 0.00093586
v 0.09736850 0.07550122 0.00100661
v 0.09731936 0.07588335 0.00075142
v 0.09729477 0.07577179 0.00085255
v 0.09715014 0.07578087 0.00081405
v 0.09719195 0.07589135 0.00071748
v 0.09683607 0.07600988 0.00015494
v 0.09688150 0.07600702 0.00028444
v 0.09700499 0.07607582 0.00022737
v 0.09695102 0.07600264 0.00039668
v 0.09713627 0.07612326 0.00016592
v 0.09699434 0.07595415 0.00053421
v 0.09728708 0.07605806 -0.00045394
v 0.09745885 0.07603418 -0.00050458
v 0.09734559 0.07597780 -0.00060675
v 0.09723762 0.07598459 -0.00057803
v 0.09713330 0.07599115 -0.00052933
v 0.09712751 0.07606810 -0.00036030
v 0.09682055 0.07601086 0.00001406
v 0.09688740 0.07604748 0.00001406
v 0.09683580 0.07600991 -0.00012683
v 0.09694172 0.07604406 -0.00022848
v 0.09703641 0.07599726 -0.00045995
v 0.09695054 0.07600267 -0.00036864
v 0.09688109 0.07600705 -0.00025637
v 0.09700467 0.07607586 -0.00019931
v 0.09695688 0.07607886 0.00001405
v 0.09733867 0.07611050 -0.00032029
v 0.09722390 0.07611773 -0.00025296
v 0.09696914 0.07607809 0.00012515
v 0.09710199 0.07612542 0.00001406
v 0.09713604 0.07612327 -0.00013784
v 0.09736063 0.07550170 -0.00098399
v 0.09727241 0.07564589 -0.00090800
v 0.09728370 0.07550653 -0.00096980
v 0.09725412 0.07550840 -0.00096435
v 0.09711296 0.07565591 -0.00086559
v 0.09712665 0.07551641 -0.00094084
v 0.09695868 0.07566561 -0.00079359
v 0.09691874 0.07552948 -0.00084723
v 0.09690133 0.07553057 -0.00083939
v 0.09681524 0.07567463 -0.00069087
v 0.09672047 0.07554194 -0.00069854
v 0.09668783 0.07568265 -0.00055541
v 0.09663418 0.07554737 -0.00059021
v 0.09656730 0.07555157 -0.00050625
v 0.09658461 0.07568915 -0.00038857
v 0.09652340 0.07555434 -0.00041395
v 0.09651720 0.07569339 -0.00019578
v 0.09647589 0.07555733 -0.00031405
v 0.09645240 0.07555880 -0.00020895
v 0.09642789 0.07556034 -0.00009928
v 0.09649450 0.07569482 0.00001413
v 0.09642801 0.07556034 0.00001405
v 0.09642813 0.07556032 0.00012739
v 0.09701027 0.07578968 0.00074873
v 0.09706878 0.07589910 0.00065995
v 0.09687950 0.07579789 0.00065520
v 0.09695366 0.07590635 0.00057761
v 0.09676326 0.07580521 0.00053190
v 0.09685141 0.07591279 0.00046914
v 0.09666925 0.07581113 0.00038019
v 0.09676877 0.07591800 0.00033574
v 0.09660776 0.07581501 0.00020494
v 0.09671474 0.07592141 0.00018173
v 0.09658674 0.07581633 0.00001413
v 0.09669629 0.07592257 0.00001410
v 0.09660740 0.07581504 -0.00017670
v 0.09671442 0.07592142 -0.00015355
v 0.09666870 0.07581118 -0.00035200
v 0.09676828 0.07591803 -0.00030761
v 0.09676258 0.07580526 -0.00050375
v 0.09685083 0.07591283 -0.00044104
v 0.09687851 0.07579795 -0.00062700
v 0.09695280 0.07590641 -0.00054947
v 0.09700909 0.07578975 -0.00072050
v 0.09706775 0.07589917 -0.00063177
v 0.09714956 0.07578091 -0.00078606
v 0.09719143 0.07589139 -0.00068950
v 0.09731936 0.07588335 -0.00072352
v 0.08717731 0.07743978 -0.00947108
v 0.08720015 0.07746901 -0.00946741
v 0.08721905 0.07760756 -0.01061577
v 0.08801790 0.07779980 -0.00941500
v 0.08804181 0.07794128 -0.01055644
v 0.08796898 0.07780221 -0.00941568
v 0.08785367 0.07793721 -0.01056104
v 0.08787037 0.07780706 -0.00941706
v 0.08781891 0.07779683 -0.00941919
v 0.08767457 0.07790014 -0.01056954
v 0.08767028 0.07776725 -0.00942534
v 0.08752993 0.07771387 -0.00943396
v 0.08762835 0.07775891 -0.00942708
v 0.08765146 0.07776349 -0.00942612
v 0.08724005 0.07752011 -0.00946099
v 0.08733382 0.07759296 -0.00945112
v 0.08735303 0.07773320 -0.01059726
v 0.08743152 0.07766887 -0.00944084
v 0.08751149 0.07783438 -0.01058126
v 0.08806772 0.07808294 -0.01169786
v 0.08801881 0.07808536 -0.01169871
v 0.08767820 0.07804239 -0.01171286
v 0.08786879 0.07808010 -0.01170306
v 0.08792015 0.07809025 -0.01170042
v 0.08757998 0.07799768 -0.01172140
v 0.08748176 0.07795295 -0.01172993
v 0.08744799 0.07792682 -0.01173434
v 0.08738836 0.07788070 -0.01174213
v 0.08738401 0.07787735 -0.01174270
v 0.08732872 0.07783458 -0.01174993
v 0.08729033 0.07780488 -0.01175494
v 0.08725042 0.07775396 -0.01176292
v 0.08722763 0.07772486 -0.01176748
v 0.08708458 0.07732096 -0.00948600
v 0.08708635 0.07733110 -0.00956762
v 0.08710975 0.07746377 -0.01063598
v 0.08713494 0.07760659 -0.01178600
v 0.08728531 0.07753516 -0.00930932
v 0.08728827 0.07736992 -0.00899727
v 0.08722063 0.07739925 -0.00915003
v 0.08712352 0.07728013 -0.00918804
v 0.08718184 0.07742422 -0.00930912
v 0.08862507 0.07758323 -0.00925149
v 0.08850513 0.07766626 -0.00929280
v 0.08843573 0.07766533 -0.00917724
v 0.08852913 0.07758197 -0.00909179
v 0.08861155 0.07748053 -0.00901519
v 0.08873211 0.07748211 -0.00921587
v 0.08877993 0.07742534 -0.00920049
v 0.08817530 0.07774852 -0.00919664
v 0.08801987 0.07778421 -0.00926943
v 0.08833365 0.07772889 -0.00926952
v 0.08857303 0.07696183 -0.00863766
v 0.08863958 0.07710102 -0.00872826
v 0.08847316 0.07711863 -0.00862530
v 0.08816108 0.07701802 -0.00849326
v 0.08826979 0.07700158 -0.00851722
v 0.08828177 0.07714470 -0.00855791
v 0.08836384 0.07698736 -0.00853795
v 0.08847258 0.07697409 -0.00858978
v 0.08864888 0.07695544 -0.00869903
v 0.08876430 0.07694574 -0.00879242
v 0.08877547 0.07709150 -0.00885512
v 0.08879435 0.07694495 -0.00883210
v 0.08887936 0.07708944 -0.00899773
v 0.08891601 0.07694181 -0.00899279
v 0.08895308 0.07709386 -0.00915079
v 0.08898124 0.07694793 -0.00914744
v 0.08901622 0.07695121 -0.00923037
v 0.08885981 0.07737304 -0.00931457
v 0.08886979 0.07738311 -0.00944439
v 0.08884714 0.07741925 -0.00944084
v 0.08891281 0.07731440 -0.00945114
v 0.08893882 0.07724366 -0.00930980
v 0.08897776 0.07721064 -0.00946133
v 0.08899654 0.07715242 -0.00946739
v 0.08899810 0.07710403 -0.00930965
v 0.08900792 0.07711713 -0.00947106
v 0.08902881 0.07695866 -0.00931514
v 0.08905418 0.07697367 -0.00948600
v 0.08827794 0.07751648 -0.00881427
v 0.08840707 0.07749890 -0.00885975
v 0.08836687 0.07759653 -0.00896843
v 0.08851954 0.07748697 -0.00892931
v 0.08831900 0.07767582 -0.00908844
v 0.08864798 0.07742360 -0.00898084
v 0.08877006 0.07749520 -0.00943396
v 0.08869298 0.07757117 -0.00942708
v 0.08867286 0.07758345 -0.00942612
v 0.08865648 0.07759343 -0.00942533
v 0.08852707 0.07767229 -0.00941915
v 0.08848539 0.07769768 -0.00941716
v 0.08838762 0.07772811 -0.00941571
v 0.08834085 0.07774269 -0.00941502
v 0.08769626 0.07774695 -0.00925108
v 0.08753469 0.07770552 -0.00932351
v 0.08756108 0.07768854 -0.00921536
v 0.08760701 0.07766864 -0.00911161
v 0.08778576 0.07771302 -0.00909154
v 0.08813810 0.07753939 -0.00879881
v 0.08814640 0.07758628 -0.00885775
v 0.08799888 0.07756569 -0.00881417
v 0.08790705 0.07763469 -0.00891229
v 0.08767353 0.07764589 -0.00901487
v 0.08776202 0.07762050 -0.00892898
v 0.08787162 0.07759328 -0.00885952
v 0.08794294 0.07767126 -0.00896825
v 0.08815390 0.07762860 -0.00892015
v 0.08783738 0.07778396 -0.00929252
v 0.08790210 0.07775940 -0.00917707
v 0.08826458 0.07761048 -0.00893240
v 0.08816640 0.07769878 -0.00905382
v 0.08801522 0.07772937 -0.00908831
v 0.08710283 0.07729824 -0.00931489
v 0.08708528 0.07731360 -0.00942257
v 0.08721154 0.07724110 -0.00898172
v 0.08721928 0.07723767 -0.00896358
v 0.08738636 0.07733638 -0.00885463
v 0.08735392 0.07719349 -0.00878427
v 0.08751704 0.07729889 -0.00872775
v 0.08745840 0.07716533 -0.00869868
v 0.08751704 0.07729889 -0.00872775
v 0.08753968 0.07714341 -0.00863210
v 0.08767921 0.07725859 -0.00862495
v 0.08762960 0.07712259 -0.00858841
v 0.08786782 0.07721769 -0.00855775
v 0.08772705 0.07710000 -0.00854107
v 0.08783007 0.07707917 -0.00851764
v 0.08793766 0.07705741 -0.00849317
v 0.08807431 0.07717868 -0.00853498
v 0.08804934 0.07703772 -0.00849322
v 0.08805004 0.07703759 -0.00849322
v 0.08883062 0.07723034 -0.00902552
v 0.08876436 0.07736129 -0.00906386
v 0.08873598 0.07723223 -0.00889560
v 0.08868095 0.07736296 -0.00894935
v 0.08861222 0.07724089 -0.00878006
v 0.08857193 0.07737060 -0.00884758
v 0.08846074 0.07725695 -0.00868633
v 0.08843856 0.07738473 -0.00876507
v 0.08828657 0.07728067 -0.00862500
v 0.08828530 0.07740561 -0.00871110
v 0.08809781 0.07731157 -0.00860414
v 0.08811924 0.07743280 -0.00869274
v 0.08790992 0.07734706 -0.00862486
v 0.08795395 0.07746402 -0.00871098
v 0.08773829 0.07738430 -0.00868602
v 0.08780291 0.07749678 -0.00876480
v 0.08759066 0.07742099 -0.00877960
v 0.08767293 0.07752909 -0.00884718
v 0.08747165 0.07745512 -0.00889515
v 0.08756810 0.07755915 -0.00894897
v 0.08738228 0.07748568 -0.00902510
v 0.08748932 0.07758609 -0.00906350
v 0.08732067 0.07751240 -0.00916432
v 0.08743499 0.07760965 -0.00918625
v 0.08740380 0.07762973 -0.00931415
v 0.08882390 0.07744214 -0.00943877
v 0.08882360 0.07736486 -0.00918685
v 0.08889779 0.07723439 -0.00916500
v 0.08836683 0.07788398 -0.01055644
v 0.08854223 0.07781579 -0.01056104
v 0.08843763 0.07801123 -0.01169874
v 0.08839087 0.07802576 -0.01169788
v 0.08882010 0.07777901 -0.01172140
v 0.08874308 0.07785463 -0.01171286
v 0.08869786 0.07771971 -0.01056954
v 0.08857706 0.07795555 -0.01170302
v 0.08853544 0.07798085 -0.01170055
v 0.08889709 0.07770340 -0.01172993
v 0.08882860 0.07760212 -0.01058126
v 0.08891983 0.07766726 -0.01173435
v 0.08894291 0.07745288 -0.01059726
v 0.08905816 0.07740223 -0.01176746
v 0.08904676 0.07743740 -0.01176289
v 0.08902584 0.07728897 -0.01061577
v 0.08902790 0.07749549 -0.01175536
v 0.08896289 0.07759880 -0.01174272
v 0.08905597 0.07698381 -0.00956762
v 0.08910454 0.07725930 -0.01178600
v 0.08907937 0.07711648 -0.01063598
v 0.08839376 0.07804699 -0.01184033
v 0.08899640 0.07756340 -0.01188832
v 0.08896219 0.07748684 -0.01221841
v 0.08902243 0.07745518 -0.01207048
v 0.08907429 0.07730284 -0.01205483
v 0.08905652 0.07742766 -0.01191917
v 0.08839268 0.07803898 -0.01202990
v 0.08850331 0.07800628 -0.01193697
v 0.08860380 0.07794478 -0.01203237
v 0.08875397 0.07783937 -0.01202852
v 0.08869284 0.07786377 -0.01212435
v 0.08823507 0.07808612 -0.01191876
v 0.08775090 0.07807289 -0.01187552
v 0.08789074 0.07809809 -0.01182304
v 0.08795556 0.07810283 -0.01193685
v 0.08784018 0.07807940 -0.01203221
v 0.08772886 0.07803371 -0.01212414
v 0.08761689 0.07802552 -0.01192765
v 0.08749184 0.07795668 -0.01197824
v 0.08755307 0.07799369 -0.01195321
v 0.08779619 0.07762297 -0.01272110
v 0.08769374 0.07763362 -0.01266895
v 0.08792360 0.07767179 -0.01271782
v 0.08814484 0.07756959 -0.01277797
v 0.08814386 0.07756977 -0.01277797
v 0.08815628 0.07763491 -0.01274700
v 0.08802501 0.07759072 -0.01277798
v 0.08790683 0.07760739 -0.01274860
v 0.08715793 0.07762549 -0.01194757
v 0.08723767 0.07774837 -0.01191910
v 0.08716793 0.07763372 -0.01201785
v 0.08727916 0.07776255 -0.01207028
v 0.08757511 0.07776992 -0.01248907
v 0.08741385 0.07765390 -0.01246471
v 0.08744371 0.07777459 -0.01235910
v 0.08737696 0.07765323 -0.01241426
v 0.08734671 0.07777166 -0.01221811
v 0.08726609 0.07765121 -0.01226261
v 0.08720362 0.07764007 -0.01210681
v 0.08734057 0.07785535 -0.01188827
v 0.08743352 0.07791478 -0.01200260
v 0.08806598 0.07800468 -0.01233800
v 0.08793094 0.07802119 -0.01228667
v 0.08800061 0.07806948 -0.01216128
v 0.08781791 0.07803054 -0.01221222
v 0.08807109 0.07809568 -0.01202988
v 0.08767554 0.07800264 -0.01216814
v 0.08807232 0.07810366 -0.01184027
v 0.08868528 0.07790815 -0.01187563
v 0.08879503 0.07781781 -0.01192778
v 0.08821695 0.07798075 -0.01235693
v 0.08822681 0.07803749 -0.01221687
v 0.08836705 0.07795160 -0.01233797
v 0.08834546 0.07801445 -0.01220189
v 0.08849942 0.07792096 -0.01228671
v 0.08845025 0.07799018 -0.01216131
v 0.08860840 0.07789117 -0.01221237
v 0.08856247 0.07797966 -0.01182311
v 0.08810752 0.07805639 -0.01220191
v 0.08823289 0.07807281 -0.01206968
v 0.08908838 0.07728506 -0.01194726
v 0.08910479 0.07726438 -0.01182207
v 0.08899234 0.07734742 -0.01226667
v 0.08898508 0.07735138 -0.01228547
v 0.08887227 0.07752275 -0.01235943
v 0.08886053 0.07739869 -0.01246366
v 0.08874768 0.07756319 -0.01248930
v 0.08891645 0.07768821 -0.01185655
v 0.08888897 0.07771035 -0.01197839
v 0.08876072 0.07742875 -0.01255125
v 0.08868024 0.07745298 -0.01262186
v 0.08858642 0.07760728 -0.01259931
v 0.08859040 0.07747551 -0.01266889
v 0.08849035 0.07750061 -0.01272125
v 0.08838765 0.07758995 -0.01271777
v 0.08838157 0.07752369 -0.01274858
v 0.08826468 0.07754847 -0.01277796
v 0.08839009 0.07765272 -0.01267535
v 0.08816700 0.07769606 -0.01270352
v 0.08794268 0.07773162 -0.01267539
v 0.08774234 0.07775611 -0.01259925
v 0.08760287 0.07764305 -0.01262271
v 0.08751706 0.07764798 -0.01255097
v 0.08896531 0.07758850 -0.01202633
v 0.08884050 0.07773582 -0.01209742
v 0.08891038 0.07761735 -0.01216121
v 0.08876821 0.07776468 -0.01221077
v 0.08882843 0.07765008 -0.01228974
v 0.08866822 0.07779715 -0.01231501
v 0.08871495 0.07768692 -0.01240804
v 0.08853898 0.07783246 -0.01240317
v 0.08856817 0.07772705 -0.01250818
v 0.08838179 0.07786885 -0.01246404
v 0.08838952 0.07776839 -0.01257736
v 0.08820341 0.07790351 -0.01248657
v 0.08818661 0.07780781 -0.01260299
v 0.08802401 0.07793193 -0.01246407
v 0.08798259 0.07784014 -0.01257740
v 0.08786367 0.07795153 -0.01240312
v 0.08780030 0.07786243 -0.01250812
v 0.08772963 0.07796261 -0.01231482
v 0.08764808 0.07787500 -0.01240782
v 0.08762417 0.07796637 -0.01221051
v 0.08752840 0.07787928 -0.01228944
v 0.08754619 0.07796400 -0.01209718
v 0.08744001 0.07787658 -0.01216094
v 0.08737844 0.07786828 -0.01202615
v 0.08767821 0.07804239 0.01174086
v 0.08770144 0.07804699 0.01173967
v 0.08767457 0.07790014 0.01059754
v 0.08804181 0.07794128 0.01058443
v 0.08786879 0.07808010 0.01173106
v 0.08792016 0.07809025 0.01172842
v 0.08785367 0.07793721 0.01058904
v 0.08801881 0.07808536 0.01172671
v 0.08806772 0.07808294 0.01172586
v 0.08757998 0.07799768 0.01174940
v 0.08748176 0.07795295 0.01175793
v 0.08751149 0.07783438 0.01060926
v 0.08744799 0.07792682 0.01176234
v 0.08735303 0.07773320 0.01062526
v 0.08722763 0.07772486 0.01179548
v 0.08725042 0.07775396 0.01179092
v 0.08721905 0.07760756 0.01064376
v 0.08729032 0.07780487 0.01178294
v 0.08738401 0.07787735 0.01177070
v 0.08786668 0.07780678 0.00944516
v 0.08796898 0.07780194 0.00944371
v 0.08801791 0.07779963 0.00944302
v 0.08781884 0.07779718 0.00944715
v 0.08767028 0.07776732 0.00945333
v 0.08765145 0.07776355 0.00945412
v 0.08762835 0.07775891 0.00945508
v 0.08752993 0.07771387 0.00946196
v 0.08746119 0.07768242 0.00946677
v 0.08743152 0.07766887 0.00946884
v 0.08739788 0.07764264 0.00947239
v 0.08733397 0.07759278 0.00947914
v 0.08723743 0.07751751 0.00948933
v 0.08719987 0.07746923 0.00949539
v 0.08717711 0.07743995 0.00949906
v 0.08713494 0.07760659 0.01181400
v 0.08710975 0.07746377 0.01066398
v 0.08708635 0.07733110 0.00959562
v 0.08708458 0.07732096 0.00951400
v 0.08807229 0.07810369 0.01186828
v 0.08734053 0.07785537 0.01191627
v 0.08734652 0.07777169 0.01224614
v 0.08727903 0.07776256 0.01209830
v 0.08721569 0.07764537 0.01218700
v 0.08723761 0.07774839 0.01194711
v 0.08807090 0.07809571 0.01205789
v 0.08795546 0.07810286 0.01196487
v 0.08784005 0.07807943 0.01206023
v 0.08823503 0.07808615 0.01194678
v 0.08868535 0.07790812 0.01190347
v 0.08856250 0.07797963 0.01185100
v 0.08850335 0.07800624 0.01196487
v 0.08860386 0.07794475 0.01206025
v 0.08869294 0.07786374 0.01215220
v 0.08879512 0.07781776 0.01195558
v 0.08896016 0.07760357 0.01177013
v 0.08891990 0.07766729 0.01176234
v 0.08888910 0.07771030 0.01200615
v 0.08884420 0.07776603 0.01198113
v 0.08845206 0.07750930 0.01276299
v 0.08858998 0.07747541 0.01269568
v 0.08838755 0.07758998 0.01274574
v 0.08908944 0.07728492 0.01197551
v 0.08905658 0.07742765 0.01194705
v 0.08908275 0.07729621 0.01204675
v 0.08902259 0.07745511 0.01209818
v 0.08874781 0.07756315 0.01251717
v 0.08885968 0.07739894 0.01249245
v 0.08887246 0.07752269 0.01238721
v 0.08889379 0.07738581 0.01244241
v 0.08896241 0.07748677 0.01224609
v 0.08899611 0.07734642 0.01229236
v 0.08905173 0.07731420 0.01213470
v 0.08902634 0.07749878 0.01178294
v 0.08900043 0.07753981 0.01177793
v 0.08899646 0.07756337 0.01191622
v 0.08896309 0.07759891 0.01177070
v 0.08892958 0.07765098 0.01203051
v 0.08904642 0.07743727 0.01179092
v 0.08905790 0.07740213 0.01179548
v 0.08910454 0.07725930 0.01181400
v 0.08836696 0.07795160 0.01236595
v 0.08849939 0.07792096 0.01231463
v 0.08845021 0.07799018 0.01218924
v 0.08860846 0.07789116 0.01224027
v 0.08839267 0.07803897 0.01205786
v 0.08873246 0.07781630 0.01219621
v 0.08839380 0.07804699 0.01186827
v 0.08772870 0.07803374 0.01215217
v 0.08766278 0.07803174 0.01205634
v 0.08775081 0.07807290 0.01190353
v 0.08761677 0.07802555 0.01195566
v 0.08821676 0.07798079 0.01238499
v 0.08822667 0.07803753 0.01224492
v 0.08806566 0.07800473 0.01236604
v 0.08810724 0.07805645 0.01222994
v 0.08793058 0.07802124 0.01231469
v 0.08800032 0.07806952 0.01218929
v 0.08781768 0.07803057 0.01224025
v 0.08789067 0.07809810 0.01185105
v 0.08834537 0.07801445 0.01222987
v 0.08823278 0.07807283 0.01209771
v 0.08715213 0.07762661 0.01197627
v 0.08715210 0.07762661 0.01197615
v 0.08727391 0.07765008 0.01229230
v 0.08732476 0.07765420 0.01238428
v 0.08744352 0.07777465 0.01238715
v 0.08737645 0.07765326 0.01244169
v 0.08757480 0.07776999 0.01251712
v 0.08745836 0.07794529 0.01188450
v 0.08749173 0.07795671 0.01200625
v 0.08748365 0.07765127 0.01256068
v 0.08769027 0.07763494 0.01270191
v 0.08774189 0.07775619 0.01262728
v 0.08792315 0.07767189 0.01274589
v 0.08814406 0.07757088 0.01281400
v 0.08815606 0.07763498 0.01277510
v 0.08821409 0.07755812 0.01281102
v 0.08838189 0.07752370 0.01277715
v 0.08769070 0.07763488 0.01270208
v 0.08790419 0.07760881 0.01278336
v 0.08790477 0.07760871 0.01278343
v 0.08794226 0.07773170 0.01270346
v 0.08816681 0.07769612 0.01273163
v 0.08839000 0.07765274 0.01270332
v 0.08858645 0.07760727 0.01262720
v 0.08866856 0.07745610 0.01265733
v 0.08876015 0.07742871 0.01257830
v 0.08737832 0.07786831 0.01205417
v 0.08754606 0.07796403 0.01212520
v 0.08743985 0.07787661 0.01218897
v 0.08762400 0.07796640 0.01223855
v 0.08752823 0.07787931 0.01231748
v 0.08772937 0.07796267 0.01234286
v 0.08764780 0.07787506 0.01243586
v 0.08786329 0.07795160 0.01243115
v 0.08779990 0.07786251 0.01253615
v 0.08802366 0.07793200 0.01249212
v 0.08798220 0.07784022 0.01260546
v 0.08820324 0.07790355 0.01251465
v 0.08818644 0.07780787 0.01263108
v 0.08838173 0.07786885 0.01249201
v 0.08838945 0.07776841 0.01260534
v 0.08853898 0.07783245 0.01243108
v 0.08856820 0.07772702 0.01253607
v 0.08866829 0.07779712 0.01234290
v 0.08871508 0.07768687 0.01243591
v 0.08876835 0.07776464 0.01223859
v 0.08882860 0.07765002 0.01231754
v 0.08884064 0.07773575 0.01212516
v 0.08891057 0.07761728 0.01218892
v 0.08896545 0.07758844 0.01205406
v 0.08889709 0.07770340 0.01175793
v 0.08882010 0.07777901 0.01174940
v 0.08874308 0.07785463 0.01174086
v 0.08857689 0.07795524 0.01173106
v 0.08853209 0.07798236 0.01172842
v 0.08843773 0.07801149 0.01172671
v 0.08839093 0.07802594 0.01172586
v 0.08907937 0.07711648 0.01066400
v 0.08882860 0.07760213 0.01060928
v 0.08886979 0.07738311 0.00947239
v 0.08884716 0.07741922 0.00946885
v 0.08877006 0.07749520 0.00946196
v 0.08869295 0.07757119 0.00945508
v 0.08869786 0.07771972 0.01059757
v 0.08836683 0.07788398 0.01058446
v 0.08854223 0.07781581 0.01058907
v 0.08838762 0.07772811 0.00944371
v 0.08834085 0.07774269 0.00944302
v 0.08865648 0.07759343 0.00945333
v 0.08852707 0.07767228 0.00944715
v 0.08848534 0.07769770 0.00944516
v 0.08891279 0.07731440 0.00947914
v 0.08894291 0.07745288 0.01062528
v 0.08897776 0.07721062 0.00948933
v 0.08902584 0.07728897 0.01064379
v 0.08899654 0.07715242 0.00949539
v 0.08905597 0.07698381 0.00959562
v 0.08900792 0.07711713 0.00949906
v 0.08905418 0.07697367 0.00951400
v 0.08833361 0.07772889 0.00929749
v 0.08885981 0.07737304 0.00934254
v 0.08893880 0.07724366 0.00933776
v 0.08899810 0.07710402 0.00933760
v 0.08817525 0.07774852 0.00922462
v 0.08769625 0.07774697 0.00927908
v 0.08783735 0.07778396 0.00932051
v 0.08790210 0.07775940 0.00920503
v 0.08778573 0.07771302 0.00911949
v 0.08767351 0.07764589 0.00904281
v 0.08756105 0.07768856 0.00924335
v 0.08749669 0.07765155 0.00922793
v 0.08786769 0.07721769 0.00858569
v 0.08807415 0.07717869 0.00856288
v 0.08793754 0.07705741 0.00852107
v 0.08753402 0.07714480 0.00866357
v 0.08751699 0.07729889 0.00875568
v 0.08767913 0.07725859 0.00865290
v 0.08782981 0.07707917 0.00854515
v 0.08773372 0.07709855 0.00856662
v 0.08762986 0.07712262 0.00861704
v 0.08745826 0.07716533 0.00872646
v 0.08734964 0.07719475 0.00881667
v 0.08738631 0.07733638 0.00888254
v 0.08731858 0.07720514 0.00885969
v 0.08728824 0.07736991 0.00902519
v 0.08720466 0.07724321 0.00901749
v 0.08722060 0.07739927 0.00917803
v 0.08714409 0.07727179 0.00917462
v 0.08711300 0.07728646 0.00925531
v 0.08740377 0.07762973 0.00934217
v 0.08728528 0.07753516 0.00933735
v 0.08718181 0.07742424 0.00933714
v 0.08710341 0.07729811 0.00934263
v 0.08799881 0.07756569 0.00884213
v 0.08787156 0.07759328 0.00888748
v 0.08794288 0.07767128 0.00899622
v 0.08776197 0.07762051 0.00895693
v 0.08801519 0.07772937 0.00911629
v 0.08761979 0.07760485 0.00900842
v 0.08801986 0.07778421 0.00929741
v 0.08876275 0.07748902 0.00935184
v 0.08873208 0.07748211 0.00924378
v 0.08862503 0.07758323 0.00927942
v 0.08868197 0.07747911 0.00913981
v 0.08852906 0.07758197 0.00911972
v 0.08813797 0.07753939 0.00882674
v 0.08814630 0.07758629 0.00888568
v 0.08827778 0.07751649 0.00884217
v 0.08838788 0.07754992 0.00894041
v 0.08861148 0.07748053 0.00904311
v 0.08851944 0.07748698 0.00895723
v 0.08840694 0.07749891 0.00888766
v 0.08836676 0.07759655 0.00899635
v 0.08815381 0.07762860 0.00894810
v 0.08850512 0.07766624 0.00932076
v 0.08843570 0.07766533 0.00920519
v 0.08804367 0.07764941 0.00896029
v 0.08816633 0.07769880 0.00908177
v 0.08831892 0.07767582 0.00911639
v 0.08903589 0.07695730 0.00934216
v 0.08903560 0.07695704 0.00933943
v 0.08895305 0.07709386 0.00917866
v 0.08896910 0.07694448 0.00912629
v 0.08887928 0.07708942 0.00902558
v 0.08890333 0.07694310 0.00901251
v 0.08885131 0.07694201 0.00892248
v 0.08877536 0.07709150 0.00888300
v 0.08879356 0.07694524 0.00886139
v 0.08863942 0.07710102 0.00875614
v 0.08868586 0.07695124 0.00874748
v 0.08847567 0.07697287 0.00861187
v 0.08847296 0.07711866 0.00865316
v 0.08847509 0.07697296 0.00861166
v 0.08828155 0.07714473 0.00858576
v 0.08826954 0.07700096 0.00853924
v 0.08804989 0.07703680 0.00851400
v 0.08738227 0.07748568 0.00905303
v 0.08748932 0.07758609 0.00909144
v 0.08747162 0.07745511 0.00892307
v 0.08756807 0.07755915 0.00897689
v 0.08759060 0.07742099 0.00880754
v 0.08767289 0.07752909 0.00887513
v 0.08773822 0.07738430 0.00871397
v 0.08780284 0.07749678 0.00879275
v 0.08790982 0.07734707 0.00865280
v 0.08795385 0.07746403 0.00873892
v 0.08809766 0.07731160 0.00863204
v 0.08811909 0.07743281 0.00872066
v 0.08828638 0.07728068 0.00865286
v 0.08828512 0.07740564 0.00873898
v 0.08846057 0.07725696 0.00871421
v 0.08843840 0.07738475 0.00879296
v 0.08861210 0.07724092 0.00880795
v 0.08857181 0.07737062 0.00887549
v 0.08873590 0.07723223 0.00892348
v 0.08868087 0.07736297 0.00897725
v 0.08883056 0.07723034 0.00905338
v 0.08876432 0.07736129 0.00909174
v 0.08889776 0.07723439 0.00919289
v 0.08882357 0.07736486 0.00921475
v 0.08743496 0.07760965 0.00921424
v 0.08732064 0.07751240 0.00919231
f 1 2 3
f 2 4 3
f 3 4 5
f 6 7 3
f 7 8 3
f 8 9 3
f 9 10 3
f 3 10 11
f 5 12 3
f 12 13 3
f 3 13 14
f 14 15 3
f 15 16 3
f 3 16 17
f 17 18 3
f 18 19 3
f 3 19 6
f 11 20 21
f 20 22 21
f 21 22 23
f 23 24 21
f 24 25 21
f 21 25 11
f 25 26 11
f 26 27 11
f 27 28 11
f 11 28 29
f 29 30 11
f 30 31 11
f 11 31 32
f 32 33 11
f 33 34 11
f 11 34 35
f 36 37 35
f 37 38 35
f 35 38 11
f 38 39 11
f 11 39 3
f 39 40 3
f 3 40 1
f 41 42 43
f 44 45 42
f 45 46 42
f 41 47 42
f 47 48 42
f 42 48 44
f 49 50 43
f 46 51 42
f 51 52 42
f 42 52 43
f 52 53 43
f 43 53 49
f 50 54 43
f 54 55 43
f 43 55 56
f 55 57 56
f 56 57 58
f 43 59 60
f 59 61 60
f 60 61 62
f 62 63 60
f 63 64 60
f 60 64 43
f 64 65 43
f 65 66 43
f 66 67 43
f 43 67 68
f 68 69 43
f 69 70 43
f 43 70 71
f 71 72 43
f 72 73 43
f 43 73 74
f 75 76 74
f 76 77 74
f 74 77 43
f 77 78 43
f 43 78 41
f 79 80 81
f 79 81 82
f 83 84 81
f 80 85 81
f 85 86 81
f 81 86 87
f 87 88 81
f 88 89 81
f 81 89 83
f 84 90 81
f 90 91 81
f 81 91 92
f 92 93 81
f 93 94 81
f 81 94 95
f 96 97 98
f 98 99 96
f 99 100 96
f 96 100 101
f 97 96 95
f 96 102 95
f 95 102 81
f 102 103 81
f 81 103 82
f 104 105 96
f 101 106 96
f 106 107 96
f 96 107 108
f 108 109 96
f 109 110 96
f 96 110 104
f 105 111 96
f 111 112 96
f 96 112 113
f 113 114 96
f 114 115 96
f 96 115 102
f 116 117 118
f 117 119 118
f 118 119 120
f 119 121 120
f 120 121 122
f 122 123 120
f 123 124 120
f 120 124 125
f 125 126 120
f 126 127 120
f 120 127 128
f 128 129 120
f 129 130 120
f 120 130 131
f 130 132 131
f 131 132 133
f 134 135 136
f 135 137 136
f 136 137 138
f 139 140 136
f 138 141 136
f 141 142 136
f 136 142 143
f 143 144 136
f 144 145 136
f 136 145 139
f 134 136 146
f 136 147 146
f 146 147 120
f 147 148 120
f 120 148 118
f 148 149 118
f 118 149 116
f 140 150 136
f 150 151 136
f 136 151 152
f 152 153 136
f 153 154 136
f 136 154 147
f 155 156 157
f 155 157 158
f 159 158 157
f 160 161 157
f 162 157 163
f 164 157 165
f 157 164 166
f 162 165 157
f 167 168 157
f 157 168 169
f 170 157 171
f 157 170 172
f 169 171 157
f 173 157 174
f 175 176 157
f 177 157 178
f 157 177 179
f 176 178 157
f 180 181 157
f 182 163 157
f 183 184 157
f 185 183 161
f 183 157 161
f 156 160 157
f 186 182 157
f 187 188 184
f 188 186 184
f 184 186 157
f 174 157 189
f 190 191 172
f 191 189 172
f 172 189 157
f 192 193 194
f 193 195 194
f 194 195 196
f 197 198 199
f 198 200 199
f 201 159 157
f 181 201 157
f 202 203 204
f 203 205 204
f 204 205 206
f 205 159 206
f 159 201 206
f 206 201 207
f 201 208 207
f 207 208 209
f 208 210 209
f 209 210 202
f 211 212 213
f 212 214 213
f 213 214 215
f 216 217 218
f 217 219 218
f 218 219 220
f 220 221 218
f 221 222 218
f 218 222 223
f 222 224 223
f 218 225 216
f 225 226 216
f 216 226 227
f 226 228 227
f 229 230 231
f 185 161 232
f 161 233 232
f 232 233 187
f 233 231 187
f 187 231 188
f 231 230 188
f 188 230 234
f 230 235 234
f 234 235 236
f 235 237 236
f 236 237 238
f 237 239 238
f 238 239 220
f 239 240 220
f 220 240 221
f 231 241 229
f 241 242 229
f 229 242 243
f 214 223 215
f 223 224 215
f 215 224 242
f 224 244 242
f 242 244 243
f 179 180 157
f 173 175 157
f 202 210 203
f 210 245 203
f 203 245 246
f 245 247 246
f 246 247 248
f 247 249 248
f 248 249 197
f 249 250 197
f 197 250 198
f 166 167 157
f 195 199 196
f 199 200 196
f 196 200 251
f 200 191 251
f 251 191 252
f 191 190 252
f 252 190 192
f 190 253 192
f 192 253 193
f 253 254 193
f 193 254 255
f 254 256 255
f 255 256 257
f 256 227 257
f 257 227 258
f 227 228 258
f 258 228 211
f 228 259 211
f 211 259 212
f 260 261 262
f 263 40 264
f 40 39 264
f 263 264 265
f 264 266 265
f 265 266 267
f 267 266 268
f 266 269 268
f 268 269 270
f 271 272 269
f 272 273 269
f 269 273 270
f 274 275 262
f 275 276 262
f 262 276 271
f 276 277 271
f 271 277 272
f 39 38 278
f 39 278 264
f 278 279 264
f 264 279 266
f 280 269 281
f 269 266 281
f 281 266 282
f 266 279 282
f 280 283 269
f 283 284 269
f 269 284 271
f 284 285 271
f 271 285 262
f 285 286 262
f 262 286 260
f 261 287 262
f 287 288 262
f 262 288 274
f 288 289 274
f 287 290 288
f 290 291 288
f 288 291 292
f 293 294 295
f 294 289 295
f 295 289 296
f 289 288 296
f 296 288 297
f 288 292 297
f 297 292 298
f 12 5 299
f 275 274 300
f 17 16 301
f 302 303 304
f 305 306 307
f 303 302 308
f 309 310 311
f 311 312 309
f 312 313 309
f 309 313 314
f 313 315 314
f 315 316 314
f 314 316 317
f 316 318 317
f 317 318 319
f 318 320 319
f 319 320 321
f 320 322 321
f 323 324 325
f 326 327 328
f 329 330 331
f 330 329 332
f 329 333 332
f 332 333 334
f 334 333 335
f 333 326 335
f 335 326 336
f 326 328 336
f 336 328 337
f 338 339 301
f 306 302 307
f 302 304 307
f 307 304 338
f 304 340 338
f 338 340 341
f 342 340 343
f 340 304 343
f 343 304 344
f 304 303 344
f 344 303 345
f 303 308 345
f 339 6 19
f 339 19 301
f 19 18 301
f 301 18 17
f 346 347 348
f 346 348 349
f 350 351 352
f 351 353 352
f 354 355 353
f 355 356 353
f 353 356 352
f 348 354 349
f 354 353 349
f 349 353 357
f 353 351 357
f 357 351 358
f 268 359 267
f 359 360 267
f 305 307 361
f 307 338 361
f 361 338 362
f 338 301 362
f 362 301 363
f 301 299 363
f 363 299 360
f 299 265 360
f 360 265 267
f 5 4 299
f 4 2 299
f 299 2 265
f 2 1 265
f 265 1 263
f 1 40 263
f 350 305 351
f 305 361 351
f 351 361 358
f 361 362 358
f 358 362 357
f 362 363 357
f 357 363 349
f 363 360 349
f 349 360 346
f 360 359 346
f 346 359 364
f 359 268 364
f 293 365 294
f 365 366 294
f 294 366 289
f 365 367 366
f 367 368 366
f 366 368 369
f 368 370 369
f 369 370 371
f 370 372 371
f 372 373 371
f 371 373 374
f 373 375 374
f 374 375 376
f 276 377 277
f 377 378 277
f 277 378 272
f 375 379 376
f 379 380 376
f 376 380 381
f 380 382 381
f 381 382 383
f 382 384 383
f 384 385 383
f 385 386 383
f 383 386 310
f 386 387 310
f 310 387 311
f 388 389 390
f 389 391 390
f 390 391 392
f 391 393 392
f 392 393 394
f 393 395 394
f 394 395 396
f 395 397 396
f 396 397 398
f 397 399 398
f 398 399 400
f 399 401 400
f 400 401 402
f 401 403 402
f 402 403 404
f 403 405 404
f 404 405 406
f 405 407 406
f 406 407 408
f 407 409 408
f 408 409 410
f 409 378 410
f 410 378 300
f 378 377 300
f 300 377 275
f 377 276 275
f 321 388 319
f 388 390 319
f 319 390 317
f 390 392 317
f 317 392 314
f 392 394 314
f 314 394 309
f 394 396 309
f 309 396 310
f 396 398 310
f 310 398 383
f 398 400 383
f 383 400 381
f 400 402 381
f 381 402 376
f 402 404 376
f 376 404 374
f 404 406 374
f 374 406 371
f 406 408 371
f 371 408 369
f 408 410 369
f 369 410 366
f 410 300 366
f 366 300 289
f 300 274 289
f 411 10 9
f 9 8 341
f 8 7 341
f 341 7 6
f 411 9 412
f 9 341 412
f 412 341 413
f 341 340 413
f 413 340 414
f 340 342 414
f 414 342 415
f 342 343 415
f 415 343 416
f 343 344 416
f 416 344 417
f 344 345 417
f 417 345 331
f 345 418 331
f 331 418 329
f 418 419 329
f 329 419 333
f 419 323 333
f 333 323 326
f 323 325 326
f 326 325 327
f 16 15 301
f 15 14 301
f 301 14 299
f 14 13 299
f 299 13 12
f 364 273 346
f 273 272 346
f 346 272 347
f 272 378 347
f 347 378 348
f 378 409 348
f 348 409 354
f 409 407 354
f 354 407 355
f 407 405 355
f 355 405 356
f 405 403 356
f 356 403 352
f 403 401 352
f 352 401 350
f 401 399 350
f 350 399 305
f 399 397 305
f 305 397 306
f 397 395 306
f 306 395 302
f 395 393 302
f 302 393 308
f 393 391 308
f 308 391 345
f 391 389 345
f 345 389 418
f 389 388 418
f 418 388 419
f 388 321 419
f 419 321 323
f 321 322 323
f 323 322 324
f 420 421 422
f 423 20 424
f 20 11 424
f 423 424 425
f 424 426 425
f 425 426 427
f 427 426 428
f 426 429 428
f 428 429 430
f 430 429 431
f 429 432 431
f 431 432 433
f 433 432 434
f 432 435 434
f 434 435 436
f 436 435 437
f 435 422 437
f 437 422 438
f 438 422 439
f 422 421 439
f 439 421 440
f 11 10 411
f 11 411 424
f 411 412 424
f 424 412 426
f 412 413 426
f 413 414 426
f 426 414 429
f 414 415 429
f 429 415 432
f 415 416 432
f 432 416 417
f 417 331 432
f 331 330 432
f 432 330 435
f 330 332 435
f 435 332 422
f 337 441 336
f 441 420 336
f 336 420 335
f 420 422 335
f 335 422 334
f 422 332 334
f 436 437 442
f 443 444 445
f 438 439 446
f 447 448 449
f 450 451 452
f 260 286 453
f 454 455 456
f 457 458 459
f 458 460 459
f 460 461 459
f 461 462 459
f 459 462 456
f 462 463 456
f 456 463 454
f 464 465 466
f 465 467 466
f 290 287 468
f 287 261 468
f 468 261 469
f 291 465 292
f 465 464 292
f 292 464 298
f 451 470 452
f 470 471 452
f 452 471 472
f 471 473 472
f 474 475 476
f 475 477 476
f 476 477 478
f 477 447 478
f 478 447 479
f 447 449 479
f 450 480 451
f 480 481 451
f 451 481 470
f 481 482 470
f 475 473 477
f 473 471 477
f 477 471 447
f 471 470 447
f 447 470 448
f 470 482 448
f 448 482 483
f 449 34 33
f 449 33 479
f 33 32 479
f 479 32 31
f 484 485 486
f 484 486 487
f 488 489 490
f 489 487 490
f 490 487 491
f 487 486 491
f 492 493 427
f 494 493 495
f 427 493 425
f 493 494 425
f 425 494 24
f 24 23 425
f 23 22 425
f 425 22 423
f 22 20 423
f 492 484 493
f 484 487 493
f 493 487 495
f 487 489 495
f 495 489 496
f 489 488 496
f 496 488 474
f 445 444 497
f 444 446 497
f 497 446 498
f 446 439 498
f 498 439 440
f 445 499 443
f 499 500 443
f 443 500 501
f 500 502 501
f 501 502 503
f 434 504 433
f 504 505 433
f 433 505 431
f 506 507 503
f 507 508 503
f 503 508 509
f 510 511 512
f 511 513 512
f 512 513 457
f 513 514 457
f 457 514 458
f 508 510 509
f 510 512 509
f 509 512 515
f 512 457 515
f 515 457 516
f 457 459 516
f 516 459 517
f 459 518 517
f 517 518 519
f 518 455 519
f 519 455 520
f 455 521 520
f 520 521 522
f 521 523 522
f 522 523 524
f 523 525 524
f 524 525 467
f 525 526 467
f 467 526 466
f 434 436 504
f 436 442 504
f 504 442 505
f 442 527 505
f 505 527 528
f 527 529 528
f 528 529 530
f 529 531 530
f 530 531 532
f 531 533 532
f 532 533 534
f 533 535 534
f 534 535 536
f 535 537 536
f 536 537 538
f 537 539 538
f 538 539 540
f 539 541 540
f 540 541 542
f 541 543 542
f 542 543 544
f 543 545 544
f 544 545 546
f 545 547 546
f 546 547 548
f 547 549 548
f 548 549 469
f 549 550 469
f 469 550 468
f 291 290 465
f 290 468 465
f 465 468 467
f 468 550 467
f 467 550 524
f 550 549 524
f 524 549 522
f 549 547 522
f 522 547 520
f 547 545 520
f 520 545 519
f 545 543 519
f 519 543 517
f 543 541 517
f 517 541 516
f 541 539 516
f 516 539 515
f 539 537 515
f 515 537 509
f 537 535 509
f 509 535 503
f 535 533 503
f 503 533 501
f 533 531 501
f 501 531 443
f 531 529 443
f 443 529 444
f 529 527 444
f 444 527 446
f 527 442 446
f 446 442 438
f 442 437 438
f 37 36 449
f 36 35 449
f 449 35 34
f 482 280 483
f 280 281 483
f 483 281 448
f 281 282 448
f 448 282 449
f 282 279 449
f 449 279 37
f 279 278 37
f 37 278 38
f 453 286 480
f 286 285 480
f 480 285 481
f 285 284 481
f 481 284 482
f 284 283 482
f 482 283 280
f 31 30 479
f 30 29 479
f 479 29 28
f 27 26 494
f 26 25 494
f 494 25 24
f 474 476 496
f 476 478 496
f 496 478 495
f 478 479 495
f 495 479 494
f 479 28 494
f 494 28 27
f 261 260 469
f 260 453 469
f 469 453 548
f 453 480 548
f 548 480 546
f 480 450 546
f 546 450 544
f 450 452 544
f 544 452 542
f 452 472 542
f 542 472 540
f 472 473 540
f 540 473 538
f 473 475 538
f 538 475 536
f 475 474 536
f 536 474 534
f 474 488 534
f 534 488 532
f 488 490 532
f 532 490 530
f 490 491 530
f 530 491 528
f 491 486 528
f 528 486 505
f 486 485 505
f 505 485 431
f 485 484 431
f 431 484 430
f 484 492 430
f 430 492 428
f 492 427 428
f 551 552 553
f 554 555 556
f 59 43 557
f 558 559 556
f 559 560 556
f 556 560 557
f 560 561 557
f 557 561 59
f 562 563 564
f 563 565 564
f 564 565 566
f 566 565 567
f 565 568 567
f 567 568 569
f 569 568 570
f 568 553 570
f 570 553 571
f 571 553 572
f 553 552 572
f 572 552 573
f 554 556 574
f 556 557 574
f 574 557 575
f 557 43 575
f 575 43 56
f 555 576 556
f 576 563 556
f 556 563 558
f 563 562 558
f 576 577 563
f 577 578 563
f 563 578 565
f 578 579 565
f 565 579 580
f 580 581 565
f 581 582 565
f 565 582 568
f 582 583 568
f 568 583 553
f 584 585 586
f 585 551 586
f 586 551 587
f 551 553 587
f 587 553 588
f 553 583 588
f 569 570 589
f 590 591 592
f 571 572 593
f 594 595 596
f 597 598 599
f 600 601 602
f 603 604 605
f 604 606 605
f 606 607 605
f 607 608 605
f 605 608 609
f 610 611 612
f 611 613 612
f 614 615 616
f 615 617 616
f 616 617 618
f 617 619 618
f 618 619 613
f 619 620 613
f 613 620 612
f 621 622 623
f 622 624 623
f 623 624 625
f 626 611 627
f 611 610 627
f 627 610 628
f 598 629 599
f 629 630 599
f 599 630 631
f 630 632 631
f 633 634 635
f 634 636 635
f 635 636 637
f 636 594 637
f 637 594 638
f 594 596 638
f 597 639 598
f 639 640 598
f 598 640 629
f 640 641 629
f 634 632 636
f 632 630 636
f 636 630 594
f 630 629 594
f 594 629 595
f 629 641 595
f 595 641 642
f 596 73 72
f 596 72 638
f 72 71 638
f 638 71 70
f 643 644 645
f 643 645 646
f 647 648 649
f 648 646 649
f 649 646 650
f 646 645 650
f 651 652 559
f 653 652 654
f 559 652 560
f 652 653 560
f 560 653 63
f 63 62 560
f 62 61 560
f 560 61 561
f 61 59 561
f 651 643 652
f 643 646 652
f 652 646 654
f 646 648 654
f 654 648 655
f 648 647 655
f 655 647 633
f 592 591 656
f 591 593 656
f 656 593 657
f 593 572 657
f 657 572 573
f 592 658 590
f 658 659 590
f 590 659 660
f 659 661 660
f 660 661 662
f 567 663 566
f 663 664 566
f 566 664 564
f 661 665 662
f 665 666 662
f 662 666 667
f 668 669 670
f 669 671 670
f 670 671 603
f 671 672 603
f 603 672 604
f 666 668 667
f 668 670 667
f 667 670 673
f 670 603 673
f 673 603 674
f 603 605 674
f 674 605 675
f 605 609 675
f 675 609 676
f 609 677 676
f 676 677 614
f 677 678 614
f 614 678 615
f 567 569 663
f 569 589 663
f 663 589 664
f 589 679 664
f 664 679 680
f 679 681 680
f 680 681 682
f 681 683 682
f 682 683 684
f 683 685 684
f 684 685 686
f 685 687 686
f 686 687 688
f 687 689 688
f 688 689 690
f 689 691 690
f 690 691 692
f 691 693 692
f 692 693 694
f 693 695 694
f 694 695 696
f 695 697 696
f 696 697 698
f 697 699 698
f 698 699 700
f 699 701 700
f 700 701 625
f 701 702 625
f 625 702 623
f 626 621 611
f 621 623 611
f 611 623 613
f 623 702 613
f 613 702 618
f 702 701 618
f 618 701 616
f 701 699 616
f 616 699 614
f 699 697 614
f 614 697 676
f 697 695 676
f 676 695 675
f 695 693 675
f 675 693 674
f 693 691 674
f 674 691 673
f 691 689 673
f 673 689 667
f 689 687 667
f 667 687 662
f 687 685 662
f 662 685 660
f 685 683 660
f 660 683 590
f 683 681 590
f 590 681 591
f 681 679 591
f 591 679 593
f 679 589 593
f 593 589 571
f 589 570 571
f 76 75 596
f 75 74 596
f 596 74 73
f 602 601 639
f 601 703 639
f 639 703 640
f 703 704 640
f 640 704 641
f 704 705 641
f 641 705 642
f 705 706 642
f 642 706 595
f 706 707 595
f 595 707 596
f 707 708 596
f 596 708 76
f 708 709 76
f 76 709 77
f 70 69 638
f 69 68 638
f 638 68 67
f 66 65 653
f 65 64 653
f 653 64 63
f 633 635 655
f 635 637 655
f 655 637 654
f 637 638 654
f 654 638 653
f 638 67 653
f 653 67 66
f 624 600 625
f 600 602 625
f 625 602 700
f 602 639 700
f 700 639 698
f 639 597 698
f 698 597 696
f 597 599 696
f 696 599 710
f 599 631 710
f 710 631 692
f 631 632 692
f 692 632 690
f 632 634 690
f 690 634 688
f 634 633 688
f 688 633 686
f 633 647 686
f 686 647 684
f 647 649 684
f 684 649 682
f 649 650 682
f 682 650 680
f 650 645 680
f 680 645 664
f 645 644 664
f 664 644 564
f 644 643 564
f 564 643 562
f 643 651 562
f 562 651 558
f 651 559 558
f 711 41 712
f 41 78 712
f 711 712 713
f 712 714 713
f 713 714 715
f 715 714 716
f 714 717 716
f 716 717 718
f 719 720 717
f 720 721 717
f 717 721 718
f 722 723 724
f 723 725 724
f 724 725 726
f 78 77 709
f 78 709 712
f 709 708 712
f 712 708 714
f 705 717 706
f 717 714 706
f 706 714 707
f 714 708 707
f 705 704 717
f 704 726 717
f 717 726 719
f 726 725 719
f 704 703 726
f 703 601 726
f 726 601 724
f 601 600 724
f 724 600 624
f 624 622 724
f 622 727 724
f 724 727 722
f 727 728 722
f 622 621 727
f 621 626 727
f 727 626 627
f 729 730 731
f 730 728 731
f 731 728 732
f 728 727 732
f 732 727 733
f 727 627 733
f 733 627 628
f 723 722 734
f 735 736 737
f 738 739 740
f 740 739 741
f 41 711 47
f 711 713 47
f 47 713 48
f 713 742 48
f 48 742 44
f 743 51 46
f 743 46 742
f 46 45 742
f 742 45 44
f 49 53 743
f 53 52 743
f 743 52 51
f 744 54 50
f 58 57 744
f 57 55 744
f 744 55 54
f 745 746 747
f 746 748 747
f 745 747 749
f 747 750 749
f 749 750 751
f 746 752 748
f 752 753 748
f 748 753 754
f 753 755 754
f 754 755 756
f 755 757 756
f 758 759 760
f 760 761 762
f 761 763 762
f 764 582 581
f 760 762 758
f 762 765 758
f 758 765 766
f 765 764 766
f 766 764 767
f 764 581 767
f 767 581 741
f 582 764 583
f 764 765 583
f 583 765 588
f 588 765 587
f 765 762 587
f 587 762 586
f 762 763 586
f 586 763 584
f 768 769 770
f 769 771 770
f 772 770 738
f 770 771 738
f 738 771 739
f 771 773 739
f 739 773 741
f 740 735 738
f 735 737 738
f 738 737 772
f 737 744 772
f 772 744 743
f 744 50 743
f 743 50 49
f 736 555 737
f 555 554 737
f 737 554 744
f 554 574 744
f 744 574 58
f 574 575 58
f 58 575 56
f 774 718 775
f 719 776 720
f 776 777 720
f 720 777 775
f 775 777 774
f 777 778 774
f 774 778 779
f 780 781 782
f 781 783 782
f 784 785 783
f 785 786 783
f 783 786 782
f 778 784 779
f 784 783 779
f 779 783 787
f 783 781 787
f 787 781 788
f 716 789 715
f 789 790 715
f 768 770 791
f 770 772 791
f 791 772 792
f 772 743 792
f 792 743 793
f 743 742 793
f 793 742 790
f 742 713 790
f 790 713 715
f 780 768 781
f 768 791 781
f 781 791 788
f 791 792 788
f 788 792 787
f 792 793 787
f 787 793 779
f 793 790 779
f 779 790 774
f 790 789 774
f 774 789 718
f 789 716 718
f 729 794 730
f 794 795 730
f 730 795 728
f 794 796 795
f 796 797 795
f 795 797 798
f 797 799 798
f 798 799 800
f 799 801 800
f 801 802 800
f 800 802 803
f 802 804 803
f 803 804 805
f 804 806 805
f 806 807 805
f 805 807 808
f 807 809 808
f 808 809 810
f 809 811 810
f 811 812 810
f 812 813 810
f 810 813 814
f 813 815 814
f 814 815 750
f 815 816 750
f 750 816 751
f 817 818 819
f 818 820 819
f 819 820 821
f 820 822 821
f 821 822 823
f 822 824 823
f 823 824 825
f 824 826 825
f 825 826 827
f 826 828 827
f 827 828 829
f 828 830 829
f 829 830 831
f 830 832 831
f 831 832 833
f 832 834 833
f 833 834 835
f 834 836 835
f 835 836 837
f 836 838 837
f 837 838 839
f 838 840 839
f 839 840 734
f 840 841 734
f 734 841 723
f 841 725 723
f 756 817 754
f 817 819 754
f 754 819 748
f 819 821 748
f 748 821 747
f 821 823 747
f 747 823 750
f 823 825 750
f 750 825 814
f 825 827 814
f 814 827 810
f 827 829 810
f 810 829 808
f 829 831 808
f 808 831 805
f 831 833 805
f 805 833 803
f 833 835 803
f 803 835 800
f 835 837 800
f 800 837 798
f 837 839 798
f 798 839 795
f 839 734 795
f 795 734 728
f 734 722 728
f 581 580 741
f 580 579 741
f 741 579 740
f 579 578 740
f 740 578 735
f 578 577 735
f 735 577 736
f 577 576 736
f 736 576 555
f 719 725 776
f 725 841 776
f 776 841 777
f 841 840 777
f 777 840 778
f 840 838 778
f 778 838 784
f 838 836 784
f 784 836 785
f 836 834 785
f 785 834 786
f 834 832 786
f 786 832 782
f 832 830 782
f 782 830 780
f 830 828 780
f 780 828 768
f 828 826 768
f 768 826 769
f 826 824 769
f 769 824 771
f 824 822 771
f 771 822 773
f 822 820 773
f 773 820 741
f 820 818 741
f 741 818 767
f 818 817 767
f 767 817 766
f 817 756 766
f 766 756 758
f 756 757 758
f 758 757 759
f 842 843 844
f 845 103 846
f 103 102 846
f 845 846 847
f 846 848 847
f 847 848 849
f 849 848 850
f 848 851 850
f 850 851 852
f 853 854 851
f 854 855 851
f 851 855 852
f 856 857 858
f 857 859 858
f 858 859 860
f 102 115 861
f 102 861 846
f 861 862 846
f 846 862 848
f 863 851 864
f 851 848 864
f 864 848 865
f 848 862 865
f 863 866 851
f 866 860 851
f 851 860 853
f 860 859 853
f 866 867 860
f 867 868 860
f 860 868 858
f 868 869 858
f 858 869 870
f 870 871 858
f 871 844 858
f 858 844 856
f 844 843 856
f 871 872 844
f 872 873 844
f 844 873 874
f 875 842 876
f 842 844 876
f 876 844 877
f 844 874 877
f 877 874 878
f 857 856 879
f 880 881 882
f 843 842 883
f 884 885 886
f 887 888 889
f 889 888 890
f 83 89 891
f 85 80 892
f 80 79 892
f 892 79 847
f 79 82 847
f 847 82 845
f 82 103 845
f 89 88 891
f 88 87 891
f 891 87 892
f 87 86 892
f 892 86 85
f 893 90 84
f 93 92 893
f 92 91 893
f 893 91 90
f 894 895 896
f 897 898 899
f 898 900 899
f 899 900 896
f 900 901 896
f 896 901 894
f 894 902 895
f 902 903 895
f 895 903 904
f 903 905 904
f 904 905 906
f 905 907 906
f 908 909 910
f 911 912 913
f 912 911 914
f 911 915 914
f 914 915 916
f 916 915 917
f 915 918 917
f 917 918 919
f 918 920 919
f 919 920 921
f 922 923 924
f 923 925 924
f 926 924 887
f 924 925 887
f 887 925 888
f 925 927 888
f 888 927 890
f 928 929 889
f 929 884 889
f 889 884 887
f 884 886 887
f 887 886 926
f 886 893 926
f 926 893 891
f 893 84 891
f 891 84 83
f 929 930 884
f 930 931 884
f 884 931 885
f 931 932 885
f 885 932 886
f 932 933 886
f 886 933 893
f 933 934 893
f 893 934 93
f 934 935 93
f 93 935 94
f 936 852 855
f 853 937 854
f 937 938 854
f 854 938 855
f 855 938 936
f 938 939 936
f 936 939 940
f 941 942 943
f 942 944 943
f 945 946 944
f 946 947 944
f 944 947 943
f 939 945 940
f 945 944 940
f 940 944 948
f 944 942 948
f 948 942 949
f 850 950 849
f 950 951 849
f 922 924 952
f 924 926 952
f 952 926 953
f 926 891 953
f 953 891 954
f 891 892 954
f 954 892 951
f 892 847 951
f 951 847 849
f 941 922 942
f 922 952 942
f 942 952 949
f 952 953 949
f 949 953 948
f 953 954 948
f 948 954 940
f 954 951 940
f 940 951 936
f 951 950 936
f 936 950 852
f 950 850 852
f 882 881 955
f 881 883 955
f 955 883 956
f 883 842 956
f 956 842 875
f 882 957 880
f 957 958 880
f 880 958 959
f 958 960 959
f 959 960 961
f 960 962 963
f 962 964 963
f 963 964 965
f 964 966 965
f 965 966 967
f 966 968 967
f 968 969 967
f 969 970 967
f 967 970 971
f 970 972 971
f 971 972 899
f 972 973 899
f 899 973 897
f 974 975 976
f 975 977 976
f 976 977 978
f 977 979 978
f 978 979 980
f 979 981 980
f 980 981 982
f 981 983 982
f 982 983 984
f 983 985 984
f 984 985 986
f 985 987 986
f 986 987 988
f 987 989 988
f 988 989 990
f 989 991 990
f 990 991 992
f 991 993 992
f 992 993 994
f 993 995 994
f 994 995 996
f 995 997 996
f 996 997 879
f 997 998 879
f 879 998 857
f 998 859 857
f 906 974 904
f 974 976 904
f 904 976 895
f 976 978 895
f 895 978 896
f 978 980 896
f 896 980 899
f 980 982 899
f 899 982 971
f 982 984 971
f 971 984 967
f 984 986 967
f 967 986 965
f 986 988 965
f 965 988 963
f 988 990 963
f 963 990 959
f 990 992 959
f 959 992 880
f 992 994 880
f 880 994 881
f 994 996 881
f 881 996 883
f 996 879 883
f 883 879 843
f 879 856 843
f 928 889 999
f 889 890 999
f 999 890 913
f 890 1000 913
f 913 1000 911
f 1000 1001 911
f 911 1001 915
f 1001 908 915
f 915 908 918
f 908 910 918
f 918 910 920
f 853 859 937
f 859 998 937
f 937 998 938
f 998 997 938
f 938 997 939
f 997 995 939
f 939 995 945
f 995 993 945
f 945 993 946
f 993 991 946
f 946 991 947
f 991 989 947
f 947 989 943
f 989 987 943
f 943 987 941
f 987 985 941
f 941 985 922
f 985 983 922
f 922 983 923
f 983 981 923
f 923 981 925
f 981 979 925
f 925 979 927
f 979 977 927
f 927 977 890
f 977 975 890
f 890 975 1000
f 975 974 1000
f 1000 974 1001
f 974 906 1001
f 1001 906 908
f 906 907 908
f 908 907 909
f 97 95 1002
f 1003 1004 1002
f 1004 1005 1002
f 1002 1005 97
f 1006 1007 1008
f 1007 1009 1008
f 1008 1009 1003
f 1009 1010 1003
f 1003 1010 1004
f 1011 1012 1013
f 1012 1014 1013
f 1015 1016 1017
f 1016 1018 1017
f 1017 1018 1014
f 1018 1019 1014
f 1014 1019 1013
f 933 1003 934
f 1003 1002 934
f 934 1002 935
f 1002 95 935
f 935 95 94
f 933 932 1003
f 932 931 1003
f 1003 931 1008
f 931 930 1008
f 1008 930 929
f 928 999 1012
f 929 928 1008
f 928 1012 1008
f 1008 1012 1006
f 1012 1011 1006
f 999 913 1012
f 913 912 1012
f 1012 912 1014
f 912 914 1014
f 1014 914 1017
f 914 916 1017
f 1017 916 917
f 919 921 1020
f 1021 1015 1022
f 1015 1017 1022
f 1022 1017 1020
f 1017 917 1020
f 1020 917 919
f 106 101 1023
f 1019 1018 1024
f 1025 1026 1027
f 1016 1015 1028
f 1029 1030 1031
f 1032 1033 1031
f 104 110 1034
f 1035 1036 1037
f 1038 1039 1040
f 869 868 1041
f 1040 1039 1042
f 1043 1044 1045
f 1046 1047 1048
f 1047 1049 1048
f 1048 1049 1045
f 1049 1050 1045
f 1045 1050 1043
f 1051 1052 1053
f 1052 1054 1053
f 1055 1056 1057
f 1056 1058 1057
f 1057 1058 1059
f 1058 1060 1059
f 1059 1060 1054
f 1060 1061 1054
f 1054 1061 1053
f 872 871 1062
f 871 870 1062
f 1062 870 1063
f 873 1052 874
f 1052 1051 874
f 874 1051 878
f 1064 1065 1066
f 1065 1067 1066
f 1068 1066 1038
f 1066 1067 1038
f 1038 1067 1039
f 1067 1069 1039
f 1039 1069 1042
f 1070 111 105
f 1040 1035 1038
f 1035 1037 1038
f 1038 1037 1068
f 1037 1070 1068
f 1068 1070 1034
f 1070 105 1034
f 1034 105 104
f 1071 1072 1032
f 1073 1074 1075
f 1074 1076 1075
f 1075 1076 1077
f 1076 1078 1077
f 1077 1078 1079
f 1032 1031 1071
f 1031 1030 1071
f 1071 1030 1080
f 1064 1066 1081
f 1066 1068 1081
f 1081 1068 1082
f 1068 1034 1082
f 1082 1034 1029
f 1034 1023 1029
f 1029 1023 1030
f 101 100 1023
f 100 1004 1023
f 1023 1004 1030
f 1004 1010 1030
f 1030 1010 1080
f 100 99 1004
f 99 98 1004
f 1004 98 1005
f 98 97 1005
f 1033 1079 1031
f 1079 1078 1031
f 1031 1078 1029
f 1078 1076 1029
f 1029 1076 1082
f 1076 1074 1082
f 1082 1074 1081
f 1074 1073 1081
f 1081 1073 1064
f 1027 1026 1083
f 1026 1028 1083
f 1083 1028 1084
f 1028 1015 1084
f 1084 1015 1021
f 1027 1085 1025
f 1085 1086 1025
f 1025 1086 1087
f 1086 1088 1087
f 1087 1088 1089
f 1013 1090 1011
f 1090 1091 1011
f 1011 1091 1006
f 1088 1092 1089
f 1092 1093 1089
f 1089 1093 1094
f 1095 1096 1097
f 1096 1098 1097
f 1097 1098 1048
f 1098 1099 1048
f 1048 1099 1046
f 1093 1095 1094
f 1095 1097 1094
f 1094 1097 1100
f 1097 1048 1100
f 1100 1048 1101
f 1048 1045 1101
f 1101 1045 1102
f 1045 1044 1102
f 1102 1044 1103
f 1044 1104 1103
f 1103 1104 1055
f 1104 1105 1055
f 1055 1105 1056
f 1013 1019 1090
f 1019 1024 1090
f 1090 1024 1091
f 1024 1106 1091
f 1091 1106 1107
f 1106 1108 1107
f 1107 1108 1109
f 1108 1110 1109
f 1109 1110 1111
f 1110 1112 1111
f 1111 1112 1113
f 1112 1114 1113
f 1113 1114 1115
f 1114 1116 1115
f 1115 1116 1117
f 1116 1118 1117
f 1117 1118 1119
f 1118 1120 1119
f 1119 1120 1121
f 1120 1122 1121
f 1121 1122 1123
f 1122 1124 1123
f 1123 1124 1125
f 1124 1126 1125
f 1125 1126 1127
f 1126 1128 1127
f 1127 1128 1063
f 1128 1129 1063
f 1063 1129 1062
f 873 872 1052
f 872 1062 1052
f 1052 1062 1054
f 1062 1129 1054
f 1054 1129 1059
f 1129 1128 1059
f 1059 1128 1057
f 1128 1126 1057
f 1057 1126 1055
f 1126 1124 1055
f 1055 1124 1103
f 1124 1122 1103
f 1103 1122 1102
f 1122 1120 1102
f 1102 1120 1101
f 1120 1118 1101
f 1101 1118 1100
f 1118 1116 1100
f 1100 1116 1094
f 1116 1114 1094
f 1094 1114 1089
f 1114 1112 1089
f 1089 1112 1087
f 1112 1110 1087
f 1087 1110 1025
f 1110 1108 1025
f 1025 1108 1026
f 1108 1106 1026
f 1026 1106 1028
f 1106 1024 1028
f 1028 1024 1016
f 1024 1018 1016
f 114 113 1070
f 113 112 1070
f 1070 112 111
f 1041 868 1042
f 868 867 1042
f 1042 867 1040
f 867 866 1040
f 1040 866 1035
f 866 863 1035
f 1035 863 1036
f 863 864 1036
f 1036 864 1037
f 864 865 1037
f 1037 865 1070
f 865 862 1070
f 1070 862 114
f 862 861 114
f 114 861 115
f 110 109 1034
f 109 108 1034
f 1034 108 1023
f 108 107 1023
f 1023 107 106
f 870 869 1063
f 869 1041 1063
f 1063 1041 1127
f 1041 1042 1127
f 1127 1042 1125
f 1042 1069 1125
f 1125 1069 1123
f 1069 1067 1123
f 1123 1067 1121
f 1067 1065 1121
f 1121 1065 1119
f 1065 1064 1119
f 1119 1064 1117
f 1064 1073 1117
f 1117 1073 1115
f 1073 1075 1115
f 1115 1075 1113
f 1075 1077 1113
f 1113 1077 1111
f 1077 1079 1111
f 1111 1079 1109
f 1079 1033 1109
f 1109 1033 1107
f 1033 1032 1107
f 1107 1032 1091
f 1032 1072 1091
f 1091 1072 1006
f 1072 1071 1006
f 1006 1071 1007
f 1071 1080 1007
f 1007 1080 1009
f 1080 1010 1009
f 1130 1131 1132
f 146 120 1133
f 1134 1135 1136
f 1135 1137 1136
f 1136 1137 1133
f 1137 1138 1133
f 1133 1138 146
f 1130 1132 1139
f 1140 1141 1142
f 1141 1143 1142
f 1144 1145 1146
f 1145 1147 1146
f 1146 1147 1143
f 1147 1148 1143
f 1143 1148 1142
f 1149 1136 1150
f 1136 1133 1150
f 1150 1133 1151
f 1133 120 1151
f 1151 120 131
f 1149 1152 1136
f 1152 1132 1136
f 1136 1132 1134
f 1132 1131 1134
f 1152 1153 1132
f 1153 1154 1132
f 1132 1154 1155
f 1156 1157 1141
f 1155 1156 1132
f 1156 1141 1132
f 1132 1141 1139
f 1141 1140 1139
f 1157 1158 1141
f 1158 1159 1141
f 1141 1159 1143
f 1159 1160 1143
f 1143 1160 1146
f 1160 1161 1146
f 1161 1162 1146
f 1146 1162 1163
f 1164 1144 1165
f 1144 1146 1165
f 1165 1146 1166
f 1146 1163 1166
f 1166 1163 1167
f 141 138 1168
f 1148 1147 1169
f 1170 1171 1172
f 1145 1144 1173
f 1174 1175 1176
f 139 145 1177
f 1178 1179 1180
f 1181 1182 1183
f 1184 1185 1186
f 1183 1182 1187
f 1188 1189 1190
f 1191 1192 1193
f 1192 1194 1193
f 1195 1196 1197
f 1196 1198 1197
f 1197 1198 1199
f 1198 1200 1199
f 1199 1200 1194
f 1200 1201 1194
f 1194 1201 1193
f 1202 1203 1204
f 1203 1205 1204
f 1204 1205 1206
f 1207 1192 1208
f 1192 1191 1208
f 1208 1191 1209
f 1210 1211 1212
f 1211 1213 1212
f 1214 1212 1181
f 1212 1213 1181
f 1181 1213 1182
f 1213 1215 1182
f 1182 1215 1187
f 1216 150 140
f 1183 1178 1181
f 1178 1180 1181
f 1181 1180 1214
f 1180 1216 1214
f 1214 1216 1177
f 1216 140 1177
f 1177 140 139
f 1217 1176 1218
f 1176 1219 1218
f 1218 1219 1220
f 1221 1222 1223
f 1222 1224 1223
f 1223 1224 1225
f 1224 1226 1225
f 1225 1226 1227
f 1176 1175 1219
f 1175 1228 1219
f 1219 1228 1131
f 1210 1212 1229
f 1212 1214 1229
f 1229 1214 1230
f 1214 1177 1230
f 1230 1177 1174
f 1177 1168 1174
f 1174 1168 1175
f 138 137 1168
f 137 1137 1168
f 1168 1137 1175
f 1137 1135 1175
f 1175 1135 1228
f 1135 1134 1228
f 1228 1134 1131
f 137 135 1137
f 135 134 1137
f 1137 134 1138
f 134 146 1138
f 1217 1227 1176
f 1227 1226 1176
f 1176 1226 1174
f 1226 1224 1174
f 1174 1224 1230
f 1224 1222 1230
f 1230 1222 1229
f 1222 1221 1229
f 1229 1221 1210
f 1172 1171 1231
f 1171 1173 1231
f 1231 1173 1232
f 1173 1144 1232
f 1232 1144 1164
f 1172 1233 1170
f 1233 1234 1170
f 1170 1234 1235
f 1234 1236 1235
f 1235 1236 1237
f 1142 1238 1140
f 1238 1239 1140
f 1140 1239 1139
f 1236 1240 1237
f 1240 1241 1237
f 1237 1241 1242
f 1243 1244 1245
f 1244 1246 1245
f 1245 1246 1190
f 1246 1247 1190
f 1190 1247 1188
f 1248 1249 1243
f 1249 1250 1243
f 1243 1250 1244
f 1241 1248 1242
f 1248 1243 1242
f 1242 1243 1251
f 1243 1245 1251
f 1251 1245 1252
f 1245 1190 1252
f 1252 1190 1253
f 1190 1189 1253
f 1253 1189 1254
f 1189 1255 1254
f 1254 1255 1195
f 1255 1256 1195
f 1195 1256 1196
f 1142 1148 1238
f 1148 1169 1238
f 1238 1169 1239
f 1169 1257 1239
f 1239 1257 1258
f 1257 1259 1258
f 1258 1259 1260
f 1259 1261 1260
f 1260 1261 1262
f 1261 1263 1262
f 1262 1263 1264
f 1263 1265 1264
f 1264 1265 1266
f 1265 1267 1266
f 1266 1267 1268
f 1267 1269 1268
f 1268 1269 1270
f 1269 1271 1270
f 1270 1271 1272
f 1271 1273 1272
f 1272 1273 1274
f 1273 1275 1274
f 1274 1275 1276
f 1275 1277 1276
f 1276 1277 1278
f 1277 1279 1278
f 1278 1279 1206
f 1279 1280 1206
f 1206 1280 1204
f 1207 1202 1192
f 1202 1204 1192
f 1192 1204 1194
f 1204 1280 1194
f 1194 1280 1199
f 1280 1279 1199
f 1199 1279 1197
f 1279 1277 1197
f 1197 1277 1195
f 1277 1275 1195
f 1195 1275 1254
f 1275 1273 1254
f 1254 1273 1253
f 1273 1271 1253
f 1253 1271 1252
f 1271 1269 1252
f 1252 1269 1251
f 1269 1267 1251
f 1251 1267 1242
f 1267 1265 1242
f 1242 1265 1237
f 1265 1263 1237
f 1237 1263 1235
f 1263 1261 1235
f 1235 1261 1170
f 1261 1259 1170
f 1170 1259 1171
f 1259 1257 1171
f 1171 1257 1173
f 1257 1169 1173
f 1173 1169 1145
f 1169 1147 1145
f 153 152 1216
f 152 151 1216
f 1216 151 150
f 1186 1185 1187
f 1185 1281 1187
f 1187 1281 1183
f 1281 1282 1183
f 1183 1282 1178
f 1282 1283 1178
f 1178 1283 1179
f 1283 1284 1179
f 1179 1284 1180
f 1284 1285 1180
f 1180 1285 1216
f 1285 1286 1216
f 1216 1286 153
f 1286 1287 153
f 153 1287 154
f 145 144 1177
f 144 143 1177
f 1177 143 1168
f 143 142 1168
f 1168 142 141
f 1205 1184 1206
f 1184 1186 1206
f 1206 1186 1278
f 1186 1187 1278
f 1278 1187 1276
f 1187 1215 1276
f 1276 1215 1274
f 1215 1213 1274
f 1274 1213 1272
f 1213 1211 1272
f 1272 1211 1270
f 1211 1210 1270
f 1270 1210 1268
f 1210 1221 1268
f 1268 1221 1266
f 1221 1223 1266
f 1266 1223 1264
f 1223 1225 1264
f 1264 1225 1262
f 1225 1227 1262
f 1262 1227 1260
f 1227 1217 1260
f 1260 1217 1258
f 1217 1218 1258
f 1258 1218 1239
f 1218 1220 1239
f 1239 1220 1139
f 1220 1219 1139
f 1139 1219 1130
f 1219 1131 1130
f 1208 1209 1288
f 1282 1281 1289
f 1290 1291 1289
f 1292 1293 1294
f 148 147 1295
f 1296 1297 1295
f 1297 1298 1295
f 1295 1298 148
f 1293 1299 1294
f 1299 1300 1294
f 1294 1300 1296
f 1300 1301 1296
f 1296 1301 1297
f 1302 1303 1304
f 1303 1305 1304
f 1304 1305 1306
f 147 154 1287
f 147 1287 1295
f 1287 1286 1295
f 1295 1286 1296
f 1283 1294 1284
f 1294 1296 1284
f 1284 1296 1285
f 1296 1286 1285
f 1283 1282 1294
f 1282 1289 1294
f 1294 1289 1292
f 1289 1291 1292
f 1185 1184 1303
f 1281 1185 1289
f 1185 1303 1289
f 1289 1303 1290
f 1303 1302 1290
f 1184 1205 1303
f 1205 1203 1303
f 1303 1203 1305
f 1203 1202 1305
f 1305 1202 1207
f 1207 1208 1305
f 1208 1288 1305
f 1305 1288 1306
f 1288 1307 1306
f 1306 1307 1308
f 1307 1309 1308
f 121 119 1310
f 1291 1290 1311
f 1302 1304 1312
f 1306 1308 1313
f 1308 1309 1313
f 126 125 1314
f 1315 1316 1317
f 1318 1319 1320
f 1320 1319 1321
f 1322 1323 1324
f 1325 1326 1327
f 1324 1328 1322
f 1328 1329 1322
f 1322 1329 1327
f 1329 1330 1327
f 1327 1330 1325
f 1325 1331 1326
f 1331 1332 1326
f 1326 1332 1333
f 1332 1334 1333
f 1333 1334 1335
f 1334 1336 1335
f 1337 1338 1339
f 1340 1159 1158
f 1159 1340 1160
f 1340 1341 1160
f 1160 1341 1161
f 1161 1341 1162
f 1341 1342 1162
f 1162 1342 1163
f 1342 1343 1163
f 1163 1343 1167
f 1344 1345 1346
f 1345 1347 1346
f 1348 1346 1318
f 1346 1347 1318
f 1318 1347 1319
f 1347 1349 1319
f 1319 1349 1321
f 1156 1155 1320
f 1155 1315 1320
f 1320 1315 1318
f 1315 1317 1318
f 1318 1317 1348
f 1317 1350 1348
f 1348 1350 1314
f 1150 1350 1149
f 1350 1317 1149
f 1149 1317 1152
f 1317 1316 1152
f 1152 1316 1153
f 1316 1315 1153
f 1153 1315 1154
f 1315 1155 1154
f 130 129 1350
f 129 128 1350
f 1350 128 1314
f 128 127 1314
f 1314 127 126
f 1292 1351 1293
f 1351 1352 1293
f 1293 1352 1299
f 1299 1352 1353
f 1352 1354 1353
f 1353 1354 1355
f 1356 1357 1358
f 1357 1359 1358
f 1360 1361 1359
f 1361 1362 1359
f 1359 1362 1358
f 1354 1360 1355
f 1360 1359 1355
f 1355 1359 1363
f 1359 1357 1363
f 1363 1357 1364
f 1300 1365 1301
f 1365 1366 1301
f 1344 1346 1367
f 1346 1348 1367
f 1367 1348 1368
f 1348 1314 1368
f 1368 1314 1369
f 1314 1310 1369
f 1369 1310 1366
f 1310 1297 1366
f 1366 1297 1301
f 119 117 1310
f 117 116 1310
f 1310 116 1297
f 116 149 1297
f 1297 149 1298
f 149 148 1298
f 1356 1344 1357
f 1344 1367 1357
f 1357 1367 1364
f 1367 1368 1364
f 1364 1368 1363
f 1368 1369 1363
f 1363 1369 1355
f 1369 1366 1355
f 1355 1366 1353
f 1366 1365 1353
f 1353 1365 1299
f 1365 1300 1299
f 1309 1370 1313
f 1370 1371 1313
f 1313 1371 1372
f 1371 1373 1372
f 1372 1373 1374
f 1373 1375 1374
f 1375 1376 1374
f 1374 1376 1377
f 1376 1378 1377
f 1377 1378 1379
f 1378 1380 1379
f 1380 1381 1379
f 1379 1381 1382
f 1381 1383 1382
f 1382 1383 1384
f 1383 1385 1384
f 1384 1385 1323
f 1385 1386 1323
f 1323 1386 1324
f 1387 1388 1389
f 1388 1390 1389
f 1389 1390 1391
f 1390 1392 1391
f 1391 1392 1393
f 1392 1394 1393
f 1393 1394 1395
f 1394 1396 1395
f 1395 1396 1397
f 1396 1398 1397
f 1397 1398 1399
f 1398 1400 1399
f 1399 1400 1401
f 1400 1402 1401
f 1401 1402 1403
f 1402 1404 1403
f 1403 1404 1405
f 1404 1406 1405
f 1405 1406 1407
f 1406 1408 1407
f 1407 1408 1409
f 1408 1410 1409
f 1409 1410 1312
f 1410 1311 1312
f 1312 1311 1302
f 1311 1290 1302
f 1335 1387 1333
f 1387 1389 1333
f 1333 1389 1326
f 1389 1391 1326
f 1326 1391 1327
f 1391 1393 1327
f 1327 1393 1322
f 1393 1395 1322
f 1322 1395 1323
f 1395 1397 1323
f 1323 1397 1384
f 1397 1399 1384
f 1384 1399 1382
f 1399 1401 1382
f 1382 1401 1379
f 1401 1403 1379
f 1379 1403 1377
f 1403 1405 1377
f 1377 1405 1374
f 1405 1407 1374
f 1374 1407 1372
f 1407 1409 1372
f 1372 1409 1313
f 1409 1312 1313
f 1313 1312 1306
f 1312 1304 1306
f 131 133 1151
f 133 1150 1151
f 1150 133 1350
f 133 132 1350
f 1350 132 130
f 1156 1320 1157
f 1320 1321 1157
f 1157 1321 1158
f 1321 1411 1158
f 1158 1411 1340
f 1411 1412 1340
f 1340 1412 1341
f 1412 1337 1341
f 1341 1337 1342
f 1337 1339 1342
f 1342 1339 1343
f 125 124 1314
f 124 123 1314
f 1314 123 1310
f 123 122 1310
f 1310 122 121
f 1292 1291 1351
f 1291 1311 1351
f 1351 1311 1352
f 1311 1410 1352
f 1352 1410 1354
f 1410 1408 1354
f 1354 1408 1360
f 1408 1406 1360
f 1360 1406 1361
f 1406 1404 1361
f 1361 1404 1362
f 1404 1402 1362
f 1362 1402 1358
f 1402 1400 1358
f 1358 1400 1356
f 1400 1398 1356
f 1356 1398 1344
f 1398 1396 1344
f 1344 1396 1345
f 1396 1394 1345
f 1345 1394 1347
f 1394 1392 1347
f 1347 1392 1349
f 1392 1390 1349
f 1349 1390 1321
f 1390 1388 1321
f 1321 1388 1411
f 1388 1387 1411
f 1411 1387 1412
f 1387 1335 1412
f 1412 1335 1337
f 1335 1336 1337
f 1337 1336 1338

