# https://github.com/mikedh/trimesh

o FR3_Version2_Link0_7-mesh
v 0.00066210 0.07668589 0.00814953
v 0.00066811 0.07674154 0.00814845
v 0.00041928 0.07649054 0.00815718
v 0.00023178 0.08836390 0.00795317
v 0.00062641 0.08599006 0.00798772
v 0.00119136 0.08599242 0.00797782
v -0.00057340 0.08598500 0.00800875
v -0.00004919 0.08847841 0.00795608
v -0.00010918 0.08845335 0.00795756
v -0.00034534 0.07649583 0.00817043
v -0.00028060 0.07648758 0.00816945
v -0.00053169 0.07673649 0.00816949
v 0.00013994 0.08845440 0.00795319
v 0.00019180 0.08841517 0.00795297
v 0.00007973 0.08847893 0.00795382
v 0.00001523 0.08848713 0.00795480
v -0.00016067 0.08841369 0.00795915
v -0.00020019 0.08836207 0.00796074
v -0.00113835 0.08598262 0.00801866
v -0.00049764 0.07661165 0.00817107
v -0.00045768 0.07656005 0.00817127
v -0.00040573 0.07652054 0.00817106
v 0.00124908 0.08599942 0.00797669
v 0.00142912 0.08631591 0.00796802
v 0.00140565 0.08636911 0.00796750
v -0.00135603 0.08635749 0.00801591
v -0.00137902 0.08630410 0.00801725
v -0.00138904 0.08624682 0.00801842
v -0.00138556 0.08618879 0.00801937
v -0.00136876 0.08613311 0.00802005
v -0.00133956 0.08608282 0.00802042
v -0.00129953 0.08604065 0.00802046
v -0.00125085 0.08600885 0.00802016
v -0.00119613 0.08598916 0.00801955
v 0.00057488 0.07654571 0.00815350
v 0.00061428 0.07658546 0.00815212
v 0.00052762 0.07651574 0.00815485
v 0.00047488 0.07649704 0.00815609
v 0.00064385 0.07663298 0.00815077
v -0.00052288 0.07667183 0.00817046
v 0.00130362 0.08601958 0.00797539
v 0.00135202 0.08605178 0.00797398
v 0.00139166 0.08609431 0.00797255
v 0.00142041 0.08614484 0.00797116
v 0.00143670 0.08620066 0.00796990
v 0.00143966 0.08625872 0.00796884
v 0.00465618 0.08105735 0.00800350
v 0.00678069 0.08064389 0.00797363
v 0.00654491 0.08085920 0.00797399
v 0.00265742 0.08054281 0.00804737
v 0.00265095 0.08048514 0.00804849
v 0.00280087 0.08071531 0.00804185
v 0.00264078 0.08273948 0.00800931
v 0.00264744 0.08268328 0.00801018
v 0.00273774 0.08254290 0.00801105
v 0.00266657 0.08263000 0.00801077
v 0.00269719 0.08258240 0.00801107
v 0.00298763 0.08360409 0.00798816
v 0.00263792 0.08337387 0.00799829
v 0.00304088 0.08357255 0.00798778
v 0.00292826 0.08362159 0.00798889
v 0.00286642 0.08362397 0.00798993
v 0.00264530 0.08343532 0.00799708
v 0.00266216 0.07971281 0.00806178
v 0.00268513 0.07965504 0.00806238
v 0.00272164 0.07960472 0.00806262
v 0.00593290 0.08006872 0.00799847
v 0.00294863 0.07952954 0.00805998
v 0.00265415 0.07977446 0.00806084
v 0.00288656 0.07952616 0.00806112
v 0.00282557 0.07953823 0.00806197
v 0.00275074 0.08068608 0.00804324
v 0.00270870 0.08064605 0.00804467
v 0.00267703 0.08059743 0.00804607
v 0.00276944 0.07956496 0.00806248
v 0.00620254 0.07894065 0.00801346
v 0.00666547 0.07874646 0.00800877
v 0.00699750 0.07889286 0.00800042
v 0.00672109 0.07873041 0.00800808
v 0.00697186 0.07884096 0.00800177
v 0.00280589 0.08361110 0.00799121
v 0.00275039 0.08358372 0.00799266
v 0.00266756 0.08349308 0.00799569
v 0.00270332 0.08354358 0.00799418
v 0.00683583 0.07873810 0.00800594
v 0.00688879 0.07876146 0.00800461
v 0.00693496 0.07879636 0.00800319
v 0.00607591 0.07905880 0.00801361
v 0.00610835 0.07900975 0.00801390
v 0.00605582 0.07911409 0.00801299
v 0.00604921 0.07917250 0.00801209
v 0.00615135 0.07896962 0.00801385
v 0.00605642 0.07923086 0.00801094
v 0.00608430 0.07935743 0.00800825
v 0.00714149 0.07947792 0.00798769
v 0.00611259 0.07959304 0.00800364
v 0.00714376 0.07986425 0.00798091
v 0.00609942 0.07978341 0.00800055
v 0.00710555 0.08006470 0.00797807
v 0.00606015 0.07990789 0.00799906
v 0.00698994 0.08035341 0.00797505
v 0.00600966 0.07999189 0.00799847
v 0.00285639 0.08073217 0.00804059
v 0.00677891 0.07872757 0.00800712
f 1 2 3
f 4 5 6
f 7 8 9
f 10 11 12
f 13 7 14
f 7 4 14
f 13 15 7
f 15 16 7
f 7 16 8
f 9 17 7
f 17 18 7
f 7 18 19
f 20 21 22
f 4 7 5
f 7 12 5
f 5 12 2
f 12 11 2
f 2 11 3
f 23 24 6
f 24 25 6
f 6 25 4
f 18 26 19
f 26 27 19
f 19 27 28
f 28 29 19
f 29 30 19
f 19 30 31
f 31 32 19
f 32 33 19
f 19 33 34
f 35 36 37
f 36 38 37
f 38 36 3
f 36 39 3
f 3 39 1
f 10 12 22
f 12 40 22
f 22 40 20
f 23 41 24
f 41 42 24
f 24 42 43
f 44 45 43
f 45 46 43
f 43 46 24
f 47 48 49
f 50 51 52
f 53 54 55
f 54 56 55
f 55 56 57
f 58 59 60
f 59 53 60
f 60 53 49
f 53 55 49
f 49 55 47
f 58 61 59
f 61 62 59
f 59 62 63
f 64 65 66
f 67 51 68
f 51 69 68
f 68 69 70
f 69 71 70
f 52 72 50
f 72 73 50
f 50 73 74
f 64 66 69
f 66 75 69
f 69 75 71
f 76 77 78
f 77 79 78
f 78 79 80
f 62 81 63
f 81 82 63
f 63 82 83
f 82 84 83
f 85 86 87
f 88 89 90
f 89 91 90
f 89 92 91
f 92 76 91
f 91 76 93
f 76 78 93
f 93 78 94
f 78 95 94
f 94 95 96
f 95 97 96
f 96 97 98
f 97 99 98
f 98 99 100
f 99 101 100
f 100 101 102
f 101 48 102
f 102 48 67
f 48 47 67
f 67 47 51
f 47 103 51
f 51 103 52
f 80 79 87
f 79 104 87
f 87 104 85

