# https://github.com/mikedh/trimesh

o FR3_Version2_Link5-mesh
v 0.05450000 -0.00096718 -0.24812481
v 0.05450000 -0.00101645 -0.24815821
v 0.05450000 -0.00019899 -0.24909681
v 0.05450000 -0.00105639 -0.24820240
v 0.05450000 0.00110000 -0.24809681
v 0.05450000 -0.00085225 -0.24809681
v 0.05450000 0.00135000 -0.24834681
v 0.05450000 0.00110000 -0.24909681
v 0.05450000 0.00135000 -0.24884681
v 0.05450000 0.00115563 -0.24909051
v 0.05450000 -0.00134859 -0.25016162
v 0.05450000 -0.00133480 -0.25022091
v 0.05450000 -0.00025971 -0.24953511
v 0.05450000 -0.00091139 -0.24810382
v 0.05450000 -0.00004041 -0.25038511
v 0.05450000 0.00021941 -0.24955021
v 0.05450000 0.00001173 -0.25038601
v 0.05450000 0.00055140 -0.24959532
v 0.05450000 -0.00108474 -0.24825482
v 0.05450000 -0.00109988 -0.24831240
v 0.05450000 -0.00134764 -0.25010081
v 0.05450000 -0.00130710 -0.25027511
v 0.05450000 -0.00126713 -0.25032101
v 0.05450000 -0.00121724 -0.25035591
v 0.05450000 0.00125587 -0.24904222
v 0.05450000 0.00129546 -0.24900261
v 0.05450000 0.00132524 -0.24895521
v 0.05450000 -0.00116041 -0.25037771
v 0.05450000 -0.00110000 -0.25038511
v 0.05450000 -0.00140138 -0.25101822
v 0.05450000 -0.00158260 -0.25147831
v 0.05450000 -0.00137660 -0.25184901
v 0.05450000 0.00120847 -0.24907202
v 0.05450000 0.00134373 -0.24890242
v 0.05450000 0.00131651 -0.24822181
v 0.05450000 0.00127678 -0.24817001
v 0.05450000 0.00122500 -0.24813022
v 0.05450000 0.00134148 -0.24828212
v 0.05450000 0.00116471 -0.24810531
v 0.05450000 0.00021651 -0.25041421
v 0.05450000 0.00032080 -0.25045572
v 0.05450000 0.00093436 -0.24973011
v 0.05450000 0.00035633 -0.25047851
v 0.05450000 0.00119424 -0.24989761
v 0.05450000 0.00040418 -0.25052311
v 0.05450000 0.00138648 -0.25010182
v 0.05450000 0.00043668 -0.25057261
v 0.05450000 0.00151789 -0.25034152
v 0.05450000 0.00045787 -0.25063202
v 0.05450000 0.00158726 -0.25060720
v 0.05450000 0.00046640 -0.25071042
v 0.05450000 0.00160000 -0.25082241
v 0.05450000 0.00046212 -0.25076741
v 0.05450000 0.00156124 -0.25110922
v 0.05450000 0.00044067 -0.25084372
v 0.05450000 -0.00149170 -0.25177581
v 0.05450000 -0.00159714 -0.25153221
v 0.05450000 -0.00159934 -0.25158801
v 0.05450000 -0.00114337 -0.25086111
v 0.05450000 -0.00120803 -0.25086291
v 0.05450000 -0.00108041 -0.25087591
v 0.05450000 -0.00127006 -0.25088131
v 0.05450000 -0.00132531 -0.25091491
v 0.05450000 -0.00137008 -0.25096161
v 0.05450000 -0.00102338 -0.25089781
v 0.05450000 -0.00060101 -0.25104101
v 0.05450000 -0.00102094 -0.25199472
v 0.05450000 -0.00011503 -0.25109681
v 0.05450000 -0.00011503 -0.25209681
v 0.05450000 0.00011493 -0.25107351
v 0.05450000 0.00031182 -0.25207312
v 0.05450000 0.00025205 -0.25102751
v 0.05450000 0.00073554 -0.25196971
v 0.05450000 0.00034971 -0.25096562
v 0.05450000 0.00105021 -0.25181221
v 0.05450000 0.00040449 -0.25090731
v 0.05450000 0.00128803 -0.25161081
v 0.05450000 0.00146163 -0.25136601
v 0.05450000 -0.00158909 -0.25164291
v 0.05450000 -0.00156691 -0.25169421
v 0.05450000 -0.00153389 -0.25173921
f 1 2 3
f 2 4 3
f 5 6 7
f 3 8 9
f 8 10 9
f 11 12 13
f 7 6 9
f 9 6 3
f 6 14 3
f 3 14 1
f 13 15 16
f 15 17 16
f 16 17 18
f 4 19 3
f 19 20 3
f 3 20 13
f 20 21 13
f 13 21 11
f 12 22 13
f 22 23 13
f 13 23 24
f 25 26 27
f 24 28 13
f 28 29 13
f 13 29 15
f 30 31 32
f 10 33 9
f 33 25 9
f 9 25 34
f 25 27 34
f 35 36 37
f 7 38 5
f 38 35 5
f 5 35 39
f 35 37 39
f 17 40 18
f 40 41 18
f 18 41 42
f 41 43 42
f 42 43 44
f 43 45 44
f 44 45 46
f 45 47 46
f 46 47 48
f 47 49 48
f 48 49 50
f 49 51 50
f 50 51 52
f 51 53 52
f 52 53 54
f 53 55 54
f 32 31 56
f 31 57 56
f 56 57 58
f 59 60 61
f 60 62 61
f 61 62 63
f 63 64 61
f 64 30 61
f 61 30 65
f 30 32 65
f 65 32 66
f 32 67 66
f 66 67 68
f 67 69 68
f 68 69 70
f 69 71 70
f 70 71 72
f 71 73 72
f 72 73 74
f 73 75 74
f 74 75 76
f 75 77 76
f 76 77 55
f 77 78 55
f 55 78 54
f 58 79 56
f 79 80 56
f 56 80 81

