# https://github.com/mikedh/trimesh

o FR3_Version2_Link5_0-mesh
v 0.05448660 0.00120846 -0.25410371
v 0.05448786 0.00115000 -0.25409671
v 0.05448523 0.00126876 -0.25426082
v 0.05448321 0.00135250 -0.25420012
v 0.05448419 0.00131260 -0.25415692
v 0.05448535 0.00126368 -0.25412411
v 0.05448204 0.00139917 -0.25436711
v 0.05448209 0.00139702 -0.25430832
v 0.05448250 0.00138117 -0.25425161
v 0.05449996 0.00006201 -0.25808900
v 0.05449987 0.00012015 -0.25806602
v 0.05450000 0.00000000 -0.25792482
v 0.05449973 0.00017078 -0.25802931
v 0.05449959 0.00021073 -0.25798130
v 0.05449948 0.00023751 -0.25792482
v 0.05449948 -0.00023751 -0.25792482
v 0.05449959 -0.00021073 -0.25798130
v 0.05449973 -0.00017078 -0.25802931
v 0.05449987 -0.00012015 -0.25806602
v 0.05449996 -0.00006201 -0.25808900
v 0.05450000 0.00000000 -0.25809681
v 0.05448250 -0.00138117 -0.25425161
v 0.05448209 -0.00139702 -0.25430832
v 0.05448523 -0.00126876 -0.25426082
v 0.05448204 -0.00139917 -0.25436711
v 0.05448786 -0.00115000 -0.25409671
v 0.05448660 -0.00120846 -0.25410371
v 0.05448535 -0.00126368 -0.25412411
v 0.05448419 -0.00131260 -0.25415692
v 0.05448321 -0.00135250 -0.25420012
v 0.05448233 -0.00138751 -0.25442482
v 0.05448233 0.00138751 -0.25442482
v -0.04324121 0.02354619 -0.01951216
v -0.04323409 0.02348950 -0.01952801
v -0.04329148 0.02353698 -0.01939982
v -0.04323312 0.02343067 -0.01953017
v -0.04334426 0.02370100 -0.01928099
v -0.04331834 0.02369407 -0.01933946
v -0.04329377 0.02367366 -0.01939468
v -0.04327193 0.02364090 -0.01944359
v -0.04325407 0.02359761 -0.01948349
v -0.04429088 0.02370100 -0.01698099
v -0.04373675 0.01987296 -0.01836850
v -0.04323836 0.02337296 -0.01951850
v -0.04433595 0.02353698 -0.01686230
v -0.04383511 0.01987296 -0.01813126
v -0.04435253 0.02364090 -0.01681840
v -0.04433405 0.02367366 -0.01686731
v -0.04431313 0.02369407 -0.01692253
v -0.04438426 0.02348950 -0.01673398
v -0.04437832 0.02354619 -0.01674983
v -0.04436755 0.02359761 -0.01677850
v -0.04392742 0.01984361 -0.01790524
v -0.04393218 0.01987296 -0.01789349
v -0.04438070 0.02337296 -0.01674349
v -0.04438507 0.02343067 -0.01673182
v -0.04380965 0.01970882 -0.01819301
v -0.04383522 0.01970100 -0.01813099
v -0.04386067 0.01970882 -0.01806898
v -0.04388446 0.01973176 -0.01801084
v -0.04390509 0.01976842 -0.01796022
v -0.04392132 0.01981649 -0.01792027
v -0.04374164 0.01984369 -0.01835679
v -0.04374793 0.01981649 -0.01834172
v -0.04376457 0.01976842 -0.01830177
v -0.04378559 0.01973176 -0.01825114
f 1 2 3
f 4 5 3
f 5 6 3
f 3 6 1
f 7 8 3
f 8 9 3
f 3 9 4
f 10 11 12
f 11 13 12
f 13 14 12
f 12 14 15
f 16 17 12
f 17 18 12
f 12 18 19
f 19 20 12
f 20 21 12
f 12 21 10
f 22 23 24
f 23 25 24
f 26 27 24
f 27 28 24
f 28 29 24
f 29 30 24
f 24 30 22
f 25 31 24
f 31 16 24
f 24 16 26
f 16 12 26
f 26 12 2
f 12 15 2
f 2 15 3
f 15 32 3
f 3 32 7
f 33 34 35
f 34 36 35
f 37 38 35
f 38 39 35
f 39 40 35
f 40 41 35
f 35 41 33
f 42 37 43
f 37 35 43
f 43 35 44
f 35 36 44
f 45 42 46
f 47 48 45
f 48 49 45
f 45 49 42
f 50 51 45
f 51 52 45
f 45 52 47
f 53 54 46
f 54 55 46
f 46 55 45
f 55 56 45
f 45 56 50
f 57 58 46
f 58 59 46
f 46 59 60
f 60 61 46
f 61 62 46
f 46 62 53
f 42 43 46
f 43 63 46
f 46 63 64
f 64 65 46
f 65 66 46
f 46 66 57

