# https://github.com/mikedh/trimesh

o FR3_Version2_Link3_1-mesh
v 0.05229500 0.01534546 -0.11950590
v 0.05228625 0.01537524 -0.11945851
v 0.05231561 0.01527504 -0.11947500
v 0.05228081 0.01539373 -0.11940561
v 0.05227896 0.01540000 -0.11935000
v 0.05233583 0.01520563 -0.11959370
v 0.05232044 0.01525847 -0.11957521
v 0.05230660 0.01530587 -0.11954551
v 0.05227896 0.01540000 -0.11865001
v 0.05235196 0.01515000 -0.11960000
v 0.05233319 0.01521470 -0.11840851
v 0.05231561 0.01527504 -0.11852501
v 0.05231562 0.01527500 -0.11843351
v 0.05230047 0.01532678 -0.11847320
v 0.05228459 0.01538090 -0.11855420
v 0.05228882 0.01536651 -0.11852501
v 0.05229417 0.01534828 -0.11849771
v 0.05227959 0.01539785 -0.11861731
v 0.05228147 0.01539148 -0.11858530
v 0.05235196 0.01515000 -0.11840001
v 0.05267115 0.01400000 -0.11840001
v 0.05267115 0.01400000 -0.11960000
v 0.05269056 0.01392678 -0.11707320
v 0.05270421 0.01387500 -0.11703351
v 0.05270420 0.01387504 -0.11712501
v 0.05272005 0.01381470 -0.11700850
v 0.05273696 0.01375000 -0.11700001
v 0.05267622 0.01398090 -0.11715420
v 0.05268004 0.01396651 -0.11712501
v 0.05268486 0.01394830 -0.11709781
v 0.05267115 0.01400000 -0.11725001
v 0.05267172 0.01399785 -0.11721731
v 0.05267341 0.01399148 -0.11718531
v 0.05296235 0.01285454 -0.11709411
v 0.05296957 0.01282476 -0.11714151
v 0.05294519 0.01292504 -0.11712501
v 0.05297404 0.01280627 -0.11719440
v 0.05297556 0.01280000 -0.11725001
v 0.05291453 0.01305000 -0.11700001
v 0.05292822 0.01299437 -0.11700631
v 0.05294116 0.01294153 -0.11702481
v 0.05295273 0.01289413 -0.11705450
v 0.05324028 0.01165000 -0.11960000
v 0.05297556 0.01280000 -0.11960000
v 0.05297556 0.01280000 -0.11840001
v 0.05328329 0.01145168 -0.11849781
v 0.05328720 0.01143349 -0.11852501
v 0.05326747 0.01152503 -0.11852501
v 0.05329029 0.01141909 -0.11855420
v 0.05329255 0.01140852 -0.11858530
v 0.05329391 0.01140215 -0.11861731
v 0.05329437 0.01140000 -0.11865001
v 0.05325440 0.01158529 -0.11840851
v 0.05326748 0.01152500 -0.11843351
v 0.05327865 0.01147322 -0.11847320
v 0.05329437 0.01140000 -0.11935000
v 0.05326747 0.01152503 -0.11947500
v 0.05328267 0.01145454 -0.11950590
v 0.05327415 0.01149413 -0.11954551
v 0.05326390 0.01154153 -0.11957521
v 0.05329303 0.01140627 -0.11940561
v 0.05328907 0.01142476 -0.11945851
v 0.05325242 0.01159437 -0.11959370
v 0.05324028 0.01165000 -0.11840001
v 0.05295273 0.01289413 -0.12094551
v 0.05294116 0.01294153 -0.12097520
v 0.05294519 0.01292504 -0.12087501
v 0.05292822 0.01299437 -0.12099370
v 0.05291453 0.01305000 -0.12100001
v 0.05297404 0.01280627 -0.12080561
v 0.05296957 0.01282476 -0.12085850
v 0.05296235 0.01285454 -0.12090590
v 0.05270420 0.01387504 -0.12087501
v 0.05268562 0.01394546 -0.12090590
v 0.05267772 0.01397524 -0.12085850
v 0.05267281 0.01399373 -0.12080561
v 0.05267115 0.01400000 -0.12075001
v 0.05272243 0.01380563 -0.12099370
v 0.05270856 0.01385847 -0.12097520
v 0.05269608 0.01390587 -0.12094551
v 0.05273696 0.01375000 -0.12100001
v 0.05297556 0.01280000 -0.12075001
v 0.05297404 0.01280627 -0.12080561
v 0.05235196 -0.01515000 -0.11840001
v 0.05235196 -0.01515000 -0.11960000
v 0.05324028 -0.01165000 -0.11840001
v 0.05324028 -0.01165000 -0.11960000
v 0.05328267 -0.01145454 -0.11950590
v 0.05328907 -0.01142476 -0.11945851
v 0.05326747 -0.01152503 -0.11947500
v 0.05329303 -0.01140627 -0.11940561
v 0.05325242 -0.01159437 -0.11959370
v 0.05326390 -0.01154153 -0.11957521
v 0.05327415 -0.01149413 -0.11954551
v 0.05326390 -0.01154153 -0.11842480
v 0.05325242 -0.01159437 -0.11840631
v 0.05326747 -0.01152503 -0.11852501
v 0.05328907 -0.01142476 -0.11854150
v 0.05328267 -0.01145454 -0.11849411
v 0.05327415 -0.01149413 -0.11845450
v 0.05329437 -0.01140000 -0.11935000
v 0.05329437 -0.01140000 -0.11865001
v 0.05329303 -0.01140627 -0.11859440
v 0.05229500 -0.01534546 -0.11849411
v 0.05228625 -0.01537524 -0.11854150
v 0.05231561 -0.01527504 -0.11852501
v 0.05228081 -0.01539373 -0.11859440
v 0.05233583 -0.01520563 -0.11840631
v 0.05232044 -0.01525847 -0.11842480
v 0.05230660 -0.01530587 -0.11845450
v 0.05232044 -0.01525847 -0.11957521
v 0.05233583 -0.01520563 -0.11959370
v 0.05231561 -0.01527504 -0.11947500
v 0.05228625 -0.01537524 -0.11945851
v 0.05229500 -0.01534546 -0.11950590
v 0.05230660 -0.01530587 -0.11954551
v 0.05227896 -0.01540000 -0.11865001
v 0.05227896 -0.01540000 -0.11935000
v 0.05228081 -0.01539373 -0.11940561
f 1 2 3
f 2 4 3
f 3 4 5
f 6 7 3
f 7 8 3
f 3 8 1
f 5 9 3
f 9 10 3
f 3 10 6
f 11 12 13
f 12 14 13
f 15 16 12
f 16 17 12
f 12 17 14
f 9 18 12
f 18 19 12
f 12 19 15
f 11 20 12
f 20 21 12
f 12 21 9
f 21 22 9
f 9 22 10
f 23 24 25
f 24 26 25
f 25 26 27
f 28 29 25
f 29 30 25
f 25 30 23
f 31 32 25
f 32 33 25
f 25 33 28
f 34 35 36
f 35 37 36
f 36 37 38
f 36 39 40
f 40 41 36
f 41 42 36
f 36 42 34
f 43 44 45
f 46 47 48
f 47 49 48
f 49 50 48
f 50 51 48
f 48 51 52
f 53 54 48
f 54 55 48
f 48 55 46
f 52 56 57
f 58 59 57
f 59 60 57
f 56 61 57
f 61 62 57
f 57 62 58
f 60 63 57
f 63 43 57
f 57 43 52
f 43 45 52
f 52 45 48
f 45 64 48
f 48 64 53
f 27 39 25
f 39 36 25
f 25 36 31
f 36 38 31
f 31 38 21
f 38 45 21
f 21 45 22
f 45 44 22
f 65 66 67
f 66 68 67
f 67 68 69
f 70 71 67
f 71 72 67
f 67 72 65
f 73 74 75
f 75 76 73
f 76 77 73
f 73 77 22
f 78 79 73
f 79 80 73
f 73 80 74
f 78 73 81
f 73 22 81
f 81 22 69
f 22 44 69
f 69 44 67
f 44 82 67
f 67 82 83
f 84 85 86
f 85 87 86
f 88 89 90
f 89 91 90
f 92 93 90
f 93 94 90
f 90 94 88
f 95 96 97
f 96 86 97
f 97 86 90
f 86 87 90
f 90 87 92
f 98 99 97
f 99 100 97
f 97 100 95
f 91 101 90
f 101 102 90
f 90 102 97
f 102 103 97
f 97 103 98
f 104 105 106
f 105 107 106
f 108 109 106
f 109 110 106
f 106 110 104
f 111 112 113
f 112 85 113
f 113 85 106
f 85 84 106
f 106 84 108
f 114 115 113
f 115 116 113
f 113 116 111
f 107 117 106
f 117 118 106
f 106 118 113
f 118 119 113
f 113 119 114

