# https://github.com/mikedh/trimesh

o FR3_Version2_Link6_0-mesh
v 0.07042814 -0.04355369 -0.03926536
v 0.07026274 -0.04387480 -0.03919684
v 0.07025196 -0.04381710 -0.03919238
v 0.07271212 -0.04357410 -0.04021141
v 0.07275730 -0.04360686 -0.04023013
v 0.07279415 -0.04365015 -0.04024540
v 0.07048215 -0.04354676 -0.03928773
v 0.07260707 -0.04354676 -0.04016790
v 0.07282651 -0.04387480 -0.04025880
v 0.07266109 -0.04355369 -0.04019028
v 0.07283728 -0.04381710 -0.04026325
v 0.07283529 -0.04375826 -0.04026243
v 0.07282064 -0.04370157 -0.04025637
v 0.07026858 -0.04370157 -0.03919927
v 0.07029507 -0.04365015 -0.03921024
v 0.07033194 -0.04360686 -0.03922551
v 0.07132518 -0.04737480 -0.03963693
v 0.07176406 -0.04737480 -0.03981871
v 0.07134993 -0.04743127 -0.03964718
v 0.07173931 -0.04743127 -0.03980846
v 0.07170240 -0.04747934 -0.03979317
v 0.07143361 -0.04751599 -0.03968184
v 0.07160192 -0.04753895 -0.03975155
v 0.07148732 -0.04753895 -0.03970409
v 0.07154461 -0.04754676 -0.03972782
v 0.07165562 -0.04751599 -0.03977380
v 0.07138684 -0.04747934 -0.03966246
v 0.07025394 -0.04375826 -0.03919321
v 0.07037712 -0.04357410 -0.03924423
v -0.01704689 0.04466722 -0.01085581
v -0.01703206 0.04467286 -0.01091250
v -0.01712462 0.04463754 -0.01086849
v -0.01703005 0.04467363 -0.01097133
v -0.01726279 0.04458440 -0.01070100
v -0.01720823 0.04460544 -0.01070793
v -0.01715667 0.04462526 -0.01072834
v -0.01711097 0.04464276 -0.01076110
v -0.01707368 0.04465700 -0.01080439
v -0.01811088 0.04424742 -0.01452904
v -0.01833054 0.04415707 -0.01452904
v -0.01704096 0.04466948 -0.01102904
v -0.01960474 0.04360752 -0.01102904
v -0.01838781 0.04413330 -0.01469319
v -0.01844148 0.04411095 -0.01467023
v -0.01848820 0.04409144 -0.01463358
v -0.01852505 0.04407600 -0.01458551
v -0.01854974 0.04406564 -0.01452904
v -0.01813567 0.04423728 -0.01458551
v -0.01817264 0.04422214 -0.01463358
v -0.01821948 0.04420291 -0.01467023
v -0.01827323 0.04418077 -0.01469319
v -0.01833054 0.04415707 -0.01470100
v -0.01959895 0.04361012 -0.01085581
v -0.01957277 0.04362185 -0.01080439
v -0.01949629 0.04365601 -0.01086502
v -0.01953634 0.04363814 -0.01076110
v -0.01949165 0.04365808 -0.01072834
v -0.01944117 0.04368053 -0.01070793
v -0.01961538 0.04360275 -0.01097133
v -0.01961342 0.04360363 -0.01091250
v -0.01938772 0.04370423 -0.01070100
f 1 2 3
f 4 5 6
f 7 8 9
f 8 10 9
f 9 10 11
f 10 12 11
f 4 6 10
f 6 13 10
f 10 13 12
f 14 15 16
f 1 7 2
f 7 9 2
f 2 9 17
f 9 18 17
f 17 18 19
f 18 20 19
f 19 20 21
f 22 23 24
f 23 25 24
f 21 26 19
f 26 23 19
f 19 23 27
f 23 22 27
f 3 28 1
f 28 14 1
f 1 14 29
f 14 16 29
f 30 31 32
f 31 33 32
f 34 35 32
f 35 36 32
f 36 37 32
f 37 38 32
f 32 38 30
f 39 40 41
f 40 42 41
f 43 44 40
f 44 45 40
f 45 46 40
f 46 47 40
f 40 47 42
f 39 48 40
f 48 49 40
f 40 49 50
f 50 51 40
f 51 52 40
f 40 52 43
f 53 54 55
f 54 56 55
f 56 57 55
f 55 57 58
f 42 59 55
f 59 60 55
f 55 60 53
f 33 41 32
f 41 42 32
f 32 42 34
f 42 55 34
f 34 55 61
f 55 58 61

