# https://github.com/mikedh/trimesh

o FR3_Version2_Link2_1-mesh
v 0.05306420 -0.01281157 0.00632526
v 0.05306155 -0.01282619 0.00635782
v 0.05306497 -0.01280648 0.00630557
v 0.05306517 -0.01280322 0.00627779
v 0.05305988 -0.01283530 0.00637812
v 0.05300634 -0.01279998 0.00275000
v 0.05306536 -0.01279998 0.00625000
v 0.05306519 -0.01280500 0.00629987
v 0.05305691 -0.01285042 0.00640059
v 0.05305596 -0.01285502 0.00640539
v 0.05304856 -0.01289101 0.00644295
v 0.05304788 -0.01289421 0.00644531
v 0.05304401 -0.01291248 0.00645879
v 0.05303752 -0.01294229 0.00647367
v 0.05303240 -0.01296583 0.00648541
v 0.05302703 -0.01299003 0.00649271
v 0.05302603 -0.01299441 0.00649324
v 0.05301345 -0.01304998 0.00650000
v 0.05284833 -0.01374998 0.00650000
v 0.05283468 -0.01380554 0.00649319
v 0.05283350 -0.01381035 0.00649260
v 0.05282782 -0.01383302 0.00648581
v 0.05282151 -0.01385764 0.00647361
v 0.05281393 -0.01388726 0.00645893
v 0.05280909 -0.01390572 0.00644556
v 0.05280905 -0.01390583 0.00644544
v 0.05271093 -0.01398880 0.00267609
v 0.05271424 -0.01397382 0.00264215
v 0.05271004 -0.01399342 0.00269444
v 0.05270966 -0.01399670 0.00272222
v 0.05270967 -0.01399532 0.00270198
v 0.05270929 -0.01399998 0.00275000
v 0.05278122 -0.01399998 0.00625000
v 0.05271607 -0.01396554 0.00262337
v 0.05271966 -0.01395020 0.00260029
v 0.05272094 -0.01394486 0.00259467
v 0.05272938 -0.01390983 0.00255778
v 0.05273039 -0.01390572 0.00255472
v 0.05273471 -0.01388814 0.00254165
v 0.05274230 -0.01385766 0.00252634
v 0.05274803 -0.01383463 0.00251477
v 0.05275415 -0.01381030 0.00250739
v 0.05275536 -0.01380554 0.00250680
v 0.05276945 -0.01374998 0.00250000
v 0.05294318 -0.01304998 0.00250000
v 0.05295665 -0.01299442 0.00250684
v 0.05295788 -0.01298937 0.00250746
v 0.05296337 -0.01296685 0.00251423
v 0.05296941 -0.01294231 0.00252638
v 0.05297668 -0.01291275 0.00254103
v 0.05299180 -0.01285242 0.00259679
v 0.05299528 -0.01283889 0.00261605
v 0.05299271 -0.01285026 0.00262446
v 0.05299863 -0.01282628 0.00264227
v 0.05300201 -0.01281354 0.00266876
v 0.05279845 -0.01394515 0.00640559
v 0.05279778 -0.01394762 0.00640309
v 0.05279403 -0.01396103 0.00638400
v 0.05279028 -0.01397367 0.00635773
v 0.05278651 -0.01398642 0.00633121
v 0.05278423 -0.01399331 0.00630734
v 0.05298129 -0.01289420 0.00255447
v 0.05298131 -0.01289412 0.00255455
v 0.05299121 -0.01285479 0.00259439
v 0.05300397 -0.01280666 0.00269259
v 0.05300404 -0.01280645 0.00269439
v 0.05278414 -0.01399351 0.00630561
v 0.05267256 0.01399360 0.00269439
v 0.05267084 0.01400002 0.00275000
v 0.05297368 0.01280658 0.00269444
v 0.05297414 0.01280466 0.00270207
v 0.05297257 0.01281117 0.00267619
v 0.05296894 0.01282620 0.00264215
v 0.05269582 0.01390586 0.00255458
v 0.05296692 0.01283457 0.00262319
v 0.05296324 0.01284978 0.00260032
v 0.05296193 0.01285514 0.00259468
v 0.05295339 0.01289032 0.00255766
v 0.05295243 0.01289428 0.00255472
v 0.05294815 0.01291185 0.00254165
v 0.05294070 0.01294234 0.00252634
v 0.05293433 0.01296840 0.00251657
v 0.05293507 0.01296542 0.00251475
v 0.05273671 0.01375002 0.00250000
v 0.05272220 0.01380555 0.00250708
v 0.05271537 0.01383162 0.00251672
v 0.05292910 0.01298976 0.00250737
v 0.05292794 0.01299446 0.00250680
v 0.05291427 0.01305002 0.00250000
v 0.05272032 0.01381271 0.00250799
v 0.05271454 0.01383475 0.00251480
v 0.05270851 0.01385769 0.00252636
v 0.05270033 0.01388876 0.00254203
v 0.05269556 0.01390682 0.00255529
v 0.05268544 0.01394512 0.00259448
v 0.05268459 0.01394831 0.00259774
v 0.05268106 0.01396160 0.00261683
v 0.05267784 0.01397373 0.00264226
v 0.05267441 0.01398664 0.00266931
v 0.05267260 0.01399344 0.00269301
v 0.05228803 0.01536693 0.00402570
v 0.05228595 0.01537396 0.00404209
v 0.05297494 0.01280002 0.00390000
v 0.05235133 0.01515002 0.00390000
v 0.05231492 0.01527520 0.00395083
v 0.05267052 0.01400002 0.00390000
v 0.05297525 0.01280002 0.00275000
v 0.05233521 0.01520558 0.00390687
v 0.05233367 0.01521091 0.00390753
v 0.05232653 0.01523545 0.00391505
v 0.05232003 0.01525769 0.00392634
v 0.05231082 0.01528925 0.00394236
v 0.05230600 0.01530572 0.00395477
v 0.05230439 0.01531120 0.00395890
v 0.05229454 0.01534479 0.00399478
v 0.05229261 0.01535136 0.00400180
v 0.05228135 0.01538956 0.00407843
v 0.05228022 0.01539340 0.00409445
v 0.05227946 0.01539596 0.00410514
v 0.05227825 0.01540002 0.00415000
v 0.05227798 0.01540002 0.00485000
v 0.05227916 0.01539596 0.00489491
v 0.05227991 0.01539340 0.00490555
v 0.05228104 0.01538955 0.00492161
v 0.05228560 0.01537396 0.00495791
v 0.05228767 0.01536692 0.00497433
v 0.05229224 0.01535134 0.00499822
v 0.05229415 0.01534479 0.00500523
v 0.05230399 0.01531120 0.00504111
v 0.05230559 0.01530572 0.00504523
v 0.05231040 0.01528924 0.00505765
v 0.05231960 0.01525769 0.00507366
v 0.05232608 0.01523544 0.00508495
v 0.05233322 0.01521090 0.00509247
v 0.05233476 0.01520558 0.00509313
v 0.05235087 0.01515002 0.00510000
v 0.05267007 0.01400002 0.00510000
v 0.05266951 0.01400002 0.00625000
v 0.05267119 0.01399360 0.00630561
v 0.05267643 0.01397373 0.00635774
v 0.05267123 0.01399344 0.00630698
v 0.05267302 0.01398665 0.00633068
v 0.05267963 0.01396161 0.00638316
v 0.05268314 0.01394831 0.00640225
v 0.05268399 0.01394512 0.00640552
v 0.05269408 0.01390684 0.00644470
v 0.05269434 0.01390586 0.00644542
v 0.05269884 0.01388878 0.00645795
v 0.05270701 0.01385769 0.00647364
v 0.05271302 0.01383479 0.00648519
v 0.05271880 0.01381275 0.00649200
v 0.05272068 0.01380555 0.00649292
v 0.05273519 0.01375002 0.00650000
v 0.05291276 0.01305002 0.00650000
v 0.05292643 0.01299448 0.00649305
v 0.05292792 0.01298842 0.00649229
v 0.05293339 0.01296615 0.00648551
v 0.05293921 0.01294235 0.00647363
v 0.05294658 0.01291222 0.00645859
v 0.05295099 0.01289416 0.00644544
v 0.05295108 0.01289379 0.00644517
v 0.05296057 0.01285487 0.00640558
v 0.05296121 0.01285222 0.00640288
v 0.05296450 0.01283871 0.00638359
v 0.05296751 0.01282632 0.00635773
v 0.05297063 0.01281351 0.00633102
v 0.05297229 0.01280667 0.00630727
v 0.05297234 0.01280648 0.00630561
v 0.05297234 0.01280648 0.00630561
v 0.05297393 0.01280002 0.00625000
v 0.05297449 0.01280002 0.00510000
v 0.05323921 0.01165002 0.00510000
v 0.05325135 0.01159446 0.00509321
v 0.05325236 0.01158982 0.00509264
v 0.05325728 0.01156716 0.00508587
v 0.05326266 0.01154235 0.00507363
v 0.05326897 0.01151330 0.00505930
v 0.05329195 0.01140674 0.00490758
v 0.05328257 0.01145035 0.00497553
v 0.05329046 0.01141364 0.00493138
v 0.05328773 0.01142633 0.00495773
v 0.05327310 0.01149418 0.00504543
v 0.05328160 0.01145480 0.00500564
v 0.05328204 0.01145275 0.00500357
v 0.05328500 0.01143901 0.00498406
v 0.05329200 0.01140651 0.00490560
v 0.05329341 0.01140002 0.00485000
v 0.05329367 0.01140002 0.00415000
v 0.05329263 0.01140496 0.00410058
v 0.05329230 0.01140654 0.00409443
v 0.05329124 0.01141152 0.00407506
v 0.05328809 0.01142624 0.00404218
v 0.05328615 0.01143530 0.00402195
v 0.05328293 0.01145033 0.00399959
v 0.05328191 0.01145508 0.00399463
v 0.05327418 0.01149108 0.00395703
v 0.05327349 0.01149426 0.00395469
v 0.05326959 0.01151235 0.00394133
v 0.05326310 0.01154234 0.00392634
v 0.05325802 0.01156582 0.00391461
v 0.05325274 0.01159009 0.00390729
v 0.05325179 0.01159445 0.00390676
v 0.05327304 0.01149444 0.00504569
v 0.05323966 0.01165002 0.00390000
f 1 2 3
f 2 4 3
f 5 6 2
f 6 7 2
f 2 7 4
f 7 8 4
f 4 8 3
f 5 9 6
f 9 10 6
f 6 10 11
f 11 12 6
f 12 13 6
f 6 13 14
f 14 15 6
f 15 16 6
f 6 16 17
f 17 18 6
f 18 19 6
f 6 19 20
f 20 21 6
f 21 22 6
f 6 22 23
f 23 24 6
f 24 25 6
f 6 25 26
f 27 28 29
f 28 30 29
f 29 30 31
f 31 30 32
f 30 28 32
f 32 28 33
f 28 34 33
f 33 34 35
f 35 36 33
f 36 37 33
f 33 37 38
f 38 39 33
f 39 40 33
f 33 40 41
f 41 42 33
f 42 43 33
f 33 43 44
f 44 45 33
f 45 46 33
f 33 46 47
f 47 48 33
f 48 49 33
f 33 49 50
f 51 52 53
f 52 54 53
f 53 54 55
f 26 56 6
f 56 57 6
f 6 57 58
f 58 59 6
f 59 60 6
f 6 60 61
f 50 62 33
f 62 63 33
f 33 63 53
f 63 64 53
f 53 64 51
f 55 65 53
f 65 66 53
f 53 66 33
f 66 6 33
f 33 6 67
f 6 61 67
f 68 69 70
f 70 69 71
f 72 73 74
f 73 75 74
f 75 76 74
f 76 77 74
f 74 77 78
f 78 79 74
f 79 80 74
f 74 80 81
f 82 81 83
f 84 85 86
f 83 87 82
f 87 88 82
f 82 88 89
f 84 86 89
f 85 90 86
f 90 91 86
f 86 91 92
f 89 86 82
f 86 92 82
f 82 92 81
f 92 93 81
f 81 93 74
f 72 74 70
f 74 94 70
f 70 94 95
f 95 96 70
f 96 97 70
f 70 97 98
f 98 99 70
f 99 100 70
f 70 100 68
f 101 102 103
f 104 105 106
f 105 103 106
f 106 103 69
f 103 107 69
f 69 107 71
f 104 108 105
f 108 109 105
f 105 109 110
f 110 111 105
f 111 112 105
f 105 112 113
f 113 114 105
f 114 115 105
f 105 115 103
f 115 116 103
f 103 116 101
f 102 117 103
f 117 118 103
f 103 118 119
f 119 120 103
f 120 121 103
f 103 121 122
f 122 123 103
f 123 124 103
f 103 124 125
f 125 126 103
f 126 127 103
f 103 127 128
f 128 129 103
f 129 130 103
f 103 130 131
f 131 132 103
f 132 133 103
f 103 133 134
f 134 135 103
f 135 136 103
f 103 136 137
f 138 139 140
f 139 141 140
f 140 141 142
f 138 140 137
f 140 143 137
f 137 143 144
f 144 145 137
f 145 146 137
f 137 146 147
f 147 148 137
f 148 149 137
f 137 149 150
f 150 151 137
f 151 152 137
f 137 152 153
f 153 154 137
f 154 155 137
f 137 155 156
f 156 157 137
f 157 158 137
f 137 158 159
f 159 160 137
f 160 161 137
f 137 161 162
f 162 163 137
f 163 164 137
f 137 164 165
f 165 166 137
f 166 167 137
f 137 167 168
f 169 170 137
f 170 171 137
f 137 171 103
f 171 172 103
f 172 173 103
f 103 173 174
f 174 175 103
f 175 176 103
f 103 176 177
f 178 179 180
f 179 181 180
f 179 182 183
f 183 184 179
f 184 185 179
f 179 185 181
f 178 186 179
f 186 187 179
f 179 187 188
f 188 189 179
f 189 190 179
f 179 190 182
f 190 191 182
f 191 192 182
f 182 192 193
f 193 194 182
f 194 195 182
f 182 195 196
f 196 197 182
f 197 198 182
f 182 198 199
f 199 200 182
f 200 201 182
f 182 201 202
f 177 203 103
f 203 182 103
f 103 182 204
f 182 202 204

