# https://github.com/mikedh/trimesh

o FR3_Version2_Link4_1-mesh
v 0.04714167 0.02729430 0.00276486
v 0.04713932 0.02729853 0.00271546
v 0.04652772 0.02832691 0.00263253
v 0.04713813 0.02730063 0.00270601
v 0.04713579 0.02730471 0.00268761
v 0.04712745 0.02731923 0.00265058
v 0.04712316 0.02732669 0.00263156
v 0.04711474 0.02734126 0.00260691
v 0.04711152 0.02734681 0.00260035
v 0.04709252 0.02737961 0.00256157
v 0.04709003 0.02738391 0.00255799
v 0.04706354 0.02742942 0.00252791
v 0.04706242 0.02743133 0.00253261
v 0.04708062 0.02740010 0.00254446
v 0.04705100 0.02745094 0.00251576
v 0.04703750 0.02747406 0.00250787
v 0.04703477 0.02747872 0.00250723
v 0.04661626 0.02818165 0.00250781
v 0.04661377 0.02818576 0.00250922
v 0.04665029 0.02812541 0.00250000
v 0.04700402 0.02753122 0.00250000
v 0.04655992 0.02827429 0.00256107
v 0.04655089 0.02828907 0.00257879
v 0.04660249 0.02820435 0.00251562
v 0.04657995 0.02824143 0.00253679
v 0.04657215 0.02825424 0.00254411
v 0.04653688 0.02831198 0.00260625
v 0.04652822 0.02832611 0.00263048
v 0.04651485 0.02834781 0.00268660
v 0.04651351 0.02834996 0.00269639
v 0.04651111 0.02835383 0.00271399
v 0.04650840 0.02835809 0.00276486
v 0.04650020 0.02834989 0.00623514
v 0.04650368 0.02834369 0.00629405
v 0.04650378 0.02834350 0.00629584
v 0.04650759 0.02833704 0.00632102
v 0.04651475 0.02832504 0.00634928
v 0.04652172 0.02831338 0.00637675
v 0.04652931 0.02830074 0.00639716
v 0.04653078 0.02829830 0.00639997
v 0.04655291 0.02826156 0.00644220
v 0.04656315 0.02824459 0.00645620
v 0.04712969 0.02729195 0.00629406
v 0.04658009 0.02821653 0.00647206
v 0.04659360 0.02819415 0.00648471
v 0.04699452 0.02752173 0.00650000
v 0.04702528 0.02746930 0.00649247
v 0.04707757 0.02738067 0.00639329
v 0.04660619 0.02817330 0.00649189
v 0.04660949 0.02816784 0.00649266
v 0.04664083 0.02811595 0.00650000
v 0.04708146 0.02737355 0.00644133
v 0.04710264 0.02733754 0.00639990
v 0.04710444 0.02733449 0.00639638
v 0.04711184 0.02732195 0.00637613
v 0.04711858 0.02731059 0.00634929
v 0.04712578 0.02729844 0.00632057
v 0.04712960 0.02729209 0.00629549
v 0.04702940 0.02746228 0.00649147
v 0.04704157 0.02744153 0.00648425
v 0.04705417 0.02742006 0.00647208
v 0.04707146 0.02739060 0.00645538
v 0.04708086 0.02737458 0.00644217
v 0.04655275 0.02826182 0.00644199
v 0.04713342 0.02728606 0.00623514
v 0.02839619 0.04646647 0.00268660
v 0.02840451 0.04645806 0.00390000
v 0.02840045 0.04646382 0.00270600
v 0.02840647 0.04646002 0.00276486
v 0.02840221 0.04646274 0.00271399
v 0.02838227 0.04647504 0.00265061
v 0.02837449 0.04647983 0.00263048
v 0.02836036 0.04648851 0.00260625
v 0.02835540 0.04649154 0.00260030
v 0.02832267 0.04651155 0.00256107
v 0.02831900 0.04651378 0.00255797
v 0.02830263 0.04652377 0.00254411
v 0.02827424 0.04654103 0.00252790
v 0.02825273 0.04655411 0.00251562
v 0.02823003 0.04656788 0.00250781
v 0.02822566 0.04657053 0.00250720
v 0.02817379 0.04660191 0.00250000
v 0.02757960 0.04695564 0.00250000
v 0.02752710 0.04698638 0.00250723
v 0.02752244 0.04698912 0.00250787
v 0.02749932 0.04700262 0.00251576
v 0.02747780 0.04701516 0.00252791
v 0.02744847 0.04703224 0.00254446
v 0.02743228 0.04704165 0.00255799
v 0.02742799 0.04704414 0.00256158
v 0.02739520 0.04706314 0.00260035
v 0.02738964 0.04706636 0.00260692
v 0.02737506 0.04707478 0.00263156
v 0.02736761 0.04707907 0.00265058
v 0.02735309 0.04708742 0.00268761
v 0.02734901 0.04708975 0.00270601
v 0.02734691 0.04709094 0.00271546
v 0.02734268 0.04709329 0.00276486
v 0.02734071 0.04709132 0.00390000
v 0.02733787 0.04708848 0.00510000
v 0.02631536 0.04767130 0.00390000
v 0.02626171 0.04770081 0.00390768
v 0.02625332 0.04770543 0.00390888
v 0.02623239 0.04771690 0.00391609
v 0.02621123 0.04772847 0.00392792
v 0.02617994 0.04774558 0.00394540
v 0.02616456 0.04775396 0.00395786
v 0.02616291 0.04775485 0.00395919
v 0.02612649 0.04777463 0.00400017
v 0.02612275 0.04777667 0.00400438
v 0.02611009 0.04778351 0.00402432
v 0.02609857 0.04778971 0.00405071
v 0.02608588 0.04779654 0.00407980
v 0.02607928 0.04780006 0.00410487
v 0.02607917 0.04780012 0.00410594
v 0.02607285 0.04780335 0.00416486
v 0.02607125 0.04780176 0.00483514
v 0.02607728 0.04779824 0.00489406
v 0.02607739 0.04779817 0.00489509
v 0.02608384 0.04779455 0.00492011
v 0.02609642 0.04778757 0.00494930
v 0.02610773 0.04778130 0.00497552
v 0.02612030 0.04777435 0.00499551
v 0.02612412 0.04777225 0.00499983
v 0.02616015 0.04775238 0.00504065
v 0.02616197 0.04775137 0.00504214
v 0.02625009 0.04770283 0.00509100
v 0.02625890 0.04769798 0.00509227
v 0.02622930 0.04771429 0.00508379
v 0.02620850 0.04772574 0.00507210
v 0.02617710 0.04774304 0.00505446
v 0.02631250 0.04766844 0.00510000
v 0.02839827 0.04645182 0.00623514
v 0.02733444 0.04708504 0.00623514
v 0.02733850 0.04708243 0.00628494
v 0.02733850 0.04708243 0.00628494
v 0.02734258 0.04707996 0.00630361
v 0.02734456 0.04707876 0.00631267
v 0.02736585 0.04706610 0.00636752
v 0.02736629 0.04706584 0.00636863
v 0.02738076 0.04705730 0.00639326
v 0.02740432 0.04704344 0.00642123
v 0.02741886 0.04703489 0.00643850
v 0.02743931 0.04702288 0.00645563
v 0.02745267 0.04701504 0.00646319
v 0.02748996 0.04699316 0.00648427
v 0.02750905 0.04698196 0.00649079
v 0.02839207 0.04645530 0.00629405
v 0.02751301 0.04697964 0.00649214
v 0.02757011 0.04694614 0.00650000
v 0.02826309 0.04653285 0.00646743
v 0.02816433 0.04659245 0.00650000
v 0.02821622 0.04656111 0.00649266
v 0.02822168 0.04655781 0.00649189
v 0.02824253 0.04654522 0.00648471
v 0.02826490 0.04653171 0.00647206
v 0.02829297 0.04651477 0.00645620
v 0.02830994 0.04650453 0.00644220
v 0.02831020 0.04650437 0.00644199
v 0.02834668 0.04648240 0.00639997
v 0.02834912 0.04648093 0.00639716
v 0.02836176 0.04647334 0.00637675
v 0.02837342 0.04646638 0.00634928
v 0.02838542 0.04645921 0.00632102
v 0.02839188 0.04645540 0.00629584
v 0.02840168 0.04645524 0.00510000
v 0.02938927 0.04583749 0.00510000
v 0.02944001 0.04580498 0.00509282
v 0.02944412 0.04580234 0.00509224
v 0.02946484 0.04578907 0.00508507
v 0.02948759 0.04577448 0.00507206
v 0.02951404 0.04575752 0.00505693
v 0.02953127 0.04574648 0.00504252
v 0.02953156 0.04574629 0.00504218
v 0.02961153 0.04569525 0.00489615
v 0.02961174 0.04569512 0.00489405
v 0.02960266 0.04570088 0.00492166
v 0.02956938 0.04572207 0.00499787
v 0.02958193 0.04571405 0.00497723
v 0.02961154 0.04569832 0.00409639
v 0.02959358 0.04570664 0.00494927
v 0.02960518 0.04569925 0.00492138
v 0.02961338 0.04569710 0.00410388
v 0.02961936 0.04569302 0.00416486
v 0.02961779 0.04569145 0.00483514
v 0.02960718 0.04570121 0.00407868
v 0.02956753 0.04572325 0.00500003
v 0.02958835 0.04571355 0.00403290
v 0.02958423 0.04571624 0.00402289
v 0.02957177 0.04572437 0.00400221
v 0.02955199 0.04573722 0.00397889
v 0.02953393 0.04574894 0.00395760
v 0.02951679 0.04576004 0.00394318
v 0.02950552 0.04576731 0.00393670
v 0.02946779 0.04579167 0.00391502
v 0.02945108 0.04580243 0.00390920
v 0.02944718 0.04580494 0.00390784
v 0.02939208 0.04584030 0.00390000
f 1 2 3
f 2 4 3
f 3 4 5
f 5 6 3
f 6 7 3
f 3 7 8
f 8 9 3
f 9 10 3
f 3 10 11
f 12 13 14
f 13 11 14
f 12 15 13
f 15 16 13
f 13 16 17
f 18 19 20
f 19 13 20
f 20 13 21
f 13 17 21
f 22 23 11
f 19 24 13
f 24 25 13
f 13 25 11
f 25 26 11
f 11 26 22
f 23 27 11
f 27 28 11
f 11 28 3
f 3 29 1
f 29 30 1
f 1 30 31
f 31 32 1
f 32 33 1
f 1 33 34
f 34 35 1
f 35 36 1
f 1 36 37
f 37 38 1
f 38 39 1
f 1 39 40
f 41 42 43
f 42 44 43
f 43 44 45
f 46 47 48
f 45 49 43
f 49 50 43
f 43 50 48
f 50 51 48
f 48 51 46
f 48 52 53
f 53 54 48
f 54 55 48
f 48 55 56
f 56 57 48
f 57 58 48
f 48 58 43
f 47 59 48
f 59 60 48
f 48 60 61
f 61 62 48
f 62 63 48
f 48 63 52
f 40 64 1
f 64 41 1
f 1 41 65
f 41 43 65
f 66 67 68
f 67 69 68
f 68 69 70
f 66 71 67
f 71 72 67
f 67 72 73
f 73 74 67
f 74 75 67
f 67 75 76
f 76 77 67
f 77 78 67
f 67 78 79
f 79 80 67
f 80 81 67
f 67 81 82
f 82 83 67
f 83 84 67
f 67 84 85
f 85 86 67
f 86 87 67
f 67 87 88
f 88 89 67
f 89 90 67
f 67 90 91
f 91 92 67
f 92 93 67
f 67 93 94
f 94 95 67
f 95 96 67
f 67 96 97
f 97 98 67
f 98 99 67
f 67 99 100
f 99 101 100
f 100 101 102
f 102 103 100
f 103 104 100
f 100 104 105
f 105 106 100
f 106 107 100
f 100 107 108
f 108 109 100
f 109 110 100
f 100 110 111
f 111 112 100
f 112 113 100
f 100 113 114
f 114 115 100
f 115 116 100
f 100 116 117
f 117 118 100
f 118 119 100
f 100 119 120
f 120 121 100
f 121 122 100
f 100 122 123
f 123 124 100
f 124 125 100
f 100 125 126
f 127 128 129
f 128 130 129
f 126 131 100
f 131 130 100
f 100 130 132
f 130 128 132
f 133 134 135
f 136 137 133
f 137 138 133
f 133 138 139
f 139 140 133
f 140 141 133
f 133 141 142
f 142 143 133
f 143 144 133
f 133 144 145
f 145 146 133
f 146 147 133
f 133 147 148
f 147 149 150
f 147 150 151
f 150 152 151
f 151 152 153
f 153 154 151
f 154 155 151
f 151 155 156
f 156 157 151
f 157 158 151
f 151 158 147
f 158 159 147
f 147 159 160
f 160 161 147
f 161 162 147
f 147 162 163
f 163 164 147
f 164 165 147
f 147 165 148
f 134 133 100
f 133 166 100
f 100 166 67
f 166 167 67
f 67 167 168
f 168 169 67
f 169 170 67
f 67 170 171
f 171 172 67
f 172 173 67
f 67 173 174
f 175 176 177
f 178 179 180
f 179 181 180
f 180 181 177
f 181 182 177
f 177 182 175
f 183 180 184
f 180 177 184
f 184 177 185
f 177 176 185
f 186 174 180
f 174 187 180
f 180 187 178
f 186 188 174
f 188 189 174
f 174 189 190
f 190 191 174
f 191 192 174
f 174 192 193
f 193 194 174
f 194 195 174
f 174 195 196
f 196 197 174
f 197 198 174
f 174 198 67

