# https://github.com/mikedh/trimesh

o FR3_Version2_Link5_3-mesh
v -0.01087406 0.10021431 -0.12517421
v -0.01086081 0.09996019 -0.12669211
v -0.01265630 0.09941455 -0.12670781
v -0.01516117 0.09877128 -0.12521161
v -0.01686913 0.09779474 -0.12674460
v -0.01688238 0.09805314 -0.12522661
v -0.01610982 0.09703769 -0.13292791
v -0.01612646 0.09702945 -0.13293430
v -0.01644629 0.09697818 -0.13244701
v -0.01151211 0.09870762 -0.13288770
v -0.01256514 0.09845881 -0.13242321
v -0.01225066 0.09865287 -0.13188930
v -0.01149536 0.09871154 -0.13289391
v -0.01122122 0.09886753 -0.13245991
v -0.01118403 0.09888868 -0.13240101
v -0.01220844 0.09867894 -0.13181760
v -0.01097920 0.09903467 -0.13189721
v -0.01208161 0.09879684 -0.13136750
v -0.01094176 0.09908047 -0.13169300
v -0.01205598 0.09882068 -0.13127660
v -0.01083208 0.09921469 -0.13109481
v -0.01203020 0.09890766 -0.13082011
v -0.01082470 0.09926307 -0.13082581
v -0.01203173 0.09891611 -0.13076841
v -0.01087015 0.09931656 -0.13044060
v -0.01209255 0.09896486 -0.13037601
v -0.01092056 0.09937588 -0.13001340
v -0.01209740 0.09896873 -0.13034470
v -0.01100631 0.09940340 -0.12971181
v -0.01214157 0.09897863 -0.13020701
v -0.01103863 0.09940613 -0.12964181
v -0.01226276 0.09898205 -0.12996450
v -0.01129774 0.09942798 -0.12908001
v -0.01231135 0.09898343 -0.12986730
v -0.01137373 0.09942386 -0.12897330
v -0.01243221 0.09897278 -0.12970461
v -0.01156084 0.09941372 -0.12871070
v -0.01250812 0.09896045 -0.12963271
v -0.01183676 0.09937503 -0.12844660
v -0.01269918 0.09892945 -0.12945180
v -0.01202690 0.09934838 -0.12826461
v -0.01272591 0.09892374 -0.12943360
v -0.01230484 0.09929313 -0.12807781
v -0.01283238 0.09890104 -0.12936100
v -0.01240204 0.09926880 -0.12803490
v -0.01309271 0.09883414 -0.12923971
v -0.01291658 0.09914013 -0.12780800
v -0.01319150 0.09880877 -0.12919370
v -0.01308640 0.09909074 -0.12776261
v -0.01337086 0.09875567 -0.12914330
v -0.01313315 0.09907715 -0.12775011
v -0.01352158 0.09870515 -0.12912740
v -0.01385664 0.09883758 -0.12767361
v -0.01384425 0.09859704 -0.12909341
v -0.01395897 0.09879747 -0.12768700
v -0.01462254 0.09853734 -0.12777391
v -0.01427846 0.09842978 -0.12914251
v -0.01468095 0.09851168 -0.12779261
v -0.01435801 0.09839645 -0.12916350
v -0.01492411 0.09840484 -0.12787041
v -0.01441178 0.09837391 -0.12917760
v -0.01533211 0.09820485 -0.12808941
v -0.01474646 0.09822036 -0.12932781
v -0.01557069 0.09808790 -0.12821741
v -0.01482987 0.09818210 -0.12936521
v -0.01583808 0.09794050 -0.12843470
v -0.01495026 0.09812114 -0.12944680
v -0.01589747 0.09790323 -0.12850510
v -0.01508936 0.09804293 -0.12958091
v -0.01601183 0.09783147 -0.12864080
v -0.01519569 0.09798314 -0.12968340
v -0.01631293 0.09764254 -0.12899790
v -0.01525333 0.09795073 -0.12973891
v -0.01646467 0.09753120 -0.12926151
v -0.01535808 0.09788324 -0.12988550
v -0.01647317 0.09752498 -0.12927631
v -0.01542035 0.09783516 -0.13001661
v -0.01672757 0.09729129 -0.12997561
v -0.01506505 0.09755176 -0.13244501
v -0.01532508 0.09751543 -0.13206121
v -0.01536296 0.09751565 -0.13197260
v -0.01647957 0.09697622 -0.13237610
v -0.01552828 0.09751661 -0.13158591
v -0.01658090 0.09697024 -0.13216030
v -0.01556929 0.09752875 -0.13142141
v -0.01674074 0.09699753 -0.13160831
v -0.01558408 0.09753312 -0.13136211
v -0.01677803 0.09700387 -0.13147951
v -0.01562789 0.09760476 -0.13085151
v -0.01683311 0.09708568 -0.13087830
v -0.01558079 0.09769902 -0.13042350
v -0.01673763 0.09728203 -0.13000330
v -0.01557599 0.09770395 -0.13040641
v -0.01553354 0.09774775 -0.13025501
v -0.01570346 0.09899852 -0.12263481
v -0.01568723 0.09868496 -0.12449380
v -0.01688873 0.09817583 -0.12450421
v -0.01693443 0.09906238 -0.11926841
v -0.01573293 0.09956701 -0.11925790
v -0.01571670 0.09925418 -0.12111690
v -0.01520570 0.09945779 -0.12111240
v -0.01143479 0.10049061 -0.12259751
v -0.01090981 0.10089711 -0.12107490
v -0.01089657 0.10064470 -0.12259280
v -0.01696401 0.09963547 -0.11587671
v -0.01575853 0.10015680 -0.11576181
v -0.01575197 0.10014161 -0.11586571
v -0.01687601 0.09953914 -0.11665451
v -0.01573183 0.10009491 -0.11618461
v -0.01570551 0.10008571 -0.11629990
v -0.01685370 0.09953450 -0.11673691
v -0.01568930 0.10008001 -0.11637101
v -0.01679818 0.09952295 -0.11694201
v -0.01555811 0.10007650 -0.11669501
v -0.01657139 0.09953042 -0.11745801
v -0.01554933 0.10007631 -0.11671670
v -0.01652299 0.09953200 -0.11756811
v -0.01542053 0.10009231 -0.11691910
v -0.01629554 0.09956884 -0.11790771
v -0.01616085 0.09960029 -0.11804631
v -0.01532283 0.10011251 -0.11702340
v -0.01520477 0.10013691 -0.11714931
v -0.01583940 0.09967534 -0.11837710
v -0.01516633 0.10014480 -0.11719040
v -0.01564135 0.09972992 -0.11852231
v -0.01504849 0.10017441 -0.11728180
v -0.01559761 0.09974196 -0.11855440
v -0.01484988 0.10023131 -0.11738891
v -0.01500367 0.09992354 -0.11884801
v -0.01468785 0.10027761 -0.11747631
v -0.01498335 0.09992975 -0.11885811
v -0.01458867 0.10030841 -0.11751220
v -0.01477361 0.09999823 -0.11892331
v -0.01445744 0.10035190 -0.11753781
v -0.01425631 0.10017591 -0.11899441
v -0.01411556 0.10046531 -0.11760431
v -0.01400554 0.10026210 -0.11902881
v -0.01402761 0.10049601 -0.11760871
v -0.01382665 0.10032590 -0.11902640
v -0.01394452 0.10052540 -0.11760950
v -0.01382184 0.10032770 -0.11902560
v -0.01356247 0.10066661 -0.11756051
v -0.01308347 0.10060100 -0.11890471
v -0.01345162 0.10070750 -0.11754631
v -0.01307321 0.10060480 -0.11890301
v -0.01317686 0.10081640 -0.11745190
v -0.01095562 0.10176851 -0.11582431
v -0.01098403 0.10167650 -0.11632451
v -0.01217546 0.10136541 -0.11610541
v -0.01102527 0.10162211 -0.11658001
v -0.01222515 0.10131671 -0.11630291
v -0.01107184 0.10158490 -0.11672281
v -0.01227998 0.10126301 -0.11652070
v -0.01127173 0.10142540 -0.11733610
v -0.01236780 0.10120331 -0.11671210
v -0.01132664 0.10139210 -0.11744011
v -0.01237463 0.10119951 -0.11672181
v -0.01141103 0.10134101 -0.11760000
v -0.01260115 0.10107370 -0.11704220
v -0.01177276 0.10115541 -0.11806920
v -0.01261783 0.10106581 -0.11705761
v -0.01185548 0.10111290 -0.11817660
v -0.01279031 0.10098330 -0.11721680
v -0.01186666 0.10110781 -0.11818641
v -0.01281036 0.10097381 -0.11723530
v -0.01214282 0.10098270 -0.11842971
v -0.01314246 0.10083111 -0.11743161
v -0.01243631 0.10086100 -0.11860141
v -0.01275745 0.10072770 -0.11878921
v -0.01216157 0.10139641 -0.11594741
v -0.01216856 0.10141311 -0.11583541
v -0.01097389 0.10178940 -0.11566961
v -0.01218875 0.10146161 -0.11551171
v -0.01221412 0.10147251 -0.11540101
v -0.01105173 0.10187871 -0.11501070
v -0.01222999 0.10147931 -0.11533181
v -0.01110290 0.10189470 -0.11483111
v -0.01236223 0.10149331 -0.11500631
v -0.01113782 0.10190561 -0.11470851
v -0.01237305 0.10149450 -0.11497960
v -0.01140523 0.10192721 -0.11412990
v -0.01143034 0.10192920 -0.11407561
v -0.01251023 0.10148730 -0.11476751
v -0.01169387 0.10191491 -0.11370660
v -0.01259654 0.10147510 -0.11467740
v -0.01184115 0.10189451 -0.11356601
v -0.01271582 0.10145820 -0.11455291
v -0.01276705 0.10145090 -0.11449950
v -0.01216149 0.10185020 -0.11326021
v -0.01289747 0.10142540 -0.11440140
v -0.01233409 0.10181650 -0.11314470
v -0.01306951 0.10138380 -0.11431231
v -0.01244045 0.10179570 -0.11307351
v -0.01325641 0.10133860 -0.11421551
v -0.01397522 0.10111300 -0.11409180
v -0.01402979 0.10133520 -0.11267261
v -0.01383644 0.10116111 -0.11409501
v -0.01373676 0.10143091 -0.11270131
v -0.01346165 0.10127830 -0.11416150
v -0.01327187 0.10158261 -0.11274670
v -0.01336190 0.10130941 -0.11417920
v -0.01305373 0.10164500 -0.11280450
v -0.01298458 0.10166191 -0.11283481
v -0.01473861 0.10080980 -0.11424760
v -0.01493670 0.10097831 -0.11282660
v -0.01446855 0.10092521 -0.11415520
v -0.01481057 0.10102881 -0.11280170
v -0.01435705 0.10096760 -0.11414081
v -0.01419240 0.10127620 -0.11268010
v -0.01407287 0.10131961 -0.11267460
v -0.01574322 0.10019281 -0.11558771
v -0.01690521 0.09978154 -0.11517730
v -0.01569500 0.10024450 -0.11539821
v -0.01684450 0.09984176 -0.11497821
v -0.01563942 0.10030410 -0.11517961
v -0.01667647 0.10000840 -0.11442721
v -0.01554670 0.10037500 -0.11497941
v -0.01659280 0.10007231 -0.11426121
v -0.01554616 0.10037540 -0.11497870
v -0.01653391 0.10011721 -0.11414431
v -0.01530981 0.10052411 -0.11464950
v -0.01615056 0.10036380 -0.11363141
v -0.01530264 0.10052800 -0.11464290
v -0.01609164 0.10040161 -0.11355260
v -0.01512955 0.10062181 -0.11448420
v -0.01603424 0.10043390 -0.11349981
v -0.01511118 0.10063170 -0.11446741
v -0.01583979 0.10054300 -0.11332120
v -0.01477688 0.10079150 -0.11427011
v -0.01546249 0.10073091 -0.11308771
v -0.01521943 0.10085200 -0.11293731
v -0.01329361 0.10308040 -0.10390610
v -0.01318458 0.10286831 -0.10535580
v -0.01357073 0.10297210 -0.10400141
v -0.01320184 0.10286200 -0.10535871
v -0.01368065 0.10293220 -0.10401551
v -0.01393567 0.10259450 -0.10548091
v -0.01406273 0.10279320 -0.10406440
v -0.01393994 0.10259311 -0.10548091
v -0.01414288 0.10276541 -0.10406360
v -0.01411480 0.10253180 -0.10548381
v -0.01423122 0.10273520 -0.10405931
v -0.01437455 0.10244430 -0.10544890
v -0.01457572 0.10262330 -0.10399280
v -0.01488233 0.10227331 -0.10538070
v -0.01470386 0.10258160 -0.10396811
v -0.01509348 0.10220591 -0.10531581
v -0.01480389 0.10255130 -0.10393200
v -0.01512146 0.10219761 -0.10530211
v -0.01496810 0.10250560 -0.10384370
v -0.01570809 0.10202280 -0.10501430
v -0.01516452 0.10245090 -0.10373810
v -0.01575937 0.10200911 -0.10497690
v -0.01528355 0.10242190 -0.10364611
v -0.01595236 0.10195750 -0.10483620
v -0.01532290 0.10241420 -0.10360411
v -0.01627931 0.10188401 -0.10450141
v -0.01544107 0.10239081 -0.10347821
v -0.01640955 0.10185470 -0.10436800
v -0.01553802 0.10237170 -0.10337491
v -0.01663911 0.10181961 -0.10402661
v -0.01566766 0.10235680 -0.10317131
v -0.01668932 0.10181850 -0.10391270
v -0.01567634 0.10235711 -0.10314991
v -0.01691544 0.10181341 -0.10339981
v -0.01580777 0.10236220 -0.10282490
v -0.01697194 0.10182580 -0.10319181
v -0.01582374 0.10236800 -0.10275480
v -0.01699375 0.10183050 -0.10311140
v -0.01585016 0.10237780 -0.10263881
v -0.01107383 0.10402460 -0.10227910
v -0.01110194 0.10393200 -0.10277701
v -0.01229380 0.10362591 -0.10256131
v -0.01114278 0.10387751 -0.10303131
v -0.01234339 0.10357731 -0.10275770
v -0.01119032 0.10383941 -0.10317760
v -0.01239877 0.10352291 -0.10297700
v -0.01138900 0.10368010 -0.10378901
v -0.01248611 0.10346361 -0.10316720
v -0.01144483 0.10364631 -0.10389500
v -0.01249282 0.10345990 -0.10317670
v -0.01152697 0.10359661 -0.10405101
v -0.01271971 0.10333461 -0.10349740
v -0.01189075 0.10341060 -0.10452430
v -0.01273600 0.10332680 -0.10351250
v -0.01197096 0.10336960 -0.10462871
v -0.01290845 0.10324501 -0.10367180
v -0.01198502 0.10336330 -0.10464110
v -0.01292756 0.10323600 -0.10368940
v -0.01225527 0.10324170 -0.10488021
v -0.01326058 0.10309440 -0.10388660
v -0.01255456 0.10311870 -0.10505630
v -0.01286849 0.10298980 -0.10524100
v -0.01227986 0.10365710 -0.10240381
v -0.01228687 0.10367441 -0.10229030
v -0.01109213 0.10404600 -0.10212450
v -0.01230685 0.10372371 -0.10196721
v -0.01233232 0.10373510 -0.10185591
v -0.01117023 0.10413750 -0.10146441
v -0.01234799 0.10374211 -0.10178740
v -0.01122114 0.10415400 -0.10128601
v -0.01248042 0.10375770 -0.10146110
v -0.01125664 0.10416561 -0.10116160
v -0.01249111 0.10375891 -0.10143480
v -0.01152364 0.10418980 -0.10058490
v -0.01154976 0.10419220 -0.10052851
v -0.01262893 0.10375300 -0.10122171
v -0.01181482 0.10417991 -0.10015821
v -0.01271472 0.10374151 -0.10113231
v -0.01283406 0.10372551 -0.10100780
v -0.01195922 0.10416101 -0.10002080
v -0.01288591 0.10371850 -0.10095380
v -0.01228293 0.10411850 -0.09971264
v -0.01301724 0.10369371 -0.10085521
v -0.01245236 0.10408641 -0.09959964
v -0.01318769 0.10365361 -0.10076720
v -0.01409343 0.10338850 -0.10054661
v -0.01415293 0.10361371 -0.09912758
v -0.01395613 0.10343531 -0.10054980
v -0.01385492 0.10370940 -0.09915622
v -0.01357980 0.10355070 -0.10061621
v -0.01339581 0.10385691 -0.09920032
v -0.01348228 0.10358060 -0.10063340
v -0.01317679 0.10391820 -0.09925789
v -0.01337614 0.10360930 -0.10066980
v -0.01310295 0.10393590 -0.09929010
v -0.01256350 0.10406540 -0.09952549
v -0.01485828 0.10308900 -0.10070311
v -0.01505847 0.10326211 -0.09928261
v -0.01458578 0.10320391 -0.10060981
v -0.01492871 0.10331331 -0.09925689
v -0.01447529 0.10324531 -0.10059560
v -0.01431614 0.10355540 -0.09913540
v -0.01419109 0.10360010 -0.09912941
v -0.01587004 0.10242521 -0.10232051
v -0.01708222 0.10192891 -0.10233160
v -0.01587665 0.10244091 -0.10221470
v -0.01706473 0.10200641 -0.10192940
v -0.01586130 0.10247690 -0.10204161
v -0.01702356 0.10207551 -0.10163301
v -0.01581318 0.10252840 -0.10185300
v -0.01696262 0.10213581 -0.10143310
v -0.01575699 0.10258861 -0.10163290
v -0.01679440 0.10230240 -0.10088141
v -0.01566487 0.10265880 -0.10143420
v -0.01671107 0.10236570 -0.10071601
v -0.01566438 0.10265911 -0.10143361
v -0.01665302 0.10240980 -0.10060071
v -0.01542779 0.10280700 -0.10110411
v -0.01626888 0.10265520 -0.10008620
v -0.01542087 0.10281070 -0.10109781
v -0.01621095 0.10269220 -0.10000860
v -0.01524782 0.10290361 -0.10093901
v -0.01615243 0.10272480 -0.09995473
v -0.01523022 0.10291311 -0.10092290
v -0.01596072 0.10283150 -0.09977833
v -0.01489517 0.10307161 -0.10072480
v -0.01558077 0.10301890 -0.09954242
v -0.01534172 0.10313691 -0.09939397
v -0.01353464 0.10204101 -0.10952910
v -0.01349640 0.10198980 -0.10990590
v -0.01412358 0.10161210 -0.11085190
v -0.01348226 0.10198481 -0.10996380
v -0.01347826 0.10198430 -0.10997400
v -0.01338989 0.10197541 -0.11020100
v -0.01338625 0.10197571 -0.11020630
v -0.01333780 0.10198001 -0.11027650
v -0.01405356 0.10161010 -0.11100811
v -0.01330188 0.10198311 -0.11032850
v -0.01396277 0.10160760 -0.11121061
v -0.01326017 0.10198961 -0.11037201
v -0.01388346 0.10161451 -0.11133261
v -0.01324044 0.10199360 -0.11038681
v -0.01387701 0.10161551 -0.11133970
v -0.01315132 0.10201171 -0.11045340
v -0.01366444 0.10164870 -0.11157631
v -0.01364374 0.10165310 -0.11159201
v -0.01311493 0.10202060 -0.11047130
v -0.01349616 0.10168431 -0.11170391
v -0.01308159 0.10202871 -0.11048781
v -0.01335640 0.10171960 -0.11177160
v -0.01297431 0.10205871 -0.11051641
v -0.01319250 0.10176101 -0.11185090
v -0.01308214 0.10179171 -0.11188421
v -0.01291689 0.10207480 -0.11053180
v -0.01303508 0.10180591 -0.11188981
v -0.01285507 0.10209360 -0.11053801
v -0.01262901 0.10192860 -0.11193770
v -0.01278726 0.10211500 -0.11053991
v -0.01264688 0.10216240 -0.11052321
v -0.01237591 0.10201261 -0.11190661
v -0.01259342 0.10218040 -0.11051690
v -0.01223088 0.10206080 -0.11188881
v -0.01210245 0.10210640 -0.11185000
v -0.01253315 0.10220231 -0.11049891
v -0.01204956 0.10212671 -0.11182351
v -0.01180444 0.10222081 -0.11170041
v -0.01250246 0.10221451 -0.11048381
v -0.01175501 0.10224190 -0.11166131
v -0.01240340 0.10225361 -0.11043480
v -0.01164329 0.10228960 -0.11157271
v -0.01237583 0.10226561 -0.11041421
v -0.01152650 0.10234691 -0.11143220
v -0.01235465 0.10227481 -0.11039850
v -0.01140095 0.10240851 -0.11128110
v -0.01227954 0.10231160 -0.11031711
v -0.01135137 0.10243641 -0.11119921
v -0.01129540 0.10247571 -0.11105900
v -0.01225001 0.10232611 -0.11028511
v -0.01113575 0.10258790 -0.11065921
v -0.01222100 0.10234240 -0.11024110
v -0.01218334 0.10236860 -0.11015381
v -0.01110646 0.10261700 -0.11053470
v -0.01212701 0.10240780 -0.11002321
v -0.01109270 0.10263070 -0.11047620
v -0.01207174 0.10277720 -0.10793991
v -0.01103774 0.10333201 -0.10641291
v -0.01205877 0.10252941 -0.10942631
v -0.01101062 0.10281450 -0.10952011
v -0.01210487 0.10243200 -0.10992010
v -0.01210769 0.10242601 -0.10995041
v -0.01487275 0.10146161 -0.11013910
v -0.01484356 0.10147631 -0.11011651
v -0.01354374 0.10205320 -0.10943931
v -0.01477626 0.10151420 -0.11004071
v -0.01473817 0.10153570 -0.10999771
v -0.01471120 0.10155291 -0.10995530
v -0.01467930 0.10157770 -0.10987880
v -0.01461882 0.10162461 -0.10973381
v -0.01459947 0.10164480 -0.10965690
v -0.01456953 0.10194551 -0.10796171
v -0.01355672 0.10230191 -0.10795291
v -0.01455866 0.10173651 -0.10920761
v -0.01459895 0.10164601 -0.10965120
v -0.01542515 0.10188491 -0.10645111
v -0.01598566 0.10140330 -0.10797410
v -0.01704616 0.10122631 -0.10646531
v -0.01702054 0.10072941 -0.10940081
v -0.01597479 0.10119330 -0.10921991
v -0.01596783 0.10118561 -0.10928131
v -0.01694824 0.10063540 -0.11012350
v -0.01592086 0.10113311 -0.10969581
v -0.01591503 0.10113260 -0.10971200
v -0.01693778 0.10062181 -0.11022811
v -0.01584494 0.10112710 -0.10990671
v -0.01687893 0.10060650 -0.11046151
v -0.01574924 0.10113961 -0.11005461
v -0.01670131 0.10060631 -0.11089801
v -0.01676177 0.10060640 -0.11074940
v -0.01583216 0.10112790 -0.10993151
v -0.01582757 0.10112861 -0.10993831
v -0.01577771 0.10113560 -0.11001230
v -0.01665740 0.10061151 -0.11097471
v -0.01571056 0.10114780 -0.11009620
v -0.01656844 0.10062831 -0.11109240
v -0.01645317 0.10065011 -0.11124491
v -0.01568425 0.10115461 -0.11011651
v -0.01635615 0.10067411 -0.11133800
v -0.01560848 0.10117431 -0.11017521
v -0.01635083 0.10067570 -0.11134170
v -0.01539097 0.10124570 -0.11025200
v -0.01562269 0.10091530 -0.11165291
v -0.01543460 0.10123091 -0.11023961
v -0.01578739 0.10085640 -0.11161471
v -0.01554328 0.10119401 -0.11020871
v -0.01595872 0.10079510 -0.11157490
v -0.01556653 0.10118700 -0.11019681
v -0.01607987 0.10075551 -0.11152090
v -0.01610573 0.10074701 -0.11150940
v -0.01526194 0.10129381 -0.11026101
v -0.01523085 0.10107000 -0.11163481
v -0.01533305 0.10126690 -0.11025870
v -0.01543852 0.10098571 -0.11166180
v -0.01555259 0.10094181 -0.11165880
v -0.01502119 0.10139210 -0.11022040
v -0.01458286 0.10135441 -0.11139351
v -0.01508033 0.10136670 -0.11023861
v -0.01488100 0.10121660 -0.11155411
v -0.01514045 0.10134250 -0.11024601
v -0.01489646 0.10120951 -0.11156251
v -0.01504728 0.10114441 -0.11161101
v -0.01489235 0.10145170 -0.11015420
v -0.01418880 0.10156930 -0.11096721
v -0.01434023 0.10148291 -0.11115530
v -0.01499903 0.10140240 -0.11020900
v -0.01442877 0.10143241 -0.11126530
v -0.01457930 0.10135621 -0.11139061
v -0.01112141 0.10494970 -0.09682663
v -0.01110638 0.10465571 -0.09854916
v -0.01282021 0.10460601 -0.09595444
v -0.01310009 0.10428051 -0.09731280
v -0.01594645 0.10371380 -0.09478766
v -0.01593641 0.10351420 -0.09593889
v -0.01713792 0.10302571 -0.09594938
v -0.01590944 0.10347651 -0.09621255
v -0.01707571 0.10293950 -0.09658413
v -0.01590544 0.10347091 -0.09625310
v -0.01706319 0.10292221 -0.09671184
v -0.01585650 0.10345940 -0.09642640
v -0.01694458 0.10289701 -0.09713530
v -0.01583086 0.10346020 -0.09647850
v -0.01688933 0.10289981 -0.09724872
v -0.01577142 0.10346190 -0.09659935
v -0.01573790 0.10346641 -0.09664762
v -0.01674005 0.10290761 -0.09755516
v -0.01573415 0.10346691 -0.09665300
v -0.01666914 0.10291851 -0.09765864
v -0.01561788 0.10349000 -0.09677530
v -0.01665531 0.10292061 -0.09767882
v -0.01336320 0.10412800 -0.09769819
v -0.01357315 0.10401870 -0.09793030
v -0.01436633 0.10394720 -0.09678689
v -0.01366409 0.10397620 -0.09800004
v -0.01443078 0.10391681 -0.09683107
v -0.01372457 0.10394790 -0.09804639
v -0.01452060 0.10387771 -0.09687159
v -0.01405185 0.10380700 -0.09821457
v -0.01462571 0.10383210 -0.09691900
v -0.01414918 0.10376500 -0.09826458
v -0.01467785 0.10381080 -0.09693387
v -0.01437519 0.10367390 -0.09833423
v -0.01472101 0.10379420 -0.09693914
v -0.01452535 0.10361660 -0.09835242
v -0.01498288 0.10369350 -0.09697110
v -0.01502200 0.10342711 -0.09841259
v -0.01505197 0.10366830 -0.09697011
v -0.01512707 0.10338840 -0.09841163
v -0.01526310 0.10359571 -0.09693638
v -0.01561217 0.10321740 -0.09833942
v -0.01533664 0.10357040 -0.09692463
v -0.01571648 0.10318061 -0.09832390
v -0.01537400 0.10355851 -0.09691237
v -0.01582314 0.10314531 -0.09828975
v -0.01545889 0.10353360 -0.09687082
v -0.01603120 0.10308140 -0.09818750
v -0.01554726 0.10350780 -0.09682757
v -0.01621174 0.10302591 -0.09809875
v -0.01561191 0.10349151 -0.09677971
v -0.01637563 0.10298180 -0.09797590
v -0.01638491 0.10297941 -0.09796892
v -0.01435451 0.10395340 -0.09677521
v -0.01423594 0.10401530 -0.09665810
v -0.01325956 0.10418200 -0.09758362
v -0.01422830 0.10401931 -0.09665056
v -0.01314799 0.10424910 -0.09740454
v -0.01417013 0.10405440 -0.09656566
v -0.01413766 0.10407860 -0.09649094
v -0.01407732 0.10412381 -0.09635209
v -0.01406454 0.10413620 -0.09630620
v -0.01405944 0.10414521 -0.09626516
v -0.01402222 0.10421030 -0.09596630
v -0.01283063 0.10481200 -0.09476046
v -0.01403214 0.10441700 -0.09477095
v -0.01402209 0.10421811 -0.09592218
v -0.01113957 0.10530751 -0.09474572
v -0.01115282 0.10557061 -0.09322777
v -0.01559347 0.10411970 -0.09326654
v -0.01716122 0.10349090 -0.09328022
v -0.01230429 0.10614531 -0.08818393
v -0.01346690 0.10586210 -0.08775045
v -0.01232706 0.10661580 -0.08557448
v -0.01348194 0.10617280 -0.08602794
v -0.01720937 0.10447091 -0.08775756
v -0.01569740 0.10522811 -0.08691706
v -0.01280346 0.10574550 -0.08955723
v -0.01117909 0.10609751 -0.09022075
v -0.01119324 0.10638511 -0.08860038
v -0.01122352 0.10701101 -0.08512983
v -0.01123714 0.10729731 -0.08356916
v -0.01573788 0.10546611 -0.08554493
v -0.01722299 0.10475310 -0.08619690
v -0.01362751 0.10722741 -0.08017028
v -0.01726229 0.10558361 -0.08169448
v -0.01275035 0.10765990 -0.07936946
v -0.01468141 0.10702031 -0.07938630
v -0.01724695 0.10525651 -0.08345115
v -0.01477725 0.10663491 -0.08121222
v -0.01123737 0.10730201 -0.08354361
v -0.01125322 0.10763971 -0.08172728
v -0.01728223 0.10601571 -0.07940900
v -0.01729548 0.10630730 -0.07789109
v -0.01127391 0.10808810 -0.07935656
v -0.01128715 0.10838010 -0.07783866
v -0.01576992 0.10691650 -0.07787777
v -0.01134565 0.10972291 -0.07113570
v -0.01133322 0.10942971 -0.07255980
v -0.01584555 0.10824840 -0.07117498
v -0.01503272 0.10825410 -0.07259208
v -0.01735397 0.10764531 -0.07118814
v -0.01730590 0.10653930 -0.07669712
v -0.01731825 0.10681781 -0.07528135
v -0.01287189 0.10815381 -0.07665842
v -0.01361038 0.10820080 -0.07524900
v -0.01129757 0.10861261 -0.07664470
v -0.01130926 0.10887671 -0.07530581
v -0.01734229 0.10737080 -0.07252700
v -0.01247394 0.10991001 -0.06874379
v -0.01363656 0.10964000 -0.06831029
v -0.01249671 0.11047641 -0.06613434
v -0.01365159 0.11001330 -0.06658779
v -0.01737903 0.10824801 -0.06831742
v -0.01586705 0.10903361 -0.06747692
v -0.01292654 0.10947420 -0.07013613
v -0.01134875 0.10979680 -0.07078060
v -0.01136289 0.11013781 -0.06916024
v -0.01139318 0.11089241 -0.06568969
v -0.01140680 0.11124411 -0.06412902
v -0.01603364 0.10926191 -0.06616015
v -0.01739265 0.10858530 -0.06675674
v -0.01433438 0.11129201 -0.06013765
v -0.01313289 0.11168901 -0.06012717
v -0.01312247 0.11140120 -0.06132112
v -0.01142369 0.11169230 -0.06219330
v -0.01140866 0.11129281 -0.06391581
v -0.01340235 0.11098830 -0.06267947
v -0.01624868 0.11058990 -0.06015436
v -0.01623863 0.11031211 -0.06130557
v -0.01744013 0.10982750 -0.06131605
v -0.01621171 0.11025641 -0.06157918
v -0.01737813 0.10970021 -0.06195066
v -0.01620778 0.11024830 -0.06161924
v -0.01736586 0.10967511 -0.06207622
v -0.01615655 0.11022481 -0.06179886
v -0.01724265 0.10962170 -0.06251311
v -0.01613341 0.11022261 -0.06184531
v -0.01719223 0.10961800 -0.06261567
v -0.01607197 0.11021670 -0.06196864
v -0.01604012 0.11021791 -0.06201428
v -0.01703981 0.10960691 -0.06292570
v -0.01603618 0.11021811 -0.06201993
v -0.01697144 0.10961120 -0.06302536
v -0.01592279 0.11023270 -0.06213971
v -0.01695900 0.10961200 -0.06304350
v -0.01669556 0.10965091 -0.06332833
v -0.01667749 0.10965490 -0.06334207
v -0.01591404 0.11023450 -0.06214626
v -0.01652477 0.10968831 -0.06345827
v -0.01585274 0.11024681 -0.06219210
v -0.01633363 0.10974041 -0.06355473
v -0.01576126 0.11027041 -0.06223782
v -0.01614902 0.10979071 -0.06364790
v -0.01568526 0.11028991 -0.06227581
v -0.01604158 0.10982371 -0.06368378
v -0.01564719 0.11030111 -0.06228872
v -0.01591397 0.10986690 -0.06370440
v -0.01546426 0.11001941 -0.06377708
v -0.01556521 0.11032821 -0.06230268
v -0.01532423 0.11007040 -0.06377925
v -0.01536880 0.11039290 -0.06233613
v -0.01528512 0.11042321 -0.06233777
v -0.01482762 0.11026261 -0.06371904
v -0.01502324 0.11052550 -0.06230588
v -0.01467707 0.11032091 -0.06370079
v -0.01498082 0.11054210 -0.06230072
v -0.01445373 0.11041471 -0.06363209
v -0.01492882 0.11056411 -0.06228595
v -0.01435429 0.11046051 -0.06358095
v -0.01482293 0.11061310 -0.06223815
v -0.01402405 0.11061261 -0.06341114
v -0.01473200 0.11065510 -0.06219711
v -0.01396638 0.11064220 -0.06336664
v -0.01466553 0.11068931 -0.06215121
v -0.01386940 0.11069211 -0.06329180
v -0.01366636 0.11081211 -0.06306408
v -0.01437544 0.11089680 -0.06170473
v -0.01436374 0.11091141 -0.06166069
v -0.01465649 0.11069471 -0.06214215
v -0.01453885 0.11076391 -0.06202412
v -0.01355120 0.11088021 -0.06293493
v -0.01452551 0.11077170 -0.06201074
v -0.01344322 0.11095660 -0.06275838
v -0.01446896 0.11081141 -0.06192654
v -0.01443989 0.11083800 -0.06185761
v -0.01436070 0.11091930 -0.06163199
v -0.01432434 0.11101451 -0.06128886
v -0.01144185 0.11219021 -0.06011241
v -0.01145510 0.11256491 -0.05859449
v -0.01601509 0.11106070 -0.05863428
v -0.01746342 0.11048170 -0.05864692
v -0.01629363 0.11191150 -0.05500348
v -0.01626825 0.11114881 -0.05791135
v -0.01746975 0.11066540 -0.05792183
v -0.01367782 0.11213640 -0.05765859
v -0.01487960 0.11172520 -0.05766908
v -0.01370119 0.11283731 -0.05498085
v -0.01490297 0.11242730 -0.05499134
v -0.01148680 0.11350490 -0.05496153
v -0.01150005 0.11391720 -0.05344361
v -0.01608744 0.11241250 -0.05348365
v -0.01750838 0.11184851 -0.05349605
v -0.01433801 0.09716278 -0.13623740
v -0.01332993 0.09766917 -0.13545121
v -0.01306189 0.09758516 -0.13645071
v -0.01403374 0.09708329 -0.13732371
v -0.01445479 0.09719168 -0.13582461
v -0.01451128 0.09720565 -0.13562490
v -0.01355060 0.09770289 -0.13481800
v -0.01460649 0.09720392 -0.13542821
v -0.01359548 0.09770975 -0.13468920
v -0.01464871 0.09720315 -0.13534101
v -0.01370493 0.09770660 -0.13448461
v -0.01467641 0.09719944 -0.13530161
v -0.01470997 0.09719275 -0.13526580
v -0.01380303 0.09769417 -0.13435320
v -0.01477249 0.09718029 -0.13519910
v -0.01392209 0.09767910 -0.13419370
v -0.01400390 0.09766333 -0.13411301
v -0.01478752 0.09717637 -0.13518810
v -0.01404330 0.09765372 -0.13408451
v -0.01424650 0.09760416 -0.13393801
v -0.01481736 0.09716861 -0.13516631
v -0.01430295 0.09758761 -0.13391141
v -0.01487445 0.09715114 -0.13513851
v -0.01440362 0.09755806 -0.13386400
v -0.01460478 0.09748967 -0.13381451
v -0.01490653 0.09714132 -0.13512290
v -0.01476202 0.09743618 -0.13377581
v -0.01494686 0.09712746 -0.13511141
v -0.01489513 0.09738614 -0.13376501
v -0.01496574 0.09712034 -0.13510941
v -0.01499881 0.09734565 -0.13376321
v -0.01505340 0.09708728 -0.13510010
v -0.01519072 0.09726423 -0.13378861
v -0.01302656 0.09757408 -0.13658240
v -0.01292412 0.09757158 -0.13679320
v -0.01398836 0.09708407 -0.13741271
v -0.01288382 0.09757058 -0.13687611
v -0.01376993 0.09708781 -0.13784110
v -0.01285556 0.09757309 -0.13691590
v -0.01281943 0.09757850 -0.13695400
v -0.01373988 0.09709234 -0.13787641
v -0.01275652 0.09758790 -0.13702030
v -0.01355296 0.09712046 -0.13809650
v -0.01349899 0.09713145 -0.13814271
v -0.01274320 0.09759063 -0.13702991
v -0.01345565 0.09714029 -0.13817971
v -0.01324020 0.09719297 -0.13830871
v -0.01271225 0.09759701 -0.13705231
v -0.01319811 0.09720327 -0.13833390
v -0.01265410 0.09761139 -0.13708021
v -0.01305104 0.09724428 -0.13838921
v -0.01262082 0.09761963 -0.13709621
v -0.01294593 0.09727672 -0.13840681
v -0.01257967 0.09763118 -0.13710790
v -0.01266374 0.09736383 -0.13845420
v -0.01256026 0.09763720 -0.13710990
v -0.01255912 0.09739821 -0.13845611
v -0.01247126 0.09766479 -0.13711921
v -0.01238162 0.09745997 -0.13843291
v -0.01215488 0.09753886 -0.13840331
v -0.01237401 0.09769816 -0.13710981
v -0.01200699 0.09759411 -0.13835641
v -0.01199923 0.09759700 -0.13835401
v -0.01234916 0.09770762 -0.13710171
v -0.01165931 0.09773436 -0.13817411
v -0.01225723 0.09774263 -0.13707171
v -0.01165108 0.09773771 -0.13816970
v -0.01224459 0.09774791 -0.13706481
v -0.01151215 0.09779934 -0.13806000
v -0.01221325 0.09776098 -0.13704771
v -0.01216758 0.09778206 -0.13701081
v -0.01137882 0.09786603 -0.13790731
v -0.01211657 0.09780562 -0.13696961
v -0.01121810 0.09794643 -0.13772341
v -0.01207801 0.09782625 -0.13692191
v -0.01115545 0.09798221 -0.13762481
v -0.01204883 0.09784186 -0.13688590
v -0.01110523 0.09801745 -0.13750741
v -0.01198985 0.09788047 -0.13677241
v -0.01091544 0.09815062 -0.13706330
v -0.01196492 0.09789679 -0.13672440
v -0.01088912 0.09817654 -0.13695861
v -0.01190266 0.09795700 -0.13649351
v -0.01086073 0.09820453 -0.13684571
v -0.01189044 0.09796882 -0.13644820
v -0.01077975 0.09838047 -0.13597561
v -0.01185847 0.09805891 -0.13599340
v -0.01186365 0.09808403 -0.13584171
v -0.01083978 0.09848954 -0.13525741
v -0.01197543 0.09816202 -0.13519981
v -0.01090831 0.09852099 -0.13496630
v -0.01199287 0.09817421 -0.13509971
v -0.01100591 0.09856579 -0.13455170
v -0.01218562 0.09820394 -0.13458341
v -0.01248099 0.09819680 -0.13408150
v -0.01147243 0.09859272 -0.13361611
v -0.01225981 0.09820215 -0.13445731
v -0.01126022 0.09859832 -0.13394361
v -0.01121507 0.09859254 -0.13405161
v -0.01542258 0.09716587 -0.13381920
v -0.01516059 0.09704267 -0.13511040
v -0.01556906 0.09709753 -0.13386651
v -0.01518948 0.09702964 -0.13511831
v -0.01558555 0.09708985 -0.13387191
v -0.01524339 0.09700538 -0.13513291
v -0.01591460 0.09692100 -0.13405080
v -0.01530353 0.09697549 -0.13516410
v -0.01594392 0.09690596 -0.13406681
v -0.01536509 0.09694491 -0.13519601
v -0.01608895 0.09682332 -0.13418581
v -0.01541512 0.09691697 -0.13523841
v -0.01619468 0.09675518 -0.13431301
v -0.01544312 0.09690133 -0.13526221
v -0.01638167 0.09663466 -0.13453800
v -0.01550870 0.09685920 -0.13534771
v -0.01644818 0.09658574 -0.13464971
v -0.01553987 0.09683916 -0.13538840
v -0.01646993 0.09656624 -0.13470521
v -0.01554311 0.09683645 -0.13539611
v -0.01667362 0.09638367 -0.13522480
v -0.01562291 0.09676960 -0.13558611
v -0.01564218 0.09675347 -0.13563201
v -0.01667889 0.09637706 -0.13524860
v -0.01566972 0.09672149 -0.13574711
v -0.01672407 0.09632042 -0.13545261
v -0.01568804 0.09667402 -0.13597010
v -0.01678642 0.09615342 -0.13622730
v -0.01570770 0.09662304 -0.13620951
v -0.01570418 0.09660373 -0.13632561
v -0.01676102 0.09610000 -0.13658701
v -0.01562283 0.09654850 -0.13682270
v -0.01674624 0.09606891 -0.13679621
v -0.01560060 0.09653341 -0.13695850
v -0.01523714 0.09652855 -0.13781551
v -0.01625445 0.09602511 -0.13823951
v -0.01537103 0.09652176 -0.13754920
v -0.01639310 0.09600872 -0.13799561
v -0.01544667 0.09651793 -0.13739881
v -0.01654883 0.09601453 -0.13758300
v -0.01663318 0.09601768 -0.13735950
f 1 2 3
f 1 3 4
f 3 5 4
f 4 5 6
f 7 8 9
f 10 11 12
f 13 10 14
f 10 12 14
f 14 12 15
f 12 16 15
f 15 16 17
f 16 18 17
f 17 18 19
f 18 20 19
f 19 20 21
f 20 22 21
f 21 22 23
f 22 24 23
f 23 24 25
f 24 26 25
f 25 26 27
f 26 28 27
f 27 28 29
f 28 30 29
f 29 30 31
f 30 32 31
f 31 32 33
f 32 34 33
f 33 34 35
f 34 36 35
f 35 36 37
f 36 38 37
f 37 38 39
f 38 40 39
f 39 40 41
f 40 42 41
f 41 42 43
f 42 44 43
f 43 44 45
f 44 46 45
f 45 46 47
f 46 48 47
f 47 48 49
f 48 50 49
f 49 50 51
f 50 52 51
f 51 52 53
f 52 54 53
f 53 54 55
f 55 54 56
f 54 57 56
f 56 57 58
f 57 59 58
f 58 59 60
f 59 61 60
f 60 61 62
f 61 63 62
f 62 63 64
f 63 65 64
f 64 65 66
f 65 67 66
f 66 67 68
f 67 69 68
f 68 69 70
f 69 71 70
f 70 71 72
f 71 73 72
f 72 73 74
f 73 75 74
f 74 75 76
f 75 77 76
f 76 77 78
f 79 7 80
f 7 9 80
f 80 9 81
f 9 82 81
f 81 82 83
f 82 84 83
f 83 84 85
f 84 86 85
f 85 86 87
f 86 88 87
f 87 88 89
f 88 90 89
f 89 90 91
f 90 92 91
f 91 92 93
f 92 78 93
f 93 78 94
f 78 77 94
f 95 96 97
f 98 99 97
f 99 100 97
f 97 100 95
f 100 101 95
f 95 101 102
f 101 103 102
f 102 103 104
f 105 106 107
f 105 107 108
f 107 109 108
f 109 110 108
f 108 110 111
f 110 112 111
f 111 112 113
f 112 114 113
f 113 114 115
f 114 116 115
f 115 116 117
f 116 118 117
f 117 118 119
f 118 120 119
f 118 121 120
f 121 122 120
f 120 122 123
f 122 124 123
f 123 124 125
f 124 126 125
f 125 126 127
f 126 128 127
f 127 128 129
f 128 130 129
f 129 130 131
f 130 132 131
f 131 132 133
f 132 134 133
f 133 134 135
f 134 136 135
f 135 136 137
f 136 138 137
f 137 138 139
f 138 140 139
f 139 140 141
f 140 142 141
f 141 142 143
f 142 144 143
f 143 144 145
f 144 146 145
f 147 148 149
f 148 150 149
f 149 150 151
f 150 152 151
f 151 152 153
f 152 154 153
f 153 154 155
f 154 156 155
f 155 156 157
f 156 158 157
f 157 158 159
f 158 160 159
f 159 160 161
f 160 162 161
f 161 162 163
f 162 164 163
f 163 164 165
f 164 166 165
f 165 166 167
f 166 168 167
f 167 168 146
f 168 169 146
f 146 169 145
f 149 170 147
f 170 171 147
f 147 171 172
f 171 173 172
f 173 174 172
f 172 174 175
f 174 176 175
f 175 176 177
f 176 178 177
f 177 178 179
f 178 180 179
f 179 180 181
f 181 180 182
f 180 183 182
f 182 183 184
f 183 185 184
f 184 185 186
f 185 187 186
f 187 188 186
f 186 188 189
f 188 190 189
f 189 190 191
f 190 192 191
f 191 192 193
f 192 194 193
f 195 196 197
f 196 198 197
f 197 198 199
f 198 200 199
f 199 200 201
f 200 202 201
f 201 202 194
f 202 203 194
f 194 203 193
f 204 205 206
f 205 207 206
f 206 207 208
f 207 209 208
f 208 209 195
f 209 210 195
f 195 210 196
f 106 105 211
f 105 212 211
f 211 212 213
f 212 214 213
f 213 214 215
f 214 216 215
f 215 216 217
f 216 218 217
f 217 218 219
f 218 220 219
f 219 220 221
f 220 222 221
f 221 222 223
f 222 224 223
f 223 224 225
f 224 226 225
f 225 226 227
f 226 228 227
f 227 228 229
f 228 230 229
f 229 230 204
f 230 231 204
f 204 231 205
f 232 233 234
f 233 235 234
f 234 235 236
f 235 237 236
f 236 237 238
f 237 239 238
f 238 239 240
f 239 241 240
f 240 241 242
f 241 243 242
f 242 243 244
f 243 245 244
f 244 245 246
f 245 247 246
f 246 247 248
f 247 249 248
f 248 249 250
f 249 251 250
f 250 251 252
f 251 253 252
f 252 253 254
f 253 255 254
f 254 255 256
f 255 257 256
f 256 257 258
f 257 259 258
f 258 259 260
f 259 261 260
f 260 261 262
f 261 263 262
f 262 263 264
f 263 265 264
f 264 265 266
f 265 267 266
f 266 267 268
f 267 269 268
f 268 269 270
f 271 272 273
f 272 274 273
f 273 274 275
f 274 276 275
f 275 276 277
f 276 278 277
f 277 278 279
f 278 280 279
f 279 280 281
f 280 282 281
f 281 282 283
f 282 284 283
f 283 284 285
f 284 286 285
f 285 286 287
f 286 288 287
f 287 288 289
f 288 290 289
f 289 290 291
f 290 292 291
f 291 292 232
f 292 293 232
f 232 293 233
f 273 294 271
f 294 295 271
f 271 295 296
f 295 297 296
f 297 298 296
f 296 298 299
f 298 300 299
f 299 300 301
f 300 302 301
f 301 302 303
f 302 304 303
f 303 304 305
f 305 304 306
f 304 307 306
f 306 307 308
f 307 309 308
f 309 310 308
f 308 310 311
f 310 312 311
f 311 312 313
f 312 314 313
f 313 314 315
f 314 316 315
f 317 318 319
f 318 320 319
f 319 320 321
f 320 322 321
f 321 322 323
f 322 324 323
f 323 324 325
f 324 326 325
f 325 326 316
f 326 327 316
f 316 327 315
f 328 329 330
f 329 331 330
f 330 331 332
f 331 333 332
f 332 333 317
f 333 334 317
f 317 334 318
f 270 269 335
f 269 336 335
f 335 336 337
f 336 338 337
f 337 338 339
f 338 340 339
f 339 340 341
f 340 342 341
f 341 342 343
f 342 344 343
f 343 344 345
f 344 346 345
f 345 346 347
f 346 348 347
f 347 348 349
f 348 350 349
f 349 350 351
f 350 352 351
f 351 352 353
f 352 354 353
f 353 354 355
f 354 356 355
f 355 356 357
f 356 358 357
f 357 358 328
f 358 359 328
f 328 359 329
f 360 361 362
f 361 363 362
f 363 364 362
f 362 364 365
f 365 366 362
f 366 367 362
f 362 367 368
f 367 369 368
f 368 369 370
f 369 371 370
f 370 371 372
f 371 373 372
f 372 373 374
f 373 375 374
f 374 375 376
f 376 375 377
f 375 378 377
f 377 378 379
f 378 380 379
f 379 380 381
f 380 382 381
f 381 382 383
f 383 382 384
f 382 385 384
f 384 385 386
f 385 387 386
f 386 387 388
f 387 389 388
f 389 390 388
f 388 390 391
f 390 392 391
f 391 392 393
f 393 392 394
f 392 395 394
f 394 395 396
f 396 395 397
f 395 398 397
f 397 398 399
f 398 400 399
f 399 400 401
f 400 402 401
f 401 402 403
f 402 404 403
f 403 404 405
f 404 406 405
f 405 406 407
f 407 406 408
f 406 409 408
f 408 409 410
f 409 411 410
f 411 412 410
f 410 412 413
f 412 414 413
f 413 414 415
f 416 417 418
f 417 419 418
f 418 419 420
f 419 415 420
f 420 415 421
f 415 414 421
f 422 423 424
f 423 425 424
f 425 426 424
f 424 426 427
f 427 428 424
f 428 429 424
f 424 429 430
f 431 432 433
f 432 424 433
f 433 424 434
f 424 430 434
f 416 432 417
f 432 431 417
f 417 431 435
f 431 436 435
f 435 436 437
f 436 438 437
f 436 439 438
f 439 440 438
f 438 440 441
f 440 442 441
f 442 443 441
f 441 443 444
f 443 445 444
f 444 445 446
f 447 448 449
f 445 450 446
f 450 451 446
f 446 451 449
f 451 452 449
f 449 452 447
f 448 447 453
f 447 454 453
f 453 454 455
f 455 454 456
f 454 457 456
f 456 457 458
f 457 459 458
f 458 459 460
f 461 462 463
f 462 464 463
f 463 464 465
f 464 466 465
f 465 466 467
f 466 468 467
f 467 468 459
f 468 469 459
f 459 469 460
f 470 471 472
f 471 473 472
f 472 473 461
f 473 474 461
f 461 474 462
f 475 476 477
f 476 478 477
f 477 478 479
f 478 480 479
f 479 480 470
f 480 481 470
f 470 481 471
f 360 362 424
f 362 482 424
f 424 482 422
f 362 483 482
f 483 484 482
f 482 484 485
f 484 486 485
f 485 486 475
f 486 487 475
f 475 487 476
f 488 489 490
f 489 491 490
f 492 493 494
f 493 495 494
f 494 495 496
f 495 497 496
f 496 497 498
f 497 499 498
f 498 499 500
f 499 501 500
f 500 501 502
f 501 503 502
f 503 504 502
f 502 504 505
f 504 506 505
f 505 506 507
f 506 508 507
f 507 508 509
f 510 511 512
f 511 513 512
f 512 513 514
f 513 515 514
f 514 515 516
f 515 517 516
f 516 517 518
f 517 519 518
f 518 519 520
f 519 521 520
f 520 521 522
f 521 523 522
f 522 523 524
f 523 525 524
f 524 525 526
f 525 527 526
f 526 527 528
f 527 529 528
f 528 529 530
f 529 531 530
f 530 531 532
f 531 533 532
f 532 533 534
f 533 535 534
f 534 535 536
f 535 537 536
f 536 537 538
f 537 539 538
f 538 539 508
f 539 540 508
f 508 540 509
f 512 541 510
f 541 542 510
f 510 542 543
f 542 544 543
f 543 544 545
f 544 546 545
f 545 546 491
f 546 547 491
f 491 547 548
f 548 549 491
f 549 550 491
f 491 550 551
f 552 490 553
f 490 491 553
f 553 491 554
f 491 551 554
f 555 552 556
f 552 553 556
f 556 553 557
f 553 492 557
f 557 492 558
f 492 494 558
f 559 560 561
f 560 562 561
f 563 564 565
f 564 560 565
f 565 560 566
f 560 559 566
f 566 559 567
f 568 561 569
f 561 562 569
f 569 562 570
f 562 564 570
f 570 564 571
f 564 563 571
f 572 573 574
f 573 575 574
f 576 573 577
f 573 572 577
f 577 572 578
f 572 579 578
f 575 580 581
f 582 574 583
f 574 575 583
f 583 575 584
f 575 581 584
f 585 586 587
f 586 588 587
f 587 588 589
f 590 591 592
f 591 593 592
f 592 593 594
f 593 595 594
f 595 593 588
f 593 596 588
f 588 596 589
f 597 598 599
f 598 600 599
f 601 602 603
f 602 598 603
f 603 598 604
f 598 597 604
f 604 597 605
f 606 599 607
f 599 600 607
f 607 600 608
f 600 602 608
f 608 602 609
f 602 601 609
f 610 611 612
f 613 614 612
f 614 615 612
f 612 615 610
f 616 617 618
f 617 619 618
f 618 619 620
f 619 621 620
f 620 621 622
f 621 623 622
f 622 623 624
f 623 625 624
f 624 625 626
f 625 627 626
f 627 628 626
f 626 628 629
f 628 630 629
f 629 630 631
f 630 632 631
f 631 632 633
f 632 634 633
f 634 632 635
f 632 636 635
f 635 636 637
f 636 638 637
f 637 638 639
f 638 640 639
f 639 640 641
f 640 642 641
f 641 642 643
f 642 644 643
f 643 644 645
f 645 644 646
f 644 647 646
f 646 647 648
f 647 649 648
f 649 650 648
f 648 650 651
f 650 652 651
f 651 652 653
f 652 654 653
f 653 654 655
f 654 656 655
f 655 656 657
f 656 658 657
f 657 658 659
f 658 660 659
f 659 660 661
f 660 662 661
f 661 662 663
f 662 664 663
f 665 666 615
f 662 667 664
f 667 668 664
f 664 668 669
f 668 670 669
f 669 670 671
f 670 672 671
f 671 672 615
f 672 673 615
f 615 673 665
f 666 674 615
f 674 675 615
f 615 675 610
f 676 611 677
f 611 610 677
f 677 610 678
f 610 616 678
f 678 616 679
f 616 618 679
f 680 681 682
f 683 684 685
f 684 686 685
f 687 685 688
f 685 686 688
f 688 686 689
f 686 680 689
f 689 680 690
f 680 682 690
f 691 692 693
f 691 693 694
f 691 695 692
f 695 696 692
f 692 696 697
f 696 698 697
f 697 698 699
f 698 700 699
f 699 700 701
f 700 702 701
f 702 703 701
f 701 703 704
f 703 705 704
f 704 705 706
f 706 705 707
f 705 708 707
f 707 708 709
f 709 708 710
f 708 711 710
f 710 711 712
f 711 713 712
f 712 713 714
f 714 713 715
f 713 716 715
f 715 716 717
f 716 718 717
f 717 718 719
f 718 720 719
f 719 720 721
f 720 722 721
f 721 722 723
f 693 724 694
f 724 725 694
f 694 725 726
f 725 727 726
f 726 727 728
f 727 729 728
f 729 730 728
f 728 730 731
f 730 732 731
f 731 732 733
f 733 732 734
f 732 735 734
f 734 735 736
f 736 735 737
f 735 738 737
f 737 738 739
f 738 740 739
f 739 740 741
f 740 742 741
f 741 742 743
f 742 744 743
f 743 744 745
f 744 746 745
f 745 746 747
f 746 748 747
f 747 748 749
f 749 748 750
f 748 751 750
f 750 751 752
f 752 751 753
f 751 754 753
f 753 754 755
f 754 756 755
f 755 756 757
f 756 758 757
f 757 758 759
f 758 760 759
f 760 761 759
f 759 761 762
f 761 763 762
f 762 763 764
f 763 765 764
f 764 765 766
f 765 767 766
f 766 767 768
f 767 769 768
f 768 769 770
f 769 771 770
f 770 771 772
f 771 773 772
f 772 773 774
f 773 775 774
f 774 775 776
f 775 777 776
f 777 778 776
f 776 778 779
f 778 780 779
f 779 780 781
f 780 782 781
f 781 782 783
f 782 784 783
f 785 786 787
f 786 788 787
f 787 788 784
f 788 789 784
f 784 789 783
f 723 722 790
f 722 791 790
f 790 791 792
f 791 793 792
f 792 793 794
f 793 795 794
f 794 795 796
f 795 797 796
f 796 797 798
f 797 799 798
f 798 799 800
f 799 801 800
f 800 801 802
f 801 803 802
f 802 803 804
f 803 805 804
f 804 805 806
f 805 807 806
f 806 807 808
f 807 809 808
f 808 809 810
f 809 811 810
f 811 812 810
f 810 812 813
f 812 814 813
f 813 814 815
f 814 816 815
f 815 816 817
f 816 818 817
f 818 819 817
f 817 819 820
f 819 821 820
f 820 821 822
f 821 823 822
f 824 825 826
f 825 827 826
f 826 827 828
f 827 829 828
f 828 829 823
f 829 830 823
f 823 830 822

