# https://github.com/mikedh/trimesh

o FR3_Version2_Link3-mesh
v 0.05450000 0.00135000 -0.11159650
v 0.05450000 0.00135000 -0.11125001
v 0.05450000 -0.00015208 -0.11200001
v 0.05450000 -0.00110000 -0.11200001
v 0.05450000 0.00116471 -0.11100850
v 0.05450000 0.00110000 -0.11100001
v 0.05450000 0.00131651 -0.11112501
v 0.05450000 0.00127678 -0.11107320
v 0.05450000 0.00122500 -0.11103351
v 0.05450000 -0.00131651 -0.11187501
v 0.05450000 -0.00127678 -0.11192681
v 0.05450000 -0.00122500 -0.11196650
v 0.05450000 -0.00116471 -0.11199151
v 0.05450000 -0.00135000 -0.11175001
v 0.05450000 -0.00135000 -0.11125001
v 0.05450000 -0.00110000 -0.11100001
v 0.05450000 0.00127678 -0.11177321
v 0.05450000 0.00130787 -0.11173530
v 0.05450000 0.00134148 -0.11118531
v 0.05450000 -0.00122500 -0.11103351
v 0.05450000 -0.00127678 -0.11107320
v 0.05450000 -0.00131651 -0.11112501
v 0.05450000 -0.00004041 -0.11328830
v 0.05450000 0.00001173 -0.11328930
v 0.05450000 0.00055140 -0.11249860
v 0.05450000 -0.00116471 -0.11100850
v 0.05450000 -0.00134148 -0.11118531
v 0.05450000 -0.00134148 -0.11181470
v 0.05450000 -0.00049041 -0.11328830
v 0.05450000 -0.00066719 -0.11251510
v 0.05450000 -0.00070692 -0.11256691
v 0.05450000 0.00133097 -0.11169211
v 0.05450000 0.00134520 -0.11164521
v 0.05450000 -0.00103176 -0.11379780
v 0.05450000 -0.00137660 -0.11475230
v 0.05450000 -0.00061140 -0.11394171
v 0.05450000 -0.00102094 -0.11489791
v 0.05450000 -0.00011503 -0.11400001
v 0.05450000 -0.00011503 -0.11500001
v 0.05450000 0.00011493 -0.11397671
v 0.05450000 0.00031182 -0.11497641
v 0.05450000 0.00025205 -0.11393071
v 0.05450000 0.00073554 -0.11487301
v 0.05450000 0.00034971 -0.11386880
v 0.05450000 0.00105021 -0.11471541
v 0.05450000 0.00040449 -0.11381051
v 0.05450000 0.00128803 -0.11451410
v 0.05450000 0.00044067 -0.11374701
v 0.05450000 -0.00064629 -0.11323381
v 0.05450000 -0.00059888 -0.11326361
v 0.05450000 -0.00074041 -0.11303830
v 0.05450000 -0.00073189 -0.11262720
v 0.05450000 -0.00074041 -0.11269191
v 0.05450000 -0.00054604 -0.11328210
v 0.05450000 0.00021651 -0.11331750
v 0.05450000 0.00032080 -0.11335891
v 0.05450000 0.00093806 -0.11263511
v 0.05450000 0.00035633 -0.11338170
v 0.05450000 0.00119681 -0.11280301
v 0.05450000 0.00040418 -0.11342631
v 0.05450000 0.00138826 -0.11300751
v 0.05450000 0.00043668 -0.11347590
v 0.05450000 0.00151893 -0.11324740
v 0.05450000 0.00045787 -0.11353521
v 0.05450000 0.00158768 -0.11351350
v 0.05450000 0.00046640 -0.11361361
v 0.05450000 0.00160000 -0.11372561
v 0.05450000 0.00046212 -0.11367071
v 0.05450000 0.00156124 -0.11401240
v 0.05450000 0.00146163 -0.11426931
v 0.05450000 -0.00108041 -0.11377920
v 0.05450000 -0.00140138 -0.11392141
v 0.05450000 -0.00114337 -0.11376430
v 0.05450000 -0.00137008 -0.11386480
v 0.05450000 -0.00068587 -0.11319420
v 0.05450000 -0.00073414 -0.11309401
v 0.05450000 -0.00071566 -0.11314680
v 0.05450000 -0.00158260 -0.11438151
v 0.05450000 -0.00149170 -0.11467911
v 0.05450000 -0.00159714 -0.11443541
v 0.05450000 -0.00159934 -0.11449131
v 0.05450000 -0.00158909 -0.11454621
v 0.05450000 -0.00156691 -0.11459740
v 0.05450000 -0.00153389 -0.11464251
v 0.05450000 -0.00120803 -0.11376620
v 0.05450000 -0.00127006 -0.11378451
v 0.05450000 -0.00132531 -0.11381811
f 1 2 3
f 3 2 4
f 5 6 2
f 7 8 9
f 10 11 12
f 13 4 14
f 4 2 14
f 14 2 15
f 2 6 15
f 15 6 16
f 3 17 18
f 5 2 9
f 2 19 9
f 9 19 7
f 20 21 22
f 23 24 25
f 16 26 15
f 26 20 15
f 15 20 27
f 20 22 27
f 13 14 12
f 14 28 12
f 12 28 10
f 23 25 29
f 17 3 25
f 3 30 25
f 25 30 31
f 18 32 3
f 32 33 3
f 3 33 1
f 34 35 36
f 35 37 36
f 36 37 38
f 37 39 38
f 38 39 40
f 39 41 40
f 40 41 42
f 41 43 42
f 42 43 44
f 43 45 44
f 44 45 46
f 45 47 46
f 46 47 48
f 49 50 51
f 31 52 25
f 52 53 25
f 25 53 29
f 53 51 29
f 29 51 54
f 51 50 54
f 24 55 25
f 55 56 25
f 25 56 57
f 56 58 57
f 57 58 59
f 58 60 59
f 59 60 61
f 60 62 61
f 61 62 63
f 62 64 63
f 63 64 65
f 64 66 65
f 65 66 67
f 66 68 67
f 67 68 69
f 68 48 69
f 69 48 70
f 48 47 70
f 34 71 72
f 71 73 72
f 72 73 74
f 49 51 75
f 51 76 75
f 75 76 77
f 34 72 35
f 72 78 35
f 35 78 79
f 78 80 79
f 79 80 81
f 81 82 79
f 82 83 79
f 79 83 84
f 85 86 73
f 86 87 73
f 73 87 74

