# https://github.com/mikedh/trimesh

o FR3_Version2_Link0_8-mesh
v 0.01299944 -0.07207849 0.00851479
v 0.00494685 -0.07221904 0.07920221
v 0.00434351 -0.07197979 0.07913395
v 0.01357459 -0.07215242 0.00850344
v 0.01365336 -0.07215226 0.00850344
v 0.00559113 -0.07229300 0.07927546
v 0.01305558 -0.07209166 0.00851356
v 0.01185030 -0.07145118 0.00860104
v 0.01185054 -0.07145137 0.00860101
v 0.00382222 -0.07159153 0.07907534
v 0.01210409 -0.07166114 0.00856281
v 0.01238563 -0.07183940 0.00853839
v 0.01162149 -0.07120801 0.00865907
v 0.00341850 -0.07108071 0.07903036
v 0.01142575 -0.07094095 0.00874089
v 0.01357459 -0.07215242 0.00850344
v 0.01357580 -0.07215116 0.00850344
v 0.01365336 -0.07215226 0.00850344
v 0.01359815 -0.07212178 0.00850356
v 0.01747177 -0.07208561 0.00850344
v 0.01842935 -0.07187912 0.00850794
v 0.01812131 -0.07198907 0.00850435
v 0.01872222 -0.07172880 0.00851749
v 0.01360889 -0.07208201 0.00850407
v 0.01360675 -0.07210042 0.00850379
v 0.01979363 -0.07043228 0.00884504
v 0.01960587 -0.07079818 0.00870377
v 0.01358488 -0.07053994 0.00884320
v 0.01943759 -0.07107193 0.00862515
v 0.01922545 -0.07131871 0.00857391
v 0.01916769 -0.07138588 0.00855995
v 0.01359892 -0.07148310 0.00855995
v 0.01359802 -0.07142276 0.00857807
v 0.01981320 -0.07039415 0.00885976
v 0.01358433 -0.07049540 0.00886981
v 0.02020885 -0.06958306 0.00935524
v 0.01357446 -0.06969455 0.00934833
v 0.01357420 -0.06966571 0.00937718
v 0.02023758 -0.06952417 0.00939122
v 0.01356827 -0.06899816 0.01004472
v 0.02051228 -0.06891104 0.01000159
v 0.02052358 -0.06888142 0.01004771
v 0.02069015 -0.06844468 0.01072764
v 0.01356823 -0.06898291 0.01007023
v 0.02070571 -0.06838276 0.01089546
v 0.01356671 -0.06849298 0.01089017
v 0.02076521 -0.06814595 0.01153739
v 0.01356677 -0.06848761 0.01090801
v 0.02075483 -0.06810450 0.01183624
v 0.01356985 -0.06820964 0.01183341
v 0.02073592 -0.06802899 0.01238067
v 0.01356989 -0.06820900 0.01184097
v 0.01357361 -0.06815304 0.01250344
v 0.00179324 -0.06835868 0.07885064
v 0.00934313 -0.06822689 0.01257601
v 0.00935140 -0.06822708 0.01250344
v 0.00935140 -0.06822708 0.01250344
v 0.00945188 -0.06828025 0.01191154
v 0.00957208 -0.06838814 0.01143421
v 0.01116100 -0.07053456 0.00890614
v 0.00972453 -0.06855252 0.01097326
v 0.01060518 -0.06971409 0.00942467
v 0.01011671 -0.06904010 0.01012759
v 0.00700186 -0.07101818 0.08140342
v 0.00773509 -0.06825495 0.08278556
v 0.00683450 -0.06827067 0.08315831
v 0.00645874 -0.07102765 0.08162820
v 0.00587051 -0.06828750 0.08330211
v 0.00587739 -0.07103781 0.08171492
v 0.00490037 -0.06830445 0.08320842
v 0.00529232 -0.07104802 0.08165844
v 0.00398170 -0.06832048 0.08288283
v 0.00473830 -0.07105768 0.08146207
v 0.00316905 -0.06833467 0.08234465
v 0.00424821 -0.07106623 0.08113752
v 0.00251068 -0.06834616 0.08162587
v 0.00385117 -0.07107318 0.08070404
v 0.00204570 -0.06835427 0.08076915
v 0.00357075 -0.07107807 0.08018737
v 0.00180172 -0.06835852 0.07982540
v 0.00342362 -0.07108063 0.07961821
v 0.01222236 -0.07092705 0.07351792
v 0.01375163 -0.06814994 0.07369764
v 0.01310482 -0.06816122 0.07644445
v 0.01166112 -0.07093685 0.07590129
v 0.01183452 -0.06818341 0.07896421
v 0.01055890 -0.07095608 0.07808767
v 0.01001100 -0.06821524 0.08111763
v 0.00897665 -0.07098371 0.07995615
v 0.01960587 -0.07079818 0.00870377
v 0.01979363 -0.07043228 0.00884504
v 0.01981320 -0.07039415 0.00885976
v 0.02020885 -0.06958306 0.00935524
v 0.02023758 -0.06952417 0.00939122
v 0.02051228 -0.06891104 0.01000159
v 0.02052358 -0.06888142 0.01004771
v 0.02076521 -0.06814595 0.01153739
v 0.02075483 -0.06810450 0.01183624
v 0.02070571 -0.06838276 0.01089546
v 0.02069015 -0.06844468 0.01072764
v 0.02072277 -0.06802825 0.01250344
v 0.02073592 -0.06802899 0.01238067
v 0.01747177 -0.07208561 0.00850344
v 0.01009335 -0.07221440 0.07327282
v 0.00964882 -0.07222216 0.07516060
v 0.00877579 -0.07223740 0.07689238
v 0.00752254 -0.07225927 0.07837233
v 0.00595837 -0.07228659 0.07951867
v 0.00559166 -0.07229298 0.07933570
v 0.00560674 -0.07229271 0.07939403
v 0.00563547 -0.07229222 0.07944699
v 0.00590271 -0.07228756 0.07954169
v 0.00584313 -0.07228859 0.07955059
v 0.00578317 -0.07228963 0.07954480
v 0.00572639 -0.07229062 0.07952468
v 0.00567616 -0.07229151 0.07949141
v 0.01943759 -0.07107193 0.00862515
v 0.01183671 -0.07145163 0.07347293
v 0.01922545 -0.07131871 0.00857391
v 0.01916769 -0.07138588 0.00855995
v 0.01132928 -0.07185784 0.07341433
v 0.01872222 -0.07172880 0.00851749
v 0.01842935 -0.07187912 0.00850794
v 0.01073466 -0.07211801 0.07334607
v 0.01812131 -0.07198907 0.00850435
v 0.00627526 -0.07219585 0.08008194
v 0.00796214 -0.07216640 0.07884568
v 0.00656758 -0.07194095 0.08060682
v 0.00836882 -0.07190951 0.07928675
v 0.00681541 -0.07153927 0.08105755
v 0.00871485 -0.07150611 0.07966552
v 0.00931372 -0.07214281 0.07724959
v 0.00981202 -0.07188433 0.07758249
v 0.01023673 -0.07147956 0.07786832
v 0.01025525 -0.07212638 0.07538196
v 0.01081737 -0.07186679 0.07558825
v 0.01129689 -0.07146106 0.07576538
v 0.00382649 -0.07159146 0.07956637
v 0.00434669 -0.07197972 0.07949881
v 0.00494875 -0.07221901 0.07942013
v 0.00500330 -0.07221805 0.07963113
v 0.00510725 -0.07221624 0.07982267
v 0.00525444 -0.07221366 0.07998336
v 0.00543612 -0.07221049 0.08010369
v 0.00564151 -0.07220691 0.08017647
v 0.00585840 -0.07220314 0.08019741
v 0.00607392 -0.07219937 0.08016526
v 0.00443801 -0.07197812 0.07985206
v 0.00461205 -0.07197509 0.08017274
v 0.00485848 -0.07197078 0.08044178
v 0.00516266 -0.07196548 0.08064322
v 0.00550653 -0.07195948 0.08076509
v 0.00586966 -0.07195314 0.08080017
v 0.00623048 -0.07194684 0.08074633
v 0.00394939 -0.07158931 0.08004179
v 0.00418363 -0.07158522 0.08047336
v 0.00451528 -0.07157943 0.08083545
v 0.00492465 -0.07157228 0.08110656
v 0.00538743 -0.07156420 0.08127057
v 0.00587613 -0.07155568 0.08131775
v 0.00636174 -0.07154719 0.08124531
v 0.00451528 -0.07157943 0.08083545
v 0.00179324 0.06835868 0.07885064
v 0.00341850 0.07108071 0.07903036
v 0.00934313 0.06822689 0.01257601
v 0.01142575 0.07094095 0.00874089
v 0.00935140 0.06822708 0.01250344
v 0.00945188 0.06828025 0.01191154
v 0.00945188 0.06828025 0.01191154
v 0.00957208 0.06838814 0.01143421
v 0.01116100 0.07053456 0.00890614
v 0.00972453 0.06855252 0.01097326
v 0.01060518 0.06971409 0.00942467
v 0.01011671 0.06904010 0.01012759
v 0.00374169 0.07148964 0.07906637
v 0.01175588 0.07135808 0.00862147
v 0.01186599 0.07145141 0.00860385
v 0.00382222 0.07159153 0.07907534
v 0.01216020 0.07170079 0.00855676
v 0.00413514 0.07182458 0.07911052
v 0.00434351 0.07197979 0.07913395
v 0.01262373 0.07195407 0.00852614
v 0.00458468 0.07207541 0.07916124
v 0.01305558 0.07209166 0.00851356
v 0.00494685 0.07221904 0.07920221
v 0.01312913 0.07210028 0.00851212
v 0.00507536 0.07223378 0.07921682
v 0.01357459 0.07215242 0.00850344
v 0.00559113 0.07229300 0.07927546
v 0.01365336 0.07215226 0.00850344
v 0.01931708 0.07122610 0.00858990
v 0.01960587 0.07079818 0.00870377
v 0.01358483 0.07053231 0.00885192
v 0.01915077 0.07138283 0.00856445
v 0.01849060 0.07185167 0.00850928
v 0.01359890 0.07147956 0.00856510
v 0.01799384 0.07202186 0.00850381
v 0.01360889 0.07208201 0.00850407
v 0.01747177 0.07208561 0.00850344
v 0.01359792 0.07142067 0.00857107
v 0.01893892 0.07158248 0.00853204
v 0.01360890 0.07208261 0.00850406
v 0.01360658 0.07210109 0.00850378
v 0.01365336 0.07215226 0.00850344
v 0.01359769 0.07212262 0.00850356
v 0.01357459 0.07215242 0.00850344
v 0.01979714 0.07042683 0.00884500
v 0.01979915 0.07042273 0.00884746
v 0.01358424 0.07049227 0.00886458
v 0.02021882 0.06956721 0.00935881
v 0.01357437 0.06968360 0.00936067
v 0.01357411 0.06966227 0.00937375
v 0.02022323 0.06955822 0.00936419
v 0.01356821 0.06898549 0.01006265
v 0.02050954 0.06891799 0.00999284
v 0.02052765 0.06887063 0.01006657
v 0.01356816 0.06897985 0.01006840
v 0.01356674 0.06848638 0.01090791
v 0.02069293 0.06843831 0.01073976
v 0.01356673 0.06848188 0.01091559
v 0.02070949 0.06837199 0.01092090
v 0.01356995 0.06821138 0.01184180
v 0.02076627 0.06814477 0.01154154
v 0.01357004 0.06820414 0.01186662
v 0.02075444 0.06809941 0.01186951
v 0.02073601 0.06802868 0.01238063
v 0.01357361 0.06815304 0.01250345
v 0.00180172 0.06835852 0.07982540
v 0.00342362 0.07108063 0.07961821
v 0.00204570 0.06835427 0.08076915
v 0.00357075 0.07107807 0.08018737
v 0.00251068 0.06834616 0.08162587
v 0.00385117 0.07107318 0.08070404
v 0.00316905 0.06833467 0.08234465
v 0.00424821 0.07106623 0.08113752
v 0.00398170 0.06832048 0.08288283
v 0.00473830 0.07105768 0.08146207
v 0.00490037 0.06830445 0.08320842
v 0.00529232 0.07104802 0.08165844
v 0.00587051 0.06828750 0.08330211
v 0.00587739 0.07103781 0.08171492
v 0.00683450 0.06827067 0.08315831
v 0.00645874 0.07102765 0.08162820
v 0.00773509 0.06825495 0.08278556
v 0.00700186 0.07101818 0.08140342
v 0.01001100 0.06821524 0.08111763
v 0.00897665 0.07098371 0.07995615
v 0.01183452 0.06818341 0.07896421
v 0.01055890 0.07095608 0.07808767
v 0.01310482 0.06816122 0.07644445
v 0.01166112 0.07093685 0.07590129
v 0.01375163 0.06814994 0.07369764
v 0.01222236 0.07092705 0.07351792
v 0.01979714 0.07042683 0.00884500
v 0.01960587 0.07079818 0.00870377
v 0.02076627 0.06814477 0.01154154
v 0.02070949 0.06837199 0.01092090
v 0.01979915 0.07042273 0.00884746
v 0.02069293 0.06843831 0.01073976
v 0.02052765 0.06887063 0.01006657
v 0.01979915 0.07042273 0.00884746
v 0.02072277 0.06802825 0.01250344
v 0.02073601 0.06802868 0.01238063
v 0.02075444 0.06809941 0.01186951
v 0.02050954 0.06891799 0.00999284
v 0.02022323 0.06955822 0.00936419
v 0.02021882 0.06956721 0.00935881
v 0.01747177 0.07208561 0.00850344
v 0.01009335 0.07221440 0.07327282
v 0.00877579 0.07223740 0.07689238
v 0.00964882 0.07222216 0.07516060
v 0.00752254 0.07225927 0.07837233
v 0.00595837 0.07228659 0.07951867
v 0.00559166 0.07229298 0.07933570
v 0.00560674 0.07229271 0.07939403
v 0.00563547 0.07229222 0.07944699
v 0.00567616 0.07229151 0.07949141
v 0.00572639 0.07229062 0.07952468
v 0.00578317 0.07228963 0.07954480
v 0.00584313 0.07228859 0.07955059
v 0.00590271 0.07228756 0.07954169
v 0.01060675 0.07213723 0.07333145
v 0.01073466 0.07211801 0.07334607
v 0.01849060 0.07185167 0.00850928
v 0.01799384 0.07202186 0.00850381
v 0.01109160 0.07196184 0.07338704
v 0.01132928 0.07185784 0.07341433
v 0.01893892 0.07158248 0.00853204
v 0.01153212 0.07169548 0.07343776
v 0.01915077 0.07138283 0.00856445
v 0.01183671 0.07145163 0.07347293
v 0.01931708 0.07122610 0.00858990
v 0.01191363 0.07134700 0.07348191
v 0.01025525 0.07212638 0.07538196
v 0.01081737 0.07186679 0.07558825
v 0.01129689 0.07146106 0.07576538
v 0.00931372 0.07214281 0.07724959
v 0.00981202 0.07188433 0.07758249
v 0.01023673 0.07147956 0.07786832
v 0.00796214 0.07216640 0.07884568
v 0.00836882 0.07190951 0.07928675
v 0.00871485 0.07150611 0.07966552
v 0.00627526 0.07219585 0.08008194
v 0.00656758 0.07194095 0.08060682
v 0.00681541 0.07153927 0.08105755
v 0.00636174 0.07154719 0.08124531
v 0.00434669 0.07197972 0.07949881
v 0.00607392 0.07219937 0.08016526
v 0.00585840 0.07220314 0.08019741
v 0.00564151 0.07220691 0.08017647
v 0.00543612 0.07221049 0.08010369
v 0.00525444 0.07221366 0.07998336
v 0.00510725 0.07221624 0.07982267
v 0.00500330 0.07221805 0.07963113
v 0.00494875 0.07221901 0.07942013
v 0.00623048 0.07194684 0.08074633
v 0.00586966 0.07195314 0.08080017
v 0.00550653 0.07195948 0.08076509
v 0.00516266 0.07196548 0.08064322
v 0.00485848 0.07197078 0.08044178
v 0.00461205 0.07197509 0.08017274
v 0.00443801 0.07197812 0.07985206
v 0.00382649 0.07159146 0.07956637
v 0.00394939 0.07158931 0.08004179
v 0.00418363 0.07158522 0.08047336
v 0.00451528 0.07157943 0.08083545
v 0.00492465 0.07157228 0.08110656
v 0.00538743 0.07156420 0.08127057
v 0.00587613 0.07155568 0.08131775
f 1 2 3
f 4 5 6
f 2 1 6
f 1 7 6
f 6 7 4
f 8 9 10
f 9 11 10
f 10 11 3
f 11 12 3
f 3 12 1
f 8 10 13
f 10 14 13
f 13 14 15
f 16 17 18
f 17 19 18
f 18 19 20
f 21 22 20
f 23 21 24
f 21 20 24
f 24 20 25
f 20 19 25
f 26 27 28
f 27 29 28
f 28 29 30
f 23 24 31
f 24 32 31
f 31 32 30
f 32 33 30
f 30 33 28
f 26 28 34
f 28 35 34
f 34 35 36
f 35 37 36
f 37 38 36
f 36 38 39
f 38 40 39
f 39 40 41
f 40 42 41
f 42 40 43
f 40 44 43
f 43 44 45
f 44 46 45
f 45 46 47
f 46 48 47
f 47 48 49
f 48 50 49
f 49 50 51
f 50 52 51
f 51 52 53
f 14 54 15
f 54 55 15
f 15 55 56
f 57 58 15
f 58 59 15
f 15 59 60
f 59 61 60
f 60 61 62
f 61 63 62
f 64 65 66
f 64 66 67
f 66 68 67
f 67 68 69
f 68 70 69
f 69 70 71
f 70 72 71
f 71 72 73
f 72 74 73
f 73 74 75
f 74 76 75
f 75 76 77
f 76 78 77
f 77 78 79
f 78 80 79
f 79 80 81
f 80 54 81
f 81 54 14
f 82 83 84
f 82 84 85
f 84 86 85
f 85 86 87
f 86 88 87
f 87 88 89
f 88 65 89
f 89 65 64
f 90 91 82
f 91 92 82
f 82 92 93
f 93 94 82
f 94 95 82
f 82 95 96
f 97 98 99
f 98 96 99
f 99 96 100
f 83 82 101
f 82 96 101
f 101 96 102
f 96 98 102
f 6 5 103
f 103 104 6
f 104 105 6
f 6 105 106
f 106 107 6
f 107 108 6
f 6 108 109
f 108 110 109
f 110 108 111
f 108 112 111
f 111 112 113
f 113 114 111
f 114 115 111
f 111 115 116
f 90 82 117
f 82 118 117
f 117 118 119
f 119 118 120
f 118 121 120
f 120 121 122
f 122 121 123
f 121 124 123
f 123 124 125
f 124 104 125
f 125 104 103
f 108 107 126
f 107 127 126
f 126 127 128
f 127 129 128
f 128 129 130
f 129 131 130
f 130 131 64
f 131 89 64
f 107 106 127
f 106 132 127
f 127 132 129
f 132 133 129
f 129 133 131
f 133 134 131
f 131 134 89
f 134 87 89
f 106 105 132
f 105 135 132
f 132 135 133
f 135 136 133
f 133 136 134
f 136 137 134
f 134 137 87
f 137 85 87
f 105 104 135
f 104 124 135
f 135 124 136
f 124 121 136
f 136 121 137
f 121 118 137
f 137 118 85
f 118 82 85
f 14 10 138
f 10 3 139
f 3 2 140
f 2 6 109
f 2 109 140
f 109 110 140
f 140 110 141
f 110 111 141
f 141 111 142
f 111 116 142
f 142 116 143
f 116 115 143
f 143 115 144
f 115 114 144
f 144 114 145
f 114 113 145
f 145 113 146
f 113 112 146
f 146 112 147
f 112 108 147
f 147 108 126
f 3 140 139
f 140 141 139
f 139 141 148
f 141 142 148
f 148 142 149
f 142 143 149
f 149 143 150
f 143 144 150
f 150 144 151
f 144 145 151
f 151 145 152
f 145 146 152
f 152 146 153
f 146 147 153
f 153 147 154
f 147 126 154
f 154 126 128
f 10 139 138
f 139 148 138
f 138 148 155
f 148 149 155
f 155 149 156
f 149 150 156
f 156 150 157
f 150 151 157
f 157 151 158
f 151 152 158
f 158 152 159
f 152 153 159
f 159 153 160
f 153 154 160
f 160 154 161
f 154 128 161
f 161 128 130
f 14 138 81
f 138 155 81
f 81 155 79
f 155 156 79
f 79 156 77
f 156 162 77
f 77 162 75
f 162 158 75
f 75 158 73
f 158 159 73
f 73 159 71
f 159 160 71
f 71 160 69
f 160 161 69
f 69 161 67
f 161 130 67
f 67 130 64
f 163 164 165
f 164 166 165
f 165 166 167
f 166 168 167
f 169 166 170
f 166 171 170
f 170 171 172
f 171 173 172
f 172 173 174
f 164 175 166
f 175 176 166
f 176 175 177
f 175 178 177
f 177 178 179
f 178 180 179
f 180 181 179
f 179 181 182
f 181 183 182
f 182 183 184
f 183 185 184
f 184 185 186
f 185 187 186
f 186 187 188
f 187 189 188
f 188 189 190
f 191 192 193
f 191 193 194
f 195 196 197
f 196 198 197
f 197 198 199
f 193 200 194
f 200 196 194
f 194 196 201
f 196 195 201
f 198 202 199
f 202 203 199
f 199 203 204
f 203 205 204
f 204 205 206
f 192 207 193
f 207 208 193
f 193 208 209
f 208 210 209
f 209 210 211
f 211 210 212
f 210 213 212
f 212 213 214
f 213 215 214
f 215 216 214
f 214 216 217
f 217 216 218
f 216 219 218
f 218 219 220
f 219 221 220
f 220 221 222
f 221 223 222
f 222 223 224
f 223 225 224
f 225 226 224
f 224 226 227
f 164 163 228
f 164 228 229
f 228 230 229
f 229 230 231
f 230 232 231
f 231 232 233
f 232 234 233
f 233 234 235
f 234 236 235
f 235 236 237
f 236 238 237
f 237 238 239
f 238 240 239
f 239 240 241
f 240 242 241
f 241 242 243
f 242 244 243
f 243 244 245
f 245 244 246
f 245 246 247
f 246 248 247
f 247 248 249
f 248 250 249
f 249 250 251
f 250 252 251
f 251 252 253
f 254 255 253
f 256 257 258
f 257 259 258
f 258 259 260
f 254 253 261
f 253 252 261
f 261 252 262
f 262 263 258
f 263 264 258
f 258 264 256
f 265 266 260
f 266 267 260
f 260 267 258
f 268 190 269
f 190 189 269
f 270 271 272
f 271 269 272
f 272 269 273
f 269 189 273
f 273 189 274
f 274 275 273
f 275 276 273
f 273 276 277
f 277 278 279
f 279 280 277
f 280 281 277
f 277 281 273
f 268 269 282
f 283 284 282
f 284 285 282
f 282 285 268
f 283 286 284
f 286 287 284
f 284 287 288
f 287 289 288
f 288 289 290
f 289 291 290
f 290 291 292
f 291 293 292
f 293 253 292
f 292 253 255
f 269 271 282
f 271 294 282
f 282 294 283
f 283 294 286
f 294 295 286
f 286 295 287
f 287 295 289
f 295 296 289
f 289 296 291
f 291 296 293
f 296 251 293
f 293 251 253
f 271 270 294
f 270 297 294
f 294 297 295
f 297 298 295
f 295 298 296
f 298 299 296
f 296 299 251
f 299 249 251
f 270 272 297
f 272 300 297
f 297 300 298
f 300 301 298
f 298 301 299
f 301 302 299
f 299 302 249
f 302 247 249
f 272 273 300
f 273 303 300
f 300 303 301
f 303 304 301
f 301 304 302
f 304 305 302
f 302 305 247
f 305 245 247
f 245 305 306
f 183 181 307
f 304 303 308
f 303 273 281
f 274 189 187
f 303 281 308
f 281 280 308
f 308 280 309
f 280 279 309
f 309 279 310
f 279 278 310
f 310 278 311
f 278 277 311
f 311 277 312
f 277 276 312
f 312 276 313
f 276 275 313
f 313 275 314
f 275 274 314
f 314 274 315
f 274 187 315
f 315 187 185
f 304 308 316
f 308 309 316
f 316 309 317
f 309 310 317
f 317 310 318
f 310 311 318
f 318 311 319
f 311 312 319
f 319 312 320
f 312 313 320
f 320 313 321
f 313 314 321
f 321 314 322
f 314 315 322
f 322 315 307
f 315 185 307
f 307 185 183
f 181 323 307
f 323 324 307
f 307 324 322
f 324 325 322
f 322 325 321
f 325 326 321
f 321 326 320
f 326 327 320
f 320 327 319
f 327 328 319
f 319 328 318
f 328 329 318
f 318 329 317
f 329 306 317
f 317 306 316
f 306 305 316
f 316 305 304
f 181 180 323
f 180 178 323
f 323 178 175
f 245 306 243
f 306 329 243
f 243 329 241
f 329 328 241
f 241 328 239
f 328 327 239
f 239 327 237
f 327 326 237
f 237 326 235
f 326 325 235
f 235 325 233
f 325 324 233
f 233 324 231
f 324 323 231
f 231 323 229
f 323 175 229
f 229 175 164

