# https://github.com/mikedh/trimesh

o FR3_Version2_Link0_5-mesh
v 0.05450000 0.00115000 0.13400001
v 0.05450000 0.00120846 0.13400690
v 0.05450000 0.00138751 0.13432801
v 0.05450000 0.00017078 0.13793261
v 0.05450000 0.00012015 0.13796920
v 0.05450000 -0.00012015 0.13796920
v 0.05450000 -0.00138751 0.13432801
v 0.05450000 -0.00139917 0.13427030
v 0.05450000 -0.00139702 0.13421151
v 0.05450000 0.00139702 0.13421151
v 0.05450000 0.00131260 0.13406011
v 0.05450000 0.00138117 0.13415481
v 0.05450000 0.00135250 0.13410340
v 0.05450000 0.00126368 0.13402730
v 0.05450000 0.00139917 0.13427030
v 0.05450000 -0.00115000 0.13400001
v 0.05450000 -0.00023751 0.13782801
v 0.05450000 0.00023751 0.13782801
v 0.05450000 -0.00021073 0.13788451
v 0.05450000 -0.00017078 0.13793261
v 0.05450000 -0.00138117 0.13415481
v 0.05450000 -0.00135250 0.13410340
v 0.05450000 -0.00131260 0.13406011
v 0.05450000 -0.00126368 0.13402730
v 0.05450000 -0.00120846 0.13400690
v 0.05450000 0.00021073 0.13788451
v 0.05450000 0.00006201 0.13799221
v 0.05450000 0.00000000 0.13800001
v 0.05450000 -0.00006201 0.13799221
f 1 2 3
f 4 5 6
f 7 8 9
f 10 11 12
f 11 13 12
f 2 14 3
f 14 11 3
f 3 11 15
f 11 10 15
f 16 1 7
f 1 3 7
f 7 3 17
f 3 18 17
f 17 18 19
f 18 20 19
f 9 21 7
f 21 22 7
f 7 22 23
f 23 24 7
f 24 25 7
f 7 25 16
f 20 18 6
f 18 26 6
f 6 26 4
f 5 27 6
f 27 28 6
f 6 28 29

