# https://github.com/mikedh/trimesh

o FR3_Version2_Link1-mesh
v 0.05450000 0.00059148 -0.18381471
v 0.05450000 0.00060000 -0.18375001
v 0.05450000 0.00035000 -0.18400001
v 0.05450000 -0.00045847 -0.18397521
v 0.05450000 -0.00040563 -0.18399371
v 0.05450000 -0.00060000 -0.18375001
v 0.05450000 -0.00140000 -0.18025001
v 0.05450000 -0.00140000 -0.18075001
v 0.05450000 -0.00115000 -0.18100001
v 0.05450000 -0.00139373 -0.18080561
v 0.05450000 -0.00120563 -0.18099371
v 0.05450000 0.00059373 -0.18019441
v 0.05450000 0.00057524 -0.18014150
v 0.05450000 -0.00060000 -0.18100001
v 0.05450000 -0.00057524 -0.18385851
v 0.05450000 -0.00054546 -0.18390591
v 0.05450000 -0.00050587 -0.18394550
v 0.05450000 -0.00035000 -0.18400001
v 0.05450000 0.00047500 -0.18396652
v 0.05450000 0.00052678 -0.18392681
v 0.05450000 0.00056651 -0.18387501
v 0.05450000 -0.00134546 -0.18090591
v 0.05450000 -0.00130587 -0.18094541
v 0.05450000 -0.00125847 -0.18097521
v 0.05450000 0.00060000 -0.18025001
v 0.05450000 0.00054546 -0.18009411
v 0.05450000 0.00050587 -0.18005451
v 0.05450000 0.00045847 -0.18002480
v 0.05450000 0.00040563 -0.18000631
v 0.05450000 0.00035000 -0.18000001
v 0.05450000 -0.00115000 -0.18000001
v 0.05450000 -0.00121471 -0.18000851
v 0.05450000 -0.00127500 -0.18003350
v 0.05450000 -0.00059373 -0.18380561
v 0.05450000 0.00041470 -0.18399151
v 0.05450000 -0.00132678 -0.18007320
v 0.05450000 -0.00136651 -0.18012501
v 0.05450000 -0.00139148 -0.18018531
v 0.05450000 -0.00137524 -0.18085851
f 1 2 3
f 4 5 6
f 7 8 9
f 8 10 9
f 9 10 11
f 12 13 14
f 15 16 17
f 3 2 18
f 19 20 21
f 22 23 24
f 5 18 6
f 18 2 6
f 6 2 14
f 2 25 14
f 14 25 12
f 13 26 14
f 26 27 14
f 14 27 28
f 28 29 14
f 29 30 14
f 14 30 9
f 30 31 9
f 9 31 7
f 31 32 7
f 7 32 33
f 4 6 17
f 6 34 17
f 17 34 15
f 1 3 21
f 3 35 21
f 21 35 19
f 33 36 7
f 36 37 7
f 7 37 38
f 11 10 24
f 10 39 24
f 24 39 22

