# https://github.com/mikedh/trimesh

o FR3_Version2_Link6_4-mesh
v 0.00608867 0.01530505 0.05419561
v 0.00849216 0.01048468 0.05437744
v 0.00608867 0.01530505 0.05404510
v 0.00849216 0.01048468 0.05422708
v 0.00849216 0.01048468 0.05422708
v 0.00849216 0.01048468 0.05437744
v 0.00504367 0.00876541 0.05394400
v 0.00367175 0.00808143 0.05398204
v 0.00367175 0.00808143 0.05383137
v 0.00367175 0.00808143 0.05398204
v 0.00126802 0.01290159 0.05373901
v 0.00367175 0.00808143 0.05383137
v 0.00126802 0.01290159 0.05358815
v 0.00126802 0.01290159 0.05358815
v 0.00126802 0.01290159 0.05373901
v 0.00504362 0.01478401 0.05394604
v 0.00608867 0.01530505 0.05419561
v 0.00608867 0.01530505 0.05404510
v 0.00367175 0.00808143 0.05398204
v 0.00849216 0.01048468 0.05437744
v 0.00126802 0.01290159 0.05373901
v 0.00608867 0.01530505 0.05419561
v -0.00064172 0.01562286 0.05352407
v 0.00229957 0.01463900 0.05384706
v -0.00064172 0.01562286 0.05337303
v 0.00229957 0.01463900 0.05369628
v 0.00229957 0.01463900 0.05384706
v -0.00256036 0.01221574 0.05328855
v 0.00229957 0.01463900 0.05369628
v -0.00256036 0.01221574 0.05313733
v -0.00256036 0.01221574 0.05328855
v -0.00550166 0.01319989 0.05288927
v -0.00256036 0.01221574 0.05313733
v -0.00550166 0.01319989 0.05273773
v -0.00550166 0.01319989 0.05288927
v -0.00064172 0.01562286 0.05352407
v -0.00550166 0.01319989 0.05273773
v -0.00064172 0.01562286 0.05337303
v -0.00256036 0.01221574 0.05328855
v 0.00229957 0.01463900 0.05384706
v -0.00550166 0.01319989 0.05288927
v -0.00064172 0.01562286 0.05352407
v -0.01159918 -0.00265629 0.05176055
v -0.01159918 -0.00265629 0.05191287
v -0.00883480 -0.00358130 0.05221727
v -0.00733182 -0.00408422 0.05261735
v -0.00733182 -0.00408422 0.05246559
v -0.00733182 -0.00408422 0.05246559
v -0.00733182 -0.00408422 0.05261735
v -0.00883380 -0.00483294 0.05221159
v -0.01302690 -0.00692316 0.05165502
v -0.01302690 -0.00692316 0.05150249
v -0.01302690 -0.00692316 0.05165502
v -0.01159918 -0.00265629 0.05191287
v -0.01302690 -0.00692316 0.05150249
v -0.01159918 -0.00265629 0.05176055
v -0.01302690 -0.00692316 0.05165502
v -0.00733182 -0.00408422 0.05261735
v -0.01159918 -0.00265629 0.05191287
v -0.00799079 -0.00581175 0.05251501
v 0.00025829 -0.00169926 0.05362778
v -0.00799079 -0.00581175 0.05236317
v 0.00025829 -0.00169926 0.05347682
v 0.00025829 -0.00169926 0.05362778
v 0.00437102 -0.00994834 0.05404700
v 0.00025829 -0.00169926 0.05347682
v 0.00437102 -0.00994834 0.05389638
v 0.00437102 -0.00994834 0.05404700
v -0.00799079 -0.00581175 0.05251501
v 0.00437102 -0.00994834 0.05389638
v -0.00799079 -0.00581175 0.05236317
v 0.00437102 -0.00994834 0.05404700
v 0.00025829 -0.00169926 0.05362778
v -0.00799079 -0.00581175 0.05251501
v 0.00150755 -0.01494920 0.05376460
v 0.00293499 -0.01068184 0.05391081
v 0.00150755 -0.01494920 0.05361376
v 0.00293499 -0.01068184 0.05376008
v 0.00293499 -0.01068184 0.05376008
v 0.00293499 -0.01068184 0.05391081
v 0.00504301 -0.01490971 0.05395234
v 0.00577467 -0.01637714 0.05416960
v 0.00577467 -0.01637714 0.05401908
v 0.00577467 -0.01637714 0.05401908
v 0.00577467 -0.01637714 0.05416960
v 0.00504329 -0.01613239 0.05394960
v 0.00150755 -0.01494920 0.05376460
v 0.00150755 -0.01494920 0.05361376
v 0.00577467 -0.01637714 0.05416960
v 0.00293499 -0.01068184 0.05391081
v 0.00150755 -0.01494920 0.05376460
v -0.00164490 -0.00115334 0.05340337
v 0.00127993 0.00758771 0.05374029
v -0.00164490 -0.00115334 0.05325225
v 0.00127993 0.00758771 0.05358943
v 0.00127993 0.00758771 0.05358943
v 0.00127993 0.00758771 0.05374029
v 0.00504679 0.00632739 0.05390729
v 0.01002097 0.00466313 0.05447731
v 0.01002097 0.00466313 0.05432703
v 0.01002097 0.00466313 0.05432703
v 0.01002097 0.00466313 0.05447731
v 0.00505066 0.00218499 0.05386911
v -0.00164490 -0.00115334 0.05340337
v -0.00164490 -0.00115334 0.05325225
v 0.01002097 0.00466313 0.05447731
v 0.00127993 0.00758771 0.05374029
v -0.00164490 -0.00115334 0.05340337
v 0.01257524 0.00341033 0.05461680
v 0.01102362 0.00652220 0.05453614
v 0.01257524 0.00341033 0.05446662
v 0.01102362 0.00652220 0.05438590
v 0.01102362 0.00652220 0.05453614
v 0.01568715 0.00496196 0.05474058
v 0.01102362 0.00652220 0.05438590
v 0.01568715 0.00496196 0.05459051
v 0.01568715 0.00496196 0.05474058
v 0.01257524 0.00341033 0.05461680
v 0.01568715 0.00496196 0.05459051
v 0.01257524 0.00341033 0.05446662
v 0.01568715 0.00496196 0.05474058
v 0.01102362 0.00652220 0.05453614
v 0.01257524 0.00341033 0.05461680
f 1 2 3
f 2 4 3
f 5 6 7
f 6 8 7
f 7 8 9
f 10 11 12
f 11 13 12
f 14 15 16
f 15 17 16
f 16 17 18
f 19 20 21
f 20 22 21
f 23 24 25
f 24 26 25
f 27 28 29
f 28 30 29
f 31 32 33
f 32 34 33
f 35 36 37
f 36 38 37
f 39 40 41
f 40 42 41
f 43 44 45
f 44 46 45
f 45 46 47
f 48 49 50
f 49 51 50
f 50 51 52
f 53 54 55
f 54 56 55
f 57 58 59
f 60 61 62
f 61 63 62
f 64 65 66
f 65 67 66
f 68 69 70
f 69 71 70
f 72 73 74
f 75 76 77
f 76 78 77
f 79 80 81
f 80 82 81
f 81 82 83
f 84 85 86
f 85 87 86
f 86 87 88
f 89 90 91
f 92 93 94
f 93 95 94
f 96 97 98
f 97 99 98
f 98 99 100
f 101 102 103
f 102 104 103
f 103 104 105
f 106 107 108
f 109 110 111
f 110 112 111
f 113 114 115
f 114 116 115
f 117 118 119
f 118 120 119
f 121 122 123

