# https://github.com/mikedh/trimesh

o Part__Feature005_000-mesh
v 0.01525497 0.06630653 0.01106137
v 0.01525551 0.06845593 0.02644127
v 0.01525527 -0.06846272 0.02643764
v -0.01525551 0.06845593 0.02644127
v -0.01525497 0.06630653 0.01106137
v -0.01525527 -0.06846272 0.02643764
v 0.01525533 0.06931853 0.02623498
v 0.01525521 0.07196158 0.02213627
v 0.01525521 -0.06962722 0.02613562
v 0.01525515 -0.07078915 0.02532345
v 0.01525509 -0.07158952 0.02423405
v 0.01525533 -0.07197290 0.02268934
v 0.01525533 -0.07185590 0.02158552
v 0.01525533 -0.07075327 0.01761788
v 0.01525545 -0.06930655 0.01320600
v 0.01525461 -0.06638556 0.01107048
v 0.01525515 -0.06847184 0.01210939
v 0.01525521 -0.06758683 0.01148784
v 0.01525431 0.06754839 0.01146334
v 0.01525491 0.06862276 0.01224523
v 0.01525419 0.06938499 0.01338958
v 0.01525527 0.07189172 0.02323365
v 0.01525527 0.07155174 0.02429103
v 0.01525533 0.07087653 0.02522397
v 0.01525533 0.07015961 0.02582722
v 0.01525408 0.07093381 0.01820760
v -0.01525521 -0.06758683 0.01148784
v -0.01525515 -0.06847184 0.01210939
v -0.01525545 -0.06930655 0.01320600
v -0.01525533 -0.07075327 0.01761788
v -0.01525461 -0.06638556 0.01107048
v -0.01525533 -0.07185590 0.02158552
v -0.01525533 -0.07197290 0.02268934
v -0.01525515 -0.07078915 0.02532345
v -0.01525509 -0.07158952 0.02423405
v -0.01525521 -0.06962722 0.02613562
v -0.01525533 0.06931853 0.02623498
v -0.01525527 0.07189172 0.02323365
v -0.01525533 0.07015961 0.02582722
v -0.01525533 0.07087653 0.02522397
v -0.01525527 0.07155174 0.02429103
v -0.01525521 0.07196158 0.02213627
v -0.01525419 0.06938499 0.01338958
v -0.01525491 0.06862276 0.01224523
v -0.01525431 0.06754839 0.01146334
v -0.01525408 0.07093381 0.01820760
f 1 2 3
f 4 5 6
f 7 2 8
f 3 9 10
f 10 11 12
f 12 13 10
f 14 15 16
f 17 18 15
f 16 1 3
f 19 20 21
f 21 1 19
f 8 22 7
f 23 24 22
f 25 7 24
f 3 10 13
f 13 14 3
f 18 16 15
f 21 26 1
f 22 24 7
f 2 1 26
f 14 16 3
f 26 8 2
f 27 28 29
f 29 30 31
f 32 33 34
f 35 34 33
f 36 6 34
f 4 37 38
f 39 40 37
f 41 38 40
f 42 4 38
f 43 44 45
f 45 5 43
f 31 27 29
f 30 32 6
f 34 6 32
f 37 40 38
f 42 46 4
f 43 5 46
f 31 30 6
f 6 5 31
f 46 5 4

