# https://github.com/mikedh/trimesh

o Part__Feature001_011-mesh
v 0.00141847 -0.09399372 -0.02006733
v 0.00086517 -0.09507972 -0.01994282
v 0.00040503 -0.09398728 -0.02066344
v 0.00194329 -0.09633708 -0.01762920
v 0.00194180 -0.09905636 -0.01499450
v 0.00168306 -0.09920328 -0.01572144
v 0.00118393 -0.09699088 -0.01406759
v 0.00043102 -0.09832519 -0.01166975
v 0.00095918 -0.09848564 -0.01178973
v 0.00112343 -0.09673684 -0.01873165
v 0.00098274 -0.09901046 -0.01690161
v 0.00004009 -0.09798157 -0.01823014
v 0.00013989 -0.09730553 -0.01308649
v 0.00043102 -0.09832519 -0.01166975
v 0.00118393 -0.09699088 -0.01406759
v 0.00199753 -0.09734463 -0.01598441
v 0.00194180 -0.09905636 -0.01499450
v 0.00194329 -0.09633708 -0.01762920
v 0.00112343 -0.09673684 -0.01873165
v 0.00164747 -0.09698545 -0.01792258
v 0.00098274 -0.09901046 -0.01690161
v 0.00112343 -0.09673684 -0.01873165
v 0.00004009 -0.09798157 -0.01823014
v 0.00020148 -0.09650927 -0.01928788
v 0.00118393 -0.09699088 -0.01406759
v 0.00150621 -0.09820872 -0.01305681
v 0.00179386 -0.09857255 -0.01328212
v 0.00118393 -0.09699088 -0.01406759
v 0.00179386 -0.09857255 -0.01328212
v 0.00188315 -0.09769099 -0.01474255
v 0.00086517 -0.09507972 -0.01994282
v 0.00112343 -0.09673684 -0.01873165
v 0.00020148 -0.09650927 -0.01928788
v 0.00007102 -0.09602826 -0.01451802
v 0.00013989 -0.09730553 -0.01308649
v 0.00118393 -0.09699088 -0.01406759
v 0.00195307 -0.10083470 -0.00973958
v 0.00176692 -0.09974652 -0.01096385
v 0.00174552 -0.10065040 -0.00839031
v 0.00056064 -0.10390750 -0.00661981
v -0.00046520 -0.10390470 -0.00685030
v 0.00011735 -0.10354460 -0.00919706
v 0.00086517 -0.09507972 -0.01994282
v 0.00020148 -0.09650927 -0.01928788
v 0.00040503 -0.09398728 -0.02066344
v 0.00141847 -0.09399372 -0.02006733
v 0.00112343 -0.09673684 -0.01873165
v 0.00086517 -0.09507972 -0.01994282
v 0.00168371 -0.09462267 -0.01680403
v 0.00188315 -0.09769099 -0.01474255
v 0.00199753 -0.09734463 -0.01598441
v 0.00141847 -0.09399372 -0.02006733
v 0.00164747 -0.09698545 -0.01792258
v 0.00112343 -0.09673684 -0.01873165
v 0.00095880 -0.09521114 -0.01557844
v 0.00007102 -0.09602826 -0.01451802
v 0.00118393 -0.09699088 -0.01406759
v 0.00076499 -0.10317870 -0.01002430
v 0.00056064 -0.10390750 -0.00661981
v 0.00011735 -0.10354460 -0.00919706
v 0.00168371 -0.09462267 -0.01680403
v 0.00118393 -0.09699088 -0.01406759
v 0.00188315 -0.09769099 -0.01474255
v 0.00134462 -0.10346620 -0.00659943
v 0.00056064 -0.10390750 -0.00661981
v 0.00076499 -0.10317870 -0.01002430
v 0.00095880 -0.09521114 -0.01557844
v 0.00118393 -0.09699088 -0.01406759
v 0.00168371 -0.09462267 -0.01680403
v 0.00125611 -0.10282960 -0.01014220
v 0.00134462 -0.10346620 -0.00659943
v 0.00076499 -0.10317870 -0.01002430
v 0.00190937 -0.09370738 -0.01932621
v 0.00164747 -0.09698545 -0.01792258
v 0.00141847 -0.09399372 -0.02006733
v 0.00200331 -0.09318274 -0.01891320
v 0.00199753 -0.09734463 -0.01598441
v 0.00194329 -0.09633708 -0.01762920
v 0.00190937 -0.09370738 -0.01932621
v 0.00194329 -0.09633708 -0.01762920
v 0.00164747 -0.09698545 -0.01792258
v 0.00174594 -0.10289100 -0.00728226
v 0.00134462 -0.10346620 -0.00659943
v 0.00125611 -0.10282960 -0.01014220
v 0.00201839 -0.10199580 -0.00757623
v 0.00174594 -0.10289100 -0.00728226
v 0.00173527 -0.10212950 -0.01057893
v 0.00053122 -0.09461206 -0.01579821
v 0.00007102 -0.09602826 -0.01451802
v 0.00095880 -0.09521114 -0.01557844
v 0.00053122 -0.09461206 -0.01579821
v -0.00043875 -0.09462642 -0.01575094
v 0.00007102 -0.09602826 -0.01451802
v 0.00076499 -0.10317870 -0.01002430
v 0.00011735 -0.10354460 -0.00919706
v 0.00008247 -0.10266940 -0.01183974
v 0.00200331 -0.09318274 -0.01891320
v 0.00194329 -0.09633708 -0.01762920
v 0.00190937 -0.09370738 -0.01932621
v 0.00189763 -0.09296935 -0.01818627
v 0.00199753 -0.09734463 -0.01598441
v 0.00200331 -0.09318274 -0.01891320
v 0.00173527 -0.10212950 -0.01057893
v 0.00174594 -0.10289100 -0.00728226
v 0.00125611 -0.10282960 -0.01014220
v 0.00113368 -0.09121179 -0.02132898
v 0.00040503 -0.09398728 -0.02066344
v 0.00016561 -0.09178394 -0.02150905
v 0.00053122 -0.09461206 -0.01579821
v 0.00013408 -0.09280550 -0.01684105
v -0.00043875 -0.09462642 -0.01575094
v 0.00113368 -0.09121179 -0.02132898
v 0.00141847 -0.09399372 -0.02006733
v 0.00040503 -0.09398728 -0.02066344
v 0.00168371 -0.09462267 -0.01680403
v 0.00199753 -0.09734463 -0.01598441
v 0.00189763 -0.09296935 -0.01818627
v 0.00195307 -0.10083470 -0.00973958
v 0.00181484 -0.10107770 -0.00633848
v 0.00201839 -0.10199580 -0.00757623
v 0.00089428 -0.09345036 -0.01668107
v 0.00095880 -0.09521114 -0.01557844
v 0.00168371 -0.09462267 -0.01680403
v 0.00112569 -0.10028050 -0.00645739
v 0.00181484 -0.10107770 -0.00633848
v 0.00174552 -0.10065040 -0.00839031
v 0.00174552 -0.10065040 -0.00839031
v 0.00181484 -0.10107770 -0.00633848
v 0.00195307 -0.10083470 -0.00973958
v 0.00026476 -0.09982180 -0.00743115
v -0.00005906 -0.09994214 -0.00624120
v 0.00112569 -0.10028050 -0.00645739
v 0.00089428 -0.09345036 -0.01668107
v 0.00053122 -0.09461206 -0.01579821
v 0.00095880 -0.09521114 -0.01557844
v 0.00166696 -0.09121203 -0.02074635
v 0.00141847 -0.09399372 -0.02006733
v 0.00113368 -0.09121179 -0.02132898
v 0.00166696 -0.09121203 -0.02074635
v 0.00190937 -0.09370738 -0.01932621
v 0.00141847 -0.09399372 -0.02006733
v 0.00131792 -0.09999537 -0.00880313
v 0.00112569 -0.10028050 -0.00645739
v 0.00174552 -0.10065040 -0.00839031
v 0.00013408 -0.09280550 -0.01684105
v 0.00053122 -0.09461206 -0.01579821
v 0.00089428 -0.09345036 -0.01668107
v 0.00194317 -0.09110486 -0.02016115
v 0.00190937 -0.09370738 -0.01932621
v 0.00166696 -0.09121203 -0.02074635
v 0.00055732 -0.10173850 -0.01359754
v 0.00076499 -0.10317870 -0.01002430
v 0.00008247 -0.10266940 -0.01183974
v 0.00195307 -0.10083470 -0.00973958
v 0.00201839 -0.10199580 -0.00757623
v 0.00200325 -0.10123040 -0.01053082
v 0.00048112 -0.08977782 -0.02192199
v 0.00113368 -0.09121179 -0.02132898
v 0.00016561 -0.09178394 -0.02150905
v 0.00200325 -0.10123040 -0.01053082
v 0.00201839 -0.10199580 -0.00757623
v 0.00173527 -0.10212950 -0.01057893
v 0.00055732 -0.10173850 -0.01359754
v 0.00125611 -0.10282960 -0.01014220
v 0.00076499 -0.10317870 -0.01002430
v 0.00194317 -0.09110486 -0.02016115
v 0.00200331 -0.09318274 -0.01891320
v 0.00190937 -0.09370738 -0.01932621
v 0.00097214 -0.09193426 -0.01745450
v 0.00168371 -0.09462267 -0.01680403
v 0.00189763 -0.09296935 -0.01818627
v 0.00154120 -0.10123190 -0.01319605
v 0.00125611 -0.10282960 -0.01014220
v 0.00055732 -0.10173850 -0.01359754
v 0.00057004 -0.09946304 -0.00915491
v 0.00112569 -0.10028050 -0.00645739
v 0.00131792 -0.09999537 -0.00880313
v 0.00097214 -0.09193426 -0.01745450
v 0.00089428 -0.09345036 -0.01668107
v 0.00168371 -0.09462267 -0.01680403
v 0.00154120 -0.10123190 -0.01319605
v 0.00173527 -0.10212950 -0.01057893
v 0.00125611 -0.10282960 -0.01014220
v 0.00026476 -0.09982180 -0.00743115
v 0.00112569 -0.10028050 -0.00645739
v 0.00057004 -0.09946304 -0.00915491
v 0.00194299 -0.08988380 -0.01941132
v 0.00189763 -0.09296935 -0.01818627
v 0.00200331 -0.09318274 -0.01891320
v 0.00159049 -0.09088450 -0.01841223
v 0.00097214 -0.09193426 -0.01745450
v 0.00189763 -0.09296935 -0.01818627
v 0.00013408 -0.09280550 -0.01684105
v 0.00089428 -0.09345036 -0.01668107
v 0.00097214 -0.09193426 -0.01745450
v 0.00195908 -0.10060670 -0.01258111
v 0.00200325 -0.10123040 -0.01053082
v 0.00173527 -0.10212950 -0.01057893
v 0.00057004 -0.09946304 -0.00915491
v -0.00029026 -0.09958225 -0.00854379
v 0.00026476 -0.09982180 -0.00743115
v 0.00176692 -0.09974652 -0.01096385
v 0.00131792 -0.09999537 -0.00880313
v 0.00174552 -0.10065040 -0.00839031
v 0.00150037 -0.08840340 -0.02148753
v 0.00166696 -0.09121203 -0.02074635
v 0.00113368 -0.09121179 -0.02132898
v 0.00176692 -0.09974652 -0.01096385
v 0.00195307 -0.10083470 -0.00973958
v 0.00200325 -0.10123040 -0.01053082
v 0.00100732 -0.10055950 -0.01501458
v 0.00154120 -0.10123190 -0.01319605
v 0.00055732 -0.10173850 -0.01359754
v 0.00159049 -0.09088450 -0.01841223
v 0.00189763 -0.09296935 -0.01818627
v 0.00194299 -0.08988380 -0.01941132
v 0.00079116 -0.08781743 -0.02201879
v 0.00113368 -0.09121179 -0.02132898
v 0.00048112 -0.08977782 -0.02192199
v 0.00195908 -0.10060670 -0.01258111
v 0.00173527 -0.10212950 -0.01057893
v 0.00154120 -0.10123190 -0.01319605
v 0.00150037 -0.08840340 -0.02148753
v 0.00113368 -0.09121179 -0.02132898
v 0.00079116 -0.08781743 -0.02201879
v 0.00193197 -0.08773255 -0.02076143
v 0.00194317 -0.09110486 -0.02016115
v 0.00166696 -0.09121203 -0.02074635
v 0.00193197 -0.08773255 -0.02076143
v 0.00166696 -0.09121203 -0.02074635
v 0.00150037 -0.08840340 -0.02148753
v 0.00079116 -0.08781743 -0.02201879
v 0.00048112 -0.08977782 -0.02192199
v 0.00004157 -0.08786255 -0.02217179
v 0.00100732 -0.10055950 -0.01501458
v 0.00055732 -0.10173850 -0.01359754
v 0.00019606 -0.10007700 -0.01605987
v 0.00107020 -0.08919131 -0.01833873
v 0.00097214 -0.09193426 -0.01745450
v 0.00159049 -0.09088450 -0.01841223
v 0.00194180 -0.09905636 -0.01499450
v 0.00195908 -0.10060670 -0.01258111
v 0.00154120 -0.10123190 -0.01319605
v 0.00095918 -0.09848564 -0.01178973
v 0.00131792 -0.09999537 -0.00880313
v 0.00176692 -0.09974652 -0.01096385
v 0.00057004 -0.09946304 -0.00915491
v 0.00043102 -0.09832519 -0.01166975
v -0.00029026 -0.09958225 -0.00854379
v 0.00199395 -0.08772176 -0.01988041
v 0.00194299 -0.08988380 -0.01941132
v 0.00200331 -0.09318274 -0.01891320
v 0.00199395 -0.08772176 -0.01988041
v 0.00200331 -0.09318274 -0.01891320
v 0.00194317 -0.09110486 -0.02016115
v 0.00199395 -0.08772176 -0.01988041
v 0.00194317 -0.09110486 -0.02016115
v 0.00193197 -0.08773255 -0.02076143
v 0.00053199 -0.09012717 -0.01786392
v 0.00097214 -0.09193426 -0.01745450
v 0.00107020 -0.08919131 -0.01833873
v 0.00168306 -0.09920328 -0.01572144
v 0.00154120 -0.10123190 -0.01319605
v 0.00100732 -0.10055950 -0.01501458
v 0.00098274 -0.09901046 -0.01690161
v 0.00100732 -0.10055950 -0.01501458
v 0.00019606 -0.10007700 -0.01605987
v 0.00095918 -0.09848564 -0.01178973
v 0.00057004 -0.09946304 -0.00915491
v 0.00131792 -0.09999537 -0.00880313
v 0.00159049 -0.09088450 -0.01841223
v 0.00194299 -0.08988380 -0.01941132
v 0.00168818 -0.08813482 -0.01903921
v 0.00053199 -0.09012717 -0.01786392
v 0.00013408 -0.09280550 -0.01684105
v 0.00097214 -0.09193426 -0.01745450
v 0.00053199 -0.09012717 -0.01786392
v -0.00041748 -0.08993732 -0.01787823
v 0.00013408 -0.09280550 -0.01684105
v 0.00043102 -0.09832519 -0.01166975
v 0.00057004 -0.09946304 -0.00915491
v 0.00095918 -0.09848564 -0.01178973
v 0.00150621 -0.09820872 -0.01305681
v 0.00176692 -0.09974652 -0.01096385
v 0.00179386 -0.09857255 -0.01328212
v 0.00188315 -0.09769099 -0.01474255
v 0.00176692 -0.09974652 -0.01096385
v 0.00200325 -0.10123040 -0.01053082
v 0.00194180 -0.09905636 -0.01499450
v 0.00154120 -0.10123190 -0.01319605
v 0.00168306 -0.09920328 -0.01572144
v 0.00179386 -0.09857255 -0.01328212
v 0.00176692 -0.09974652 -0.01096385
v 0.00188315 -0.09769099 -0.01474255
v 0.00168306 -0.09920328 -0.01572144
v 0.00100732 -0.10055950 -0.01501458
v 0.00098274 -0.09901046 -0.01690161
v 0.00095918 -0.09848564 -0.01178973
v 0.00176692 -0.09974652 -0.01096385
v 0.00150621 -0.09820872 -0.01305681
v 0.00107020 -0.08919131 -0.01833873
v 0.00159049 -0.09088450 -0.01841223
v 0.00168818 -0.08813482 -0.01903921
v 0.00199753 -0.09734463 -0.01598441
v 0.00200325 -0.10123040 -0.01053082
v 0.00195908 -0.10060670 -0.01258111
v 0.00060123 -0.08820676 -0.01821184
v 0.00053199 -0.09012717 -0.01786392
v 0.00107020 -0.08919131 -0.01833873
v 0.00098274 -0.09901046 -0.01690161
v 0.00019606 -0.10007700 -0.01605987
v 0.00004009 -0.09798157 -0.01823014
v 0.00168818 -0.08813482 -0.01903921
v 0.00194299 -0.08988380 -0.01941132
v 0.00199395 -0.08772176 -0.01988041
v 0.00060123 -0.08820676 -0.01821184
v -0.00041748 -0.08993732 -0.01787823
v 0.00053199 -0.09012717 -0.01786392
v 0.00188315 -0.09769099 -0.01474255
v 0.00200325 -0.10123040 -0.01053082
v 0.00199753 -0.09734463 -0.01598441
v 0.00060123 -0.08820676 -0.01821184
v -0.00040408 -0.08809405 -0.01816385
v -0.00041748 -0.08993732 -0.01787823
v 0.00199753 -0.09734463 -0.01598441
v 0.00195908 -0.10060670 -0.01258111
v 0.00194180 -0.09905636 -0.01499450
v 0.00164747 -0.09698545 -0.01792258
v 0.00168306 -0.09920328 -0.01572144
v 0.00098274 -0.09901046 -0.01690161
v 0.00118393 -0.09699088 -0.01406759
v 0.00095918 -0.09848564 -0.01178973
v 0.00150621 -0.09820872 -0.01305681
v 0.00194329 -0.09633708 -0.01762920
v 0.00168306 -0.09920328 -0.01572144
v 0.00164747 -0.09698545 -0.01792258
v -0.00200027 -0.09829813 0.01502978
v -0.00192141 -0.09656870 0.01712614
v -0.00194871 -0.09655058 0.01703530
v -0.00112271 -0.09673672 0.01838308
v -0.00098200 -0.09901046 0.01655298
v -0.00006247 -0.09777891 0.01804769
v -0.00074365 -0.09774702 0.01240110
v 0.00042228 -0.09767806 0.01232808
v -0.00032068 -0.09810948 0.01163125
v -0.00112271 -0.09673672 0.01838308
v -0.00164676 -0.09698551 0.01757407
v -0.00098200 -0.09901046 0.01655298
v -0.00112271 -0.09673672 0.01838308
v -0.00006247 -0.09777891 0.01804769
v -0.00016137 -0.09685736 0.01869505
v -0.00116611 -0.09624737 0.01446533
v -0.00157166 -0.09826511 0.01271092
v -0.00180244 -0.09720957 0.01459968
v -0.00116611 -0.09624737 0.01446533
v -0.00074365 -0.09774702 0.01240110
v -0.00157166 -0.09826511 0.01271092
v 0.00152552 -0.09666365 0.01791650
v 0.00181466 -0.09655815 0.01743227
v 0.00186884 -0.09651637 0.01723450
v -0.00200075 -0.09639614 0.01628088
v -0.00200027 -0.09829813 0.01502978
v -0.00194871 -0.09655058 0.01703530
v -0.00014108 -0.09605133 0.01414376
v -0.00074365 -0.09774702 0.01240110
v -0.00116611 -0.09624737 0.01446533
v -0.00014108 -0.09605133 0.01414376
v 0.00042228 -0.09767806 0.01232808
v -0.00074365 -0.09774702 0.01240110
v -0.00197542 -0.10073210 0.00976688
v -0.00140911 -0.09967690 0.00972271
v -0.00165641 -0.10071890 0.00704443
v -0.00027949 -0.10394650 0.00631511
v 0.00052944 -0.10391000 0.00633544
v -0.00010899 -0.10354630 0.00884581
v -0.00132155 -0.10336040 0.00709683
v -0.00169891 -0.10306760 0.00590563
v -0.00091104 -0.10377160 0.00607955
v -0.00163442 -0.09669595 0.01777094
v -0.00164676 -0.09698551 0.01757407
v -0.00112271 -0.09673672 0.01838308
v -0.00106251 -0.10308240 0.00949597
v -0.00027949 -0.10394650 0.00631511
v -0.00010899 -0.10354630 0.00884581
v -0.00106251 -0.10308240 0.00949597
v -0.00091104 -0.10377160 0.00607955
v -0.00027949 -0.10394650 0.00631511
v -0.00168055 -0.09617227 0.01522505
v -0.00194889 -0.09707993 0.01538532
v -0.00180805 -0.09626775 0.01567620
v -0.00132155 -0.10336040 0.00709683
v -0.00091104 -0.10377160 0.00607955
v -0.00106251 -0.10308240 0.00949597
v -0.00116611 -0.09624737 0.01446533
v -0.00168055 -0.09617227 0.01522505
v -0.00119370 -0.09604555 0.01465702
v -0.00183248 -0.10250140 0.00817889
v -0.00199723 -0.10217600 0.00644130
v -0.00169891 -0.10306760 0.00590563
v -0.00183248 -0.10250140 0.00817889
v -0.00169891 -0.10306760 0.00590563
v -0.00132155 -0.10336040 0.00709683
v -0.00111574 -0.09603321 0.01460450
v -0.00116611 -0.09624737 0.01446533
v -0.00119370 -0.09604555 0.01465702
v -0.00165683 -0.09668666 0.01772367
v -0.00164676 -0.09698551 0.01757407
v -0.00163442 -0.09669595 0.01777094
v -0.00183248 -0.10250140 0.00817889
v -0.00132155 -0.10336040 0.00709683
v -0.00106251 -0.10308240 0.00949597
v -0.00165683 -0.09668666 0.01772367
v -0.00181097 -0.09662520 0.01741087
v -0.00164676 -0.09698551 0.01757407
v -0.00017501 -0.09594029 0.01424348
v -0.00116611 -0.09624737 0.01446533
v -0.00111574 -0.09603321 0.01460450
v -0.00017501 -0.09594029 0.01424348
v -0.00010204 -0.09593838 0.01424103
v -0.00014108 -0.09605133 0.01414376
v -0.00192022 -0.09629845 0.01581460
v -0.00194889 -0.09707993 0.01538532
v -0.00195885 -0.09632986 0.01596343
v -0.00042110 -0.10289660 0.01080083
v -0.00106251 -0.10308240 0.00949597
v -0.00010899 -0.10354630 0.00884581
v -0.00192022 -0.09629845 0.01581460
v -0.00180805 -0.09626775 0.01567620
v -0.00194889 -0.09707993 0.01538532
v -0.00169438 -0.10204030 0.01061034
v -0.00183248 -0.10250140 0.00817889
v -0.00106251 -0.10308240 0.00949597
v -0.00016137 -0.09685736 0.01869505
v 0.00024577 -0.09684038 0.01865184
v -0.00112271 -0.09673672 0.01838308
v -0.00081058 -0.10197780 0.01255548
v -0.00042110 -0.10289660 0.01080083
v 0.00021592 -0.10263260 0.01159060
v -0.00197542 -0.10073210 0.00976688
v -0.00195038 -0.10139630 0.00703228
v -0.00199723 -0.10217600 0.00644130
v -0.00097975 -0.09970390 0.00866133
v -0.00123107 -0.10035800 0.00599861
v -0.00165641 -0.10071890 0.00704443
v -0.00199574 -0.10103820 0.01094472
v -0.00183248 -0.10250140 0.00817889
v -0.00169438 -0.10204030 0.01061034
v -0.00199574 -0.10103820 0.01094472
v -0.00199723 -0.10217600 0.00644130
v -0.00183248 -0.10250140 0.00817889
v -0.00081058 -0.10197780 0.01255548
v -0.00106251 -0.10308240 0.00949597
v -0.00042110 -0.10289660 0.01080083
v -0.00044900 -0.09966719 0.00798392
v -0.00123107 -0.10035800 0.00599861
v -0.00097975 -0.09970390 0.00866133
v -0.00165641 -0.10071890 0.00704443
v -0.00195038 -0.10139630 0.00703228
v -0.00197542 -0.10073210 0.00976688
v -0.00197542 -0.10073210 0.00976688
v -0.00199723 -0.10217600 0.00644130
v -0.00199574 -0.10103820 0.01094472
v -0.00154048 -0.10123190 0.01284742
v -0.00106251 -0.10308240 0.00949597
v -0.00081058 -0.10197780 0.01255548
v -0.00044900 -0.09966719 0.00798392
v -0.00035322 -0.09998482 0.00589460
v -0.00123107 -0.10035800 0.00599861
v -0.00154048 -0.10123190 0.01284742
v -0.00169438 -0.10204030 0.01061034
v -0.00106251 -0.10308240 0.00949597
v -0.00140911 -0.09967690 0.00972271
v -0.00097975 -0.09970390 0.00866133
v -0.00165641 -0.10071890 0.00704443
v -0.00002142 -0.10126350 0.01416409
v -0.00081058 -0.10197780 0.01255548
v 0.00021592 -0.10263260 0.01159060
v -0.00189787 -0.10039020 0.01300293
v -0.00199574 -0.10103820 0.01094472
v -0.00169438 -0.10204030 0.01061034
v -0.00100660 -0.10055950 0.01466614
v -0.00081058 -0.10197780 0.01255548
v -0.00002142 -0.10126350 0.01416409
v -0.00195080 -0.09939277 0.01246309
v -0.00100660 -0.10055950 0.01466614
v -0.00154048 -0.10123190 0.01284742
v -0.00081058 -0.10197780 0.01255548
v -0.00189787 -0.10039020 0.01300293
v -0.00169438 -0.10204030 0.01061034
v -0.00154048 -0.10123190 0.01284742
v -0.00100660 -0.10055950 0.01466614
v -0.00002142 -0.10126350 0.01416409
v -0.00019828 -0.10007940 0.01570779
v 0.00011807 -0.09886169 0.01011919
v 0.00028928 -0.09958195 0.00819480
v -0.00044900 -0.09966719 0.00798392
v 0.00011807 -0.09886169 0.01011919
v -0.00044900 -0.09966719 0.00798392
v -0.00097975 -0.09970390 0.00866133
v -0.00032068 -0.09810948 0.01163125
v -0.00097975 -0.09970390 0.00866133
v -0.00140911 -0.09967690 0.00972271
v -0.00168234 -0.09920328 0.01537281
v -0.00154048 -0.10123190 0.01284742
v -0.00100660 -0.10055950 0.01466614
v -0.00098200 -0.09901046 0.01655298
v -0.00100660 -0.10055950 0.01466614
v -0.00019828 -0.10007940 0.01570779
v -0.00157166 -0.09826511 0.01271092
v -0.00197542 -0.10073210 0.00976688
v -0.00195080 -0.09939277 0.01246309
v -0.00157166 -0.09826511 0.01271092
v -0.00140911 -0.09967690 0.00972271
v -0.00197542 -0.10073210 0.00976688
v -0.00189787 -0.10039020 0.01300293
v -0.00154048 -0.10123190 0.01284742
v -0.00168234 -0.09920328 0.01537281
v -0.00168234 -0.09920328 0.01537281
v -0.00100660 -0.10055950 0.01466614
v -0.00098200 -0.09901046 0.01655298
v -0.00032068 -0.09810948 0.01163125
v 0.00011807 -0.09886169 0.01011919
v -0.00097975 -0.09970390 0.00866133
v -0.00074365 -0.09774702 0.01240110
v -0.00140911 -0.09967690 0.00972271
v -0.00157166 -0.09826511 0.01271092
v -0.00074365 -0.09774702 0.01240110
v -0.00032068 -0.09810948 0.01163125
v -0.00140911 -0.09967690 0.00972271
v -0.00098200 -0.09901046 0.01655298
v -0.00019828 -0.10007940 0.01570779
v -0.00006247 -0.09777891 0.01804769
v -0.00194889 -0.09707993 0.01538532
v -0.00199574 -0.10103820 0.01094472
v -0.00200027 -0.09829813 0.01502978
v -0.00194889 -0.09707993 0.01538532
v -0.00195080 -0.09939277 0.01246309
v -0.00199574 -0.10103820 0.01094472
v -0.00200027 -0.09829813 0.01502978
v -0.00189787 -0.10039020 0.01300293
v -0.00168234 -0.09920328 0.01537281
v -0.00200027 -0.09829813 0.01502978
v -0.00199574 -0.10103820 0.01094472
v -0.00189787 -0.10039020 0.01300293
v -0.00157166 -0.09826511 0.01271092
v -0.00195080 -0.09939277 0.01246309
v -0.00180244 -0.09720957 0.01459968
v -0.00164676 -0.09698551 0.01757407
v -0.00168234 -0.09920328 0.01537281
v -0.00098200 -0.09901046 0.01655298
v -0.00180244 -0.09720957 0.01459968
v -0.00195080 -0.09939277 0.01246309
v -0.00194889 -0.09707993 0.01538532
v -0.00192141 -0.09656870 0.01712614
v -0.00164676 -0.09698551 0.01757407
v -0.00181097 -0.09662520 0.01741087
v 0.00193197 -0.08773255 -0.02076143
v 0.00163949 -0.08099997 -0.02135854
v 0.00204068 -0.08099997 -0.02017432
v 0.00204068 -0.08099997 -0.02017432
v -0.00175953 -0.08883523 -0.02108716
v -0.00199872 -0.08736026 -0.02040517
v -0.00196677 -0.08099997 -0.02071636
v -0.00146747 -0.08805084 -0.02153122
v -0.00196677 -0.08099997 -0.02071636
v -0.00126332 -0.08099997 -0.02175331
v -0.00146747 -0.08805084 -0.02153122
v -0.00175953 -0.08883523 -0.02108716
v -0.00196677 -0.08099997 -0.02071636
v -0.00067869 -0.08849036 -0.02203637
v -0.00146747 -0.08805084 -0.02153122
v -0.00126332 -0.08099997 -0.02175331
v -0.00067869 -0.08849036 -0.02203637
v -0.00126332 -0.08099997 -0.02175331
v 0.00028182 -0.08099997 -0.02224934
v 0.00004157 -0.08786255 -0.02217179
v -0.00067869 -0.08849036 -0.02203637
v 0.00028182 -0.08099997 -0.02224934
v 0.00079116 -0.08781743 -0.02201879
v 0.00004157 -0.08786255 -0.02217179
v 0.00028182 -0.08099997 -0.02224934
v 0.00150037 -0.08840340 -0.02148753
v 0.00028182 -0.08099997 -0.02224934
v 0.00163949 -0.08099997 -0.02135854
v 0.00150037 -0.08840340 -0.02148753
v 0.00079116 -0.08781743 -0.02201879
v 0.00028182 -0.08099997 -0.02224934
v 0.00193197 -0.08773255 -0.02076143
v 0.00150037 -0.08840340 -0.02148753
v 0.00163949 -0.08099997 -0.02135854
v 0.00144303 -0.10337570 0.00630659
v 0.00134462 -0.10346620 -0.00659943
v 0.00174594 -0.10289100 -0.00728226
v 0.00194389 -0.10245280 0.00673687
v 0.00144303 -0.10337570 0.00630659
v 0.00174594 -0.10289100 -0.00728226
v 0.00194389 -0.10245280 0.00673687
v 0.00174594 -0.10289100 -0.00728226
v 0.00201839 -0.10199580 -0.00757623
v -0.00199723 -0.10217600 0.00644130
v -0.00201082 -0.10175970 -0.00716174
v -0.00186461 -0.10272770 -0.00634253
v -0.00169891 -0.10306760 0.00590563
v -0.00199723 -0.10217600 0.00644130
v -0.00186461 -0.10272770 -0.00634253
v 0.00200468 -0.10137090 0.00903082
v 0.00194389 -0.10245280 0.00673687
v 0.00201839 -0.10199580 -0.00757623
v -0.00169891 -0.10306760 0.00590563
v -0.00186461 -0.10272770 -0.00634253
v -0.00132877 -0.10348130 -0.00663322
v -0.00091104 -0.10377160 0.00607955
v -0.00169891 -0.10306760 0.00590563
v -0.00132877 -0.10348130 -0.00663322
v -0.00091104 -0.10377160 0.00607955
v -0.00132877 -0.10348130 -0.00663322
v -0.00046520 -0.10390470 -0.00685030
v -0.00027949 -0.10394650 0.00631511
v -0.00091104 -0.10377160 0.00607955
v -0.00046520 -0.10390470 -0.00685030
v -0.00027949 -0.10394650 0.00631511
v -0.00046520 -0.10390470 -0.00685030
v 0.00056064 -0.10390750 -0.00661981
v 0.00052944 -0.10391000 0.00633544
v -0.00027949 -0.10394650 0.00631511
v 0.00056064 -0.10390750 -0.00661981
v 0.00052944 -0.10391000 0.00633544
v 0.00056064 -0.10390750 -0.00661981
v 0.00134462 -0.10346620 -0.00659943
v 0.00144303 -0.10337570 0.00630659
v 0.00052944 -0.10391000 0.00633544
v 0.00134462 -0.10346620 -0.00659943
v 0.00081192 -0.09596723 0.01446849
v 0.00075803 -0.09608691 0.01432800
v 0.00073151 -0.09595912 0.01442146
v 0.00041695 -0.09963095 0.01618188
v -0.00002142 -0.10126350 0.01416409
v 0.00098070 -0.10121230 0.01374012
v 0.00041695 -0.09963095 0.01618188
v 0.00098070 -0.10121230 0.01374012
v 0.00107640 -0.09941047 0.01604086
v 0.00126636 -0.09601187 0.01472872
v 0.00075803 -0.09608691 0.01432800
v 0.00081192 -0.09596723 0.01446849
v 0.00041695 -0.09963095 0.01618188
v -0.00019828 -0.10007940 0.01570779
v -0.00002142 -0.10126350 0.01416409
v 0.00150621 -0.09608227 0.01509308
v 0.00122988 -0.09687757 0.01394504
v 0.00126636 -0.09601187 0.01472872
v 0.00181466 -0.09655815 0.01743227
v 0.00200808 -0.09740984 0.01590150
v 0.00186884 -0.09651637 0.01723450
v 0.00064729 -0.10005250 0.00599152
v -0.00035322 -0.09998482 0.00589460
v -0.00044900 -0.09966719 0.00798392
v 0.00194782 -0.09623217 0.01586306
v 0.00195432 -0.09729939 0.01514786
v 0.00182825 -0.09619694 0.01568049
v 0.00152552 -0.09666365 0.01791650
v 0.00189066 -0.09850668 0.01550078
v 0.00181466 -0.09655815 0.01743227
v 0.00148785 -0.09667831 0.01798409
v 0.00189066 -0.09850668 0.01550078
v 0.00152552 -0.09666365 0.01791650
v 0.00028928 -0.09958195 0.00819480
v 0.00064729 -0.10005250 0.00599152
v -0.00044900 -0.09966719 0.00798392
v 0.00130558 -0.10043910 0.00610358
v 0.00064729 -0.10005250 0.00599152
v 0.00086152 -0.09982812 0.00798059
v 0.00086152 -0.09982812 0.00798059
v 0.00064729 -0.10005250 0.00599152
v 0.00028928 -0.09958195 0.00819480
v 0.00102955 -0.09718012 0.01811951
v 0.00107640 -0.09941047 0.01604086
v 0.00163060 -0.09946954 0.01520287
v -0.00119370 -0.09604555 0.01465702
v -0.00180805 -0.09626775 0.01567620
v 0.00081192 -0.09596723 0.01446849
v 0.00133574 -0.09992974 0.00881153
v 0.00130558 -0.10043910 0.00610358
v 0.00086152 -0.09982812 0.00798059
v -0.00006247 -0.09777891 0.01804769
v 0.00041695 -0.09963095 0.01618188
v 0.00107640 -0.09941047 0.01604086
v -0.00006247 -0.09777891 0.01804769
v 0.00107640 -0.09941047 0.01604086
v 0.00102955 -0.09718012 0.01811951
v 0.00150621 -0.09608227 0.01509308
v 0.00165713 -0.10075950 0.00695658
v 0.00130558 -0.10043910 0.00610358
v 0.00133574 -0.09992974 0.00881153
v -0.00192141 -0.09656870 0.01712614
v -0.00181097 -0.09662520 0.01741087
v 0.00196606 -0.09642261 0.01678889
v 0.00196606 -0.09642261 0.01678889
v 0.00186884 -0.09651637 0.01723450
v 0.00200808 -0.09740984 0.01590150
v 0.00200695 -0.09638363 0.01660346
v 0.00200808 -0.09740984 0.01590150
v 0.00198805 -0.09634310 0.01640528
v 0.00024577 -0.09684038 0.01865184
v 0.00102955 -0.09718012 0.01811951
v 0.00086316 -0.09679132 0.01847273
v 0.00200695 -0.09638363 0.01660346
v 0.00024577 -0.09684038 0.01865184
v -0.00016137 -0.09685736 0.01869505
v -0.00006247 -0.09777891 0.01804769
v 0.00103676 -0.09676671 0.01836973
v 0.00102955 -0.09718012 0.01811951
v 0.00128841 -0.09672689 0.01820081
v 0.00095785 -0.09905236 0.01032054
v 0.00086152 -0.09982812 0.00798059
v 0.00028928 -0.09958195 0.00819480
v 0.00095785 -0.09905236 0.01032054
v 0.00028928 -0.09958195 0.00819480
v 0.00011807 -0.09886169 0.01011919
v 0.00181013 -0.10026070 0.00969303
v 0.00165713 -0.10075950 0.00695658
v 0.00133574 -0.09992974 0.00881153
v 0.00163877 -0.10271290 0.00868011
v 0.00144303 -0.10337570 0.00630659
v 0.00194389 -0.10245280 0.00673687
v 0.00095785 -0.09905236 0.01032054
v 0.00133574 -0.09992974 0.00881153
v 0.00086152 -0.09982812 0.00798059
v 0.00181013 -0.10026070 0.00969303
v 0.00189561 -0.10123120 0.00703061
v 0.00165713 -0.10075950 0.00695658
v -0.00165683 -0.09668666 0.01772367
v 0.00092649 -0.10331690 0.00886250
v 0.00144303 -0.10337570 0.00630659
v 0.00163877 -0.10271290 0.00868011
v 0.00092649 -0.10331690 0.00886250
v 0.00052944 -0.10391000 0.00633544
v 0.00144303 -0.10337570 0.00630659
v 0.00189561 -0.10172980 0.01018846
v 0.00163877 -0.10271290 0.00868011
v 0.00194389 -0.10245280 0.00673687
v 0.00200468 -0.10137090 0.00903082
v 0.00189561 -0.10123120 0.00703061
v 0.00181013 -0.10026070 0.00969303
v 0.00122386 -0.09861356 0.01156955
v 0.00133574 -0.09992974 0.00881153
v 0.00095785 -0.09905236 0.01032054
v 0.00189561 -0.10172980 0.01018846
v 0.00194389 -0.10245280 0.00673687
v 0.00200468 -0.10137090 0.00903082
v 0.00166529 -0.09887480 0.01209878
v 0.00181013 -0.10026070 0.00969303
v 0.00133574 -0.09992974 0.00881153
v 0.00166529 -0.09887480 0.01209878
v 0.00133574 -0.09992974 0.00881153
v 0.00122386 -0.09861356 0.01156955
v 0.00011807 -0.09886169 0.01011919
v -0.00010899 -0.10354630 0.00884581
v 0.00052944 -0.10391000 0.00633544
v 0.00092649 -0.10331690 0.00886250
v 0.00197887 -0.09948581 0.01246166
v 0.00181013 -0.10026070 0.00969303
v 0.00166529 -0.09887480 0.01209878
v 0.00042228 -0.09767806 0.01232808
v 0.00095785 -0.09905236 0.01032054
v 0.00011807 -0.09886169 0.01011919
v 0.00158101 -0.10180440 0.01160699
v 0.00163877 -0.10271290 0.00868011
v 0.00189561 -0.10172980 0.01018846
v 0.00197887 -0.09948581 0.01246166
v 0.00200468 -0.10137090 0.00903082
v 0.00181013 -0.10026070 0.00969303
v 0.00122386 -0.09861356 0.01156955
v 0.00095785 -0.09905236 0.01032054
v 0.00042228 -0.09767806 0.01232808
v 0.00107336 -0.10241110 0.01133519
v 0.00092649 -0.10331690 0.00886250
v 0.00163877 -0.10271290 0.00868011
v 0.00107336 -0.10241110 0.01133519
v 0.00163877 -0.10271290 0.00868011
v 0.00158101 -0.10180440 0.01160699
v 0.00194240 -0.10062400 0.01237756
v 0.00200468 -0.10137090 0.00903082
v 0.00197887 -0.09948581 0.01246166
v 0.00194240 -0.10062400 0.01237756
v 0.00189561 -0.10172980 0.01018846
v 0.00200468 -0.10137090 0.00903082
v 0.00021592 -0.10263260 0.01159060
v 0.00092649 -0.10331690 0.00886250
v 0.00107336 -0.10241110 0.01133519
v 0.00021592 -0.10263260 0.01159060
v -0.00042110 -0.10289660 0.01080083
v -0.00010899 -0.10354630 0.00884581
v 0.00021592 -0.10263260 0.01159060
v -0.00010899 -0.10354630 0.00884581
v 0.00092649 -0.10331690 0.00886250
v 0.00158101 -0.10180440 0.01160699
v 0.00189561 -0.10172980 0.01018846
v 0.00194240 -0.10062400 0.01237756
v 0.00122988 -0.09687757 0.01394504
v 0.00122386 -0.09861356 0.01156955
v 0.00042228 -0.09767806 0.01232808
v 0.00166529 -0.09887480 0.01209878
v 0.00122386 -0.09861356 0.01156955
v 0.00122988 -0.09687757 0.01394504
v 0.00075803 -0.09608691 0.01432800
v 0.00042228 -0.09767806 0.01232808
v -0.00014108 -0.09605133 0.01414376
v 0.00098070 -0.10121230 0.01374012
v 0.00107336 -0.10241110 0.01133519
v 0.00158101 -0.10180440 0.01160699
v 0.00182539 -0.09749513 0.01431924
v 0.00166529 -0.09887480 0.01209878
v 0.00122988 -0.09687757 0.01394504
v 0.00122988 -0.09687757 0.01394504
v 0.00042228 -0.09767806 0.01232808
v 0.00075803 -0.09608691 0.01432800
v 0.00163060 -0.09946954 0.01520287
v 0.00158101 -0.10180440 0.01160699
v 0.00194240 -0.10062400 0.01237756
v 0.00182539 -0.09749513 0.01431924
v 0.00197887 -0.09948581 0.01246166
v 0.00166529 -0.09887480 0.01209878
v 0.00194240 -0.10062400 0.01237756
v 0.00197887 -0.09948581 0.01246166
v 0.00200808 -0.09740984 0.01590150
v 0.00098070 -0.10121230 0.01374012
v 0.00021592 -0.10263260 0.01159060
v 0.00107336 -0.10241110 0.01133519
v 0.00098070 -0.10121230 0.01374012
v 0.00158101 -0.10180440 0.01160699
v 0.00163060 -0.09946954 0.01520287
v -0.00002142 -0.10126350 0.01416409
v 0.00021592 -0.10263260 0.01159060
v 0.00098070 -0.10121230 0.01374012
v 0.00189066 -0.09850668 0.01550078
v 0.00163060 -0.09946954 0.01520287
v 0.00194240 -0.10062400 0.01237756
v 0.00195432 -0.09729939 0.01514786
v 0.00197887 -0.09948581 0.01246166
v 0.00182539 -0.09749513 0.01431924
v 0.00200808 -0.09740984 0.01590150
v 0.00197887 -0.09948581 0.01246166
v 0.00195432 -0.09729939 0.01514786
v 0.00189066 -0.09850668 0.01550078
v 0.00194240 -0.10062400 0.01237756
v 0.00200808 -0.09740984 0.01590150
v -0.00017501 -0.09594029 0.01424348
v 0.00182539 -0.09749513 0.01431924
v 0.00150621 -0.09608227 0.01509308
v 0.00176930 -0.09614932 0.01544392
v 0.00107640 -0.09941047 0.01604086
v 0.00098070 -0.10121230 0.01374012
v 0.00163060 -0.09946954 0.01520287
v 0.00075803 -0.09608691 0.01432800
v -0.00010204 -0.09593838 0.01424103
v 0.00073151 -0.09595912 0.01442146
v 0.00041695 -0.09963095 0.01618188
v -0.00006247 -0.09777891 0.01804769
v -0.00019828 -0.10007940 0.01570779
v -0.00165641 -0.10071890 0.00704443
v -0.00123107 -0.10035800 0.00599861
v -0.00179541 -0.10099840 -0.00732523
v -0.00165641 -0.10071890 0.00704443
v -0.00179541 -0.10099840 -0.00732523
v -0.00201082 -0.10175970 -0.00716174
v -0.00195038 -0.10139630 0.00703228
v -0.00165641 -0.10071890 0.00704443
v -0.00201082 -0.10175970 -0.00716174
v 0.00189561 -0.10123120 0.00703061
v 0.00201839 -0.10199580 -0.00757623
v 0.00181484 -0.10107770 -0.00633848
v -0.00199723 -0.10217600 0.00644130
v -0.00195038 -0.10139630 0.00703228
v -0.00201082 -0.10175970 -0.00716174
v 0.00189561 -0.10123120 0.00703061
v 0.00200468 -0.10137090 0.00903082
v 0.00201839 -0.10199580 -0.00757623
v 0.00165713 -0.10075950 0.00695658
v 0.00189561 -0.10123120 0.00703061
v 0.00181484 -0.10107770 -0.00633848
v 0.00130558 -0.10043910 0.00610358
v 0.00181484 -0.10107770 -0.00633848
v 0.00112569 -0.10028050 -0.00645739
v 0.00130558 -0.10043910 0.00610358
v 0.00165713 -0.10075950 0.00695658
v 0.00181484 -0.10107770 -0.00633848
v 0.00064729 -0.10005250 0.00599152
v 0.00130558 -0.10043910 0.00610358
v 0.00112569 -0.10028050 -0.00645739
v 0.00064729 -0.10005250 0.00599152
v 0.00112569 -0.10028050 -0.00645739
v -0.00005906 -0.09994214 -0.00624120
v -0.00035322 -0.09998482 0.00589460
v 0.00064729 -0.10005250 0.00599152
v -0.00005906 -0.09994214 -0.00624120
v -0.00035322 -0.09998482 0.00589460
v -0.00005906 -0.09994214 -0.00624120
v -0.00129348 -0.10039600 -0.00647378
v -0.00123107 -0.10035800 0.00599861
v -0.00035322 -0.09998482 0.00589460
v -0.00129348 -0.10039600 -0.00647378
v -0.00123107 -0.10035800 0.00599861
v -0.00129348 -0.10039600 -0.00647378
v -0.00179541 -0.10099840 -0.00732523
v -0.00053298 -0.09990465 -0.01616913
v -0.00065416 -0.10128920 -0.01424103
v -0.00133949 -0.09949839 -0.01598078
v -0.00133693 -0.09448581 -0.01641601
v -0.00133210 -0.09633547 -0.01491379
v -0.00085803 -0.09667056 -0.01417243
v -0.00133693 -0.09448581 -0.01641601
v -0.00085803 -0.09667056 -0.01417243
v -0.00043875 -0.09462642 -0.01575094
v -0.00200373 -0.09352439 -0.01894485
v -0.00199473 -0.09805667 -0.01487743
v -0.00194103 -0.09566491 -0.01682364
v -0.00053298 -0.09990465 -0.01616913
v 0.00019606 -0.10007700 -0.01605987
v -0.00065416 -0.10128920 -0.01424103
v -0.00197691 -0.09845119 -0.01540488
v -0.00199473 -0.09805667 -0.01487743
v -0.00200373 -0.09352439 -0.01894485
v -0.00190151 -0.09415072 -0.01764661
v -0.00194103 -0.09566491 -0.01682364
v -0.00133210 -0.09633547 -0.01491379
v -0.00190151 -0.09415072 -0.01764661
v -0.00133210 -0.09633547 -0.01491379
v -0.00133693 -0.09448581 -0.01641601
v -0.00184292 -0.09681743 -0.01763826
v -0.00175905 -0.09912067 -0.01559662
v -0.00197691 -0.09845119 -0.01540488
v -0.00089373 -0.09343934 -0.01668739
v -0.00043875 -0.09462642 -0.01575094
v 0.00013408 -0.09280550 -0.01684105
v -0.00184292 -0.09681743 -0.01763826
v -0.00133949 -0.09949839 -0.01598078
v -0.00175905 -0.09912067 -0.01559662
v -0.00116700 -0.09796196 -0.01772356
v -0.00133949 -0.09949839 -0.01598078
v -0.00184292 -0.09681743 -0.01763826
v -0.00098097 -0.10006480 -0.00744128
v -0.00129348 -0.10039600 -0.00647378
v -0.00005906 -0.09994214 -0.00624120
v -0.00089373 -0.09343934 -0.01668739
v -0.00133693 -0.09448581 -0.01641601
v -0.00043875 -0.09462642 -0.01575094
v -0.00184292 -0.09681743 -0.01763826
v -0.00197691 -0.09845119 -0.01540488
v -0.00200373 -0.09352439 -0.01894485
v -0.00199473 -0.09805667 -0.01487743
v -0.00191075 -0.09898805 -0.01311028
v -0.00194103 -0.09566491 -0.01682364
v -0.00089373 -0.09343934 -0.01668739
v 0.00013408 -0.09280550 -0.01684105
v -0.00083633 -0.09186679 -0.01740705
v -0.00029026 -0.09958225 -0.00854379
v -0.00005906 -0.09994214 -0.00624120
v 0.00026476 -0.09982180 -0.00743115
v -0.00116700 -0.09796196 -0.01772356
v -0.00053298 -0.09990465 -0.01616913
v -0.00133949 -0.09949839 -0.01598078
v -0.00098097 -0.10006480 -0.00744128
v -0.00005906 -0.09994214 -0.00624120
v -0.00029026 -0.09958225 -0.00854379
v 0.00004009 -0.09798157 -0.01823014
v -0.00053298 -0.09990465 -0.01616913
v -0.00116700 -0.09796196 -0.01772356
v 0.00004009 -0.09798157 -0.01823014
v 0.00019606 -0.10007700 -0.01605987
v -0.00053298 -0.09990465 -0.01616913
v -0.00145197 -0.09991830 -0.00966078
v -0.00129348 -0.10039600 -0.00647378
v -0.00098097 -0.10006480 -0.00744128
v -0.00179541 -0.10099840 -0.00732523
v -0.00129348 -0.10039600 -0.00647378
v -0.00145197 -0.09991830 -0.00966078
v -0.00099894 -0.09957033 -0.00941622
v -0.00098097 -0.10006480 -0.00744128
v -0.00029026 -0.09958225 -0.00854379
v -0.00151932 -0.09580093 -0.01894485
v -0.00116700 -0.09796196 -0.01772356
v -0.00184292 -0.09681743 -0.01763826
v -0.00160468 -0.09218513 -0.01796025
v -0.00133693 -0.09448581 -0.01641601
v -0.00089373 -0.09343934 -0.01668739
v -0.00160468 -0.09218513 -0.01796025
v -0.00089373 -0.09343934 -0.01668739
v -0.00083633 -0.09186679 -0.01740705
v 0.00004009 -0.09798157 -0.01823014
v -0.00116700 -0.09796196 -0.01772356
v -0.00066366 -0.09649157 -0.01918607
v -0.00066366 -0.09649157 -0.01918607
v -0.00116700 -0.09796196 -0.01772356
v -0.00151932 -0.09580093 -0.01894485
v -0.00145197 -0.09991830 -0.00966078
v -0.00098097 -0.10006480 -0.00744128
v -0.00099894 -0.09957033 -0.00941622
v -0.00160468 -0.09218513 -0.01796025
v -0.00190151 -0.09415072 -0.01764661
v -0.00133693 -0.09448581 -0.01641601
v -0.00200373 -0.09352439 -0.01894485
v -0.00194103 -0.09566491 -0.01682364
v -0.00190151 -0.09415072 -0.01764661
v -0.00066366 -0.09649157 -0.01918607
v 0.00020148 -0.09650927 -0.01928788
v 0.00004009 -0.09798157 -0.01823014
v -0.00132877 -0.10348130 -0.00663322
v -0.00186461 -0.10272770 -0.00634253
v -0.00163347 -0.10281330 -0.00862342
v -0.00064029 -0.09889179 -0.01065087
v -0.00029026 -0.09958225 -0.00854379
v 0.00043102 -0.09832519 -0.01166975
v -0.00187302 -0.10198990 -0.01002496
v -0.00201082 -0.10175970 -0.00716174
v -0.00199819 -0.10125250 -0.01061010
v -0.00187302 -0.10198990 -0.01002496
v -0.00186461 -0.10272770 -0.00634253
v -0.00201082 -0.10175970 -0.00716174
v -0.00176013 -0.09369087 -0.01969087
v -0.00184292 -0.09681743 -0.01763826
v -0.00200373 -0.09352439 -0.01894485
v -0.00041748 -0.08993732 -0.01787823
v -0.00083633 -0.09186679 -0.01740705
v 0.00013408 -0.09280550 -0.01684105
v -0.00176013 -0.09369087 -0.01969087
v -0.00151932 -0.09580093 -0.01894485
v -0.00184292 -0.09681743 -0.01763826
v -0.00185496 -0.09012794 -0.01909619
v -0.00190151 -0.09415072 -0.01764661
v -0.00160468 -0.09218513 -0.01796025
v -0.00090559 -0.09442025 -0.02026355
v -0.00066366 -0.09649157 -0.01918607
v -0.00151932 -0.09580093 -0.01894485
v -0.00099894 -0.09957033 -0.00941622
v -0.00029026 -0.09958225 -0.00854379
v -0.00064029 -0.09889179 -0.01065087
v -0.00163347 -0.10281330 -0.00862342
v -0.00186461 -0.10272770 -0.00634253
v -0.00187302 -0.10198990 -0.01002496
v -0.00133222 -0.09022605 -0.01827198
v -0.00083633 -0.09186679 -0.01740705
v -0.00041748 -0.08993732 -0.01787823
v -0.00191235 -0.10040650 -0.01037395
v -0.00179541 -0.10099840 -0.00732523
v -0.00145197 -0.09991830 -0.00966078
v -0.00140142 -0.09304118 -0.02050834
v -0.00151932 -0.09580093 -0.01894485
v -0.00176013 -0.09369087 -0.01969087
v -0.00112981 -0.10298810 -0.00996452
v -0.00132877 -0.10348130 -0.00663322
v -0.00163347 -0.10281330 -0.00862342
v -0.00133222 -0.09022605 -0.01827198
v -0.00160468 -0.09218513 -0.01796025
v -0.00083633 -0.09186679 -0.01740705
v -0.00191235 -0.10040650 -0.01037395
v -0.00201082 -0.10175970 -0.00716174
v -0.00179541 -0.10099840 -0.00732523
v -0.00090559 -0.09442025 -0.02026355
v -0.00151932 -0.09580093 -0.01894485
v -0.00140142 -0.09304118 -0.02050834
v -0.00046520 -0.10390470 -0.00685030
v -0.00132877 -0.10348130 -0.00663322
v -0.00112981 -0.10298810 -0.00996452
v -0.00199819 -0.10125250 -0.01061010
v -0.00201082 -0.10175970 -0.00716174
v -0.00191235 -0.10040650 -0.01037395
v -0.00200373 -0.09352439 -0.01894485
v -0.00190151 -0.09415072 -0.01764661
v -0.00185496 -0.09012794 -0.01909619
v -0.00145197 -0.09991830 -0.00966078
v -0.00099894 -0.09957033 -0.00941622
v -0.00064029 -0.09889179 -0.01065087
v -0.00185496 -0.09012794 -0.01909619
v -0.00160468 -0.09218513 -0.01796025
v -0.00133222 -0.09022605 -0.01827198
v -0.00038531 -0.09388250 -0.02070432
v -0.00066366 -0.09649157 -0.01918607
v -0.00090559 -0.09442025 -0.02026355
v -0.00057804 -0.10321670 -0.01010710
v -0.00046520 -0.10390470 -0.00685030
v -0.00112981 -0.10298810 -0.00996452
v -0.00038531 -0.09388250 -0.02070432
v 0.00040503 -0.09398728 -0.02066344
v 0.00020148 -0.09650927 -0.01928788
v -0.00038531 -0.09388250 -0.02070432
v 0.00020148 -0.09650927 -0.01928788
v -0.00066366 -0.09649157 -0.01918607
v -0.00053050 -0.09801465 -0.01220893
v -0.00064029 -0.09889179 -0.01065087
v 0.00043102 -0.09832519 -0.01166975
v -0.00112981 -0.10298810 -0.00996452
v -0.00163347 -0.10281330 -0.00862342
v -0.00150973 -0.10215120 -0.01136523
v 0.00011735 -0.10354460 -0.00919706
v -0.00046520 -0.10390470 -0.00685030
v -0.00057804 -0.10321670 -0.01010710
v -0.00187302 -0.10198990 -0.01002496
v -0.00150973 -0.10215120 -0.01136523
v -0.00163347 -0.10281330 -0.00862342
v -0.00187814 -0.09068983 -0.02048671
v -0.00176013 -0.09369087 -0.01969087
v -0.00200373 -0.09352439 -0.01894485
v -0.00133675 -0.09812241 -0.01283586
v -0.00064029 -0.09889179 -0.01065087
v -0.00053050 -0.09801465 -0.01220893
v -0.00139075 -0.08826082 -0.01865816
v -0.00041748 -0.08993732 -0.01787823
v -0.00040408 -0.08809405 -0.01816385
v -0.00139075 -0.08826082 -0.01865816
v -0.00133222 -0.09022605 -0.01827198
v -0.00041748 -0.08993732 -0.01787823
v -0.00053050 -0.09801465 -0.01220893
v 0.00043102 -0.09832519 -0.01166975
v 0.00013989 -0.09730553 -0.01308649
v -0.00133675 -0.09812241 -0.01283586
v -0.00145197 -0.09991830 -0.00966078
v -0.00064029 -0.09889179 -0.01065087
v -0.00199819 -0.10125250 -0.01061010
v -0.00191235 -0.10040650 -0.01037395
v -0.00191075 -0.09898805 -0.01311028
v -0.00140142 -0.09304118 -0.02050834
v -0.00176013 -0.09369087 -0.01969087
v -0.00187814 -0.09068983 -0.02048671
v -0.00191075 -0.09898805 -0.01311028
v -0.00145197 -0.09991830 -0.00966078
v -0.00133675 -0.09812241 -0.01283586
v -0.00191075 -0.09898805 -0.01311028
v -0.00191235 -0.10040650 -0.01037395
v -0.00145197 -0.09991830 -0.00966078
v -0.00189853 -0.10034760 -0.01341480
v -0.00187302 -0.10198990 -0.01002496
v -0.00199819 -0.10125250 -0.01061010
v -0.00185496 -0.09012794 -0.01909619
v -0.00133222 -0.09022605 -0.01827198
v -0.00139075 -0.08826082 -0.01865816
v -0.00057804 -0.10321670 -0.01010710
v 0.00008247 -0.10266940 -0.01183974
v 0.00011735 -0.10354460 -0.00919706
v -0.00150973 -0.10215120 -0.01136523
v -0.00187302 -0.10198990 -0.01002496
v -0.00189853 -0.10034760 -0.01341480
v -0.00071021 -0.09125018 -0.02153551
v -0.00090559 -0.09442025 -0.02026355
v -0.00140142 -0.09304118 -0.02050834
v -0.00085803 -0.09667056 -0.01417243
v -0.00053050 -0.09801465 -0.01220893
v 0.00013989 -0.09730553 -0.01308649
v -0.00038531 -0.09388250 -0.02070432
v -0.00090559 -0.09442025 -0.02026355
v -0.00071021 -0.09125018 -0.02153551
v -0.00085803 -0.09667056 -0.01417243
v -0.00133675 -0.09812241 -0.01283586
v -0.00053050 -0.09801465 -0.01220893
v -0.00194919 -0.08760732 -0.01969629
v -0.00200373 -0.09352439 -0.01894485
v -0.00185496 -0.09012794 -0.01909619
v -0.00038531 -0.09388250 -0.02070432
v 0.00016561 -0.09178394 -0.02150905
v 0.00040503 -0.09398728 -0.02066344
v -0.00064968 -0.10226120 -0.01247745
v -0.00112981 -0.10298810 -0.00996452
v -0.00150973 -0.10215120 -0.01136523
v -0.00175953 -0.08883523 -0.02108716
v -0.00140142 -0.09304118 -0.02050834
v -0.00187814 -0.09068983 -0.02048671
v -0.00199872 -0.08736026 -0.02040517
v -0.00200373 -0.09352439 -0.01894485
v -0.00194919 -0.08760732 -0.01969629
v -0.00187814 -0.09068983 -0.02048671
v -0.00200373 -0.09352439 -0.01894485
v -0.00199872 -0.08736026 -0.02040517
v -0.00064968 -0.10226120 -0.01247745
v -0.00057804 -0.10321670 -0.01010710
v -0.00112981 -0.10298810 -0.00996452
v -0.00126171 -0.08978378 -0.02151781
v -0.00140142 -0.09304118 -0.02050834
v -0.00175953 -0.08883523 -0.02108716
v -0.00151950 -0.10076060 -0.01399189
v -0.00150973 -0.10215120 -0.01136523
v -0.00189853 -0.10034760 -0.01341480
v -0.00064968 -0.10226120 -0.01247745
v 0.00008247 -0.10266940 -0.01183974
v -0.00057804 -0.10321670 -0.01010710
v 0.00016561 -0.09178394 -0.02150905
v -0.00038531 -0.09388250 -0.02070432
v -0.00071021 -0.09125018 -0.02153551
v -0.00071021 -0.09125018 -0.02153551
v -0.00140142 -0.09304118 -0.02050834
v -0.00126171 -0.08978378 -0.02151781
v -0.00189853 -0.10034760 -0.01341480
v -0.00199819 -0.10125250 -0.01061010
v -0.00197691 -0.09845119 -0.01540488
v -0.00085803 -0.09667056 -0.01417243
v 0.00013989 -0.09730553 -0.01308649
v 0.00007102 -0.09602826 -0.01451802
v -0.00194919 -0.08760732 -0.01969629
v -0.00185496 -0.09012794 -0.01909619
v -0.00139075 -0.08826082 -0.01865816
v -0.00146747 -0.08805084 -0.02153122
v -0.00126171 -0.08978378 -0.02151781
v -0.00175953 -0.08883523 -0.02108716
v -0.00065416 -0.10128920 -0.01424103
v -0.00150973 -0.10215120 -0.01136523
v -0.00151950 -0.10076060 -0.01399189
v -0.00065416 -0.10128920 -0.01424103
v -0.00064968 -0.10226120 -0.01247745
v -0.00150973 -0.10215120 -0.01136523
v -0.00199473 -0.09805667 -0.01487743
v -0.00199819 -0.10125250 -0.01061010
v -0.00191075 -0.09898805 -0.01311028
v -0.00071021 -0.09125018 -0.02153551
v 0.00048112 -0.08977782 -0.02192199
v 0.00016561 -0.09178394 -0.02150905
v -0.00199819 -0.10125250 -0.01061010
v -0.00067869 -0.08849036 -0.02203637
v -0.00071021 -0.09125018 -0.02153551
v -0.00126171 -0.08978378 -0.02151781
v -0.00133210 -0.09633547 -0.01491379
v -0.00133675 -0.09812241 -0.01283586
v -0.00085803 -0.09667056 -0.01417243
v -0.00175953 -0.08883523 -0.02108716
v -0.00187814 -0.09068983 -0.02048671
v -0.00199872 -0.08736026 -0.02040517
v -0.00067869 -0.08849036 -0.02203637
v 0.00048112 -0.08977782 -0.02192199
v -0.00071021 -0.09125018 -0.02153551
v -0.00065416 -0.10128920 -0.01424103
v 0.00055732 -0.10173850 -0.01359754
v 0.00008247 -0.10266940 -0.01183974
v -0.00064968 -0.10226120 -0.01247745
v -0.00194103 -0.09566491 -0.01682364
v -0.00133675 -0.09812241 -0.01283586
v -0.00133210 -0.09633547 -0.01491379
v -0.00194103 -0.09566491 -0.01682364
v -0.00191075 -0.09898805 -0.01311028
v -0.00133675 -0.09812241 -0.01283586
v -0.00067869 -0.08849036 -0.02203637
v 0.00004157 -0.08786255 -0.02217179
v 0.00048112 -0.08977782 -0.02192199
v -0.00067869 -0.08849036 -0.02203637
v -0.00126171 -0.08978378 -0.02151781
v -0.00146747 -0.08805084 -0.02153122
v -0.00175905 -0.09912067 -0.01559662
v -0.00151950 -0.10076060 -0.01399189
v -0.00189853 -0.10034760 -0.01341480
v -0.00133949 -0.09949839 -0.01598078
v -0.00151950 -0.10076060 -0.01399189
v -0.00175905 -0.09912067 -0.01559662
v -0.00175905 -0.09912067 -0.01559662
v -0.00189853 -0.10034760 -0.01341480
v -0.00197691 -0.09845119 -0.01540488
v -0.00043875 -0.09462642 -0.01575094
v -0.00085803 -0.09667056 -0.01417243
v 0.00007102 -0.09602826 -0.01451802
v -0.00065416 -0.10128920 -0.01424103
v 0.00019606 -0.10007700 -0.01605987
v 0.00055732 -0.10173850 -0.01359754
v -0.00133949 -0.09949839 -0.01598078
v -0.00065416 -0.10128920 -0.01424103
v -0.00151950 -0.10076060 -0.01399189
v -0.00194919 -0.08760732 -0.01969629
v -0.00139075 -0.08826082 -0.01865816
v -0.00169498 -0.08099997 -0.01894575
v -0.00194919 -0.08760732 -0.01969629
v -0.00169498 -0.08099997 -0.01894575
v -0.00196677 -0.08099997 -0.02071636
v -0.00199872 -0.08736026 -0.02040517
v -0.00194919 -0.08760732 -0.01969629
v -0.00196677 -0.08099997 -0.02071636
v 0.00199395 -0.08772176 -0.01988041
v 0.00204068 -0.08099997 -0.02017432
v 0.00163949 -0.08099997 -0.01898974
v 0.00168818 -0.08813482 -0.01903921
v 0.00199395 -0.08772176 -0.01988041
v 0.00163949 -0.08099997 -0.01898974
v 0.00107020 -0.08919131 -0.01833873
v 0.00168818 -0.08813482 -0.01903921
v 0.00163949 -0.08099997 -0.01898974
v 0.00107020 -0.08919131 -0.01833873
v 0.00163949 -0.08099997 -0.01898974
v 0.00028180 -0.08099997 -0.01809900
v 0.00060123 -0.08820676 -0.01821184
v 0.00107020 -0.08919131 -0.01833873
v 0.00028180 -0.08099997 -0.01809900
v -0.00040408 -0.08809405 -0.01816385
v 0.00060123 -0.08820676 -0.01821184
v 0.00028180 -0.08099997 -0.01809900
v -0.00040408 -0.08809405 -0.01816385
v 0.00028180 -0.08099997 -0.01809900
v -0.00169498 -0.08099997 -0.01894575
v -0.00139075 -0.08826082 -0.01865816
v -0.00040408 -0.08809405 -0.01816385
v -0.00169498 -0.08099997 -0.01894575
v 0.00163949 -0.08099997 -0.02135854
v 0.00028182 -0.08099997 -0.02224934
v -0.00126332 -0.08099997 -0.02175331
v -0.00196677 -0.08099997 -0.02071636
v 0.00204068 -0.08099997 -0.02017432
v 0.00163949 -0.08099997 -0.01898974
v -0.00169498 -0.08099997 -0.01894575
v 0.00028180 -0.08099997 -0.01809900
v 0.00086316 -0.09679132 0.01847273
v 0.00102955 -0.09718012 0.01811951
v 0.00103676 -0.09676671 0.01836973
v 0.00194782 -0.09623217 0.01586306
v 0.00182825 -0.09619694 0.01568049
v 0.00200695 -0.09638363 0.01660346
v 0.00198805 -0.09634310 0.01640528
v -0.00163442 -0.09669595 0.01777094
v 0.00024577 -0.09684038 0.01865184
v 0.00086316 -0.09679132 0.01847273
v 0.00073151 -0.09595912 0.01442146
v -0.00010204 -0.09593838 0.01424103
v 0.00200808 -0.09740984 0.01590150
v 0.00194782 -0.09623217 0.01586306
v 0.00198805 -0.09634310 0.01640528
v -0.00195885 -0.09632986 0.01596343
v -0.00200075 -0.09639614 0.01628088
v -0.00194871 -0.09655058 0.01703530
v -0.00194889 -0.09707993 0.01538532
v -0.00200075 -0.09639614 0.01628088
v -0.00195885 -0.09632986 0.01596343
v -0.00168055 -0.09617227 0.01522505
v 0.00128841 -0.09672689 0.01820081
v 0.00148785 -0.09667831 0.01798409
v 0.00176930 -0.09614932 0.01544392
v -0.00163442 -0.09669595 0.01777094
v -0.00112271 -0.09673672 0.01838308
v 0.00024577 -0.09684038 0.01865184
v 0.00126636 -0.09601187 0.01472872
v 0.00195432 -0.09729939 0.01514786
v 0.00176930 -0.09614932 0.01544392
v 0.00182825 -0.09619694 0.01568049
v 0.00086316 -0.09679132 0.01847273
v 0.00103676 -0.09676671 0.01836973
v 0.00128841 -0.09672689 0.01820081
v -0.00111574 -0.09603321 0.01460450
v -0.00192022 -0.09629845 0.01581460
v 0.00102955 -0.09718012 0.01811951
v 0.00148785 -0.09667831 0.01798409
v 0.00128841 -0.09672689 0.01820081
v -0.00168234 -0.09920328 0.01537281
v -0.00180244 -0.09720957 0.01459968
v -0.00180244 -0.09720957 0.01459968
v -0.00014108 -0.09605133 0.01414376
v -0.00168234 -0.09920328 0.01537281
v 0.00122988 -0.09687757 0.01394504
v 0.00189066 -0.09850668 0.01550078
v 0.00163060 -0.09946954 0.01520287
v -0.00006247 -0.09777891 0.01804769
v 0.00122988 -0.09687757 0.01394504
v -0.00014108 -0.09605133 0.01414376
v 0.00195432 -0.09729939 0.01514786
v -0.00200027 -0.09829813 0.01502978
v 0.00182539 -0.09749513 0.01431924
v 0.00163060 -0.09946954 0.01520287
f 1 2 3
f 4 5 6
f 7 8 9
f 10 11 12
f 13 14 15
f 16 17 18
f 19 20 21
f 22 23 24
f 25 26 27
f 28 29 30
f 31 32 33
f 34 35 36
f 37 38 39
f 40 41 42
f 43 44 45
f 46 47 48
f 49 50 51
f 52 53 54
f 55 56 57
f 58 59 60
f 61 62 63
f 64 65 66
f 67 68 69
f 70 71 72
f 73 74 75
f 76 77 78
f 79 80 81
f 82 83 84
f 85 86 87
f 88 89 90
f 91 92 93
f 94 95 96
f 97 98 99
f 100 101 102
f 103 104 105
f 106 107 108
f 109 110 111
f 112 113 114
f 115 116 117
f 118 119 120
f 121 122 123
f 124 125 126
f 127 128 129
f 130 131 132
f 133 134 135
f 136 137 138
f 139 140 141
f 142 143 144
f 145 146 147
f 148 149 150
f 151 152 153
f 154 155 156
f 157 158 159
f 160 161 162
f 163 164 165
f 166 167 168
f 169 170 171
f 172 173 174
f 175 176 177
f 178 179 180
f 181 182 183
f 184 185 186
f 187 188 189
f 190 191 192
f 193 194 195
f 196 197 198
f 199 200 201
f 202 203 204
f 205 206 207
f 208 209 210
f 211 212 213
f 214 215 216
f 217 218 219
f 220 221 222
f 223 224 225
f 226 227 228
f 229 230 231
f 232 233 234
f 235 236 237
f 238 239 240
f 241 242 243
f 244 245 246
f 247 248 249
f 250 251 252
f 253 254 255
f 256 257 258
f 259 260 261
f 262 263 264
f 265 266 267
f 268 269 270
f 271 272 273
f 274 275 276
f 277 278 279
f 280 281 282
f 283 284 285
f 286 287 288
f 289 290 291
f 292 293 294
f 295 296 297
f 298 299 300
f 301 302 303
f 304 305 306
f 307 308 309
f 310 311 312
f 313 314 315
f 316 317 318
f 319 320 321
f 322 323 324
f 325 326 327
f 328 329 330
f 331 332 333
f 334 335 336
f 337 338 339
f 340 341 342
f 343 344 345
f 346 347 348
f 349 350 351
f 352 353 354
f 355 356 357
f 358 359 360
f 361 362 363
f 364 365 366
f 367 368 369
f 370 371 372
f 373 374 375
f 376 377 378
f 379 380 381
f 382 383 384
f 385 386 387
f 388 389 390
f 391 392 393
f 394 395 396
f 397 398 399
f 400 401 402
f 403 404 405
f 406 407 408
f 409 410 411
f 412 413 414
f 415 416 417
f 418 419 420
f 421 422 423
f 424 425 426
f 427 428 429
f 430 431 432
f 433 434 435
f 436 437 438
f 439 440 441
f 442 443 444
f 445 446 447
f 448 449 450
f 451 452 453
f 454 455 456
f 457 458 459
f 460 461 462
f 463 464 465
f 466 467 468
f 469 470 471
f 472 473 474
f 475 476 477
f 478 479 480
f 481 482 483
f 484 460 462
f 485 486 487
f 488 489 490
f 491 492 493
f 494 495 496
f 497 498 499
f 500 501 502
f 503 504 505
f 506 507 508
f 509 510 511
f 512 513 514
f 515 516 517
f 518 519 520
f 521 522 523
f 524 525 526
f 527 528 529
f 530 531 532
f 533 534 535
f 536 537 538
f 539 540 541
f 542 543 544
f 545 546 547
f 548 549 550
f 551 552 553
f 554 555 556
f 557 558 559
f 256 258 560
f 561 562 563
f 564 565 566
f 567 568 569
f 570 571 572
f 573 574 575
f 576 577 578
f 579 580 581
f 582 583 584
f 585 586 587
f 588 589 590
f 591 592 593
f 594 595 596
f 597 598 599
f 600 601 602
f 603 604 605
f 606 607 608
f 609 610 611
f 612 613 614
f 615 616 617
f 618 619 620
f 621 622 623
f 624 625 626
f 627 628 629
f 630 631 632
f 633 634 635
f 636 637 638
f 639 640 641
f 642 643 644
f 645 646 647
f 648 649 650
f 651 652 653
f 654 655 656
f 657 658 659
f 660 661 662
f 663 664 665
f 666 667 668
f 669 670 671
f 672 673 674
f 675 676 677
f 678 679 680
f 681 682 683
f 684 685 686
f 687 688 689
f 690 680 679
f 691 692 693
f 694 695 696
f 697 698 699
f 700 701 702
f 703 704 705
f 697 699 706
f 707 708 709
f 710 711 712
f 713 714 715
f 716 717 718
f 719 720 721
f 722 723 724
f 725 726 727
f 728 729 730
f 731 360 695
f 732 733 734
f 735 736 737
f 738 739 740
f 741 742 743
f 744 745 746
f 747 748 749
f 750 751 752
f 753 754 755
f 344 756 345
f 757 758 759
f 760 761 762
f 763 764 765
f 766 767 768
f 769 770 771
f 772 773 774
f 775 776 777
f 778 779 780
f 781 782 783
f 784 785 786
f 787 788 789
f 790 791 792
f 793 794 795
f 796 797 798
f 799 800 801
f 802 803 804
f 805 806 807
f 808 809 810
f 811 812 813
f 814 815 816
f 817 818 819
f 820 821 822
f 823 824 825
f 826 827 828
f 829 830 831
f 832 833 834
f 835 836 837
f 838 839 840
f 841 842 843
f 844 845 846
f 847 678 680
f 848 849 850
f 851 852 853
f 854 855 856
f 857 858 859
f 860 861 862
f 863 864 865
f 866 867 868
f 869 870 871
f 872 873 874
f 875 876 877
f 878 879 880
f 881 882 883
f 884 885 886
f 887 888 889
f 890 891 892
f 893 894 895
f 896 897 898
f 899 900 901
f 902 903 904
f 905 906 907
f 908 909 910
f 911 912 913
f 914 915 916
f 917 918 919
f 920 921 922
f 923 924 925
f 926 927 928
f 929 930 931
f 932 933 934
f 935 936 937
f 938 939 940
f 941 942 943
f 944 945 946
f 947 948 949
f 950 951 952
f 953 954 955
f 956 957 958
f 959 960 961
f 962 963 964
f 965 966 967
f 968 969 970
f 971 972 973
f 974 975 976
f 977 978 979
f 980 981 982
f 983 984 985
f 986 987 988
f 989 990 991
f 992 993 994
f 995 996 997
f 998 999 1000
f 1001 1002 1003
f 1004 1005 1006
f 1007 1008 1009
f 1010 1011 1012
f 1013 1014 1015
f 1016 1017 1018
f 1019 1020 1021
f 1022 1023 1024
f 1025 1026 1027
f 1028 1029 1030
f 1031 1032 1033
f 1034 1035 1036
f 1037 1038 1039
f 1040 1041 1042
f 1043 1044 1045
f 1046 1047 1048
f 1049 1050 1051
f 1052 1053 1054
f 1055 1056 1057
f 1058 1059 1060
f 1061 1062 1063
f 1064 1065 1066
f 1067 1068 1069
f 1070 1071 1072
f 1073 1074 1075
f 1076 1077 1078
f 1079 1080 1081
f 1082 1083 1084
f 1085 1086 1087
f 1088 1089 1090
f 1091 1092 1093
f 1094 1095 1096
f 1097 1098 1099
f 1100 1101 1102
f 1103 1104 1105
f 1106 1107 1108
f 1109 1110 1111
f 1112 1113 1114
f 1115 1116 1117
f 1118 1119 1120
f 1121 1122 1123
f 1124 1125 1126
f 1127 1128 1129
f 1130 1131 1132
f 1133 1134 1135
f 1136 1137 1138
f 1139 1140 1141
f 1142 1143 1144
f 1145 1146 1147
f 1148 1149 1150
f 1151 1152 1153
f 1154 1155 1156
f 1157 1158 1159
f 1160 1161 1162
f 1163 1164 1165
f 1166 1167 1168
f 1169 1170 1171
f 1172 1173 1174
f 1175 1176 1177
f 1178 1179 1180
f 1181 1182 1183
f 1184 1185 1186
f 1187 1188 1189
f 1190 1191 1192
f 1193 1194 1195
f 1196 1197 1198
f 1199 1200 1201
f 1202 1203 1204
f 1205 1206 1207
f 1208 1209 1210
f 1211 1212 1213
f 921 920 1214
f 1215 1216 1217
f 1218 1219 1220
f 1221 1222 1223
f 1224 1225 1226
f 1227 1228 1229
f 1227 1229 1230
f 1231 1232 1233
f 1234 1235 1236
f 1237 1238 1239
f 1240 1241 1242
f 1243 1244 1245
f 1246 1247 1248
f 1249 1250 1251
f 1252 1253 1254
f 1255 1256 1257
f 1258 1259 1260
f 1261 1262 1263
f 1264 1265 1266
f 1267 1268 1269
f 1270 1271 1272
f 1273 1274 1275
f 1276 1277 1278
f 1279 1280 1281
f 1282 1283 1284
f 1285 1286 1287
f 1288 1289 1290
f 1291 1292 1293
f 1294 1295 1296
f 1294 1297 1298
f 1294 1296 1297
f 1299 1300 1301
f 1298 1300 1299
f 1298 1297 1300
f 1302 1303 1304
f 696 1305 1306
f 696 1307 1308
f 696 1308 1305
f 1309 1310 1311
f 1312 1313 847
f 1314 1315 1316
f 1317 1318 1319
f 1320 1321 1322
f 678 1323 679
f 1319 694 696
f 1324 1325 358
f 731 1309 1311
f 1306 1326 690
f 680 1312 847
f 1327 1328 1329
f 690 679 1306
f 1311 1324 358
f 679 1317 1319
f 690 1330 680
f 1331 1332 1333
f 695 360 696
f 1319 696 679
f 358 360 731
f 1334 1335 1336
f 696 1306 679
f 1311 358 731
f 847 1337 678
f 679 1338 1317
f 1339 1340 1341
f 337 1342 338
f 388 1343 389
f 394 1344 395
f 415 1345 416
f 554 1346 555
f 642 1347 643
f 651 1348 652
f 663 1349 664
f 703 1350 704
f 848 1351 849
f 854 1352 855
f 1314 1353 1315
f 1320 1354 1321
f 1331 1355 1332
f 1339 1356 1340

