# https://github.com/mikedh/trimesh

o FR3_Version2_Link6_1-mesh
v -0.01925567 0.04323268 -0.01070793
v -0.01930669 0.04321154 -0.01072834
v -0.02451664 0.04105351 -0.00720100
v -0.01835862 0.04360424 -0.01452904
v -0.01833388 0.04361449 -0.01458551
v -0.02451664 0.04105351 -0.01670100
v -0.01829697 0.04362978 -0.01463358
v -0.01825020 0.04364915 -0.01467023
v -0.01941523 0.04316658 -0.01085581
v -0.01942987 0.04316052 -0.01091250
v -0.01943186 0.04315969 -0.01097133
v -0.01942109 0.04316416 -0.01102904
v -0.01176175 0.04633675 -0.00720100
v -0.01692651 0.04419744 -0.01076110
v -0.01697171 0.04417872 -0.01072834
v -0.01808190 0.04371886 -0.01469319
v -0.01176175 0.04633675 -0.01670100
v -0.01813920 0.04369513 -0.01470100
v -0.01819649 0.04367140 -0.01469319
v -0.01802819 0.04374111 -0.01467023
v -0.01798142 0.04376049 -0.01463358
v -0.01794451 0.04377577 -0.01458551
v -0.01935188 0.04319282 -0.01076110
v -0.01938874 0.04317755 -0.01080439
v -0.01684852 0.04422975 -0.01091250
v -0.01686316 0.04422368 -0.01085581
v -0.01688965 0.04421271 -0.01080439
v -0.01791977 0.04378602 -0.01452904
v -0.01685730 0.04422611 -0.01102904
v -0.01684653 0.04423057 -0.01097133
v -0.01702272 0.04415759 -0.01070793
v -0.01707673 0.04413521 -0.01070100
v -0.01920166 0.04325505 -0.01070100
v -0.04076974 0.02504760 0.00379900
v -0.03972063 0.02667414 0.00379900
v -0.03972063 0.02667414 -0.01670100
v 0.04786594 -0.00190292 -0.00000100
v 0.04786594 -0.00190292 -0.01670100
v 0.04753266 0.00582408 -0.01670100
v -0.01791422 0.04432723 -0.00279744
v -0.01803662 0.04427767 -0.00252675
v -0.01756047 0.04446825 -0.00245701
v -0.02854331 0.03836997 -0.01210100
v -0.02915842 0.03790583 -0.01210100
v -0.02915842 0.03790583 0.00379900
v -0.02948960 0.03764941 -0.01210100
v -0.02948960 0.03764941 -0.01095100
v -0.02949472 0.03764541 -0.01089537
v -0.02950984 0.03763359 -0.01084253
v -0.03066989 0.03669683 0.00379900
v -0.03213129 0.03542774 0.00379900
v -0.02953419 0.03761454 -0.01079513
v -0.03489439 0.03271774 0.00379900
v -0.03354022 0.03410066 0.00379900
v -0.02956653 0.03758918 -0.01075554
v -0.02960525 0.03755878 -0.01072576
v -0.02964838 0.03752483 -0.01070727
v -0.03030742 0.03699597 -0.01070727
v -0.03035014 0.03696102 -0.01072576
v -0.03038844 0.03692962 -0.01075554
v -0.03042041 0.03690336 -0.01079513
v -0.02969376 0.03748902 -0.01070100
v -0.03026242 0.03703269 -0.01070100
v -0.03147262 0.03601257 -0.01212576
v -0.03151031 0.03597969 -0.01215554
v -0.03143059 0.03604917 -0.01210727
v -0.03044445 0.03688358 -0.01084253
v -0.03045937 0.03687129 -0.01089537
v -0.03046443 0.03686712 -0.01095100
v -0.03138631 0.03608763 -0.01210100
v -0.03046443 0.03686712 -0.01210100
v -0.03158011 0.03591861 -0.01229537
v -0.03489439 0.03271774 -0.01670100
v -0.03156543 0.03593148 -0.01224253
v -0.03154177 0.03595219 -0.01219513
v -0.03158509 0.03591424 -0.01235100
v -0.03158509 0.03591424 -0.01305100
v -0.03158011 0.03591861 -0.01310663
v -0.03156543 0.03593148 -0.01315947
v -0.03154177 0.03595219 -0.01320687
v -0.03151031 0.03597969 -0.01324646
v -0.03147262 0.03601257 -0.01327624
v -0.03143059 0.03604917 -0.01329473
v -0.03046443 0.03686712 -0.01445100
v -0.03138631 0.03608763 -0.01330100
v -0.03046443 0.03686712 -0.01330100
v -0.03045937 0.03687129 -0.01450663
v -0.03044445 0.03688358 -0.01455947
v -0.03042041 0.03690336 -0.01460687
v -0.02960525 0.03755878 -0.01467624
v -0.02956653 0.03758918 -0.01464646
v -0.02915842 0.03790583 -0.01670100
v -0.02953419 0.03761454 -0.01460687
v -0.02950984 0.03763359 -0.01455947
v -0.03026242 0.03703269 -0.01470100
v -0.02969376 0.03748902 -0.01470100
v -0.02964838 0.03752483 -0.01469473
v -0.03038844 0.03692962 -0.01464646
v -0.03035014 0.03696102 -0.01467624
v -0.03030742 0.03699597 -0.01469473
v -0.02949472 0.03764541 -0.01450663
v -0.02948960 0.03764941 -0.01445100
v -0.02915842 0.03790583 -0.01330100
v -0.02948960 0.03764941 -0.01330100
v -0.02451664 0.04105351 -0.00720100
v -0.02759934 0.03905278 0.00379900
v -0.02266225 0.04210315 0.00379900
v -0.02266225 0.04210315 -0.00720100
v -0.02434860 0.04115316 0.00379900
v -0.02599519 0.04013582 0.00379900
v -0.02838132 0.03848965 -0.01320687
v -0.02835661 0.03850782 -0.01315947
v -0.02451664 0.04105351 -0.01670100
v -0.02841415 0.03846548 -0.01324646
v -0.02854331 0.03836997 -0.01330100
v -0.02849724 0.03840412 -0.01329473
v -0.02845346 0.03843649 -0.01327624
v -0.02833606 0.03852290 -0.01235100
v -0.02833606 0.03852290 -0.01305100
v -0.02834126 0.03851908 -0.01310663
v -0.02834126 0.03851908 -0.01229537
v -0.02835661 0.03850782 -0.01224253
v -0.02838132 0.03848965 -0.01219513
v -0.02841415 0.03846548 -0.01215554
v -0.02845346 0.03843649 -0.01212576
v -0.02849724 0.03840412 -0.01210727
v -0.02106504 0.04292271 -0.00497057
v -0.02106159 0.04292439 -0.00498982
v -0.02105591 0.04292717 -0.00500840
v -0.02104810 0.04293099 -0.00502600
v -0.02103825 0.04293581 -0.00504238
v -0.02102665 0.04294149 -0.00505707
v -0.02069198 0.04310338 -0.00508615
v -0.02066629 0.04311568 -0.00506827
v -0.01943209 0.04368456 -0.00495140
v -0.02099868 0.04295514 -0.00508090
v -0.02096609 0.04297101 -0.00509589
v -0.02093112 0.04298802 -0.00510100
v -0.02075074 0.04307518 -0.00510100
v -0.02072061 0.04308966 -0.00509724
v -0.01802440 0.04428264 -0.00517409
v -0.01756577 0.04446616 -0.00505108
v -0.01557526 0.04520027 -0.00720100
v -0.01720022 0.04460852 -0.00485034
v -0.01690733 0.04472011 -0.00457820
v -0.01906482 0.04384573 -0.00511120
v -0.01842757 0.04411676 -0.00520100
v -0.01669200 0.04480076 -0.00425149
v -0.01653936 0.04485721 -0.00384018
v -0.01646679 0.04488385 -0.00325100
v -0.01651605 0.04486578 -0.00260434
v -0.01670262 0.04479681 -0.00208415
v -0.01557526 0.04520027 0.00379900
v -0.01672181 0.04478967 -0.00205331
v -0.01674748 0.04478009 -0.00202841
v -0.01677808 0.04476866 -0.00201098
v -0.01681174 0.04475606 -0.00200207
v -0.01739251 0.04453407 0.00379900
v -0.01684641 0.04474305 -0.00200223
v -0.01918137 0.04379499 0.00379900
v -0.01687998 0.04473042 -0.00201144
v -0.02093890 0.04298424 0.00379900
v -0.01744362 0.04451412 -0.00224917
v -0.01748601 0.04449752 -0.00227437
v -0.01752091 0.04448382 -0.00231047
v -0.01754594 0.04447397 -0.00235501
v -0.01867365 0.04401339 -0.00202794
v -0.01895717 0.04389228 -0.00198866
v -0.01911230 0.04382510 -0.00199709
v -0.01938840 0.04370393 -0.00206829
v -0.01963670 0.04359317 -0.00221202
v -0.01983162 0.04350504 -0.00240524
v -0.01998964 0.04343282 -0.00265672
v -0.02010906 0.04337778 -0.00299221
v -0.02105282 0.04292868 -0.00218592
v -0.02106281 0.04292380 -0.00221762
v -0.02106619 0.04292214 -0.00225100
v -0.02106619 0.04292214 -0.00495100
v -0.02061525 0.04314005 -0.00225100
v -0.02061525 0.04314005 -0.00495100
v -0.02016231 0.04335311 -0.00343714
v -0.02061865 0.04313842 -0.00498438
v -0.02011337 0.04337579 -0.00395273
v -0.02062868 0.04313364 -0.00501608
v -0.01999917 0.04342844 -0.00430744
v -0.02064483 0.04312593 -0.00504452
v -0.01982444 0.04350830 -0.00460280
v -0.01970001 0.04356466 -0.00474428
v -0.02061865 0.04313842 -0.00221762
v -0.02062868 0.04313364 -0.00218592
v -0.02064483 0.04312593 -0.00215748
v -0.02066629 0.04311568 -0.00213373
v -0.02098975 0.04295949 -0.00211586
v -0.02101535 0.04294700 -0.00213373
v -0.02103674 0.04293655 -0.00215748
v -0.02069198 0.04310338 -0.00211586
v -0.02072061 0.04308966 -0.00210476
v -0.02075074 0.04307518 -0.00210100
v -0.02093112 0.04298802 -0.00210100
v -0.02096119 0.04297340 -0.00210476
v -0.01755943 0.04446866 -0.00240499
v -0.01820905 0.04420719 -0.00230271
v -0.01841722 0.04412107 -0.00213820
v -0.01787739 0.04434207 -0.00364896
v -0.01758181 0.04445983 -0.00383435
v -0.01796426 0.04430702 -0.00390574
v -0.01770301 0.04441182 -0.00395692
v -0.01808825 0.04425666 -0.00410696
v -0.01787059 0.04434480 -0.00405917
v -0.01810923 0.04424809 -0.00413266
v -0.01754899 0.04447277 -0.00250756
v -0.01745345 0.04451027 -0.00282813
v -0.01784688 0.04435433 -0.00312199
v -0.01740262 0.04453012 -0.00323714
v -0.01783917 0.04435742 -0.00329769
v -0.01742433 0.04452165 -0.00347580
v -0.01748674 0.04449723 -0.00367544
v -0.00808220 0.04711646 -0.01670100
v -0.01176175 0.04633675 -0.01670100
v -0.00808220 0.04711646 0.00379900
v -0.01176175 0.04633675 -0.00720100
v -0.01488234 0.04543264 0.00379900
v 0.04753266 0.00582408 -0.00000100
v 0.04596015 0.01339673 -0.01670100
v 0.04596015 0.01339673 -0.00000100
v 0.04318942 0.02061758 -0.01670100
v 0.04318942 0.02061758 -0.00000100
v 0.03929269 0.02729839 -0.01670100
v 0.03929269 0.02729839 -0.00000100
v 0.03437157 0.03326498 -0.01670100
v 0.03437157 0.03326498 -0.00000100
v 0.02855433 0.03836179 -0.01670100
v 0.02855433 0.03836179 -0.00000100
v 0.02199266 0.04245595 -0.01670100
v 0.02199266 0.04245595 -0.00000100
v 0.01485761 0.04544071 -0.01670100
v 0.01485761 0.04544071 -0.00000100
v 0.00733521 0.04723827 -0.01670100
v 0.00733521 0.04723827 -0.00000100
v 0.00074154 0.04779750 0.00363963
v 0.00090996 0.04779375 0.00358643
v 0.00076946 0.04779706 0.00333231
v 0.00132060 0.04778461 0.00345669
v 0.00139044 0.04778306 0.00343463
v 0.00147038 0.04778067 0.00339423
v 0.00151254 0.04777926 0.00336486
v 0.00168410 0.04777354 0.00324539
v 0.00172360 0.04777222 0.00321788
v 0.00179320 0.04776966 0.00314509
v 0.00182149 0.04776857 0.00310142
v 0.00189419 0.04776578 0.00298921
v 0.00191691 0.04776486 0.00292895
v 0.00195608 0.04776328 0.00282504
v 0.00197087 0.04776267 0.00273650
v 0.00200411 0.04776130 0.00253759
v 0.00217504 0.04775383 0.00137428
v 0.00239735 0.04774321 -0.00000100
v -0.00037843 0.04780175 -0.01670100
v -0.00037842 0.04779674 0.00373567
v 0.00005000 0.04779703 0.00369894
v -0.00583183 0.04744690 -0.01450663
v -0.00581278 0.04744924 -0.01455947
v -0.00578209 0.04745298 -0.01460687
v -0.00574129 0.04745792 -0.01464646
v -0.00569242 0.04746380 -0.01467624
v -0.00563791 0.04747029 -0.01469473
v -0.00558050 0.04747706 -0.01470100
v -0.00485573 0.04755649 -0.01470100
v -0.00478851 0.04756329 -0.01469248
v -0.00472584 0.04756954 -0.01466751
v -0.00467199 0.04757485 -0.01462778
v -0.00460467 0.04758140 -0.01451570
v -0.00459802 0.04758205 -0.01448353
v -0.00461564 0.04758034 -0.01454673
v -0.00464969 0.04757703 -0.01460335
v -0.00463066 0.04757889 -0.01457600
v -0.00487622 0.04755210 0.00378169
v -0.00454713 0.04758692 0.00377301
v -0.00462157 0.04757977 -0.01084253
v -0.00460233 0.04758163 -0.01089537
v -0.00423135 0.04761598 0.00376711
v -0.00233696 0.04774620 0.00376711
v -0.00126376 0.04778144 0.00377083
v -0.00459581 0.04758226 -0.01445100
v -0.00459581 0.04758226 -0.01095100
v -0.00080685 0.04779645 0.00377241
v -0.00465256 0.04757675 -0.01079513
v -0.00553289 0.04748262 0.00379900
v -0.00469374 0.04757271 -0.01075554
v -0.00474302 0.04756784 -0.01072576
v -0.00479794 0.04756234 -0.01070727
v -0.00485573 0.04755649 -0.01070100
v -0.00558050 0.04747706 -0.01070100
v -0.00564727 0.04746918 -0.01070952
v -0.00570946 0.04746175 -0.01073449
v -0.00576284 0.04745531 -0.01077422
v -0.00578501 0.04745262 -0.01079874
v -0.00583607 0.04744638 -0.01091827
v -0.00583828 0.04744611 -0.01095100
v -0.00583828 0.04744611 -0.01445100
v -0.00580378 0.04745034 -0.01082600
v -0.00581861 0.04744852 -0.01085516
v -0.00582951 0.04744719 -0.01088630
v -0.03860668 0.02825697 0.00379900
v -0.03742969 0.02979351 0.00379900
v -0.03619159 0.03128124 0.00379900
v -0.04175226 0.02338000 0.00379900
v -0.04351132 0.01993260 -0.01670100
v -0.04266662 0.02167407 0.00379900
v -0.04616761 0.01266886 -0.01670100
v -0.04616761 0.01266886 0.00379900
v -0.04561420 0.01452358 0.00379900
v -0.04498632 0.01635443 0.00379900
v -0.04428497 0.01815842 0.00379900
v -0.04351132 0.01993260 0.00379900
v -0.04762027 0.00507232 -0.01670100
v -0.04704752 0.00889996 0.00379900
v -0.04664565 0.01079330 0.00379900
v -0.04783142 -0.00265899 0.00379900
v -0.04789588 -0.00072454 0.00379900
v -0.04783142 -0.00265899 -0.01670100
v -0.04788215 0.00121094 0.00379900
v -0.04762027 0.00507232 0.00379900
v -0.04746843 -0.00651218 0.00379900
v -0.04679555 -0.01032349 -0.01670100
v -0.04679555 -0.01032349 0.00379900
v -0.04581717 -0.01406804 0.00379900
v -0.04453968 -0.01772138 -0.01670100
v -0.04453968 -0.01772138 0.00379900
v -0.04297140 -0.02125966 0.00379900
v -0.04112260 -0.02465977 -0.01670100
v -0.04112260 -0.02465977 0.00379900
v -0.03900533 -0.02789953 0.00379900
v -0.03663341 -0.03095778 -0.01670100
v -0.03663341 -0.03095778 0.00379900
v -0.03118916 -0.03645121 -0.01670100
v -0.03118916 -0.03645121 0.00379900
v -0.02493177 -0.04099684 -0.01670100
v -0.02493177 -0.04099684 0.00379900
v -0.01802438 -0.04447616 -0.01670100
v -0.01802438 -0.04447616 0.00379900
v -0.01064708 -0.04679847 -0.01670100
v -0.01064708 -0.04679847 0.00379900
v -0.00299219 -0.04790321 -0.01670100
v -0.00299219 -0.04790321 0.00379900
v 0.00474070 -0.04776158 -0.01670100
v 0.00474070 -0.04776158 0.00379900
v 0.00857334 -0.04722327 0.00379900
v 0.01235000 -0.04637728 -0.01670100
v 0.01235000 -0.04637728 0.00379900
v 0.02821774 -0.04019228 0.00379900
v 0.02821625 -0.04017982 0.00379900
v 0.02800000 -0.04009668 0.00379900
v 0.02813143 -0.03989255 0.00379900
v 0.02796240 -0.03954774 0.00379900
v 0.02782002 -0.03925728 0.00379900
v 0.02764427 -0.03901350 0.00379900
v 0.02760656 -0.03896733 0.00379900
v 0.02858077 -0.04214764 0.00379900
v 0.02854234 -0.04212290 0.00379900
v 0.02800899 -0.04239188 0.00379900
v 0.02848122 -0.04208354 0.00379900
v 0.02844393 -0.04204940 0.00379900
v 0.02830000 -0.04169885 0.00379900
v 0.02830000 -0.04088328 0.00379900
v 0.02891103 -0.04218610 0.00379900
v 0.02879280 -0.04219830 0.00379900
v 0.02878367 -0.04219770 0.00379900
v 0.02874263 -0.04219500 0.00379900
v 0.02865805 -0.04217481 0.00379900
v 0.02862719 -0.04216744 0.00379900
v 0.02837146 -0.04195611 0.00379900
v 0.02836471 -0.04194349 0.00379900
v 0.02834768 -0.04191167 0.00379900
v 0.02831863 -0.04182467 0.00379900
v 0.02831031 -0.04179973 0.00379900
v 0.02838725 -0.03856451 0.01426218
v 0.02808776 -0.03871904 0.01024831
v 0.02842880 -0.03924875 0.01024801
v 0.02782002 -0.03925728 0.00379900
v 0.02796240 -0.03954774 0.00379900
v 0.02821625 -0.04017982 0.00379900
v 0.02821774 -0.04019228 0.00379900
v 0.02867017 -0.03990470 0.01026031
v 0.02918016 -0.03994788 0.01669900
v 0.02911773 -0.03961159 0.01669900
v 0.02911180 -0.03957963 0.01669900
v 0.02920206 -0.04030955 0.01669900
v 0.02875357 -0.04059833 0.01028532
v 0.02830000 -0.04088328 0.00379900
v 0.02813143 -0.03989255 0.00379900
v 0.02764427 -0.03901350 0.00379900
v 0.02760656 -0.03896733 0.00379900
v 0.02854395 -0.03846188 0.01651046
v 0.02885897 -0.03896295 0.01659683
v 0.02892497 -0.03906794 0.01661492
v 0.02904005 -0.03934716 0.01666122
v 0.04886523 -0.00294063 -0.00000100
v 0.04886523 -0.00294063 -0.01670100
v 0.04863745 -0.00291434 -0.00000100
v 0.04863745 -0.00291434 -0.01670100
v 0.04842166 -0.00283687 -0.00000100
v 0.04842166 -0.00283687 -0.01670100
v 0.04822918 -0.00271228 -0.00000100
v 0.04822918 -0.00271228 -0.01670100
v 0.04807014 -0.00254713 -0.00000100
v 0.04807014 -0.00254713 -0.01670100
v 0.04795289 -0.00235009 -0.00000100
v 0.04795289 -0.00235009 -0.01670100
v 0.04788361 -0.00213152 -0.00000100
v 0.04788361 -0.00213152 -0.01670100
v 0.02826293 -0.04168906 -0.01670104
v 0.02102843 -0.04410490 -0.01670100
v 0.02823544 -0.04163619 -0.01670103
v 0.02814979 -0.04147149 -0.01670101
v 0.02838820 -0.04183079 -0.01670105
v 0.02842223 -0.04186928 -0.01670105
v 0.02858573 -0.04198004 -0.01670101
v 0.02863780 -0.04201532 -0.01670100
v 0.02881229 -0.04208036 -0.01670101
v 0.02884009 -0.04209073 -0.01670101
v 0.02905784 -0.04211998 -0.01670101
v 0.02906932 -0.04212152 -0.01670101
v 0.02931035 -0.04209735 -0.01670100
v 0.04566852 -0.00771749 -0.01670100
v 0.04630000 -0.00009676 -0.01670100
v 0.04788361 -0.00213152 -0.01670100
v 0.02809758 -0.04098074 -0.01670102
v 0.01859850 -0.04249706 -0.01670100
v 0.02811419 -0.04091975 -0.01670102
v 0.02532370 -0.03885756 -0.01670100
v 0.02816153 -0.04074588 -0.01670101
v 0.02819460 -0.04068538 -0.01670100
v 0.04920939 -0.00294063 -0.01670100
v 0.04910303 -0.00440304 -0.01670100
v 0.04886523 -0.00294063 -0.01670100
v 0.04797875 -0.01139680 -0.01670100
v 0.04863745 -0.00291434 -0.01670100
v 0.04795289 -0.00235009 -0.01670100
v 0.04807014 -0.00254713 -0.01670100
v 0.04379134 -0.01513034 -0.01670100
v -0.00299219 -0.04790321 -0.01670100
v -0.00382342 -0.04623862 -0.01670100
v 0.00000000 -0.04639676 -0.01670100
v 0.02809391 -0.04116638 -0.01670105
v 0.02809269 -0.04122782 -0.01670106
v 0.01136598 -0.04497999 -0.01670100
v 0.02813541 -0.04141013 -0.01670102
v -0.02532370 0.03866405 -0.01670100
v -0.02451664 0.04105351 -0.01670100
v -0.01859850 0.04230355 -0.01670100
v -0.01176175 0.04633675 -0.01670100
v -0.01136598 0.04478647 -0.01670100
v -0.00808220 0.04711646 -0.01670100
v -0.00382342 0.04604510 -0.01670100
v -0.00037843 0.04780175 -0.01670100
v 0.00382342 0.04604510 -0.01670100
v 0.00733521 0.04723827 -0.01670100
v 0.01136598 0.04478647 -0.01670100
v 0.01485761 0.04544071 -0.01670100
v 0.01859850 0.04230355 -0.01670100
v 0.02199266 0.04245595 -0.01670100
v 0.02532370 0.03866405 -0.01670100
v 0.02855433 0.03836179 -0.01670100
v 0.03135814 0.03396726 -0.01670100
v 0.03437157 0.03326498 -0.01670100
v 0.03653720 0.02834129 -0.01670100
v 0.03929269 0.02729839 -0.01670100
v 0.04071963 0.02193961 -0.01670100
v 0.04318942 0.02061758 -0.01670100
v 0.04379134 0.01493683 -0.01670100
v 0.04596015 0.01339673 -0.01670100
v 0.04566852 0.00752397 -0.01670100
v 0.04753266 0.00582408 -0.01670100
v 0.04786594 -0.00190292 -0.01670100
v 0.02842405 -0.04037502 -0.01670101
v 0.02833155 -0.04047873 -0.01670100
v 0.02826958 -0.04054821 -0.01670100
v 0.00474070 -0.04776158 -0.01670100
v 0.00382342 -0.04623862 -0.01670100
v 0.01235000 -0.04637728 -0.01670100
v -0.01136598 -0.04497999 -0.01670100
v -0.01064708 -0.04679847 -0.01670100
v -0.01859850 -0.04249706 -0.01670100
v -0.01802438 -0.04447616 -0.01670100
v -0.02532370 -0.03885756 -0.01670100
v -0.02493177 -0.04099684 -0.01670100
v -0.03135814 -0.03416077 -0.01670100
v -0.03118916 -0.03645121 -0.01670100
v -0.03653720 -0.02853481 -0.01670100
v -0.03663341 -0.03095778 -0.01670100
v -0.04071963 -0.02213312 -0.01670100
v -0.04112260 -0.02465977 -0.01670100
v -0.04379134 -0.01513034 -0.01670100
v -0.04453968 -0.01772138 -0.01670100
v -0.04566852 -0.00771749 -0.01670100
v -0.04679555 -0.01032349 -0.01670100
v -0.04630000 -0.00009676 -0.01670100
v -0.04783142 -0.00265899 -0.01670100
v -0.04566852 0.00752397 -0.01670100
v -0.04762027 0.00507232 -0.01670100
v -0.04379134 0.01493683 -0.01670100
v -0.04616761 0.01266886 -0.01670100
v -0.04071963 0.02193961 -0.01670100
v -0.04351132 0.01993260 -0.01670100
v -0.03653720 0.02834129 -0.01670100
v -0.03972063 0.02667414 -0.01670100
v -0.03135814 0.03396726 -0.01670100
v -0.03489439 0.03271774 -0.01670100
v -0.02915842 0.03790583 -0.01670100
v 0.03653720 -0.02853481 -0.01670100
v 0.04071963 -0.02213312 -0.01670100
v 0.04432662 -0.02165603 -0.01670100
v 0.04105335 -0.02737814 -0.01670100
v 0.03704580 -0.03261230 -0.01670100
v 0.03135814 -0.03416077 -0.01670100
v 0.03237565 -0.03726488 -0.01670100
v 0.02851078 -0.04030605 -0.01670098
v 0.04624902 -0.01714609 -0.01670100
v 0.04842166 -0.00283687 -0.01670100
v 0.04822918 -0.00271228 -0.01670100
v 0.04579867 -0.04566209 -0.01238768
v 0.04527295 -0.04552511 -0.01050810
v 0.04516125 -0.04445014 -0.01058228
v 0.04447320 -0.04541536 -0.00625688
v 0.04424131 -0.04539481 -0.00460288
v 0.04409607 -0.04423565 -0.00462541
v 0.04040146 -0.04079386 -0.00764524
v 0.04055431 -0.04080614 -0.00841388
v 0.04164580 -0.04105708 -0.00821776
v 0.04401898 -0.04538268 -0.00000135
v 0.04406208 -0.04538463 0.00233559
v 0.04391255 -0.04421354 0.00234624
v 0.04637876 -0.04360116 -0.01669960
v 0.04659163 -0.04392076 -0.01670032
v 0.04610580 -0.04348991 -0.01574840
v 0.04676644 -0.04424253 -0.01670058
v 0.04684814 -0.04444462 -0.01670041
v 0.04695199 -0.04471622 -0.01659179
v 0.04698339 -0.04477918 -0.01670013
v 0.04728660 -0.04618970 -0.01670086
v 0.04729233 -0.04642416 -0.01670089
v 0.04721836 -0.04635781 -0.01651941
v 0.04714038 -0.04521940 0.01669766
v 0.04697107 -0.04478219 0.01669805
v 0.04693314 -0.04469662 0.01655073
v 0.04523059 -0.04238225 0.01669933
v 0.04510803 -0.04226985 0.01669938
v 0.04493274 -0.04218283 0.01624377
v 0.04475577 -0.04206237 0.01669921
v 0.04439010 -0.04184698 0.01669904
v 0.04566596 -0.04278155 0.01669912
v 0.04526615 -0.04241487 0.01669931
v 0.04555208 -0.04275446 0.01592350
v 0.04606229 -0.04314505 0.01669894
v 0.04601199 -0.04309891 0.01669896
v 0.04592578 -0.04302138 0.01655344
v 0.04569639 -0.04280946 0.01669911
v 0.04669885 -0.04407925 0.01669868
v 0.04659137 -0.04392152 0.01669872
v 0.04636218 -0.04369324 0.01624985
v 0.04641672 -0.04366520 0.01669880
v 0.04610875 -0.04321323 0.01669892
v 0.04691226 -0.04463033 0.01669819
v 0.04679319 -0.04432285 0.01669846
v 0.04666743 -0.04444657 0.01597909
v 0.04721084 -0.04635141 0.01649885
v 0.04729238 -0.04641798 0.01669900
v 0.04727560 -0.04628573 0.01669885
v 0.04720127 -0.04569958 0.01669820
v 0.04721084 -0.04635141 0.01649885
v 0.04720119 -0.04569890 0.01669820
v 0.04705541 -0.04623008 0.01610927
v 0.04707483 -0.04546696 -0.01634757
v 0.04720076 -0.04567694 -0.01670042
v 0.04721549 -0.04576497 -0.01670049
v 0.04706982 -0.04624054 -0.01614784
v 0.04704901 -0.04494147 -0.01669999
v 0.04709784 -0.04506226 -0.01669989
v 0.04719232 -0.04562657 -0.01670037
v 0.04670544 -0.04409164 -0.01670071
v 0.04645053 -0.04427179 -0.01548631
v 0.04612619 -0.04322197 -0.01669874
v 0.04380488 -0.04164576 -0.01426990
v 0.04501311 -0.04222931 -0.01636717
v 0.04562069 -0.04280059 -0.01604568
v 0.04523783 -0.04237357 -0.01669857
v 0.04528893 -0.04240517 -0.01669843
v 0.04537880 -0.04249284 -0.01669847
v 0.04591540 -0.04301633 -0.01669866
v 0.04600436 -0.04310311 -0.01669870
v 0.04293336 -0.04126986 -0.01457939
v 0.04321527 -0.04137820 -0.01501527
v 0.04430552 -0.04179718 -0.01670097
v 0.04430558 -0.04179722 -0.01670097
v 0.04476066 -0.04207857 -0.01669980
v 0.04640100 -0.04423488 0.01536774
v 0.04421297 -0.04175373 0.01657655
v 0.04321409 -0.04138027 0.01500188
v 0.04374000 -0.04162055 0.01413714
v 0.04719183 -0.04562510 0.01669812
v 0.04705888 -0.04545174 0.01630755
v 0.04683117 -0.04525581 0.01575036
v 0.04659865 -0.04508800 0.01515314
v 0.04590698 -0.04471429 0.01317932
v 0.04663325 -0.04597445 0.01499206
v 0.04684785 -0.04609349 0.01557142
v 0.04537741 -0.04554637 0.01092213
v 0.04579267 -0.04565685 0.01238731
v 0.04598447 -0.04570788 0.01306402
v 0.04604772 -0.04344716 0.01562778
v 0.04515581 -0.04290997 0.01357852
v 0.04562641 -0.04376696 0.01335352
v 0.04492864 -0.04347396 0.01113889
v 0.04527007 -0.04448183 0.01100190
v 0.04472076 -0.04434187 0.00864974
v 0.04447162 -0.04541589 0.00625460
v 0.04484826 -0.04545518 0.00859711
v 0.04085435 -0.04083980 0.00950577
v 0.04039953 -0.04079679 0.00753926
v 0.04115890 -0.04098379 0.00578664
v 0.04432792 -0.04540090 0.00536083
v 0.04418490 -0.04424774 0.00538798
v 0.04433527 -0.04329336 0.00875219
v 0.04437131 -0.04257642 0.01132579
v 0.04451710 -0.04218322 0.01384385
v 0.04376245 -0.04316664 0.00544884
v 0.04371421 -0.04237067 0.00889850
v 0.04362772 -0.04183700 0.01155266
v 0.04430552 -0.04179717 0.01669900
v 0.04400580 -0.04538209 -0.00071570
v 0.04385501 -0.04420738 -0.00071888
v 0.04347332 -0.04311794 0.00237212
v 0.04308697 -0.04222513 0.00553960
v 0.04289372 -0.04162751 0.00908016
v 0.04273748 -0.04129505 0.01180742
v 0.04416305 -0.04538997 -0.00378538
v 0.04401588 -0.04422552 -0.00380335
v 0.04341239 -0.04310887 -0.00072676
v 0.04277269 -0.04216847 0.00241157
v 0.04220066 -0.04148204 0.00565459
v 0.04192158 -0.04110712 0.00928659
v 0.04358287 -0.04313528 -0.00384565
v 0.04270664 -0.04215784 -0.00073882
v 0.04185584 -0.04142634 0.00246204
v 0.04174797 -0.04097944 0.01207650
v 0.04286069 -0.04124813 0.01444476
v 0.03989316 -0.04075302 -0.00508921
v 0.04466287 -0.04543218 -0.00760977
v 0.04452939 -0.04430388 -0.00765339
v 0.04366801 -0.04314968 -0.00467723
v 0.04289160 -0.04218872 -0.00390961
v 0.04178357 -0.04141597 -0.00075428
v 0.04078187 -0.04093938 0.00252027
v 0.04413007 -0.04324304 -0.00774248
v 0.04298415 -0.04220547 -0.00475505
v 0.04198612 -0.04144616 -0.00399113
v 0.04070304 -0.04093138 -0.00077213
v 0.04602195 -0.04572027 -0.01318597
v 0.04594659 -0.04473179 -0.01330367
v 0.04481053 -0.04343352 -0.01071271
v 0.04348877 -0.04231308 -0.00787171
v 0.04208768 -0.04146264 -0.00485398
v 0.04092415 -0.04095493 -0.00408503
v 0.04156671 -0.04094607 -0.01161851
v 0.04257269 -0.04125199 -0.01135783
v 0.04457411 -0.04220945 -0.01397467
v 0.04348015 -0.04178984 -0.01111130
v 0.04520559 -0.04293497 -0.01370732
v 0.04667355 -0.04599536 -0.01510480
v 0.04664215 -0.04511735 -0.01526911
v 0.04567023 -0.04378887 -0.01348016
v 0.04423984 -0.04253041 -0.01089230
v 0.04264384 -0.04156962 -0.00803336
v 0.04103520 -0.04096808 -0.00496776
v 0.03977334 -0.04074633 -0.00418532
v 0.03953515 -0.04073552 -0.00079123
v 0.03962002 -0.04073899 0.00258252
v 0.04002677 -0.04076153 0.00592748
v 0.04444751 -0.04954676 -0.00626048
v 0.04729238 -0.04954676 -0.01670093
v 0.04578096 -0.04954676 -0.01239263
v 0.04400000 -0.04954676 -0.00000100
v 0.04444751 -0.04954676 0.00625848
v 0.04578096 -0.04954676 0.01239063
v 0.04729238 -0.04954676 0.01669900
v 0.04411114 -0.04171904 -0.01670097
v 0.04349631 -0.04147188 0.01669900
v 0.04322461 -0.04136265 0.01669900
v 0.04244511 -0.04113430 0.01669900
v 0.04052406 -0.04081180 0.01669900
v 0.04040310 -0.04079149 0.01669900
v 0.04051215 -0.04080980 0.01669900
v 0.03602518 -0.04089137 0.01669900
v 0.04039953 -0.04079679 0.00753926
v 0.03763172 -0.04085472 0.01669900
v 0.03679788 -0.04087374 0.01669900
v 0.04040310 -0.04079149 -0.01670100
v 0.03602518 -0.04089137 -0.01670100
v 0.03834337 -0.04083848 -0.01670100
v 0.04040146 -0.04079386 -0.00764524
v 0.04126069 -0.04096510 -0.01670100
v 0.04270995 -0.04125847 -0.01670100
v 0.04322461 -0.04136265 -0.01670100
v 0.02931035 -0.04209735 -0.01670100
v 0.02949761 -0.04205530 -0.01670100
v 0.02891103 -0.04218610 0.00379900
v 0.02800899 -0.04239188 0.00379900
v 0.02570592 -0.04293740 0.00379900
v 0.02102843 -0.04410490 -0.01670100
v 0.02481534 -0.04315633 0.00379900
v 0.02359243 -0.04345695 0.00379900
v 0.01919716 -0.04457507 0.00379900
v 0.02068402 -0.04419683 0.00379900
v 0.03541885 -0.04099949 -0.01670100
v 0.02958030 -0.04204056 -0.01670100
v 0.02949615 -0.04205580 0.01219426
v 0.02935742 -0.04208633 0.01020431
v 0.02981021 -0.04198668 0.01669900
v 0.03395510 -0.04125619 0.01669900
v 0.03251428 -0.04151740 -0.01670100
v 0.02830000 -0.04169885 0.00379900
v 0.02875034 -0.04159819 0.01023919
v 0.02920206 -0.04149878 0.01669900
v -0.01557526 0.04520027 -0.00720100
v -0.01176175 0.04633675 -0.00720100
v -0.02266225 0.04210315 -0.00720100
v -0.02451664 0.04105351 -0.00720100
v 0.01136598 -0.04497999 -0.01670100
v 0.00382342 -0.04623862 -0.01670100
v 0.00379865 -0.04593964 -0.01640100
v 0.00000000 -0.04639676 -0.01670100
v -0.00379865 -0.04593964 -0.01640100
v -0.00382342 -0.04623862 -0.01670100
v -0.01129233 -0.04468917 -0.01640100
v -0.01136598 -0.04497999 -0.01670100
v -0.01847799 -0.04222233 -0.01640100
v -0.01859850 -0.04249706 -0.01670100
v -0.02515962 -0.03860641 -0.01640100
v -0.02532370 -0.03885756 -0.01670100
v -0.03115495 -0.03394006 -0.01640100
v -0.03135814 -0.03416077 -0.01670100
v -0.03630046 -0.02835054 -0.01640100
v -0.03653720 -0.02853481 -0.01670100
v -0.04045579 -0.02199034 -0.01640100
v -0.04071963 -0.02213312 -0.01670100
v -0.04350759 -0.01503293 -0.01640100
v -0.04379134 -0.01513034 -0.01670100
v -0.04537262 -0.00766811 -0.01640100
v -0.04566852 -0.00771749 -0.01670100
v -0.04600000 -0.00009676 -0.01640100
v -0.04630000 -0.00009676 -0.01670100
v -0.04537262 0.00747459 -0.01640100
v -0.04566852 0.00752397 -0.01670100
v -0.04350759 0.01483942 -0.01640100
v -0.04379134 0.01493683 -0.01670100
v -0.04045579 0.02179682 -0.01640100
v -0.04071963 0.02193961 -0.01670100
v -0.03630046 0.02815703 -0.01640100
v -0.03653720 0.02834129 -0.01670100
v -0.03115495 0.03374654 -0.01640100
v -0.03135814 0.03396726 -0.01670100
v -0.02515962 0.03841290 -0.01640100
v -0.02532370 0.03866405 -0.01670100
v -0.01847799 0.04202882 -0.01640100
v -0.01859850 0.04230355 -0.01670100
v -0.01129233 0.04449565 -0.01640100
v -0.01136598 0.04478647 -0.01670100
v -0.00379865 0.04574613 -0.01640100
v -0.00382342 0.04604510 -0.01670100
v 0.00379865 0.04574613 -0.01640100
v 0.00382342 0.04604510 -0.01670100
v 0.01129233 0.04449565 -0.01640100
v 0.01136598 0.04478647 -0.01670100
v 0.01847799 0.04202882 -0.01640100
v 0.01859850 0.04230355 -0.01670100
v 0.02515962 0.03841290 -0.01640100
v 0.02532370 0.03866405 -0.01670100
v 0.03115495 0.03374654 -0.01640100
v 0.03135814 0.03396726 -0.01670100
v 0.03630046 0.02815703 -0.01640100
v 0.03653720 0.02834129 -0.01670100
v 0.04045579 0.02179682 -0.01640100
v 0.04071963 0.02193961 -0.01670100
v 0.04350759 0.01483942 -0.01640100
v 0.04379134 0.01493683 -0.01670100
v 0.04537262 0.00747459 -0.01640100
v 0.04566852 0.00752397 -0.01670100
v 0.04600000 -0.00009676 -0.01640100
v 0.04630000 -0.00009676 -0.01670100
v 0.04537262 -0.00766811 -0.01640100
v 0.04566852 -0.00771749 -0.01670100
v 0.04350759 -0.01503293 -0.01640100
v 0.04379134 -0.01513034 -0.01670100
v 0.04045579 -0.02199034 -0.01640100
v 0.04071963 -0.02213312 -0.01670100
v 0.03630046 -0.02835054 -0.01640100
v 0.03653720 -0.02853481 -0.01670100
v 0.03115495 -0.03394006 -0.01640100
v 0.03135814 -0.03416077 -0.01670100
v 0.02515962 -0.03860641 -0.01640100
v 0.02532370 -0.03885756 -0.01670100
v 0.01847799 -0.04222233 -0.01640100
v 0.01859850 -0.04249706 -0.01670100
v 0.01129233 -0.04468917 -0.01640100
v 0.02959168 -0.04198587 0.01669900
v 0.02955735 -0.04197628 0.01669900
v 0.02910546 -0.04207679 0.01022178
v 0.02921601 -0.04161595 0.01669900
v 0.02921863 -0.04162480 0.01669900
v 0.02928217 -0.04176990 0.01669900
v 0.02926831 -0.04174164 0.01669900
v 0.02881433 -0.04184270 0.01023851
v 0.02923018 -0.04166389 0.01669900
v 0.02876667 -0.04172455 0.01024001
v 0.02889022 -0.04194497 0.01023479
v 0.02931136 -0.04181039 0.01669900
v 0.02934407 -0.04184259 0.01669900
v 0.02939566 -0.04189338 0.01669900
v 0.02898941 -0.04202473 0.01022909
v 0.02943647 -0.04192185 0.01669900
v 0.02954372 -0.04197246 0.01669900
v 0.02923085 -0.04209778 0.01021334
v 0.02968315 -0.04199546 0.01669900
v 0.02970985 -0.04199826 0.01669900
v 0.02975974 -0.04199506 0.01669900
v 0.02878367 -0.04219770 0.00379900
v 0.02879280 -0.04219830 0.00379900
v 0.02874263 -0.04219500 0.00379900
v 0.02854234 -0.04212290 0.00379900
v 0.02858077 -0.04214764 0.00379900
v 0.02862719 -0.04216744 0.00379900
v 0.02865805 -0.04217481 0.00379900
v 0.02848122 -0.04208354 0.00379900
v 0.02844393 -0.04204940 0.00379900
v 0.02837146 -0.04195611 0.00379900
v 0.02831031 -0.04179973 0.00379900
v 0.02831863 -0.04182467 0.00379900
v 0.02834768 -0.04191167 0.00379900
v 0.02836471 -0.04194349 0.00379900
v 0.04600000 -0.00009676 -0.01640100
v 0.04537262 -0.00766811 -0.01640100
v 0.00000000 -0.00009676 -0.01640100
v 0.04537262 0.00747459 -0.01640100
v 0.03630046 0.02815703 -0.01640100
v 0.04045579 0.02179682 -0.01640100
v 0.04350759 0.01483942 -0.01640100
v 0.01847799 0.04202882 -0.01640100
v 0.02515962 0.03841290 -0.01640100
v 0.03115495 0.03374654 -0.01640100
v -0.00379865 0.04574613 -0.01640100
v 0.00379865 0.04574613 -0.01640100
v 0.01129233 0.04449565 -0.01640100
v -0.02515962 0.03841290 -0.01640100
v -0.01847799 0.04202882 -0.01640100
v -0.01129233 0.04449565 -0.01640100
v -0.04045579 0.02179682 -0.01640100
v -0.03630046 0.02815703 -0.01640100
v -0.03115495 0.03374654 -0.01640100
v -0.04600000 -0.00009676 -0.01640100
v -0.04537262 0.00747459 -0.01640100
v -0.04350759 0.01483942 -0.01640100
v -0.04045579 -0.02199034 -0.01640100
v -0.04350759 -0.01503293 -0.01640100
v -0.04537262 -0.00766811 -0.01640100
v -0.02515962 -0.03860641 -0.01640100
v -0.03115495 -0.03394006 -0.01640100
v -0.03630046 -0.02835054 -0.01640100
v -0.00379865 -0.04593964 -0.01640100
v -0.01129233 -0.04468917 -0.01640100
v -0.01847799 -0.04222233 -0.01640100
v 0.01847799 -0.04222233 -0.01640100
v 0.01129233 -0.04468917 -0.01640100
v 0.00379865 -0.04593964 -0.01640100
v 0.03630046 -0.02835054 -0.01640100
v 0.03115495 -0.03394006 -0.01640100
v 0.02515962 -0.03860641 -0.01640100
v 0.04350759 -0.01503293 -0.01640100
v 0.04045579 -0.02199034 -0.01640100
v 0.04891740 -0.00294063 -0.00000100
v 0.04920939 -0.00294063 -0.01670100
v -0.02948960 0.03764941 -0.01095100
v -0.02944988 0.03755353 -0.01095100
v -0.02945501 0.03754953 -0.01089537
v -0.02949472 0.03764541 -0.01089537
v -0.02947012 0.03753770 -0.01084253
v -0.02950984 0.03763359 -0.01084253
v -0.02949446 0.03751862 -0.01079513
v -0.02953419 0.03761454 -0.01079513
v -0.02952679 0.03749325 -0.01075554
v -0.02956653 0.03758918 -0.01075554
v -0.02956550 0.03746281 -0.01072576
v -0.02960525 0.03755878 -0.01072576
v -0.02960861 0.03742883 -0.01070727
v -0.02964838 0.03752483 -0.01070727
v -0.02965398 0.03739299 -0.01070100
v -0.02969376 0.03748902 -0.01070100
v -0.02944988 0.03755353 -0.01210100
v -0.02948960 0.03764941 -0.01210100
v -0.02854331 0.03836997 -0.01210100
v -0.02850386 0.03827472 -0.01210100
v -0.02915842 0.03790583 -0.01210100
v -0.02944988 0.03755353 -0.01210100
v -0.02948960 0.03764941 -0.01210100
v -0.02833606 0.03852290 -0.01235100
v -0.02829665 0.03842777 -0.01235100
v -0.02830186 0.03842395 -0.01229537
v -0.02834126 0.03851908 -0.01229537
v -0.02831720 0.03841267 -0.01224253
v -0.02835661 0.03850782 -0.01224253
v -0.02834191 0.03839449 -0.01219513
v -0.02838132 0.03848965 -0.01219513
v -0.02837473 0.03837030 -0.01215554
v -0.02841415 0.03846548 -0.01215554
v -0.02841402 0.03834128 -0.01212576
v -0.02845346 0.03843649 -0.01212576
v -0.02845780 0.03830889 -0.01210727
v -0.02849724 0.03840412 -0.01210727
v -0.02829665 0.03842777 -0.01305100
v -0.02833606 0.03852290 -0.01305100
v -0.02854331 0.03836997 -0.01330100
v -0.02850386 0.03827472 -0.01330100
v -0.02845780 0.03830889 -0.01329473
v -0.02849724 0.03840412 -0.01329473
v -0.02841402 0.03834128 -0.01327624
v -0.02845346 0.03843649 -0.01327624
v -0.02837473 0.03837030 -0.01324646
v -0.02841415 0.03846548 -0.01324646
v -0.02834191 0.03839449 -0.01320687
v -0.02838132 0.03848965 -0.01320687
v -0.02831720 0.03841267 -0.01315947
v -0.02835661 0.03850782 -0.01315947
v -0.02830186 0.03842395 -0.01310663
v -0.02834126 0.03851908 -0.01310663
v -0.02948960 0.03764941 -0.01330100
v -0.02944988 0.03755353 -0.01330100
v -0.02915842 0.03790583 -0.01330100
v -0.02944988 0.03755353 -0.01330100
v -0.02948960 0.03764941 -0.01330100
v -0.02944988 0.03755353 -0.01445100
v -0.02948960 0.03764941 -0.01445100
v -0.02949472 0.03764541 -0.01450663
v -0.02945501 0.03754953 -0.01450663
v -0.02950984 0.03763359 -0.01455947
v -0.02947012 0.03753770 -0.01455947
v -0.02953419 0.03761454 -0.01460687
v -0.02949446 0.03751862 -0.01460687
v -0.02956653 0.03758918 -0.01464646
v -0.02952679 0.03749325 -0.01464646
v -0.02960525 0.03755878 -0.01467624
v -0.02956550 0.03746281 -0.01467624
v -0.02964838 0.03752483 -0.01469473
v -0.02960861 0.03742883 -0.01469473
v -0.02969376 0.03748902 -0.01470100
v -0.02965398 0.03739299 -0.01470100
v -0.03022246 0.03693624 -0.01470100
v -0.03026242 0.03703269 -0.01470100
v -0.03046443 0.03686712 -0.01445100
v -0.03042441 0.03677051 -0.01445100
v -0.03041936 0.03677468 -0.01450663
v -0.03045937 0.03687129 -0.01450663
v -0.03040444 0.03678698 -0.01455947
v -0.03044445 0.03688358 -0.01455947
v -0.03038040 0.03680678 -0.01460687
v -0.03042041 0.03690336 -0.01460687
v -0.03034844 0.03683306 -0.01464646
v -0.03038844 0.03692962 -0.01464646
v -0.03031015 0.03686450 -0.01467624
v -0.03035014 0.03696102 -0.01467624
v -0.03026745 0.03689948 -0.01469473
v -0.03030742 0.03699597 -0.01469473
v -0.03042441 0.03677051 -0.01330100
v -0.03046443 0.03686712 -0.01330100
v -0.03134596 0.03599023 -0.01330100
v -0.03042441 0.03677051 -0.01330100
v -0.03138631 0.03608763 -0.01330100
v -0.03046443 0.03686712 -0.01330100
v -0.03158509 0.03591424 -0.01305100
v -0.03154467 0.03581666 -0.01305100
v -0.03153969 0.03582104 -0.01310663
v -0.03158011 0.03591861 -0.01310663
v -0.03152502 0.03583391 -0.01315947
v -0.03156543 0.03593148 -0.01315947
v -0.03150137 0.03585465 -0.01320687
v -0.03154177 0.03595219 -0.01320687
v -0.03146992 0.03588218 -0.01324646
v -0.03151031 0.03597969 -0.01324646
v -0.03143225 0.03591510 -0.01327624
v -0.03147262 0.03601257 -0.01327624
v -0.03139023 0.03595173 -0.01329473
v -0.03143059 0.03604917 -0.01329473
v -0.03154467 0.03581666 -0.01235100
v -0.03158509 0.03591424 -0.01235100
v -0.03138631 0.03608763 -0.01210100
v -0.03134596 0.03599023 -0.01210100
v -0.03139023 0.03595173 -0.01210727
v -0.03143059 0.03604917 -0.01210727
v -0.03143225 0.03591510 -0.01212576
v -0.03147262 0.03601257 -0.01212576
v -0.03146992 0.03588218 -0.01215554
v -0.03151031 0.03597969 -0.01215554
v -0.03150137 0.03585465 -0.01219513
v -0.03154177 0.03595219 -0.01219513
v -0.03152502 0.03583391 -0.01224253
v -0.03156543 0.03593148 -0.01224253
v -0.03153969 0.03582104 -0.01229537
v -0.03158011 0.03591861 -0.01229537
v -0.03042441 0.03677051 -0.01210100
v -0.03046443 0.03686712 -0.01210100
v -0.03042441 0.03677051 -0.01095100
v -0.03042441 0.03677051 -0.01210100
v -0.03046443 0.03686712 -0.01095100
v -0.03046443 0.03686712 -0.01210100
v -0.03026242 0.03703269 -0.01070100
v -0.03022246 0.03693624 -0.01070100
v -0.03026745 0.03689948 -0.01070727
v -0.03030742 0.03699597 -0.01070727
v -0.03031015 0.03686450 -0.01072576
v -0.03035014 0.03696102 -0.01072576
v -0.03034844 0.03683306 -0.01075554
v -0.03038844 0.03692962 -0.01075554
v -0.03038040 0.03680678 -0.01079513
v -0.03042041 0.03690336 -0.01079513
v -0.03040444 0.03678698 -0.01084253
v -0.03044445 0.03688358 -0.01084253
v -0.03041936 0.03677468 -0.01089537
v -0.03045937 0.03687129 -0.01089537
v -0.00459581 0.04758226 -0.01095100
v -0.00455579 0.04748564 -0.01095100
v -0.00456231 0.04748501 -0.01089537
v -0.00460233 0.04758163 -0.01089537
v -0.00458156 0.04748317 -0.01084253
v -0.00462157 0.04757977 -0.01084253
v -0.00461256 0.04748017 -0.01079513
v -0.00465256 0.04757675 -0.01079513
v -0.00465374 0.04747616 -0.01075554
v -0.00469374 0.04757271 -0.01075554
v -0.00470304 0.04747131 -0.01072576
v -0.00474302 0.04756784 -0.01072576
v -0.00475797 0.04746585 -0.01070727
v -0.00479794 0.04756234 -0.01070727
v -0.00481578 0.04746003 -0.01070100
v -0.00485573 0.04755649 -0.01070100
v -0.00455579 0.04748564 -0.01445100
v -0.00459581 0.04758226 -0.01445100
v -0.00455802 0.04748543 -0.01448368
v -0.00459802 0.04758205 -0.01448353
v -0.00456465 0.04748479 -0.01451570
v -0.00460467 0.04758140 -0.01451570
v -0.00457558 0.04748374 -0.01454664
v -0.00461564 0.04758034 -0.01454673
v -0.00459065 0.04748229 -0.01457600
v -0.00463066 0.04757889 -0.01457600
v -0.00460967 0.04748045 -0.01460333
v -0.00464969 0.04757703 -0.01460335
v -0.00463199 0.04747828 -0.01462778
v -0.00467199 0.04757485 -0.01462778
v -0.00472584 0.04756954 -0.01466751
v -0.00468585 0.04747301 -0.01466751
v -0.00478851 0.04756329 -0.01469248
v -0.00474854 0.04746679 -0.01469248
v -0.00485573 0.04755649 -0.01470100
v -0.00481578 0.04746003 -0.01470100
v -0.00554073 0.04738103 -0.01470100
v -0.00558050 0.04747706 -0.01470100
v -0.00583828 0.04744611 -0.01445100
v -0.00579857 0.04735023 -0.01445100
v -0.00579211 0.04735102 -0.01450663
v -0.00583183 0.04744690 -0.01450663
v -0.00577306 0.04735334 -0.01455947
v -0.00581278 0.04744924 -0.01455947
v -0.00574236 0.04735706 -0.01460687
v -0.00578209 0.04745298 -0.01460687
v -0.00570155 0.04736198 -0.01464646
v -0.00574129 0.04745792 -0.01464646
v -0.00565267 0.04736783 -0.01467624
v -0.00569242 0.04746380 -0.01467624
v -0.00559815 0.04737429 -0.01469473
v -0.00563791 0.04747029 -0.01469473
v -0.00579857 0.04735023 -0.01095100
v -0.00583828 0.04744611 -0.01095100
v -0.00579636 0.04735050 -0.01091833
v -0.00583607 0.04744638 -0.01091827
v -0.00578979 0.04735130 -0.01088630
v -0.00582951 0.04744719 -0.01088630
v -0.00577897 0.04735262 -0.01085536
v -0.00581861 0.04744852 -0.01085516
v -0.00576405 0.04735443 -0.01082600
v -0.00580378 0.04745034 -0.01082600
v -0.00578501 0.04745262 -0.01079874
v -0.00574522 0.04735671 -0.01079867
v -0.00576284 0.04745531 -0.01077422
v -0.00572310 0.04735939 -0.01077422
v -0.00570946 0.04746175 -0.01073449
v -0.00566972 0.04736580 -0.01073449
v -0.00564727 0.04746918 -0.01070952
v -0.00560751 0.04737319 -0.01070952
v -0.00558050 0.04747706 -0.01070100
v -0.00554073 0.04738103 -0.01070100
v -0.02012401 0.04326065 -0.00343714
v -0.02016231 0.04335311 -0.00343714
v -0.02007912 0.04328145 -0.00302855
v -0.02010906 0.04337778 -0.00299221
v -0.02006873 0.04328625 -0.00299293
v -0.02001214 0.04331239 -0.00279893
v -0.01998964 0.04343282 -0.00265672
v -0.01994375 0.04334378 -0.00266126
v -0.01986850 0.04337833 -0.00250978
v -0.01983162 0.04350504 -0.00240524
v -0.01979607 0.04341135 -0.00240869
v -0.01963670 0.04359317 -0.00221202
v -0.01960127 0.04349946 -0.00221423
v -0.01979300 0.04341274 -0.00240563
v -0.01921701 0.04367020 -0.00202412
v -0.01934727 0.04361256 -0.00207654
v -0.01938840 0.04370393 -0.00206829
v -0.01946709 0.04355954 -0.00212475
v -0.01959829 0.04350080 -0.00221225
v -0.01911074 0.04371670 -0.00200217
v -0.01911230 0.04382510 -0.00199709
v -0.01907385 0.04373270 -0.00199958
v -0.01895717 0.04389228 -0.00198866
v -0.01891889 0.04379989 -0.00198866
v -0.01832003 0.04405317 -0.00217649
v -0.01838151 0.04402748 -0.00214397
v -0.01841722 0.04412107 -0.00213820
v -0.01895717 0.04389228 -0.00198866
v -0.01864541 0.04391675 -0.00202522
v -0.01867365 0.04401339 -0.00202794
v -0.01863550 0.04392093 -0.00202840
v -0.01854496 0.04395917 -0.00205753
v -0.01821290 0.04409748 -0.00226222
v -0.01820905 0.04420719 -0.00230271
v -0.01817465 0.04411315 -0.00230662
v -0.01803592 0.04416999 -0.00246767
v -0.01803662 0.04427767 -0.00252675
v -0.01799907 0.04418498 -0.00252727
v -0.01798252 0.04419171 -0.00255404
v -0.01791422 0.04432723 -0.00279744
v -0.01787968 0.04423331 -0.00279927
v -0.01781966 0.04425749 -0.00312337
v -0.01784138 0.04424876 -0.00292156
v -0.01786315 0.04424000 -0.00283869
v -0.01784688 0.04435433 -0.00312199
v -0.01783917 0.04435742 -0.00329769
v -0.01780090 0.04426503 -0.00329769
v -0.01782206 0.04425653 -0.00355997
v -0.01787739 0.04434207 -0.00364896
v -0.01796426 0.04430702 -0.00390574
v -0.01789429 0.04422744 -0.00383173
v -0.01784521 0.04424721 -0.00364708
v -0.01805222 0.04416333 -0.00410517
v -0.01795442 0.04420311 -0.00396182
v -0.01792800 0.04421380 -0.00390466
v -0.01808825 0.04425666 -0.00410696
v -0.01810923 0.04424809 -0.00413266
v -0.01807097 0.04415570 -0.00413266
v -0.01807097 0.04415570 -0.00413266
v -0.01810923 0.04424809 -0.00413266
v -0.01784045 0.04424914 -0.00406283
v -0.01787059 0.04434480 -0.00405917
v -0.01783248 0.04425233 -0.00405880
v -0.01770301 0.04441182 -0.00395692
v -0.01766733 0.04431833 -0.00395283
v -0.01776301 0.04428021 -0.00402361
v -0.01758181 0.04445983 -0.00383435
v -0.01756796 0.04435779 -0.00386406
v -0.01761817 0.04433792 -0.00391646
v -0.01748674 0.04449723 -0.00367544
v -0.01746879 0.04439685 -0.00371754
v -0.01754636 0.04436630 -0.00383214
v -0.01737694 0.04443281 -0.00342226
v -0.01739057 0.04442747 -0.00347444
v -0.01742433 0.04452165 -0.00347580
v -0.01743437 0.04441035 -0.00364205
v -0.01744938 0.04440446 -0.00367496
v -0.01736772 0.04443640 -0.00333656
v -0.01740262 0.04453012 -0.00323714
v -0.01737317 0.04443428 -0.00323770
v -0.01738825 0.04442839 -0.00296397
v -0.01745345 0.04451027 -0.00282813
v -0.01740915 0.04442022 -0.00285501
v -0.01741684 0.04441720 -0.00282869
v -0.01754899 0.04447277 -0.00250756
v -0.01751071 0.04438037 -0.00250756
v -0.01744362 0.04451412 -0.00224917
v -0.01740534 0.04442171 -0.00224917
v -0.01748601 0.04449752 -0.00227437
v -0.01744415 0.04440652 -0.00227160
v -0.01744763 0.04440515 -0.00227452
v -0.01745886 0.04440075 -0.00228392
v -0.01752091 0.04448382 -0.00231047
v -0.01748196 0.04439168 -0.00231112
v -0.01748854 0.04438909 -0.00231887
v -0.01754594 0.04447397 -0.00235501
v -0.01749863 0.04438513 -0.00233574
v -0.01750647 0.04438204 -0.00235556
v -0.01751586 0.04437834 -0.00237927
v -0.01755943 0.04446866 -0.00240499
v -0.01752018 0.04437664 -0.00239877
v -0.01752056 0.04437649 -0.00240503
v -0.01756047 0.04446825 -0.00245701
v -0.01752303 0.04437552 -0.00244598
v -0.01752110 0.04437628 -0.00246591
v -0.01752197 0.04437594 -0.00245698
v -0.01684169 0.04463799 -0.00201144
v -0.01687998 0.04473042 -0.00201144
v -0.01680953 0.04465008 -0.00200243
v -0.01684641 0.04474305 -0.00200223
v -0.01680811 0.04465061 -0.00200229
v -0.01681174 0.04475606 -0.00200207
v -0.01677352 0.04466359 -0.00200301
v -0.01679549 0.04465535 -0.00200111
v -0.01677808 0.04476866 -0.00201098
v -0.01674869 0.04467289 -0.00200769
v -0.01676234 0.04466778 -0.00200398
v -0.01674748 0.04478009 -0.00202841
v -0.01671828 0.04468425 -0.00202212
v -0.01674011 0.04467609 -0.00201176
v -0.01672181 0.04478967 -0.00205331
v -0.01670654 0.04468864 -0.00203046
v -0.01670926 0.04468762 -0.00202852
v -0.01666433 0.04470436 -0.00208415
v -0.01667383 0.04470083 -0.00206682
v -0.01670262 0.04479681 -0.00208415
v -0.01668233 0.04469766 -0.00205480
v -0.01668365 0.04469717 -0.00205347
v -0.01646679 0.04488385 -0.00325100
v -0.01642849 0.04479138 -0.00325100
v -0.01651605 0.04486578 -0.00260434
v -0.01644262 0.04478620 -0.00283832
v -0.01649322 0.04476763 -0.00253794
v -0.01648190 0.04477179 -0.00260513
v -0.01771029 0.04430128 -0.00511409
v -0.01753219 0.04437135 -0.00503788
v -0.01756577 0.04446616 -0.00505108
v -0.01648567 0.04477041 -0.00377510
v -0.01653936 0.04485721 -0.00384018
v -0.01669200 0.04480076 -0.00425149
v -0.01657959 0.04473579 -0.00408603
v -0.01650493 0.04476331 -0.00383885
v -0.01686930 0.04462757 -0.00457789
v -0.01686684 0.04462851 -0.00457558
v -0.01690733 0.04472011 -0.00457820
v -0.01676757 0.04466582 -0.00444428
v -0.01666337 0.04470460 -0.00424570
v -0.01715307 0.04451951 -0.00484389
v -0.01720022 0.04460852 -0.00485034
v -0.01716219 0.04451600 -0.00484990
v -0.01729049 0.04446644 -0.00493445
v -0.01779197 0.04426861 -0.00513591
v -0.01802440 0.04428264 -0.00517409
v -0.01798734 0.04418873 -0.00515720
v -0.01842757 0.04411676 -0.00520100
v -0.01838930 0.04402437 -0.00520100
v -0.01858116 0.04405242 -0.00363394
v -0.01854416 0.04395950 -0.00363344
v -0.01859965 0.04404464 -0.00369299
v -0.01857527 0.04394639 -0.00372575
v -0.01862489 0.04403400 -0.00374850
v -0.01858709 0.04394141 -0.00374821
v -0.01859702 0.04393721 -0.00376707
v -0.01865662 0.04402059 -0.00380007
v -0.01865691 0.04391187 -0.00384619
v -0.01869442 0.04400459 -0.00384688
v -0.01866273 0.04390940 -0.00385388
v -0.01873724 0.04398641 -0.00388769
v -0.01869583 0.04389535 -0.00388505
v -0.01878495 0.04396610 -0.00392236
v -0.01874821 0.04387303 -0.00391961
v -0.01883622 0.04394421 -0.00394985
v -0.01878421 0.04385769 -0.00394336
v -0.01889029 0.04392105 -0.00396982
v -0.01882489 0.04384028 -0.00396087
v -0.01885251 0.04382841 -0.00396722
v -0.01900321 0.04387241 -0.00398600
v -0.01892592 0.04379686 -0.00398410
v -0.01896495 0.04378001 -0.00398578
v -0.01896956 0.04377802 -0.00398597
v -0.01911602 0.04382349 -0.00396982
v -0.01907183 0.04373366 -0.00397150
v -0.01918169 0.04368567 -0.00392007
v -0.01922103 0.04377763 -0.00392236
v -0.01911352 0.04371549 -0.00395753
v -0.01907766 0.04373112 -0.00396954
v -0.01920551 0.04367525 -0.00390698
v -0.01924059 0.04365984 -0.00387874
v -0.01931111 0.04373805 -0.00384688
v -0.01927068 0.04364657 -0.00384462
v -0.01934870 0.04372148 -0.00380002
v -0.01931196 0.04362838 -0.00379782
v -0.01933650 0.04361754 -0.00375847
v -0.01938019 0.04370756 -0.00374850
v -0.01934088 0.04361560 -0.00374799
v -0.01940540 0.04369640 -0.00369257
v -0.01937928 0.04359859 -0.00365631
v -0.01942359 0.04368833 -0.00363394
v -0.01938478 0.04359615 -0.00363379
v -0.01943465 0.04368342 -0.00357314
v -0.01939051 0.04359361 -0.00361030
v -0.01943839 0.04368177 -0.00351100
v -0.01940010 0.04358935 -0.00351100
v -0.01943470 0.04368341 -0.00344924
v -0.01938796 0.04359474 -0.00339944
v -0.01942359 0.04368833 -0.00338806
v -0.01938492 0.04359609 -0.00338819
v -0.01940531 0.04369644 -0.00332920
v -0.01937563 0.04360021 -0.00335381
v -0.01938019 0.04370756 -0.00327350
v -0.01934006 0.04361596 -0.00327449
v -0.01933039 0.04362024 -0.00325291
v -0.01934846 0.04372158 -0.00322163
v -0.01930495 0.04363148 -0.00321434
v -0.01931111 0.04373805 -0.00317512
v -0.01927070 0.04364657 -0.00317749
v -0.01923164 0.04366377 -0.00313548
v -0.01922103 0.04377763 -0.00309964
v -0.01919592 0.04367945 -0.00310828
v -0.01918208 0.04368550 -0.00310117
v -0.01911602 0.04382349 -0.00305219
v -0.01910275 0.04372019 -0.00306037
v -0.01896486 0.04378004 -0.00303682
v -0.01900321 0.04387241 -0.00303600
v -0.01906071 0.04373849 -0.00304761
v -0.01907760 0.04373114 -0.00305274
v -0.01895813 0.04378295 -0.00303606
v -0.01891450 0.04380178 -0.00303919
v -0.01889029 0.04392105 -0.00305219
v -0.01885268 0.04382833 -0.00305526
v -0.01883603 0.04394429 -0.00307224
v -0.01881406 0.04384492 -0.00306530
v -0.01877379 0.04386214 -0.00308398
v -0.01878495 0.04396610 -0.00309964
v -0.01874806 0.04387310 -0.00310198
v -0.01873754 0.04398628 -0.00313406
v -0.01868685 0.04389916 -0.00314479
v -0.01869442 0.04400459 -0.00317512
v -0.01865622 0.04391217 -0.00317521
v -0.01865451 0.04391289 -0.00317691
v -0.01865682 0.04402051 -0.00322166
v -0.01859093 0.04393979 -0.00326558
v -0.01862489 0.04403400 -0.00327350
v -0.01858692 0.04394148 -0.00327368
v -0.01859955 0.04404468 -0.00332928
v -0.01857018 0.04394854 -0.00330750
v -0.01858116 0.04405242 -0.00338806
v -0.01854500 0.04395915 -0.00338883
v -0.01853720 0.04396243 -0.00341403
v -0.01856999 0.04405713 -0.00344902
v -0.01853040 0.04396529 -0.00346104
v -0.01856624 0.04405870 -0.00351100
v -0.01853101 0.04396504 -0.00351096
v -0.01857001 0.04405712 -0.00357315
v -0.01853177 0.04396472 -0.00357341
v -0.01853970 0.04396138 -0.00362021
v -0.01893364 0.04379353 -0.00513650
v -0.01906482 0.04384573 -0.00511120
v -0.01902514 0.04375372 -0.00510640
v -0.01943209 0.04368456 -0.00495140
v -0.01938914 0.04359389 -0.00494184
v -0.01920272 0.04367647 -0.00504797
v -0.01983116 0.04339537 -0.00454052
v -0.01978129 0.04341796 -0.00459774
v -0.01982444 0.04350830 -0.00460280
v -0.01965746 0.04347405 -0.00473984
v -0.01970001 0.04356466 -0.00474428
v -0.01961549 0.04349306 -0.00478800
v -0.01951640 0.04353752 -0.00486940
v -0.01992249 0.04335361 -0.00438719
v -0.01999917 0.04342844 -0.00430744
v -0.01995373 0.04333923 -0.00430419
v -0.02005695 0.04329170 -0.00402994
v -0.02011337 0.04337579 -0.00395273
v -0.02007473 0.04328348 -0.00395264
v -0.02007867 0.04328166 -0.00393553
v -0.01883603 0.04394429 -0.00307224
v -0.01878495 0.04396610 -0.00309964
v -0.01900322 0.04387241 -0.00351100
v -0.01938019 0.04370756 -0.00327350
v -0.01934846 0.04372158 -0.00322163
v -0.01931111 0.04373805 -0.00317512
v -0.01922103 0.04377763 -0.00309964
v -0.01911602 0.04382349 -0.00305219
v -0.01900321 0.04387241 -0.00303600
v -0.01889029 0.04392105 -0.00305219
v -0.01934870 0.04372148 -0.00380002
v -0.01931111 0.04373805 -0.00384688
v -0.01922103 0.04377763 -0.00392236
v -0.01938019 0.04370756 -0.00374850
v -0.01940540 0.04369640 -0.00369257
v -0.01942359 0.04368833 -0.00363394
v -0.01943465 0.04368342 -0.00357314
v -0.01943839 0.04368177 -0.00351100
v -0.01943470 0.04368341 -0.00344924
v -0.01942359 0.04368833 -0.00338806
v -0.01940531 0.04369644 -0.00332920
v -0.01862489 0.04403400 -0.00374850
v -0.01865662 0.04402059 -0.00380007
v -0.01869442 0.04400459 -0.00384688
v -0.01873724 0.04398641 -0.00388769
v -0.01878495 0.04396610 -0.00392236
v -0.01883622 0.04394421 -0.00394985
v -0.01889029 0.04392105 -0.00396982
v -0.01900321 0.04387241 -0.00398600
v -0.01911602 0.04382349 -0.00396982
v -0.01873754 0.04398628 -0.00313406
v -0.01869442 0.04400459 -0.00317512
v -0.01865682 0.04402051 -0.00322166
v -0.01862489 0.04403400 -0.00327350
v -0.01859955 0.04404468 -0.00332928
v -0.01858116 0.04405242 -0.00338806
v -0.01856999 0.04405713 -0.00344902
v -0.01856624 0.04405870 -0.00351100
v -0.01857001 0.04405712 -0.00357315
v -0.01858116 0.04405242 -0.00363394
v -0.01859965 0.04404464 -0.00369299
v -0.02089278 0.04289547 -0.00210100
v -0.02093112 0.04298802 -0.00210100
v -0.02071242 0.04298266 -0.00210100
v -0.02075074 0.04307518 -0.00210100
v -0.02068605 0.04299532 -0.00210387
v -0.02072061 0.04308966 -0.00210476
v -0.02068238 0.04299708 -0.00210510
v -0.02066063 0.04300752 -0.00211240
v -0.02069198 0.04310338 -0.00211586
v -0.02065390 0.04301074 -0.00211637
v -0.02066629 0.04311568 -0.00213373
v -0.02062837 0.04302296 -0.00213428
v -0.02063729 0.04301869 -0.00212619
v -0.02064483 0.04312593 -0.00215748
v -0.02062868 0.04313364 -0.00218592
v -0.02059082 0.04304090 -0.00218619
v -0.02059988 0.04303658 -0.00216750
v -0.02060700 0.04303318 -0.00215792
v -0.02061670 0.04302854 -0.00214486
v -0.02061865 0.04313842 -0.00221762
v -0.02061525 0.04314005 -0.00225100
v -0.02057693 0.04304753 -0.00225100
v -0.02057956 0.04304627 -0.00222159
v -0.02058063 0.04304577 -0.00221772
v -0.02058731 0.04304258 -0.00219344
v -0.02057693 0.04304753 -0.00495100
v -0.02061525 0.04314005 -0.00495100
v -0.02057953 0.04304629 -0.00498024
v -0.02061865 0.04313842 -0.00498438
v -0.02058064 0.04304576 -0.00498428
v -0.02058726 0.04304260 -0.00500844
v -0.02062868 0.04313364 -0.00501608
v -0.02059082 0.04304090 -0.00501581
v -0.02059975 0.04303664 -0.00503429
v -0.02064483 0.04312593 -0.00504452
v -0.02060700 0.04303318 -0.00504407
v -0.02061664 0.04302857 -0.00505707
v -0.02066629 0.04311568 -0.00506827
v -0.02062837 0.04302296 -0.00506773
v -0.02063710 0.04301879 -0.00507567
v -0.02069198 0.04310338 -0.00508615
v -0.02065390 0.04301074 -0.00508563
v -0.02072061 0.04308966 -0.00509724
v -0.02075074 0.04307518 -0.00510100
v -0.02071242 0.04298266 -0.00510100
v -0.02068591 0.04299539 -0.00509810
v -0.02068238 0.04299708 -0.00509691
v -0.02066052 0.04300757 -0.00508955
v -0.02089278 0.04289547 -0.00510100
v -0.02093112 0.04298802 -0.00510100
v -0.02091909 0.04288268 -0.00509813
v -0.02096609 0.04297101 -0.00509589
v -0.02092759 0.04287854 -0.00509527
v -0.02094445 0.04287032 -0.00508960
v -0.02099868 0.04295514 -0.00508090
v -0.02096007 0.04286270 -0.00508035
v -0.02102665 0.04294149 -0.00505707
v -0.02098823 0.04284896 -0.00505715
v -0.02096771 0.04285898 -0.00507582
v -0.02106619 0.04292214 -0.00495100
v -0.02102784 0.04282957 -0.00495100
v -0.02106504 0.04292271 -0.00497057
v -0.02102522 0.04283086 -0.00498042
v -0.02106159 0.04292439 -0.00498982
v -0.02102270 0.04283209 -0.00498964
v -0.02105591 0.04292717 -0.00500840
v -0.02101751 0.04283464 -0.00500857
v -0.02104810 0.04293099 -0.00502600
v -0.02100925 0.04283868 -0.00502569
v -0.02103825 0.04293581 -0.00504238
v -0.02100499 0.04284076 -0.00503451
v -0.02098830 0.04284892 -0.00505706
v -0.02102784 0.04282957 -0.00225100
v -0.02106619 0.04292214 -0.00225100
v -0.02091909 0.04288268 -0.00210387
v -0.02096119 0.04297340 -0.00210476
v -0.02092276 0.04288089 -0.00210510
v -0.02094445 0.04287032 -0.00211240
v -0.02098975 0.04295949 -0.00211586
v -0.02095116 0.04286705 -0.00211637
v -0.02096771 0.04285898 -0.00212618
v -0.02101535 0.04294700 -0.00213373
v -0.02097661 0.04285463 -0.00213428
v -0.02098823 0.04284896 -0.00214485
v -0.02103674 0.04293655 -0.00215748
v -0.02099791 0.04284422 -0.00215792
v -0.02100499 0.04284076 -0.00216749
v -0.02105282 0.04292868 -0.00218592
v -0.02101402 0.04283634 -0.00218619
v -0.02101751 0.04283464 -0.00219343
v -0.02106281 0.04292380 -0.00221762
v -0.02102522 0.04283086 -0.00222158
v -0.02102417 0.04283137 -0.00221772
v -0.01960474 0.04360752 -0.01102904
v -0.01942109 0.04316416 -0.01102904
v -0.01943186 0.04315969 -0.01097133
v -0.01961538 0.04360275 -0.01097133
v -0.01942987 0.04316052 -0.01091250
v -0.01961342 0.04360363 -0.01091250
v -0.01941523 0.04316658 -0.01085581
v -0.01959895 0.04361012 -0.01085581
v -0.01938874 0.04317755 -0.01080439
v -0.01957277 0.04362185 -0.01080439
v -0.01935188 0.04319282 -0.01076110
v -0.01953634 0.04363814 -0.01076110
v -0.01930669 0.04321154 -0.01072834
v -0.01949165 0.04365808 -0.01072834
v -0.01925567 0.04323268 -0.01070793
v -0.01944117 0.04368053 -0.01070793
v -0.01920166 0.04325505 -0.01070100
v -0.01938772 0.04370423 -0.01070100
v -0.01835862 0.04360424 -0.01452904
v -0.01854974 0.04406564 -0.01452904
v -0.01811088 0.04424742 -0.01452904
v -0.01791977 0.04378602 -0.01452904
v -0.01794451 0.04377577 -0.01458551
v -0.01813567 0.04423728 -0.01458551
v -0.01798142 0.04376049 -0.01463358
v -0.01817264 0.04422214 -0.01463358
v -0.01802819 0.04374111 -0.01467023
v -0.01821948 0.04420291 -0.01467023
v -0.01808190 0.04371886 -0.01469319
v -0.01827323 0.04418077 -0.01469319
v -0.01813920 0.04369513 -0.01470100
v -0.01833054 0.04415707 -0.01470100
v -0.01819649 0.04367140 -0.01469319
v -0.01838781 0.04413330 -0.01469319
v -0.01825020 0.04364915 -0.01467023
v -0.01844148 0.04411095 -0.01467023
v -0.01829697 0.04362978 -0.01463358
v -0.01848820 0.04409144 -0.01463358
v -0.01833388 0.04361449 -0.01458551
v -0.01852505 0.04407600 -0.01458551
v -0.01704096 0.04466948 -0.01102904
v -0.01685730 0.04422611 -0.01102904
v -0.01726279 0.04458440 -0.01070100
v -0.01707673 0.04413521 -0.01070100
v -0.01702272 0.04415759 -0.01070793
v -0.01720823 0.04460544 -0.01070793
v -0.01697171 0.04417872 -0.01072834
v -0.01715667 0.04462526 -0.01072834
v -0.01692651 0.04419744 -0.01076110
v -0.01711097 0.04464276 -0.01076110
v -0.01688965 0.04421271 -0.01080439
v -0.01707368 0.04465700 -0.01080439
v -0.01686316 0.04422368 -0.01085581
v -0.01704689 0.04466722 -0.01085581
v -0.01684852 0.04422975 -0.01091250
v -0.01703206 0.04467286 -0.01091250
v -0.01684653 0.04423057 -0.01097133
v -0.01703005 0.04467363 -0.01097133
f 1 2 3
f 4 5 6
f 5 7 6
f 6 7 8
f 9 10 3
f 10 11 3
f 3 11 6
f 11 12 6
f 6 12 4
f 13 14 15
f 16 17 18
f 17 6 18
f 18 6 19
f 6 8 19
f 16 20 17
f 20 21 17
f 17 21 22
f 2 23 3
f 23 24 3
f 3 24 9
f 25 26 13
f 26 27 13
f 13 27 14
f 22 28 17
f 28 29 17
f 17 29 13
f 29 30 13
f 13 30 25
f 15 31 13
f 31 32 13
f 13 32 3
f 32 33 3
f 3 33 1
f 34 35 36
f 37 38 39
f 40 41 42
f 43 44 45
f 46 47 44
f 47 48 44
f 44 48 45
f 48 49 45
f 45 49 50
f 49 51 50
f 52 53 49
f 53 54 49
f 49 54 51
f 52 55 53
f 55 56 53
f 53 56 57
f 58 59 53
f 59 60 53
f 53 60 61
f 57 62 53
f 62 63 53
f 53 63 58
f 64 65 53
f 64 53 66
f 61 67 53
f 67 68 53
f 53 68 66
f 68 69 66
f 66 69 70
f 69 71 70
f 72 73 74
f 73 53 74
f 74 53 75
f 53 65 75
f 72 76 73
f 76 77 73
f 73 77 78
f 78 79 73
f 79 80 73
f 73 80 81
f 81 82 73
f 82 83 73
f 73 83 84
f 83 85 84
f 84 85 86
f 84 87 73
f 87 88 73
f 73 88 89
f 90 91 92
f 91 93 92
f 92 93 94
f 95 96 92
f 96 97 92
f 92 97 90
f 89 98 73
f 98 99 73
f 73 99 92
f 99 100 92
f 92 100 95
f 94 101 92
f 101 102 92
f 92 102 103
f 102 104 103
f 105 45 106
f 107 108 109
f 108 105 109
f 109 105 110
f 105 106 110
f 111 112 113
f 111 113 114
f 103 115 92
f 115 116 92
f 92 116 113
f 116 117 113
f 113 117 114
f 118 105 119
f 105 113 119
f 119 113 120
f 113 112 120
f 118 121 105
f 121 122 105
f 105 122 123
f 123 124 105
f 124 125 105
f 105 125 45
f 125 126 45
f 45 126 43
f 127 128 108
f 128 129 108
f 129 130 108
f 130 131 108
f 108 131 132
f 133 134 135
f 132 136 108
f 136 137 108
f 108 137 138
f 138 139 108
f 139 140 108
f 108 140 133
f 141 142 143
f 142 144 143
f 143 144 145
f 133 135 108
f 135 146 108
f 108 146 143
f 146 147 143
f 143 147 141
f 145 148 143
f 148 149 143
f 143 149 150
f 151 152 153
f 152 154 153
f 153 154 155
f 155 156 153
f 156 157 153
f 153 157 158
f 157 159 158
f 158 159 160
f 159 161 160
f 160 161 162
f 161 163 162
f 163 164 162
f 162 164 107
f 164 165 107
f 165 166 107
f 166 167 107
f 107 167 168
f 168 169 107
f 169 170 107
f 107 170 171
f 171 172 107
f 172 173 107
f 107 173 174
f 175 176 107
f 176 177 107
f 107 177 108
f 177 178 108
f 108 178 127
f 179 174 180
f 174 181 180
f 180 181 182
f 181 183 182
f 182 183 184
f 183 185 184
f 184 185 186
f 185 187 186
f 186 187 134
f 187 188 134
f 134 188 135
f 179 189 174
f 189 190 174
f 174 190 107
f 190 191 107
f 107 191 192
f 193 194 107
f 194 195 107
f 107 195 175
f 192 196 107
f 196 197 107
f 107 197 198
f 198 199 107
f 199 200 107
f 107 200 193
f 42 41 201
f 41 202 201
f 201 202 166
f 202 203 166
f 166 203 167
f 204 205 206
f 205 207 206
f 206 207 208
f 207 209 208
f 208 209 210
f 42 211 40
f 211 212 40
f 40 212 213
f 212 214 213
f 213 214 215
f 214 216 215
f 215 216 204
f 216 217 204
f 204 217 205
f 218 219 220
f 219 221 220
f 220 221 222
f 221 143 222
f 222 143 153
f 143 150 153
f 153 150 151
f 37 39 223
f 39 224 223
f 223 224 225
f 224 226 225
f 225 226 227
f 226 228 227
f 227 228 229
f 228 230 229
f 229 230 231
f 230 232 231
f 231 232 233
f 232 234 233
f 233 234 235
f 234 236 235
f 235 236 237
f 236 238 237
f 237 238 239
f 240 241 242
f 241 243 242
f 242 243 244
f 244 245 242
f 245 246 242
f 242 246 247
f 247 248 242
f 248 249 242
f 242 249 250
f 250 251 242
f 251 252 242
f 242 252 253
f 253 254 242
f 254 255 242
f 242 255 256
f 239 238 257
f 238 258 257
f 257 258 256
f 258 259 256
f 256 259 242
f 259 260 242
f 242 260 240
f 261 262 218
f 262 263 218
f 263 264 218
f 264 265 218
f 218 265 266
f 266 267 218
f 267 268 218
f 218 268 258
f 268 269 258
f 269 270 258
f 258 270 271
f 272 273 258
f 272 258 274
f 271 275 258
f 275 276 258
f 258 276 274
f 277 278 279
f 279 278 280
f 278 281 280
f 281 282 280
f 280 282 283
f 273 284 258
f 284 285 258
f 258 285 259
f 285 280 259
f 259 280 286
f 280 283 286
f 287 220 279
f 220 288 279
f 279 288 277
f 287 289 220
f 289 290 220
f 220 290 291
f 291 292 220
f 292 293 220
f 220 293 294
f 294 295 220
f 295 296 220
f 220 296 297
f 298 299 218
f 299 300 218
f 218 300 261
f 297 301 220
f 301 302 220
f 220 302 218
f 302 303 218
f 218 303 298
f 35 304 36
f 304 305 36
f 36 305 73
f 305 306 73
f 73 306 53
f 34 36 307
f 36 308 307
f 307 308 309
f 310 311 312
f 312 313 310
f 313 314 310
f 310 314 308
f 314 315 308
f 308 315 309
f 316 317 310
f 317 318 310
f 310 318 311
f 319 320 321
f 320 322 321
f 321 322 316
f 322 323 316
f 316 323 317
f 319 321 324
f 321 325 324
f 324 325 326
f 326 325 327
f 325 328 327
f 327 328 329
f 329 328 330
f 328 331 330
f 330 331 332
f 332 331 333
f 331 334 333
f 333 334 335
f 334 336 335
f 335 336 337
f 336 338 337
f 337 338 339
f 338 340 339
f 339 340 341
f 340 342 341
f 341 342 343
f 342 344 343
f 343 344 345
f 344 346 345
f 345 346 347
f 347 346 348
f 346 349 348
f 348 349 350
f 351 352 353
f 352 354 353
f 353 354 355
f 355 356 353
f 356 357 353
f 353 357 358
f 359 360 361
f 360 362 361
f 361 362 363
f 361 364 353
f 364 365 353
f 353 365 351
f 366 367 361
f 367 368 361
f 361 368 369
f 369 370 361
f 370 371 361
f 361 371 359
f 363 372 361
f 372 373 361
f 361 373 374
f 374 375 361
f 375 376 361
f 361 376 364
f 377 378 379
f 380 381 379
f 382 383 384
f 385 386 384
f 386 387 384
f 388 385 389
f 385 384 389
f 389 384 390
f 384 383 390
f 379 381 384
f 381 391 384
f 384 391 382
f 380 379 392
f 379 378 392
f 392 378 393
f 394 377 395
f 377 379 395
f 395 379 396
f 379 384 396
f 396 384 397
f 384 387 397
f 398 399 400
f 399 401 400
f 400 401 402
f 401 403 402
f 402 403 404
f 403 405 404
f 404 405 406
f 405 407 406
f 406 407 408
f 407 409 408
f 408 409 410
f 409 411 410
f 410 411 37
f 411 38 37
f 412 413 414
f 413 415 414
f 412 416 413
f 416 417 413
f 413 417 418
f 418 419 413
f 419 420 413
f 413 420 421
f 421 422 413
f 422 423 413
f 413 423 424
f 425 426 427
f 428 429 430
f 429 431 430
f 430 431 432
f 431 433 432
f 434 435 436
f 435 437 436
f 436 437 438
f 427 439 425
f 439 440 425
f 425 440 441
f 442 443 444
f 428 445 429
f 445 446 429
f 429 446 447
f 446 448 447
f 449 450 451
f 450 452 451
f 451 452 453
f 452 454 453
f 453 454 455
f 454 456 455
f 455 456 457
f 456 458 457
f 457 458 459
f 458 460 459
f 459 460 461
f 460 462 461
f 461 462 463
f 462 464 463
f 463 464 465
f 464 466 465
f 465 466 467
f 466 468 467
f 467 468 469
f 468 470 469
f 469 470 471
f 470 472 471
f 471 472 473
f 472 474 473
f 473 474 426
f 474 475 426
f 426 475 427
f 476 477 431
f 477 478 431
f 431 478 433
f 442 444 479
f 444 480 479
f 479 480 481
f 480 447 481
f 481 447 413
f 447 448 413
f 413 448 415
f 443 442 482
f 442 483 482
f 482 483 484
f 483 485 484
f 484 485 486
f 485 487 486
f 486 487 488
f 487 489 488
f 488 489 490
f 489 491 490
f 490 491 492
f 491 493 492
f 492 493 494
f 493 495 494
f 494 495 496
f 495 497 496
f 496 497 498
f 497 499 498
f 498 499 500
f 499 501 500
f 500 501 502
f 501 503 502
f 502 503 504
f 503 505 504
f 504 505 506
f 505 507 506
f 506 507 508
f 507 509 508
f 508 509 449
f 509 510 449
f 449 510 450
f 511 512 513
f 512 441 513
f 513 514 511
f 514 515 511
f 511 515 516
f 515 517 516
f 516 517 431
f 517 518 431
f 431 518 476
f 437 519 438
f 519 513 438
f 438 513 520
f 513 441 520
f 520 441 521
f 441 440 521
f 522 523 524
f 525 526 527
f 528 529 530
f 531 532 533
f 534 535 536
f 537 538 539
f 539 538 540
f 541 542 543
f 544 545 546
f 547 548 549
f 548 550 549
f 549 550 551
f 552 553 554
f 555 556 557
f 556 558 557
f 559 560 561
f 560 562 561
f 561 562 563
f 545 564 546
f 564 565 546
f 546 565 566
f 567 568 569
f 569 570 571
f 570 572 571
f 571 572 573
f 574 575 576
f 541 543 576
f 543 577 576
f 576 577 574
f 578 579 574
f 579 580 574
f 574 580 575
f 581 537 582
f 537 539 582
f 582 539 574
f 539 540 574
f 574 540 578
f 534 536 583
f 584 585 586
f 585 587 586
f 586 587 588
f 588 589 586
f 589 590 586
f 586 590 591
f 584 592 593
f 593 594 584
f 594 595 584
f 584 595 585
f 595 596 585
f 585 596 587
f 565 559 566
f 559 561 566
f 566 561 597
f 598 599 600
f 601 544 602
f 544 546 602
f 602 546 603
f 546 566 603
f 603 566 604
f 566 597 604
f 604 597 605
f 605 606 604
f 606 607 604
f 604 607 603
f 607 573 603
f 603 573 602
f 573 572 602
f 602 572 601
f 608 609 605
f 609 610 605
f 605 610 606
f 558 552 557
f 552 554 557
f 557 554 611
f 554 612 611
f 611 612 613
f 612 614 613
f 613 614 615
f 614 616 615
f 617 618 616
f 618 608 616
f 616 608 615
f 608 605 615
f 615 605 613
f 605 597 613
f 613 597 611
f 597 561 611
f 611 561 557
f 561 563 557
f 557 563 555
f 619 620 621
f 622 617 623
f 617 616 623
f 623 616 624
f 616 614 624
f 624 614 625
f 614 612 625
f 625 612 626
f 612 554 626
f 626 554 549
f 554 553 549
f 549 553 547
f 532 622 533
f 622 623 533
f 533 623 627
f 623 624 627
f 627 624 628
f 624 625 628
f 628 625 629
f 625 626 629
f 629 626 600
f 626 549 600
f 600 549 598
f 549 551 598
f 598 551 630
f 631 531 632
f 531 533 632
f 632 533 633
f 533 627 633
f 633 627 634
f 627 628 634
f 634 628 635
f 628 629 635
f 635 629 636
f 629 600 636
f 637 631 638
f 631 632 638
f 638 632 639
f 632 633 639
f 639 633 640
f 633 634 640
f 640 634 641
f 634 635 641
f 641 635 642
f 635 636 642
f 526 637 527
f 637 638 527
f 527 638 643
f 638 639 643
f 643 639 644
f 639 640 644
f 644 640 645
f 640 641 645
f 645 641 621
f 641 642 621
f 621 642 619
f 642 636 619
f 619 636 646
f 636 600 646
f 646 600 647
f 600 599 647
f 528 530 648
f 649 525 650
f 525 527 650
f 650 527 651
f 527 643 651
f 651 643 652
f 643 644 652
f 652 644 653
f 644 645 653
f 653 645 654
f 645 621 654
f 523 649 524
f 649 650 524
f 524 650 655
f 650 651 655
f 655 651 656
f 651 652 656
f 656 652 657
f 652 653 657
f 657 653 658
f 653 654 658
f 659 522 660
f 522 524 660
f 660 524 661
f 524 655 661
f 661 655 662
f 655 656 662
f 662 656 663
f 656 657 663
f 663 657 664
f 657 658 664
f 665 592 666
f 592 584 666
f 666 584 667
f 584 586 667
f 667 586 536
f 586 591 536
f 536 591 583
f 529 665 530
f 665 666 530
f 530 666 668
f 666 667 668
f 668 667 669
f 667 536 669
f 669 536 582
f 536 535 582
f 582 535 581
f 670 659 671
f 659 660 671
f 671 660 672
f 660 661 672
f 672 661 673
f 661 662 673
f 673 662 674
f 662 663 674
f 674 663 675
f 663 664 675
f 577 670 574
f 670 671 574
f 574 671 582
f 671 672 582
f 582 672 669
f 672 673 669
f 669 673 668
f 673 674 668
f 668 674 530
f 674 675 530
f 530 675 648
f 675 664 648
f 648 664 676
f 664 658 676
f 676 658 677
f 658 654 677
f 677 654 678
f 654 621 678
f 678 621 679
f 621 620 679
f 526 525 680
f 543 542 681
f 543 681 577
f 577 681 670
f 681 682 670
f 670 682 659
f 525 649 680
f 649 523 680
f 680 523 682
f 523 522 682
f 682 522 659
f 532 531 683
f 531 631 683
f 683 631 680
f 631 637 680
f 680 637 526
f 532 683 622
f 683 684 622
f 622 684 617
f 610 609 685
f 609 608 685
f 685 608 684
f 608 618 684
f 684 618 617
f 686 568 571
f 571 573 686
f 573 607 686
f 686 607 685
f 607 606 685
f 685 606 610
f 687 594 593
f 598 630 688
f 598 688 599
f 688 689 599
f 599 689 647
f 689 690 647
f 647 690 691
f 619 646 692
f 646 647 692
f 692 647 693
f 647 691 693
f 678 679 694
f 678 694 677
f 619 692 695
f 692 696 695
f 695 696 679
f 696 697 679
f 679 697 694
f 698 592 665
f 676 699 648
f 699 700 648
f 648 700 701
f 700 698 701
f 701 698 529
f 698 665 529
f 698 702 592
f 702 703 592
f 592 703 593
f 703 704 593
f 593 704 687
f 705 706 707
f 707 708 705
f 708 709 705
f 705 709 710
f 709 711 710
f 710 711 712
f 350 349 713
f 349 710 713
f 713 710 714
f 710 712 714
f 676 677 699
f 677 694 699
f 699 694 715
f 716 717 706
f 717 718 706
f 706 718 707
f 719 717 720
f 717 716 720
f 720 716 694
f 716 721 694
f 694 721 715
f 390 722 389
f 722 723 389
f 389 723 388
f 723 724 388
f 725 726 727
f 726 728 727
f 729 730 731
f 730 732 731
f 731 732 733
f 732 734 733
f 733 734 735
f 734 736 735
f 735 736 737
f 736 738 737
f 737 738 739
f 738 740 739
f 739 740 741
f 740 742 741
f 741 742 743
f 742 744 743
f 743 744 745
f 744 746 745
f 745 746 747
f 746 748 747
f 747 748 749
f 748 750 749
f 749 750 751
f 750 752 751
f 751 752 753
f 752 754 753
f 753 754 755
f 754 756 755
f 755 756 757
f 756 758 757
f 757 758 759
f 758 760 759
f 759 760 761
f 760 762 761
f 761 762 763
f 762 764 763
f 763 764 765
f 764 766 765
f 765 766 767
f 766 768 767
f 767 768 769
f 768 770 769
f 769 770 771
f 770 772 771
f 771 772 773
f 772 774 773
f 773 774 775
f 774 776 775
f 775 776 777
f 776 778 777
f 777 778 779
f 778 780 779
f 779 780 781
f 780 782 781
f 781 782 783
f 782 784 783
f 783 784 785
f 784 786 785
f 785 786 787
f 786 788 787
f 787 788 789
f 788 790 789
f 789 790 791
f 790 792 791
f 791 792 793
f 792 794 793
f 793 794 795
f 794 796 795
f 795 796 797
f 796 798 797
f 797 798 799
f 798 800 799
f 799 800 801
f 800 802 801
f 801 802 803
f 802 804 803
f 803 804 805
f 804 729 805
f 805 729 731
f 806 807 808
f 809 724 723
f 809 723 810
f 811 812 813
f 812 814 813
f 813 814 815
f 811 816 817
f 816 818 817
f 818 816 819
f 816 820 819
f 819 820 821
f 808 807 820
f 807 822 820
f 820 822 821
f 823 824 806
f 825 717 826
f 717 719 826
f 823 827 828
f 825 824 717
f 824 823 717
f 717 823 718
f 823 828 718
f 718 828 707
f 806 808 823
f 808 829 823
f 823 829 827
f 830 831 820
f 831 832 820
f 820 832 808
f 832 833 808
f 808 833 829
f 830 820 834
f 820 816 834
f 834 816 835
f 811 813 816
f 813 836 816
f 816 836 835
f 837 838 815
f 838 839 815
f 815 839 813
f 839 840 813
f 813 840 836
f 722 837 723
f 837 815 723
f 723 815 810
f 815 814 810
f 841 842 843
f 841 843 844
f 845 846 843
f 846 847 843
f 843 847 844
f 848 849 843
f 849 850 843
f 843 850 845
f 851 852 843
f 852 853 843
f 843 853 848
f 854 855 843
f 855 856 843
f 843 856 851
f 857 858 843
f 858 859 843
f 843 859 854
f 860 861 843
f 861 862 843
f 843 862 857
f 863 864 843
f 864 865 843
f 843 865 860
f 866 867 843
f 867 868 843
f 843 868 863
f 869 870 843
f 870 871 843
f 843 871 866
f 872 873 843
f 873 874 843
f 843 874 869
f 875 876 843
f 876 877 843
f 843 877 872
f 842 878 843
f 878 879 843
f 843 879 875
f 880 881 398
f 881 399 398
f 882 883 884
f 882 884 885
f 884 886 885
f 885 886 887
f 886 888 887
f 887 888 889
f 888 890 889
f 889 890 891
f 890 892 891
f 891 892 893
f 892 894 893
f 893 894 895
f 894 896 895
f 895 896 897
f 883 882 898
f 882 899 898
f 900 901 902
f 901 903 902
f 902 903 904
f 905 906 907
f 905 907 908
f 907 909 908
f 908 909 910
f 909 911 910
f 910 911 912
f 911 913 912
f 912 913 914
f 913 915 914
f 914 915 916
f 915 917 916
f 916 917 918
f 917 901 918
f 918 901 900
f 919 906 920
f 906 905 920
f 921 922 923
f 921 923 924
f 923 925 924
f 924 925 926
f 925 927 926
f 926 927 928
f 927 929 928
f 928 929 930
f 929 931 930
f 930 931 932
f 931 933 932
f 932 933 934
f 933 919 934
f 934 919 920
f 935 936 937
f 936 922 937
f 937 922 921
f 938 939 940
f 939 941 940
f 940 941 942
f 940 942 943
f 942 944 943
f 943 944 945
f 944 946 945
f 945 946 947
f 946 948 947
f 947 948 949
f 948 950 949
f 949 950 951
f 950 952 951
f 951 952 953
f 952 954 953
f 953 954 955
f 955 954 956
f 954 957 956
f 958 959 960
f 958 960 961
f 960 962 961
f 961 962 963
f 962 964 963
f 963 964 965
f 964 966 965
f 965 966 967
f 966 968 967
f 967 968 969
f 968 970 969
f 969 970 971
f 970 956 971
f 971 956 957
f 972 959 973
f 959 958 973
f 974 975 976
f 975 977 976
f 978 979 980
f 978 980 981
f 980 982 981
f 981 982 983
f 982 984 983
f 983 984 985
f 984 986 985
f 985 986 987
f 986 988 987
f 987 988 989
f 988 990 989
f 989 990 991
f 990 974 991
f 991 974 976
f 979 978 992
f 978 993 992
f 994 995 996
f 994 996 997
f 996 998 997
f 997 998 999
f 998 1000 999
f 999 1000 1001
f 1000 1002 1001
f 1001 1002 1003
f 1002 1004 1003
f 1003 1004 1005
f 1004 1006 1005
f 1005 1006 1007
f 1006 992 1007
f 1007 992 993
f 995 994 1008
f 994 1009 1008
f 1010 1011 1012
f 1011 1013 1012
f 1014 1015 1016
f 1014 1016 1017
f 1016 1018 1017
f 1017 1018 1019
f 1018 1020 1019
f 1019 1020 1021
f 1020 1022 1021
f 1021 1022 1023
f 1022 1024 1023
f 1023 1024 1025
f 1024 1026 1025
f 1025 1026 1027
f 1026 1010 1027
f 1027 1010 1012
f 896 1015 897
f 1015 1014 897
f 1028 1029 1030
f 1028 1030 1031
f 1030 1032 1031
f 1031 1032 1033
f 1032 1034 1033
f 1033 1034 1035
f 1034 1036 1035
f 1035 1036 1037
f 1036 1038 1037
f 1037 1038 1039
f 1038 1040 1039
f 1039 1040 1041
f 1040 1042 1041
f 1041 1042 1043
f 1029 1028 1044
f 1028 1045 1044
f 1044 1045 1046
f 1045 1047 1046
f 1046 1047 1048
f 1047 1049 1048
f 1048 1049 1050
f 1049 1051 1050
f 1050 1051 1052
f 1051 1053 1052
f 1052 1053 1054
f 1053 1055 1054
f 1054 1055 1056
f 1055 1057 1056
f 1057 1058 1056
f 1056 1058 1059
f 1058 1060 1059
f 1059 1060 1061
f 1060 1062 1061
f 1061 1062 1063
f 1064 1063 1065
f 1063 1062 1065
f 1066 1067 1068
f 1066 1068 1069
f 1068 1070 1069
f 1069 1070 1071
f 1070 1072 1071
f 1071 1072 1073
f 1072 1074 1073
f 1073 1074 1075
f 1074 1076 1075
f 1075 1076 1077
f 1076 1078 1077
f 1077 1078 1079
f 1078 1064 1079
f 1079 1064 1065
f 1080 1067 1081
f 1067 1066 1081
f 1080 1081 1082
f 1081 1083 1082
f 1082 1083 1084
f 1083 1085 1084
f 1084 1085 1086
f 1085 1087 1086
f 1086 1087 1088
f 1087 1089 1088
f 1089 1090 1088
f 1088 1090 1091
f 1090 1092 1091
f 1091 1092 1093
f 1092 1094 1093
f 1093 1094 1095
f 1094 1096 1095
f 1095 1096 1097
f 1096 1098 1097
f 1097 1098 1099
f 1099 1098 1042
f 1098 1043 1042
f 1100 1101 1102
f 1101 1103 1102
f 1102 1103 1104
f 1104 1103 1105
f 1103 1106 1105
f 1105 1106 1107
f 1107 1106 1108
f 1106 1109 1108
f 1108 1109 1110
f 1111 1112 1109
f 1112 1113 1109
f 1109 1113 1110
f 1114 1115 1116
f 1115 1117 1116
f 1116 1117 1111
f 1117 1118 1111
f 1111 1118 1112
f 1114 1116 1119
f 1116 1120 1119
f 1119 1120 1121
f 1120 1122 1121
f 1121 1122 1123
f 1124 1125 1126
f 1123 1127 1128
f 1127 1129 1128
f 1128 1129 1130
f 1126 1125 1129
f 1125 1131 1129
f 1129 1131 1130
f 1124 1126 1132
f 1126 1133 1132
f 1132 1133 1134
f 1134 1133 1135
f 1133 1136 1135
f 1135 1136 1137
f 1137 1136 1138
f 1136 1139 1138
f 1138 1139 1140
f 1141 1142 1139
f 1142 1143 1139
f 1139 1143 1140
f 1139 1144 1141
f 1144 1145 1141
f 1141 1145 1146
f 1146 1145 1147
f 1145 1148 1147
f 1149 1150 1148
f 1150 1151 1148
f 1148 1151 1147
f 1152 1153 1149
f 1153 1154 1149
f 1149 1154 1150
f 1149 1155 1152
f 1155 1156 1152
f 1152 1156 1157
f 1158 1159 1160
f 1159 1161 1160
f 1160 1161 1162
f 1163 1164 1161
f 1164 1165 1161
f 1161 1165 1162
f 1166 1167 1163
f 1167 1168 1163
f 1163 1168 1164
f 1169 1170 1166
f 1170 1171 1166
f 1166 1171 1167
f 1172 1173 1174
f 1173 1175 1174
f 1174 1175 1169
f 1175 1176 1169
f 1169 1176 1170
f 1172 1174 1177
f 1174 1178 1177
f 1177 1178 1179
f 1179 1178 1180
f 1178 1181 1180
f 1180 1181 1182
f 1182 1181 1183
f 1181 1184 1183
f 1183 1184 1185
f 1186 1187 1188
f 1187 1189 1188
f 1189 1190 1188
f 1190 1191 1188
f 1188 1191 1192
f 1191 1193 1192
f 1193 1194 1192
f 1192 1194 1195
f 1194 1196 1195
f 1196 1197 1195
f 1197 1198 1195
f 1195 1198 1199
f 1198 1200 1199
f 1200 1201 1199
f 1199 1201 1202
f 1201 1203 1202
f 1185 1184 1204
f 1184 1202 1204
f 1204 1202 1205
f 1202 1203 1205
f 1206 1187 1207
f 1187 1186 1207
f 1206 1207 1208
f 1207 1209 1208
f 1208 1209 1210
f 1211 1212 1209
f 1212 1213 1209
f 1209 1213 1210
f 1214 1215 1211
f 1215 1216 1211
f 1211 1216 1212
f 1217 1218 1214
f 1218 1219 1214
f 1214 1219 1215
f 1220 1221 1217
f 1221 1222 1217
f 1217 1222 1218
f 1223 1224 1225
f 1224 1226 1225
f 1225 1226 1220
f 1226 1227 1220
f 1220 1227 1221
f 1228 1229 1230
f 1229 1231 1230
f 1223 1225 1232
f 1225 1230 1232
f 1232 1230 1233
f 1230 1231 1233
f 1234 1235 1236
f 1229 1228 1237
f 1228 1238 1237
f 1239 1240 1238
f 1240 1241 1238
f 1238 1241 1237
f 1242 1243 1244
f 1243 1245 1244
f 1244 1245 1239
f 1245 1246 1239
f 1239 1246 1240
f 1242 1244 1247
f 1244 1248 1247
f 1247 1248 1249
f 1236 1235 1248
f 1235 1250 1248
f 1248 1250 1249
f 1234 1236 1251
f 1236 1252 1251
f 1251 1252 1253
f 1252 1254 1253
f 1253 1254 1255
f 1256 1257 1258
f 1257 1259 1258
f 1258 1259 1260
f 1259 1261 1260
f 1261 1262 1260
f 1260 1262 1263
f 1262 1264 1263
f 1263 1264 1265
f 1264 1266 1265
f 1265 1266 1267
f 1266 1268 1267
f 1267 1268 1269
f 1268 1270 1269
f 1269 1270 1271
f 1270 1272 1271
f 1271 1272 1273
f 1272 1274 1273
f 1274 1275 1273
f 1273 1275 1276
f 1275 1277 1276
f 1277 1278 1276
f 1278 1279 1276
f 1276 1279 1280
f 1279 1281 1280
f 1282 1283 1284
f 1283 1280 1284
f 1284 1280 1285
f 1280 1281 1285
f 1282 1286 1283
f 1286 1287 1283
f 1283 1287 1288
f 1287 1289 1288
f 1288 1289 1290
f 1289 1291 1290
f 1291 1292 1290
f 1290 1292 1293
f 1292 1294 1293
f 1293 1294 1295
f 1294 1296 1295
f 1295 1296 1297
f 1296 1298 1297
f 1297 1298 1299
f 1298 1300 1299
f 1299 1300 1301
f 1300 1302 1301
f 1301 1302 1303
f 1302 1304 1303
f 1303 1304 1305
f 1304 1306 1305
f 1305 1306 1307
f 1306 1308 1307
f 1307 1308 1309
f 1308 1310 1309
f 1310 1311 1309
f 1309 1311 1312
f 1311 1313 1312
f 1312 1313 1314
f 1313 1315 1314
f 1315 1316 1314
f 1314 1316 1317
f 1316 1318 1317
f 1318 1319 1317
f 1317 1319 1320
f 1319 1321 1320
f 1322 1323 1324
f 1323 1320 1324
f 1324 1320 1325
f 1320 1321 1325
f 1322 1326 1323
f 1326 1327 1323
f 1323 1327 1328
f 1327 1329 1328
f 1328 1329 1330
f 1329 1331 1330
f 1331 1332 1330
f 1330 1332 1333
f 1332 1334 1333
f 1333 1334 1335
f 1334 1336 1335
f 1335 1336 1337
f 1336 1338 1337
f 1338 1339 1337
f 1337 1339 1340
f 1339 1341 1340
f 1340 1341 1342
f 1341 1343 1342
f 1342 1343 1344
f 1343 1345 1344
f 1344 1345 1346
f 1345 1347 1346
f 1347 1348 1346
f 1346 1348 1349
f 1348 1350 1349
f 1349 1350 1351
f 1350 1352 1351
f 1351 1352 1353
f 1352 1354 1353
f 1353 1354 1256
f 1354 1355 1256
f 1256 1355 1257
f 1255 1254 1356
f 1254 1357 1356
f 1356 1357 1358
f 1359 1360 1357
f 1360 1361 1357
f 1357 1361 1358
f 1362 1363 1364
f 1363 1365 1364
f 1364 1365 1366
f 1365 1367 1366
f 1366 1367 1359
f 1367 1368 1359
f 1359 1368 1360
f 1362 1364 1369
f 1364 1370 1369
f 1369 1370 1371
f 1371 1370 1372
f 1370 1373 1372
f 1372 1373 1374
f 1374 1373 1375
f 1373 1101 1375
f 1375 1101 1100
f 1376 1377 1378
f 1378 1379 1380
f 1380 1381 1378
f 1381 1382 1378
f 1378 1382 1383
f 1383 1384 1378
f 1384 1385 1378
f 1378 1385 1376
f 1386 1378 1387
f 1378 1388 1387
f 1386 1389 1378
f 1389 1390 1378
f 1378 1390 1391
f 1391 1392 1378
f 1392 1393 1378
f 1378 1393 1394
f 1394 1395 1378
f 1395 1396 1378
f 1378 1396 1379
f 1397 1398 1378
f 1398 1399 1378
f 1378 1399 1400
f 1400 1401 1378
f 1401 1402 1378
f 1378 1402 1403
f 1403 1404 1378
f 1404 1405 1378
f 1378 1405 1388
f 1377 1406 1378
f 1406 1407 1378
f 1378 1407 1408
f 1408 1409 1378
f 1409 1410 1378
f 1378 1410 1411
f 1411 1412 1378
f 1412 1413 1378
f 1378 1413 1414
f 1414 1415 1378
f 1415 1416 1378
f 1378 1416 1397
f 1417 1418 1419
f 1418 1420 1419
f 1419 1420 1421
f 1420 1422 1421
f 1421 1422 1423
f 1423 1422 1424
f 1422 1425 1424
f 1424 1425 1426
f 1427 1428 1425
f 1428 1429 1425
f 1425 1429 1426
f 1430 1431 1432
f 1432 1433 1430
f 1433 1434 1430
f 1430 1434 1427
f 1434 1435 1427
f 1427 1435 1428
f 1436 1437 1438
f 1438 1439 1436
f 1439 1440 1436
f 1436 1440 1431
f 1440 1441 1431
f 1431 1441 1432
f 1438 1437 1442
f 1437 1443 1442
f 1442 1443 1444
f 1443 1445 1444
f 1444 1445 1446
f 1446 1445 1447
f 1445 1448 1447
f 1447 1448 1449
f 1449 1448 1450
f 1448 1451 1450
f 1450 1451 1452
f 1452 1451 1453
f 1451 1454 1453
f 1453 1454 1455
f 1455 1454 1456
f 1454 1457 1456
f 1456 1457 1458
f 1459 1460 1461
f 1461 1462 1459
f 1462 1463 1459
f 1459 1463 1457
f 1463 1464 1457
f 1457 1464 1458
f 1465 1461 1466
f 1461 1460 1466
f 1465 1466 1467
f 1466 1468 1467
f 1467 1468 1469
f 1469 1468 1470
f 1468 1471 1470
f 1470 1471 1472
f 1473 1474 1471
f 1474 1475 1471
f 1471 1475 1472
f 1476 1477 1478
f 1477 1479 1478
f 1478 1479 1480
f 1479 1481 1480
f 1480 1481 1482
f 1481 1483 1482
f 1482 1483 1484
f 1483 1485 1484
f 1484 1485 1486
f 1485 1487 1486
f 1486 1487 1473
f 1487 1488 1473
f 1473 1488 1474
f 1489 1477 1490
f 1477 1476 1490
f 1417 1491 1418
f 1491 1492 1418
f 1491 1493 1492
f 1493 1494 1492
f 1492 1494 1495
f 1494 1496 1495
f 1496 1497 1495
f 1495 1497 1498
f 1497 1499 1498
f 1499 1500 1498
f 1498 1500 1501
f 1500 1502 1501
f 1502 1503 1501
f 1501 1503 1504
f 1503 1505 1504
f 1505 1506 1504
f 1504 1506 1507
f 1489 1490 1508
f 1490 1507 1508
f 1508 1507 1509
f 1507 1506 1509
f 1510 1511 1512
f 1510 1512 1513
f 1512 1514 1513
f 1513 1514 1515
f 1514 1516 1515
f 1515 1516 1517
f 1516 1518 1517
f 1517 1518 1519
f 1518 1520 1519
f 1519 1520 1521
f 1520 1522 1521
f 1521 1522 1523
f 1522 1524 1523
f 1523 1524 1525
f 1524 1526 1525
f 1525 1526 1527
f 1528 1511 1529
f 1511 1510 1529
f 1530 1531 1532
f 1530 1532 1533
f 1532 1534 1533
f 1533 1534 1535
f 1534 1536 1535
f 1535 1536 1537
f 1536 1538 1537
f 1537 1538 1539
f 1538 1540 1539
f 1539 1540 1541
f 1540 1542 1541
f 1541 1542 1543
f 1542 1544 1543
f 1543 1544 1545
f 1544 1546 1545
f 1545 1546 1547
f 1546 1548 1547
f 1547 1548 1549
f 1548 1528 1549
f 1549 1528 1529
f 1550 1551 1530
f 1551 1531 1530
f 1552 1553 1554
f 1552 1554 1555
f 1554 1556 1555
f 1555 1556 1557
f 1556 1558 1557
f 1557 1558 1559
f 1558 1560 1559
f 1559 1560 1561
f 1560 1562 1561
f 1561 1562 1563
f 1562 1564 1563
f 1563 1564 1565
f 1564 1566 1565
f 1565 1566 1567
f 1566 1551 1567
f 1567 1551 1550
f 1527 1526 1552
f 1526 1553 1552

