# https://github.com/mikedh/trimesh

o FR3_Version2_Link6_8-mesh
v 0.06449659 0.08152650 0.00026400
v 0.06426763 0.08152312 0.00026400
v 0.06401905 0.08151764 0.00050783
v 0.06253001 0.08146350 0.00001400
v 0.06191533 0.08142784 0.00001400
v 0.06191529 0.08142759 0.00026398
v 0.06314508 0.08149155 0.00013900
v 0.06314508 0.08149160 0.00007650
v 0.06314509 0.08149161 0.00001400
v 0.06472557 0.08152884 0.00026400
v 0.06416498 0.08151928 0.00081441
v 0.06360369 0.08150100 0.00136400
v 0.06377036 0.08151046 0.00075150
v 0.06316983 0.08148938 0.00093875
v 0.06345781 0.08150230 0.00044511
v 0.06273560 0.08147277 0.00051400
v 0.06232528 0.08145147 0.00051400
v 0.06191515 0.08142679 0.00051400
v 0.06191529 0.08142759 -0.00023598
v 0.06253001 0.08146350 0.00001400
v 0.06232528 0.08145147 -0.00048600
v 0.06191515 0.08142679 -0.00048600
v 0.06314508 0.08149155 -0.00011100
v 0.06314508 0.08149160 -0.00004850
v 0.06401905 0.08151764 -0.00047983
v 0.06416498 0.08151928 -0.00078641
v 0.06377036 0.08151046 -0.00072350
v 0.06360369 0.08150100 -0.00133600
v 0.06345781 0.08150230 -0.00041711
v 0.06316983 0.08148938 -0.00091075
v 0.06273560 0.08147277 -0.00048600
v 0.06426763 0.08152312 -0.00023600
v 0.06449659 0.08152650 -0.00023600
v 0.06472557 0.08152884 -0.00023600
v 0.11323350 0.07156685 0.00001399
v 0.11359920 0.07134212 0.00001399
v 0.11361330 0.07133317 -0.00014770
v 0.11286541 0.07178769 0.00001400
v 0.11289641 0.07176879 -0.00031815
v 0.11292311 0.07175241 -0.00041092
v 0.11363010 0.07132257 -0.00020440
v 0.11298931 0.07171202 -0.00063995
v 0.11367161 0.07129639 -0.00034434
v 0.11307731 0.07165783 -0.00080509
v 0.11370730 0.07127375 -0.00040829
v 0.11317051 0.07160044 -0.00097999
v 0.11376320 0.07123823 -0.00050859
v 0.11331531 0.07151044 -0.00114506
v 0.11383081 0.07119517 -0.00058239
v 0.11341620 0.07144780 -0.00125996
v 0.11389960 0.07115129 -0.00065761
v 0.11362581 0.07131575 -0.00140579
v 0.11399071 0.07109275 -0.00071540
v 0.11372680 0.07125215 -0.00147605
v 0.11408060 0.07103498 -0.00077242
v 0.11398610 0.07108615 -0.00157227
v 0.11417580 0.07097323 -0.00079949
v 0.11406100 0.07103817 -0.00160008
v 0.11428361 0.07090335 -0.00083012
v 0.11437350 0.07083493 -0.00162684
v 0.11437430 0.07084394 -0.00082848
v 0.11445311 0.07078318 -0.00163365
v 0.11506640 0.07038356 -0.00036384
v 0.11566830 0.06996080 -0.00080997
v 0.11504011 0.07040132 -0.00040860
v 0.11546321 0.07010295 -0.00111755
v 0.11497101 0.07044799 -0.00052627
v 0.11542901 0.07012638 -0.00114834
v 0.11491751 0.07048391 -0.00058316
v 0.11516070 0.07031023 -0.00138985
v 0.11484450 0.07053287 -0.00066072
v 0.11512050 0.07033731 -0.00141001
v 0.11475801 0.07059056 -0.00071660
v 0.11481791 0.07054117 -0.00156178
v 0.11468101 0.07064188 -0.00076633
v 0.11476021 0.07057944 -0.00157315
v 0.11457290 0.07071338 -0.00080042
v 0.11449061 0.07076783 -0.00082637
v 0.11512561 0.07034346 -0.00018371
v 0.11581501 0.06985821 -0.00041228
v 0.11511860 0.07034825 -0.00020522
v 0.11580640 0.06986428 -0.00046045
v 0.11567631 0.06995523 -0.00079792
v 0.11514680 0.07032910 0.00001399
v 0.11550950 0.07007656 0.00001399
v 0.11586181 0.06982537 -0.00015171
v 0.11586941 0.06982003 0.00001399
v 0.11586941 0.06982003 0.00001400
v 0.11514480 0.07033046 0.00007479
v 0.11514680 0.07032910 0.00001400
v 0.11583900 0.06984143 0.00034527
v 0.11581241 0.06986008 0.00043890
v 0.11511711 0.07034925 0.00023327
v 0.11574701 0.06990583 0.00066854
v 0.11511020 0.07035392 0.00027266
v 0.11504291 0.07039946 0.00043871
v 0.11566041 0.06996617 0.00083313
v 0.11504050 0.07040110 0.00044464
v 0.11556861 0.07003012 0.00100747
v 0.11493371 0.07047310 0.00060062
v 0.11542521 0.07012896 0.00117333
v 0.11532931 0.07019509 0.00128427
v 0.11491951 0.07048256 0.00061324
v 0.11511711 0.07033947 0.00143346
v 0.11478120 0.07057524 0.00073686
v 0.11501541 0.07040866 0.00150494
v 0.11475981 0.07058944 0.00074727
v 0.11475831 0.07058075 0.00159756
v 0.11458931 0.07070269 0.00083054
v 0.11465600 0.07064920 0.00163440
v 0.11457431 0.07071255 0.00083287
v 0.11437301 0.07083577 0.00166400
v 0.11437450 0.07084404 0.00086400
v 0.11398401 0.07108797 0.00160647
v 0.11424971 0.07092547 0.00085288
v 0.11417570 0.07097335 0.00082877
v 0.11397490 0.07109388 0.00160512
v 0.11406151 0.07104732 0.00079150
v 0.11362181 0.07131859 0.00143982
v 0.11399010 0.07109320 0.00074476
v 0.11389921 0.07115155 0.00068529
v 0.11362111 0.07132830 0.00021445
v 0.11292210 0.07175312 0.00043998
v 0.11362741 0.07132429 0.00023328
v 0.11293281 0.07174660 0.00050090
v 0.11368241 0.07128952 0.00039693
v 0.11307181 0.07166133 0.00083710
v 0.11370640 0.07127431 0.00043671
v 0.11308731 0.07165187 0.00087439
v 0.11378071 0.07122715 0.00056022
v 0.11331080 0.07151352 0.00117832
v 0.11382950 0.07119603 0.00061170
v 0.11332931 0.07150209 0.00120342
v 0.11359951 0.07133277 0.00142940
v 0.11287001 0.07178489 0.00014279
f 1 2 3
f 4 5 6
f 6 7 4
f 7 8 4
f 4 8 9
f 10 1 11
f 1 3 11
f 11 3 12
f 3 13 12
f 12 13 14
f 13 15 14
f 14 15 16
f 15 7 16
f 16 7 17
f 7 6 17
f 17 6 18
f 19 5 20
f 21 22 23
f 22 19 23
f 23 19 24
f 19 20 24
f 24 20 9
f 25 26 27
f 26 28 27
f 27 28 29
f 28 30 29
f 29 30 23
f 30 31 23
f 23 31 21
f 25 32 26
f 32 33 26
f 26 33 34
f 35 36 37
f 38 35 39
f 35 37 39
f 39 37 40
f 37 41 40
f 40 41 42
f 41 43 42
f 42 43 44
f 43 45 44
f 44 45 46
f 45 47 46
f 46 47 48
f 47 49 48
f 48 49 50
f 49 51 50
f 50 51 52
f 51 53 52
f 52 53 54
f 53 55 54
f 54 55 56
f 55 57 56
f 56 57 58
f 57 59 58
f 58 59 60
f 59 61 60
f 60 61 62
f 63 64 65
f 64 66 65
f 65 66 67
f 66 68 67
f 67 68 69
f 68 70 69
f 69 70 71
f 70 72 71
f 71 72 73
f 72 74 73
f 73 74 75
f 74 76 75
f 75 76 77
f 76 62 77
f 77 62 78
f 62 61 78
f 79 80 81
f 80 82 81
f 81 82 63
f 82 83 63
f 63 83 64
f 79 84 80
f 84 85 80
f 80 85 86
f 85 87 86
f 88 87 85
f 89 85 90
f 85 84 90
f 88 85 91
f 85 89 91
f 91 89 92
f 89 93 92
f 92 93 94
f 93 95 94
f 95 96 94
f 94 96 97
f 96 98 97
f 97 98 99
f 98 100 99
f 99 100 101
f 101 100 102
f 100 103 102
f 102 103 104
f 103 105 104
f 104 105 106
f 105 107 106
f 106 107 108
f 107 109 108
f 108 109 110
f 109 111 110
f 110 111 112
f 111 113 112
f 112 113 114
f 113 115 114
f 115 116 114
f 114 116 117
f 116 118 117
f 117 118 119
f 118 120 119
f 119 120 121
f 122 123 124
f 123 125 124
f 124 125 126
f 125 127 126
f 126 127 128
f 127 129 128
f 128 129 130
f 129 131 130
f 130 131 132
f 131 133 132
f 132 133 121
f 133 134 121
f 121 134 119
f 122 36 123
f 36 35 123
f 123 35 135
f 35 38 135

