# https://github.com/mikedh/trimesh

o FR3_Version2_Link6_2-mesh
v -0.03150137 0.03585465 -0.01219513
v -0.03146992 0.03588218 -0.01215554
v -0.03144543 0.03590358 -0.01222600
v -0.03150137 0.03585465 -0.01320687
v -0.03152502 0.03583391 -0.01315947
v -0.03144543 0.03590358 -0.01317600
v -0.03153969 0.03582104 -0.01310663
v -0.03154467 0.03581666 -0.01305100
v -0.03134596 0.03599023 -0.01330100
v -0.03139023 0.03595173 -0.01329473
v -0.03143225 0.03591510 -0.01327624
v -0.03146992 0.03588218 -0.01324646
v -0.03143225 0.03591510 -0.01212576
v -0.03139023 0.03595173 -0.01210727
v -0.03134596 0.03599023 -0.01210100
v -0.03154467 0.03581666 -0.01235100
v -0.03153969 0.03582104 -0.01229537
v -0.03152502 0.03583391 -0.01224253
v -0.03042441 0.03677051 -0.01210100
v -0.03042441 0.03677051 -0.01330100
v -0.03042441 0.03677051 -0.01095100
v -0.03032355 0.03685351 -0.01082600
v -0.03038040 0.03680678 -0.01079513
v -0.03034844 0.03683306 -0.01075554
v -0.03031015 0.03686450 -0.01072576
v -0.03041936 0.03677468 -0.01089537
v -0.03040444 0.03678698 -0.01084253
v -0.02949446 0.03751862 -0.01079513
v -0.02947012 0.03753770 -0.01084253
v -0.02955204 0.03747340 -0.01082600
v -0.02945501 0.03754953 -0.01089537
v -0.02965398 0.03739299 -0.01070100
v -0.02960861 0.03742883 -0.01070727
v -0.02956550 0.03746281 -0.01072576
v -0.02952679 0.03749325 -0.01075554
v -0.03022246 0.03693624 -0.01070100
v -0.02944988 0.03755353 -0.01210100
v -0.02944988 0.03755353 -0.01095100
v -0.03026745 0.03689948 -0.01070727
v -0.02944988 0.03755353 -0.01330100
v -0.02841402 0.03834128 -0.01212576
v -0.02837473 0.03837030 -0.01215554
v -0.02840036 0.03835139 -0.01222600
v -0.02834191 0.03839449 -0.01219513
v -0.02831720 0.03841267 -0.01224253
v -0.02830186 0.03842395 -0.01229537
v -0.02841402 0.03834128 -0.01327624
v -0.02845780 0.03830889 -0.01329473
v -0.02840036 0.03835139 -0.01317600
v -0.02850386 0.03827472 -0.01330100
v -0.02831720 0.03841267 -0.01315947
v -0.02834191 0.03839449 -0.01320687
v -0.02837473 0.03837030 -0.01324646
v -0.02829665 0.03842777 -0.01235100
v -0.02829665 0.03842777 -0.01305100
v -0.02830186 0.03842395 -0.01310663
v -0.02850386 0.03827472 -0.01210100
v -0.02845780 0.03830889 -0.01210727
v -0.02952679 0.03749325 -0.01464646
v -0.02956550 0.03746281 -0.01467624
v -0.02955204 0.03747340 -0.01457600
v -0.02960861 0.03742883 -0.01469473
v -0.02965398 0.03739299 -0.01470100
v -0.02945501 0.03754953 -0.01450663
v -0.02947012 0.03753770 -0.01455947
v -0.02949446 0.03751862 -0.01460687
v -0.03032355 0.03685351 -0.01457600
v -0.03038040 0.03680678 -0.01460687
v -0.03040444 0.03678698 -0.01455947
v -0.03041936 0.03677468 -0.01450663
v -0.03042441 0.03677051 -0.01445100
v -0.03026745 0.03689948 -0.01469473
v -0.03031015 0.03686450 -0.01467624
v -0.03034844 0.03683306 -0.01464646
v -0.03022246 0.03693624 -0.01470100
v -0.02944988 0.03755353 -0.01445100
v -0.00460967 0.04748045 -0.01460333
v -0.00463199 0.04747828 -0.01462778
v -0.00468580 0.04747302 -0.01457600
v -0.00468585 0.04747301 -0.01466751
v -0.00474854 0.04746679 -0.01469248
v -0.00456465 0.04748479 -0.01451570
v -0.00457558 0.04748374 -0.01454664
v -0.00459065 0.04748229 -0.01457600
v -0.00566967 0.04736581 -0.01457600
v -0.00455579 0.04748564 -0.01445100
v -0.00455802 0.04748543 -0.01448368
v -0.00565267 0.04736783 -0.01467624
v -0.00570155 0.04736198 -0.01464646
v -0.00574236 0.04735706 -0.01460687
v -0.00577306 0.04735334 -0.01455947
v -0.00455579 0.04748564 -0.01095100
v -0.00579857 0.04735023 -0.01445100
v -0.00579211 0.04735102 -0.01450663
v -0.00481578 0.04746003 -0.01470100
v -0.00554073 0.04738103 -0.01470100
v -0.00559815 0.04737429 -0.01469473
v -0.00574522 0.04735671 -0.01079867
v -0.00572310 0.04735939 -0.01077422
v -0.00566967 0.04736581 -0.01082600
v -0.00566972 0.04736580 -0.01073449
v -0.00560751 0.04737319 -0.01070952
v -0.00578979 0.04735130 -0.01088630
v -0.00577897 0.04735262 -0.01085536
v -0.00576405 0.04735443 -0.01082600
v -0.00468580 0.04747302 -0.01082600
v -0.00579857 0.04735023 -0.01095100
v -0.00579636 0.04735050 -0.01091833
v -0.00470304 0.04747131 -0.01072576
v -0.00465374 0.04747616 -0.01075554
v -0.00461256 0.04748017 -0.01079513
v -0.00458156 0.04748317 -0.01084253
v -0.00456231 0.04748501 -0.01089537
v -0.00554073 0.04738103 -0.01070100
v -0.00481578 0.04746003 -0.01070100
v -0.00475797 0.04746585 -0.01070727
f 1 2 3
f 4 5 6
f 5 7 6
f 6 7 8
f 6 9 10
f 10 11 6
f 11 12 6
f 6 12 4
f 2 13 3
f 13 14 3
f 3 14 15
f 16 17 3
f 17 18 3
f 3 18 1
f 19 20 15
f 20 9 15
f 15 9 3
f 9 6 3
f 3 6 16
f 6 8 16
f 19 21 22
f 23 24 22
f 24 25 22
f 21 26 22
f 26 27 22
f 22 27 23
f 28 29 30
f 29 31 30
f 30 32 33
f 33 34 30
f 34 35 30
f 30 35 28
f 36 32 37
f 32 30 37
f 37 30 38
f 30 31 38
f 25 39 22
f 39 36 22
f 22 36 19
f 36 37 19
f 19 37 20
f 37 40 20
f 41 42 43
f 42 44 43
f 44 45 43
f 43 45 46
f 47 48 49
f 48 50 49
f 49 50 43
f 51 52 49
f 52 53 49
f 49 53 47
f 46 54 43
f 54 55 43
f 43 55 49
f 55 56 49
f 49 56 51
f 40 37 50
f 37 57 50
f 50 57 43
f 57 58 43
f 43 58 41
f 59 60 61
f 60 62 61
f 61 62 63
f 64 65 61
f 65 66 61
f 61 66 59
f 67 68 69
f 69 70 67
f 70 71 67
f 67 71 20
f 72 73 67
f 73 74 67
f 67 74 68
f 72 67 75
f 67 20 75
f 75 20 63
f 20 40 63
f 63 40 61
f 40 76 61
f 61 76 64
f 77 78 79
f 78 80 79
f 79 80 81
f 82 83 79
f 83 84 79
f 79 84 77
f 85 86 79
f 86 87 79
f 79 87 82
f 88 89 85
f 89 90 85
f 85 90 91
f 92 86 93
f 86 85 93
f 93 85 94
f 85 91 94
f 81 95 79
f 95 96 79
f 79 96 85
f 96 97 85
f 85 97 88
f 98 99 100
f 99 101 100
f 100 101 102
f 103 104 100
f 104 105 100
f 100 105 98
f 106 107 100
f 107 108 100
f 100 108 103
f 109 110 106
f 110 111 106
f 106 111 112
f 93 107 92
f 107 106 92
f 92 106 113
f 106 112 113
f 102 114 100
f 114 115 100
f 100 115 106
f 115 116 106
f 106 116 109

