# https://github.com/mikedh/trimesh

o FR3_Version2_Link6_5-mesh
v 0.08693272 0.07782869 0.02377683
v 0.08657299 0.07782297 0.02413012
v 0.08699377 0.07766179 0.02457251
v 0.08741220 0.07749229 0.02501400
v 0.08813398 0.07751377 0.02430689
v 0.08771431 0.07767553 0.02386549
v 0.08729204 0.07782894 0.02342301
v 0.08683731 0.07728370 0.02625182
v 0.08716846 0.07712806 0.02660499
v 0.08762384 0.07716945 0.02616372
v 0.08650435 0.07743375 0.02589788
v 0.08880304 0.07723610 0.02501400
v 0.08807899 0.07720189 0.02572111
v 0.08849424 0.07700785 0.02616374
v 0.08890651 0.07680487 0.02660499
v 0.08927012 0.07683274 0.02625175
v 0.08921969 0.07705033 0.02545656
v 0.08963346 0.07685546 0.02589788
v 0.08925341 0.07724723 0.02457241
v 0.08858316 0.07751659 0.02386503
v 0.08695848 0.07746753 0.02545650
v 0.08970318 0.07725096 0.02413012
v 0.08936799 0.07738424 0.02377685
v 0.08903119 0.07751194 0.02342301
f 1 2 3
f 4 5 3
f 5 6 3
f 3 6 1
f 6 7 1
f 8 9 10
f 8 10 11
f 12 13 14
f 14 15 16
f 12 14 17
f 14 16 17
f 17 16 18
f 19 20 12
f 20 5 12
f 12 5 13
f 5 4 13
f 13 4 10
f 4 21 10
f 10 21 11
f 19 22 20
f 22 23 20
f 20 23 24

