# https://github.com/mikedh/trimesh

o FR3_Version2_Link4-mesh
v 0.03828027 0.03869279 0.00997275
v 0.03828884 0.03868406 0.00999770
v 0.03841255 0.03857011 0.00914631
v 0.03834547 0.03863580 0.00924038
v 0.03839594 0.03858657 0.00915281
v 0.03837549 0.03860674 0.00916634
v 0.03835784 0.03862414 0.00917801
v 0.03834318 0.03863854 0.00919233
v 0.03834137 0.03864031 0.00919483
v 0.03831302 0.03866800 0.00923382
v 0.03831286 0.03866816 0.00923414
v 0.03830251 0.03867820 0.00925414
v 0.03829255 0.03868777 0.00928230
v 0.03828372 0.03869625 0.00930725
v 0.03827856 0.03870111 0.00933127
v 0.03827827 0.03870136 0.00933441
v 0.03827328 0.03870574 0.00939000
v 0.03827069 0.03870314 0.00989000
v 0.03827510 0.03869819 0.00994559
v 0.03827535 0.03869791 0.00994873
v 0.03829851 0.03867420 0.01002585
v 0.03830865 0.03866394 0.01004586
v 0.03841309 0.03856958 0.00914610
v 0.03830881 0.03866379 0.01004617
v 0.03865685 0.03832563 0.00914000
v 0.03845200 0.03853090 0.00914000
v 0.03833675 0.03863569 0.01008517
v 0.03833853 0.03863390 0.01008766
v 0.03835305 0.03861936 0.01010199
v 0.03837057 0.03860182 0.01011366
v 0.03839088 0.03858152 0.01012719
v 0.03840743 0.03856499 0.01013370
v 0.03840795 0.03856447 0.01013390
v 0.03844681 0.03852571 0.01014000
v 0.03865166 0.03832044 0.01014000
v 0.03924201 0.03769781 0.01167367
v 0.03864961 0.03831839 0.01050704
v 0.03922463 0.03771572 0.01168591
v 0.03920792 0.03773297 0.01169300
v 0.03926162 0.03767760 0.01165986
v 0.03927557 0.03766327 0.01164544
v 0.03927580 0.03766304 0.01164521
v 0.03930305 0.03763515 0.01160559
v 0.03930479 0.03763336 0.01160306
v 0.03931484 0.03762315 0.01158250
v 0.03932307 0.03761488 0.01155773
v 0.03933261 0.03760529 0.01152900
v 0.03933726 0.03760074 0.01150562
v 0.03934968 0.03760425 0.01014000
v 0.03972805 0.03720480 0.01014000
v 0.03989867 0.03703079 0.00933438
v 0.03976575 0.03716462 0.01013386
v 0.03977230 0.03715765 0.01013119
v 0.03978226 0.03714706 0.01012714
v 0.03981342 0.03711393 0.01010569
v 0.03981894 0.03710807 0.01010190
v 0.03983300 0.03709315 0.01008759
v 0.03984840 0.03707688 0.01006553
v 0.03986197 0.03706254 0.01004609
v 0.03987205 0.03705194 0.01002579
v 0.03987588 0.03704794 0.01001448
v 0.03989006 0.03703316 0.00997270
v 0.03989379 0.03702935 0.00995464
v 0.03989884 0.03703060 0.00933530
v 0.03990269 0.03702588 0.00939000
v 0.03990009 0.03702329 0.00989000
v 0.03989502 0.03702809 0.00994869
v 0.03983502 0.03710013 0.00924053
v 0.03988528 0.03704572 0.00928227
v 0.03987751 0.03705434 0.00925761
v 0.03986783 0.03706495 0.00923702
v 0.03986610 0.03706684 0.00923441
v 0.03983975 0.03709553 0.00919484
v 0.03983948 0.03709581 0.00919456
v 0.03982595 0.03711047 0.00918018
v 0.03980674 0.03713118 0.00916633
v 0.03978979 0.03714945 0.00915411
v 0.03977340 0.03716704 0.00914701
v 0.03977123 0.03716937 0.00914663
v 0.03933740 0.03760060 0.01150487
v 0.03934197 0.03759653 0.01145000
v 0.03989439 0.03703564 0.00931112
v 0.03973324 0.03720999 0.00914000
v 0.03935487 0.03760943 0.00914000
v 0.03935278 0.03761595 0.00869518
v 0.03935263 0.03761611 0.00869438
v 0.03935673 0.03761130 0.00875000
v 0.03934825 0.03762091 0.00867103
v 0.03933901 0.03763082 0.00864227
v 0.03933106 0.03763936 0.00861752
v 0.03932125 0.03764979 0.00859696
v 0.03931952 0.03765162 0.00859441
v 0.03929271 0.03767993 0.00855480
v 0.03929248 0.03768017 0.00855456
v 0.03927870 0.03769466 0.00854015
v 0.03925922 0.03771503 0.00852633
v 0.03924199 0.03773306 0.00851410
v 0.03922535 0.03775040 0.00850700
v 0.03922316 0.03775267 0.00850662
v 0.03918460 0.03779271 0.00850000
v 0.03883559 0.03815081 0.00850000
v 0.03879655 0.03819039 0.00850662
v 0.03879434 0.03819263 0.00850700
v 0.03877745 0.03820969 0.00851409
v 0.03875986 0.03822740 0.00852633
v 0.03874002 0.03824736 0.00854013
v 0.03872588 0.03826152 0.00855456
v 0.03872566 0.03826174 0.00855478
v 0.03869804 0.03828928 0.00859441
v 0.03869628 0.03829104 0.00859693
v 0.03868610 0.03830111 0.00861747
v 0.03867776 0.03830929 0.00864227
v 0.03866811 0.03831876 0.00867098
v 0.03866341 0.03832328 0.00869438
v 0.03866327 0.03832342 0.00869510
v 0.03865871 0.03832749 0.00875000
v 0.03727922 0.03965920 0.00975986
v 0.03718263 0.03973870 0.01077761
v 0.03728032 0.03965816 0.00975999
v 0.03732196 0.03961888 0.00977501
v 0.03886247 0.03808816 0.01169766
v 0.03888637 0.03806376 0.01170000
v 0.03846739 0.03850224 0.01040508
v 0.03882229 0.03812926 0.01168260
v 0.03885396 0.03809687 0.01169447
v 0.03916709 0.03777521 0.01170000
v 0.03920573 0.03773524 0.01169338
v 0.03726212 0.03967527 0.00975779
v 0.03723504 0.03970061 0.00976080
v 0.03721903 0.03971560 0.00976257
v 0.03719213 0.03974064 0.00977430
v 0.03716161 0.03976895 0.00979280
v 0.03714454 0.03977458 0.01074904
v 0.03715231 0.03977755 0.00980121
v 0.03714627 0.03978312 0.00980668
v 0.03711899 0.03980818 0.00984156
v 0.03711454 0.03981228 0.00984726
v 0.03710337 0.03982247 0.00986729
v 0.03709405 0.03983089 0.00989153
v 0.03708318 0.03984070 0.00991981
v 0.03708557 0.03983849 0.00991949
v 0.03707746 0.03984577 0.00994372
v 0.03706804 0.03984809 0.01054500
v 0.03707283 0.03984299 0.01060370
v 0.03707293 0.03984288 0.01060421
v 0.03707709 0.03984608 0.00994746
v 0.03707103 0.03985108 0.01000761
v 0.03707788 0.03983802 0.01062771
v 0.03708905 0.03982728 0.01065931
v 0.03709663 0.03981998 0.01068079
v 0.03710723 0.03980990 0.01070109
v 0.03711277 0.03980465 0.01070861
v 0.03713782 0.03978092 0.01074260
v 0.03720127 0.03973215 0.00976876
v 0.03715274 0.03976685 0.01075690
f 1 2 3
f 4 3 5
f 5 6 4
f 6 7 4
f 4 7 8
f 8 9 4
f 9 10 4
f 4 10 11
f 11 12 4
f 12 13 4
f 4 13 14
f 14 15 4
f 15 16 4
f 4 16 17
f 17 18 4
f 18 19 4
f 4 19 3
f 19 20 3
f 3 20 1
f 2 21 3
f 21 22 3
f 3 22 23
f 24 25 22
f 25 26 22
f 22 26 23
f 24 27 25
f 27 28 25
f 25 28 29
f 29 30 25
f 30 31 25
f 25 31 32
f 32 33 25
f 33 34 25
f 25 34 35
f 36 37 38
f 37 39 38
f 36 40 37
f 40 41 37
f 37 41 42
f 42 43 37
f 43 44 37
f 37 44 45
f 45 46 37
f 46 47 37
f 37 47 48
f 49 50 51
f 50 52 51
f 52 53 51
f 51 53 54
f 54 55 51
f 55 56 51
f 51 56 57
f 57 58 51
f 58 59 51
f 51 59 60
f 60 61 51
f 61 62 51
f 51 62 63
f 64 51 65
f 51 63 65
f 65 63 66
f 63 67 66
f 68 69 70
f 70 71 68
f 71 72 68
f 68 72 73
f 73 74 68
f 74 75 68
f 68 75 76
f 76 77 68
f 77 78 68
f 68 78 79
f 48 80 37
f 80 81 37
f 37 81 35
f 81 49 35
f 35 49 25
f 49 51 25
f 25 51 68
f 51 82 68
f 68 82 69
f 79 83 68
f 83 84 68
f 68 84 25
f 85 86 87
f 86 84 87
f 86 88 84
f 88 89 84
f 84 89 90
f 90 91 84
f 91 92 84
f 84 92 93
f 93 94 84
f 94 95 84
f 84 95 96
f 96 97 84
f 97 98 84
f 84 98 99
f 99 100 84
f 100 101 84
f 84 101 102
f 102 103 84
f 103 104 84
f 84 104 105
f 105 106 84
f 106 107 84
f 84 107 108
f 108 109 84
f 109 110 84
f 84 110 111
f 111 112 84
f 112 113 84
f 84 113 114
f 114 115 84
f 115 116 84
f 84 116 25
f 117 118 119
f 118 120 119
f 121 122 37
f 120 118 123
f 118 124 123
f 123 124 37
f 124 125 37
f 37 125 121
f 122 126 37
f 126 127 37
f 37 127 39
f 117 128 118
f 128 129 118
f 118 129 130
f 131 132 133
f 132 134 133
f 133 134 135
f 135 136 133
f 136 137 133
f 133 137 138
f 139 140 141
f 140 142 141
f 143 144 145
f 142 146 141
f 146 147 141
f 141 147 143
f 143 145 141
f 145 148 141
f 141 148 149
f 149 150 141
f 150 151 141
f 141 151 152
f 138 139 133
f 139 141 133
f 133 141 153
f 141 152 153
f 130 154 118
f 154 131 118
f 118 131 155
f 131 133 155

