# https://github.com/mikedh/trimesh

o FR3_Version2_Link1_0-mesh
v 0.05450000 -0.00634519 0.00138119
v 0.05450000 -0.00617196 0.00138753
v 0.05450000 -0.00628850 0.00139704
v 0.05450000 -0.00622967 0.00139919
v 0.05450000 -0.00639661 0.00135252
v 0.05450000 -0.00643990 0.00131262
v 0.05450000 -0.00647266 0.00126370
v 0.05450000 -0.00650000 -0.00114998
v 0.05450000 -0.00267196 0.00023753
v 0.05450000 -0.00650000 0.00115002
v 0.05450000 -0.00649307 0.00120848
v 0.05450000 -0.00250781 -0.00006199
v 0.05450000 -0.00250000 0.00000002
v 0.05450000 -0.00261549 0.00021075
v 0.05450000 -0.00649307 -0.00120844
v 0.05450000 -0.00622967 -0.00139915
v 0.05450000 -0.00647266 -0.00126366
v 0.05450000 -0.00643990 -0.00131258
v 0.05450000 -0.00639661 -0.00135247
v 0.05450000 -0.00628850 -0.00139700
v 0.05450000 -0.00634519 -0.00138114
v 0.05450000 -0.00253077 -0.00012013
v 0.05450000 -0.00617196 -0.00138749
v 0.05450000 -0.00267196 -0.00023749
v 0.05450000 -0.00261549 -0.00021071
v 0.05450000 -0.00256742 -0.00017075
v 0.05450000 -0.00250781 0.00006204
v 0.05450000 -0.00253077 0.00012017
v 0.05450000 -0.00256742 0.00017080
v 0.05450000 -0.00115000 -0.18600001
v 0.05450000 0.00138751 -0.18632801
v 0.05450000 0.00115000 -0.18600001
v 0.05450000 0.00139917 -0.18627030
v 0.05450000 -0.00120846 -0.18600691
v 0.05450000 -0.00126368 -0.18602731
v 0.05450000 -0.00131260 -0.18606011
v 0.05450000 -0.00135250 -0.18610340
v 0.05450000 -0.00138117 -0.18615481
v 0.05450000 -0.00139702 -0.18621151
v 0.05450000 -0.00017078 -0.18993261
v 0.05450000 -0.00012015 -0.18996920
v 0.05450000 -0.00006201 -0.18999221
v 0.05450000 0.00000000 -0.19000001
v 0.05450000 0.00006201 -0.18999221
v 0.05450000 -0.00023751 -0.18982801
v 0.05450000 0.00012015 -0.18996920
v 0.05450000 0.00017078 -0.18993261
v 0.05450000 -0.00139917 -0.18627030
v 0.05450000 -0.00138751 -0.18632801
v 0.05450000 0.00023751 -0.18982801
v 0.05450000 0.00021073 -0.18988452
v 0.05450000 0.00139702 -0.18621151
v 0.05450000 0.00126368 -0.18602731
v 0.05450000 0.00120846 -0.18600691
v 0.05450000 0.00138117 -0.18615481
v 0.05450000 0.00135250 -0.18610340
v 0.05450000 0.00131260 -0.18606011
v 0.05450000 -0.00021073 -0.18988452
f 1 2 3
f 2 4 3
f 1 5 2
f 5 6 2
f 2 6 7
f 8 9 10
f 9 2 10
f 10 2 11
f 2 7 11
f 12 13 14
f 8 15 16
f 15 17 16
f 17 18 16
f 18 19 16
f 16 19 20
f 19 21 20
f 12 14 22
f 16 23 8
f 23 24 8
f 8 24 9
f 24 25 9
f 9 25 14
f 25 26 14
f 14 26 22
f 27 28 13
f 28 29 13
f 13 29 14
f 30 31 32
f 31 33 32
f 30 34 31
f 34 35 31
f 31 35 36
f 36 37 31
f 37 38 31
f 31 38 39
f 40 41 42
f 43 44 45
f 44 46 45
f 45 46 47
f 39 48 31
f 48 49 31
f 31 49 50
f 49 45 50
f 50 45 51
f 45 47 51
f 52 53 33
f 53 54 33
f 33 54 32
f 52 55 53
f 55 56 53
f 53 56 57
f 43 45 42
f 45 58 42
f 42 58 40

