# https://github.com/mikedh/trimesh

o FR3_Version2_Link7_0_001-mesh
v -0.01550851 -0.04106940 0.05954510
v -0.01642955 -0.04070970 0.06045250
v -0.01551664 -0.04106634 0.05952750
v -0.01552688 -0.04106246 0.05951112
v -0.01550261 -0.04107164 0.05956368
v -0.01549903 -0.04107299 0.05958293
v -0.01549783 -0.04107344 0.05960250
v -0.01555068 -0.04105346 0.06066978
v -0.01557729 -0.04104337 0.06068764
v -0.01556801 -0.04104689 0.06062750
v -0.01560694 -0.04103210 0.06069874
v -0.01563814 -0.04102022 0.06070250
v -0.01550135 -0.04107211 0.06058588
v -0.01551173 -0.04106819 0.06061758
v -0.01552846 -0.04106187 0.06064602
v -0.01635998 -0.04073771 0.06062750
v -0.01639920 -0.04072194 0.06064602
v -0.01641578 -0.04071526 0.06061758
v -0.01642607 -0.04071111 0.06058588
v -0.01642955 -0.04070970 0.06055250
v -0.01632134 -0.04075320 0.06069874
v -0.01635077 -0.04074140 0.06068764
v -0.01637717 -0.04073080 0.06066978
v -0.01629035 -0.04076560 0.06070250
v -0.01556801 -0.04104689 0.06062750
v -0.01549783 -0.04107344 0.06055250
v -0.01803319 -0.04002517 0.05948522
v -0.01800724 -0.04003685 0.05946736
v -0.01682888 -0.04054626 0.06045250
v -0.01805485 -0.04001540 0.05950897
v -0.01797831 -0.04004985 0.05945626
v -0.01794784 -0.04006351 0.05945250
v -0.01563814 -0.04102022 0.05945250
v -0.01560184 -0.04103404 0.05945761
v -0.01556801 -0.04104689 0.05947260
v -0.01553894 -0.04105790 0.05949643
v -0.01587181 -0.04093037 0.06335001
v -0.01593687 -0.04090509 0.06345249
v -0.01683431 -0.04054400 0.06345249
v -0.01584362 -0.04094129 0.06341430
v -0.01587149 -0.04093050 0.06343509
v -0.01590319 -0.04091819 0.06344808
v -0.01579784 -0.04095898 0.06331915
v -0.01580568 -0.04095595 0.06335457
v -0.01582125 -0.04094995 0.06338692
v -0.01696312 -0.04049028 0.06335747
v -0.01689874 -0.04051719 0.06340498
v -0.01694745 -0.04049684 0.06338896
v -0.01692534 -0.04050609 0.06341553
v -0.01686711 -0.04053036 0.06344823
v -0.01689804 -0.04051748 0.06343567
v -0.01807518 -0.04000623 0.06027899
v -0.01580671 -0.04095556 0.06324752
v -0.01579819 -0.04095885 0.06328276
v -0.01808229 -0.04000301 0.06025200
v -0.01808469 -0.04000193 0.06022402
v -0.01808469 -0.04000193 0.05960250
v -0.01808126 -0.04000347 0.05956912
v -0.01807114 -0.04000804 0.05953742
f 1 2 3
f 2 4 3
f 1 5 2
f 5 6 2
f 2 6 7
f 8 9 10
f 9 11 10
f 10 11 12
f 13 14 10
f 14 15 10
f 10 15 8
f 16 17 18
f 18 19 16
f 19 20 16
f 16 20 2
f 21 22 16
f 22 23 16
f 16 23 17
f 21 16 24
f 16 2 24
f 24 2 12
f 2 7 12
f 12 7 25
f 7 26 25
f 25 26 13
f 27 28 29
f 27 29 30
f 28 31 29
f 31 32 29
f 29 32 2
f 32 33 2
f 2 33 34
f 34 35 2
f 35 36 2
f 2 36 4
f 37 38 39
f 40 41 37
f 41 42 37
f 37 42 38
f 43 44 37
f 44 45 37
f 37 45 40
f 46 47 48
f 47 49 48
f 39 50 47
f 50 51 47
f 47 51 49
f 46 52 47
f 52 29 47
f 47 29 39
f 29 53 39
f 39 53 37
f 53 54 37
f 37 54 43
f 52 55 29
f 55 56 29
f 29 56 57
f 57 58 29
f 58 59 29
f 29 59 30

