# https://github.com/mikedh/trimesh

o mesh-a14ba348-8635-437b-b890-9a29c6ec2daf
v 0.14754999 0.12050000 1.11000000
v 0.14539960 0.13131082 1.11000000
v 0.14278902 0.13619485 1.11000000
v 0.14700719 0.12601129 1.11000000
v 0.13927576 0.14047577 1.11000000
v 0.12481129 0.14820718 1.11000000
v 0.11929999 0.14875000 1.11000000
v 0.13499486 0.14398901 1.11000000
v 0.13011081 0.14659961 1.11000000
v 0.11929999 -0.14875000 1.11000000
v 0.14754999 -0.12050000 1.11000000
v 0.14539960 -0.13131079 1.11000000
v 0.14700719 -0.12601129 1.11000000
v 0.14278902 -0.13619489 1.11000000
v 0.13927576 -0.14047577 1.11000000
v 0.13499486 -0.14398901 1.11000000
v 0.13011081 -0.14659961 1.11000000
v 0.12481129 -0.14820721 1.11000000
v 0.02379998 0.14875000 1.11000000
v 0.02379998 -0.14875000 1.11000000
v 0.01828869 0.14820718 1.11000000
v -0.00445000 0.12050000 1.11000000
v 0.01298921 0.14659961 1.11000000
v 0.00810515 0.14398901 1.11000000
v 0.00382423 0.14047577 1.11000000
v 0.00031099 0.13619485 1.11000000
v -0.00229958 0.13131082 1.11000000
v -0.00390718 0.12601129 1.11000000
v 0.01298921 -0.14659961 1.11000000
v -0.00445000 -0.12050000 1.11000000
v 0.00810515 -0.14398901 1.11000000
v 0.01828869 -0.14820721 1.11000000
v -0.00229958 -0.13131079 1.11000000
v -0.00390718 -0.12601129 1.11000000
v 0.00382423 -0.14047577 1.11000000
v 0.00031099 -0.13619489 1.11000000
v -0.00495000 0.12050000 1.10950000
v -0.00495000 -0.12050000 1.10950000
v -0.00445000 -0.12050000 1.11000000
v 0.01279786 -0.14706152 1.10950000
v 0.01819116 -0.14869757 1.10950000
v 0.01289354 -0.14683057 1.10975000
v 0.00782737 -0.14440472 1.10950000
v 0.00796626 -0.14419690 1.10975000
v 0.00347068 -0.14082935 1.10950000
v 0.00364747 -0.14065253 1.10975000
v -0.00010475 -0.13647266 1.10950000
v -0.00276152 -0.13150214 1.10950000
v -0.00253057 -0.13140649 1.10975000
v -0.00439757 -0.12610883 1.10950000
v -0.00415236 -0.12606006 1.10975000
v 0.01823993 -0.14845239 1.10975000
v 0.02379998 -0.14875000 1.11000000
v 0.01828869 -0.14820721 1.11000000
v 0.00810515 -0.14398901 1.11000000
v 0.01298921 -0.14659961 1.11000000
v 0.02379998 -0.14925000 1.10950000
v 0.00031099 -0.13619489 1.11000000
v 0.00010313 -0.13633374 1.10975000
v -0.00229958 -0.13131079 1.11000000
v -0.00390718 -0.12601129 1.11000000
v -0.00445000 -0.12050000 1.11000000
v -0.00495000 -0.12050000 1.10950000
v -0.00276152 0.13150214 1.10950000
v -0.00439757 0.12610886 1.10950000
v -0.00415236 0.12606009 1.10975000
v -0.00010475 0.13647266 1.10950000
v 0.00010313 0.13633374 1.10975000
v 0.00347068 0.14082932 1.10950000
v 0.00782737 0.14440475 1.10950000
v 0.00364747 0.14065256 1.10975000
v 0.01279786 0.14706152 1.10950000
v 0.01289354 0.14683057 1.10975000
v 0.01819116 0.14869757 1.10950000
v -0.00445000 0.12050000 1.11000000
v -0.00390718 0.12601129 1.11000000
v 0.00031099 0.13619485 1.11000000
v -0.00229958 0.13131082 1.11000000
v 0.00382423 0.14047577 1.11000000
v -0.00253057 0.13140646 1.10975000
v -0.00495000 0.12050000 1.10950000
v 0.00810515 0.14398901 1.11000000
v 0.00796626 0.14419687 1.10975000
v 0.01298921 0.14659961 1.11000000
v 0.01828869 0.14820718 1.11000000
v 0.01823993 0.14845239 1.10975000
v 0.02379998 0.14875000 1.11000000
v 0.02379998 0.14925000 1.10950000
v 0.02379998 -0.14925000 1.10950000
v 0.11929999 -0.14925000 1.10950000
v 0.11929999 -0.14875000 1.11000000
v 0.11929999 0.14925000 1.10950000
v 0.02379998 0.14925000 1.10950000
v 0.02379998 0.14875000 1.11000000
v 0.14586153 -0.13150214 1.10950000
v 0.14749757 -0.12610883 1.10950000
v 0.14725238 -0.12606006 1.10975000
v 0.14320474 -0.13647266 1.10950000
v 0.14563055 -0.13140649 1.10975000
v 0.13962932 -0.14082935 1.10950000
v 0.13945255 -0.14065253 1.10975000
v 0.13527264 -0.14440472 1.10950000
v 0.13030214 -0.14706152 1.10950000
v 0.13513374 -0.14419690 1.10975000
v 0.12490884 -0.14869757 1.10950000
v 0.13020647 -0.14683057 1.10975000
v 0.14754999 -0.12050000 1.11000000
v 0.14700719 -0.12601129 1.11000000
v 0.14278902 -0.13619489 1.11000000
v 0.14299687 -0.13633374 1.10975000
v 0.14539960 -0.13131079 1.11000000
v 0.14804999 -0.12050000 1.10950000
v 0.13499486 -0.14398901 1.11000000
v 0.13927576 -0.14047577 1.11000000
v 0.13011081 -0.14659961 1.11000000
v 0.12481129 -0.14820721 1.11000000
v 0.12486008 -0.14845239 1.10975000
v 0.11929999 -0.14875000 1.11000000
v 0.11929999 -0.14925000 1.10950000
v 0.13030214 0.14706152 1.10950000
v 0.12490884 0.14869757 1.10950000
v 0.13020647 0.14683057 1.10975000
v 0.13527264 0.14440475 1.10950000
v 0.13513374 0.14419687 1.10975000
v 0.13962932 0.14082932 1.10950000
v 0.13945255 0.14065256 1.10975000
v 0.14320474 0.13647266 1.10950000
v 0.14586153 0.13150214 1.10950000
v 0.14299687 0.13633374 1.10975000
v 0.14749757 0.12610886 1.10950000
v 0.14725238 0.12606009 1.10975000
v 0.12486008 0.14845239 1.10975000
v 0.11929999 0.14875000 1.11000000
v 0.12481129 0.14820718 1.11000000
v 0.13499486 0.14398901 1.11000000
v 0.13011081 0.14659961 1.11000000
v 0.13927576 0.14047577 1.11000000
v 0.11929999 0.14925000 1.10950000
v 0.14278902 0.13619485 1.11000000
v 0.14539960 0.13131082 1.11000000
v 0.14563055 0.13140646 1.10975000
v 0.14700719 0.12601129 1.11000000
v 0.14754999 0.12050000 1.11000000
v 0.14804999 0.12050000 1.10950000
v 0.14804999 -0.12050000 1.10950000
v 0.14804999 0.12050000 1.10950000
v 0.14754999 0.12050000 1.11000000
v -0.00445000 0.12050000 1.11000000
v 0.00382423 -0.14047577 1.11000000
v 0.02379998 -0.14875000 1.11000000
v 0.11929999 0.14875000 1.11000000
v 0.14754999 -0.12050000 1.11000000
f 1 2 3
f 2 1 4
f 1 3 5
f 6 7 1
f 1 8 9
f 1 9 6
f 5 8 1
f 7 10 11
f 12 13 11
f 11 14 12
f 14 11 15
f 16 15 11
f 11 17 16
f 17 11 18
f 18 11 10
f 7 19 20
f 21 22 19
f 22 21 23
f 23 24 22
f 22 25 26
f 22 27 28
f 26 27 22
f 24 25 22
f 20 19 22
f 29 30 31
f 32 30 29
f 20 30 32
f 33 30 34
f 35 30 36
f 33 36 30
f 31 30 35
f 30 20 22
f 37 38 39
f 40 41 42
f 43 40 44
f 45 43 46
f 47 45 46
f 48 47 49
f 50 48 51
f 52 53 54
f 55 44 56
f 44 55 46
f 56 42 52
f 41 57 52
f 53 52 57
f 58 59 46
f 60 49 59
f 61 51 60
f 62 51 61
f 50 51 63
f 62 63 51
f 64 65 66
f 67 64 68
f 69 67 68
f 70 69 71
f 72 70 73
f 74 72 73
f 66 75 76
f 77 68 78
f 68 77 79
f 78 80 76
f 65 81 66
f 75 66 81
f 82 83 71
f 84 73 82
f 85 86 73
f 87 86 85
f 74 86 88
f 87 88 86
f 89 90 91
f 92 93 94
f 95 96 97
f 98 95 99
f 100 98 101
f 102 100 101
f 103 102 104
f 105 103 106
f 97 107 108
f 109 110 99
f 110 109 101
f 111 99 97
f 96 112 97
f 107 97 112
f 113 104 114
f 115 106 104
f 116 117 115
f 118 117 116
f 105 117 119
f 118 119 117
f 120 121 122
f 123 120 124
f 125 123 126
f 127 125 126
f 128 127 129
f 130 128 131
f 132 133 134
f 135 124 136
f 124 135 137
f 136 122 134
f 121 138 132
f 133 132 138
f 139 129 137
f 140 141 129
f 142 131 140
f 143 131 142
f 130 131 144
f 143 144 131
f 145 146 147
f 7 11 1
f 7 20 10
f 37 39 148
f 41 52 42
f 40 42 44
f 43 44 46
f 47 46 59
f 47 59 49
f 48 49 51
f 44 42 56
f 55 149 46
f 56 52 54
f 58 46 149
f 60 59 58
f 51 49 60
f 64 66 80
f 64 80 68
f 69 68 71
f 70 71 83
f 70 83 73
f 74 73 86
f 68 80 78
f 68 79 71
f 80 66 76
f 82 71 79
f 73 83 82
f 85 73 84
f 89 91 150
f 92 94 151
f 95 97 99
f 98 99 110
f 98 110 101
f 102 101 104
f 103 104 106
f 105 106 117
f 109 99 111
f 109 114 101
f 111 97 108
f 104 101 114
f 115 104 113
f 117 106 115
f 121 132 122
f 120 122 124
f 123 124 126
f 127 126 129
f 128 129 141
f 128 141 131
f 124 122 136
f 124 137 126
f 122 132 134
f 129 126 137
f 140 129 139
f 131 141 140
f 145 147 152

