# https://github.com/mikedh/trimesh

o mesh-e62c8e83-2208-4234-ad70-330de91d4183
v 0.07204999 -0.15000000 0.27550000
v 0.07204999 -0.15050000 0.27550000
v 0.07204999 -0.15050000 0.28300000
v 0.07204999 -0.14950000 0.27550000
v 0.07204999 -0.14975000 0.27550000
v 0.07204999 -0.14975000 0.28300000
v 0.07204999 -0.15000000 0.28300000
v 0.11929999 -0.15050000 1.11000000
v 0.02379998 -0.15050000 1.11000000
v 0.02379998 -0.15050000 0.97566663
v 0.11929999 -0.15050000 0.74000000
v 0.11929999 -0.15050000 0.92500000
v 0.06589923 -0.15050000 0.29784924
v 0.11929999 -0.15050000 0.55500000
v 0.07476193 -0.15050000 0.27419135
v 0.11929999 -0.15050000 0.37000000
v 0.07479999 -0.15050000 0.27400000
v 0.07465355 -0.15050000 0.27435358
v 0.07204999 -0.15050000 0.28300000
v 0.07429999 -0.15050000 0.27450000
v 0.07234290 -0.15050000 0.27479291
v 0.07304999 -0.15050000 0.27450000
v 0.07476193 -0.15050000 0.27380865
v 0.07329999 -0.15050000 0.15375000
v 0.07045146 -0.15050000 0.29103638
v 0.11929999 -0.15050000 0.18500000
v 0.02379998 -0.15050000 0.84133337
v 0.02379998 -0.15050000 0.70700000
v 0.05104998 -0.15050000 0.30400000
v 0.02379998 -0.15050000 0.57266669
v 0.02379998 -0.15050000 0.30400000
v 0.07204999 -0.15050000 0.27550000
v 0.07212611 -0.15050000 0.27511731
v 0.07476193 -0.15050000 0.03369135
v 0.07479999 -0.15050000 0.03350000
v 0.07465355 -0.15050000 0.27364642
v 0.07449133 -0.15050000 0.27353809
v 0.07429999 -0.15050000 0.27350000
v 0.07465355 -0.15050000 0.03385355
v 0.07429999 -0.15050000 0.03400000
v 0.11929999 -0.15050000 0.00000000
v 0.07304999 -0.15050000 0.00000000
v 0.07476193 -0.15050000 0.03330865
v 0.07465355 -0.15050000 0.03314645
v 0.07449133 -0.15050000 0.03303806
v 0.07329999 -0.15050000 0.03400000
v 0.07329999 -0.15050000 0.27350000
v 0.07304999 -0.15050000 0.03300000
v 0.07266731 -0.15050000 0.03292389
v 0.07429999 -0.15050000 0.03300000
v 0.07234290 -0.15050000 0.00029291
v 0.07266731 -0.15050000 0.00007611
v 0.07234290 -0.15050000 0.03270709
v 0.07204999 -0.15050000 0.03200000
v 0.07204999 -0.15050000 0.00100000
v 0.07212611 -0.15050000 0.00061731
v -0.00620000 -0.00054289 0.30429291
v -0.00620000 -0.00025000 0.30500000
v -0.00620000 -0.00032613 0.30461731
v -0.00620000 -0.00086731 0.30407611
v -0.00620000 -0.00125000 0.32250000
v -0.00620000 -0.00125000 0.30400000
v -0.00620000 -0.00025000 0.32150000
v -0.00620000 -0.00054289 0.32220709
v -0.00620000 -0.00032613 0.32188269
v -0.00620000 -0.00086731 0.32242389
v -0.00620000 -0.00250000 0.32250000
v -0.00620000 -0.00289091 0.32268823
v -0.00620000 -0.00298746 0.32288873
v -0.00620000 -0.00271693 0.32254950
v -0.00620000 -0.00298746 0.32311127
v -0.00620000 -0.12050000 0.30400000
v -0.00620000 -0.12050000 0.43833331
v -0.00620000 -0.00150000 0.70175000
v -0.00620000 -0.00250000 0.32350000
v -0.00620000 -0.00271693 0.32345050
v -0.00620000 -0.00289091 0.32331177
v -0.00620000 -0.12050000 0.57266669
v -0.00620000 -0.12050000 0.70700000
v -0.00620000 -0.00150000 0.32350000
v -0.00620000 -0.00025000 1.08200000
v -0.00620000 -0.00054289 1.08129285
v -0.00620000 -0.00086731 1.08107617
v -0.00620000 -0.00125000 1.08100000
v -0.00620000 -0.00125000 1.11000000
v -0.00620000 -0.00032613 1.08161731
v -0.00620000 -0.00150000 1.08000000
v -0.00620000 -0.00250000 1.08000000
v -0.00620000 -0.00086731 1.10992383
v -0.00620000 -0.00025000 1.10900000
v -0.00620000 -0.00032613 1.10938269
v -0.00620000 -0.00054289 1.10970715
v -0.00620000 -0.00250000 1.08100000
v -0.00620000 -0.00289091 1.08018823
v -0.00620000 -0.00298746 1.08038879
v -0.00620000 -0.00271693 1.08004956
v -0.00620000 -0.12050000 0.84133337
v -0.00620000 -0.12050000 0.97566663
v -0.00620000 -0.00271693 1.08095044
v -0.00620000 -0.00289091 1.08081177
v -0.00620000 -0.12050000 1.11000000
v -0.00620000 -0.00298746 1.08061121
v 0.14929999 -0.00054289 0.00029291
v 0.14929999 -0.00032613 0.00061731
v 0.14929999 -0.00025000 0.00100000
v 0.14929999 -0.00086731 0.00007611
v 0.14929999 -0.00025000 0.08800000
v 0.14929999 -0.00125000 0.08900000
v 0.14929999 -0.00054289 0.08870709
v 0.14929999 -0.00032613 0.08838269
v 0.14929999 -0.00086731 0.08892389
v 0.14929999 -0.00125000 0.00000000
v 0.14929999 -0.04350000 0.08900000
v 0.14929999 -0.05115366 0.09052240
v 0.14929999 -0.05764214 0.09485785
v 0.14929999 -0.12050000 0.00000000
v 0.14929999 -0.06197759 0.10134634
v 0.14929999 -0.06350000 0.10900000
v 0.14929999 -0.06450000 0.11050000
v 0.14929999 -0.00054289 1.06429285
v 0.14929999 -0.00032613 1.06461731
v 0.14929999 -0.00025000 1.06500000
v 0.14929999 -0.00086731 1.06407617
v 0.14929999 -0.00086731 1.10992383
v 0.14929999 -0.00054289 1.10970715
v 0.14929999 -0.00025000 1.10900000
v 0.14929999 -0.00032613 1.10938269
v 0.14929999 -0.00125000 1.11000000
v 0.14929999 -0.06379289 1.04279285
v 0.14929999 -0.06357612 1.04311731
v 0.14929999 -0.06350000 1.04400000
v 0.14929999 -0.06350000 1.04350000
v 0.14929999 -0.06450000 1.04250000
v 0.14929999 -0.06197759 1.05165369
v 0.14929999 -0.00125000 1.06400000
v 0.14929999 -0.04350000 1.06400000
v 0.14929999 -0.12050000 1.11000000
v 0.14929999 -0.05115366 1.06247754
v 0.14929999 -0.05764214 1.05814209
v 0.14929999 -0.06357612 0.10988269
v 0.14929999 -0.06350000 0.10950000
v 0.14929999 -0.06379289 0.11020709
v 0.14929999 -0.06411732 0.11042389
v 0.14929999 -0.06594135 0.11053806
v 0.14929999 -0.06575000 0.11050000
v 0.14929999 -0.06575000 0.11150000
v 0.14929999 -0.06475000 0.11150000
v 0.14929999 -0.06475000 0.57650000
v 0.14929999 -0.06621194 0.11080865
v 0.14929999 -0.06610355 0.11064645
v 0.14929999 -0.12050000 0.18500000
v 0.14929999 -0.06625000 0.11100000
v 0.14929999 -0.06610355 0.11135355
v 0.14929999 -0.06594135 0.11146194
v 0.14929999 -0.06621194 0.11119135
v 0.14929999 -0.12050000 0.37000000
v 0.14929999 -0.06575000 1.04150000
v 0.14929999 -0.06475000 1.04150000
v 0.14929999 -0.06596694 1.04154956
v 0.14929999 -0.06411732 1.04257617
v 0.14929999 -0.06575000 1.04250000
v 0.14929999 -0.06596694 1.04245044
v 0.14929999 -0.06614091 1.04231177
v 0.14929999 -0.06614091 1.04168823
v 0.14929999 -0.12050000 0.74000000
v 0.14929999 -0.12050000 0.55500000
v 0.14929999 -0.06623746 1.04188879
v 0.14929999 -0.12050000 0.92500000
v 0.14929999 -0.06623746 1.04211121
v 0.02379998 -0.14950000 0.30400000
v 0.05104998 -0.15000000 0.30400000
v 0.02379998 -0.15050000 0.30400000
v 0.05104998 -0.15050000 0.30400000
v 0.05104998 -0.15025000 0.30400000
v 0.05104998 -0.14950000 0.30400000
v 0.06589923 -0.15000000 0.29784924
v 0.06589923 -0.15025000 0.29784924
v 0.05908635 -0.15025000 0.30240149
v 0.06589923 -0.14975000 0.29784924
v 0.05908635 -0.15000000 0.30240149
v 0.06589923 -0.14950000 0.29784924
v 0.05908635 -0.14975000 0.30240149
v 0.07045146 -0.15000000 0.29103638
v 0.07045146 -0.15025000 0.29103638
v 0.07045146 -0.14975000 0.29103638
v 0.07045146 -0.14950000 0.29103638
v 0.05104998 -0.15050000 0.30400000
v 0.05104998 -0.15025000 0.30400000
v 0.06589923 -0.15050000 0.29784924
v 0.05104998 -0.15000000 0.30400000
v 0.05104998 -0.14950000 0.30400000
v 0.05908635 -0.14950000 0.30240149
v 0.07045146 -0.15050000 0.29103638
v 0.07204999 -0.15000000 0.28300000
v 0.07204999 -0.15050000 0.28300000
v 0.07204999 -0.14950000 0.28300000
v 0.07204999 -0.14975000 0.28300000
v 0.14701639 -0.13198050 0.74000000
v 0.14872356 -0.12635271 0.74000000
v 0.14872356 -0.12635271 0.92500000
v 0.14701639 -0.13198050 0.92500000
v 0.14872356 -0.12635271 1.11000000
v 0.14701639 -0.13198050 0.37000000
v 0.14872356 -0.12635271 0.37000000
v 0.14872356 -0.12635271 0.55500000
v 0.14701639 -0.13198050 0.55500000
v 0.14701639 -0.13198050 0.00000000
v 0.14872356 -0.12635271 0.00000000
v 0.14872356 -0.12635271 0.18500000
v 0.14701639 -0.13198050 0.18500000
v 0.14701639 -0.13198050 1.11000000
v 0.14424408 -0.13716711 1.11000000
v 0.14424408 -0.13716711 0.74000000
v 0.14424408 -0.13716711 0.37000000
v 0.14424408 -0.13716711 0.00000000
v 0.14051320 -0.14171321 0.74000000
v 0.14051320 -0.14171321 0.37000000
v 0.14051320 -0.14171321 0.00000000
v 0.13596710 -0.14544409 0.74000000
v 0.14051320 -0.14171321 1.11000000
v 0.13596710 -0.14544409 0.37000000
v 0.13596710 -0.14544409 0.00000000
v 0.13078050 -0.14821638 0.92500000
v 0.13078050 -0.14821638 0.74000000
v 0.13596710 -0.14544409 1.11000000
v 0.13078050 -0.14821638 1.11000000
v 0.13078050 -0.14821638 0.55500000
v 0.13078050 -0.14821638 0.37000000
v 0.13078050 -0.14821638 0.18500000
v 0.13078050 -0.14821638 0.00000000
v 0.12515271 -0.14992355 0.74000000
v 0.12515271 -0.14992355 0.92500000
v 0.12515271 -0.14992355 0.37000000
v 0.12515271 -0.14992355 0.55500000
v 0.12515271 -0.14992355 0.00000000
v 0.12515271 -0.14992355 0.18500000
v 0.14929999 -0.12050000 0.92500000
v 0.14929999 -0.12050000 1.11000000
v 0.14929999 -0.12050000 0.74000000
v 0.14929999 -0.12050000 0.55500000
v 0.14929999 -0.12050000 0.18500000
v 0.14929999 -0.12050000 0.37000000
v 0.14929999 -0.12050000 0.00000000
v 0.12515271 -0.14992355 1.11000000
v 0.11929999 -0.15050000 1.11000000
v 0.11929999 -0.15050000 0.92500000
v 0.11929999 -0.15050000 0.74000000
v 0.11929999 -0.15050000 0.55500000
v 0.11929999 -0.15050000 0.37000000
v 0.11929999 -0.15050000 0.18500000
v 0.01231950 -0.14821638 0.84133337
v 0.01794729 -0.14992355 0.84133337
v 0.01794729 -0.14992355 0.97566663
v 0.01231950 -0.14821638 0.97566663
v 0.01794729 -0.14992355 1.11000000
v 0.01231950 -0.14821638 0.57266669
v 0.01794729 -0.14992355 0.57266669
v 0.01794729 -0.14992355 0.70700000
v 0.01231950 -0.14821638 0.70700000
v 0.01231950 -0.14821638 0.30400000
v 0.01794729 -0.14992355 0.30400000
v 0.01794729 -0.14992355 0.43833331
v 0.01231950 -0.14821638 0.43833331
v 0.01231950 -0.14821638 1.11000000
v 0.00713289 -0.14544409 1.11000000
v 0.00713289 -0.14544409 0.84133337
v 0.00713289 -0.14544409 0.57266669
v 0.00713289 -0.14544409 0.30400000
v 0.00258680 -0.14171321 0.84133337
v 0.00258680 -0.14171321 0.57266669
v 0.00258680 -0.14171321 0.30400000
v -0.00114409 -0.13716711 0.84133337
v 0.00258680 -0.14171321 1.11000000
v -0.00114409 -0.13716711 0.57266669
v -0.00114409 -0.13716711 0.30400000
v -0.00391637 -0.13198050 0.97566663
v -0.00391637 -0.13198050 0.84133337
v -0.00114409 -0.13716711 1.11000000
v -0.00391637 -0.13198050 1.11000000
v -0.00391637 -0.13198050 0.70700000
v -0.00391637 -0.13198050 0.57266669
v -0.00391637 -0.13198050 0.43833331
v -0.00391637 -0.13198050 0.30400000
v -0.00562355 -0.12635271 0.84133337
v -0.00562355 -0.12635271 0.97566663
v -0.00562355 -0.12635271 0.57266669
v -0.00562355 -0.12635271 0.70700000
v -0.00562355 -0.12635271 0.30400000
v -0.00562355 -0.12635271 0.43833331
v 0.02379998 -0.15050000 0.97566663
v 0.02379998 -0.15050000 1.11000000
v 0.02379998 -0.15050000 0.84133337
v 0.02379998 -0.15050000 0.70700000
v 0.02379998 -0.15050000 0.57266669
v 0.02379998 -0.15050000 0.30400000
v -0.00562355 -0.12635271 1.11000000
v -0.00620000 -0.12050000 1.11000000
v -0.00620000 -0.12050000 0.97566663
v -0.00620000 -0.12050000 0.84133337
v -0.00620000 -0.12050000 0.70700000
v -0.00620000 -0.12050000 0.57266669
v -0.00620000 -0.12050000 0.43833331
v 0.14829999 -0.06475000 0.11150000
v 0.14879999 -0.06575000 0.11150000
v 0.14829999 -0.06575000 0.11150000
v 0.14929999 -0.06575000 0.11150000
v 0.14929999 -0.06475000 0.11150000
v 0.14879999 -0.06610355 0.11135355
v 0.14829999 -0.06610355 0.11135355
v 0.14829999 -0.06594135 0.11146194
v 0.14879999 -0.06621194 0.11119135
v 0.14829999 -0.06621194 0.11119135
v 0.14879999 -0.06625000 0.11100000
v 0.14829999 -0.06625000 0.11100000
v 0.14879999 -0.06621194 0.11080865
v 0.14829999 -0.06621194 0.11080865
v 0.14879999 -0.06610355 0.11064645
v 0.14829999 -0.06610355 0.11064645
v 0.14879999 -0.06594135 0.11053806
v 0.14829999 -0.06594135 0.11053806
v 0.14879999 -0.06575000 0.11050000
v 0.14829999 -0.06575000 0.11050000
v 0.14879999 -0.06575000 0.11150000
v 0.14879999 -0.06594135 0.11146194
v 0.14929999 -0.06594135 0.11146194
v 0.14929999 -0.06575000 0.11150000
v 0.14929999 -0.06610355 0.11135355
v 0.14929999 -0.06621194 0.11119135
v 0.14929999 -0.06625000 0.11100000
v 0.14929999 -0.06610355 0.11064645
v 0.14929999 -0.06594135 0.11053806
v 0.14929999 -0.06621194 0.11080865
v 0.14716611 -0.06386611 0.11150000
v 0.14757164 -0.06359515 0.11150000
v 0.14893388 -0.06386611 0.11150000
v 0.14799437 -0.06450627 0.11150000
v 0.14689514 -0.06427164 0.11150000
v 0.14789412 -0.06455454 0.11150000
v 0.14810562 -0.06450627 0.11150000
v 0.14852835 -0.06359515 0.11150000
v 0.14804999 -0.06350000 0.11150000
v 0.14820587 -0.06455454 0.11150000
v 0.14782475 -0.06464153 0.11150000
v 0.14779999 -0.06475000 0.11150000
v 0.14679999 -0.06475000 0.11150000
v 0.14929999 -0.06475000 0.11150000
v 0.14827524 -0.06464153 0.11150000
v 0.14829999 -0.06475000 0.11150000
v 0.14689514 -0.06427164 0.57650000
v 0.14679999 -0.06475000 0.57650000
v 0.14679999 -0.06475000 1.04150000
v 0.14716611 -0.06386611 0.57650000
v 0.14689514 -0.06427164 1.04150000
v 0.14757164 -0.06359515 0.57650000
v 0.14716611 -0.06386611 1.04150000
v 0.14804999 -0.06350000 0.57650000
v 0.14757164 -0.06359515 1.04150000
v 0.14852835 -0.06359515 0.57650000
v 0.14804999 -0.06350000 1.04150000
v 0.14893388 -0.06386611 0.57650000
v 0.14852835 -0.06359515 1.04150000
v 0.14920485 -0.06427164 0.57650000
v 0.14893388 -0.06386611 1.04150000
v 0.14689514 -0.06427164 0.11150000
v 0.14679999 -0.06475000 0.11150000
v 0.14757164 -0.06359515 0.11150000
v 0.14716611 -0.06386611 0.11150000
v 0.14804999 -0.06350000 0.11150000
v 0.14893388 -0.06386611 0.11150000
v 0.14852835 -0.06359515 0.11150000
v 0.14920485 -0.06427164 1.04150000
v 0.14929999 -0.06475000 1.04150000
v 0.14929999 -0.06475000 0.11150000
v 0.14929999 -0.06475000 0.57650000
v -0.00379515 -0.00102165 0.70175000
v -0.00370000 -0.00150000 0.70175000
v -0.00370000 -0.00150000 0.32350000
v -0.00379515 -0.00102165 1.08000000
v -0.00370000 -0.00150000 1.08000000
v -0.00406612 -0.00061612 0.70175000
v -0.00379515 -0.00102165 0.32350000
v -0.00406612 -0.00061612 1.08000000
v -0.00447164 -0.00034515 0.70175000
v -0.00406612 -0.00061612 0.32350000
v -0.00447164 -0.00034515 1.08000000
v -0.00495000 -0.00025000 0.70175000
v -0.00447164 -0.00034515 0.32350000
v -0.00495000 -0.00025000 1.08000000
v -0.00542833 -0.00034515 0.70175000
v -0.00495000 -0.00025000 0.32350000
v -0.00542833 -0.00034515 1.08000000
v -0.00583388 -0.00061612 0.70175000
v -0.00542833 -0.00034515 0.32350000
v -0.00583388 -0.00061612 1.08000000
v -0.00610485 -0.00102165 0.70175000
v -0.00583388 -0.00061612 0.32350000
v -0.00610485 -0.00102165 1.08000000
v -0.00610485 -0.00102165 0.32350000
v -0.00620000 -0.00150000 0.32350000
v -0.00620000 -0.00150000 0.70175000
v 0.07429999 -0.14950000 0.03300000
v 0.07304999 -0.14950000 0.03300000
v 0.07304999 -0.14975000 0.03300000
v 0.07429999 -0.15000000 0.03300000
v 0.07304999 -0.15000000 0.03300000
v 0.07429999 -0.15050000 0.03300000
v 0.07304999 -0.15025000 0.03300000
v 0.07304999 -0.15050000 0.03300000
v 0.07465355 -0.15000000 0.03314645
v 0.07465355 -0.14950000 0.03314645
v 0.07449133 -0.14950000 0.03303806
v 0.07476193 -0.15000000 0.03330865
v 0.07476193 -0.14950000 0.03330865
v 0.07479999 -0.15000000 0.03350000
v 0.07479999 -0.14950000 0.03350000
v 0.07476193 -0.15000000 0.03369135
v 0.07476193 -0.14950000 0.03369135
v 0.07465355 -0.15000000 0.03385355
v 0.07465355 -0.14950000 0.03385355
v 0.07449133 -0.15000000 0.03396194
v 0.07449133 -0.14950000 0.03396194
v 0.07429999 -0.15000000 0.03300000
v 0.07449133 -0.15000000 0.03303806
v 0.07449133 -0.15050000 0.03303806
v 0.07429999 -0.15050000 0.03300000
v 0.07465355 -0.15050000 0.03314645
v 0.07476193 -0.15050000 0.03330865
v 0.07479999 -0.15050000 0.03350000
v 0.07429999 -0.14950000 0.03400000
v 0.07476193 -0.15050000 0.03369135
v 0.07429999 -0.15050000 0.03400000
v 0.07429999 -0.15000000 0.03400000
v 0.07465355 -0.15050000 0.03385355
v 0.07429999 -0.15000000 0.03400000
v 0.07429999 -0.15050000 0.03400000
v 0.07329999 -0.15050000 0.03400000
v 0.07429999 -0.14950000 0.03400000
v 0.07329999 -0.14950000 0.03400000
v 0.07429999 -0.15000000 0.27350000
v 0.07429999 -0.14950000 0.27350000
v 0.07329999 -0.14950000 0.27350000
v 0.07429999 -0.15050000 0.27350000
v 0.07329999 -0.15050000 0.27350000
v 0.07465355 -0.15000000 0.27364642
v 0.07465355 -0.14950000 0.27364642
v 0.07449133 -0.14950000 0.27353809
v 0.07476193 -0.15000000 0.27380865
v 0.07476193 -0.14950000 0.27380865
v 0.07479999 -0.15000000 0.27400000
v 0.07479999 -0.14950000 0.27400000
v 0.07476193 -0.15000000 0.27419135
v 0.07476193 -0.14950000 0.27419135
v 0.07465355 -0.15000000 0.27435358
v 0.07465355 -0.14950000 0.27435358
v 0.07449133 -0.15000000 0.27446191
v 0.07449133 -0.14950000 0.27446191
v 0.07429999 -0.15000000 0.27350000
v 0.07449133 -0.15000000 0.27353809
v 0.07449133 -0.15050000 0.27353809
v 0.07429999 -0.15050000 0.27350000
v 0.07465355 -0.15050000 0.27364642
v 0.07476193 -0.15050000 0.27380865
v 0.07479999 -0.15050000 0.27400000
v 0.07429999 -0.14950000 0.27450000
v 0.07476193 -0.15050000 0.27419135
v 0.07429999 -0.15050000 0.27450000
v 0.07429999 -0.15000000 0.27450000
v 0.07465355 -0.15050000 0.27435358
v 0.07429999 -0.14950000 0.27450000
v 0.07304999 -0.14975000 0.27450000
v 0.07304999 -0.14950000 0.27450000
v 0.07429999 -0.15000000 0.27450000
v 0.07304999 -0.15025000 0.27450000
v 0.07304999 -0.15000000 0.27450000
v 0.07429999 -0.15050000 0.27450000
v 0.07304999 -0.15050000 0.27450000
v 0.07329999 -0.14900000 0.27350000
v 0.08104999 -0.14900000 0.27350000
v 0.08104999 -0.14875000 0.27350000
v 0.08104999 -0.14850000 0.27350000
v 0.08104999 -0.14825000 0.27350000
v 0.07329999 -0.14800000 0.27350000
v 0.08104999 -0.14800000 0.27350000
v 0.07306903 -0.14934567 0.03400000
v 0.07282164 -0.15040485 0.03400000
v 0.07241611 -0.15013388 0.03400000
v 0.07304999 -0.14925000 0.03400000
v 0.07214514 -0.14972835 0.03400000
v 0.07241611 -0.14836612 0.03400000
v 0.07312321 -0.14942677 0.03400000
v 0.07320433 -0.14948097 0.03400000
v 0.07329999 -0.14950000 0.03400000
v 0.07329999 -0.15050000 0.03400000
v 0.07204999 -0.14925000 0.03400000
v 0.07214514 -0.14877165 0.03400000
v 0.07306903 -0.14915433 0.03400000
v 0.07312321 -0.14907323 0.03400000
v 0.07329999 -0.14800000 0.03400000
v 0.07329999 -0.14900000 0.03400000
v 0.07241611 -0.14836612 0.27350000
v 0.07241611 -0.15013388 0.27350000
v 0.07304999 -0.14925000 0.27350000
v 0.07214514 -0.14972835 0.27350000
v 0.07204999 -0.14925000 0.27350000
v 0.07214514 -0.14877165 0.27350000
v 0.07306903 -0.14934567 0.27350000
v 0.07312321 -0.14942677 0.27350000
v 0.07329999 -0.15050000 0.27350000
v 0.07329999 -0.14950000 0.27350000
v 0.07306903 -0.14915433 0.27350000
v 0.07282164 -0.14809515 0.27350000
v 0.07312321 -0.14907323 0.27350000
v 0.07320433 -0.14901903 0.27350000
v 0.07329999 -0.14900000 0.27350000
v 0.07329999 -0.14800000 0.27350000
v 0.07329999 -0.14800000 0.15375000
v 0.07329999 -0.14800000 0.03400000
v 0.07282164 -0.14809515 0.15375000
v 0.07241611 -0.14836612 0.03400000
v 0.07282164 -0.14809515 0.27350000
v 0.07329999 -0.14800000 0.27350000
v 0.07241611 -0.14836612 0.15375000
v 0.07214514 -0.14877165 0.03400000
v 0.07214514 -0.14877165 0.15375000
v 0.07204999 -0.14925000 0.03400000
v 0.07214514 -0.14877165 0.27350000
v 0.07241611 -0.14836612 0.27350000
v 0.07204999 -0.14925000 0.15375000
v 0.07214514 -0.14972835 0.03400000
v 0.07214514 -0.14972835 0.15375000
v 0.07241611 -0.15013388 0.03400000
v 0.07214514 -0.14972835 0.27350000
v 0.07204999 -0.14925000 0.27350000
v 0.07282164 -0.15040485 0.03400000
v 0.07282164 -0.15040485 0.15375000
v 0.07241611 -0.15013388 0.15375000
v 0.07329999 -0.15050000 0.03400000
v 0.07329999 -0.15050000 0.15375000
v 0.07329999 -0.15050000 0.27350000
v 0.07241611 -0.15013388 0.27350000
v 0.07329999 -0.14900000 0.15375000
v 0.07320433 -0.14901903 0.15375000
v 0.07329999 -0.14900000 0.03400000
v 0.07312321 -0.14907323 0.03400000
v 0.07329999 -0.14900000 0.27350000
v 0.07306903 -0.14915433 0.03400000
v 0.07312321 -0.14907323 0.15375000
v 0.07306903 -0.14915433 0.15375000
v 0.07304999 -0.14925000 0.15375000
v 0.07304999 -0.14925000 0.03400000
v 0.07320433 -0.14901903 0.27350000
v 0.07312321 -0.14907323 0.27350000
v 0.07306903 -0.14915433 0.27350000
v 0.07304999 -0.14925000 0.27350000
v 0.07306903 -0.14934567 0.03400000
v 0.07306903 -0.14934567 0.15375000
v 0.07312321 -0.14942677 0.15375000
v 0.07312321 -0.14942677 0.03400000
v 0.07320433 -0.14948097 0.03400000
v 0.07329999 -0.14950000 0.03400000
v 0.07320433 -0.14948097 0.15375000
v 0.07306903 -0.14934567 0.27350000
v 0.07312321 -0.14942677 0.27350000
v 0.07329999 -0.14950000 0.27350000
v 0.07329999 -0.14950000 0.15375000
v 0.07234290 -0.14975000 0.27479291
v 0.07212611 -0.14975000 0.27511731
v 0.07212611 -0.14950000 0.27511731
v 0.07234290 -0.15000000 0.27479291
v 0.07212611 -0.15000000 0.27511731
v 0.07234290 -0.15025000 0.27479291
v 0.07212611 -0.15025000 0.27511731
v 0.07266731 -0.14975000 0.27457611
v 0.07234290 -0.14950000 0.27479291
v 0.07266731 -0.15000000 0.27457611
v 0.07266731 -0.15025000 0.27457611
v 0.07204999 -0.14975000 0.27550000
v 0.07204999 -0.14950000 0.27550000
v 0.07204999 -0.15000000 0.27550000
v 0.07204999 -0.15050000 0.27550000
v 0.07212611 -0.15050000 0.27511731
v 0.07266731 -0.14950000 0.27457611
v 0.07304999 -0.14950000 0.27450000
v 0.07304999 -0.14975000 0.27450000
v 0.07304999 -0.15050000 0.27450000
v 0.07234290 -0.15050000 0.27479291
v 0.07304999 -0.15000000 0.27450000
v 0.07304999 -0.15025000 0.27450000
v 0.08175710 -0.14875000 0.27320709
v 0.08143268 -0.14875000 0.27342389
v 0.08143268 -0.14900000 0.27342389
v 0.08175710 -0.14850000 0.27320709
v 0.08143268 -0.14850000 0.27342389
v 0.08175710 -0.14825000 0.27320709
v 0.08143268 -0.14825000 0.27342389
v 0.08175710 -0.14800000 0.27320709
v 0.08143268 -0.14800000 0.27342389
v 0.08197388 -0.14875000 0.27288269
v 0.08175710 -0.14900000 0.27320709
v 0.08197388 -0.14850000 0.27288269
v 0.08197388 -0.14825000 0.27288269
v 0.08197388 -0.14800000 0.27288269
v 0.08204999 -0.14875000 0.27250000
v 0.08197388 -0.14900000 0.27288269
v 0.08204999 -0.14850000 0.27250000
v 0.08204999 -0.14825000 0.27250000
v 0.08204999 -0.14800000 0.27250000
v 0.08104999 -0.14875000 0.27350000
v 0.08104999 -0.14900000 0.27350000
v 0.08104999 -0.14825000 0.27350000
v 0.08104999 -0.14850000 0.27350000
v 0.08104999 -0.14800000 0.27350000
v 0.07234290 -0.14975000 0.03270709
v 0.07266731 -0.14975000 0.03292389
v 0.07266731 -0.14950000 0.03292389
v 0.07234290 -0.15000000 0.03270709
v 0.07266731 -0.15000000 0.03292389
v 0.07234290 -0.15025000 0.03270709
v 0.07266731 -0.15025000 0.03292389
v 0.07212611 -0.14975000 0.03238269
v 0.07234290 -0.14950000 0.03270709
v 0.07212611 -0.15000000 0.03238269
v 0.07212611 -0.15025000 0.03238269
v 0.07204999 -0.14975000 0.03200000
v 0.07212611 -0.14950000 0.03238269
v 0.07204999 -0.15000000 0.03200000
v 0.07204999 -0.15025000 0.03200000
v 0.07304999 -0.14975000 0.03300000
v 0.07304999 -0.14950000 0.03300000
v 0.07304999 -0.15025000 0.03300000
v 0.07304999 -0.15000000 0.03300000
v 0.07304999 -0.15050000 0.03300000
v 0.07234290 -0.15050000 0.03270709
v 0.07266731 -0.15050000 0.03292389
v 0.07204999 -0.15050000 0.03200000
v 0.07204999 -0.14950000 0.28300000
v 0.11929999 -0.15050000 0.00000000
v -0.00620000 -0.12050000 0.30400000
v 0.14829999 -0.06575000 0.11150000
v 0.14929999 -0.06575000 0.11050000
v -0.00620000 -0.00150000 1.08000000
v 0.07429999 -0.14950000 0.03300000
v 0.07429999 -0.14950000 0.27350000
v 0.08204999 -0.14900000 0.27250000
v 0.07204999 -0.14950000 0.03200000
f 1 2 3
f 4 5 6
f 5 1 7
f 8 9 10
f 11 12 13
f 14 11 15
f 16 14 17
f 18 19 20
f 21 22 19
f 14 15 17
f 17 23 24
f 18 15 19
f 22 20 19
f 25 15 11
f 26 16 17
f 27 12 10
f 13 27 28
f 13 28 29
f 29 28 30
f 30 31 29
f 32 33 19
f 21 19 33
f 12 27 13
f 11 13 25
f 25 19 15
f 24 34 35
f 26 17 24
f 23 36 24
f 24 36 37
f 24 37 38
f 39 34 24
f 39 24 40
f 26 24 35
f 41 26 35
f 42 35 43
f 43 44 42
f 44 45 42
f 35 42 41
f 24 46 40
f 38 47 24
f 48 49 42
f 42 50 48
f 51 52 49
f 53 51 49
f 54 51 53
f 55 51 54
f 55 56 51
f 42 49 52
f 42 45 50
f 57 58 59
f 58 57 60
f 61 60 62
f 63 58 60
f 64 65 63
f 66 64 63
f 67 61 62
f 66 60 61
f 63 60 66
f 68 62 69
f 70 62 68
f 71 69 72
f 69 62 72
f 73 71 72
f 67 62 70
f 74 75 76
f 77 74 76
f 71 73 78
f 78 74 71
f 74 77 71
f 78 79 74
f 75 74 80
f 81 82 83
f 83 84 85
f 86 82 81
f 87 74 88
f 89 90 81
f 91 90 92
f 89 83 85
f 92 90 89
f 85 84 93
f 94 74 95
f 96 74 94
f 74 79 97
f 97 98 95
f 97 95 74
f 96 88 74
f 99 85 93
f 100 85 99
f 101 102 95
f 85 100 102
f 98 101 95
f 101 85 102
f 103 104 105
f 105 106 103
f 105 107 108
f 109 107 110
f 107 109 111
f 108 107 111
f 112 106 105
f 105 108 112
f 113 112 108
f 112 113 114
f 115 116 114
f 115 117 116
f 118 119 117
f 112 114 116
f 120 121 122
f 122 123 120
f 124 123 122
f 125 126 127
f 126 125 124
f 124 122 126
f 124 128 123
f 129 130 131
f 132 131 130
f 133 131 134
f 123 128 135
f 136 135 128
f 137 138 128
f 128 138 136
f 139 138 137
f 139 137 134
f 140 118 141
f 142 118 140
f 143 118 142
f 118 143 119
f 144 117 145
f 146 147 148
f 119 145 117
f 149 117 150
f 151 116 152
f 149 152 116
f 150 117 144
f 153 154 148
f 148 152 155
f 151 152 156
f 148 155 153
f 148 154 146
f 149 116 117
f 156 152 148
f 157 148 158
f 159 148 157
f 131 133 160
f 133 134 161
f 161 134 162
f 163 162 134
f 164 148 159
f 148 165 166
f 167 165 148
f 168 165 167
f 137 167 169
f 167 148 164
f 163 137 169
f 167 137 168
f 163 134 137
f 166 156 148
f 131 160 129
f 170 171 172
f 173 172 174
f 170 175 171
f 176 177 178
f 179 176 180
f 181 179 182
f 183 184 177
f 185 183 176
f 186 185 179
f 178 187 188
f 187 178 189
f 178 188 190
f 182 190 191
f 190 182 180
f 191 192 182
f 178 177 189
f 193 189 177
f 194 184 183
f 193 184 195
f 195 184 194
f 186 196 197
f 194 183 185
f 198 199 200
f 201 200 202
f 203 204 205
f 206 205 199
f 207 208 209
f 210 209 204
f 201 211 212
f 213 198 201
f 212 213 201
f 206 198 213
f 214 203 206
f 213 214 206
f 210 203 214
f 215 207 210
f 214 215 210
f 216 213 212
f 217 214 213
f 218 215 214
f 219 216 220
f 221 217 216
f 222 218 217
f 223 224 219
f 225 226 223
f 219 225 223
f 227 228 221
f 219 224 227
f 221 219 227
f 229 230 222
f 221 228 229
f 222 221 229
f 231 224 223
f 232 223 226
f 233 228 227
f 234 227 224
f 235 230 229
f 236 229 228
f 237 238 202
f 239 237 200
f 199 205 240
f 241 242 204
f 243 241 209
f 205 204 242
f 232 244 245
f 231 232 246
f 247 248 234
f 236 233 249
f 235 236 250
f 248 249 233
f 251 252 253
f 254 253 255
f 256 257 258
f 259 258 252
f 260 261 262
f 263 262 257
f 254 264 265
f 266 251 254
f 265 266 254
f 259 251 266
f 267 256 259
f 266 267 259
f 263 256 267
f 268 260 263
f 267 268 263
f 269 266 265
f 270 267 266
f 271 268 267
f 272 269 273
f 274 270 269
f 275 271 270
f 276 277 272
f 278 279 276
f 272 278 276
f 280 281 274
f 272 277 280
f 274 272 280
f 282 283 275
f 274 281 282
f 275 274 282
f 284 277 276
f 285 276 279
f 286 281 280
f 287 280 277
f 288 283 282
f 289 282 281
f 290 291 255
f 292 290 253
f 252 258 293
f 294 293 258
f 262 295 294
f 295 262 261
f 294 257 262
f 285 296 297
f 284 285 298
f 299 300 287
f 289 286 301
f 288 289 302
f 300 301 286
f 303 304 305
f 306 304 307
f 303 307 304
f 308 309 310
f 311 312 309
f 313 314 312
f 315 316 314
f 317 318 316
f 319 320 318
f 321 322 320
f 323 324 310
f 308 324 325
f 324 323 326
f 311 308 327
f 328 329 313
f 315 313 329
f 319 317 330
f 321 319 331
f 317 315 332
f 333 334 335
f 333 336 337
f 338 337 336
f 336 333 339
f 340 334 341
f 342 339 335
f 334 340 335
f 333 335 339
f 343 337 338
f 343 344 345
f 343 345 337
f 346 347 342
f 347 346 348
f 335 346 342
f 349 350 351
f 352 349 353
f 354 352 355
f 356 354 357
f 358 356 359
f 360 358 361
f 362 360 363
f 349 364 365
f 354 366 367
f 352 367 364
f 356 368 366
f 360 369 370
f 362 371 372
f 369 360 362
f 358 370 368
f 369 362 373
f 374 373 362
f 375 376 377
f 378 379 376
f 380 375 381
f 382 378 375
f 383 380 384
f 385 382 380
f 386 383 387
f 388 385 383
f 389 386 390
f 391 388 386
f 392 389 393
f 394 391 389
f 395 392 396
f 397 394 392
f 395 398 399
f 397 395 400
f 401 402 403
f 403 404 401
f 404 403 405
f 406 404 407
f 407 408 406
f 409 410 411
f 412 413 410
f 414 415 413
f 416 417 415
f 418 419 417
f 420 421 419
f 422 423 411
f 409 423 424
f 423 422 425
f 412 409 426
f 427 428 414
f 416 414 428
f 429 421 420
f 418 416 430
f 431 432 420
f 433 431 420
f 418 433 420
f 434 435 436
f 437 434 438
f 436 438 434
f 439 440 441
f 442 439 443
f 441 443 439
f 444 445 446
f 447 448 445
f 449 450 448
f 451 452 450
f 453 454 452
f 455 456 454
f 457 458 446
f 444 458 459
f 458 457 460
f 447 444 461
f 462 463 449
f 451 449 463
f 464 456 455
f 453 451 465
f 466 467 455
f 468 466 455
f 453 468 455
f 469 470 471
f 472 473 474
f 474 470 472
f 472 475 473
f 475 476 473
f 469 472 470
f 477 478 479
f 477 479 480
f 481 482 480
f 477 480 482
f 481 483 482
f 484 485 486
f 484 486 487
f 488 489 486
f 490 485 484
f 491 492 493
f 485 491 493
f 491 485 490
f 494 495 488
f 488 495 489
f 486 489 487
f 496 487 489
f 497 496 489
f 497 498 499
f 497 489 498
f 500 501 502
f 503 501 500
f 504 503 505
f 506 502 501
f 507 508 509
f 501 508 507
f 507 506 501
f 510 500 502
f 510 511 500
f 512 511 510
f 513 511 512
f 513 514 515
f 513 515 511
f 516 517 518
f 519 518 517
f 518 520 521
f 522 518 519
f 523 524 522
f 524 523 525
f 520 518 522
f 524 526 527
f 526 524 528
f 529 530 528
f 530 529 531
f 530 532 533
f 534 535 536
f 537 538 535
f 532 530 536
f 539 535 538
f 535 539 540
f 536 535 540
f 541 542 543
f 543 542 544
f 542 541 545
f 546 544 547
f 548 549 550
f 551 552 547
f 548 547 552
f 553 554 549
f 555 550 549
f 556 557 558
f 556 549 554
f 559 558 557
f 560 559 561
f 562 563 557
f 564 565 561
f 561 563 564
f 557 563 561
f 566 567 568
f 569 570 567
f 571 572 570
f 573 566 574
f 575 569 566
f 576 571 569
f 577 578 568
f 579 577 567
f 580 579 572
f 570 572 579
f 581 572 571
f 580 572 581
f 573 582 583
f 575 573 584
f 585 586 576
f 586 571 576
f 587 588 576
f 576 588 585
f 589 590 591
f 592 593 590
f 594 595 593
f 596 597 595
f 598 589 599
f 600 592 589
f 601 594 592
f 602 596 594
f 603 598 604
f 605 600 598
f 606 601 600
f 607 602 601
f 608 609 591
f 610 611 593
f 612 610 595
f 611 608 590
f 613 614 615
f 616 617 614
f 618 619 617
f 620 613 621
f 622 616 613
f 623 618 616
f 624 620 625
f 626 622 620
f 627 623 622
f 628 629 615
f 630 631 617
f 614 617 631
f 632 630 619
f 633 618 623
f 618 633 634
f 623 635 633
f 623 627 635
f 1 3 7
f 4 6 636
f 5 7 6
f 8 10 12
f 89 81 83
f 171 174 172
f 176 178 180
f 179 180 182
f 181 182 192
f 183 177 176
f 185 176 179
f 186 179 181
f 178 190 180
f 193 177 184
f 186 197 185
f 194 185 197
f 198 200 201
f 201 202 211
f 203 205 206
f 206 199 198
f 207 209 210
f 210 204 203
f 216 212 220
f 217 213 216
f 218 214 217
f 219 220 225
f 221 216 219
f 222 217 221
f 231 223 232
f 232 226 244
f 233 227 234
f 234 224 231
f 235 229 236
f 236 228 233
f 237 202 200
f 239 200 199
f 199 240 239
f 241 204 209
f 243 209 208
f 205 242 240
f 232 245 246
f 231 246 247
f 247 234 231
f 236 249 250
f 235 250 637
f 248 233 234
f 251 253 254
f 254 255 264
f 256 258 259
f 259 252 251
f 260 262 263
f 263 257 256
f 269 265 273
f 270 266 269
f 271 267 270
f 272 273 278
f 274 269 272
f 275 270 274
f 284 276 285
f 285 279 296
f 286 280 287
f 287 277 284
f 288 282 289
f 289 281 286
f 290 255 253
f 292 253 252
f 252 293 292
f 294 258 257
f 285 297 298
f 284 298 299
f 299 287 284
f 289 301 302
f 288 302 638
f 300 286 287
f 308 310 324
f 311 309 308
f 313 312 311
f 315 314 313
f 317 316 315
f 319 318 317
f 321 320 319
f 323 310 639
f 308 325 327
f 324 326 325
f 311 327 328
f 328 313 311
f 315 329 332
f 319 330 331
f 321 331 640
f 317 332 330
f 349 351 353
f 352 353 355
f 354 355 357
f 356 357 359
f 358 359 361
f 360 361 363
f 362 363 371
f 349 365 350
f 354 367 352
f 352 364 349
f 356 366 354
f 360 370 358
f 362 372 374
f 358 368 356
f 375 377 381
f 378 376 375
f 380 381 384
f 382 375 380
f 383 384 387
f 385 380 383
f 386 387 390
f 388 383 386
f 389 390 393
f 391 386 389
f 392 393 396
f 394 389 392
f 395 396 398
f 397 392 395
f 395 399 400
f 397 400 641
f 404 405 407
f 409 411 423
f 412 410 409
f 414 413 412
f 416 415 414
f 418 417 416
f 420 419 418
f 422 411 642
f 409 424 426
f 423 425 424
f 412 426 427
f 427 414 412
f 416 428 430
f 429 420 432
f 418 430 433
f 444 446 458
f 447 445 444
f 449 448 447
f 451 450 449
f 453 452 451
f 455 454 453
f 457 446 643
f 444 459 461
f 458 460 459
f 447 461 462
f 462 449 447
f 451 463 465
f 464 455 467
f 453 465 468
f 503 500 505
f 518 521 516
f 523 522 519
f 524 525 528
f 520 522 527
f 524 527 522
f 526 528 533
f 529 528 525
f 530 531 536
f 530 533 528
f 534 536 531
f 537 535 534
f 532 536 540
f 542 547 544
f 542 545 551
f 546 547 548
f 548 550 546
f 551 547 542
f 548 552 553
f 553 549 548
f 555 549 556
f 556 558 555
f 556 554 562
f 559 557 561
f 560 561 565
f 562 557 556
f 566 568 574
f 569 567 566
f 571 570 569
f 573 574 582
f 575 566 573
f 576 569 575
f 577 568 567
f 579 567 570
f 581 571 586
f 573 583 584
f 575 584 587
f 587 576 575
f 589 591 599
f 592 590 589
f 594 593 592
f 596 595 594
f 598 599 604
f 600 589 598
f 601 592 600
f 602 594 601
f 603 604 644
f 605 598 603
f 606 600 605
f 607 601 606
f 608 591 590
f 610 593 595
f 612 595 597
f 611 590 593
f 613 615 621
f 616 614 613
f 618 617 616
f 620 621 625
f 622 613 620
f 623 616 622
f 624 625 645
f 626 620 624
f 627 622 626
f 628 615 614
f 630 617 619
f 614 631 628
f 632 619 634
f 618 634 619

