# https://github.com/mikedh/trimesh

o mesh-e8c8217c-1d19-49e3-8a64-669e427fdb33
v 0.08450001 0.14892499 0.30337500
v 0.02279998 0.14892499 0.30337500
v 0.02279998 0.14879999 0.30350000
v 0.08450001 0.14929999 0.30300000
v 0.02279998 0.14929999 0.30300000
v 0.02279998 0.14917499 0.30312500
v 0.08450001 0.14904999 0.30325000
v 0.02279998 0.14904999 0.30325000
v 0.00380098 -0.04534546 0.30325000
v 0.00389662 -0.04557642 0.30300000
v 0.00581007 -0.04499600 0.30300000
v 0.00199431 -0.04631116 0.30325000
v 0.00213319 -0.04651901 0.30300000
v 0.00041075 -0.04761075 0.30325000
v 0.00058754 -0.04778751 0.30300000
v -0.00088884 -0.04919431 0.30325000
v -0.00068099 -0.04933319 0.30300000
v -0.00185454 -0.05100095 0.30325000
v -0.00162358 -0.05109662 0.30300000
v -0.00244921 -0.05296130 0.30325000
v -0.00220400 -0.05301007 0.30300000
v 0.00780000 -0.04454999 0.30325000
v 0.00576130 -0.04475079 0.30325000
v 0.00780000 -0.04479999 0.30300000
v 0.00571254 -0.04450558 0.30350000
v 0.00780000 -0.04429999 0.30350000
v 0.00370527 -0.04511450 0.30350000
v 0.00185542 -0.04610327 0.30350000
v 0.00023396 -0.04743396 0.30350000
v -0.00109673 -0.04905539 0.30350000
v -0.00240001 -0.05500000 0.30300000
v -0.00208550 -0.05090527 0.30350000
v -0.00269438 -0.05291254 0.30350000
v -0.00290001 -0.05500000 0.30350000
v -0.00185454 0.05100098 0.30325000
v -0.00162358 0.05109662 0.30300000
v -0.00220400 0.05301007 0.30300000
v -0.00088884 0.04919427 0.30325000
v -0.00068099 0.04933319 0.30300000
v 0.00041075 0.04761072 0.30325000
v 0.00058754 0.04778754 0.30300000
v 0.00199431 0.04631116 0.30325000
v 0.00213319 0.04651898 0.30300000
v 0.00380098 0.04534546 0.30325000
v 0.00389662 0.04557642 0.30300000
v 0.00576130 0.04475079 0.30325000
v 0.00581007 0.04499597 0.30300000
v -0.00265001 0.05500000 0.30325000
v -0.00244921 0.05296130 0.30325000
v -0.00240001 0.05500000 0.30300000
v -0.00269438 0.05291254 0.30350000
v -0.00109673 0.04905542 0.30350000
v 0.00023396 0.04743396 0.30350000
v 0.00370527 0.04511450 0.30350000
v 0.00780000 0.04479999 0.30300000
v 0.00185542 0.04610327 0.30350000
v 0.00571254 0.04450562 0.30350000
v 0.00780000 0.04429999 0.30350000
v 0.00780000 0.04454999 0.30325000
v 0.00380098 0.12915454 0.30325000
v 0.00389662 0.12892358 0.30300000
v 0.00581007 0.12950403 0.30300000
v 0.00199431 0.12818884 0.30325000
v 0.00213319 0.12798096 0.30300000
v 0.00041075 0.12688928 0.30325000
v 0.00058754 0.12671246 0.30300000
v -0.00088884 0.12530573 0.30325000
v -0.00068099 0.12516681 0.30300000
v -0.00185454 0.12349902 0.30325000
v -0.00162358 0.12340338 0.30300000
v -0.00244921 0.12153870 0.30325000
v -0.00220400 0.12148993 0.30300000
v 0.00576130 0.12974921 0.30325000
v 0.00780000 0.12970001 0.30300000
v 0.00571254 0.12999438 0.30350000
v 0.00370527 0.12938550 0.30350000
v 0.00780000 0.13020001 0.30350000
v 0.00185542 0.12839673 0.30350000
v -0.00109673 0.12544458 0.30350000
v -0.00240001 0.11950000 0.30300000
v -0.00290001 0.11950000 0.30350000
v -0.00269438 0.12158746 0.30350000
v 0.00023396 0.12706604 0.30350000
v -0.00290001 0.11950000 0.30350000
v -0.00290001 0.05500000 0.30350000
v -0.00265001 0.05500000 0.30325000
v -0.00240001 0.05500000 0.30300000
v -0.00240001 0.11950000 0.30300000
v 0.00780000 0.13020001 0.30350000
v 0.00780000 0.12970001 0.30300000
v 0.08450001 0.12995001 0.30325000
v 0.08450001 0.12970001 0.30300000
v 0.08450001 0.12982501 0.30312500
v 0.00924959 -0.04394955 0.30325000
v 0.00969398 -0.04328452 0.30325000
v 0.00957847 -0.04323666 0.30337500
v 0.00933796 -0.04403796 0.30312500
v 0.00980946 -0.04333234 0.30312500
v 0.00942634 -0.04412634 0.30300000
v 0.00992494 -0.04338016 0.30300000
v 0.00858452 -0.04439395 0.30325000
v 0.00853669 -0.04427847 0.30337500
v 0.00863234 -0.04450943 0.30312500
v 0.00868019 -0.04462491 0.30300000
v 0.00972499 -0.04250000 0.30337500
v 0.00959999 -0.04250000 0.30350000
v 0.00946299 -0.04318884 0.30350000
v 0.00916121 -0.04386118 0.30337500
v 0.00984999 -0.04250000 0.30325000
v 0.01009999 -0.04250000 0.30300000
v 0.00907280 -0.04377280 0.30350000
v 0.00848884 -0.04416299 0.30350000
v 0.00780000 -0.04429999 0.30350000
v 0.00780000 -0.04454999 0.30325000
v 0.00780000 -0.04479999 0.30300000
v 0.00924959 0.04394958 0.30325000
v 0.00858452 0.04439398 0.30325000
v 0.00853669 0.04427844 0.30337500
v 0.00933796 0.04403796 0.30312500
v 0.00863234 0.04450946 0.30312500
v 0.00942634 0.04412634 0.30300000
v 0.00868019 0.04462494 0.30300000
v 0.00969398 0.04328448 0.30325000
v 0.00957847 0.04323669 0.30337500
v 0.00980946 0.04333234 0.30312500
v 0.00992494 0.04338019 0.30300000
v 0.00780000 0.04429999 0.30350000
v 0.00848884 0.04416296 0.30350000
v 0.00907280 0.04377277 0.30350000
v 0.00780000 0.04454999 0.30325000
v 0.00780000 0.04479999 0.30300000
v 0.00946299 0.04318884 0.30350000
v 0.00984999 0.04250000 0.30325000
v 0.00959999 0.04250000 0.30350000
v 0.01009999 0.04250000 0.30300000
v 0.00997499 0.04250000 0.30312500
v 0.08630000 0.14700000 0.30350000
v 0.08630000 0.13200000 0.30350000
v 0.08642500 0.13200000 0.30337500
v 0.08680000 0.13200000 0.30300000
v 0.08667500 0.14700000 0.30312500
v 0.08655000 0.13200000 0.30325000
v 0.08655000 0.14700000 0.30325000
v 0.08680000 0.14700000 0.30300000
v 0.00959999 0.04250000 0.30350000
v 0.00959999 -0.04250000 0.30350000
v 0.00972499 -0.04250000 0.30337500
v 0.01009999 -0.04250000 0.30300000
v 0.00997499 0.04250000 0.30312500
v 0.00984999 -0.04250000 0.30325000
v 0.00984999 0.04250000 0.30325000
v 0.01009999 0.04250000 0.30300000
v 0.08594956 0.13055042 0.30325000
v 0.08639396 0.13121552 0.30325000
v 0.08627848 0.13126331 0.30337500
v 0.08603797 0.13046204 0.30312500
v 0.08650944 0.13116766 0.30312500
v 0.08612635 0.13037366 0.30300000
v 0.08662492 0.13111981 0.30300000
v 0.08528449 0.13010602 0.30325000
v 0.08523667 0.13022150 0.30337500
v 0.08533234 0.12999054 0.30312500
v 0.08538017 0.12987506 0.30300000
v 0.08642500 0.13200000 0.30337500
v 0.08630000 0.13200000 0.30350000
v 0.08616297 0.13131116 0.30350000
v 0.08577280 0.13072717 0.30350000
v 0.08680000 0.13200000 0.30300000
v 0.08655000 0.13200000 0.30325000
v 0.08518882 0.13033704 0.30350000
v 0.08586118 0.13063879 0.30337500
v 0.08450001 0.12995001 0.30325000
v 0.08450001 0.13020001 0.30350000
v 0.08450001 0.12982501 0.30312500
v 0.08594956 0.14844958 0.30325000
v 0.08528449 0.14889392 0.30325000
v 0.08523667 0.14877844 0.30337500
v 0.08603797 0.14853796 0.30312500
v 0.08533234 0.14900946 0.30312500
v 0.08612635 0.14862634 0.30300000
v 0.08538017 0.14912494 0.30300000
v 0.08639396 0.14778448 0.30325000
v 0.08586118 0.14836115 0.30337500
v 0.08650944 0.14783234 0.30312500
v 0.08662492 0.14788019 0.30300000
v 0.08450001 0.14892499 0.30337500
v 0.08450001 0.14879999 0.30350000
v 0.08518882 0.14866296 0.30350000
v 0.08577280 0.14827277 0.30350000
v 0.08450001 0.14929999 0.30300000
v 0.08450001 0.14904999 0.30325000
v 0.08616297 0.14768884 0.30350000
v 0.08627848 0.14773663 0.30337500
v 0.08655000 0.14700000 0.30325000
v 0.08630000 0.14700000 0.30350000
v 0.08680000 0.14700000 0.30300000
v 0.08667500 0.14700000 0.30312500
v -0.03520000 0.14904999 0.30325000
v -0.03520000 0.14892499 0.30337500
v -0.00620000 0.14892499 0.30337500
v -0.06420000 0.14904999 0.30325000
v -0.06420000 0.14892499 0.30337500
v -0.09320000 0.14904999 0.30325000
v -0.09320000 0.14892499 0.30337500
v -0.03520000 0.14917499 0.30312500
v -0.00620000 0.14904999 0.30325000
v -0.06420000 0.14917499 0.30312500
v -0.09320000 0.14917499 0.30312500
v -0.03520000 0.14929999 0.30300000
v -0.00620000 0.14917499 0.30312500
v -0.06420000 0.14929999 0.30300000
v -0.09320000 0.14929999 0.30300000
v -0.00620000 0.14879999 0.30350000
v 0.02279998 0.14879999 0.30350000
v 0.02279998 0.14892499 0.30337500
v 0.02279998 0.14904999 0.30325000
v -0.03520000 0.14879999 0.30350000
v -0.06420000 0.14879999 0.30350000
v -0.09320000 0.14879999 0.30350000
v 0.02279998 0.14917499 0.30312500
v 0.02279998 0.14929999 0.30300000
v -0.00620000 0.14929999 0.30300000
v -0.00240001 -0.11950000 0.30300000
v -0.00240001 -0.05500000 0.30300000
v -0.00290001 -0.05500000 0.30350000
v 0.02279998 -0.14929999 0.30300000
v 0.08450001 -0.14904999 0.30325000
v 0.02279998 -0.14879999 0.30350000
v 0.08450001 -0.14879999 0.30350000
v 0.08450001 -0.14892499 0.30337500
v 0.08450001 -0.14929999 0.30300000
v 0.08450001 -0.14917499 0.30312500
v 0.02279998 -0.14879999 0.30350000
v -0.09320000 -0.14880002 0.30350000
v -0.09320000 -0.14905002 0.30325000
v -0.09320000 -0.14930002 0.30300000
v 0.02279998 -0.14929999 0.30300000
v 0.08594956 -0.14844955 0.30325000
v 0.08639396 -0.14778448 0.30325000
v 0.08627848 -0.14773666 0.30337500
v 0.08603797 -0.14853796 0.30312500
v 0.08650944 -0.14783234 0.30312500
v 0.08612635 -0.14862634 0.30300000
v 0.08662492 -0.14788016 0.30300000
v 0.08528449 -0.14889395 0.30325000
v 0.08523667 -0.14877847 0.30337500
v 0.08533234 -0.14900943 0.30312500
v 0.08538017 -0.14912491 0.30300000
v 0.08642500 -0.14700000 0.30337500
v 0.08630000 -0.14700000 0.30350000
v 0.08616297 -0.14768881 0.30350000
v 0.08577280 -0.14827280 0.30350000
v 0.08680000 -0.14700000 0.30300000
v 0.08655000 -0.14700000 0.30325000
v 0.08518882 -0.14866296 0.30350000
v 0.08450001 -0.14879999 0.30350000
v 0.08450001 -0.14892499 0.30337500
v 0.08450001 -0.14904999 0.30325000
v 0.08450001 -0.14917499 0.30312500
v -0.10422130 -0.14710773 0.30300000
v -0.09881859 -0.14874661 0.30300000
v -0.10412560 -0.14687677 0.30325000
v -0.10920042 -0.14444632 0.30300000
v -0.10906151 -0.14423846 0.30325000
v -0.11356468 -0.14086469 0.30300000
v -0.11338792 -0.14068790 0.30325000
v -0.11714635 -0.13650043 0.30300000
v -0.11980772 -0.13152130 0.30300000
v -0.11957677 -0.13142563 0.30325000
v -0.12144664 -0.12611859 0.30300000
v -0.12120140 -0.12606982 0.30325000
v -0.09320000 -0.14905002 0.30325000
v -0.09320000 -0.14880002 0.30350000
v -0.09876982 -0.14850143 0.30325000
v -0.10402995 -0.14664578 0.30350000
v -0.09872105 -0.14825623 0.30350000
v -0.10892265 -0.14403061 0.30350000
v -0.11321111 -0.14051114 0.30350000
v -0.11673058 -0.13622266 0.30350000
v -0.11693846 -0.13636154 0.30325000
v -0.12095622 -0.12602106 0.30350000
v -0.11934581 -0.13132996 0.30350000
v -0.12149998 -0.12050000 0.30350000
v -0.12199998 -0.12050000 0.30300000
v 0.08630000 -0.13200000 0.30350000
v 0.08630000 -0.14700000 0.30350000
v 0.08642500 -0.14700000 0.30337500
v 0.08680000 -0.14700000 0.30300000
v 0.08667500 -0.13200000 0.30312500
v 0.08655000 -0.14700000 0.30325000
v 0.08655000 -0.13200000 0.30325000
v 0.08680000 -0.13200000 0.30300000
v -0.12199998 0.12050000 0.30300000
v -0.12199998 -0.12050000 0.30300000
v -0.12149998 -0.12050000 0.30350000
v 0.08594956 -0.13055042 0.30325000
v 0.08528449 -0.13010605 0.30325000
v 0.08523667 -0.13022153 0.30337500
v 0.08603797 -0.13046204 0.30312500
v 0.08533234 -0.12999057 0.30312500
v 0.08612635 -0.13037366 0.30300000
v 0.08538017 -0.12987506 0.30300000
v 0.08639396 -0.13121548 0.30325000
v 0.08586118 -0.13063882 0.30337500
v 0.08650944 -0.13116766 0.30312500
v 0.08662492 -0.13111981 0.30300000
v 0.08450001 -0.13007498 0.30337500
v 0.08450001 -0.13019998 0.30350000
v 0.08518882 -0.13033701 0.30350000
v 0.08577280 -0.13072720 0.30350000
v 0.08450001 -0.12969998 0.30300000
v 0.08450001 -0.12994998 0.30325000
v 0.08616297 -0.13131116 0.30350000
v 0.08627848 -0.13126334 0.30337500
v 0.08655000 -0.13200000 0.30325000
v 0.08630000 -0.13200000 0.30350000
v 0.08680000 -0.13200000 0.30300000
v 0.08667500 -0.13200000 0.30312500
v -0.11982915 0.13146948 0.30300000
v -0.12145207 0.12609113 0.30300000
v -0.11959801 0.13137421 0.30325000
v -0.11719298 0.13643042 0.30300000
v -0.11698466 0.13629211 0.30325000
v -0.11364384 0.14078522 0.30300000
v -0.10931676 0.14436816 0.30300000
v -0.10917686 0.14416095 0.30325000
v -0.10437651 0.14704291 0.30300000
v -0.09901091 0.14870764 0.30300000
v -0.10427946 0.14681250 0.30325000
v -0.09342430 0.14929913 0.30300000
v -0.09342235 0.14904913 0.30325000
v -0.12120683 0.12604254 0.30325000
v -0.12149998 0.12050000 0.30350000
v -0.12096159 0.12599402 0.30350000
v -0.11677641 0.13615387 0.30350000
v -0.11936681 0.13127899 0.30350000
v -0.12199998 0.12050000 0.30300000
v -0.11346635 0.14060913 0.30325000
v -0.10903697 0.14395380 0.30350000
v -0.11328886 0.14043304 0.30350000
v -0.09891008 0.14821796 0.30350000
v -0.09896049 0.14846283 0.30325000
v -0.09342039 0.14879913 0.30350000
v -0.10418248 0.14658209 0.30350000
v 0.00780000 -0.12969998 0.30300000
v 0.08450001 -0.12994998 0.30325000
v 0.08450001 -0.12969998 0.30300000
v 0.00780000 -0.13019998 0.30350000
v 0.08450001 -0.13007498 0.30337500
v 0.08450001 -0.13019998 0.30350000
v -0.00185454 -0.12349902 0.30325000
v -0.00162358 -0.12340335 0.30300000
v -0.00220400 -0.12148993 0.30300000
v -0.00088884 -0.12530569 0.30325000
v -0.00068099 -0.12516681 0.30300000
v 0.00041075 -0.12688925 0.30325000
v 0.00058754 -0.12671249 0.30300000
v 0.00199431 -0.12818884 0.30325000
v 0.00213319 -0.12798099 0.30300000
v 0.00380098 -0.12915454 0.30325000
v 0.00389662 -0.12892355 0.30300000
v 0.00576130 -0.12974921 0.30325000
v 0.00581007 -0.12950400 0.30300000
v -0.00244921 -0.12153870 0.30325000
v -0.00240001 -0.11950000 0.30300000
v -0.00269438 -0.12158746 0.30350000
v -0.00208550 -0.12359470 0.30350000
v -0.00290001 -0.11950000 0.30350000
v -0.00109673 -0.12544461 0.30350000
v 0.00370527 -0.12938550 0.30350000
v 0.00780000 -0.12969998 0.30300000
v 0.00780000 -0.13019998 0.30350000
v 0.00571254 -0.12999438 0.30350000
v 0.00023396 -0.12706604 0.30350000
v -0.10892265 -0.14403061 0.30350000
v -0.12149998 -0.12050000 0.30350000
v -0.11321111 -0.14051114 0.30350000
v -0.09872105 -0.14825623 0.30350000
v -0.10402995 -0.14664578 0.30350000
v -0.09320000 -0.14880002 0.30350000
v -0.11934581 -0.13132996 0.30350000
v -0.12095622 -0.12602106 0.30350000
v -0.11673058 -0.13622266 0.30350000
v -0.00290001 -0.05500000 0.30350000
v -0.00290001 -0.11950000 0.30350000
v -0.00269438 -0.05291254 0.30350000
v -0.00269438 -0.12158746 0.30350000
v -0.00208550 -0.12359470 0.30350000
v 0.00023396 -0.12706604 0.30350000
v -0.00109673 -0.12544461 0.30350000
v 0.00185542 -0.12839673 0.30350000
v -0.00109673 -0.04905539 0.30350000
v -0.00208550 0.05090527 0.30350000
v -0.00208550 -0.05090527 0.30350000
v 0.00023396 0.04743396 0.30350000
v 0.00023396 -0.04743396 0.30350000
v 0.00185542 -0.04610327 0.30350000
v -0.00109673 0.04905542 0.30350000
v -0.12149998 0.12050000 0.30350000
v 0.02279998 -0.14879999 0.30350000
v -0.11936681 0.13127899 0.30350000
v -0.12096159 0.12599402 0.30350000
v -0.11677641 0.13615387 0.30350000
v -0.11328886 0.14043304 0.30350000
v -0.10903697 0.14395380 0.30350000
v -0.10418248 0.14658209 0.30350000
v -0.09891008 0.14821796 0.30350000
v -0.09342039 0.14879913 0.30350000
v -0.09320000 0.14879999 0.30350000
v -0.06420000 0.14879999 0.30350000
v -0.00290001 0.05500000 0.30350000
v -0.03520000 0.14879999 0.30350000
v -0.00290001 0.11950000 0.30350000
v -0.00269438 0.05291254 0.30350000
v -0.00620000 0.14879999 0.30350000
v -0.00269438 0.12158746 0.30350000
v -0.00208550 0.12359473 0.30350000
v -0.00109673 0.12544458 0.30350000
v 0.00023396 0.12706604 0.30350000
v 0.00185542 0.12839673 0.30350000
v 0.00185542 0.04610327 0.30350000
v 0.00370527 -0.04511450 0.30350000
v 0.00370527 0.04511450 0.30350000
v 0.00780000 -0.13019998 0.30350000
v 0.00571254 -0.12999438 0.30350000
v 0.00370527 -0.12938550 0.30350000
v 0.00959999 -0.04250000 0.30350000
v 0.00571254 -0.04450558 0.30350000
v 0.00848884 -0.04416299 0.30350000
v 0.00780000 -0.04429999 0.30350000
v 0.00907280 -0.04377280 0.30350000
v 0.00946299 -0.04318884 0.30350000
v 0.00959999 0.04250000 0.30350000
v 0.08450001 -0.14879999 0.30350000
v 0.08450001 -0.13019998 0.30350000
v 0.08577280 -0.14827280 0.30350000
v 0.08630000 -0.14700000 0.30350000
v 0.08518882 -0.14866296 0.30350000
v 0.08616297 -0.14768881 0.30350000
v 0.08577280 -0.13072720 0.30350000
v 0.08518882 -0.13033701 0.30350000
v 0.08630000 -0.13200000 0.30350000
v 0.08616297 -0.13131116 0.30350000
v 0.00780000 0.04429999 0.30350000
v 0.00571254 0.04450562 0.30350000
v 0.00848884 0.04416296 0.30350000
v 0.00907280 0.04377277 0.30350000
v 0.00780000 0.13020001 0.30350000
v 0.02279998 0.14879999 0.30350000
v 0.00571254 0.12999438 0.30350000
v 0.00370527 0.12938550 0.30350000
v 0.00946299 0.04318884 0.30350000
v 0.08630000 0.13200000 0.30350000
v 0.08450001 0.13020001 0.30350000
v 0.08518882 0.13033704 0.30350000
v 0.08577280 0.13072717 0.30350000
v 0.08616297 0.13131116 0.30350000
v 0.08630000 0.14700000 0.30350000
v 0.08450001 0.14879999 0.30350000
v 0.08518882 0.14866296 0.30350000
v 0.08616297 0.14768884 0.30350000
v 0.08577280 0.14827277 0.30350000
v 0.08450001 0.14879999 0.30350000
v -0.00208550 0.05090527 0.30350000
v -0.00290001 0.05500000 0.30350000
v -0.00208550 0.12359473 0.30350000
v 0.08450001 0.13020001 0.30350000
v 0.00916121 0.04386121 0.30337500
v 0.08450001 0.12970001 0.30300000
v -0.00290001 -0.11950000 0.30350000
v 0.08586118 -0.14836118 0.30337500
v 0.08450001 -0.14929999 0.30300000
v -0.09320000 -0.14930002 0.30300000
v -0.12149998 0.12050000 0.30350000
v 0.00185542 -0.12839673 0.30350000
f 1 2 3
f 4 5 6
f 7 8 2
f 7 6 8
f 9 10 11
f 12 13 10
f 14 15 12
f 16 17 14
f 18 19 17
f 20 21 18
f 22 23 24
f 9 23 25
f 26 25 22
f 12 9 27
f 28 29 12
f 16 14 30
f 31 21 20
f 18 16 32
f 33 34 20
f 31 20 34
f 20 18 33
f 35 36 37
f 38 39 35
f 40 41 38
f 42 43 41
f 44 45 42
f 46 47 44
f 48 49 50
f 35 49 51
f 49 48 51
f 52 53 38
f 38 35 52
f 44 42 54
f 55 47 46
f 42 40 56
f 57 58 59
f 46 44 57
f 60 61 62
f 63 64 61
f 65 66 64
f 67 68 66
f 69 70 68
f 71 72 69
f 73 62 74
f 60 73 75
f 63 60 76
f 77 73 74
f 75 73 77
f 65 63 78
f 69 67 79
f 71 80 72
f 81 80 71
f 71 69 82
f 67 65 83
f 71 82 81
f 84 85 86
f 87 88 86
f 84 86 88
f 89 90 91
f 92 93 90
f 90 93 91
f 94 95 96
f 97 98 94
f 99 100 98
f 101 94 102
f 103 97 101
f 104 99 97
f 105 106 96
f 96 107 108
f 96 95 109
f 98 110 109
f 109 95 98
f 110 98 100
f 108 111 102
f 102 112 113
f 114 102 113
f 114 103 101
f 104 103 115
f 114 115 103
f 114 101 102
f 116 117 118
f 119 120 117
f 121 122 119
f 123 116 124
f 125 119 116
f 126 121 119
f 118 127 128
f 118 128 129
f 130 127 118
f 131 130 120
f 131 120 122
f 117 130 118
f 132 124 129
f 133 123 124
f 132 134 124
f 134 133 124
f 126 125 135
f 133 136 123
f 137 138 139
f 140 141 142
f 142 143 139
f 139 143 137
f 140 144 141
f 145 146 147
f 148 149 150
f 150 151 147
f 147 151 145
f 148 152 149
f 153 154 155
f 156 157 153
f 158 159 156
f 160 153 161
f 162 156 153
f 163 158 162
f 164 165 166
f 155 166 167
f 155 154 164
f 157 168 169
f 169 154 157
f 168 157 159
f 170 161 171
f 172 160 161
f 170 173 161
f 173 172 161
f 163 162 174
f 172 174 160
f 175 176 177
f 178 179 175
f 180 181 179
f 182 175 183
f 184 178 175
f 185 180 178
f 186 187 188
f 177 188 189
f 177 176 186
f 190 191 179
f 190 179 181
f 192 193 183
f 194 182 193
f 192 195 193
f 195 194 193
f 185 184 196
f 194 197 182
f 198 199 200
f 201 202 199
f 203 204 202
f 205 198 206
f 207 201 198
f 208 203 201
f 209 205 210
f 211 207 205
f 212 208 207
f 213 214 215
f 200 215 216
f 200 199 217
f 218 217 199
f 219 218 202
f 206 216 220
f 221 222 210
f 223 224 225
f 226 227 228
f 229 228 230
f 226 231 232
f 226 232 227
f 233 234 235
f 236 237 235
f 233 235 237
f 238 239 240
f 241 242 238
f 243 244 242
f 245 238 246
f 247 241 238
f 248 243 247
f 249 250 251
f 240 251 252
f 240 239 249
f 242 253 254
f 254 239 242
f 253 242 244
f 255 246 252
f 256 257 255
f 257 258 245
f 247 245 259
f 248 247 259
f 260 261 262
f 263 260 264
f 265 263 266
f 267 265 266
f 268 267 269
f 270 268 271
f 272 273 274
f 275 262 276
f 277 264 275
f 274 261 272
f 264 277 278
f 279 280 266
f 281 271 282
f 271 281 283
f 282 269 280
f 270 271 284
f 283 284 271
f 285 286 287
f 288 289 290
f 290 291 287
f 287 291 285
f 288 292 289
f 293 294 295
f 296 297 298
f 299 300 296
f 301 302 300
f 303 296 304
f 305 299 303
f 306 301 299
f 307 308 309
f 298 309 310
f 298 297 307
f 311 312 300
f 311 300 302
f 313 314 304
f 315 303 314
f 313 316 314
f 316 315 314
f 306 305 317
f 315 318 305
f 319 320 321
f 322 319 323
f 324 322 323
f 325 324 326
f 327 325 326
f 328 327 329
f 330 328 331
f 332 333 334
f 335 323 336
f 336 321 334
f 320 337 332
f 333 332 337
f 323 335 338
f 339 326 340
f 341 342 329
f 343 331 342
f 344 329 326
f 345 346 347
f 348 349 346
f 350 349 348
f 345 348 346
f 351 352 353
f 354 355 351
f 356 357 355
f 358 359 357
f 360 361 358
f 362 363 360
f 364 353 365
f 351 364 366
f 354 351 367
f 368 364 365
f 366 364 368
f 356 354 369
f 360 358 370
f 362 371 363
f 372 371 362
f 362 360 373
f 358 356 374
f 362 373 372
f 375 376 377
f 378 376 379
f 376 375 379
f 380 376 378
f 381 376 382
f 383 376 381
f 380 384 376
f 384 380 385
f 377 376 383
f 386 376 384
f 385 380 387
f 380 388 387
f 380 389 390
f 380 391 389
f 390 388 380
f 392 393 394
f 394 393 386
f 395 396 397
f 398 392 396
f 376 386 399
f 391 380 400
f 398 396 395
f 401 402 399
f 401 399 403
f 404 403 399
f 404 399 405
f 405 399 406
f 406 399 407
f 399 408 407
f 408 399 409
f 409 399 410
f 410 399 411
f 412 411 413
f 414 411 399
f 393 414 386
f 411 412 410
f 415 412 416
f 413 416 412
f 417 415 416
f 415 418 419
f 415 417 418
f 420 415 419
f 414 399 386
f 393 392 398
f 421 395 397
f 422 423 397
f 400 424 425
f 425 426 400
f 427 422 428
f 429 427 430
f 431 427 429
f 422 427 423
f 432 427 431
f 430 427 428
f 433 423 427
f 434 435 400
f 436 437 438
f 437 434 438
f 437 436 439
f 440 441 442
f 435 442 441
f 443 440 442
f 437 442 434
f 424 400 435
f 400 426 391
f 444 445 433
f 446 433 447
f 433 446 444
f 445 423 433
f 423 421 397
f 415 448 449
f 450 448 415
f 451 450 415
f 452 447 433
f 453 454 455
f 453 456 457
f 455 456 453
f 453 458 459
f 460 459 458
f 459 449 454
f 461 462 458
f 460 458 462
f 420 451 415
f 1 3 463
f 4 6 7
f 7 2 1
f 9 11 23
f 12 10 9
f 15 13 12
f 17 15 14
f 18 17 16
f 21 19 18
f 23 11 24
f 9 25 27
f 25 23 22
f 12 27 28
f 29 14 12
f 14 29 30
f 16 30 32
f 18 32 33
f 35 37 49
f 39 36 35
f 41 39 38
f 42 41 40
f 45 43 42
f 47 45 44
f 49 37 50
f 35 51 464
f 48 465 51
f 53 40 38
f 35 464 52
f 42 56 54
f 55 46 59
f 40 53 56
f 57 59 46
f 44 54 57
f 60 62 73
f 63 61 60
f 65 64 63
f 67 66 65
f 69 68 67
f 72 70 69
f 60 75 76
f 63 76 78
f 65 78 83
f 69 79 466
f 69 466 82
f 67 83 79
f 89 91 467
f 94 96 108
f 98 95 94
f 99 98 97
f 94 108 102
f 97 94 101
f 104 97 103
f 106 107 96
f 107 111 108
f 96 109 105
f 111 112 102
f 116 118 468
f 119 117 116
f 122 120 119
f 116 468 124
f 125 116 123
f 126 119 125
f 118 129 468
f 130 117 120
f 124 468 129
f 125 136 135
f 136 125 123
f 141 143 142
f 149 151 150
f 153 155 171
f 157 154 153
f 159 157 156
f 153 171 161
f 162 153 160
f 158 156 162
f 164 166 155
f 155 167 171
f 154 169 164
f 170 171 167
f 163 174 469
f 174 162 160
f 175 177 183
f 179 176 175
f 180 179 178
f 182 183 193
f 184 175 182
f 185 178 184
f 186 188 177
f 177 189 183
f 176 191 186
f 191 176 179
f 192 183 189
f 184 197 196
f 197 184 182
f 198 200 206
f 201 199 198
f 203 202 201
f 205 206 210
f 207 198 205
f 208 201 207
f 209 210 222
f 211 205 209
f 212 207 211
f 213 215 200
f 200 216 206
f 200 217 213
f 218 199 202
f 219 202 204
f 206 220 210
f 221 210 220
f 223 225 470
f 227 230 228
f 238 240 471
f 242 239 238
f 243 242 241
f 238 471 246
f 247 238 245
f 243 241 247
f 249 251 240
f 240 252 471
f 239 254 249
f 246 471 252
f 257 246 255
f 257 245 246
f 245 258 259
f 248 259 472
f 261 274 262
f 260 262 264
f 263 264 266
f 267 266 280
f 267 280 269
f 268 269 271
f 273 276 274
f 262 274 276
f 264 262 275
f 261 473 272
f 264 278 266
f 279 266 278
f 271 269 282
f 282 280 279
f 289 291 290
f 293 295 474
f 296 298 304
f 300 297 296
f 301 300 299
f 303 304 314
f 299 296 303
f 306 299 305
f 307 309 298
f 298 310 304
f 297 312 307
f 312 297 300
f 313 304 310
f 305 318 317
f 315 305 303
f 320 332 321
f 319 321 323
f 324 323 338
f 324 338 326
f 327 326 329
f 328 329 342
f 328 342 331
f 323 321 336
f 321 332 334
f 335 340 338
f 326 338 340
f 341 329 344
f 343 342 341
f 344 326 339
f 351 353 364
f 355 352 351
f 356 355 354
f 358 357 356
f 361 359 358
f 363 361 360
f 351 366 367
f 354 367 369
f 356 369 374
f 358 475 370
f 360 370 373
f 358 374 475
f 442 435 434
f 453 459 454
f 449 448 454

