# https://github.com/mikedh/trimesh

o mesh-c922fbd1-ad62-438d-87b6-cbe1a8f560b3
v 0.07204999 0.15000000 0.27550000
v 0.07204999 0.15000000 0.28300000
v 0.07204999 0.15050000 0.28300000
v 0.07204999 0.14950000 0.27550000
v 0.07204999 0.14950000 0.28300000
v 0.07204999 0.14975000 0.28300000
v 0.07204999 0.14975000 0.27550000
v 0.11929999 0.15050000 1.11000000
v 0.11929999 0.15050000 0.92500000
v 0.02379998 0.15050000 0.97566663
v 0.11929999 0.15050000 0.74000000
v 0.06589923 0.15050000 0.29784924
v 0.11929999 0.15050000 0.55500000
v 0.07476193 0.15050000 0.27419135
v 0.11929999 0.15050000 0.37000000
v 0.07479999 0.15050000 0.27400000
v 0.07465355 0.15050000 0.27435358
v 0.07429999 0.15050000 0.27450000
v 0.07204999 0.15050000 0.28300000
v 0.07234290 0.15050000 0.27479291
v 0.07304999 0.15050000 0.27450000
v 0.07329999 0.15050000 0.15375000
v 0.07476193 0.15050000 0.27380865
v 0.07045146 0.15050000 0.29103638
v 0.11929999 0.15050000 0.18500000
v 0.02379998 0.15050000 0.84133337
v 0.02379998 0.15050000 0.70700000
v 0.05104998 0.15050000 0.30400000
v 0.02379998 0.15050000 0.57266669
v 0.02379998 0.15050000 0.30400000
v 0.07204999 0.15050000 0.27550000
v 0.07212611 0.15050000 0.27511731
v 0.07479999 0.15050000 0.03350000
v 0.07476193 0.15050000 0.03369135
v 0.07465355 0.15050000 0.27364642
v 0.07449133 0.15050000 0.27353809
v 0.07429999 0.15050000 0.27350000
v 0.07465355 0.15050000 0.03385355
v 0.07429999 0.15050000 0.03400000
v 0.11929999 0.15050000 0.00000000
v 0.07304999 0.15050000 0.00000000
v 0.07476193 0.15050000 0.03330865
v 0.07465355 0.15050000 0.03314645
v 0.07449133 0.15050000 0.03303806
v 0.07329999 0.15050000 0.03400000
v 0.07329999 0.15050000 0.27350000
v 0.07304999 0.15050000 0.03300000
v 0.07266731 0.15050000 0.03292389
v 0.07429999 0.15050000 0.03300000
v 0.07234290 0.15050000 0.00029291
v 0.07266731 0.15050000 0.00007611
v 0.07234290 0.15050000 0.03270709
v 0.07204999 0.15050000 0.03200000
v 0.07204999 0.15050000 0.00100000
v 0.07212611 0.15050000 0.00061731
v -0.00620000 0.00054289 0.30429291
v -0.00620000 0.00032613 0.30461731
v -0.00620000 0.00025000 0.30500000
v -0.00620000 0.00086731 0.30407611
v -0.00620000 0.00125000 0.32250000
v -0.00620000 0.00125000 0.30400000
v -0.00620000 0.00025000 0.32150000
v -0.00620000 0.00054289 0.32220709
v -0.00620000 0.00032613 0.32188269
v -0.00620000 0.00086731 0.32242389
v -0.00620000 0.00250000 0.32250000
v -0.00620000 0.00289091 0.32268823
v -0.00620000 0.00298746 0.32288873
v -0.00620000 0.00271695 0.32254950
v -0.00620000 0.00298746 0.32311127
v -0.00620000 0.12050000 0.30400000
v -0.00620000 0.12050000 0.43833331
v -0.00620000 0.00150000 0.70175000
v -0.00620000 0.00271695 0.32345050
v -0.00620000 0.00250000 0.32350000
v -0.00620000 0.00289091 0.32331177
v -0.00620000 0.12050000 0.57266669
v -0.00620000 0.12050000 0.70700000
v -0.00620000 0.00150000 0.32350000
v -0.00620000 0.00025000 1.08200000
v -0.00620000 0.00086731 1.08107617
v -0.00620000 0.00054289 1.08129285
v -0.00620000 0.00125000 1.11000000
v -0.00620000 0.00125000 1.08100000
v -0.00620000 0.00032613 1.08161731
v -0.00620000 0.00150000 1.08000000
v -0.00620000 0.00250000 1.08000000
v -0.00620000 0.00086731 1.10992383
v -0.00620000 0.00032613 1.10938269
v -0.00620000 0.00054289 1.10970715
v -0.00620000 0.00025000 1.10900000
v -0.00620000 0.00250000 1.08100000
v -0.00620000 0.00289091 1.08018823
v -0.00620000 0.00298746 1.08038879
v -0.00620000 0.00271695 1.08004956
v -0.00620000 0.12050000 0.84133337
v -0.00620000 0.12050000 0.97566663
v -0.00620000 0.00271695 1.08095044
v -0.00620000 0.00289091 1.08081177
v -0.00620000 0.12050000 1.11000000
v -0.00620000 0.00298746 1.08061121
v 0.14929999 0.00054289 0.00029291
v 0.14929999 0.00025000 0.00100000
v 0.14929999 0.00032613 0.00061731
v 0.14929999 0.00086731 0.00007611
v 0.14929999 0.00125000 0.08900000
v 0.14929999 0.00025000 0.08800000
v 0.14929999 0.00054289 0.08870709
v 0.14929999 0.00032613 0.08838269
v 0.14929999 0.00086731 0.08892389
v 0.14929999 0.00125000 0.00000000
v 0.14929999 0.04350000 0.08900000
v 0.14929999 0.05115367 0.09052240
v 0.14929999 0.05764214 0.09485785
v 0.14929999 0.12050000 0.00000000
v 0.14929999 0.06197760 0.10134634
v 0.14929999 0.06350000 0.10900000
v 0.14929999 0.06450000 0.11050000
v 0.14929999 0.00054289 1.06429285
v 0.14929999 0.00025000 1.06500000
v 0.14929999 0.00032613 1.06461731
v 0.14929999 0.00086731 1.06407617
v 0.14929999 0.00086731 1.10992383
v 0.14929999 0.00054289 1.10970715
v 0.14929999 0.00032613 1.10938269
v 0.14929999 0.00025000 1.10900000
v 0.14929999 0.00125000 1.11000000
v 0.14929999 0.06379289 1.04279285
v 0.14929999 0.06350000 1.04400000
v 0.14929999 0.06357613 1.04311731
v 0.14929999 0.06350000 1.04350000
v 0.14929999 0.06450000 1.04250000
v 0.14929999 0.06197760 1.05165369
v 0.14929999 0.00125000 1.06400000
v 0.14929999 0.04350000 1.06400000
v 0.14929999 0.12050000 1.11000000
v 0.14929999 0.05115367 1.06247754
v 0.14929999 0.05764214 1.05814209
v 0.14929999 0.06357613 0.10988269
v 0.14929999 0.06350000 0.10950000
v 0.14929999 0.06379289 0.11020709
v 0.14929999 0.06411732 0.11042389
v 0.14929999 0.06594135 0.11053806
v 0.14929999 0.06575000 0.11050000
v 0.14929999 0.06575000 0.11150000
v 0.14929999 0.06475000 0.57650000
v 0.14929999 0.06475000 0.11150000
v 0.14929999 0.06621194 0.11080865
v 0.14929999 0.06610356 0.11064645
v 0.14929999 0.12050000 0.18500000
v 0.14929999 0.06625000 0.11100000
v 0.14929999 0.06610356 0.11135355
v 0.14929999 0.06594135 0.11146194
v 0.14929999 0.06621194 0.11119135
v 0.14929999 0.12050000 0.37000000
v 0.14929999 0.06575000 1.04150000
v 0.14929999 0.06475000 1.04150000
v 0.14929999 0.06596695 1.04154956
v 0.14929999 0.06411732 1.04257617
v 0.14929999 0.06575000 1.04250000
v 0.14929999 0.06596695 1.04245044
v 0.14929999 0.06614091 1.04231177
v 0.14929999 0.06614091 1.04168823
v 0.14929999 0.12050000 0.55500000
v 0.14929999 0.12050000 0.74000000
v 0.14929999 0.06623747 1.04188879
v 0.14929999 0.12050000 0.92500000
v 0.14929999 0.06623747 1.04211121
v 0.02379998 0.14950000 0.30400000
v 0.02379998 0.15050000 0.30400000
v 0.05104998 0.15000000 0.30400000
v 0.05104998 0.15050000 0.30400000
v 0.05104998 0.15025000 0.30400000
v 0.05104998 0.14950000 0.30400000
v 0.06589923 0.15000000 0.29784924
v 0.05908635 0.15000000 0.30240149
v 0.05908635 0.15025000 0.30240149
v 0.06589923 0.14975000 0.29784924
v 0.05908635 0.14975000 0.30240149
v 0.06589923 0.14950000 0.29784924
v 0.05908635 0.14950000 0.30240149
v 0.07045146 0.15000000 0.29103638
v 0.06589923 0.15025000 0.29784924
v 0.07045146 0.14975000 0.29103638
v 0.07045146 0.14950000 0.29103638
v 0.05104998 0.15025000 0.30400000
v 0.05104998 0.15050000 0.30400000
v 0.06589923 0.15050000 0.29784924
v 0.05104998 0.15000000 0.30400000
v 0.05104998 0.14950000 0.30400000
v 0.07045146 0.15050000 0.29103638
v 0.07045146 0.15025000 0.29103638
v 0.07204999 0.15000000 0.28300000
v 0.07204999 0.15050000 0.28300000
v 0.07204999 0.14975000 0.28300000
v 0.14701639 0.13198050 0.74000000
v 0.14701639 0.13198050 0.92500000
v 0.14872356 0.12635272 0.92500000
v 0.14701639 0.13198050 1.11000000
v 0.14872356 0.12635272 1.11000000
v 0.14701639 0.13198050 0.37000000
v 0.14701639 0.13198050 0.55500000
v 0.14872356 0.12635272 0.55500000
v 0.14872356 0.12635272 0.74000000
v 0.14701639 0.13198050 0.00000000
v 0.14701639 0.13198050 0.18500000
v 0.14872356 0.12635272 0.18500000
v 0.14872356 0.12635272 0.37000000
v 0.14424408 0.13716711 1.11000000
v 0.14424408 0.13716711 0.74000000
v 0.14424408 0.13716711 0.37000000
v 0.14424408 0.13716711 0.00000000
v 0.14051320 0.14171323 0.74000000
v 0.14051320 0.14171323 1.11000000
v 0.14051320 0.14171323 0.37000000
v 0.14051320 0.14171323 0.00000000
v 0.13596710 0.14544409 0.74000000
v 0.13596710 0.14544409 1.11000000
v 0.13596710 0.14544409 0.37000000
v 0.13596710 0.14544409 0.00000000
v 0.13078050 0.14821640 0.92500000
v 0.13078050 0.14821640 0.74000000
v 0.13078050 0.14821640 1.11000000
v 0.13078050 0.14821640 0.55500000
v 0.13078050 0.14821640 0.37000000
v 0.13078050 0.14821640 0.18500000
v 0.13078050 0.14821640 0.00000000
v 0.12515271 0.14992355 0.74000000
v 0.12515271 0.14992355 0.92500000
v 0.12515271 0.14992355 1.11000000
v 0.12515271 0.14992355 0.37000000
v 0.12515271 0.14992355 0.55500000
v 0.12515271 0.14992355 0.00000000
v 0.12515271 0.14992355 0.18500000
v 0.14929999 0.12050000 0.92500000
v 0.14929999 0.12050000 0.74000000
v 0.14929999 0.12050000 0.55500000
v 0.14929999 0.12050000 0.18500000
v 0.14929999 0.12050000 0.00000000
v 0.14872356 0.12635272 0.00000000
v 0.14929999 0.12050000 0.37000000
v 0.11929999 0.15050000 0.92500000
v 0.11929999 0.15050000 1.11000000
v 0.11929999 0.15050000 0.74000000
v 0.11929999 0.15050000 0.18500000
v 0.11929999 0.15050000 0.37000000
v 0.11929999 0.15050000 0.00000000
v 0.11929999 0.15050000 0.55500000
v 0.01231950 0.14821640 0.84133337
v 0.01231950 0.14821640 0.97566663
v 0.01794729 0.14992355 0.97566663
v 0.01231950 0.14821640 1.11000000
v 0.01794729 0.14992355 1.11000000
v 0.01231950 0.14821640 0.57266669
v 0.01231950 0.14821640 0.70700000
v 0.01794729 0.14992355 0.70700000
v 0.01794729 0.14992355 0.84133337
v 0.01231950 0.14821640 0.30400000
v 0.01231950 0.14821640 0.43833331
v 0.01794729 0.14992355 0.43833331
v 0.01794729 0.14992355 0.57266669
v 0.00713289 0.14544409 1.11000000
v 0.00713289 0.14544409 0.84133337
v 0.00713289 0.14544409 0.57266669
v 0.00713289 0.14544409 0.30400000
v 0.00258680 0.14171323 0.84133337
v 0.00258680 0.14171323 1.11000000
v 0.00258680 0.14171323 0.57266669
v 0.00258680 0.14171323 0.30400000
v -0.00114409 0.13716711 0.84133337
v -0.00114409 0.13716711 1.11000000
v -0.00114409 0.13716711 0.57266669
v -0.00114409 0.13716711 0.30400000
v -0.00391637 0.13198050 0.97566663
v -0.00391637 0.13198050 0.84133337
v -0.00391637 0.13198050 1.11000000
v -0.00391637 0.13198050 0.70700000
v -0.00391637 0.13198050 0.57266669
v -0.00391637 0.13198050 0.43833331
v -0.00391637 0.13198050 0.30400000
v -0.00562355 0.12635272 0.84133337
v -0.00562355 0.12635272 0.97566663
v -0.00562355 0.12635272 1.11000000
v -0.00562355 0.12635272 0.57266669
v -0.00562355 0.12635272 0.70700000
v -0.00562355 0.12635272 0.30400000
v -0.00562355 0.12635272 0.43833331
v 0.02379998 0.15050000 0.97566663
v 0.02379998 0.15050000 0.84133337
v 0.02379998 0.15050000 0.70700000
v 0.02379998 0.15050000 0.57266669
v 0.02379998 0.15050000 0.30400000
v 0.01794729 0.14992355 0.30400000
v -0.00620000 0.12050000 0.97566663
v -0.00620000 0.12050000 1.11000000
v -0.00620000 0.12050000 0.84133337
v -0.00620000 0.12050000 0.43833331
v -0.00620000 0.12050000 0.57266669
v -0.00620000 0.12050000 0.30400000
v -0.00620000 0.12050000 0.70700000
v 0.14829999 0.06475000 0.11150000
v 0.14829999 0.06575000 0.11150000
v 0.14879999 0.06575000 0.11150000
v 0.14929999 0.06575000 0.11150000
v 0.14929999 0.06475000 0.11150000
v 0.14879999 0.06610356 0.11135355
v 0.14879999 0.06594135 0.11146194
v 0.14829999 0.06594135 0.11146194
v 0.14879999 0.06621194 0.11119135
v 0.14829999 0.06610356 0.11135355
v 0.14879999 0.06625000 0.11100000
v 0.14829999 0.06621194 0.11119135
v 0.14879999 0.06621194 0.11080865
v 0.14829999 0.06625000 0.11100000
v 0.14879999 0.06610356 0.11064645
v 0.14829999 0.06621194 0.11080865
v 0.14879999 0.06594135 0.11053806
v 0.14829999 0.06610356 0.11064645
v 0.14879999 0.06575000 0.11050000
v 0.14829999 0.06594135 0.11053806
v 0.14879999 0.06575000 0.11150000
v 0.14829999 0.06575000 0.11150000
v 0.14929999 0.06610356 0.11135355
v 0.14929999 0.06594135 0.11146194
v 0.14929999 0.06575000 0.11150000
v 0.14929999 0.06621194 0.11119135
v 0.14929999 0.06621194 0.11080865
v 0.14929999 0.06625000 0.11100000
v 0.14929999 0.06594135 0.11053806
v 0.14929999 0.06610356 0.11064645
v 0.14929999 0.06575000 0.11050000
v 0.14716611 0.06386612 0.11150000
v 0.14893388 0.06386612 0.11150000
v 0.14757164 0.06359515 0.11150000
v 0.14689514 0.06427165 0.11150000
v 0.14799437 0.06450627 0.11150000
v 0.14789412 0.06455455 0.11150000
v 0.14810562 0.06450627 0.11150000
v 0.14852835 0.06359515 0.11150000
v 0.14804999 0.06350000 0.11150000
v 0.14820587 0.06455455 0.11150000
v 0.14782475 0.06464153 0.11150000
v 0.14679999 0.06475000 0.11150000
v 0.14779999 0.06475000 0.11150000
v 0.14929999 0.06475000 0.11150000
v 0.14827524 0.06464153 0.11150000
v 0.14829999 0.06475000 0.11150000
v 0.14689514 0.06427165 0.57650000
v 0.14689514 0.06427165 1.04150000
v 0.14679999 0.06475000 1.04150000
v 0.14716611 0.06386612 0.57650000
v 0.14716611 0.06386612 1.04150000
v 0.14757164 0.06359515 0.57650000
v 0.14757164 0.06359515 1.04150000
v 0.14804999 0.06350000 0.57650000
v 0.14804999 0.06350000 1.04150000
v 0.14852835 0.06359515 0.57650000
v 0.14852835 0.06359515 1.04150000
v 0.14893388 0.06386612 0.57650000
v 0.14893388 0.06386612 1.04150000
v 0.14920485 0.06427165 0.57650000
v 0.14920485 0.06427165 1.04150000
v 0.14679999 0.06475000 0.57650000
v 0.14679999 0.06475000 0.11150000
v 0.14716611 0.06386612 0.11150000
v 0.14689514 0.06427165 0.11150000
v 0.14757164 0.06359515 0.11150000
v 0.14852835 0.06359515 0.11150000
v 0.14929999 0.06475000 0.57650000
v 0.14929999 0.06475000 1.04150000
v 0.14893388 0.06386612 0.11150000
v 0.14804999 0.06350000 0.11150000
v 0.14929999 0.06475000 0.11150000
v -0.00379515 0.00102165 0.70175000
v -0.00379515 0.00102165 0.32350000
v -0.00370000 0.00150000 0.32350000
v -0.00379515 0.00102165 1.08000000
v -0.00370000 0.00150000 0.70175000
v -0.00406612 0.00061612 0.70175000
v -0.00406612 0.00061612 0.32350000
v -0.00406612 0.00061612 1.08000000
v -0.00447164 0.00034515 0.70175000
v -0.00447164 0.00034515 0.32350000
v -0.00447164 0.00034515 1.08000000
v -0.00495000 0.00025000 0.70175000
v -0.00495000 0.00025000 0.32350000
v -0.00495000 0.00025000 1.08000000
v -0.00542833 0.00034515 0.70175000
v -0.00542833 0.00034515 0.32350000
v -0.00542833 0.00034515 1.08000000
v -0.00583388 0.00061612 0.70175000
v -0.00583388 0.00061612 0.32350000
v -0.00583388 0.00061612 1.08000000
v -0.00610485 0.00102165 0.70175000
v -0.00610485 0.00102165 0.32350000
v -0.00610485 0.00102165 1.08000000
v -0.00620000 0.00150000 0.70175000
v -0.00620000 0.00150000 0.32350000
v -0.00620000 0.00150000 1.08000000
v 0.07429999 0.14950000 0.03300000
v 0.07304999 0.14975000 0.03300000
v 0.07304999 0.14950000 0.03300000
v 0.07429999 0.15000000 0.03300000
v 0.07304999 0.15000000 0.03300000
v 0.07429999 0.15050000 0.03300000
v 0.07304999 0.15025000 0.03300000
v 0.07304999 0.15050000 0.03300000
v 0.07465355 0.15000000 0.03314645
v 0.07449133 0.15000000 0.03303806
v 0.07449133 0.14950000 0.03303806
v 0.07476193 0.15000000 0.03330865
v 0.07465355 0.14950000 0.03314645
v 0.07479999 0.15000000 0.03350000
v 0.07476193 0.14950000 0.03330865
v 0.07476193 0.15000000 0.03369135
v 0.07479999 0.14950000 0.03350000
v 0.07465355 0.15000000 0.03385355
v 0.07476193 0.14950000 0.03369135
v 0.07449133 0.15000000 0.03396194
v 0.07465355 0.14950000 0.03385355
v 0.07429999 0.15000000 0.03300000
v 0.07429999 0.14950000 0.03300000
v 0.07465355 0.15050000 0.03314645
v 0.07449133 0.15050000 0.03303806
v 0.07429999 0.15050000 0.03300000
v 0.07476193 0.15050000 0.03330865
v 0.07476193 0.15050000 0.03369135
v 0.07479999 0.15050000 0.03350000
v 0.07429999 0.14950000 0.03400000
v 0.07429999 0.15000000 0.03400000
v 0.07465355 0.15050000 0.03385355
v 0.07429999 0.15050000 0.03400000
v 0.07429999 0.15000000 0.03400000
v 0.07329999 0.15050000 0.03400000
v 0.07429999 0.15050000 0.03400000
v 0.07429999 0.14950000 0.03400000
v 0.07329999 0.14950000 0.03400000
v 0.07429999 0.15000000 0.27350000
v 0.07329999 0.14950000 0.27350000
v 0.07429999 0.14950000 0.27350000
v 0.07429999 0.15050000 0.27350000
v 0.07329999 0.15050000 0.27350000
v 0.07465355 0.15000000 0.27364642
v 0.07449133 0.15000000 0.27353809
v 0.07449133 0.14950000 0.27353809
v 0.07476193 0.15000000 0.27380865
v 0.07465355 0.14950000 0.27364642
v 0.07479999 0.15000000 0.27400000
v 0.07476193 0.14950000 0.27380865
v 0.07476193 0.15000000 0.27419135
v 0.07479999 0.14950000 0.27400000
v 0.07465355 0.15000000 0.27435358
v 0.07476193 0.14950000 0.27419135
v 0.07449133 0.15000000 0.27446191
v 0.07465355 0.14950000 0.27435358
v 0.07429999 0.15000000 0.27350000
v 0.07429999 0.14950000 0.27350000
v 0.07465355 0.15050000 0.27364642
v 0.07449133 0.15050000 0.27353809
v 0.07429999 0.15050000 0.27350000
v 0.07476193 0.15050000 0.27380865
v 0.07476193 0.15050000 0.27419135
v 0.07479999 0.15050000 0.27400000
v 0.07429999 0.14950000 0.27450000
v 0.07429999 0.15000000 0.27450000
v 0.07465355 0.15050000 0.27435358
v 0.07429999 0.15050000 0.27450000
v 0.07429999 0.14950000 0.27450000
v 0.07304999 0.14950000 0.27450000
v 0.07304999 0.14975000 0.27450000
v 0.07429999 0.15000000 0.27450000
v 0.07304999 0.15000000 0.27450000
v 0.07304999 0.15025000 0.27450000
v 0.07429999 0.15050000 0.27450000
v 0.07304999 0.15050000 0.27450000
v 0.07329999 0.14900000 0.27350000
v 0.08104999 0.14875000 0.27350000
v 0.08104999 0.14900000 0.27350000
v 0.08104999 0.14850000 0.27350000
v 0.08104999 0.14825000 0.27350000
v 0.07329999 0.14800000 0.27350000
v 0.08104999 0.14800000 0.27350000
v 0.07306903 0.14934567 0.03400000
v 0.07241611 0.15013388 0.03400000
v 0.07282164 0.15040485 0.03400000
v 0.07304999 0.14925000 0.03400000
v 0.07214514 0.14972836 0.03400000
v 0.07241611 0.14836612 0.03400000
v 0.07312321 0.14942679 0.03400000
v 0.07320433 0.14948099 0.03400000
v 0.07329999 0.15050000 0.03400000
v 0.07329999 0.14950000 0.03400000
v 0.07204999 0.14925000 0.03400000
v 0.07214514 0.14877167 0.03400000
v 0.07306903 0.14915433 0.03400000
v 0.07312321 0.14907324 0.03400000
v 0.07329999 0.14900000 0.03400000
v 0.07329999 0.14800000 0.03400000
v 0.07241611 0.14836612 0.27350000
v 0.07304999 0.14925000 0.27350000
v 0.07241611 0.15013388 0.27350000
v 0.07214514 0.14972836 0.27350000
v 0.07214514 0.14877167 0.27350000
v 0.07204999 0.14925000 0.27350000
v 0.07306903 0.14934567 0.27350000
v 0.07312321 0.14942679 0.27350000
v 0.07329999 0.14950000 0.27350000
v 0.07329999 0.15050000 0.27350000
v 0.07306903 0.14915433 0.27350000
v 0.07282164 0.14809515 0.27350000
v 0.07312321 0.14907324 0.27350000
v 0.07320433 0.14901904 0.27350000
v 0.07329999 0.14800000 0.27350000
v 0.07329999 0.14900000 0.27350000
v 0.07329999 0.14800000 0.15375000
v 0.07282164 0.14809515 0.15375000
v 0.07329999 0.14800000 0.03400000
v 0.07241611 0.14836612 0.03400000
v 0.07329999 0.14800000 0.27350000
v 0.07241611 0.14836612 0.15375000
v 0.07214514 0.14877167 0.03400000
v 0.07214514 0.14877167 0.15375000
v 0.07204999 0.14925000 0.15375000
v 0.07204999 0.14925000 0.03400000
v 0.07282164 0.14809515 0.27350000
v 0.07241611 0.14836612 0.27350000
v 0.07214514 0.14877167 0.27350000
v 0.07204999 0.14925000 0.27350000
v 0.07214514 0.14972836 0.03400000
v 0.07214514 0.14972836 0.15375000
v 0.07241611 0.15013388 0.15375000
v 0.07241611 0.15013388 0.03400000
v 0.07282164 0.15040485 0.03400000
v 0.07329999 0.15050000 0.03400000
v 0.07282164 0.15040485 0.15375000
v 0.07214514 0.14972836 0.27350000
v 0.07241611 0.15013388 0.27350000
v 0.07329999 0.15050000 0.27350000
v 0.07329999 0.15050000 0.15375000
v 0.07329999 0.14900000 0.15375000
v 0.07329999 0.14900000 0.03400000
v 0.07320433 0.14901904 0.15375000
v 0.07312321 0.14907324 0.03400000
v 0.07320433 0.14901904 0.27350000
v 0.07329999 0.14900000 0.27350000
v 0.07306903 0.14915433 0.03400000
v 0.07306903 0.14915433 0.15375000
v 0.07312321 0.14907324 0.15375000
v 0.07304999 0.14925000 0.03400000
v 0.07306903 0.14915433 0.27350000
v 0.07312321 0.14907324 0.27350000
v 0.07304999 0.14925000 0.15375000
v 0.07306903 0.14934567 0.03400000
v 0.07306903 0.14934567 0.15375000
v 0.07312321 0.14942679 0.03400000
v 0.07306903 0.14934567 0.27350000
v 0.07304999 0.14925000 0.27350000
v 0.07320433 0.14948099 0.03400000
v 0.07320433 0.14948099 0.15375000
v 0.07312321 0.14942679 0.15375000
v 0.07329999 0.14950000 0.03400000
v 0.07329999 0.14950000 0.15375000
v 0.07329999 0.14950000 0.27350000
v 0.07312321 0.14942679 0.27350000
v 0.07234290 0.14975000 0.27479291
v 0.07234290 0.14950000 0.27479291
v 0.07212611 0.14950000 0.27511731
v 0.07234290 0.15000000 0.27479291
v 0.07212611 0.14975000 0.27511731
v 0.07234290 0.15025000 0.27479291
v 0.07212611 0.15000000 0.27511731
v 0.07266731 0.14975000 0.27457611
v 0.07266731 0.14950000 0.27457611
v 0.07266731 0.15000000 0.27457611
v 0.07266731 0.15025000 0.27457611
v 0.07204999 0.14975000 0.27550000
v 0.07204999 0.15000000 0.27550000
v 0.07204999 0.15050000 0.27550000
v 0.07212611 0.15025000 0.27511731
v 0.07212611 0.15050000 0.27511731
v 0.07234290 0.15050000 0.27479291
v 0.07304999 0.14975000 0.27450000
v 0.07304999 0.14950000 0.27450000
v 0.07304999 0.15000000 0.27450000
v 0.07304999 0.15050000 0.27450000
v 0.07304999 0.15025000 0.27450000
v 0.08175710 0.14875000 0.27320709
v 0.08175710 0.14900000 0.27320709
v 0.08143268 0.14900000 0.27342389
v 0.08175710 0.14850000 0.27320709
v 0.08143268 0.14875000 0.27342389
v 0.08175710 0.14825000 0.27320709
v 0.08143268 0.14850000 0.27342389
v 0.08175710 0.14800000 0.27320709
v 0.08143268 0.14825000 0.27342389
v 0.08197388 0.14875000 0.27288269
v 0.08197388 0.14900000 0.27288269
v 0.08197388 0.14850000 0.27288269
v 0.08197388 0.14825000 0.27288269
v 0.08197388 0.14800000 0.27288269
v 0.08204999 0.14875000 0.27250000
v 0.08204999 0.14900000 0.27250000
v 0.08204999 0.14850000 0.27250000
v 0.08204999 0.14825000 0.27250000
v 0.08204999 0.14800000 0.27250000
v 0.08104999 0.14875000 0.27350000
v 0.08104999 0.14825000 0.27350000
v 0.08104999 0.14800000 0.27350000
v 0.08143268 0.14800000 0.27342389
v 0.08104999 0.14850000 0.27350000
v 0.07234290 0.14975000 0.03270709
v 0.07234290 0.14950000 0.03270709
v 0.07266731 0.14950000 0.03292389
v 0.07234290 0.15000000 0.03270709
v 0.07266731 0.14975000 0.03292389
v 0.07234290 0.15025000 0.03270709
v 0.07266731 0.15000000 0.03292389
v 0.07212611 0.14975000 0.03238269
v 0.07212611 0.14950000 0.03238269
v 0.07212611 0.15000000 0.03238269
v 0.07212611 0.15025000 0.03238269
v 0.07204999 0.14975000 0.03200000
v 0.07204999 0.14950000 0.03200000
v 0.07204999 0.15000000 0.03200000
v 0.07204999 0.15025000 0.03200000
v 0.07304999 0.14975000 0.03300000
v 0.07304999 0.15025000 0.03300000
v 0.07266731 0.15025000 0.03292389
v 0.07304999 0.15000000 0.03300000
v 0.07304999 0.15050000 0.03300000
v 0.07266731 0.15050000 0.03292389
v 0.07234290 0.15050000 0.03270709
v 0.07204999 0.15050000 0.03200000
v 0.07204999 0.15050000 0.27550000
v 0.02379998 0.15050000 1.11000000
v 0.07204999 0.14950000 0.28300000
v 0.14929999 0.12050000 1.11000000
v 0.02379998 0.15050000 1.11000000
v 0.14829999 0.06575000 0.11050000
v -0.00370000 0.00150000 1.08000000
v 0.07449133 0.14950000 0.03396194
v 0.07449133 0.14950000 0.27446191
v 0.07204999 0.14950000 0.27550000
v 0.08104999 0.14900000 0.27350000
v 0.07304999 0.14950000 0.03300000
f 1 2 3
f 4 5 6
f 7 6 2
f 8 9 10
f 11 12 9
f 13 14 11
f 15 16 13
f 17 18 19
f 20 19 21
f 13 16 14
f 16 22 23
f 17 19 14
f 21 19 18
f 24 11 14
f 25 16 15
f 26 10 9
f 12 27 26
f 12 28 27
f 28 29 27
f 29 28 30
f 31 19 32
f 20 32 19
f 9 12 26
f 11 24 12
f 24 14 19
f 22 33 34
f 25 22 16
f 23 22 35
f 22 36 35
f 22 37 36
f 38 22 34
f 38 39 22
f 25 33 22
f 40 33 25
f 41 42 33
f 42 41 43
f 43 41 44
f 33 40 41
f 22 39 45
f 37 22 46
f 47 41 48
f 41 47 49
f 50 48 51
f 52 48 50
f 53 52 50
f 54 53 50
f 54 50 55
f 41 51 48
f 41 49 44
f 56 57 58
f 58 59 56
f 60 61 59
f 62 59 58
f 63 62 64
f 65 62 63
f 66 61 60
f 65 60 59
f 62 65 59
f 67 68 61
f 69 67 61
f 70 71 68
f 68 71 61
f 72 71 70
f 66 69 61
f 73 74 75
f 76 74 73
f 70 77 72
f 77 70 73
f 73 70 76
f 77 73 78
f 75 79 73
f 80 81 82
f 81 83 84
f 85 80 82
f 86 87 73
f 88 81 80
f 89 90 91
f 88 83 81
f 90 88 91
f 83 92 84
f 93 94 73
f 95 93 73
f 73 96 78
f 96 94 97
f 96 73 94
f 95 73 87
f 98 92 83
f 99 98 83
f 100 94 101
f 83 101 99
f 97 94 100
f 100 101 83
f 102 103 104
f 103 102 105
f 103 106 107
f 108 109 107
f 107 110 108
f 106 110 107
f 111 103 105
f 103 111 106
f 112 106 111
f 111 113 112
f 114 113 115
f 114 115 116
f 117 116 118
f 111 115 113
f 119 120 121
f 120 119 122
f 123 120 122
f 124 125 126
f 126 123 124
f 123 126 120
f 123 122 127
f 128 129 130
f 131 130 129
f 132 133 129
f 122 134 127
f 135 127 134
f 136 127 137
f 127 135 137
f 138 136 137
f 138 133 136
f 139 140 117
f 141 139 117
f 142 141 117
f 117 118 142
f 143 144 116
f 145 146 147
f 118 116 144
f 148 149 116
f 150 151 115
f 148 115 151
f 149 143 116
f 152 146 153
f 146 154 151
f 150 155 151
f 146 152 154
f 146 145 153
f 148 116 115
f 155 146 151
f 156 157 146
f 158 156 146
f 129 159 132
f 132 160 133
f 160 161 133
f 162 133 161
f 163 158 146
f 146 164 165
f 166 146 165
f 167 166 165
f 136 168 166
f 166 163 146
f 162 168 136
f 166 167 136
f 162 136 133
f 164 146 155
f 129 128 159
f 169 170 171
f 172 173 170
f 169 171 174
f 175 176 177
f 178 179 176
f 180 181 179
f 182 175 183
f 184 178 175
f 185 180 178
f 177 186 187
f 187 188 177
f 177 176 189
f 179 190 189
f 189 176 179
f 190 179 181
f 177 188 183
f 191 192 183
f 193 182 192
f 191 194 192
f 194 193 192
f 185 184 195
f 193 195 184
f 196 197 198
f 197 199 200
f 201 202 203
f 202 196 204
f 205 206 207
f 206 201 208
f 197 209 199
f 210 197 196
f 209 197 210
f 202 210 196
f 211 202 201
f 210 202 211
f 206 211 201
f 212 206 205
f 211 206 212
f 213 214 209
f 215 213 210
f 216 215 211
f 217 218 214
f 219 217 213
f 220 219 215
f 221 217 222
f 218 221 223
f 217 221 218
f 224 219 225
f 217 224 222
f 219 224 217
f 226 220 227
f 219 226 225
f 220 226 219
f 228 229 221
f 229 230 223
f 231 232 224
f 232 228 222
f 233 234 226
f 234 231 225
f 235 198 200
f 236 204 198
f 204 236 237
f 238 207 208
f 239 240 207
f 203 237 241
f 229 242 243
f 228 244 242
f 244 228 232
f 234 245 246
f 233 247 245
f 248 232 231
f 249 250 251
f 250 252 253
f 254 255 256
f 255 249 257
f 258 259 260
f 259 254 261
f 250 262 252
f 263 250 249
f 262 250 263
f 255 263 249
f 264 255 254
f 263 255 264
f 259 264 254
f 265 259 258
f 264 259 265
f 266 267 262
f 268 266 263
f 269 268 264
f 270 271 267
f 272 270 266
f 273 272 268
f 274 270 275
f 271 274 276
f 270 274 271
f 277 272 278
f 270 277 275
f 272 277 270
f 279 273 280
f 272 279 278
f 273 279 272
f 281 282 274
f 282 283 276
f 284 285 277
f 285 281 275
f 286 287 279
f 287 284 278
f 288 251 253
f 289 257 251
f 257 289 290
f 291 261 256
f 260 291 292
f 292 293 260
f 291 260 261
f 282 294 295
f 281 296 294
f 296 281 285
f 287 297 298
f 286 299 297
f 300 285 284
f 301 302 303
f 304 305 303
f 301 303 305
f 306 307 308
f 309 306 310
f 311 309 312
f 313 311 314
f 315 313 316
f 317 315 318
f 319 317 320
f 321 322 308
f 306 323 324
f 307 324 325
f 309 326 323
f 326 309 311
f 313 327 328
f 317 329 330
f 319 331 329
f 315 330 327
f 332 333 334
f 332 335 336
f 337 336 335
f 336 338 332
f 339 340 334
f 341 333 338
f 334 333 339
f 332 338 333
f 342 337 335
f 342 343 344
f 342 335 343
f 345 341 346
f 346 347 345
f 333 341 345
f 348 349 350
f 351 352 349
f 353 354 352
f 355 356 354
f 357 358 356
f 359 360 358
f 361 362 360
f 348 363 364
f 353 351 365
f 351 348 366
f 355 353 367
f 359 357 368
f 361 369 370
f 371 361 359
f 357 355 372
f 371 373 361
f 369 361 373
f 374 375 376
f 377 374 378
f 379 380 375
f 381 379 374
f 382 383 380
f 384 382 379
f 385 386 383
f 387 385 382
f 388 389 386
f 390 388 385
f 391 392 389
f 393 391 388
f 394 395 392
f 396 394 391
f 394 397 398
f 396 399 397
f 400 401 402
f 401 400 403
f 403 404 401
f 405 406 403
f 406 405 407
f 408 409 410
f 411 408 412
f 413 411 414
f 415 413 416
f 417 415 418
f 419 417 420
f 421 422 410
f 408 423 424
f 409 424 425
f 411 426 423
f 426 411 413
f 415 427 428
f 429 430 419
f 417 431 427
f 432 419 430
f 431 419 432
f 417 419 431
f 433 434 435
f 436 437 433
f 434 433 437
f 438 439 440
f 441 442 438
f 439 438 442
f 443 444 445
f 446 443 447
f 448 446 449
f 450 448 451
f 452 450 453
f 454 452 455
f 456 457 445
f 443 458 459
f 444 459 460
f 446 461 458
f 461 446 448
f 450 462 463
f 464 465 454
f 452 466 462
f 467 454 465
f 466 454 467
f 452 454 466
f 468 469 470
f 471 472 473
f 472 471 470
f 471 473 474
f 474 473 475
f 468 470 471
f 476 477 478
f 476 479 477
f 480 479 481
f 476 481 479
f 480 481 482
f 483 484 485
f 483 486 484
f 487 484 488
f 489 483 485
f 490 491 492
f 485 491 490
f 490 489 485
f 493 487 494
f 487 488 494
f 484 486 488
f 495 488 486
f 496 488 495
f 496 497 498
f 496 498 488
f 499 500 501
f 502 503 501
f 504 503 502
f 505 501 500
f 506 507 508
f 501 506 508
f 506 501 505
f 509 500 499
f 509 499 510
f 511 509 510
f 512 511 510
f 512 513 514
f 512 510 513
f 515 516 517
f 518 517 516
f 516 515 519
f 520 518 516
f 521 518 520
f 522 523 524
f 525 526 520
f 522 520 526
f 527 528 523
f 529 524 523
f 530 531 532
f 530 523 528
f 533 532 531
f 534 533 535
f 536 537 531
f 538 539 535
f 535 537 538
f 531 537 535
f 540 541 542
f 541 543 542
f 542 544 545
f 546 547 548
f 547 546 549
f 544 542 548
f 547 550 551
f 550 547 552
f 553 554 552
f 554 553 555
f 554 556 557
f 558 559 560
f 561 562 559
f 556 554 560
f 563 559 562
f 559 563 564
f 560 559 564
f 565 566 567
f 568 565 569
f 570 568 571
f 572 573 566
f 574 572 565
f 575 574 568
f 576 569 567
f 577 571 569
f 578 579 577
f 571 577 579
f 580 581 570
f 578 580 579
f 572 582 583
f 574 584 582
f 585 575 581
f 581 575 570
f 584 574 575
f 575 585 586
f 587 588 589
f 590 587 591
f 592 590 593
f 594 592 595
f 596 597 588
f 598 596 587
f 599 598 590
f 600 599 592
f 601 602 597
f 603 601 596
f 604 603 598
f 605 604 599
f 606 591 589
f 607 595 593
f 608 609 595
f 610 593 591
f 611 612 613
f 614 611 615
f 616 614 617
f 618 619 612
f 620 618 611
f 621 620 614
f 622 623 619
f 624 622 618
f 625 624 620
f 626 615 613
f 627 628 617
f 615 626 629
f 630 631 628
f 632 621 616
f 616 628 631
f 621 632 633
f 621 633 625
f 1 3 634
f 4 6 7
f 7 2 1
f 8 10 635
f 88 80 91
f 170 173 171
f 175 177 183
f 178 176 175
f 180 179 178
f 182 183 192
f 184 175 182
f 185 178 184
f 177 189 186
f 191 183 188
f 185 195 636
f 193 184 182
f 196 198 204
f 197 200 198
f 201 203 208
f 202 204 203
f 205 207 240
f 206 208 207
f 213 209 210
f 215 210 211
f 216 211 212
f 217 214 213
f 219 213 215
f 220 215 216
f 228 221 222
f 229 223 221
f 231 224 225
f 232 222 224
f 233 226 227
f 234 225 226
f 235 200 637
f 236 198 235
f 204 237 203
f 238 208 241
f 239 207 238
f 203 241 208
f 229 243 230
f 228 242 229
f 244 232 248
f 234 246 231
f 233 245 234
f 248 231 246
f 249 251 257
f 250 253 251
f 254 256 261
f 255 257 256
f 258 260 293
f 259 261 260
f 266 262 263
f 268 263 264
f 269 264 265
f 270 267 266
f 272 266 268
f 273 268 269
f 281 274 275
f 282 276 274
f 284 277 278
f 285 275 277
f 286 279 280
f 287 278 279
f 288 253 638
f 289 251 288
f 257 290 256
f 291 256 290
f 282 295 283
f 281 294 282
f 296 285 300
f 287 298 284
f 286 297 287
f 300 284 298
f 306 308 310
f 309 310 312
f 311 312 314
f 313 314 316
f 315 316 318
f 317 318 320
f 319 320 639
f 321 308 307
f 306 324 307
f 307 325 321
f 309 323 306
f 326 311 328
f 313 328 311
f 317 330 315
f 319 329 317
f 315 327 313
f 348 350 363
f 351 349 348
f 353 352 351
f 355 354 353
f 357 356 355
f 359 358 357
f 361 360 359
f 348 364 366
f 353 365 367
f 351 366 365
f 355 367 372
f 359 368 371
f 361 370 362
f 357 372 368
f 374 376 378
f 377 378 640
f 379 375 374
f 381 374 377
f 382 380 379
f 384 379 381
f 385 383 382
f 387 382 384
f 388 386 385
f 390 385 387
f 391 389 388
f 393 388 390
f 394 392 391
f 396 391 393
f 394 398 395
f 396 397 394
f 406 404 403
f 408 410 412
f 411 412 414
f 413 414 416
f 415 416 418
f 417 418 420
f 419 420 641
f 421 410 409
f 408 424 409
f 409 425 421
f 411 423 408
f 426 413 428
f 415 428 413
f 429 419 641
f 417 427 415
f 443 445 447
f 446 447 449
f 448 449 451
f 450 451 453
f 452 453 455
f 454 455 642
f 456 445 444
f 443 459 444
f 444 460 456
f 446 458 443
f 461 448 463
f 450 463 448
f 464 454 642
f 452 462 450
f 503 499 501
f 516 519 525
f 521 520 522
f 522 524 521
f 525 520 516
f 522 526 527
f 527 523 522
f 529 523 530
f 530 532 529
f 530 528 536
f 533 531 535
f 534 535 539
f 536 531 530
f 543 548 542
f 542 545 540
f 546 548 543
f 547 549 552
f 544 548 551
f 547 551 548
f 550 552 557
f 553 552 549
f 554 555 560
f 554 557 552
f 558 560 555
f 561 559 558
f 556 560 564
f 565 567 569
f 568 569 571
f 570 571 579
f 572 566 565
f 574 565 568
f 575 568 570
f 576 567 643
f 577 569 576
f 580 570 579
f 572 583 573
f 574 582 572
f 584 575 586
f 587 589 591
f 590 591 593
f 592 593 595
f 594 595 609
f 596 588 587
f 598 587 590
f 599 590 592
f 600 592 594
f 601 597 596
f 603 596 598
f 604 598 599
f 605 599 600
f 606 589 644
f 607 593 610
f 608 595 607
f 610 591 606
f 611 613 615
f 614 615 617
f 616 617 628
f 618 612 611
f 620 611 614
f 621 614 616
f 622 619 618
f 624 618 620
f 625 620 621
f 626 613 645
f 627 617 629
f 615 629 617
f 630 628 627
f 616 631 632

