# https://github.com/mikedh/trimesh

o mesh-a2f30e0b-d52f-4c3c-ad24-02f852976c82
v 0.07154999 0.15000000 0.28300000
v 0.07154999 0.14950000 0.28300000
v 0.07154999 0.14975000 0.27550000
v 0.07154999 0.15050000 0.28300000
v 0.07154999 0.15025000 0.27550000
v 0.07154999 0.15000000 0.27550000
v 0.07154999 -0.14950000 0.28300000
v 0.07154999 -0.14975000 0.27550000
v 0.07154999 -0.14950000 0.27550000
v 0.07154999 -0.15000000 0.28300000
v 0.07154999 -0.15025000 0.27550000
v 0.07154999 -0.15000000 0.27550000
v 0.07154999 -0.15050000 0.28300000
v 0.05889502 0.15000000 0.30193951
v 0.05504934 0.15000000 0.30310608
v 0.05504934 0.14950000 0.30310608
v 0.06243917 0.15000000 0.30004510
v 0.05889502 0.14950000 0.30193951
v 0.06554568 0.15000000 0.29749567
v 0.06243917 0.14950000 0.30004510
v 0.06809512 0.15000000 0.29438916
v 0.06554568 0.14950000 0.29749567
v 0.06998953 0.15000000 0.29084503
v 0.06809512 0.14950000 0.29438916
v 0.07115610 0.15000000 0.28699933
v 0.06998953 0.14950000 0.29084503
v 0.05104998 0.15000000 0.30350000
v 0.05104998 0.14950000 0.30350000
v 0.05889502 0.15050000 0.30193951
v 0.05504934 0.15050000 0.30310608
v 0.05104998 0.15050000 0.30350000
v 0.06243917 0.15050000 0.30004510
v 0.06998953 0.15050000 0.29084503
v 0.06809512 0.15050000 0.29438916
v 0.07115610 0.14950000 0.28699933
v 0.07154999 0.14950000 0.28300000
v 0.07115610 0.15050000 0.28699933
v 0.06554568 0.15050000 0.29749567
v 0.07154999 0.15000000 0.28300000
v 0.07154999 0.15050000 0.28300000
v 0.06998953 -0.15000000 0.29084503
v 0.07115610 -0.15000000 0.28699933
v 0.07115610 -0.14950000 0.28699933
v 0.06809512 -0.15000000 0.29438916
v 0.06998953 -0.14950000 0.29084503
v 0.06554568 -0.15000000 0.29749567
v 0.06809512 -0.14950000 0.29438916
v 0.06243917 -0.15000000 0.30004510
v 0.06554568 -0.14950000 0.29749567
v 0.05889502 -0.15000000 0.30193951
v 0.06243917 -0.14950000 0.30004510
v 0.05504934 -0.15000000 0.30310608
v 0.05889502 -0.14950000 0.30193951
v 0.07154999 -0.15000000 0.28300000
v 0.07154999 -0.14950000 0.28300000
v 0.06998953 -0.15050000 0.29084503
v 0.07115610 -0.15050000 0.28699933
v 0.07154999 -0.15050000 0.28300000
v 0.06809512 -0.15050000 0.29438916
v 0.06243917 -0.15050000 0.30004510
v 0.06554568 -0.15050000 0.29749567
v 0.05104998 -0.14950000 0.30350000
v 0.05104998 -0.15000000 0.30350000
v 0.05889502 -0.15050000 0.30193951
v 0.05104998 -0.15050000 0.30350000
v 0.06881253 0.15050000 0.03361127
v 0.06881253 0.15050000 0.03338873
v -0.09320000 0.15050000 0.00000000
v 0.07054999 0.15050000 0.00000000
v 0.06890906 0.15050000 0.03318826
v -0.09320000 0.15050000 0.15175000
v 0.07029999 0.15050000 0.15375000
v 0.05104998 0.15050000 0.30350000
v 0.06908307 0.15050000 0.03304953
v 0.06929999 0.15050000 0.03300000
v 0.07154999 0.15050000 0.00100000
v 0.06894644 0.15050000 0.27364642
v 0.06910864 0.15050000 0.27353809
v 0.06890906 0.15050000 0.03381174
v 0.06908307 0.15050000 0.03395047
v 0.06883807 0.15050000 0.27380865
v 0.06554568 0.15050000 0.29749567
v 0.06883807 0.15050000 0.27419135
v 0.06243917 0.15050000 0.30004510
v 0.06879999 0.15050000 0.27400000
v 0.05889502 0.15050000 0.30193951
v 0.05504934 0.15050000 0.30310608
v -0.09320000 0.15050000 0.30350000
v 0.06809512 0.15050000 0.29438916
v 0.06998953 0.15050000 0.29084503
v 0.06894644 0.15050000 0.27435358
v 0.06910864 0.15050000 0.27446191
v 0.07154999 0.15050000 0.28300000
v 0.07154999 0.15050000 0.03200000
v 0.07054999 0.15050000 0.03300000
v 0.07093268 0.15050000 0.03292389
v 0.07093268 0.15050000 0.00007611
v 0.07147388 0.15050000 0.00061731
v 0.07125708 0.15050000 0.00029291
v 0.07147388 0.15050000 0.03238269
v 0.07125708 0.15050000 0.03270709
v 0.06929999 0.15050000 0.27350000
v 0.07029999 0.15050000 0.03400000
v 0.06929999 0.15050000 0.03400000
v 0.07029999 0.15050000 0.27350000
v 0.07115610 0.15050000 0.28699933
v 0.06929999 0.15050000 0.27450000
v 0.07125708 0.15050000 0.27479291
v 0.07054999 0.15050000 0.27450000
v 0.07154999 0.15050000 0.27550000
v 0.07147388 0.15050000 0.27511731
v -0.10468053 -0.14821638 0.00000000
v -0.09905272 -0.14992355 0.00000000
v -0.09905272 -0.14992355 0.15175000
v -0.10986711 -0.14544409 0.00000000
v -0.10468053 -0.14821638 0.15175000
v -0.11441319 -0.14171321 0.00000000
v -0.10986711 -0.14544409 0.15175000
v -0.11814409 -0.13716711 0.00000000
v -0.11441319 -0.14171321 0.15175000
v -0.12091637 -0.13198050 0.00000000
v -0.11814409 -0.13716711 0.15175000
v -0.12262358 -0.12635271 0.00000000
v -0.12091637 -0.13198050 0.15175000
v -0.09905272 -0.14992355 0.30350000
v -0.09320000 -0.15050000 0.15175000
v -0.10986711 -0.14544409 0.30350000
v -0.11441319 -0.14171321 0.30350000
v -0.10468053 -0.14821638 0.30350000
v -0.09320000 -0.15050000 0.00000000
v -0.11814409 -0.13716711 0.30350000
v -0.12091637 -0.13198050 0.30350000
v -0.12262358 -0.12635271 0.30350000
v -0.12262358 -0.12635271 0.15175000
v -0.12320000 -0.12050000 0.30350000
v -0.12320000 -0.12050000 0.15175000
v -0.12320000 -0.12050000 0.00000000
v -0.12091637 0.13198050 0.00000000
v -0.12262358 0.12635272 0.00000000
v -0.12262358 0.12635272 0.15175000
v -0.11814409 0.13716711 0.00000000
v -0.12091637 0.13198050 0.15175000
v -0.11441319 0.14171323 0.00000000
v -0.11814409 0.13716711 0.15175000
v -0.10986711 0.14544409 0.00000000
v -0.11441319 0.14171323 0.15175000
v -0.10468053 0.14821640 0.00000000
v -0.10986711 0.14544409 0.15175000
v -0.09905272 0.14992355 0.00000000
v -0.10468053 0.14821640 0.15175000
v -0.12320000 0.12050000 0.30350000
v -0.12262358 0.12635272 0.30350000
v -0.11814409 0.13716711 0.30350000
v -0.11441319 0.14171323 0.30350000
v -0.12091637 0.13198050 0.30350000
v -0.12320000 0.12050000 0.00000000
v -0.10986711 0.14544409 0.30350000
v -0.10468053 0.14821640 0.30350000
v -0.09905272 0.14992355 0.30350000
v -0.09905272 0.14992355 0.15175000
v -0.09320000 0.15050000 0.30350000
v -0.09320000 0.15050000 0.15175000
v -0.09320000 0.15050000 0.00000000
v -0.12320000 -0.12050000 0.15175000
v -0.12320000 0.12050000 0.30350000
v -0.12320000 0.12050000 0.00000000
v -0.12320000 -0.12050000 0.00000000
v -0.12320000 -0.12050000 0.30350000
v 0.07077835 -0.14809515 0.15375000
v 0.07029999 -0.14800000 0.15375000
v 0.07029999 -0.14800000 0.27350000
v 0.07077835 -0.14809515 0.03400000
v 0.07029999 -0.14800000 0.03400000
v 0.07118390 -0.14836612 0.15375000
v 0.07077835 -0.14809515 0.27350000
v 0.07118390 -0.14836612 0.03400000
v 0.07145483 -0.14877165 0.15375000
v 0.07118390 -0.14836612 0.27350000
v 0.07145483 -0.14877165 0.03400000
v 0.07154999 -0.14925000 0.15375000
v 0.07145483 -0.14877165 0.27350000
v 0.07154999 -0.14925000 0.03400000
v 0.07145483 -0.14972835 0.15375000
v 0.07154999 -0.14925000 0.27350000
v 0.07145483 -0.14972835 0.03400000
v 0.07118390 -0.15013388 0.15375000
v 0.07145483 -0.14972835 0.27350000
v 0.07118390 -0.15013388 0.03400000
v 0.07077835 -0.15040485 0.15375000
v 0.07118390 -0.15013388 0.27350000
v 0.07077835 -0.15040485 0.03400000
v 0.07029999 -0.15050000 0.27350000
v 0.07077835 -0.15040485 0.27350000
v 0.07029999 -0.15050000 0.03400000
v 0.06910864 0.15000000 0.27353809
v 0.06910864 0.14950000 0.27353809
v 0.06929999 0.14950000 0.27350000
v 0.06894644 0.15000000 0.27364642
v 0.06894644 0.14950000 0.27364642
v 0.06883807 0.15000000 0.27380865
v 0.06883807 0.14950000 0.27380865
v 0.06879999 0.15000000 0.27400000
v 0.06879999 0.14950000 0.27400000
v 0.06883807 0.15000000 0.27419135
v 0.06883807 0.14950000 0.27419135
v 0.06894644 0.15000000 0.27435358
v 0.06894644 0.14950000 0.27435358
v 0.06910864 0.15000000 0.27446191
v 0.06910864 0.14950000 0.27446191
v 0.06929999 0.15000000 0.27450000
v 0.06929999 0.14950000 0.27450000
v 0.06929999 0.15000000 0.27350000
v 0.06929999 0.15050000 0.27350000
v 0.06894644 0.15050000 0.27364642
v 0.06910864 0.15050000 0.27353809
v 0.06883807 0.15050000 0.27380865
v 0.06883807 0.15050000 0.27419135
v 0.06910864 0.15050000 0.27446191
v 0.06894644 0.15050000 0.27435358
v 0.06879999 0.15050000 0.27400000
v 0.07077835 0.14809515 0.15375000
v 0.07029999 0.14800000 0.15375000
v 0.07029999 0.14800000 0.03400000
v 0.07077835 0.14809515 0.27350000
v 0.07029999 0.14800000 0.27350000
v 0.07118390 0.14836612 0.15375000
v 0.07077835 0.14809515 0.03400000
v 0.07118390 0.14836612 0.27350000
v 0.07145483 0.14877167 0.15375000
v 0.07118390 0.14836612 0.03400000
v 0.07145483 0.14877167 0.27350000
v 0.07154999 0.14925000 0.15375000
v 0.07145483 0.14877167 0.03400000
v 0.07154999 0.14925000 0.27350000
v 0.07145483 0.14972836 0.15375000
v 0.07154999 0.14925000 0.03400000
v 0.07145483 0.14972836 0.27350000
v 0.07118390 0.15013388 0.15375000
v 0.07145483 0.14972836 0.03400000
v 0.07118390 0.15013388 0.27350000
v 0.07077835 0.15040485 0.15375000
v 0.07118390 0.15013388 0.03400000
v 0.07077835 0.15040485 0.27350000
v 0.07077835 0.15040485 0.03400000
v 0.07029999 0.15050000 0.03400000
v 0.07029999 0.15050000 0.15375000
v 0.07125708 0.14975000 0.27479291
v 0.07147388 0.14975000 0.27511731
v 0.07147388 0.14950000 0.27511731
v 0.07125708 0.15000000 0.27479291
v 0.07147388 0.15000000 0.27511731
v 0.07125708 0.15025000 0.27479291
v 0.07147388 0.15025000 0.27511731
v 0.07093268 0.14975000 0.27457611
v 0.07125708 0.14950000 0.27479291
v 0.07093268 0.15000000 0.27457611
v 0.07093268 0.15025000 0.27457611
v 0.07054999 0.14975000 0.27450000
v 0.07093268 0.14950000 0.27457611
v 0.07054999 0.15000000 0.27450000
v 0.07054999 0.15025000 0.27450000
v 0.07154999 0.14975000 0.27550000
v 0.07154999 0.14950000 0.27550000
v 0.07154999 0.15025000 0.27550000
v 0.07154999 0.15000000 0.27550000
v 0.07154999 0.15050000 0.27550000
v 0.07125708 0.15050000 0.27479291
v 0.07147388 0.15050000 0.27511731
v 0.07054999 0.15050000 0.27450000
v 0.07093268 -0.14975000 0.27457611
v 0.07054999 -0.14975000 0.27450000
v 0.07054999 -0.14950000 0.27450000
v 0.07093268 -0.15000000 0.27457611
v 0.07054999 -0.15000000 0.27450000
v 0.07093268 -0.15025000 0.27457611
v 0.07054999 -0.15025000 0.27450000
v 0.07125708 -0.14975000 0.27479291
v 0.07093268 -0.14950000 0.27457611
v 0.07125708 -0.15000000 0.27479291
v 0.07125708 -0.15025000 0.27479291
v 0.07147388 -0.14975000 0.27511731
v 0.07125708 -0.14950000 0.27479291
v 0.07147388 -0.15000000 0.27511731
v 0.07147388 -0.15025000 0.27511731
v 0.07093268 -0.15050000 0.27457611
v 0.07054999 -0.15050000 0.27450000
v 0.07125708 -0.15050000 0.27479291
v 0.07154999 -0.14975000 0.27550000
v 0.07154999 -0.14950000 0.27550000
v 0.07154999 -0.15000000 0.27550000
v 0.07154999 -0.15025000 0.27550000
v 0.07154999 -0.15050000 0.27550000
v -0.09320000 -0.15050000 0.30350000
v -0.09320000 -0.15050000 0.15175000
v 0.05104998 -0.15050000 0.30350000
v 0.06243917 -0.15050000 0.30004510
v 0.05889502 -0.15050000 0.30193951
v 0.06881253 -0.15050000 0.27411127
v 0.06554568 -0.15050000 0.29749567
v 0.06908307 -0.15050000 0.27445050
v 0.07154999 -0.15050000 0.28300000
v 0.06890906 -0.15050000 0.27431177
v 0.06809512 -0.15050000 0.29438916
v 0.06998953 -0.15050000 0.29084503
v 0.06881253 -0.15050000 0.27388873
v 0.06881253 -0.15050000 0.03361127
v 0.06890906 -0.15050000 0.03381174
v 0.06890906 -0.15050000 0.27368823
v 0.06881253 -0.15050000 0.03338873
v -0.09320000 -0.15050000 0.00000000
v 0.07054999 -0.15050000 0.00000000
v 0.06908307 -0.15050000 0.03395047
v 0.06908307 -0.15050000 0.27354950
v 0.06929999 -0.15050000 0.03400000
v 0.06929999 -0.15050000 0.27350000
v 0.06890906 -0.15050000 0.03318826
v 0.06908307 -0.15050000 0.03304953
v 0.07115610 -0.15050000 0.28699933
v 0.07029999 -0.15050000 0.03400000
v 0.07029999 -0.15050000 0.27350000
v 0.06929999 -0.15050000 0.27450000
v 0.07154999 -0.15050000 0.27550000
v 0.07054999 -0.15050000 0.27450000
v 0.07093268 -0.15050000 0.27457611
v 0.07125708 -0.15050000 0.27479291
v 0.07054999 -0.15050000 0.03300000
v 0.06929999 -0.15050000 0.03300000
v 0.07154999 -0.15050000 0.03200000
v 0.07093268 -0.15050000 0.00007611
v 0.07154999 -0.15050000 0.00100000
v 0.07093268 -0.15050000 0.03292389
v 0.07147388 -0.15050000 0.03238269
v 0.07125708 -0.15050000 0.03270709
v 0.07147388 -0.15050000 0.00061731
v 0.07125708 -0.15050000 0.00029291
v -0.11932811 -0.13308263 0.30350000
v -0.12147289 -0.12695311 0.30350000
v -0.12091637 -0.13198050 0.30350000
v -0.12262358 -0.12635271 0.30350000
v -0.12220000 -0.12050000 0.30350000
v -0.12320000 -0.12050000 0.30350000
v -0.12220000 0.12050000 0.30350000
v -0.11587309 -0.13858121 0.30350000
v -0.11441319 -0.14171321 0.30350000
v -0.11128123 -0.14317311 0.30350000
v -0.10986711 -0.14544409 0.30350000
v -0.11814409 -0.13716711 0.30350000
v -0.12262358 0.12635272 0.30350000
v -0.12320000 0.12050000 0.30350000
v -0.12091637 0.13198050 0.30350000
v -0.12147289 0.12695312 0.30350000
v -0.11932811 0.13308264 0.30350000
v -0.11814409 0.13716711 0.30350000
v -0.11587309 0.13858121 0.30350000
v -0.11441319 0.14171323 0.30350000
v -0.11128123 0.14317313 0.30350000
v -0.10986711 0.14544409 0.30350000
v -0.09320000 -0.14950000 0.30350000
v -0.09965312 -0.14877290 0.30350000
v -0.09905272 -0.14992355 0.30350000
v -0.10468053 -0.14821638 0.30350000
v -0.10578264 -0.14662810 0.30350000
v 0.05104998 -0.15000000 0.30350000
v -0.09320000 -0.15050000 0.30350000
v 0.05104998 -0.15050000 0.30350000
v 0.05104998 -0.14950000 0.30350000
v -0.10468053 0.14821640 0.30350000
v -0.10578264 0.14662811 0.30350000
v -0.09905272 0.14992355 0.30350000
v -0.09965312 0.14877292 0.30350000
v -0.09320000 0.14950000 0.30350000
v 0.05104998 0.15000000 0.30350000
v 0.05104998 0.14950000 0.30350000
v 0.05104998 0.15050000 0.30350000
v -0.09320000 0.15050000 0.30350000
v 0.07154999 0.14950000 0.27550000
v 0.07154999 0.15050000 0.27550000
v 0.07154999 -0.15050000 0.27550000
v 0.05504934 -0.14950000 0.30310608
v -0.09320000 -0.15050000 0.30350000
v 0.06929999 0.15050000 0.27450000
v 0.07029999 0.15050000 0.27350000
v 0.07054999 0.14950000 0.27450000
v 0.07147388 -0.14950000 0.27511731
f 1 2 3
f 4 1 5
f 1 3 6
f 1 6 5
f 7 8 9
f 10 11 12
f 12 8 10
f 10 13 11
f 7 10 8
f 14 15 16
f 17 14 18
f 19 17 20
f 21 19 22
f 23 21 24
f 25 23 26
f 27 28 16
f 14 29 30
f 15 30 31
f 32 17 19
f 17 32 29
f 23 33 34
f 25 35 36
f 25 37 33
f 21 34 38
f 39 40 37
f 41 42 43
f 44 41 45
f 46 44 47
f 48 46 49
f 50 48 51
f 52 50 53
f 54 55 43
f 41 56 57
f 42 57 58
f 44 59 56
f 59 44 46
f 48 60 61
f 62 63 52
f 50 64 60
f 65 52 63
f 64 52 65
f 50 52 64
f 66 67 68
f 69 67 70
f 66 71 72
f 68 71 66
f 73 72 71
f 70 74 69
f 74 75 76
f 72 77 78
f 79 66 72
f 72 80 79
f 67 69 68
f 72 81 77
f 82 83 84
f 84 85 86
f 87 85 73
f 85 87 86
f 71 88 73
f 73 85 81
f 82 89 83
f 83 90 91
f 89 90 83
f 92 91 93
f 85 84 83
f 81 72 73
f 75 94 76
f 95 96 94
f 97 69 76
f 76 69 74
f 76 98 99
f 75 95 94
f 100 94 101
f 94 96 101
f 76 99 97
f 78 102 72
f 103 104 72
f 105 72 102
f 90 106 91
f 93 107 92
f 108 109 110
f 111 108 110
f 93 91 106
f 93 110 107
f 110 109 107
f 104 80 72
f 112 113 114
f 115 112 116
f 117 115 118
f 119 117 120
f 121 119 122
f 123 121 124
f 125 114 126
f 127 118 116
f 118 127 128
f 129 116 114
f 130 126 114
f 131 122 120
f 132 124 122
f 133 134 124
f 135 136 134
f 136 137 123
f 138 139 140
f 141 138 142
f 143 141 144
f 145 143 146
f 147 145 148
f 149 147 150
f 140 151 152
f 153 144 142
f 144 153 154
f 155 142 140
f 139 156 140
f 151 140 156
f 157 148 146
f 158 150 148
f 159 160 150
f 161 162 160
f 162 163 149
f 164 165 166
f 166 167 164
f 165 164 168
f 169 170 171
f 172 173 170
f 174 169 175
f 176 172 169
f 177 174 178
f 179 176 174
f 180 177 181
f 182 179 177
f 183 180 184
f 185 182 180
f 186 183 187
f 188 185 183
f 189 186 190
f 191 188 186
f 192 189 193
f 191 189 194
f 192 194 189
f 195 196 197
f 198 199 196
f 200 201 199
f 202 203 201
f 204 205 203
f 206 207 205
f 208 209 207
f 210 211 209
f 195 212 213
f 200 198 214
f 198 195 215
f 202 200 216
f 206 204 217
f 210 208 218
f 208 206 219
f 204 202 220
f 221 222 223
f 224 225 222
f 226 221 227
f 228 224 221
f 229 226 230
f 231 228 226
f 232 229 233
f 234 231 229
f 235 232 236
f 237 234 232
f 238 235 239
f 240 237 235
f 241 238 242
f 243 240 238
f 241 244 245
f 243 241 246
f 247 248 249
f 250 251 248
f 252 253 251
f 254 247 255
f 256 250 247
f 257 252 250
f 258 254 259
f 260 256 254
f 261 257 256
f 262 263 249
f 264 265 251
f 248 251 265
f 266 264 253
f 267 252 257
f 252 267 268
f 257 269 267
f 257 261 269
f 270 271 272
f 273 274 271
f 275 276 274
f 277 270 278
f 279 273 270
f 280 275 273
f 281 277 282
f 283 279 277
f 284 280 279
f 275 285 286
f 280 287 285
f 280 284 287
f 283 281 288
f 289 288 281
f 290 291 284
f 284 291 292
f 287 284 292
f 293 294 295
f 296 297 298
f 298 297 295
f 298 299 296
f 300 301 302
f 303 302 304
f 303 298 302
f 298 295 305
f 303 299 298
f 305 295 294
f 306 307 294
f 308 294 307
f 309 306 310
f 294 310 306
f 309 310 311
f 312 313 307
f 313 314 315
f 314 313 312
f 316 309 311
f 313 308 307
f 308 305 294
f 317 316 311
f 304 302 318
f 314 319 320
f 302 301 318
f 320 315 314
f 321 322 301
f 323 322 321
f 323 324 322
f 325 322 324
f 301 300 321
f 326 327 328
f 329 330 311
f 317 311 330
f 326 328 331
f 327 317 330
f 328 332 333
f 328 327 330
f 334 330 335
f 330 329 335
f 333 331 328
f 336 337 338
f 339 338 337
f 340 341 339
f 337 340 339
f 341 340 342
f 343 344 345
f 346 345 344
f 343 336 347
f 338 347 336
f 344 343 347
f 348 349 342
f 350 348 351
f 342 351 348
f 352 350 351
f 350 352 353
f 354 353 352
f 355 354 356
f 357 355 356
f 353 354 355
f 358 359 360
f 361 360 359
f 362 346 361
f 359 362 361
f 363 364 365
f 366 358 363
f 364 363 358
f 360 364 358
f 367 357 368
f 357 356 368
f 369 367 370
f 368 370 367
f 371 369 370
f 372 371 373
f 374 375 372
f 371 372 375
f 369 371 375
f 346 362 345
f 2 376 3
f 4 5 377
f 13 378 11
f 14 16 18
f 17 18 20
f 19 20 22
f 21 22 24
f 23 24 26
f 25 26 35
f 27 16 15
f 14 30 15
f 15 31 27
f 32 19 38
f 17 29 14
f 23 34 21
f 25 36 39
f 25 33 23
f 21 38 19
f 39 37 25
f 41 43 45
f 44 45 47
f 46 47 49
f 48 49 51
f 50 51 53
f 52 53 379
f 54 43 42
f 41 57 42
f 42 58 54
f 44 56 41
f 59 46 61
f 48 61 46
f 62 52 379
f 50 60 48
f 112 114 116
f 115 116 118
f 117 118 120
f 119 120 122
f 121 122 124
f 123 124 134
f 125 126 380
f 127 116 129
f 118 128 120
f 129 114 125
f 130 114 113
f 131 120 128
f 132 122 131
f 133 124 132
f 135 134 133
f 136 123 134
f 138 140 142
f 141 142 144
f 143 144 146
f 145 146 148
f 147 148 150
f 149 150 160
f 153 142 155
f 144 154 146
f 155 140 152
f 157 146 154
f 158 148 157
f 159 150 158
f 161 160 159
f 162 149 160
f 169 171 175
f 172 170 169
f 174 175 178
f 176 169 174
f 177 178 181
f 179 174 177
f 180 181 184
f 182 177 180
f 183 184 187
f 185 180 183
f 186 187 190
f 188 183 186
f 189 190 193
f 191 186 189
f 195 197 212
f 198 196 195
f 200 199 198
f 202 201 200
f 204 203 202
f 206 205 204
f 208 207 206
f 210 209 208
f 195 213 215
f 200 214 216
f 198 215 214
f 202 216 220
f 206 217 219
f 210 218 381
f 208 219 218
f 204 220 217
f 221 223 227
f 224 222 221
f 226 227 230
f 228 221 226
f 229 230 233
f 231 226 229
f 232 233 236
f 234 229 232
f 235 236 239
f 237 232 235
f 238 239 242
f 240 235 238
f 241 242 244
f 243 238 241
f 241 245 246
f 243 246 382
f 247 249 255
f 250 248 247
f 252 251 250
f 254 255 259
f 256 247 254
f 257 250 256
f 258 259 383
f 260 254 258
f 261 256 260
f 262 249 248
f 264 251 253
f 248 265 262
f 266 253 268
f 252 268 253
f 270 272 278
f 273 271 270
f 275 274 273
f 277 278 282
f 279 270 277
f 280 273 279
f 281 282 384
f 283 277 281
f 284 279 283
f 275 286 276
f 280 285 275
f 283 288 290
f 289 281 384
f 290 284 283
f 341 342 349

