# https://github.com/mikedh/trimesh

o FR3_Version2_Link2-mesh
v 0.05450000 0.00175002 0.01170000
v 0.05450000 0.00125002 0.01170000
v 0.05450000 0.00100002 0.01145000
v 0.05450000 0.00119439 0.01169373
v 0.05450000 0.00185849 0.00877476
v 0.05450000 0.00200002 0.00900000
v 0.05450000 0.00180565 0.00875627
v 0.05450000 0.00175002 0.00875000
v 0.05450000 0.00100002 0.01039708
v 0.05450000 0.00200002 0.01145000
v 0.05450000 0.00190590 0.00880454
v 0.05450000 0.00194548 0.00884413
v 0.05450000 0.00199375 0.00894437
v 0.05450000 0.00197527 0.00889153
v 0.05450000 0.00199375 0.01150563
v 0.05450000 0.00197527 0.01155847
v 0.05450000 0.00194548 0.01160587
v 0.05450000 0.00190590 0.01164546
v 0.05450000 0.00114155 0.01167524
v 0.05450000 0.00109415 0.01164546
v 0.05450000 0.00100629 0.01150563
v 0.05450000 0.00105456 0.01160587
v 0.05450000 0.00102478 0.01155847
v 0.05450000 -0.00099726 0.00994012
v 0.05450000 -0.00199998 0.00998795
v 0.05450000 -0.00095851 0.00975160
v 0.05450000 -0.00194536 0.00950128
v 0.05450000 -0.00087383 0.00956744
v 0.05450000 -0.00099998 0.00998795
v 0.05450000 -0.00099549 0.01008014
v 0.05450000 -0.00195896 0.01046453
v 0.05450000 -0.00097209 0.01017615
v 0.05450000 -0.00184038 0.01083694
v 0.05450000 -0.00093339 0.01025221
v 0.05450000 -0.00168893 0.01109194
v 0.05450000 -0.00088113 0.01031243
v 0.05450000 -0.00150381 0.01128483
v 0.05450000 -0.00081944 0.01035583
v 0.05450000 -0.00129421 0.01141894
v 0.05450000 0.00185849 0.01167524
v 0.05450000 0.00180565 0.01169373
v 0.05450000 -0.00058590 0.00914229
v 0.05450000 -0.00060448 0.00920013
v 0.05450000 -0.00065467 0.00891853
v 0.05450000 -0.00063647 0.00925178
v 0.05450000 -0.00099998 0.00857322
v 0.05450000 -0.00105164 0.00853356
v 0.05450000 -0.00135295 0.00857265
v 0.05450000 -0.00164290 0.00888166
v 0.05450000 -0.00182353 0.00915893
v 0.05450000 -0.00130117 0.00853316
v 0.05450000 -0.00124093 0.00850838
v 0.05450000 -0.00117635 0.00850000
v 0.05450000 0.00127857 0.00878064
v 0.05450000 0.00133661 0.00875778
v 0.05450000 0.00139850 0.00875000
v 0.05450000 -0.00111179 0.00850859
v 0.05450000 -0.00061725 0.00896639
v 0.05450000 -0.00059248 0.00902186
v 0.05450000 -0.00058182 0.00908167
v 0.05450000 -0.00103959 0.01150485
v 0.05450000 -0.00074378 0.01038577
v 0.05450000 -0.00081235 0.01152936
v 0.05450000 -0.00065063 0.01039906
v 0.05450000 -0.00048943 0.01150223
v 0.05450000 -0.00058624 0.01039251
v 0.05450000 -0.00020493 0.01140599
v 0.05450000 -0.00050751 0.01036574
v 0.05450000 0.00011662 0.01120453
v 0.05450000 -0.00040146 0.01030611
v 0.05450000 0.00032461 0.01102692
v 0.05450000 -0.00011380 0.01006842
v 0.05450000 0.00122800 0.00881716
f 1 2 3
f 2 4 3
f 5 6 7
f 6 8 7
f 8 6 9
f 6 10 9
f 9 10 3
f 5 11 6
f 11 12 6
f 6 12 13
f 12 14 13
f 3 10 1
f 10 15 1
f 1 15 16
f 16 17 18
f 4 19 3
f 19 20 3
f 3 20 21
f 20 22 21
f 21 22 23
f 24 25 26
f 25 27 26
f 26 27 28
f 24 29 25
f 29 30 25
f 25 30 31
f 30 32 31
f 31 32 33
f 32 34 33
f 33 34 35
f 34 36 35
f 35 36 37
f 36 38 37
f 37 38 39
f 18 40 16
f 40 41 16
f 16 41 1
f 42 43 44
f 43 45 44
f 44 45 46
f 47 46 48
f 46 45 48
f 48 45 49
f 45 28 49
f 49 28 50
f 28 27 50
f 51 52 53
f 54 55 9
f 55 56 9
f 9 56 8
f 51 53 48
f 53 57 48
f 48 57 47
f 58 59 44
f 59 60 44
f 44 60 42
f 39 38 61
f 38 62 61
f 61 62 63
f 62 64 63
f 63 64 65
f 64 66 65
f 65 66 67
f 66 68 67
f 67 68 69
f 68 70 69
f 69 70 71
f 70 72 71
f 71 72 9
f 72 73 9
f 9 73 54

