# https://github.com/mikedh/trimesh

o FR3_Version2_Link1_1-mesh
v 0.05267115 0.01400000 -0.18740000
v 0.05267115 0.01400000 -0.18860002
v 0.05235196 0.01515000 -0.18740000
v 0.05235196 0.01515000 -0.18860002
v 0.05229500 0.01534546 -0.18850591
v 0.05228625 0.01537524 -0.18845851
v 0.05231561 0.01527504 -0.18847502
v 0.05228081 0.01539373 -0.18840560
v 0.05233583 0.01520563 -0.18859371
v 0.05232044 0.01525847 -0.18857520
v 0.05230660 0.01530587 -0.18854551
v 0.05232044 0.01525847 -0.18742481
v 0.05233583 0.01520563 -0.18740630
v 0.05231561 0.01527504 -0.18752500
v 0.05228625 0.01537524 -0.18754151
v 0.05229500 0.01534546 -0.18749410
v 0.05230660 0.01530587 -0.18745451
v 0.05227896 0.01540000 -0.18835002
v 0.05227896 0.01540000 -0.18765000
v 0.05228081 0.01539373 -0.18759442
v 0.05270856 0.01385847 -0.18602471
v 0.05272243 0.01380563 -0.18600631
v 0.05270420 0.01387504 -0.18612501
v 0.05267772 0.01397524 -0.18614150
v 0.05268562 0.01394546 -0.18609411
v 0.05269608 0.01390587 -0.18605451
v 0.05294520 0.01292500 -0.18603350
v 0.05295781 0.01287322 -0.18607321
v 0.05294519 0.01292504 -0.18612501
v 0.05296302 0.01285176 -0.18609771
v 0.05296746 0.01283349 -0.18612501
v 0.05297096 0.01281902 -0.18615441
v 0.05297350 0.01280852 -0.18618531
v 0.05297504 0.01280214 -0.18621731
v 0.05297556 0.01280000 -0.18625001
v 0.05273696 0.01375000 -0.18600001
v 0.05291453 0.01305000 -0.18600001
v 0.05293044 0.01298530 -0.18600851
v 0.05297556 0.01280000 -0.18860002
v 0.05297556 0.01280000 -0.18740000
v 0.05324028 0.01165000 -0.18860002
v 0.05324028 0.01165000 -0.18740000
v 0.05328267 0.01145454 -0.18749410
v 0.05328907 0.01142476 -0.18754151
v 0.05326747 0.01152503 -0.18752500
v 0.05329303 0.01140627 -0.18759442
v 0.05325242 0.01159437 -0.18740630
v 0.05326390 0.01154153 -0.18742481
v 0.05327415 0.01149413 -0.18745451
v 0.05326390 0.01154153 -0.18857520
v 0.05325242 0.01159437 -0.18859371
v 0.05326747 0.01152503 -0.18847502
v 0.05328907 0.01142476 -0.18845851
v 0.05328267 0.01145454 -0.18850591
v 0.05327415 0.01149413 -0.18854551
v 0.05329437 0.01140000 -0.18765000
v 0.05329437 0.01140000 -0.18835002
v 0.05329303 0.01140627 -0.18840560
v 0.05267115 0.01400000 -0.18625001
v 0.05267281 0.01399373 -0.18619441
v 0.05295273 0.01289413 -0.18994550
v 0.05294116 0.01294153 -0.18997521
v 0.05294519 0.01292504 -0.18987501
v 0.05292822 0.01299437 -0.18999371
v 0.05291453 0.01305000 -0.19000001
v 0.05297404 0.01280627 -0.18980561
v 0.05296957 0.01282476 -0.18985851
v 0.05296235 0.01285454 -0.18990591
v 0.05270420 0.01387504 -0.18987501
v 0.05268562 0.01394546 -0.18990591
v 0.05267772 0.01397524 -0.18985851
v 0.05267281 0.01399373 -0.18980561
v 0.05267115 0.01400000 -0.18975001
v 0.05272243 0.01380563 -0.18999371
v 0.05270856 0.01385847 -0.18997521
v 0.05269608 0.01390587 -0.18994550
v 0.05273696 0.01375000 -0.19000001
v 0.05297556 0.01280000 -0.18975001
v 0.05297404 0.01280627 -0.18980561
v 0.05233583 -0.01520563 -0.18859371
v 0.05231561 -0.01527504 -0.18847502
v 0.05232044 -0.01525847 -0.18857520
v 0.05230660 -0.01530587 -0.18854551
v 0.05228081 -0.01539373 -0.18840560
v 0.05228625 -0.01537524 -0.18845851
v 0.05229500 -0.01534546 -0.18850591
v 0.05326748 -0.01152500 -0.18856651
v 0.05327865 -0.01147322 -0.18852680
v 0.05326747 -0.01152503 -0.18847502
v 0.05328329 -0.01145168 -0.18850221
v 0.05328720 -0.01143349 -0.18847502
v 0.05329029 -0.01141909 -0.18844581
v 0.05329255 -0.01140852 -0.18841471
v 0.05329391 -0.01140215 -0.18838271
v 0.05329437 -0.01140000 -0.18835002
v 0.05227896 -0.01540000 -0.18835002
v 0.05235196 -0.01515000 -0.18860002
v 0.05324028 -0.01165000 -0.18860002
v 0.05325440 -0.01158529 -0.18859152
v 0.05327415 -0.01149413 -0.18745451
v 0.05326390 -0.01154153 -0.18742481
v 0.05326747 -0.01152503 -0.18752500
v 0.05325242 -0.01159437 -0.18740630
v 0.05324028 -0.01165000 -0.18740000
v 0.05329303 -0.01140627 -0.18759442
v 0.05328907 -0.01142476 -0.18754151
v 0.05328267 -0.01145454 -0.18749410
v 0.05231561 -0.01527504 -0.18752500
v 0.05229500 -0.01534546 -0.18749410
v 0.05228625 -0.01537524 -0.18754151
v 0.05228081 -0.01539373 -0.18759442
v 0.05227896 -0.01540000 -0.18765000
v 0.05233583 -0.01520563 -0.18740630
v 0.05232044 -0.01525847 -0.18742481
v 0.05230660 -0.01530587 -0.18745451
v 0.05235196 -0.01515000 -0.18740000
v 0.05329437 -0.01140000 -0.18765000
f 1 2 3
f 2 4 3
f 5 6 7
f 6 8 7
f 9 10 7
f 10 11 7
f 7 11 5
f 12 13 14
f 13 3 14
f 14 3 7
f 3 4 7
f 7 4 9
f 15 16 14
f 16 17 14
f 14 17 12
f 8 18 7
f 18 19 7
f 7 19 14
f 19 20 14
f 14 20 15
f 21 22 23
f 24 25 23
f 25 26 23
f 23 26 21
f 27 28 29
f 28 30 29
f 30 31 29
f 31 32 29
f 29 32 33
f 33 34 29
f 34 35 29
f 29 35 23
f 22 36 23
f 36 37 23
f 23 37 29
f 37 38 29
f 29 38 27
f 39 40 41
f 40 42 41
f 43 44 45
f 44 46 45
f 47 48 45
f 48 49 45
f 45 49 43
f 50 51 52
f 51 41 52
f 52 41 45
f 41 42 45
f 45 42 47
f 53 54 52
f 54 55 52
f 52 55 50
f 46 56 45
f 56 57 45
f 45 57 52
f 57 58 52
f 52 58 53
f 39 2 40
f 2 1 40
f 40 1 35
f 1 59 35
f 35 59 23
f 59 60 23
f 23 60 24
f 61 62 63
f 62 64 63
f 63 64 65
f 66 67 63
f 67 68 63
f 63 68 61
f 69 70 71
f 71 72 69
f 72 73 69
f 69 73 2
f 74 75 69
f 75 76 69
f 69 76 70
f 74 69 77
f 69 2 77
f 77 2 65
f 2 39 65
f 65 39 63
f 39 78 63
f 63 78 79
f 80 81 82
f 81 83 82
f 84 85 81
f 85 86 81
f 81 86 83
f 87 88 89
f 88 90 89
f 90 91 89
f 91 92 89
f 89 92 93
f 93 94 89
f 94 95 89
f 89 95 81
f 95 96 81
f 81 96 84
f 80 97 81
f 97 98 81
f 81 98 89
f 98 99 89
f 89 99 87
f 100 101 102
f 101 103 102
f 102 103 104
f 105 106 102
f 106 107 102
f 102 107 100
f 108 109 110
f 110 111 108
f 111 112 108
f 108 112 96
f 113 114 108
f 114 115 108
f 108 115 109
f 113 108 116
f 108 96 116
f 116 96 104
f 96 95 104
f 104 95 102
f 95 117 102
f 102 117 105

