# https://github.com/mikedh/trimesh

o FR3_Version2_Link0_3-mesh
v -0.00053287 0.09364383 0.00389020
v -0.00059126 0.09364995 0.00381464
v -0.00058585 0.09364818 0.00383291
v -0.00056544 0.09364444 0.00387447
v -0.00055978 0.09364339 0.00388599
v -0.00054489 0.09364168 0.00390658
v -0.00052556 0.09364026 0.00392554
v -0.00050280 0.09363859 0.00394787
v -0.00048194 0.09363768 0.00396235
v -0.00047465 0.09363752 0.00396576
v -0.00042861 0.09363649 0.00398732
v -0.00041462 0.09363643 0.00399118
v -0.00040438 0.09363639 0.00399402
v -0.00035000 0.09363701 0.00400000
v 0.00035000 0.09363687 0.00400000
v -0.00059296 0.09365050 0.00380892
v 0.00041464 0.09363618 0.00399125
v 0.00040848 0.09363615 0.00399306
v 0.00043241 0.09363626 0.00398603
v -0.00060000 0.09405916 0.00000000
v -0.00060000 0.09365657 0.00375000
v 0.00047450 0.09363720 0.00396549
v 0.00048535 0.09363743 0.00396019
v 0.00050559 0.09363833 0.00394568
v 0.00052554 0.09363980 0.00392555
v 0.00054712 0.09364138 0.00390376
v 0.00056134 0.09364303 0.00388355
v 0.00056562 0.09364383 0.00387458
v 0.00058682 0.09364780 0.00383011
v 0.00059122 0.09364930 0.00381463
v 0.00059355 0.09365007 0.00380644
v 0.00060000 0.09365589 0.00375000
v 0.00060000 0.09405849 0.00000000
v -0.00060000 -0.09405916 0.00000000
v 0.00060000 -0.09405849 0.00000000
v 0.00060000 -0.09365589 0.00375000
v -0.00060000 -0.09365657 0.00375000
v 0.00059336 -0.09365017 0.00380559
v 0.00059296 -0.09364984 0.00380890
v 0.00058586 -0.09364753 0.00383289
v 0.00057367 -0.09364534 0.00385770
v 0.00055980 -0.09364283 0.00388596
v 0.00054542 -0.09364122 0.00390585
v 0.00054491 -0.09364116 0.00390655
v 0.00050557 -0.09363837 0.00394515
v 0.00050283 -0.09363819 0.00394784
v 0.00048199 -0.09363731 0.00396232
v 0.00045774 -0.09363681 0.00397368
v 0.00042867 -0.09363623 0.00398730
v 0.00040561 -0.09363617 0.00399368
v -0.00059364 -0.09365084 0.00380562
v -0.00045566 -0.09363766 0.00396942
v 0.00035000 -0.09363687 0.00400000
v 0.00040445 -0.09363617 0.00399400
v -0.00035000 -0.09363701 0.00400000
v -0.00040559 -0.09363642 0.00399341
v -0.00040848 -0.09363639 0.00399307
v -0.00043240 -0.09363652 0.00398603
v -0.00045771 -0.09363714 0.00397368
v -0.00048534 -0.09363781 0.00396020
v -0.00050557 -0.09363874 0.00394570
v -0.00050584 -0.09363878 0.00394543
v -0.00054524 -0.09364177 0.00390566
v -0.00054712 -0.09364191 0.00390377
v -0.00056133 -0.09364360 0.00388357
v -0.00057366 -0.09364595 0.00385771
v -0.00058681 -0.09364844 0.00383012
v -0.00059354 -0.09365075 0.00380645
v -0.15357291 0.00000000 0.00000000
v -0.15314371 0.00000000 0.00400000
v -0.15314341 0.00035000 0.00400000
v -0.15314411 0.00040559 0.00399341
v -0.15314411 0.00040844 0.00399307
v -0.15314481 0.00043240 0.00398603
v -0.15314611 0.00045771 0.00397368
v -0.15314751 0.00048539 0.00396016
v -0.15314901 0.00050551 0.00394575
v -0.15315641 0.00054975 0.00387552
v -0.15315830 0.00057365 0.00385771
v -0.15316120 0.00058685 0.00383001
v -0.15314901 0.00050583 0.00394542
v -0.15315321 0.00054524 0.00390565
v -0.15315340 0.00054716 0.00390372
v -0.15315551 0.00056131 0.00388360
v -0.15316370 0.00059359 0.00380625
v -0.15316381 0.00059366 0.00380562
v -0.15316970 0.00060000 0.00375000
v -0.15357270 0.00030024 0.00000000
v -0.15357211 0.00060000 0.00000000
v -0.15315641 -0.00054945 0.00387535
v -0.15357270 -0.00030024 0.00000000
v -0.15357211 -0.00060000 0.00000000
v -0.15316970 -0.00060000 0.00375000
v -0.15316381 -0.00059334 0.00380558
v -0.15315830 -0.00057367 0.00385770
v -0.15315520 -0.00055958 0.00388629
v -0.15315321 -0.00054541 0.00390584
v -0.15316341 -0.00059293 0.00380902
v -0.15316091 -0.00058579 0.00383310
v -0.15315311 -0.00054469 0.00390684
v -0.15314901 -0.00050554 0.00394512
v -0.15314870 -0.00050244 0.00394815
v -0.15314721 -0.00048145 0.00396265
v -0.15314611 -0.00045775 0.00397368
v -0.15314461 -0.00042805 0.00398751
v -0.15314400 -0.00040560 0.00399364
v -0.15314400 -0.00040357 0.00399419
v -0.15314341 -0.00035000 0.00400000
v 0.07017073 0.00059308 0.00380555
v 0.07016883 0.00059235 0.00381138
v 0.07016777 -0.00059119 0.00381466
v 0.07016082 0.00058474 0.00383601
v 0.07015380 0.00057367 0.00385767
v 0.07014339 0.00055723 0.00388984
v 0.07013830 0.00054519 0.00390567
v 0.07013614 0.00054008 0.00391239
v 0.07013952 -0.00050288 0.00390291
v 0.07012583 0.00050516 0.00394469
v 0.07012346 0.00049714 0.00395211
v 0.07011844 0.00047244 0.00396797
v 0.07011654 0.00045797 0.00397404
v 0.07011158 0.00041996 0.00399001
v 0.07011055 0.00040554 0.00399336
v 0.07010968 0.00039289 0.00399629
v 0.07010868 0.00035000 0.00400000
v 0.07010868 -0.00035000 0.00400000
v 0.07011048 -0.00040616 0.00399361
v 0.07011120 -0.00041463 0.00399122
v 0.07011251 -0.00042968 0.00398696
v 0.07011914 -0.00047467 0.00396580
v 0.07012018 -0.00048177 0.00396246
v 0.07012423 -0.00050039 0.00394971
v 0.07013195 -0.00052560 0.00392555
v 0.07013732 -0.00054316 0.00390871
v 0.07014277 -0.00055592 0.00389176
v 0.07014844 -0.00056506 0.00387424
v 0.07016027 -0.00058412 0.00383767
v 0.07016704 -0.00059089 0.00381686
v 0.07146704 -0.00060000 0.00000000
v 0.07146704 0.00000000 0.00000000
v 0.07018891 -0.00060000 0.00375000
v 0.07018891 0.00060000 0.00375000
v 0.07146704 0.00060000 0.00000000
f 1 2 3
f 3 4 1
f 4 5 1
f 1 5 6
f 6 7 1
f 7 8 1
f 1 8 9
f 9 10 1
f 10 11 1
f 1 11 12
f 12 13 1
f 13 14 1
f 1 14 15
f 16 2 17
f 2 1 17
f 17 1 18
f 1 15 18
f 19 20 17
f 20 21 17
f 17 21 16
f 19 22 20
f 22 23 20
f 20 23 24
f 24 25 20
f 25 26 20
f 20 26 27
f 27 28 20
f 28 29 20
f 20 29 30
f 30 31 20
f 31 32 20
f 20 32 33
f 34 35 36
f 34 36 37
f 36 38 37
f 37 38 39
f 39 40 37
f 40 41 37
f 37 41 42
f 42 43 37
f 43 44 37
f 37 44 45
f 45 46 37
f 46 47 37
f 37 47 48
f 48 49 37
f 49 50 37
f 37 50 51
f 52 50 53
f 50 54 53
f 53 55 52
f 55 56 52
f 52 56 57
f 57 58 52
f 58 59 52
f 52 59 60
f 60 61 52
f 61 62 52
f 52 62 50
f 62 63 50
f 63 64 50
f 64 65 50
f 50 65 66
f 66 67 50
f 67 68 50
f 50 68 51
f 69 70 71
f 71 72 69
f 72 73 69
f 69 73 74
f 74 75 69
f 75 76 69
f 69 76 77
f 78 79 80
f 78 81 82
f 82 83 78
f 83 84 78
f 78 84 79
f 80 85 78
f 85 86 78
f 78 86 87
f 77 81 69
f 81 78 69
f 69 78 88
f 78 87 88
f 88 87 89
f 90 69 91
f 91 92 90
f 92 93 90
f 90 93 94
f 95 96 90
f 96 97 90
f 94 98 90
f 98 99 90
f 90 99 95
f 97 100 90
f 100 101 90
f 90 101 69
f 101 102 69
f 69 102 103
f 103 104 69
f 104 105 69
f 69 105 106
f 106 107 69
f 107 108 69
f 69 108 70
f 109 110 111
f 110 112 111
f 111 112 113
f 113 114 111
f 114 115 111
f 111 115 116
f 117 118 119
f 119 120 117
f 120 121 117
f 117 121 122
f 122 123 117
f 123 124 117
f 117 124 125
f 125 126 117
f 126 127 117
f 117 127 128
f 128 129 117
f 129 130 117
f 117 130 131
f 131 132 117
f 132 133 117
f 117 133 134
f 134 135 117
f 135 136 117
f 117 136 137
f 116 118 111
f 118 117 111
f 111 117 138
f 117 137 138
f 139 140 141
f 140 111 141
f 109 111 142
f 111 140 142
f 142 140 143

