# Converted from zedm.stl; source coordinates are metres.
v -0.00769191841 0.0651148334 0.0119772386
v -0.00769191794 0.0650727525 0.0094492482
v -0.00769191794 0.0650876015 0.0103418082
v -0.00769191794 0.0651001185 0.0110938484
v -0.00769191328 -0.054426603 0.00933690835
v -0.00769191328 -0.0540585369 0.0103862593
v -0.00769191328 -0.0534652695 0.0113277491
v -0.00769191328 -0.052676931 0.0121137192
v -0.00769191328 -0.0517326146 0.0127051994
v -0.00769191328 -0.050680086 0.0130721899
v -0.00769191282 -0.0545511991 0.00823354721
v -0.00769191282 -0.0532448292 0.00858054776
v -0.00769191282 -0.0531624481 0.00933571812
v -0.00769191282 -0.0529191121 0.0100539085
v -0.00769191282 -0.0525268763 0.0106982887
v -0.00769191282 -0.0520056784 0.00886248797
v -0.00769191282 -0.0520056784 0.00970058795
v -0.00769191282 -0.0520056784 0.0104067381
v -0.00769191282 -0.0520056784 0.011236229
v -0.00769191282 -0.051381357 0.00918189809
v -0.00769191282 -0.051381357 0.0100501487
v -0.00769191282 -0.051381357 0.0107817091
v -0.00769191282 -0.051381357 0.0116410386
v -0.00769191282 -0.05068551 0.00938007794
v -0.00769191282 -0.05068551 0.0102670388
v -0.00769191282 -0.05068551 0.0110143684
v -0.00769191282 -0.05068551 0.0118922191
v -0.00769191282 -0.0499538481 0.00944820791
v -0.00769191282 -0.0499538481 0.0103411293
v -0.00769191282 -0.0499538481 0.0110934796
v -0.00769191282 -0.0499538481 0.0119772386
v -0.00769191282 -0.049573414 0.0131964004
v -0.00769191235 -0.0545511991 -0.00825262908
v -0.00769191235 -0.054426603 -0.00936552044
v -0.00769191235 -0.0540585369 -0.0104148714
v -0.00769191235 -0.0532448292 -0.00859962963
v -0.00769191235 -0.0531624481 -0.00936473068
v -0.00769191235 -0.0529191121 -0.010082921
v -0.00769191235 -0.0520056933 -0.0089324899
v -0.00769191189 -0.0534652695 -0.0113563612
v -0.00769191189 -0.052676931 -0.0121423313
v -0.00769191189 -0.0525268763 -0.0107273012
v -0.00769191189 -0.0520056933 -0.010559951
v -0.00769191189 -0.0520056933 -0.00979648065
v -0.00769191189 -0.0520056784 -0.0112652415
v -0.00769191189 -0.0517326146 -0.0127338115
v -0.00769191189 -0.051381357 -0.0116700511
v -0.00769191189 -0.051381357 -0.0109393913
v -0.00769191189 -0.051381357 -0.0101484498
v -0.00769191189 -0.051381357 -0.00925337058
v -0.00769191189 -0.05068551 -0.0119212316
v -0.00769191189 -0.05068551 -0.0111748213
v -0.00769191189 -0.05068551 -0.0103668403
v -0.00769191189 -0.05068551 -0.00945247058
v -0.00769191189 -0.050680086 -0.0131007927
v -0.00769191189 -0.0499538481 -0.0119963214
v -0.00769191189 -0.0499538481 -0.0112448912
v -0.00769191189 -0.0499538481 -0.0104314806
v -0.00769191189 -0.0499538481 -0.00951096043
v -0.00769191189 -0.049573414 -0.0132154822
v -0.00769190816 0.0651148334 0.0131964004
v -0.00769190816 0.0662215129 0.0130721899
v -0.0076919077 0.0662269294 0.00938217808
v -0.0076919077 0.0662269294 0.0102683976
v -0.0076919077 0.0662269369 0.0110150995
v -0.0076919077 0.0662269369 0.0118922191
v -0.0076919077 0.0669227839 0.00918398798
v -0.0076919077 0.0669227839 0.0100514991
v -0.0076919077 0.0669227839 0.0107824383
v -0.0076919077 0.0669227839 0.0116410386
v -0.0076919077 0.067274034 0.0127051994
v -0.0076919077 0.0675471053 0.00886457786
v -0.0076919077 0.0675471053 0.00970193837
v -0.0076919077 0.0675471053 0.0104074692
v -0.0076919077 0.0675471053 0.011236229
v -0.0076919077 0.0680683032 0.0106982887
v -0.0076919077 0.0682183579 0.0121137192
v -0.0076919077 0.0684605241 0.0100539085
v -0.0076919077 0.0687038675 0.00933571812
v -0.0076919077 0.0687862411 0.00858054776
v -0.0076919077 0.0690066889 0.0113277491
v -0.0076919077 0.0695999488 0.0103862593
v -0.0076919077 0.0699680224 0.00933690835
v -0.0076919077 0.0700926185 0.00823354721
v -0.00769190723 0.0647573099 -0.00950207002
v -0.00769190677 0.0647159591 -0.0119864019
v -0.00769190677 0.0647284612 -0.0112352809
v -0.00769190677 0.0647419915 -0.0104222
v -0.00769190677 0.0651148334 -0.0132059623
v -0.00769190677 0.0662215129 -0.0130817518
v -0.00769190677 0.0662269369 -0.0119013917
v -0.00769190677 0.0662269369 -0.0111556007
v -0.00769190677 0.0662269369 -0.0103482809
v -0.00769190677 0.0662269369 -0.00943468045
v -0.00769190677 0.0669227839 -0.0116502019
v -0.00769190677 0.0669227839 -0.0109201614
v -0.00769190677 0.0669227839 -0.0101298904
v -0.00769190677 0.0669227839 -0.00923558045
v -0.00769190677 0.067274034 -0.0127147613
v -0.00769190677 0.0675471053 -0.0112453904
v -0.00769190677 0.0675471053 -0.0105407201
v -0.00769190677 0.0675471053 -0.00977793057
v -0.00769190677 0.0675471053 -0.00891469978
v -0.00769190677 0.0680683032 -0.0107074501
v -0.00769190677 0.0682183579 -0.0121232821
v -0.00769190677 0.0684605241 -0.0100630699
v -0.00769190677 0.0687038675 -0.00934488047
v -0.00769190677 0.0687862411 -0.00858971011
v -0.00769190677 0.0690066889 -0.0113373213
v -0.00769190677 0.0695999488 -0.0103958203
v -0.00769190677 0.0699680224 -0.00934647024
v -0.00769190677 0.0700926185 -0.00824311003
v -0.00749191362 -0.0547041744 0.00940687768
v -0.00749191362 -0.0543344393 0.0104640881
v -0.00749191362 -0.0537385419 0.0114126289
v -0.00749191362 -0.0529466942 0.0122044794
v -0.00749191362 -0.0519981533 0.0128003899
v -0.00749191362 -0.0509409457 0.0131701203
v -0.00749191316 -0.0548293218 0.00829525758
v -0.00749191316 -0.0498293191 0.0132952603
v -0.00749191269 -0.0548293218 -0.00831434038
v -0.00749191269 -0.0547041744 -0.00943556055
v -0.00749191269 -0.0543344393 -0.0104927709
v -0.00749191223 -0.0537385419 -0.0114413109
v -0.00749191223 -0.0529466942 -0.0122331614
v -0.00749191223 -0.0519981533 -0.0128290709
v -0.00749191223 -0.0509409457 -0.0131988013
v -0.00749191223 -0.0498293191 -0.0133143524
v -0.0074919085 0.0653707311 0.0132952603
v -0.0074919085 0.0664823651 0.0131701203
v -0.00749190804 0.0675395727 0.0128003899
v -0.00749190804 0.0684881136 0.0122044794
v -0.00749190804 0.0692799538 0.0114126289
v -0.00749190804 0.0698758587 0.0104640881
v -0.00749190804 0.0702455938 0.00940687768
v -0.00749190804 0.0703707337 0.00829525758
v -0.0074919071 0.0653707311 -0.0133047523
v -0.0074919071 0.0664823651 -0.0131796123
v -0.0074919071 0.0675395727 -0.0128098819
v -0.0074919071 0.0684881136 -0.0122139715
v -0.0074919071 0.0692799538 -0.011422121
v -0.0074919071 0.0698758587 -0.0104735801
v -0.0074919071 0.0702455938 -0.00941636972
v -0.0074919071 0.0703707337 -0.00830474962
v -0.00368847582 0.0703321099 0.00330805546
v -0.00368847582 0.0703321248 0.00330806547
v -0.00368847558 0.0703320727 -0.00332715758
v -0.00368847558 0.0703321248 -0.00332714734
v -0.00349042611 0.0703321248 0.00414166553
v -0.00349042611 0.0703321248 0.00414170558
v -0.00349042565 0.0703321248 -0.00416074786
v -0.00349042565 0.0703321323 -0.00416075764
v -0.00344302016 -0.0202615578 0.0132952295
v -0.003443019 -0.0202615671 -0.0133374622
v -0.00344301783 0.0357084274 0.0132952295
v -0.00344301667 0.0357083902 -0.0133374417
v -0.00344191142 -0.0548293218 0.00829525758
v -0.00344191142 -0.0547041744 0.00940687768
v -0.00344191142 -0.0543344393 0.0104640881
v -0.00344191142 -0.0537385419 0.0114126289
v -0.00344191142 -0.0529466942 0.0122044794
v -0.00344191142 -0.0519981533 0.0128003899
v -0.00344191142 -0.0509409457 0.0131701203
v -0.00344191142 -0.0498293191 0.0132952603
v -0.00344191073 -0.0548293218 -0.00831434038
v -0.00344191073 -0.0547041744 -0.00943556055
v -0.00344191049 -0.0543344393 -0.0104927709
v -0.00344191049 -0.0537385419 -0.0114413109
v -0.00344191049 -0.0529466942 -0.0122331614
v -0.00344191026 -0.0519981533 -0.0128290709
v -0.00344191026 -0.0509409457 -0.0131988013
v -0.00344191026 -0.0498293191 -0.0133143524
v -0.00344191003 -0.0202765651 0.0132952603
v -0.00344190886 -0.0202615261 -0.0133374324
v -0.0034419077 0.03570842 0.0132952603
v -0.00344190653 0.03570842 -0.0133374324
v -0.0034419063 0.0653707311 0.0132952603
v -0.0034419063 0.0664823651 0.0131701203
v -0.0034419063 0.0675395727 0.0128003899
v -0.00344190607 0.0684881136 0.0122044794
v -0.00344190607 0.0692799538 0.0114126289
v -0.00344190607 0.0698758587 0.0104640881
v -0.00344190607 0.0702455938 0.00940687768
v -0.00344190514 0.0653707311 -0.0133047523
v -0.00344190514 0.0664823651 -0.0131796123
v -0.00344190514 0.0675395727 -0.0128098819
v -0.00344190514 0.0684881136 -0.0122139715
v -0.00344190514 0.0692799538 -0.011422121
v -0.00344190514 0.0698758587 -0.0104735801
v -0.00344190514 0.0702455938 -0.00941636972
v -0.00319191045 -0.0213153865 0.0132952202
v -0.00319190929 -0.0213153958 -0.0133374622
v -0.00319190789 0.0367622301 0.0132952295
v -0.00319190673 0.0367622077 -0.0133374715
v -0.00319190673 0.0367622487 -0.0133374324
v -0.0031907903 -0.0213153567 0.0132952603
v -0.00319078914 -0.0213153567 -0.0133374324
v -0.00319078774 0.0367622487 0.0132952603
v -0.00261580572 0.0703321025 0.00512319664
v -0.00261580572 0.0703321099 0.00512317615
v -0.00261580525 0.0703321025 -0.00514225801
v -0.00261580525 0.0703321248 -0.00514225801
v -0.00254387991 -0.0222467259 0.01329521
v -0.00254387874 -0.0222467072 -0.0133374622
v -0.00254387734 0.0376936123 0.0132952295
v -0.00254387618 0.037693575 -0.0133374827
v -0.00254387618 0.0376936197 -0.0133374324
v -0.00254277 -0.0222467259 0.0132952603
v -0.00254276861 -0.0222467259 -0.0133374324
v -0.00254276721 0.0376936197 0.0132952603
v -0.00189262535 0.0703320727 0.00570182689
v -0.00189262535 0.0703321248 0.00570181664
v -0.00189262489 0.0703321323 -0.00572089851
v -0.00189262489 0.0703321323 -0.00572088873
v -0.00175575959 -0.022925077 0.01329525
v -0.00175575842 -0.022925077 -0.0133374417
v -0.00175575691 0.0383719429 0.0132952398
v -0.00175575574 0.0383719429 -0.013337451
v -0.00175575574 0.0383719504 -0.0133374324
v -0.0017546569 0.0383720323 0.0132952603
v -0.00175464852 -0.0229250584 -0.0133374324
v -0.00175463967 -0.0229249783 0.0132952603
v -0.00169302081 -0.0548293293 0.00829525758
v -0.00169302081 -0.054704152 0.00940687768
v -0.00169302081 -0.0543344319 0.0104640787
v -0.00169302081 -0.0537385494 0.0114126494
v -0.00169302081 -0.0529467091 0.0122044701
v -0.00169302081 -0.0519981533 0.0128003797
v -0.00169302081 -0.0509409085 0.0131701296
v -0.00169302081 -0.0498529375 0.0132952798
v -0.00169302011 -0.0548293293 -0.00831434038
v -0.00169301999 -0.0547041893 -0.00943558011
v -0.00169301988 -0.0543344393 -0.0104927802
v -0.00169301988 -0.0537385345 -0.0114413109
v -0.00169301988 -0.0529466271 -0.0122331511
v -0.00169301976 -0.0519981608 -0.0128290914
v -0.00169301964 -0.0509409532 -0.013198792
v -0.00169301964 -0.0498529971 -0.0133258915
v -0.00169301569 0.0653234348 0.0132952696
v -0.00169301569 0.0653320923 0.01329525
v -0.00169301569 0.0664437041 0.0131701203
v -0.00169301569 0.0675009415 0.0128003899
v -0.00169301557 0.0684495047 0.0122044794
v -0.00169301545 0.0692413226 0.0114126289
v -0.00169301545 0.0698372424 0.0104640881
v -0.00169301534 0.0702069998 0.00940687768
v -0.00169301534 0.0703321919 0.00829526782
v -0.00169301522 0.070332095 0.00634965673
v -0.00169301475 0.070332095 -0.00636872882
v -0.00169301452 0.0664437413 -0.0131988013
v -0.00169301452 0.0675009191 -0.0128290709
v -0.00169301452 0.06844946 -0.0122331819
v -0.00169301452 0.0692413673 -0.0114413006
v -0.00169301452 0.06983722 -0.0104927914
v -0.00169301452 0.0702069998 -0.00943556987
v -0.00169301452 0.0703321323 -0.00831431989
v -0.0016919109 -0.0548293218 0.00829525758
v -0.0016919109 -0.0547041744 0.00940687768
v -0.0016919109 -0.0543344393 0.0104640881
v -0.0016919109 -0.0537385419 0.0114126289
v -0.0016919109 -0.0529466942 0.0122044794
v -0.0016919109 -0.0519981533 0.0128003899
v -0.0016919109 -0.0509409457 0.0131701203
v -0.0016919109 -0.0498293191 0.0132952603
v -0.00169191009 -0.0548293218 -0.00831434038
v -0.00169190997 -0.0547041744 -0.00943556055
v -0.00169190997 -0.0543344393 -0.0104927709
v -0.00169190997 -0.0537385419 -0.0114413109
v -0.00169190986 -0.0529466942 -0.0122331614
v -0.00169190974 -0.0519981533 -0.0128290709
v -0.00169190974 -0.0509409457 -0.0131988013
v -0.00169190974 -0.0498293191 -0.0133143524
v -0.00169190578 0.0653707311 0.0132952603
v -0.00169190578 0.0664823651 0.0131701203
v -0.00169190567 0.0675395727 0.0128003899
v -0.00169190555 0.0684881136 0.0122044794
v -0.00169190555 0.0692799538 0.0114126289
v -0.00169190555 0.0698758587 0.0104640881
v -0.00169190532 0.0702455938 0.00940687768
v -0.00169190532 0.0703707337 0.00634962693
v -0.00169190473 0.0703707337 -0.0063687088
v -0.00169190462 0.0653707311 -0.0133047523
v -0.00169190462 0.0653707385 -0.0133047914
v -0.00169190462 0.0664823651 -0.0131796123
v -0.00169190462 0.0675395727 -0.0128098819
v -0.00169190462 0.0684881136 -0.0122139715
v -0.00169190462 0.0692799538 -0.011422121
v -0.00169190462 0.0698758587 -0.0104735801
v -0.00169190462 0.0702455938 -0.00941636972
v -0.0011924681 0.0077234162 0.0132952398
v -0.00119246694 0.00772340596 -0.0133374622
v -0.00119246473 0.0703321323 -9.54602183e-06
v -0.000691910391 -0.0543344393 0.0104640881
v -0.000691910391 -0.0543344319 0.0104640787
v -0.000691910391 -0.0537385494 0.0114126494
v -0.000691910391 -0.0537385419 0.0114126289
v -0.000691910391 -0.0529467091 0.0122044701
v -0.000691910391 -0.0529466942 0.0122044794
v -0.000691910391 -0.0519981533 0.0128003797
v -0.000691910391 -0.0519981533 0.0128003899
v -0.000691910333 -0.0548293293 0.00829525758
v -0.000691910333 -0.0548293218 0.00829525758
v -0.000691910333 -0.0547041744 0.00940687768
v -0.000691910333 -0.054704152 0.00940687768
v -0.000691910333 -0.0509409457 0.0131701203
v -0.000691910333 -0.0509409085 0.0131701296
v -0.000691910333 -0.0498529375 0.0132952798
v -0.000691910333 -0.0498293191 0.0132952603
v -0.000691909576 -0.0548293293 -0.00831434038
v -0.000691909576 -0.0548293218 -0.00831434038
v -0.000691909518 -0.0547041893 -0.00943558011
v -0.000691909518 -0.0547041744 -0.00943556055
v -0.000691909459 -0.0543344393 -0.0104927802
v -0.000691909459 -0.0543344393 -0.0104927709
v -0.000691909401 -0.0537385419 -0.0114413109
v -0.000691909401 -0.0537385345 -0.0114413109
v -0.000691909343 -0.0529466942 -0.0122331614
v -0.000691909343 -0.0529466271 -0.0122331511
v -0.000691909285 -0.0519981608 -0.0128290914
v -0.000691909285 -0.0519981533 -0.0128290709
v -0.000691909168 -0.0509409532 -0.013198792
v -0.000691909168 -0.0509409457 -0.0131988013
v -0.000691909168 -0.0498529971 -0.0133258915
v -0.000691909168 -0.0498293191 -0.0133143524
v -0.000691905268 0.0653234348 0.0132952696
v -0.000691905268 0.0653320923 0.01329525
v -0.000691905268 0.0653707311 0.0132952603
v -0.00069190521 0.0664437041 0.0131701203
v -0.00069190521 0.0664823651 0.0131701203
v -0.000691905152 0.0675009415 0.0128003899
v -0.000691905152 0.0675395727 0.0128003899
v -0.000691905094 0.0684495047 0.0122044794
v -0.000691905094 0.0684881136 0.0122044794
v -0.000691905036 0.0692413226 0.0114126289
v -0.000691905036 0.0692799538 0.0114126289
v -0.000691904977 0.0698372424 0.0104640881
v -0.000691904977 0.0698758587 0.0104640881
v -0.000691904861 0.0702069998 0.00940687768
v -0.000691904861 0.0702455938 0.00940687768
v -0.000691904861 0.0703321919 0.00829526782
v -0.000691904745 0.070332095 0.00634965673
v -0.000691904745 0.0703707337 0.00634962693
v -0.000691904221 0.070332095 -0.00636872882
v -0.000691904221 0.0703707337 -0.00634481851
v -0.000691904104 0.0653707311 -0.0133047523
v -0.000691904104 0.0653707385 -0.0133047914
v -0.000691904104 0.0703321323 -0.00831431989
v -0.000691904046 0.0664437413 -0.0131988013
v -0.000691904046 0.0664823651 -0.0131796123
v -0.000691904046 0.0675009191 -0.0128290709
v -0.000691904046 0.0675395727 -0.0128098819
v -0.000691904046 0.06844946 -0.0122331819
v -0.000691904046 0.0684881136 -0.0122139715
v -0.000691904046 0.0692413673 -0.0114413006
v -0.000691904046 0.0692799538 -0.011422121
v -0.000691904046 0.06983722 -0.0104927914
v -0.000691904046 0.0698758587 -0.0104735801
v -0.000691904046 0.0702069998 -0.00943556987
v -0.000691904046 0.0702455938 -0.00941636972
v -0.000629179121 -0.0229249783 0.0132952603
v -0.00062916911 -0.022925077 0.01329525
v -0.000629167946 -0.022925077 -0.0133374417
v -0.000629167946 -0.0229250584 -0.0133374324
v -0.000629166432 0.0383719429 0.0132952398
v -0.000629165268 0.0383719429 -0.013337451
v -0.000629165268 0.0383719504 -0.0133374324
v -0.000629156479 0.0383720323 0.0132952603
v -0.000492294726 0.0703320727 0.00570182689
v -0.000492294726 0.0703321099 0.00570181664
v -0.000492294203 0.0703321248 -0.00572089851
v -0.000492294203 0.0703321323 -0.00572088873
v 0.000158951269 -0.0222467259 0.01329521
v 0.000158951269 -0.0222467259 0.0132952603
v 0.000158952433 -0.0222467259 -0.0133374324
v 0.000158952433 -0.0222467072 -0.0133374622
v 0.00015895383 0.0376936123 0.0132952295
v 0.00015895383 0.0376936197 0.0132952603
v 0.000158954994 0.037693575 -0.0133374827
v 0.000158954994 0.0376936197 -0.0133374324
v 0.000230885576 0.0703321025 0.00512319664
v 0.000230885576 0.0703321248 0.00512317615
v 0.000230886042 0.0703321025 -0.00514225801
v 0.000230886042 0.0703321248 -0.00514225801
v 0.000806981465 -0.0213153865 0.0132952202
v 0.000806981465 -0.0213153567 0.0132952603
v 0.000806982629 -0.0213153958 -0.0133374622
v 0.000806982629 -0.0213153567 -0.0133374324
v 0.000806984026 0.0367622301 0.0132952295
v 0.000806984026 0.0367622487 0.0132952603
v 0.00080698519 0.0367622077 -0.0133374715
v 0.00080698519 0.0367622487 -0.0133374324
v 0.00105809025 -0.0548293218 0.00829525758
v 0.00105809025 -0.0547041744 0.00940687768
v 0.00105809025 -0.0543344393 0.0104640881
v 0.00105809025 -0.0537385419 0.0114126289
v 0.00105809025 -0.0529466942 0.0122044794
v 0.00105809025 -0.0519981533 0.0128003899
v 0.00105809025 -0.0509409457 0.0131701203
v 0.00105809025 -0.0498293191 0.0132952603
v 0.00105809094 -0.0548293218 -0.00831434038
v 0.00105809094 -0.0547041744 -0.00943556055
v 0.00105809118 -0.0543344393 -0.0104927709
v 0.00105809118 -0.0537385419 -0.0114413109
v 0.00105809118 -0.0529466942 -0.0122331614
v 0.00105809141 -0.0519981533 -0.0128290709
v 0.00105809141 -0.0509409457 -0.0131988013
v 0.00105809141 -0.0498293191 -0.0133143524
v 0.00105809164 -0.0202765651 0.0132952603
v 0.00105809164 -0.0202615578 0.0132952295
v 0.00105809281 -0.0202615671 -0.0133374622
v 0.00105809281 -0.0202615261 -0.0133374324
v 0.00105809397 0.03570842 0.0132952603
v 0.00105809397 0.0357084274 0.0132952295
v 0.00105809513 0.0357083902 -0.0133374417
v 0.00105809513 0.03570842 -0.0133374324
v 0.00105809537 0.0653707311 0.0132952603
v 0.00105809537 0.0664823651 0.0131701203
v 0.00105809537 0.0675395727 0.0128003899
v 0.0010580956 0.0684881136 0.0122044794
v 0.0010580956 0.0692799538 0.0114126289
v 0.0010580956 0.0698758587 0.0104640881
v 0.0010580956 0.0702455938 0.00940687768
v 0.00105809653 0.0653707311 -0.0133047523
v 0.00105809653 0.0664823651 -0.0131796123
v 0.00105809653 0.0675395727 -0.0128098819
v 0.00105809653 0.0684881136 -0.0122139715
v 0.00105809653 0.0692799538 -0.011422121
v 0.00105809653 0.0698758587 -0.0104735801
v 0.00105809653 0.0702455938 -0.00941636972
v 0.00110550597 0.0703321248 0.00414166553
v 0.00110550597 0.0703321248 0.00414170558
v 0.00110550644 0.0703321248 -0.00416074786
v 0.00110550644 0.0703321323 -0.00416075764
v 0.00130355638 0.0703321099 0.00330805546
v 0.00130355638 0.0703321248 0.00330806547
v 0.00130355661 0.0703320727 -0.00332715758
v 0.00130355661 0.0703321248 -0.00332714734
v 0.00530809164 -0.0547041744 0.00940687768
v 0.00530809164 -0.0543344393 0.0104640881
v 0.00530809164 -0.0537385419 0.0114126289
v 0.00530809164 -0.0529466942 0.0122044794
v 0.00530809164 -0.0519981533 0.0128003899
v 0.00530809164 -0.0509409457 0.0131701203
v 0.00530809211 -0.0548293218 0.00829525758
v 0.00530809211 -0.0498293191 0.0132952603
v 0.00530809257 -0.0548293218 -0.00831434038
v 0.00530809257 -0.0547041744 -0.00943556055
v 0.00530809257 -0.0543344393 -0.0104927709
v 0.00530809304 -0.0537385419 -0.0114413109
v 0.00530809304 -0.0529466942 -0.0122331614
v 0.00530809304 -0.0519981533 -0.0128290709
v 0.00530809304 -0.0509409457 -0.0131988013
v 0.00530809304 -0.0498293191 -0.0133143524
v 0.00530809676 0.0653707311 0.0132952603
v 0.00530809676 0.0664823651 0.0131701203
v 0.00530809723 0.0675395727 0.0128003899
v 0.00530809723 0.0684881136 0.0122044794
v 0.00530809723 0.0692799538 0.0114126289
v 0.00530809723 0.0698758587 0.0104640881
v 0.00530809723 0.0702455938 0.00940687768
v 0.00530809723 0.0703707337 0.00829525758
v 0.00530809816 0.0653707311 -0.0133047523
v 0.00530809816 0.0664823651 -0.0131796123
v 0.00530809816 0.0675395727 -0.0128098819
v 0.00530809816 0.0684881136 -0.0122139715
v 0.00530809816 0.0692799538 -0.011422121
v 0.00530809816 0.0698758587 -0.0104735801
v 0.00530809816 0.0702455938 -0.00941636972
v 0.00530809816 0.0703707337 -0.00830474962
v 0.00667493418 -0.0532003939 -0.00831434038
v 0.0066750031 -0.053200312 0.00829525758
v 0.00670573395 -0.0505706221 -0.0115748504
v 0.00670576375 -0.0528336316 0.00974156801
v 0.00670576375 -0.05243624 0.0103741288
v 0.00670576375 -0.0519081801 0.0109021794
v 0.00670576375 -0.0512756407 0.0112995692
v 0.00670576375 -0.0505706146 0.0115461387
v 0.00670576468 -0.0530801937 -0.00906524993
v 0.00670576468 -0.0528336316 -0.00977024995
v 0.00670576468 -0.05243624 -0.0104028014
v 0.00670576468 -0.0519081801 -0.0109308604
v 0.00670576468 -0.0512756407 -0.0113282511
v 0.00670576841 0.0661120415 0.0115461387
v 0.00670576841 0.0668170601 0.0112995692
v 0.00670576841 0.067449607 0.0109021794
v 0.00670576841 0.0679776594 0.0103741288
v 0.00670576841 0.068375051 0.00974156801
v 0.00670576934 0.0661120415 -0.0115556307
v 0.00670576934 0.0668170601 -0.0113090612
v 0.00670576934 0.067449607 -0.0109116714
v 0.00670576934 0.0679776594 -0.0103836209
v 0.00670576934 0.068375051 -0.00975106005
v 0.00670576934 0.0686216131 0.00903656799
v 0.00670577306 -0.0530801788 0.00903655775
v 0.00670577865 0.0686215982 -0.00904604979
v 0.0067058485 0.0687049627 0.00829525758
v 0.0067059435 -0.0498293191 0.0116293784
v 0.00670594443 -0.0498293191 -0.0116484612
v 0.00670594815 0.0653707311 0.0116293784
v 0.00670594908 0.0653707311 -0.0116388705
v 0.00670594908 0.0687048435 -0.00830474962
v 0.00674809329 -0.0531131998 0.00818196777
v 0.00674809329 -0.0529665798 0.0090109678
v 0.00674809329 -0.0527286828 0.00969104841
v 0.00674809329 -0.0523451716 0.0103014987
v 0.00674809329 -0.0518355593 0.0108111091
v 0.00674809329 -0.0512251109 0.0111946184
v 0.00674809329 -0.050544709 0.0114325695
v 0.00674809329 -0.0498256311 0.0115135582
v 0.00674809422 -0.0531131998 -0.0082009295
v 0.00674809422 -0.0529666096 -0.0090393899
v 0.00674809422 -0.0527286828 -0.00971973035
v 0.00674809422 -0.0523451716 -0.0103301797
v 0.00674809422 -0.0518355593 -0.0108397901
v 0.00674809422 -0.0512251109 -0.0112232901
v 0.00674809422 -0.0505451113 -0.0114610717
v 0.00674809422 -0.0498260558 -0.0115326503
v 0.00674809422 -0.042733863 -4.74567287e-06
v 0.00674809422 -0.0422323644 -0.0031739173
v 0.00674809422 -0.0422323644 0.00316442573
v 0.00674809422 -0.0407738462 -0.00603758823
v 0.00674809422 -0.0407738462 0.00602809712
v 0.00674809422 -0.0385023057 -0.00830913987
v 0.00674809422 -0.0385023057 0.00829964783
v 0.00674809422 -0.0356386378 0.00975815859
v 0.00674809422 -0.0324694589 0.0102596683
v 0.00674809422 -0.0293002892 0.00975815859
v 0.00674809422 -0.0264366213 0.00829964783
v 0.00674809422 -0.0241650678 0.00602809712
v 0.00674809515 -0.0356386378 -0.00976765063
v 0.00674809515 -0.0324694589 -0.0102691604
v 0.00674809515 -0.0293002892 -0.00976765063
v 0.00674809515 -0.0264366213 -0.00830913987
v 0.00674809515 -0.0241650678 -0.00603758823
v 0.00674809515 -0.0227065571 -0.0031739173
v 0.00674809515 -0.0227065571 0.00316442573
v 0.00674809515 -0.0222050454 -4.74567287e-06
v 0.00674809702 0.020263141 -4.74567287e-06
v 0.00674809702 0.0207646415 -0.0031739173
v 0.00674809702 0.0207646415 0.00316442573
v 0.00674809702 0.0222231615 -0.00603758823
v 0.00674809702 0.0222231615 0.00602809712
v 0.00674809702 0.0244947039 -0.00830913987
v 0.00674809702 0.0244947039 0.00829964783
v 0.00674809702 0.0273583829 -0.00976765063
v 0.00674809702 0.0273583829 0.00975815859
v 0.00674809702 0.0305275563 0.0102596683
v 0.00674809702 0.033696726 0.00975815859
v 0.00674809702 0.0365603976 0.00829964783
v 0.00674809702 0.0388319418 0.00602809712
v 0.00674809702 0.04029046 0.00316442573
v 0.00674809795 0.0305275563 -0.0102691604
v 0.00674809795 0.033696726 -0.00976765063
v 0.00674809795 0.0365603976 -0.00830913987
v 0.00674809795 0.0388319418 -0.00603758823
v 0.00674809795 0.04029046 -0.0031739173
v 0.00674809795 0.0407919586 -4.74567287e-06
v 0.00674809795 0.0653670505 0.0115135582
v 0.00674809795 0.0660861433 0.0114325695
v 0.00674809795 0.0667665377 0.0111946184
v 0.00674809795 0.0673769787 0.0108111091
v 0.00674809795 0.067886591 0.0103014987
v 0.00674809795 0.0682701021 0.00969104841
v 0.00674809888 0.0653670505 -0.0115230503
v 0.00674809888 0.0660861433 -0.0114420615
v 0.00674809888 0.0667665377 -0.0112041105
v 0.00674809888 0.0673769787 -0.0108206011
v 0.00674809888 0.067886591 -0.0103109907
v 0.00674809888 0.0682701021 -0.00970054045
v 0.00674809888 0.0685079917 -0.00902047008
v 0.00674809888 0.0685080513 0.00901066791
v 0.00674809888 0.0685888678 0.00829156768
v 0.00674809888 0.0685890168 -0.00830137916
v 0.00723936409 -0.0422324911 -4.74565149e-06
v 0.00723936409 -0.0417554826 -0.00301911682
v 0.00723936409 -0.0417554826 0.00300962571
v 0.00723936409 -0.0403682142 -0.00574290799
v 0.00723936409 -0.0403682142 0.00573341688
v 0.00723936409 -0.0382076278 -0.00790349953
v 0.00723936409 -0.0382076278 0.00789400749
v 0.00723936409 -0.0354838371 0.00928127766
v 0.00723936409 -0.0324694589 0.00975828804
v 0.00723936409 -0.0294550899 0.00928127766
v 0.00723936409 -0.0267312992 0.00789400749
v 0.00723936409 -0.0245707072 0.00573341688
v 0.00723936502 -0.0354838371 -0.0092907697
v 0.00723936502 -0.0324694589 -0.00976778008
v 0.00723936502 -0.0294550899 -0.0092907697
v 0.00723936502 -0.0267312992 -0.00790349953
v 0.00723936502 -0.0245707072 -0.00574290799
v 0.00723936502 -0.0231834371 -0.00301911682
v 0.00723936502 -0.0231834371 0.00300962571
v 0.00723936502 -0.0227064267 -4.74565149e-06
v 0.00723936688 0.0207645223 -4.74565149e-06
v 0.00723936688 0.0212415215 -0.00301911682
v 0.00723936688 0.0212415215 0.00300962571
v 0.00723936688 0.0226288028 -0.00574290799
v 0.00723936688 0.0226288028 0.00573341688
v 0.00723936688 0.0247893929 -0.00790349953
v 0.00723936688 0.0247893929 0.00789400749
v 0.00723936688 0.0275131837 -0.0092907697
v 0.00723936688 0.0275131837 0.00928127766
v 0.00723936688 0.0305275563 0.00975828804
v 0.00723936688 0.0335419253 0.00928127766
v 0.00723936688 0.036265716 0.00789400749
v 0.00723936688 0.0384263098 0.00573341688
v 0.00723936688 0.0398135781 0.00300962571
v 0.00723936781 0.0305275563 -0.00976778008
v 0.00723936781 0.0335419253 -0.0092907697
v 0.00723936781 0.036265716 -0.00790349953
v 0.00723936781 0.0384263098 -0.00574290799
v 0.00723936781 0.0398135781 -0.00301911682
v 0.00723936781 0.0402905867 -4.74565149e-06
v 0.0168080963 -0.0420654714 -4.74523313e-06
v 0.0168080963 -0.0415966287 -0.00296754669
v 0.0168080963 -0.0415966287 0.00295805605
v 0.0168080963 -0.0402330905 -0.00564473774
v 0.0168080963 -0.0402330905 0.00563524757
v 0.0168080963 -0.0381094515 -0.00776836835
v 0.0168080963 -0.0381094515 0.00775887817
v 0.0168080963 -0.0354322642 -0.00913190842
v 0.0168080963 -0.0354322642 0.00912241824
v 0.0168080963 -0.0324694589 -0.00960074924
v 0.0168080963 -0.0324694589 0.00959125906
v 0.0168080963 -0.0295066629 -0.00913190842
v 0.0168080963 -0.0295066629 0.00912241824
v 0.0168080963 -0.0268294681 -0.00776836835
v 0.0168080963 -0.0268294681 0.00775887817
v 0.0168080963 -0.0247058384 -0.00564473774
v 0.0168080963 -0.0247058384 0.00563524757
v 0.0168080963 -0.0233422983 -0.00296754669
v 0.0168080963 -0.0233422983 0.00295805605
v 0.0168080963 -0.0228734575 -4.74523313e-06
v 0.0168081 0.0209315512 -4.74523313e-06
v 0.0168081 0.0214003921 -0.00296754669
v 0.0168081 0.0214003921 0.00295805605
v 0.0168081 0.0227639321 -0.00564473774
v 0.0168081 0.0227639321 0.00563524757
v 0.0168081 0.0248875525 -0.00776836835
v 0.0168081 0.0248875525 0.00775887817
v 0.0168081 0.0275647547 -0.00913190842
v 0.0168081 0.0275647547 0.00912241824
v 0.0168081 0.0305275563 -0.00960074924
v 0.0168081 0.0305275563 0.00959125906
v 0.0168081 0.0334903598 -0.00913190842
v 0.0168081 0.0334903598 0.00912241824
v 0.0168081 0.0361675471 -0.00776836835
v 0.0168081 0.0361675471 0.00775887817
v 0.0168081 0.0382911786 -0.00564473774
v 0.0168081 0.0382911786 0.00563524757
v 0.0168081 0.0396547168 -0.00296754669
v 0.0168081 0.0396547168 0.00295805605
v 0.0168081 0.0401235595 -4.74523313e-06
v 0.0183080994 -0.0420654714 -4.74516764e-06
v 0.0183080994 -0.0415966287 -0.00296754646
v 0.0183080994 -0.0415966287 0.00295805628
v 0.0183080994 -0.0402330905 -0.00564473774
v 0.0183080994 -0.0402330905 0.00563524757
v 0.0183080994 -0.0381094515 -0.00776836835
v 0.0183080994 -0.0381094515 0.00775887817
v 0.0183080994 -0.0354322642 -0.00913190842
v 0.0183080994 -0.0354322642 0.00912241824
v 0.0183080994 -0.0324694589 -0.00960074924
v 0.0183080994 -0.0324694589 0.00959125906
v 0.0183080994 -0.0295066629 -0.00913190842
v 0.0183080994 -0.0295066629 0.00912241824
v 0.0183080994 -0.0268294681 -0.00776836835
v 0.0183080994 -0.0268294681 0.00775887817
v 0.0183080994 -0.0247058384 -0.00564473774
v 0.0183080994 -0.0247058384 0.00563524757
v 0.0183080994 -0.0233422983 -0.00296754646
v 0.0183080994 -0.0233422983 0.00295805628
v 0.0183080994 -0.0228734575 -4.74516764e-06
v 0.0183081031 0.0209315512 -4.74516764e-06
v 0.0183081031 0.0214003921 -0.00296754646
v 0.0183081031 0.0214003921 0.00295805628
v 0.0183081031 0.0227639321 -0.00564473774
v 0.0183081031 0.0227639321 0.00563524757
v 0.0183081031 0.0248875525 -0.00776836835
v 0.0183081031 0.0248875525 0.00775887817
v 0.0183081031 0.0275647547 -0.00913190842
v 0.0183081031 0.0275647547 0.00912241824
v 0.0183081031 0.0305275563 -0.00960074924
v 0.0183081031 0.0305275563 0.00959125906
v 0.0183081031 0.0334903598 -0.00913190842
v 0.0183081031 0.0334903598 0.00912241824
v 0.0183081031 0.0361675471 -0.00776836835
v 0.0183081031 0.0361675471 0.00775887817
v 0.0183081031 0.0382911786 -0.00564473774
v 0.0183081031 0.0382911786 0.00563524757
v 0.0183081031 0.0396547168 -0.00296754646
v 0.0183081031 0.0396547168 0.00295805628
v 0.0183081031 0.0401235595 -4.74516764e-06
v 0.0188865289 -0.0385086462 -4.74514218e-06
v 0.0188865289 -0.0382135734 -0.00186936592
v 0.0188865289 -0.0382135734 0.00185987575
v 0.0188865289 -0.0373554528 -0.00355423661
v 0.0188865289 -0.0373554528 0.00354474643
v 0.0188865289 -0.0360189527 -0.00489072734
v 0.0188865289 -0.0360189527 0.00488123717
v 0.0188865289 -0.0343340784 -0.00574886752
v 0.0188865289 -0.0343340784 0.00573937735
v 0.0188865289 -0.0324694589 -0.00604392774
v 0.0188865289 -0.0324694589 0.00603443757
v 0.0188865289 -0.0306048412 -0.00574886752
v 0.0188865289 -0.0306048412 0.00573937735
v 0.0188865289 -0.0289199706 -0.00489072734
v 0.0188865289 -0.0289199706 0.00488123717
v 0.0188865289 -0.0275834706 -0.00355423661
v 0.0188865289 -0.0275834706 0.00354474643
v 0.0188865289 -0.0267253388 -0.00186936592
v 0.0188865289 -0.0267253388 0.00185987575
v 0.0188865289 -0.0264302772 -4.74514218e-06
v 0.0188865326 0.0244883727 -4.74514218e-06
v 0.0188865326 0.0247834325 -0.00186936592
v 0.0188865326 0.0247834325 0.00185987575
v 0.0188865326 0.0256415643 -0.00355423661
v 0.0188865326 0.0256415643 0.00354474643
v 0.0188865326 0.0269780662 -0.00489072734
v 0.0188865326 0.0269780662 0.00488123717
v 0.0188865326 0.0286629349 -0.00574886752
v 0.0188865326 0.0286629349 0.00573937735
v 0.0188865326 0.0305275563 -0.00604392774
v 0.0188865326 0.0305275563 0.00603443757
v 0.0188865326 0.0323921777 -0.00574886752
v 0.0188865326 0.0323921777 0.00573937735
v 0.0188865326 0.0340770483 -0.00489072734
v 0.0188865326 0.0340770483 0.00488123717
v 0.0188865326 0.0354135372 -0.00355423661
v 0.0188865326 0.0354135372 0.00354474643
v 0.0188865326 0.036271669 -0.00186936592
v 0.0188865326 0.036271669 0.00185987575
v 0.0188865326 0.036566738 -4.74514218e-06
v 0.0203080997 -0.0393390805 -4.74507988e-06
v 0.0203080997 -0.0390034318 -0.0021257659
v 0.0203080997 -0.0390034318 0.00211627572
v 0.0203080997 -0.0385086462 -4.74507988e-06
v 0.0203080997 -0.0382135734 -0.00186936592
v 0.0203080997 -0.0382135734 0.00185987575
v 0.0203080997 -0.0380273163 -0.00404232694
v 0.0203080997 -0.0380273163 0.00403283676
v 0.0203080997 -0.0373554528 -0.00355423661
v 0.0203080997 -0.0373554528 0.00354474643
v 0.0203080997 -0.0365070403 -0.00556259742
v 0.0203080997 -0.0365070403 0.00555310724
v 0.0203080997 -0.0360189527 -0.00489072734
v 0.0203080997 -0.0360189527 0.00488123717
v 0.0203080997 -0.0345904827 -0.00653873803
v 0.0203080997 -0.0345904827 0.00652924785
v 0.0203080997 -0.0343340784 -0.00574886752
v 0.0203080997 -0.0343340784 0.00573937735
v 0.0203080997 -0.0324694589 -0.00687436806
v 0.0203080997 -0.0324694589 -0.00604392774
v 0.0203080997 -0.0324694589 -4.74507988e-06
v 0.0203080997 -0.0324694589 0.00603443757
v 0.0203080997 -0.0324694589 0.00686487788
v 0.0203080997 -0.0306048412 -0.00574886752
v 0.0203080997 -0.0306048412 0.00573937735
v 0.0203080997 -0.0303484406 -0.00653873803
v 0.0203080997 -0.0303484406 0.00652924785
v 0.0203080997 -0.0289199706 -0.00489072734
v 0.0203080997 -0.0289199706 0.00488123717
v 0.0203080997 -0.0284318794 -0.00556259742
v 0.0203080997 -0.0284318794 0.00555310724
v 0.0203080997 -0.0275834706 -0.00355423661
v 0.0203080997 -0.0275834706 0.00354474643
v 0.0203080997 -0.0269116107 -0.00404232694
v 0.0203080997 -0.0269116107 0.00403283676
v 0.0203080997 -0.0267253388 -0.00186936592
v 0.0203080997 -0.0267253388 0.00185987575
v 0.0203080997 -0.0264302772 -4.74507988e-06
v 0.0203080997 -0.0259354692 -0.0021257659
v 0.0203080997 -0.0259354692 0.00211627572
v 0.0203080997 -0.025599841 -4.74507988e-06
v 0.0203081034 0.0236579217 -4.74507988e-06
v 0.0203081034 0.0239935722 -0.0021257659
v 0.0203081034 0.0239935722 0.00211627572
v 0.0203081034 0.0244883709 -4.74507988e-06
v 0.0203081034 0.0247834306 -0.00186936592
v 0.0203081034 0.0247834306 0.00185987575
v 0.0203081034 0.0249696914 -0.00404232694
v 0.0203081034 0.0249696914 0.00403283676
v 0.0203081034 0.0256415624 -0.00355423661
v 0.0203081034 0.0256415624 0.00354474643
v 0.0203081034 0.0264899731 -0.00556259742
v 0.0203081034 0.0264899731 0.00555310724
v 0.0203081034 0.0269780643 -0.00489072734
v 0.0203081034 0.0269780643 0.00488123717
v 0.0203081034 0.0284065232 -0.00653873803
v 0.0203081034 0.0284065232 0.00652924785
v 0.0203081034 0.028662933 -0.00574886752
v 0.0203081034 0.028662933 0.00573937735
v 0.0203081034 0.0305275433 -0.00687436806
v 0.0203081034 0.0305275433 -4.74507988e-06
v 0.0203081034 0.0305275433 0.00686487788
v 0.0203081034 0.0305275545 -0.00604392774
v 0.0203081034 0.0305275545 0.00603443757
v 0.0203081034 0.032392174 -0.00574886752
v 0.0203081034 0.032392174 0.00573937735
v 0.0203081034 0.0326485746 -0.00653873803
v 0.0203081034 0.0326485746 0.00652924785
v 0.0203081034 0.0340770483 -0.00489072734
v 0.0203081034 0.0340770483 0.00488123717
v 0.0203081034 0.0345651247 -0.00556259742
v 0.0203081034 0.0345651247 0.00555310724
v 0.0203081034 0.0354135334 -0.00355423661
v 0.0203081034 0.0354135334 0.00354474643
v 0.0203081034 0.036085397 -0.00404232694
v 0.0203081034 0.036085397 0.00403283676
v 0.0203081034 0.036271669 -0.00186936592
v 0.0203081034 0.036271669 0.00185987575
v 0.0203081034 0.0365667343 -4.74507988e-06
v 0.0203081034 0.0370615423 -0.0021257659
v 0.0203081034 0.0370615423 0.00211627572
v 0.0203081034 0.0373971686 -4.74507988e-06
v 0.0210108496 -0.0391062647 -4.74504941e-06
v 0.0210108496 -0.0387819931 -0.00205388595
v 0.0210108496 -0.0387819931 0.00204439578
v 0.0210108496 -0.0378389508 -0.00390548701
v 0.0210108496 -0.0378389508 0.00389599684
v 0.0210108496 -0.0363702029 -0.00537423743
v 0.0210108496 -0.0363702029 0.00536474725
v 0.0210108496 -0.0345185921 -0.00631728815
v 0.0210108496 -0.0345185921 0.00630779797
v 0.0210108496 -0.0324694589 -0.00664154813
v 0.0210108496 -0.0324694589 0.00663205795
v 0.0210108496 -0.0304203201 -0.00631728815
v 0.0210108496 -0.0304203201 0.00630779797
v 0.0210108496 -0.0285687204 -0.00537423743
v 0.0210108496 -0.0285687204 0.00536474725
v 0.0210108496 -0.0270999689 -0.00390548701
v 0.0210108496 -0.0270999689 0.00389599684
v 0.0210108496 -0.0261569191 -0.00205388595
v 0.0210108496 -0.0261569191 0.00204439578
v 0.0210108496 -0.0258326586 -4.74504941e-06
v 0.0210108534 0.0238907505 -4.74504941e-06
v 0.0210108534 0.0242150109 -0.00205388595
v 0.0210108534 0.0242150109 0.00204439578
v 0.0210108534 0.0251580514 -0.00390548701
v 0.0210108534 0.0251580514 0.00389599684
v 0.0210108534 0.0266268142 -0.00537423743
v 0.0210108534 0.0266268142 0.00536474725
v 0.0210108534 0.0284784138 -0.00631728815
v 0.0210108534 0.0284784138 0.00630779797
v 0.0210108534 0.0305275545 -0.00664154813
v 0.0210108534 0.0305275545 0.00663205795
v 0.0210108534 0.0325766876 -0.00631728815
v 0.0210108534 0.0325766876 0.00630779797
v 0.0210108534 0.0344282836 -0.00537423743
v 0.0210108534 0.0344282836 0.00536474725
v 0.0210108534 0.0358970389 -0.00390548701
v 0.0210108534 0.0358970389 0.00389599684
v 0.0210108534 0.0368400887 -0.00205388595
v 0.0210108534 0.0368400887 0.00204439578
v 0.0210108534 0.0371643454 -4.74504941e-06
v 0.0218051597 -0.0420654714 -4.74501439e-06
v 0.0218051597 -0.0415966287 -0.00296754646
v 0.0218051597 -0.0415966287 0.00295805628
v 0.0218051597 -0.0414026529 -4.74501439e-06
v 0.0218051597 -0.0409661978 -0.00276290625
v 0.0218051597 -0.0409661978 0.00275341608
v 0.0218051597 -0.0402330905 -0.00564473774
v 0.0218051597 -0.0402330905 0.00563524757
v 0.0218051597 -0.0396968424 -0.00525517762
v 0.0218051597 -0.0396968424 0.00524568744
v 0.0218051597 -0.0381094515 -0.00776836835
v 0.0218051597 -0.0381094515 0.00775887817
v 0.0218051597 -0.0377198979 -0.00723212864
v 0.0218051597 -0.0377198979 0.00722263847
v 0.0218051597 -0.0354322642 -0.00913190842
v 0.0218051597 -0.0354322642 0.00912241824
v 0.0218051597 -0.0352276266 -0.00850148872
v 0.0218051597 -0.0352276266 0.00849199854
v 0.0218051597 -0.0324694589 -0.00960074924
v 0.0218051597 -0.0324694589 -0.00893793907
v 0.0218051597 -0.0324694589 0.00892844889
v 0.0218051597 -0.0324694589 0.00959125906
v 0.0218051597 -0.0297113005 -0.00850148872
v 0.0218051597 -0.0297113005 0.00849199854
v 0.0218051597 -0.0295066629 -0.00913190842
v 0.0218051597 -0.0295066629 0.00912241824
v 0.0218051597 -0.0272190291 -0.00723212864
v 0.0218051597 -0.0272190291 0.00722263847
v 0.0218051597 -0.0268294681 -0.00776836835
v 0.0218051597 -0.0268294681 0.00775887817
v 0.0218051597 -0.0252420809 -0.00525517762
v 0.0218051597 -0.0252420809 0.00524568744
v 0.0218051597 -0.0247058403 -0.00564473774
v 0.0218051597 -0.0247058403 0.00563524757
v 0.0218051597 -0.0239727199 -0.00276290625
v 0.0218051597 -0.0239727199 0.00275341608
v 0.0218051597 -0.0235362705 -4.74501439e-06
v 0.0218051597 -0.0233423002 -0.00296754646
v 0.0218051597 -0.0233423002 0.00295805628
v 0.0218051597 -0.0228734594 -4.74501439e-06
v 0.0218051635 0.0209315512 -4.74501439e-06
v 0.0218051635 0.0214003902 -0.00296754646
v 0.0218051635 0.0214003902 0.00295805628
v 0.0218051635 0.0215943512 -4.74501439e-06
v 0.0218051635 0.0220308099 -0.00276290625
v 0.0218051635 0.0220308099 0.00275341608
v 0.0218051635 0.0227639303 -0.00564473774
v 0.0218051635 0.0227639303 0.00563524757
v 0.0218051635 0.0233001709 -0.00525517762
v 0.0218051635 0.0233001709 0.00524568744
v 0.0218051635 0.0248875506 -0.00776836835
v 0.0218051635 0.0248875506 0.00775887817
v 0.0218051635 0.025277121 -0.00723212864
v 0.0218051635 0.025277121 0.00722263847
v 0.0218051635 0.0275647528 -0.00913190842
v 0.0218051635 0.0275647528 0.00912241824
v 0.0218051635 0.0277693942 -0.00850148872
v 0.0218051635 0.0277693942 0.00849199854
v 0.0218051635 0.0305275545 -0.00960074924
v 0.0218051635 0.0305275545 -0.00893793907
v 0.0218051635 0.0305275545 0.00892844889
v 0.0218051635 0.0305275545 0.00959125906
v 0.0218051635 0.0332857072 -0.00850148872
v 0.0218051635 0.0332857072 0.00849199854
v 0.0218051635 0.0334903561 -0.00913190842
v 0.0218051635 0.0334903561 0.00912241824
v 0.0218051635 0.0357779749 -0.00723212864
v 0.0218051635 0.0357779749 0.00722263847
v 0.0218051635 0.0361675471 -0.00776836835
v 0.0218051635 0.0361675471 0.00775887817
v 0.0218051635 0.0377549306 -0.00525517762
v 0.0218051635 0.0377549306 0.00524568744
v 0.0218051635 0.0382911786 -0.00564473774
v 0.0218051635 0.0382911786 0.00563524757
v 0.0218051635 0.0390242934 -0.00276290625
v 0.0218051635 0.0390242934 0.00275341608
v 0.0218051635 0.0394607484 -4.74501439e-06
v 0.0218051635 0.0396547168 -0.00296754646
v 0.0218051635 0.0396547168 0.00295805628
v 0.0218051635 0.0401235595 -4.74501439e-06
f 409 413 290
f 290 384 409
f 290 372 384
f 290 361 372
f 290 215 361
f 290 153 191
f 290 191 203
f 290 203 215
f 290 413 388
f 290 388 376
f 290 376 364
f 290 364 217
f 290 193 155
f 290 205 193
f 290 217 205
f 153 290 155
f 291 410 386
f 291 386 375
f 291 375 362
f 291 362 216
f 291 192 154
f 291 204 192
f 291 216 204
f 410 291 414
f 154 156 291
f 291 390 414
f 291 378 390
f 291 365 378
f 291 218 365
f 291 156 194
f 291 194 206
f 291 206 218
f 338 340 246
f 340 247 246
f 330 332 242
f 332 243 242
f 326 328 240
f 328 241 240
f 328 330 241
f 330 242 241
f 334 336 244
f 336 245 244
f 332 334 243
f 334 244 243
f 336 338 245
f 338 246 245
f 347 358 256
f 358 255 256
f 352 350 252
f 350 251 252
f 250 348 283
f 348 346 283
f 350 348 251
f 348 250 251
f 356 354 254
f 354 253 254
f 354 352 253
f 352 252 253
f 358 356 255
f 356 254 255
f 340 341 247
f 341 248 247
f 256 249 347
f 249 343 347
f 341 368 248
f 368 211 248
f 249 214 343
f 214 371 343
f 368 292 211
f 214 292 371
f 368 380 292
f 292 199 211
f 214 201 292
f 292 382 371
f 380 431 292
f 292 150 199
f 292 433 382
f 201 152 292
f 431 434 292
f 292 145 150
f 292 436 433
f 152 147 292
f 434 436 292
f 292 147 145
f 325 239 364
f 239 217 364
f 307 361 230
f 361 215 230
f 304 224 301
f 224 223 301
f 299 228 297
f 228 227 297
f 307 230 306
f 230 229 306
f 306 229 299
f 229 228 299
f 295 226 294
f 226 225 294
f 297 227 295
f 227 226 295
f 294 225 304
f 225 224 304
f 301 223 309
f 223 231 309
f 309 231 311
f 231 232 311
f 318 235 319
f 235 236 319
f 321 237 323
f 237 238 323
f 319 236 321
f 236 237 321
f 313 233 316
f 233 234 316
f 316 234 318
f 234 235 318
f 311 232 313
f 232 233 313
f 346 365 283
f 365 218 283
f 323 238 362
f 238 216 362
f 603 644 604
f 644 646 604
f 613 653 612
f 653 651 612
f 610 647 609
f 647 645 609
f 609 645 608
f 645 643 608
f 611 649 610
f 649 647 610
f 612 651 611
f 651 649 611
f 606 650 607
f 650 652 607
f 607 652 613
f 652 653 613
f 605 648 606
f 648 650 606
f 604 646 605
f 646 648 605
f 643 641 608
f 641 601 608
f 594 634 596
f 634 636 596
f 600 640 602
f 640 642 602
f 602 642 603
f 642 644 603
f 598 638 600
f 638 640 600
f 596 636 598
f 636 638 598
f 597 637 595
f 637 635 595
f 595 635 594
f 635 634 594
f 599 639 597
f 639 637 597
f 601 641 599
f 641 639 599
f 603 604 547
f 604 548 547
f 613 612 557
f 612 556 557
f 610 609 554
f 609 553 554
f 609 608 553
f 608 552 553
f 611 610 555
f 610 554 555
f 612 611 556
f 611 555 556
f 606 607 550
f 607 551 550
f 607 613 551
f 613 557 551
f 605 606 549
f 606 550 549
f 604 605 548
f 605 549 548
f 608 601 552
f 601 545 552
f 594 596 538
f 596 540 538
f 600 602 544
f 602 546 544
f 602 603 546
f 603 547 546
f 598 600 542
f 600 544 542
f 596 598 540
f 598 542 540
f 597 595 541
f 595 539 541
f 595 594 539
f 594 538 539
f 599 597 543
f 597 541 543
f 601 599 545
f 599 543 545
f 687 924 685
f 924 920 685
f 685 920 683
f 920 914 683
f 689 928 687
f 928 924 687
f 693 935 691
f 935 933 691
f 691 933 689
f 933 928 689
f 690 929 692
f 929 934 692
f 692 934 693
f 934 935 693
f 688 925 690
f 925 929 690
f 684 917 686
f 917 921 686
f 686 921 688
f 921 925 688
f 680 907 682
f 907 911 682
f 682 911 684
f 911 917 684
f 678 903 680
f 903 907 680
f 674 896 676
f 896 898 676
f 676 898 678
f 898 903 678
f 677 902 675
f 902 897 675
f 675 897 674
f 897 896 674
f 679 906 677
f 906 902 677
f 683 914 681
f 914 910 681
f 681 910 679
f 910 906 679
f 924 922 920
f 922 918 920
f 920 918 914
f 918 915 914
f 928 926 924
f 926 922 924
f 935 932 933
f 932 930 933
f 933 930 928
f 930 926 928
f 929 927 934
f 927 931 934
f 934 931 935
f 931 932 935
f 925 923 929
f 923 927 929
f 917 916 921
f 916 919 921
f 921 919 925
f 919 923 925
f 907 909 911
f 909 913 911
f 911 913 917
f 913 916 917
f 903 905 907
f 905 909 907
f 896 899 898
f 899 901 898
f 898 901 903
f 901 905 903
f 902 904 897
f 904 900 897
f 897 900 896
f 900 899 896
f 906 908 902
f 908 904 902
f 914 915 910
f 915 912 910
f 910 912 906
f 912 908 906
f 918 922 847
f 922 849 847
f 915 918 845
f 918 847 845
f 922 926 849
f 926 851 849
f 930 932 853
f 932 855 853
f 926 930 851
f 930 853 851
f 931 927 854
f 927 852 854
f 932 931 855
f 931 854 855
f 927 923 852
f 923 850 852
f 919 916 848
f 916 846 848
f 923 919 850
f 919 848 850
f 913 909 844
f 909 842 844
f 916 913 846
f 913 844 846
f 909 905 842
f 905 840 842
f 901 899 838
f 899 836 838
f 905 901 840
f 901 838 840
f 900 904 837
f 904 839 837
f 899 900 836
f 900 837 836
f 904 908 839
f 908 841 839
f 912 915 843
f 915 845 843
f 908 912 841
f 912 843 841
f 798 847 802
f 847 849 802
f 796 845 798
f 845 847 798
f 849 851 802
f 851 806 802
f 810 853 812
f 853 855 812
f 806 851 810
f 851 853 810
f 811 854 807
f 854 852 807
f 812 855 811
f 855 854 811
f 807 852 803
f 852 850 803
f 799 848 797
f 848 846 797
f 803 850 799
f 850 848 799
f 792 844 788
f 844 842 788
f 797 846 792
f 846 844 792
f 788 842 784
f 842 840 784
f 780 838 778
f 838 836 778
f 784 840 780
f 840 838 780
f 779 837 783
f 837 839 783
f 778 836 779
f 836 837 779
f 783 839 787
f 839 841 787
f 791 843 796
f 843 845 796
f 787 841 791
f 841 843 791
f 802 727 798
f 727 725 798
f 798 725 796
f 725 723 796
f 806 729 802
f 729 727 802
f 812 733 810
f 733 731 810
f 810 731 806
f 731 729 806
f 807 730 811
f 730 732 811
f 811 732 812
f 732 733 812
f 803 728 807
f 728 730 807
f 797 724 799
f 724 726 799
f 799 726 803
f 726 728 803
f 788 720 792
f 720 722 792
f 792 722 797
f 722 724 797
f 784 718 788
f 718 720 788
f 778 714 780
f 714 716 780
f 780 716 784
f 716 718 784
f 783 717 779
f 717 715 779
f 779 715 778
f 715 714 778
f 787 719 783
f 719 717 783
f 796 723 791
f 723 721 791
f 791 721 787
f 721 719 787
f 444 446 471
f 471 446 502
f 502 446 510
f 510 446 470
f 468 429 469
f 429 432 469
f 464 425 465
f 425 426 465
f 462 423 463
f 423 424 463
f 463 424 464
f 424 425 464
f 466 427 467
f 427 428 467
f 465 426 466
f 426 427 466
f 467 428 468
f 428 429 468
f 415 423 462
f 469 432 437
f 455 417 454
f 417 416 454
f 459 421 458
f 421 420 458
f 460 461 422
f 461 430 422
f 460 422 459
f 422 421 459
f 457 419 456
f 419 418 456
f 458 420 457
f 420 419 457
f 456 418 455
f 418 417 455
f 454 416 389
f 438 393 444
f 393 392 444
f 442 397 441
f 397 396 441
f 445 399 443
f 399 398 443
f 443 398 442
f 398 397 442
f 440 395 439
f 395 394 439
f 441 396 440
f 396 395 440
f 439 394 438
f 394 393 438
f 444 392 446
f 392 400 446
f 446 400 447
f 400 401 447
f 450 404 451
f 404 405 451
f 452 406 453
f 406 407 453
f 451 405 452
f 405 406 452
f 448 402 449
f 402 403 449
f 449 403 450
f 403 404 450
f 447 401 448
f 401 402 448
f 411 415 453
f 415 462 453
f 389 412 454
f 453 407 411
f 385 399 445
f 359 344 370
f 425 351 426
f 351 353 426
f 423 345 424
f 345 349 424
f 424 349 425
f 349 351 425
f 427 355 428
f 355 357 428
f 426 353 427
f 353 355 427
f 428 357 429
f 357 359 429
f 415 391 423
f 391 379 423
f 379 366 423
f 423 366 345
f 417 329 416
f 329 327 416
f 421 337 420
f 337 335 420
f 381 369 422
f 369 339 422
f 422 339 421
f 339 337 421
f 419 333 418
f 333 331 418
f 420 335 419
f 335 333 419
f 418 331 417
f 331 329 417
f 373 360 399
f 360 308 399
f 393 303 392
f 303 302 392
f 397 300 396
f 300 298 396
f 399 308 398
f 308 305 398
f 398 305 397
f 305 300 397
f 395 296 394
f 296 293 394
f 396 298 395
f 298 296 395
f 394 293 393
f 293 303 393
f 392 302 400
f 302 310 400
f 400 310 401
f 310 312 401
f 404 317 405
f 317 320 405
f 406 322 407
f 322 324 407
f 405 320 406
f 320 322 406
f 402 314 403
f 314 315 403
f 403 315 404
f 315 317 404
f 401 312 402
f 312 314 402
f 389 416 377
f 416 327 377
f 407 387 411
f 408 385 445
f 454 412 445
f 412 408 445
f 385 373 399
f 327 367 377
f 324 363 374
f 387 407 374
f 407 324 374
f 564 517 500
f 517 498 500
f 564 500 565
f 500 488 565
f 488 489 565
f 489 566 565
f 489 490 566
f 490 567 566
f 490 491 567
f 491 568 567
f 491 492 568
f 492 569 568
f 492 495 569
f 495 570 569
f 495 501 570
f 501 573 570
f 501 496 573
f 496 572 573
f 572 496 571
f 496 493 571
f 493 487 571
f 487 563 571
f 487 486 563
f 486 562 563
f 486 485 562
f 485 561 562
f 485 484 561
f 484 560 561
f 484 483 560
f 483 559 560
f 483 499 559
f 499 558 559
f 499 497 558
f 497 509 558
f 509 497 508
f 497 477 508
f 477 476 508
f 476 507 508
f 476 475 507
f 475 506 507
f 475 474 506
f 474 505 506
f 474 473 505
f 473 504 505
f 473 494 504
f 494 503 504
f 494 471 503
f 471 502 503
f 517 516 498
f 516 472 498
f 472 516 482
f 516 515 482
f 515 514 482
f 514 481 482
f 514 513 481
f 513 480 481
f 513 512 480
f 512 479 480
f 512 511 479
f 511 478 479
f 478 511 470
f 511 510 470
f 469 501 468
f 501 495 468
f 465 490 464
f 490 489 464
f 463 488 462
f 488 500 462
f 464 489 463
f 489 488 463
f 467 492 466
f 492 491 466
f 466 491 465
f 491 490 465
f 468 495 467
f 495 492 467
f 501 469 496
f 469 461 496
f 454 499 455
f 499 483 455
f 458 486 459
f 486 487 459
f 460 493 461
f 493 496 461
f 459 487 460
f 487 493 460
f 456 484 457
f 484 485 457
f 457 485 458
f 485 486 458
f 455 483 456
f 483 484 456
f 444 471 438
f 471 494 438
f 441 475 442
f 475 476 442
f 443 477 445
f 477 497 445
f 442 476 443
f 476 477 443
f 439 473 440
f 473 474 440
f 440 474 441
f 474 475 441
f 438 494 439
f 494 473 439
f 498 472 453
f 472 452 453
f 482 451 472
f 451 452 472
f 481 450 482
f 450 451 482
f 480 449 481
f 449 450 481
f 479 448 480
f 448 449 480
f 478 447 479
f 447 448 479
f 446 447 470
f 447 478 470
f 570 571 569
f 571 563 569
f 569 563 568
f 563 562 568
f 568 562 567
f 562 561 567
f 567 561 566
f 561 560 566
f 566 560 565
f 560 559 565
f 565 559 564
f 559 558 564
f 517 509 516
f 509 508 516
f 516 508 515
f 508 507 515
f 515 507 514
f 507 506 514
f 514 506 513
f 506 505 513
f 513 505 512
f 505 504 512
f 512 504 511
f 504 503 511
f 511 503 510
f 503 502 510
f 572 571 573
f 571 570 573
f 500 498 462
f 498 453 462
f 517 564 509
f 564 558 509
f 454 445 499
f 445 497 499
f 461 469 435
f 469 437 435
f 435 430 461
f 369 342 339
f 430 381 422
f 383 429 370
f 429 359 370
f 429 383 432
f 582 624 583
f 624 626 583
f 593 633 591
f 633 631 591
f 589 627 588
f 627 625 588
f 588 625 587
f 625 623 587
f 590 629 589
f 629 627 589
f 591 631 590
f 631 629 590
f 585 630 592
f 630 632 592
f 592 632 593
f 632 633 593
f 584 628 585
f 628 630 585
f 583 626 584
f 626 628 584
f 623 621 587
f 621 586 587
f 574 614 576
f 614 616 576
f 580 620 581
f 620 622 581
f 581 622 582
f 622 624 582
f 578 618 580
f 618 620 580
f 576 616 578
f 616 618 578
f 577 617 575
f 617 615 575
f 575 615 574
f 615 614 574
f 579 619 577
f 619 617 577
f 586 621 579
f 621 619 579
f 582 583 526
f 583 527 526
f 593 591 537
f 591 535 537
f 589 588 533
f 588 532 533
f 588 587 532
f 587 531 532
f 590 589 534
f 589 533 534
f 591 590 535
f 590 534 535
f 585 592 529
f 592 536 529
f 592 593 536
f 593 537 536
f 584 585 528
f 585 529 528
f 583 584 527
f 584 528 527
f 587 586 531
f 586 530 531
f 574 576 518
f 576 520 518
f 580 581 524
f 581 525 524
f 581 582 525
f 582 526 525
f 578 580 522
f 580 524 522
f 576 578 520
f 578 522 520
f 577 575 521
f 575 519 521
f 575 574 519
f 574 518 519
f 579 577 523
f 577 521 523
f 586 579 530
f 579 523 530
f 667 884 665
f 884 880 665
f 665 880 663
f 880 874 663
f 669 888 667
f 888 884 667
f 673 895 671
f 895 893 671
f 671 893 669
f 893 888 669
f 670 889 672
f 889 894 672
f 672 894 673
f 894 895 673
f 668 885 670
f 885 889 670
f 664 877 666
f 877 881 666
f 666 881 668
f 881 885 668
f 660 867 662
f 867 871 662
f 662 871 664
f 871 877 664
f 658 863 660
f 863 867 660
f 654 856 656
f 856 858 656
f 656 858 658
f 858 863 658
f 657 862 655
f 862 857 655
f 655 857 654
f 857 856 654
f 659 866 657
f 866 862 657
f 663 874 661
f 874 870 661
f 661 870 659
f 870 866 659
f 884 882 880
f 882 878 880
f 880 878 874
f 878 875 874
f 888 886 884
f 886 882 884
f 895 892 893
f 892 890 893
f 893 890 888
f 890 886 888
f 889 887 894
f 887 891 894
f 894 891 895
f 891 892 895
f 885 883 889
f 883 887 889
f 877 876 881
f 876 879 881
f 881 879 885
f 879 883 885
f 867 869 871
f 869 873 871
f 871 873 877
f 873 876 877
f 863 865 867
f 865 869 867
f 856 859 858
f 859 861 858
f 858 861 863
f 861 865 863
f 862 864 857
f 864 860 857
f 857 860 856
f 860 859 856
f 866 868 862
f 868 864 862
f 874 875 870
f 875 872 870
f 870 872 866
f 872 868 866
f 878 882 827
f 882 829 827
f 875 878 825
f 878 827 825
f 882 886 829
f 886 831 829
f 890 892 833
f 892 835 833
f 886 890 831
f 890 833 831
f 891 887 834
f 887 832 834
f 892 891 835
f 891 834 835
f 887 883 832
f 883 830 832
f 879 876 828
f 876 826 828
f 883 879 830
f 879 828 830
f 873 869 824
f 869 822 824
f 876 873 826
f 873 824 826
f 869 865 822
f 865 820 822
f 861 859 818
f 859 816 818
f 865 861 820
f 861 818 820
f 860 864 817
f 864 819 817
f 859 860 816
f 860 817 816
f 864 868 819
f 868 821 819
f 872 875 823
f 875 825 823
f 868 872 821
f 872 823 821
f 757 827 761
f 827 829 761
f 753 825 757
f 825 827 757
f 829 831 761
f 831 765 761
f 769 833 771
f 833 835 771
f 765 831 769
f 831 833 769
f 770 834 766
f 834 832 766
f 771 835 770
f 835 834 770
f 766 832 762
f 832 830 762
f 758 828 755
f 828 826 755
f 762 830 758
f 830 828 758
f 751 824 747
f 824 822 747
f 755 826 751
f 826 824 751
f 747 822 743
f 822 820 743
f 739 818 737
f 818 816 737
f 743 820 739
f 820 818 739
f 738 817 742
f 817 819 742
f 737 816 738
f 816 817 738
f 742 819 746
f 819 821 746
f 750 823 753
f 823 825 753
f 746 821 750
f 821 823 750
f 761 707 757
f 707 705 757
f 757 705 753
f 705 703 753
f 765 709 761
f 709 707 761
f 771 713 769
f 713 711 769
f 769 711 765
f 711 709 765
f 766 710 770
f 710 712 770
f 770 712 771
f 712 713 771
f 762 708 766
f 708 710 766
f 755 704 758
f 704 706 758
f 758 706 762
f 706 708 762
f 747 700 751
f 700 702 751
f 751 702 755
f 702 704 755
f 743 698 747
f 698 700 747
f 737 694 739
f 694 696 739
f 739 696 743
f 696 698 743
f 742 697 738
f 697 695 738
f 738 695 737
f 695 694 737
f 746 699 742
f 699 697 742
f 753 703 750
f 703 701 750
f 750 701 746
f 701 699 746
f 137 176 128
f 176 174 128
f 128 60 137
f 60 89 137
f 129 120 175
f 120 173 175
f 61 1 32
f 1 31 32
f 184 195 176
f 129 61 120
f 61 32 120
f 176 137 184
f 89 90 137
f 90 138 137
f 90 99 138
f 99 139 138
f 273 210 220
f 99 105 139
f 105 140 139
f 198 129 175
f 105 109 140
f 109 141 140
f 109 110 141
f 110 142 141
f 110 111 142
f 111 143 142
f 143 111 144
f 111 112 144
f 129 198 177
f 61 129 62
f 129 130 62
f 84 83 136
f 83 135 136
f 62 130 71
f 130 131 71
f 135 83 134
f 83 82 134
f 71 131 77
f 131 132 77
f 134 82 133
f 82 81 133
f 77 132 81
f 132 133 81
f 184 185 282
f 185 284 282
f 185 186 284
f 186 285 284
f 186 187 285
f 187 286 285
f 137 138 184
f 138 185 184
f 138 139 185
f 139 186 185
f 187 188 286
f 188 287 286
f 90 89 91
f 89 86 91
f 139 140 186
f 140 187 186
f 188 189 287
f 189 288 287
f 95 99 91
f 99 90 91
f 140 141 187
f 141 188 187
f 189 190 288
f 190 289 288
f 100 105 95
f 105 99 95
f 190 151 202
f 141 142 188
f 142 189 188
f 109 105 104
f 105 100 104
f 142 143 189
f 143 190 189
f 110 109 106
f 109 104 106
f 143 144 190
f 144 151 190
f 111 110 107
f 110 106 107
f 273 177 210
f 177 198 210
f 112 111 108
f 111 107 108
f 136 149 146
f 108 80 112
f 80 84 112
f 144 112 136
f 112 84 136
f 279 280 212
f 178 177 274
f 177 273 274
f 183 182 279
f 182 278 279
f 179 178 275
f 178 274 275
f 182 181 278
f 181 277 278
f 180 179 276
f 179 275 276
f 181 180 277
f 180 276 277
f 149 136 183
f 136 135 183
f 130 129 178
f 129 177 178
f 135 134 183
f 134 182 183
f 131 130 179
f 130 178 179
f 79 83 80
f 83 84 80
f 134 133 182
f 133 181 182
f 132 131 180
f 131 179 180
f 61 62 1
f 62 66 1
f 133 132 181
f 132 180 181
f 78 82 79
f 82 83 79
f 62 71 66
f 71 70 66
f 76 81 78
f 81 82 78
f 71 77 70
f 77 75 70
f 75 77 76
f 77 81 76
f 56 86 60
f 86 89 60
f 173 120 196
f 196 164 208
f 196 120 164
f 32 10 120
f 10 118 120
f 10 9 118
f 9 117 118
f 9 8 117
f 8 116 117
f 8 7 116
f 7 115 116
f 7 6 115
f 6 114 115
f 6 5 114
f 5 113 114
f 113 5 119
f 5 11 119
f 172 174 197
f 197 209 172
f 209 272 172
f 208 164 222
f 164 264 222
f 272 209 221
f 128 174 172
f 60 128 55
f 128 127 55
f 33 34 121
f 34 122 121
f 55 127 46
f 127 126 46
f 122 34 123
f 34 35 123
f 46 126 41
f 126 125 41
f 40 124 35
f 124 123 35
f 41 125 40
f 125 124 40
f 27 10 31
f 10 32 31
f 23 9 27
f 9 10 27
f 120 118 164
f 118 163 164
f 19 8 23
f 8 9 23
f 118 117 163
f 117 162 163
f 7 8 15
f 8 19 15
f 117 116 162
f 116 161 162
f 164 163 264
f 163 263 264
f 6 7 14
f 7 15 14
f 163 162 263
f 162 262 263
f 116 115 161
f 115 160 161
f 5 6 13
f 6 14 13
f 11 5 12
f 5 13 12
f 162 161 262
f 161 261 262
f 115 114 160
f 114 159 160
f 161 160 261
f 160 260 261
f 114 113 159
f 113 158 159
f 113 119 158
f 119 157 158
f 160 159 260
f 159 259 260
f 159 158 259
f 158 258 259
f 158 157 258
f 157 257 258
f 11 12 33
f 12 36 33
f 119 11 121
f 11 33 121
f 119 121 157
f 121 165 157
f 157 165 257
f 165 265 257
f 33 36 34
f 36 37 34
f 51 56 55
f 56 60 55
f 34 37 35
f 37 38 35
f 47 51 46
f 51 55 46
f 35 38 40
f 38 42 40
f 45 47 41
f 47 46 41
f 40 42 41
f 42 45 41
f 121 122 165
f 122 166 165
f 127 128 171
f 128 172 171
f 122 123 166
f 123 167 166
f 126 127 170
f 127 171 170
f 123 124 167
f 124 168 167
f 125 126 169
f 126 170 169
f 124 125 168
f 125 169 168
f 165 166 265
f 166 266 265
f 171 172 271
f 172 272 271
f 166 167 266
f 167 267 266
f 170 171 270
f 171 271 270
f 167 168 267
f 168 268 267
f 169 170 269
f 170 270 269
f 168 169 268
f 169 269 268
f 195 184 207
f 184 282 207
f 282 219 207
f 144 148 151
f 148 144 146
f 144 136 146
f 200 183 212
f 183 279 212
f 149 183 200
f 289 190 213
f 190 202 213
f 213 281 289
f 749 745 754
f 754 745 741
f 741 736 754
f 754 736 734
f 767 754 763
f 754 759 763
f 734 735 754
f 754 735 740
f 774 773 754
f 754 773 768
f 760 754 764
f 754 768 764
f 760 756 754
f 756 749 754
f 748 754 744
f 754 740 744
f 759 754 752
f 754 748 752
f 774 754 772
f 754 767 772
f 627 667 625
f 667 665 625
f 625 665 623
f 665 663 623
f 629 669 627
f 669 667 627
f 633 673 631
f 673 671 631
f 631 671 629
f 671 669 629
f 630 670 632
f 670 672 632
f 632 672 633
f 672 673 633
f 628 668 630
f 668 670 630
f 624 664 626
f 664 666 626
f 626 666 628
f 666 668 628
f 620 660 622
f 660 662 622
f 622 662 624
f 662 664 624
f 618 658 620
f 658 660 620
f 614 654 616
f 654 656 616
f 616 656 618
f 656 658 618
f 617 657 615
f 657 655 615
f 615 655 614
f 655 654 614
f 619 659 617
f 659 657 617
f 623 663 621
f 663 661 621
f 621 661 619
f 661 659 619
f 647 687 645
f 687 685 645
f 645 685 643
f 685 683 643
f 649 689 647
f 689 687 647
f 653 693 651
f 693 691 651
f 651 691 649
f 691 689 649
f 650 690 652
f 690 692 652
f 652 692 653
f 692 693 653
f 648 688 650
f 688 690 650
f 644 684 646
f 684 686 646
f 646 686 648
f 686 688 648
f 640 680 642
f 680 682 642
f 642 682 644
f 682 684 644
f 638 678 640
f 678 680 640
f 634 674 636
f 674 676 636
f 636 676 638
f 676 678 638
f 637 677 635
f 677 675 635
f 635 675 634
f 675 674 634
f 639 679 637
f 679 677 637
f 643 683 641
f 683 681 641
f 641 681 639
f 681 679 639
f 790 786 794
f 794 786 782
f 782 777 794
f 794 777 775
f 808 794 804
f 794 800 804
f 775 776 794
f 794 776 781
f 815 814 794
f 794 814 809
f 801 794 805
f 794 809 805
f 801 795 794
f 795 790 794
f 789 794 785
f 794 781 785
f 800 794 793
f 794 789 793
f 815 794 813
f 794 808 813
f 70 75 69
f 75 74 69
f 66 70 65
f 70 69 65
f 1 66 4
f 66 65 4
f 1 4 31
f 4 30 31
f 31 30 27
f 30 26 27
f 27 26 23
f 26 22 23
f 23 22 19
f 22 18 19
f 39 50 44
f 50 49 44
f 50 54 49
f 54 53 49
f 54 59 53
f 59 58 53
f 85 88 59
f 88 58 59
f 94 93 85
f 93 88 85
f 98 97 94
f 97 93 94
f 103 102 98
f 102 97 98
f 44 49 43
f 49 48 43
f 49 53 48
f 53 52 48
f 53 58 52
f 58 57 52
f 88 87 58
f 87 57 58
f 93 92 88
f 92 87 88
f 97 96 93
f 96 92 93
f 102 101 97
f 101 96 97
f 20 50 16
f 50 39 16
f 24 54 20
f 54 50 20
f 28 59 24
f 59 54 24
f 2 85 28
f 85 59 28
f 63 94 2
f 94 85 2
f 67 98 63
f 98 94 63
f 72 103 67
f 103 98 67
f 21 20 17
f 20 16 17
f 25 24 21
f 24 20 21
f 29 28 25
f 28 24 25
f 3 2 29
f 2 28 29
f 3 64 2
f 64 63 2
f 64 68 63
f 68 67 63
f 68 73 67
f 73 72 67
f 43 48 45
f 48 47 45
f 48 52 47
f 52 51 47
f 52 57 51
f 57 56 51
f 87 86 57
f 86 56 57
f 92 91 87
f 91 86 87
f 96 95 92
f 95 91 92
f 101 100 96
f 100 95 96
f 22 21 18
f 21 17 18
f 26 25 22
f 25 21 22
f 30 29 26
f 29 25 26
f 4 3 30
f 3 29 30
f 4 65 3
f 65 64 3
f 65 69 64
f 69 68 64
f 69 74 68
f 74 73 68
f 13 14 17
f 14 18 17
f 12 13 16
f 13 17 16
f 12 16 36
f 16 39 36
f 36 39 37
f 39 44 37
f 37 44 38
f 44 43 38
f 107 106 102
f 106 101 102
f 108 107 103
f 107 102 103
f 80 108 72
f 108 103 72
f 80 72 79
f 72 73 79
f 79 73 78
f 73 74 78
f 106 104 101
f 104 100 101
f 78 74 76
f 74 75 76
f 14 15 18
f 15 19 18
f 45 42 43
f 42 38 43
