# https://github.com/mikedh/trimesh

o FR3_Version2_Link2_0-mesh
v 0.05450000 0.00120848 0.00649307
v 0.05450000 0.00115002 0.00650000
v 0.05450000 -0.00138749 0.00617196
v 0.05450000 -0.00114998 0.00650000
v 0.05450000 -0.00120844 0.00649307
v 0.05450000 0.00138119 0.00634519
v 0.05450000 0.00135252 0.00639661
v 0.05450000 -0.00138114 0.00634519
v 0.05450000 -0.00139700 0.00628850
v 0.05450000 -0.00135247 0.00639661
v 0.05450000 -0.00131258 0.00643990
v 0.05450000 -0.00126366 0.00647266
v 0.05450000 -0.00139915 0.00622967
v 0.05450000 0.00138753 0.00617196
v 0.05450000 0.00139919 0.00622967
v 0.05450000 0.00139704 0.00628850
v 0.05450000 0.00023753 0.00267196
v 0.05450000 -0.00023749 0.00267196
v 0.05450000 0.00021075 0.00261549
v 0.05450000 -0.00021071 0.00261549
v 0.05450000 -0.00017075 0.00256742
v 0.05450000 0.00131262 0.00643990
v 0.05450000 0.00126370 0.00647266
v 0.05450000 0.00006204 0.00250781
v 0.05450000 0.00012017 0.00253077
v 0.05450000 0.00000002 0.00250000
v 0.05450000 0.00017080 0.00256742
v 0.05450000 -0.00012013 0.00253077
v 0.05450000 -0.00006199 0.00250781
v 0.05450000 -0.18600001 -0.00115000
v 0.05450000 -0.18600001 0.00115000
v 0.05450000 -0.18632801 -0.00138751
v 0.05450000 -0.18600691 0.00120846
v 0.05450000 -0.18602731 0.00126368
v 0.05450000 -0.18606011 0.00131260
v 0.05450000 -0.18610340 0.00135250
v 0.05450000 -0.18615481 0.00138117
v 0.05450000 -0.18621151 0.00139702
v 0.05450000 -0.18627030 -0.00139917
v 0.05450000 -0.18621151 -0.00139702
v 0.05450000 -0.18982801 0.00023751
v 0.05450000 -0.18982801 -0.00023751
v 0.05450000 -0.18632801 0.00138751
v 0.05450000 -0.18627030 0.00139917
v 0.05450000 -0.18988452 0.00021073
v 0.05450000 -0.18993261 0.00017078
v 0.05450000 -0.18996920 0.00012015
v 0.05450000 -0.18999221 0.00006201
v 0.05450000 -0.19000001 0.00000000
v 0.05450000 -0.18999221 -0.00006201
v 0.05450000 -0.18615481 -0.00138117
v 0.05450000 -0.18610340 -0.00135250
v 0.05450000 -0.18606011 -0.00131260
v 0.05450000 -0.18602731 -0.00126368
v 0.05450000 -0.18600691 -0.00120846
v 0.05450000 -0.18996920 -0.00012015
v 0.05450000 -0.18993261 -0.00017078
v 0.05450000 -0.18988452 -0.00021073
f 1 2 3
f 2 4 3
f 3 4 5
f 3 6 7
f 8 9 10
f 9 11 10
f 5 12 3
f 12 11 3
f 3 11 13
f 11 9 13
f 14 15 3
f 15 16 3
f 3 16 6
f 14 3 17
f 3 18 17
f 17 18 19
f 18 20 19
f 19 20 21
f 7 22 3
f 22 23 3
f 3 23 1
f 24 25 26
f 25 27 26
f 26 27 19
f 21 28 19
f 28 29 19
f 19 29 26
f 30 31 32
f 31 33 32
f 33 34 32
f 32 34 35
f 35 36 32
f 36 37 32
f 32 37 38
f 32 39 40
f 41 42 43
f 42 32 43
f 43 32 44
f 32 38 44
f 41 45 42
f 45 46 42
f 42 46 47
f 47 48 42
f 48 49 42
f 42 49 50
f 40 51 32
f 51 52 32
f 32 52 53
f 53 54 32
f 54 55 32
f 32 55 30
f 50 56 42
f 56 57 42
f 42 57 58

