# https://github.com/mikedh/trimesh

o FR3_Version2_Link4_0-mesh
v -0.02800298 0.11690320 0.00115000
v -0.02800298 0.11690320 -0.00115000
v -0.02800298 0.11723131 0.00138751
v -0.02800298 0.11691021 -0.00120846
v -0.02800298 0.11693061 -0.00126368
v -0.02800298 0.11696331 -0.00131260
v -0.02800298 0.11700660 -0.00135250
v -0.02800298 0.11705800 -0.00138117
v -0.02800298 0.11711471 -0.00139702
v -0.02800298 0.12083581 -0.00017078
v -0.02800298 0.12087250 -0.00012015
v -0.02800298 0.12073131 0.00023751
v -0.02800298 0.11717360 0.00139917
v -0.02800298 0.11711471 0.00139702
v -0.02800298 0.12078781 -0.00021073
v -0.02800298 0.12089541 -0.00006201
v -0.02800298 0.12090320 0.00000000
v -0.02800298 0.12089541 0.00006201
v -0.02800298 0.12087250 0.00012015
v -0.02800298 0.12083581 0.00017078
v -0.02800298 0.12078781 0.00021073
v -0.02800298 0.11705800 0.00138117
v -0.02800298 0.11700660 0.00135250
v -0.02800298 0.11696331 0.00131260
v -0.02800298 0.11693061 0.00126368
v -0.02800298 0.11691021 0.00120846
v -0.02800298 0.11717360 -0.00139917
v -0.02800298 0.11723131 -0.00138751
v -0.02800298 0.12073131 -0.00023751
v 0.03868561 0.03833667 0.00261835
v 0.03868426 0.03833804 0.00261557
v 0.03861009 0.03841279 0.00255782
v 0.03870313 0.03831887 0.00267196
v 0.03867561 0.03834681 0.00259774
v 0.03865550 0.03836712 0.00256847
v 0.03864654 0.03837617 0.00255542
v 0.03864654 0.03837617 0.00255542
v 0.03863227 0.03839056 0.00254069
v 0.03862011 0.03840279 0.00253215
v 0.03859491 0.03842814 0.00251443
v 0.03857957 0.03844353 0.00250792
v 0.03857797 0.03844513 0.00250724
v 0.03853650 0.03848667 0.00250000
v 0.03853578 0.03848740 0.00250005
v 0.03851880 0.03850436 0.00250116
v 0.03937164 0.03761425 0.00649303
v 0.03849212 0.03853096 0.00250937
v 0.03847788 0.03854517 0.00251376
v 0.03846142 0.03856155 0.00252313
v 0.03845121 0.03857169 0.00253199
v 0.03842568 0.03859704 0.00255415
v 0.03841484 0.03860779 0.00256756
v 0.03841232 0.03861028 0.00257067
v 0.03838642 0.03863588 0.00261558
v 0.03838582 0.03863647 0.00261661
v 0.03836724 0.03865475 0.00267196
v 0.03933118 0.03765645 0.00650000
v 0.03753406 0.03944791 0.00617196
v 0.03752543 0.03945574 0.00622967
v 0.03937184 0.03761404 0.00649300
v 0.03938847 0.03759670 0.00648590
v 0.03940935 0.03757493 0.00647111
v 0.03942524 0.03755836 0.00645985
v 0.03943932 0.03754370 0.00644520
v 0.03944334 0.03753952 0.00643931
v 0.03946808 0.03751379 0.00640304
v 0.03947127 0.03751049 0.00639646
v 0.03947803 0.03750348 0.00638248
v 0.03949045 0.03749066 0.00634458
v 0.03949556 0.03748539 0.00632898
v 0.03950027 0.03748060 0.00630484
v 0.03950149 0.03747943 0.00628835
v 0.03950463 0.03747640 0.00624602
v 0.03950395 0.03747724 0.00622969
v 0.03949629 0.03748568 0.00617196
v 0.03950358 0.03747768 0.00622103
v 0.03752540 0.03945578 0.00622993
v 0.03752477 0.03945622 0.00625495
v 0.03752802 0.03945291 0.00628826
v 0.03753049 0.03945041 0.00631352
v 0.03753590 0.03944511 0.00633739
v 0.03753864 0.03944246 0.00634480
v 0.03758818 0.03939469 0.00643885
v 0.03759716 0.03938607 0.00645063
v 0.03761080 0.03937309 0.00644463
v 0.03761217 0.03937166 0.00646453
v 0.03762318 0.03936109 0.00647136
v 0.03765114 0.03933427 0.00648869
v 0.03766267 0.03932322 0.00649280
v 0.03755535 0.03942627 0.00638996
v 0.03755886 0.03942289 0.00639645
v 0.03756618 0.03941584 0.00640997
v 0.03766864 0.03931750 0.00649492
v 0.03770483 0.03928280 0.00650000
f 1 2 3
f 2 4 3
f 4 5 3
f 3 5 6
f 6 7 3
f 7 8 3
f 3 8 9
f 10 11 12
f 3 13 14
f 10 12 15
f 11 16 12
f 16 17 12
f 12 17 18
f 18 19 12
f 19 20 12
f 12 20 21
f 14 22 3
f 22 23 3
f 3 23 24
f 24 25 3
f 25 26 3
f 3 26 1
f 9 27 3
f 27 28 3
f 3 28 12
f 28 29 12
f 12 29 15
f 30 31 32
f 30 32 33
f 31 34 32
f 34 35 32
f 32 35 36
f 37 38 32
f 38 39 32
f 32 39 40
f 40 41 32
f 41 42 32
f 32 42 43
f 44 45 46
f 45 47 46
f 46 47 48
f 48 49 46
f 49 50 46
f 46 50 51
f 51 52 46
f 52 53 46
f 46 53 54
f 54 55 46
f 55 56 46
f 46 56 57
f 56 58 57
f 57 58 59
f 43 44 32
f 44 46 32
f 32 46 33
f 46 60 33
f 60 61 33
f 61 62 33
f 33 62 63
f 63 64 33
f 64 65 33
f 33 65 66
f 66 67 33
f 67 68 33
f 33 68 69
f 69 70 33
f 70 71 33
f 33 71 72
f 72 73 33
f 73 74 33
f 33 74 75
f 74 76 75
f 59 77 57
f 77 78 57
f 57 78 79
f 79 80 57
f 80 81 57
f 57 81 82
f 83 84 85
f 84 86 85
f 86 87 85
f 87 88 85
f 85 88 89
f 82 90 57
f 90 91 57
f 57 91 85
f 91 92 85
f 85 92 83
f 89 93 85
f 93 94 85
f 85 94 57

