# https://github.com/mikedh/trimesh

o FR3_Version2_Link7_2-mesh
v -0.02680047 -0.03476988 0.05448587
v -0.02683294 -0.03474483 0.05452545
v -0.02685829 -0.03472524 0.05445500
v -0.02696064 -0.03464583 0.05458000
v -0.02675570 -0.03480434 0.05363000
v -0.02675570 -0.03480434 0.05433000
v -0.02687180 -0.03471479 0.05455524
v -0.02691509 -0.03468123 0.05457373
v -0.02676085 -0.03480039 0.05438563
v -0.02677603 -0.03478871 0.05443847
v -0.02991736 -0.03212728 0.05448587
v -0.02994062 -0.03210560 0.05443847
v -0.02986235 -0.03217841 0.05445500
v -0.02995505 -0.03209213 0.05438563
v -0.02995994 -0.03208756 0.05433000
v -0.02980803 -0.03222873 0.05457373
v -0.02984937 -0.03219045 0.05455524
v -0.02988643 -0.03215605 0.05452545
v -0.02995994 -0.03208756 0.05363000
v -0.02976448 -0.03226895 0.05458000
v -0.02991952 -0.03212526 0.05347767
v -0.02990276 -0.03214086 0.05345322
v -0.02986235 -0.03217841 0.05350500
v -0.02986230 -0.03217846 0.05341349
v -0.02981513 -0.03222216 0.05338851
v -0.02995330 -0.03209377 0.05356529
v -0.02994510 -0.03210142 0.05353436
v -0.02993380 -0.03211196 0.05350500
v -0.02685829 -0.03472524 0.05350500
v -0.02995826 -0.03208913 0.05359726
v -0.02687180 -0.03471479 0.05340476
v -0.02683294 -0.03474483 0.05343454
v -0.02680047 -0.03476988 0.05347413
v -0.02677603 -0.03478871 0.05352153
v -0.02676085 -0.03480039 0.05357437
v -0.02976448 -0.03226895 0.05338000
v -0.02696064 -0.03464583 0.05338000
v -0.02691509 -0.03468123 0.05338627
v -0.00563523 -0.04353681 0.05347413
v -0.00559456 -0.04354206 0.05343454
v -0.00556277 -0.04354613 0.05350500
v -0.00308734 -0.04379130 0.05592546
v -0.00313718 -0.04378776 0.05595524
v -0.00311974 -0.04378900 0.05585500
v -0.00319272 -0.04378374 0.05597373
v -0.00325115 -0.04377945 0.05598000
v -0.00299490 -0.04379772 0.05578563
v -0.00301437 -0.04379639 0.05583847
v -0.00304571 -0.04379422 0.05588587
v -0.00411397 -0.04370681 0.05585500
v -0.00418741 -0.04369983 0.05588587
v -0.00421841 -0.04369685 0.05583847
v -0.00423765 -0.04369499 0.05578563
v -0.00424418 -0.04369436 0.05573000
v -0.00424418 -0.04369436 0.05458000
v -0.00404174 -0.04371355 0.05597373
v -0.00409681 -0.04370842 0.05595524
v -0.00414619 -0.04370376 0.05592546
v -0.00398373 -0.04371887 0.05598000
v -0.00298831 -0.04379817 0.05458000
v -0.00298831 -0.04379817 0.05573000
v -0.00563523 -0.04353681 0.05448587
v -0.00566583 -0.04353284 0.05443847
v -0.00556277 -0.04354613 0.05445500
v -0.00568481 -0.04353037 0.05438563
v -0.00569125 -0.04352952 0.05433000
v -0.00543425 -0.04356235 0.05458000
v -0.00549149 -0.04355518 0.05457373
v -0.00554583 -0.04354829 0.05455524
v -0.00559456 -0.04354206 0.05452545
v -0.00554583 -0.04354829 0.05340476
v -0.00549149 -0.04355518 0.05338627
v -0.00543425 -0.04356235 0.05338000
v -0.00569125 -0.04352952 0.05363000
v -0.00568481 -0.04353037 0.05357437
v -0.00566583 -0.04353284 0.05352153
v -0.00414619 -0.04370376 0.05203454
v -0.00409681 -0.04370842 0.05200476
v -0.00411397 -0.04370681 0.05210500
v -0.00404174 -0.04371355 0.05198627
v -0.00398373 -0.04371887 0.05198000
v -0.00423765 -0.04369499 0.05217437
v -0.00421841 -0.04369685 0.05212153
v -0.00418741 -0.04369983 0.05207413
v -0.00311974 -0.04378900 0.05210500
v -0.00304571 -0.04379422 0.05207413
v -0.00301437 -0.04379639 0.05212153
v -0.00299490 -0.04379772 0.05217437
v -0.00298831 -0.04379817 0.05223000
v -0.00298831 -0.04379817 0.05338000
v -0.00319272 -0.04378374 0.05198627
v -0.00313718 -0.04378776 0.05200476
v -0.00308734 -0.04379130 0.05203454
v -0.00325115 -0.04377945 0.05198000
v -0.00424418 -0.04369436 0.05338000
v -0.00424418 -0.04369436 0.05223000
v -0.00156265 -0.04387218 0.05448587
v -0.00160486 -0.04387065 0.05452545
v -0.00163770 -0.04386944 0.05445500
v -0.00156265 -0.04387218 0.05347413
v -0.00153087 -0.04387330 0.05352153
v -0.00163770 -0.04386944 0.05350500
v -0.00151114 -0.04387398 0.05357437
v -0.00150445 -0.04387421 0.05363000
v -0.00177093 -0.04386426 0.05338000
v -0.00171169 -0.04386661 0.05338627
v -0.00165539 -0.04386878 0.05340476
v -0.00160486 -0.04387065 0.05343454
v -0.00165539 -0.04386878 0.05455524
v -0.00171169 -0.04386661 0.05457373
v -0.00177093 -0.04386426 0.05458000
v -0.00150445 -0.04387421 0.05433000
v -0.00151114 -0.04387398 0.05438563
v -0.00153087 -0.04387330 0.05443847
f 1 2 3
f 4 5 3
f 5 6 3
f 2 7 3
f 7 8 3
f 3 8 4
f 6 9 3
f 9 10 3
f 3 10 1
f 11 12 13
f 12 14 13
f 13 14 15
f 16 17 13
f 17 18 13
f 13 18 11
f 15 19 13
f 19 20 13
f 13 20 16
f 21 22 23
f 22 24 23
f 23 24 25
f 26 27 23
f 27 28 23
f 23 28 21
f 29 19 23
f 19 30 23
f 23 30 26
f 31 32 29
f 32 33 29
f 29 33 34
f 34 35 29
f 35 5 29
f 29 5 19
f 5 4 19
f 19 4 20
f 25 36 23
f 36 37 23
f 23 37 29
f 37 38 29
f 29 38 31
f 39 40 41
f 42 43 44
f 43 45 44
f 44 45 46
f 47 48 44
f 48 49 44
f 44 49 42
f 50 51 52
f 52 53 50
f 53 54 50
f 50 54 55
f 56 57 50
f 57 58 50
f 50 58 51
f 56 50 59
f 50 55 59
f 59 55 46
f 55 60 46
f 46 60 44
f 60 61 44
f 44 61 47
f 62 63 64
f 63 65 64
f 64 65 66
f 64 67 68
f 68 69 64
f 69 70 64
f 64 70 62
f 40 71 41
f 71 72 41
f 41 72 73
f 74 75 41
f 75 76 41
f 41 76 39
f 77 78 79
f 78 80 79
f 79 80 81
f 82 83 79
f 83 84 79
f 79 84 77
f 85 86 87
f 87 88 85
f 88 89 85
f 85 89 90
f 91 92 85
f 92 93 85
f 85 93 86
f 91 85 94
f 85 90 94
f 94 90 81
f 90 95 81
f 81 95 79
f 95 96 79
f 79 96 82
f 97 98 99
f 100 101 102
f 101 103 102
f 102 103 104
f 102 105 106
f 106 107 102
f 107 108 102
f 102 108 100
f 98 109 99
f 109 110 99
f 99 110 111
f 112 113 99
f 113 114 99
f 99 114 97
f 66 74 64
f 74 41 64
f 64 41 67
f 41 73 67
f 67 73 55
f 73 95 55
f 55 95 60
f 95 90 60
f 60 90 111
f 90 105 111
f 111 105 99
f 105 102 99
f 99 102 112
f 102 104 112

