# https://github.com/mikedh/trimesh

o mesh-a0a8fa41-fbd7-46ce-b300-9bf655957ffe
v 0.13921420 0.04491422 0.32462500
v 0.13964775 0.04426537 0.32462500
v 0.13964775 0.04426537 0.07250000
v 0.13921420 0.04491422 0.57675000
v 0.13964775 0.04426537 0.57675000
v 0.13921420 0.04491422 0.82887500
v 0.13964775 0.04426537 0.82887500
v 0.13921420 0.04491422 1.08100000
v 0.13964775 0.04426537 1.08100000
v 0.13856537 0.04534776 0.32462500
v 0.13921420 0.04491422 0.07250000
v 0.13856537 0.04534776 0.57675000
v 0.13856537 0.04534776 0.82887500
v 0.13856537 0.04534776 1.08100000
v 0.13979999 0.04350000 0.32462500
v 0.13979999 0.04350000 0.07250000
v 0.13979999 0.04350000 0.57675000
v 0.13979999 0.04350000 1.08100000
v 0.13979999 0.04350000 0.82887500
v 0.13856537 0.04534776 0.07250000
v 0.13779999 0.04550000 0.07250000
v 0.13779999 0.04550000 0.32462500
v 0.13779999 0.04550000 0.82887500
v 0.13779999 0.04550000 0.57675000
v 0.12129999 0.04550000 0.07250000
v 0.13779999 0.04550000 0.32462500
v 0.13779999 0.04550000 0.07250000
v 0.13779999 0.04550000 0.57675000
v 0.12129999 0.04550000 1.08100000
v 0.13779999 0.04550000 0.82887500
v 0.13779999 0.04550000 1.08100000
v 0.13921420 -0.04491422 0.32462500
v 0.13856537 -0.04534776 0.32462500
v 0.13856537 -0.04534776 0.07250000
v 0.13921420 -0.04491422 0.57675000
v 0.13856537 -0.04534776 0.57675000
v 0.13921420 -0.04491422 0.82887500
v 0.13856537 -0.04534776 0.82887500
v 0.13921420 -0.04491422 1.08100000
v 0.13856537 -0.04534776 1.08100000
v 0.13964775 -0.04426537 0.32462500
v 0.13921420 -0.04491422 0.07250000
v 0.13964775 -0.04426537 0.57675000
v 0.13964775 -0.04426537 0.82887500
v 0.13964775 -0.04426537 1.08100000
v 0.13779999 -0.04550000 0.32462500
v 0.13779999 -0.04550000 0.07250000
v 0.13779999 -0.04550000 0.57675000
v 0.13779999 -0.04550000 1.08100000
v 0.13779999 -0.04550000 0.82887500
v 0.13964775 -0.04426537 0.07250000
v 0.13979999 -0.04350000 0.07250000
v 0.13979999 -0.04350000 0.32462500
v 0.13979999 -0.04350000 0.82887500
v 0.13979999 -0.04350000 0.57675000
v 0.12129999 -0.04550000 0.07250000
v 0.13779999 -0.04550000 0.07250000
v 0.13779999 -0.04550000 0.32462500
v 0.13779999 -0.04550000 0.57675000
v 0.13779999 -0.04550000 0.82887500
v 0.12129999 -0.04550000 1.08100000
v 0.13779999 -0.04550000 1.08100000
v 0.13979999 -0.04350000 0.82887500
v 0.13979999 0.04350000 0.82887500
v 0.13979999 0.04350000 1.08100000
v 0.13979999 -0.04350000 0.32462500
v 0.13979999 0.04350000 0.32462500
v 0.13979999 0.04350000 0.57675000
v 0.13979999 -0.04350000 0.07250000
v 0.13979999 0.04350000 0.07250000
v 0.13979999 -0.04350000 0.57675000
v 0.13779999 0.04550000 1.08100000
v 0.13979999 -0.04350000 1.08100000
v 0.13979999 -0.04350000 1.08100000
f 1 2 3
f 4 5 2
f 6 7 5
f 8 9 7
f 10 1 11
f 12 4 1
f 13 6 4
f 14 8 6
f 15 16 3
f 17 15 2
f 18 19 7
f 5 7 19
f 10 20 21
f 12 10 22
f 14 13 23
f 24 23 13
f 25 26 27
f 28 26 25
f 29 30 28
f 30 29 31
f 25 29 28
f 32 33 34
f 35 36 33
f 37 38 36
f 39 40 38
f 41 32 42
f 43 35 32
f 44 37 35
f 45 39 37
f 46 47 34
f 48 46 33
f 49 50 38
f 36 38 50
f 41 51 52
f 43 41 53
f 45 44 54
f 55 54 44
f 56 57 58
f 56 58 59
f 60 61 59
f 56 59 61
f 60 62 61
f 63 64 65
f 66 67 68
f 69 70 67
f 71 68 64
f 1 3 11
f 4 2 1
f 6 5 4
f 8 7 6
f 10 11 20
f 12 1 10
f 13 4 12
f 14 6 13
f 15 3 2
f 17 2 5
f 18 7 9
f 5 19 17
f 10 21 22
f 12 22 24
f 14 23 72
f 24 13 12
f 32 34 42
f 35 33 32
f 37 36 35
f 39 38 37
f 41 42 51
f 43 32 41
f 44 35 43
f 45 37 44
f 46 34 33
f 48 33 36
f 49 38 40
f 36 50 48
f 41 52 53
f 43 53 55
f 45 54 73
f 55 44 43
f 63 65 74
f 66 68 71
f 69 67 66
f 71 64 63

